<svg xmlns="http://www.w3.org/2000/svg" version="1.1" width="93.00000000000001" height="106" viewBox="0 0 93.00000000000001 106"><defs/><path fill="#f89c44" stroke="none" d="M 50.6988,91.5429 C 51.5438,91.8419 52.7468,96.5609 53.1758,97.6199 C 53.4888,98.3929 53.6268,99.1629 52.5678,99.2979 C 51.9458,99.3779 50.3778,99.0879 50.4648,100.187 C 50.5578,101.361 53.5638,100.589 54.2608,100.923 C 54.7628,101.164 54.8708,101.788 55.4648,101.87 C 56.4208,102.002 56.3068,100.926 56.2658,100.334 C 57.0448,100.048 60.8138,101.277 61.6788,101.493 C 63.4078,101.728 62.5868,100.34 62.1568,100.126 C 61.4718,99.7879 60.7528,99.3839 60.0068,99.1209 C 58.9968,98.7659 57.9628,98.5229 56.9738,98.0829 C 54.2038,97.9889 53.1818,91.0249 53.3638,90.6069" transform=""/><path fill="#f89c44" stroke="none" d="M 33.2725,91.5429 C 33.2645,92.9539 32.5855,97.4919 32.2445,98.2259 C 31.4105,100.022 28.4835,99.1669 27.1525,100.328 C 26.1145,101.231 27.4745,101.485 28.2265,101.411 C 29.0435,101.33 29.8305,100.972 30.6095,100.71 C 30.9525,100.595 31.2795,100.392 31.4495,100.747 C 31.6395,101.146 31.2165,101.573 31.7305,101.862 C 32.6485,102.377 33.1135,101.335 33.1785,100.655 C 33.2045,100.384 33.1305,100.324 33.3295,100.189 C 33.4855,100.084 33.8705,100.122 34.0535,100.14 C 34.5435,100.188 35.0745,100.347 35.5145,100.573 C 36.3565,101.005 36.8125,101.577 37.8505,101.59 C 39.3415,101.608 37.9085,100.046 37.2325,99.7309 C 33.5065,98.4129 34.9345,93.5519 35.6085,91.2639" transform=""/><path fill="#f4d038" stroke="none" d="M 60.8611,50.2198 C 62.0351,51.1318 64.6081,50.3518 65.9101,49.9938 C 68.2271,49.3568 69.5581,47.9388 71.1481,46.2078 C 72.6241,44.5978 73.4741,42.6338 74.0901,40.5518 C 74.4211,39.4308 74.5851,38.2768 74.5981,37.1008 C 74.6041,36.4858 74.4811,35.6328 74.6471,35.0838 C 74.9681,35.8818 75.4881,36.2088 75.5781,37.1128 C 75.6501,37.8338 75.5441,38.6038 75.3791,39.2638 C 75.6691,38.7528 75.7581,38.1458 75.9981,37.6298 C 76.8811,38.8648 75.9641,40.0288 75.6411,41.2278 C 76.3931,40.5438 77.5931,39.5378 77.5401,38.3978 C 77.8351,39.4218 78.1091,40.3778 77.9101,41.4598 C 77.7221,42.4828 76.9601,43.2998 76.7211,44.2418 C 77.4421,43.8558 78.0111,43.2758 78.3671,42.5308 C 78.5111,43.9418 77.5921,45.0058 76.9311,46.1498 C 77.4281,45.9608 77.9491,45.7588 78.4411,45.5478 C 78.4921,46.2578 77.8561,47.3098 77.4781,47.8948 C 78.4231,47.6258 79.3811,47.3068 80.0691,46.5318 C 80.1801,48.2278 78.1491,49.3668 77.4761,50.7018 C 77.8861,50.4788 78.3721,50.3698 78.7991,50.1558 C 79.4511,49.8278 79.9251,49.2398 80.4731,48.8218 C 80.6261,49.9398 79.1691,51.3478 78.5041,52.1108 C 77.5891,53.1628 76.2331,53.8208 75.0221,54.4098 C 75.8451,54.4738 76.8451,54.4618 77.6201,54.1708 C 76.7221,55.2938 75.4931,55.9928 74.0531,56.1068 C 74.4711,56.1648 74.9651,56.8048 74.9401,57.2138 C 74.1431,57.5388 72.7901,57.6278 71.9591,57.3748 C 73.3141,58.7498 70.4001,58.2888 69.6821,57.8128 C 70.0011,58.1518 70.4591,58.6508 69.9731,58.9978 C 69.3821,59.4198 68.5601,58.5598 68.0901,58.2998 C 68.1151,58.7748 68.2681,58.9868 67.8551,59.2788 C 67.3241,59.6548 66.7031,59.2808 66.3931,58.8588 C 66.1781,59.4408 65.2871,58.9848 64.9271,58.7048 C 63.8281,57.8518 64.0041,56.6538 63.3151,55.6158" transform=""/><path fill="#fee05f" stroke="none" d="M 66.1208,72.1717 C 66.0708,72.3007 66.0248,72.4257 65.9688,72.5577 C 66.0348,72.4387 66.0818,72.3087 66.1208,72.1717 Z" transform=""/><path fill="#fee05f" stroke="none" d="M 30.7859,49.5025 C 30.6909,49.7485 30.6129,50.0045 30.6459,50.2715 C 30.3439,49.7365 30.4599,49.1085 30.4269,48.5195 C 30.0609,48.7805 29.9899,49.4045 30.0019,49.8195 C 29.7239,49.5505 29.5809,48.7595 29.6109,48.3695 C 29.4029,48.4725 29.3169,48.7215 29.1979,48.8955 C 29.0809,48.4775 29.0909,48.0795 29.0259,47.6645 C 28.9479,47.1625 28.8119,46.6845 28.7809,46.1725 C 28.7319,45.3915 28.8219,44.6075 29.0479,43.8575 C 29.2179,43.2925 29.4699,42.7635 29.7339,42.2365 C 29.8369,42.0315 30.1679,41.5685 30.0959,41.3185 C 30.0919,41.3075 26.7369,29.6825 37.7339,23.7295 C 38.5179,23.3045 38.8519,21.6935 38.5579,20.7855 C 38.2389,19.8025 37.1769,19.4035 36.3339,19.2625 C 37.3919,18.9695 38.1979,18.7455 38.9809,19.7375 C 39.6409,20.5745 39.5689,21.4915 39.5519,22.5155 C 39.9199,21.2815 40.5959,20.0115 41.5909,19.1925 C 42.9449,18.0775 44.5449,17.6345 46.1679,17.2305 C 45.2309,17.5485 44.2869,18.0945 43.5479,18.6155 C 42.4169,19.4145 42.0379,20.3705 41.4409,21.5315 C 42.1939,20.5105 43.6929,19.9345 44.8609,19.5075 C 46.0069,19.0895 48.0389,18.6005 49.2049,19.1045 C 47.0669,19.0875 44.2249,19.4005 43.4339,21.6885 C 44.3229,21.3805 45.1209,20.9125 46.0699,20.6975 C 47.3449,20.4085 48.5479,20.3525 49.8529,20.3635 C 52.0939,20.3825 54.5729,21.2685 56.2789,22.6815 C 54.9129,22.4955 53.5949,21.8475 52.1689,21.7635 C 50.7559,21.6795 49.2769,21.5685 48.0339,22.3965 C 48.7679,21.9075 51.0299,22.4815 51.7829,22.6365 C 54.5169,23.2015 57.0069,24.6335 58.7719,26.8105 C 59.5659,27.7915 60.2029,28.8945 60.6989,30.0525 C 60.9329,30.6005 61.0479,31.4695 61.5159,31.8505 C 61.9879,32.2335 62.7639,32.1195 63.3109,32.3305 C 64.3809,32.7405 64.7159,33.3275 65.4059,34.1455 C 65.1389,33.7805 64.7109,33.5005 64.2829,33.3555 C 64.9089,34.1775 65.5699,34.7675 65.9489,35.7215 C 65.4729,35.3565 64.9579,35.1135 64.4519,34.8215 C 64.8029,35.2445 65.6289,36.1195 65.5429,36.6715 C 65.2679,36.4295 64.9539,36.2015 64.7059,35.9435 C 64.9719,36.5725 65.5979,37.1685 65.6139,37.8785 C 65.3679,37.6675 65.0579,37.4205 64.7769,37.2075 C 64.9159,38.6195 65.6269,39.9285 65.1899,41.3815 C 64.6949,41.0105 64.8439,40.2305 64.4429,39.7955 C 64.3739,40.3155 64.5999,40.8475 64.5049,41.3825 C 64.3889,42.0345 63.9579,42.7655 63.5909,43.2935 C 63.2219,43.8235 62.7929,44.4165 62.3069,44.9515 C 57.6579,49.1175 67.3749,51.5475 67.7809,63.8975 C 68.1409,64.8115 68.1439,65.7705 68.2169,66.7375 C 68.2769,67.5445 68.5339,68.5935 68.4129,69.3845 C 68.0859,68.7515 67.8579,68.2055 67.3709,67.6625 C 67.2889,67.5725 67.1829,67.4745 67.0869,67.3715 C 67.3739,68.1815 67.6139,68.9665 67.5869,69.8775 C 67.5819,68.9625 66.6919,68.2925 66.4769,67.4585 C 66.9399,69.2105 66.7549,70.5405 66.1189,72.1705 C 66.3069,71.5095 66.1889,70.6855 66.0439,70.0705 C 66.1039,72.1405 67.0029,80.4215 55.8279,85.7675 C 54.7069,86.9305 55.3719,89.0585 54.3399,90.4615 C 53.3469,91.8135 51.5389,92.4675 50.0639,91.3015 C 49.2399,90.6485 47.9379,88.9605 47.8999,87.8705 C 46.4559,90.0205 41.3859,89.4605 39.7079,88.1365 C 39.3269,89.1735 38.6229,90.1345 37.9639,91.0205 C 37.0879,92.1965 35.6509,92.8395 34.2309,92.2495 C 32.7229,91.6215 32.6119,90.4335 32.1459,89.0615 C 31.6619,87.6395 30.1099,86.1745 28.7649,85.6085 C 27.1759,84.9395 25.8079,83.7615 24.6959,82.4765 C 24.7039,82.9965 25.3549,83.7405 25.7469,83.9855 C 24.9859,83.6235 23.9439,83.0515 23.2239,82.4705 C 22.2919,81.7185 20.8629,80.3165 20.5689,79.1145 C 20.1669,79.9555 20.6279,81.0875 21.2459,81.7285 C 19.5869,80.6995 19.0669,78.5355 18.9379,76.7785 C 18.6629,77.2725 18.5119,77.9335 18.5199,78.5305 C 18.2679,78.0465 17.9479,77.5015 17.8959,76.9065 C 17.8369,76.2245 18.1659,75.5525 18.1019,74.8875 C 17.0179,75.4495 16.9219,76.7195 16.7659,77.8115 C 16.4559,76.5115 16.5549,75.1985 16.4909,73.8525 C 15.7039,74.6955 15.4229,75.7025 15.0439,76.7635 C 14.8889,74.4285 15.2379,72.8905 17.1109,71.4595 C 16.6709,71.7565 16.2389,72.1855 15.8239,72.5545 C 16.9609,70.7065 18.1649,69.6635 20.4149,69.4815 C 26.4529,60.4285 33.5529,58.2795 34.2159,54.8255 C 34.6759,53.9665 35.1129,52.5685 35.0429,51.4375 C 34.9119,51.3565 34.7739,51.2845 34.6519,51.1945 C 34.3569,50.9765 33.9599,50.3925 33.5469,50.5155 C 32.8479,50.7235 32.9019,51.9875 32.8899,52.5115 C 32.4249,52.1345 32.3569,51.2745 32.3259,50.7165 C 32.0459,50.9835 31.9299,51.4345 31.9049,51.8265 C 31.6809,51.5715 31.5039,51.2185 31.4869,50.8565 C 31.4209,50.9595 31.2999,51.0335 31.2359,51.1845 C 31.0939,50.6225 31.0179,50.0295 30.8709,49.4775" transform=""/><path fill="#fee05f" stroke="none" d="M 46.1699,17.2328 C 46.4809,17.1558 46.7929,17.0788 47.1039,16.9998 C 46.7989,17.0438 46.4839,17.1258 46.1699,17.2328 Z" transform=""/><path fill="#f4d038" stroke="none" d="M 32.7398,56.0279 C 32.1328,56.4219 31.4308,56.6769 30.9448,57.2099 C 31.7648,57.9099 31.2778,57.9049 30.4638,58.4239 C 29.8698,58.8019 29.6368,59.1129 29.2718,59.6809 C 28.3028,61.1839 26.5578,62.3549 25.0128,63.2399 C 22.9818,64.4039 20.8458,65.0839 18.5368,65.3569 C 17.4038,65.4909 16.3758,65.5159 15.2428,65.3429 C 14.2738,65.1949 13.4258,64.7229 12.5158,64.5269 C 12.8858,65.8289 14.3378,66.4929 15.5868,66.5609 C 15.4078,66.8979 14.9428,66.9889 14.6708,67.2469 C 15.1368,68.1799 17.1518,68.1729 18.0228,68.1579 C 17.5268,68.4299 16.8448,68.5859 16.4528,68.9859 C 17.2528,69.4209 18.1738,69.3519 19.0628,69.3519 C 18.3228,69.3529 17.4038,69.5409 16.7358,69.7689 C 17.5148,70.6149 20.1658,70.9299 21.1798,70.4699 C 20.5808,70.4469 19.7538,70.9509 19.3128,71.3349 C 20.7608,72.2179 23.2368,71.9129 24.6988,71.1319 C 24.0958,71.6189 23.4538,72.1909 22.8848,72.7009 C 24.2668,72.7899 25.5208,72.5039 26.8058,72.0299 C 27.6998,71.7009 28.7998,71.4029 29.3378,70.5639 C 29.0408,71.0579 28.3958,71.4369 28.2138,71.9489 C 28.9118,72.2919 30.4838,71.2499 31.0988,70.8949 C 31.9188,70.4229 32.6868,69.9679 33.3388,69.2849 C 35.6208,66.8909 37.3458,63.0579 37.5098,59.7559 C 37.5858,58.2119 37.2398,56.1279 35.9348,55.0969 C 34.6758,54.1009 32.2778,54.6059 31.5598,56.0679 C 31.8658,56.1459 32.4478,56.2169 32.7398,56.0279 Z" transform=""/><path fill="#f89c44" stroke="none" d="M 49.1533,40.2265 C 47.5953,41.9175 45.4043,41.7745 43.3333,41.4865 L 40.8803,41.3465 C 41.4213,41.2765 43.1453,43.0075 43.7533,43.4485 C 44.7193,44.1485 45.6983,44.8245 46.8543,45.0455 C 47.8353,45.2325 49.2643,45.5845 50.1473,44.9375 C 50.9393,44.3575 51.4553,43.0015 51.8133,42.1175 C 52.4253,40.6055 52.3633,38.8325 53.1383,37.3675 C 51.4373,37.3885 50.1693,39.1235 49.1533,40.2265 Z" transform=""/><ellipse cx="39.076015579760686" cy="36.56932754844667" rx="1.2108430668475891" ry="1.683094244490549" fill="#304454" stroke="none" transform="rotate(-8.8934 39.07601721690153 36.56932782806265)" r="NaN"/><ellipse cx="53.222289251982794" cy="33.600412106174346" rx="1.2108430668475891" ry="1.683094244490549" fill="#304454" stroke="none" transform="rotate(-8.8934 53.2222900524102 33.60041224918404)" r="NaN"/><path fill="#d14e3f" stroke="none" d="M 42.703,41.7663 C 44.632,42.2513 46.653,45.0353 48.8,44.1473 C 50.547,43.4263 51.436,40.0533 51.938,38.4023 C 51.99,38.2273 52.076,38.0743 52.158,37.9193 C 50.483,38.4983 49.557,39.9973 48.238,41.0143 C 47.614,41.4953 46.691,41.6743 45.924,41.7503 C 45.059,41.8353 44.621,41.5153 43.825,41.3453" transform=""/><path fill="#f89c44" stroke="none" d="M 40.5823,41.3567 L 40.5823,41.2857 C 41.7703,41.6507 43.0653,41.7287 44.2963,41.9897 C 44.5653,42.0467 44.8703,42.1167 45.1953,42.1817 C 46.0613,42.3557 47.0563,42.5037 47.8003,42.3367 C 48.7963,42.1147 49.4723,41.1137 50.0243,40.2887 C 50.5523,39.4997 51.0983,38.9447 51.7993,38.4267 C 52.2553,38.0887 52.7883,37.8217 53.1373,37.3597 C 52.8263,36.8807 52.0843,36.9907 51.5853,37.0647 C 50.8843,37.1707 50.4603,37.2457 49.7633,37.0277 C 48.9803,36.7837 48.2963,36.4497 47.5333,36.3227 C 45.6833,36.0167 44.4903,37.2247 43.5113,38.6187 C 43.1873,39.0787 42.7783,39.4117 42.3583,39.7227 C 41.9343,40.0377 41.4993,40.3297 41.1283,40.7087 C 40.9263,40.9167 40.7943,41.1447 40.5823,41.3567 Z" transform=""/></svg>