<svg xmlns="http://www.w3.org/2000/svg" version="1.1" width="88" height="100" viewBox="0 0 88 100"><defs/><path fill="#304454" stroke="none" d="M 25.9211,51.1325 C 23.3521,52.8455 20.5471,54.0835 17.4261,54.9475 C 15.8961,55.3705 14.4881,55.6565 12.8981,55.7635 C 11.5381,55.8555 10.2841,55.5825 8.99612,55.6085 C 9.75112,56.8585 11.8711,57.1775 13.5991,56.9335 C 13.4181,57.3255 12.7961,57.5365 12.4721,57.8725 C 13.2881,58.7175 28.3691,60.5655 30.0451,59.7525 C 31.2101,59.1875 32.6661,58.6045 33.2471,57.6015 C 32.9331,58.1865 32.1181,58.7395 31.9651,59.3145 C 32.9881,59.4925 34.9511,58.0215 35.7281,57.5005 C 36.7641,56.8065 37.7331,56.1445 38.5001,55.2745 C 41.1821,52.2295 42.8261,47.8405 42.4251,44.3905 C 42.2381,42.7795 41.3671,40.7145 39.3801,39.9795 C 37.4631,39.2685 27.8771,49.8295 25.9211,51.1325 Z" transform=""/><path fill="#f89c44" stroke="none" d="M 55.1604,73.8057 C 55.9834,74.0967 57.1534,78.6907 57.5714,79.7217 C 57.8764,80.4747 58.0104,81.2237 56.9794,81.3557 C 56.3744,81.4347 54.8474,81.1517 54.9324,82.2207 C 55.0234,83.3647 56.8814,83.1167 57.5594,83.4427 C 58.0484,83.6767 59.2214,83.7797 59.7994,83.8597 C 60.7294,83.9887 62.9434,84.0177 62.9044,83.4427 C 63.6624,83.1637 65.0064,83.2837 65.8494,83.4927 C 67.5324,83.7227 66.7334,82.3707 66.3134,82.1627 C 65.6464,81.8337 64.9454,81.4407 64.2204,81.1847 C 63.2374,80.8377 62.2304,80.6017 61.2664,80.1747 C 58.5704,80.0837 57.5754,73.3027 57.7514,72.8967" transform=""/><path fill="#f89c44" stroke="none" d="M 38.1941,73.8057 C 38.1861,75.1797 37.5261,79.5967 37.1941,80.3127 C 36.3821,82.0617 33.5331,81.2297 32.2361,82.3587 C 31.2251,83.2377 32.5501,83.4857 33.2831,83.4137 C 34.0781,83.3357 36.1931,83.5707 36.6941,83.8517 C 37.5891,84.3527 39.2881,83.4367 39.4821,83.3047 C 39.6331,83.2027 41.6431,83.5727 42.6531,83.5857 C 44.1051,83.6027 42.7101,82.0817 42.0521,81.7757 C 38.4221,80.4917 39.8131,75.7597 40.4701,73.5327" transform=""/><path fill="#304454" stroke="none" d="M 71.0502,54.7766 C 71.1672,54.0086 70.9182,52.9856 70.8592,52.2006 C 70.7892,51.2596 70.7852,50.3256 70.4342,49.4356 C 70.0402,37.4116 59.8782,39.5766 64.4112,31.7386 C 65.0382,30.3726 66.3532,27.7926 65.3602,22.5296 C 62.8332,9.13264 51.9232,8.55264 51.2092,9.02864 C 52.4182,8.22364 53.8582,8.33164 55.2342,8.41364 C 56.6222,8.49464 57.9062,9.12564 59.2362,9.30664 C 57.5762,7.92964 55.1622,7.06864 52.9802,7.04964 C 51.7092,7.03864 50.5382,7.09364 49.2972,7.37464 C 48.3732,7.58264 47.5972,8.03864 46.7312,8.33964 C 47.5012,6.11164 50.2682,5.80664 52.3492,5.82364 C 51.2142,5.33364 49.2352,5.80864 48.1192,6.21664 C 46.9832,6.63264 45.5232,7.19264 44.7892,8.18664 C 45.3712,7.05664 45.7392,6.12564 46.8412,5.34964 C 47.5602,4.84164 48.4792,4.30964 49.3912,3.99964 C 47.8122,4.39264 46.2542,4.82564 44.9352,5.91064 C 43.9662,6.70764 43.3072,7.94364 42.9492,9.14564 C 42.9662,8.14864 43.0372,7.25464 42.3942,6.44064 C 41.6312,5.47464 40.8462,5.69264 39.8172,5.97764 C 40.6362,6.11464 41.6712,6.50264 41.9812,7.46064 C 42.2672,8.34464 41.9142,9.86664 41.1792,10.3266 C 24.9452,20.4876 37.8892,36.8526 38.1772,37.0646 C 38.2962,37.1536 38.2012,39.7646 37.7522,40.6006 C 37.1082,43.9626 14.1862,79.3666 49.3722,83.0376 C 60.9582,84.2476 70.4642,74.5566 70.4642,64.0946 C 70.4642,61.6126 69.5742,54.4546 69.1632,52.9016 C 69.3732,53.7156 70.2402,54.3666 70.2442,55.2576 C 70.2712,54.3716 70.0372,53.6056 69.7572,52.8196 C 69.8512,52.9196 69.9552,53.0146 70.0352,53.1026 C 70.5092,53.6296 70.7322,54.1606 71.0502,54.7766 Z" transform=""/><path fill="#304454" stroke="none" d="M 62.3263,47.6229 C 62.8673,48.3949 63.2833,49.3239 63.9393,49.9079 C 64.4873,48.6609 64.5883,49.3349 65.3023,50.3749 C 65.8223,51.1339 66.1963,51.4029 66.8623,51.8139 C 68.6313,52.9059 70.2223,55.1229 71.4763,57.1099 C 73.1233,59.7229 74.2903,62.5579 75.0743,65.7009 C 75.4583,67.2409 75.7073,68.6559 75.7743,70.2469 C 75.8323,71.6089 75.5273,72.8549 75.5203,74.1429 C 76.7893,73.4199 77.1623,71.3089 76.9623,69.5749 C 77.3493,69.7669 77.5453,70.3929 77.8723,70.7259 C 80.3743,63.1389 79.7613,47.3399 65.1543,40.4389 C 63.6863,39.7459 61.4533,41.4029 60.6683,43.3699 C 59.9093,45.2699 60.9523,48.4949 62.6243,49.2469 C 62.6383,48.8089 62.5863,47.9939 62.3263,47.6229 Z" transform=""/><path fill="#efefef" stroke="none" d="M 61.2799,25.637 C 61.2169,24.996 61.0589,24.382 60.8289,23.797 C 61.3369,22.173 61.3869,20.201 60.8479,18.19 C 59.6889,13.86 56.2679,11.015 53.2079,11.835 C 50.8999,12.453 49.4569,14.98 49.3849,18.041 C 49.3059,18.048 49.2289,18.048 49.1489,18.055 C 48.4779,18.121 47.8289,18.24 47.1979,18.389 C 46.1929,16.042 44.3759,14.467 42.2929,14.467 C 39.1249,14.467 36.5569,18.1 36.5569,22.581 C 36.5569,25.346 37.5359,27.784 39.0289,29.249 C 40.3109,33.289 45.2559,35.985 50.8579,35.434 C 57.0859,34.823 61.7509,30.437 61.2799,25.637 Z" transform=""/><ellipse cx="42.485952130684076" cy="22.825940395667697" rx="1.1789716868897728" ry="1.6387142346482249" fill="#304454" stroke="none" transform="rotate(-8.8934 42.48595522041884 22.825940237863488)" r="NaN"/><ellipse cx="56.25942662183495" cy="19.934920589710707" rx="1.1789716868897728" ry="1.6387142346482249" fill="#304454" stroke="none" transform="rotate(-8.8934 56.25942827698596 19.934921149198377)" r="NaN"/><ellipse cx="49.903888617936424" cy="61.151923127074724" rx="21.526105058236237" ry="15.702699453295843" fill="#efefef" stroke="none" transform="rotate(84.3875 49.90388712596932 61.15192174987433)" r="NaN"/><path fill="#f89c44" stroke="none" d="M 52.4508,27.257 C 51.1418,28.678 49.3008,28.557 47.5608,28.316 L 45.4998,28.198 C 45.9548,28.139 47.4028,29.593 47.9148,29.964 C 48.7258,30.552 49.5488,31.12 50.5198,31.305 C 51.3428,31.462 52.5438,31.759 53.2858,31.215 C 53.9518,30.727 54.3848,29.589 54.6858,28.846 C 55.1998,27.576 55.1468,26.086 55.7988,24.855 C 54.3698,24.874 53.3048,26.331 52.4508,27.257 Z" transform=""/><path fill="#d14e3f" stroke="none" d="M 47.0307,28.5506 C 48.6517,28.9576 50.3497,31.2966 52.1527,30.5516 C 53.6207,29.9446 54.3677,27.1116 54.7887,25.7246 C 54.8327,25.5776 54.9057,25.4486 54.9737,25.3186 C 53.5667,25.8056 52.7897,27.0646 51.6807,27.9186 C 51.1557,28.3226 50.3817,28.4736 49.7367,28.5376 C 49.0097,28.6086 48.6417,28.3396 47.9737,28.1966" transform=""/><path fill="#f89c44" stroke="none" d="M 45.2501,28.2065 L 45.2501,28.1475 C 46.2481,28.4535 47.3361,28.5185 48.3701,28.7385 C 48.5961,28.7865 48.8531,28.8445 49.1251,28.8995 C 49.8531,29.0465 50.6891,29.1705 51.3141,29.0305 C 52.1511,28.8425 52.7191,28.0025 53.1821,27.3095 C 53.6261,26.6465 54.0851,26.1805 54.6731,25.7455 C 55.0571,25.4615 55.5041,25.2365 55.7981,24.8485 C 55.5361,24.4455 54.9131,24.5385 54.4941,24.6005 C 53.9051,24.6895 53.5491,24.7525 52.9631,24.5695 C 52.3051,24.3645 51.7311,24.0835 51.0891,23.9775 C 49.5351,23.7205 48.5331,24.7355 47.7101,25.9055 C 47.4391,26.2925 47.0951,26.5725 46.7421,26.8335 C 46.3861,27.0985 46.0201,27.3435 45.7091,27.6625 C 45.5391,27.8375 45.4271,28.0285 45.2501,28.2065 Z" transform=""/></svg>