<svg xmlns="http://www.w3.org/2000/svg" version="1.1" width="98" height="80" viewBox="0 0 98 80"><defs/><path fill="#d78334" stroke="none" d="M 39.0733,46.1906 S 38.5373,51.8586 42.6733,53.2376 C 46.8103,54.6166 56.0013,53.5446 56.0013,53.5446 S 60.0613,51.4756 59.1423,46.2676 L 39.0733,46.1906 Z" transform=""/><path fill="#d78334" stroke="none" d="M 42.0767,53.7677 S 47.1967,73.3757 47.3517,73.7187 S 49.6597,74.2067 49.9707,73.4707 C 50.2807,72.7357 56.5817,53.6197 56.5817,53.6197 L 42.0767,53.7677 Z" transform=""/><path fill="#f4953f" stroke="none" d="M 49.6361,54.0377 L 49.6841,54.0397 L 56.0061,55.3137 C 56.1281,55.3377 56.1941,55.4197 56.1551,55.4957 C 56.1241,55.5587 56.0351,55.5977 55.9381,55.5977 C 55.9151,55.5977 55.8901,55.5957 55.8681,55.5907 L 49.6321,54.3337 L 42.5881,55.6687 C 42.5671,55.6727 42.5441,55.6737 42.5221,55.6737 C 42.4231,55.6737 42.3311,55.6337 42.3031,55.5707 C 42.2651,55.4937 42.3361,55.4137 42.4571,55.3897 L 49.5681,54.0417 L 49.6361,54.0377 Z" transform=""/><path fill="#f4953f" stroke="none" d="M 42.6087,55.8963 C 42.6337,55.8963 42.6597,55.8983 42.6847,55.9043 L 49.1847,57.3543 L 55.6187,55.9283 C 55.6437,55.9233 55.6697,55.9203 55.6947,55.9203 C 55.7887,55.9203 55.8777,55.9583 55.9107,56.0183 C 55.9517,56.0943 55.8897,56.1783 55.7707,56.2043 L 49.8777,57.5093 L 54.8597,58.6213 C 54.9797,58.6483 55.0417,58.7303 54.9997,58.8083 C 54.9667,58.8663 54.8787,58.9043 54.7837,58.9043 C 54.7587,58.9043 54.7317,58.9023 54.7067,58.8953 L 49.1827,57.6633 L 43.4477,58.9343 C 43.4237,58.9403 43.3987,58.9423 43.3717,58.9423 C 43.2767,58.9423 43.1877,58.9043 43.1537,58.8463 C 43.1127,58.7703 43.1777,58.6863 43.2947,58.6593 L 48.4897,57.5093 L 42.5317,56.1793 C 42.4117,56.1513 42.3497,56.0693 42.3917,55.9933 C 42.4237,55.9333 42.5127,55.8963 42.6087,55.8963 Z" transform=""/><path fill="#f4953f" stroke="none" d="M 54.5997,59.575 C 54.6957,59.575 54.7857,59.613 54.8187,59.674 C 54.8597,59.749 54.7977,59.832 54.6757,59.858 L 49.6457,60.971 L 53.8257,61.891 C 53.9457,61.918 54.0097,62.001 53.9687,62.077 C 53.9357,62.137 53.8467,62.174 53.7507,62.174 C 53.7257,62.174 53.7017,62.171 53.6767,62.166 L 48.9487,61.126 L 44.4187,62.128 C 44.3917,62.134 44.3677,62.136 44.3427,62.136 C 44.2477,62.136 44.1577,62.098 44.1247,62.038 C 44.0837,61.962 44.1457,61.879 44.2657,61.854 L 48.2487,60.973 L 43.5377,59.937 C 43.4177,59.91 43.3557,59.827 43.3967,59.752 C 43.4307,59.691 43.5187,59.653 43.6147,59.653 C 43.6387,59.653 43.6637,59.656 43.6887,59.661 L 48.9457,60.818 L 54.5247,59.584 C 54.5497,59.577 54.5757,59.575 54.5997,59.575 Z" transform=""/><path fill="#f4953f" stroke="none" d="M 53.2664,63.4593 C 53.3614,63.4593 53.4504,63.4973 53.4824,63.5573 C 53.5244,63.6323 53.4614,63.7163 53.3414,63.7413 L 49.6704,64.5653 L 52.7334,65.2373 C 52.8534,65.2633 52.9184,65.3463 52.8764,65.4223 C 52.8434,65.4823 52.7544,65.5203 52.6594,65.5203 C 52.6344,65.5203 52.6074,65.5173 52.5824,65.5123 L 48.9754,64.7213 L 45.2694,65.5503 C 45.2444,65.5553 45.2174,65.5583 45.1924,65.5583 C 45.0974,65.5583 45.0084,65.5213 44.9754,65.4613 C 44.9334,65.3863 44.9964,65.3033 45.1154,65.2753 L 48.2774,64.5683 L 44.6914,63.7823 C 44.5714,63.7553 44.5074,63.6733 44.5484,63.5973 C 44.5814,63.5373 44.6714,63.4993 44.7664,63.4993 C 44.7914,63.4993 44.8164,63.5013 44.8404,63.5073 L 48.9724,64.4123 L 53.1874,63.4693 C 53.2144,63.4623 53.2404,63.4593 53.2664,63.4593 Z" transform=""/><path fill="#f4953f" stroke="none" d="M 45.7389,67.1129 C 45.7659,67.1129 45.7929,67.1159 45.8199,67.1229 L 49.2019,67.9379 L 51.8509,67.3139 C 51.8769,67.3079 51.9039,67.3049 51.9299,67.3049 C 52.0229,67.3049 52.1109,67.3409 52.1469,67.3999 C 52.1899,67.4749 52.1299,67.5589 52.0099,67.5869 L 49.8539,68.0939 L 51.4049,68.4679 C 51.5249,68.4969 51.5849,68.5799 51.5399,68.6549 C 51.5039,68.7139 51.4179,68.7489 51.3249,68.7489 C 51.2979,68.7489 51.2709,68.7469 51.2439,68.7399 L 49.1999,68.2469 L 46.1229,68.9699 C 46.0979,68.9769 46.0709,68.9799 46.0439,68.9799 C 45.9509,68.9799 45.8629,68.9439 45.8269,68.8849 C 45.7839,68.8089 45.8459,68.7259 45.9639,68.6979 L 48.5469,68.0899 L 45.6579,67.3939 C 45.5389,67.3649 45.4789,67.2809 45.5249,67.2049 C 45.5599,67.1489 45.6469,67.1129 45.7389,67.1129 Z" transform=""/><path fill="#f4953f" stroke="none" d="M 56.1547,55.4959 C 56.1477,55.5089 56.1377,55.5219 56.1257,55.5329 C 56.1217,55.5369 56.1167,55.5409 56.1117,55.5449 C 56.1017,55.5519 56.0917,55.5579 56.0807,55.5649 C 56.0747,55.5679 56.0687,55.5709 56.0617,55.5739 C 56.0497,55.5789 56.0357,55.5829 56.0217,55.5869 C 56.0157,55.5879 56.0097,55.5899 56.0027,55.5919 C 55.9817,55.5949 55.9597,55.5979 55.9377,55.5979 C 55.9147,55.5979 55.8897,55.5959 55.8667,55.5899 L 49.6317,54.3329 L 42.5877,55.6689 C 42.5667,55.6719 42.5437,55.6739 42.5207,55.6739 C 42.4217,55.6739 42.3307,55.6339 42.3017,55.5709 C 42.2957,55.5569 42.2917,55.5429 42.2917,55.5279 L 42.2917,55.6049 C 42.2917,55.6189 42.2957,55.6329 42.3017,55.6469 C 42.3307,55.7099 42.4217,55.7509 42.5207,55.7509 C 42.5437,55.7509 42.5667,55.7489 42.5877,55.7449 L 49.6317,54.4099 L 55.8667,55.6669 C 55.8897,55.6719 55.9147,55.6749 55.9377,55.6749 C 55.9597,55.6749 55.9817,55.6719 56.0027,55.6689 C 56.0097,55.6669 56.0147,55.6649 56.0217,55.6629 C 56.0357,55.6589 56.0497,55.6559 56.0617,55.6499 C 56.0687,55.6469 56.0747,55.6449 56.0807,55.6409 C 56.0917,55.6359 56.1017,55.6289 56.1117,55.6209 C 56.1157,55.6179 56.1217,55.6139 56.1257,55.6089 C 56.1287,55.6069 56.1317,55.6049 56.1347,55.6019 C 56.1417,55.5929 56.1487,55.5839 56.1537,55.5749 C 56.1537,55.5739 56.1537,55.5729 56.1547,55.5729 C 56.1587,55.5649 56.1617,55.5569 56.1637,55.5489 C 56.1647,55.5419 56.1657,55.5349 56.1657,55.5279 L 56.1657,55.4509 C 56.1657,55.4659 56.1627,55.4809 56.1547,55.4959 Z" transform=""/><path fill="#f4953f" stroke="none" d="M 55.9123,56.1118 C 55.9063,56.1238 55.8973,56.1338 55.8873,56.1448 C 55.8783,56.1538 55.8673,56.1618 55.8553,56.1688 C 55.8493,56.1728 55.8443,56.1778 55.8373,56.1808 C 55.8183,56.1908 55.7953,56.1998 55.7693,56.2048 L 49.8773,57.5098 L 49.8773,57.5868 L 55.7693,56.2818 C 55.7953,56.2758 55.8183,56.2668 55.8373,56.2568 C 55.8443,56.2528 55.8483,56.2498 55.8543,56.2448 C 55.8673,56.2368 55.8783,56.2298 55.8873,56.2208 C 55.8893,56.2198 55.8913,56.2188 55.8933,56.2168 C 55.9003,56.2078 55.9063,56.1998 55.9113,56.1898 C 55.9113,56.1898 55.9113,56.1888 55.9123,56.1888 C 55.9133,56.1878 55.9133,56.1868 55.9133,56.1848 C 55.9163,56.1788 55.9193,56.1728 55.9213,56.1658 C 55.9223,56.1588 55.9233,56.1508 55.9233,56.1438 L 55.9233,56.0668 C 55.9233,56.0808 55.9193,56.0948 55.9133,56.1088 C 55.9133,56.1098 55.9133,56.1108 55.9123,56.1118 Z" transform=""/><path fill="#f4953f" stroke="none" d="M 48.4901,57.5094 L 42.5321,56.1794 C 42.4371,56.1574 42.3781,56.1024 42.3781,56.0424 L 42.3781,56.1184 C 42.3781,56.1784 42.4371,56.2344 42.5321,56.2564 L 48.4901,57.5864 L 48.4901,57.5094 Z" transform=""/><path fill="#f4953f" stroke="none" d="M 54.9726,58.8409 C 54.9676,58.8449 54.9626,58.8499 54.9566,58.8539 C 54.9476,58.8609 54.9376,58.8659 54.9276,58.8719 C 54.9216,58.8749 54.9146,58.8779 54.9076,58.8809 C 54.8956,58.8859 54.8816,58.8909 54.8686,58.8939 C 54.8626,58.8949 54.8556,58.8969 54.8486,58.8989 C 54.8286,58.9029 54.8056,58.9049 54.7836,58.9049 C 54.7586,58.9049 54.7316,58.9029 54.7076,58.8959 L 49.1836,57.6639 L 43.4486,58.9349 C 43.4246,58.9409 43.3986,58.9429 43.3726,58.9429 C 43.2776,58.9429 43.1876,58.9049 43.1546,58.8469 C 43.1466,58.8309 43.1426,58.8149 43.1426,58.7989 L 43.1426,58.8749 C 43.1426,58.8909 43.1466,58.9069 43.1546,58.9229 C 43.1876,58.9819 43.2766,59.0199 43.3726,59.0199 C 43.3986,59.0199 43.4236,59.0169 43.4486,59.0119 L 49.1836,57.7409 L 54.7076,58.9729 C 54.7326,58.9789 54.7596,58.9819 54.7836,58.9819 C 54.8056,58.9819 54.8286,58.9789 54.8486,58.9759 C 54.8556,58.9739 54.8616,58.9719 54.8686,58.9699 C 54.8816,58.9669 54.8956,58.9629 54.9076,58.9579 C 54.9146,58.9549 54.9216,58.9519 54.9276,58.9489 C 54.9376,58.9429 54.9486,58.9379 54.9566,58.9309 C 54.9626,58.9269 54.9676,58.9219 54.9726,58.9179 C 54.9756,58.9149 54.9806,58.9119 54.9836,58.9089 C 54.9906,58.9019 54.9956,58.8939 55.0006,58.8859 C 55.0006,58.8849 55.0016,58.8839 55.0016,58.8829 C 55.0056,58.8749 55.0086,58.8669 55.0106,58.8589 C 55.0126,58.8519 55.0126,58.8449 55.0126,58.8369 L 55.0126,58.7609 C 55.0126,58.7769 55.0086,58.7939 55.0006,58.8099 C 54.9936,58.8199 54.9836,58.8309 54.9726,58.8409 Z" transform=""/><path fill="#f4953f" stroke="none" d="M 54.8201,59.7653 C 54.8141,59.7773 54.8051,59.7873 54.7951,59.7973 C 54.7861,59.8073 54.7751,59.8143 54.7631,59.8223 C 54.7571,59.8263 54.7521,59.8303 54.7451,59.8343 C 54.7251,59.8443 54.7021,59.8533 54.6761,59.8583 L 49.6461,60.9703 L 49.6461,61.0473 L 54.6761,59.9353 C 54.7021,59.9293 54.7251,59.9203 54.7451,59.9103 C 54.7521,59.9063 54.7581,59.9023 54.7631,59.8983 C 54.7751,59.8903 54.7861,59.8833 54.7951,59.8743 C 54.7971,59.8723 54.8001,59.8713 54.8021,59.8693 C 54.8091,59.8613 54.8151,59.8523 54.8191,59.8433 C 54.8191,59.8433 54.8191,59.8433 54.8201,59.8423 C 54.8201,59.8423 54.8201,59.8423 54.8211,59.8413 C 54.8241,59.8343 54.8271,59.8273 54.8291,59.8193 C 54.8301,59.8133 54.8311,59.8053 54.8311,59.7983 L 54.8311,59.7223 C 54.8311,59.7363 54.8271,59.7513 54.8211,59.7643 C 54.8211,59.7643 54.8211,59.7643 54.8201,59.7653 Z" transform=""/><path fill="#f4953f" stroke="none" d="M 48.2501,60.972 L 43.5391,59.936 C 43.4441,59.915 43.3861,59.858 43.3861,59.798 L 43.3861,59.875 C 43.3861,59.935 43.4441,59.991 43.5391,60.012 L 48.2501,61.049 L 48.2501,60.972 Z" transform=""/><path fill="#f4953f" stroke="none" d="M 53.941,62.1094 C 53.936,62.1144 53.931,62.1184 53.924,62.1224 C 53.916,62.1294 53.906,62.1344 53.896,62.1404 C 53.889,62.1444 53.883,62.1474 53.875,62.1504 C 53.863,62.1554 53.85,62.1594 53.837,62.1624 C 53.83,62.1644 53.824,62.1664 53.817,62.1674 C 53.796,62.1714 53.774,62.1734 53.752,62.1734 C 53.727,62.1734 53.702,62.1704 53.677,62.1654 L 48.949,61.1254 L 44.42,62.1274 C 44.393,62.1334 44.368,62.1354 44.343,62.1354 C 44.248,62.1354 44.159,62.0974 44.126,62.0374 C 44.117,62.0214 44.113,62.0054 44.113,61.9894 L 44.113,62.0654 C 44.113,62.0814 44.117,62.0974 44.126,62.1134 C 44.159,62.1734 44.248,62.2124 44.343,62.2124 C 44.368,62.2124 44.393,62.2094 44.42,62.2044 L 48.949,61.2024 L 53.677,62.2424 C 53.702,62.2474 53.727,62.2504 53.752,62.2504 C 53.774,62.2504 53.796,62.2484 53.817,62.2444 C 53.823,62.2434 53.83,62.2414 53.836,62.2394 C 53.85,62.2364 53.863,62.2334 53.875,62.2274 C 53.883,62.2244 53.889,62.2214 53.896,62.2174 C 53.906,62.2124 53.916,62.2064 53.925,62.2004 C 53.931,62.1954 53.936,62.1914 53.942,62.1864 C 53.945,62.1834 53.95,62.1814 53.953,62.1774 C 53.959,62.1704 53.965,62.1624 53.97,62.1534 C 53.97,62.1524 53.97,62.1524 53.971,62.1514 C 53.975,62.1434 53.978,62.1354 53.98,62.1274 C 53.982,62.1214 53.983,62.1134 53.983,62.1074 L 53.983,62.0304 C 53.983,62.0454 53.978,62.0624 53.97,62.0774 C 53.962,62.0884 53.951,62.0994 53.941,62.1094 Z" transform=""/><path fill="#f4953f" stroke="none" d="M 53.4843,63.6491 C 53.4783,63.6611 53.4693,63.6711 53.4593,63.6811 C 53.4503,63.6901 53.4383,63.6981 53.4263,63.7061 C 53.4203,63.7101 53.4153,63.7141 53.4093,63.7171 C 53.3893,63.7271 53.3663,63.7361 53.3413,63.7411 L 49.6693,64.5651 L 49.6693,64.6411 L 53.3413,63.8181 C 53.3663,63.8121 53.3883,63.8041 53.4093,63.7931 C 53.4153,63.7901 53.4203,63.7861 53.4263,63.7821 C 53.4383,63.7741 53.4503,63.7671 53.4593,63.7571 C 53.4603,63.7561 53.4633,63.7541 53.4643,63.7531 C 53.4723,63.7451 53.4783,63.7361 53.4833,63.7271 C 53.4833,63.7261 53.4833,63.7261 53.4843,63.7261 C 53.4853,63.7251 53.4853,63.7241 53.4853,63.7231 C 53.4883,63.7161 53.4913,63.7101 53.4933,63.7031 C 53.4943,63.6961 53.4953,63.6881 53.4953,63.6811 L 53.4953,63.6061 C 53.4953,63.6201 53.4913,63.6341 53.4853,63.6481 C 53.4853,63.6481 53.4853,63.6481 53.4843,63.6491 Z" transform=""/><path fill="#f4953f" stroke="none" d="M 48.2788,64.5674 L 44.6928,63.7814 C 44.5968,63.7604 44.5368,63.7044 44.5368,63.6434 L 44.5368,63.7204 C 44.5368,63.7804 44.5968,63.8374 44.6928,63.8574 L 48.2788,64.6444 L 48.2788,64.5674 Z" transform=""/><path fill="#f4953f" stroke="none" d="M 52.8483,65.4557 C 52.8433,65.4597 52.8383,65.4647 52.8323,65.4687 C 52.8243,65.4757 52.8133,65.4817 52.8033,65.4867 C 52.7963,65.4897 52.7903,65.4927 52.7833,65.4957 C 52.7713,65.5017 52.7573,65.5047 52.7443,65.5087 C 52.7383,65.5097 52.7313,65.5117 52.7243,65.5137 C 52.7043,65.5177 52.6813,65.5197 52.6593,65.5197 C 52.6343,65.5197 52.6083,65.5167 52.5833,65.5117 L 48.9763,64.7207 L 45.2703,65.5497 C 45.2453,65.5547 45.2183,65.5577 45.1933,65.5577 C 45.0983,65.5577 45.0093,65.5217 44.9763,65.4617 C 44.9673,65.4457 44.9633,65.4287 44.9633,65.4127 L 44.9633,65.4897 C 44.9633,65.5057 44.9673,65.5217 44.9763,65.5377 C 45.0093,65.5977 45.0983,65.6347 45.1933,65.6347 C 45.2183,65.6347 45.2453,65.6317 45.2703,65.6267 L 48.9763,64.7977 L 52.5833,65.5887 C 52.6073,65.5947 52.6343,65.5967 52.6593,65.5967 C 52.6823,65.5967 52.7043,65.5947 52.7243,65.5907 C 52.7313,65.5897 52.7373,65.5877 52.7443,65.5857 C 52.7583,65.5817 52.7713,65.5777 52.7833,65.5737 C 52.7903,65.5697 52.7973,65.5667 52.8033,65.5637 C 52.8133,65.5587 52.8243,65.5527 52.8323,65.5457 C 52.8383,65.5417 52.8433,65.5367 52.8483,65.5327 C 52.8523,65.5297 52.8563,65.5277 52.8593,65.5237 C 52.8663,65.5157 52.8723,65.5077 52.8763,65.4987 C 52.8773,65.4987 52.8773,65.4977 52.8773,65.4967 C 52.8823,65.4887 52.8843,65.4807 52.8873,65.4727 C 52.8883,65.4657 52.8893,65.4587 52.8893,65.4517 L 52.8893,65.3747 C 52.8893,65.3907 52.8853,65.4067 52.8763,65.4217 C 52.8703,65.4347 52.8593,65.4457 52.8483,65.4557 Z" transform=""/><path fill="#f4953f" stroke="none" d="M 52.1497,67.4949 C 52.1437,67.5069 52.1347,67.5169 52.1247,67.5269 C 52.1157,67.5359 52.1047,67.5439 52.0937,67.5509 C 52.0877,67.5549 52.0827,67.5599 52.0767,67.5629 C 52.0567,67.5729 52.0347,67.5819 52.0097,67.5879 L 49.8527,68.0949 L 49.8527,68.1709 L 52.0097,67.6649 C 52.0347,67.6579 52.0567,67.6499 52.0767,67.6389 C 52.0827,67.6359 52.0877,67.6319 52.0937,67.6269 C 52.1057,67.6199 52.1157,67.6119 52.1247,67.6029 C 52.1257,67.6019 52.1287,67.5999 52.1297,67.5989 C 52.1377,67.5909 52.1437,67.5819 52.1487,67.5729 C 52.1487,67.5719 52.1487,67.5719 52.1487,67.5709 C 52.1497,67.5699 52.1497,67.5689 52.1507,67.5679 C 52.1537,67.5609 52.1567,67.5549 52.1577,67.5479 C 52.1597,67.5409 52.1597,67.5339 52.1597,67.5269 L 52.1597,67.4509 C 52.1597,67.4649 52.1567,67.4779 52.1507,67.4919 C 52.1507,67.4929 52.1507,67.4939 52.1497,67.4949 Z" transform=""/><path fill="#f4953f" stroke="none" d="M 48.5458,68.0912 L 45.6568,67.3952 C 45.5658,67.3732 45.5098,67.3182 45.5098,67.2592 L 45.5098,67.3362 C 45.5098,67.3942 45.5658,67.4492 45.6568,67.4712 L 48.5458,68.1682 L 48.5458,68.0912 Z" transform=""/><path fill="#f4953f" stroke="none" d="M 51.5106,68.6875 C 51.5056,68.6925 51.5006,68.6965 51.4936,68.7005 C 51.4846,68.7075 51.4746,68.7125 51.4646,68.7185 C 51.4576,68.7215 51.4516,68.7245 51.4446,68.7275 C 51.4326,68.7325 51.4196,68.7365 51.4056,68.7395 C 51.3996,68.7415 51.3936,68.7435 51.3866,68.7445 C 51.3666,68.7485 51.3446,68.7505 51.3226,68.7505 C 51.2956,68.7505 51.2686,68.7485 51.2416,68.7415 L 49.1986,68.2485 L 46.1206,68.9715 C 46.0966,68.9785 46.0696,68.9805 46.0426,68.9805 C 45.9496,68.9805 45.8606,68.9455 45.8256,68.8865 C 45.8156,68.8695 45.8106,68.8535 45.8106,68.8365 L 45.8106,68.9135 C 45.8106,68.9295 45.8156,68.9465 45.8256,68.9625 C 45.8596,69.0215 45.9496,69.0575 46.0426,69.0575 C 46.0696,69.0575 46.0966,69.0545 46.1206,69.0485 L 49.1986,68.3255 L 51.2416,68.8175 C 51.2686,68.8245 51.2956,68.8275 51.3226,68.8275 C 51.3446,68.8275 51.3666,68.8245 51.3866,68.8205 C 51.3936,68.8195 51.3996,68.8175 51.4056,68.8165 C 51.4196,68.8125 51.4326,68.8095 51.4446,68.8045 C 51.4516,68.8015 51.4576,68.7985 51.4646,68.7945 C 51.4746,68.7895 51.4846,68.7845 51.4936,68.7775 C 51.5006,68.7735 51.5046,68.7685 51.5106,68.7645 C 51.5146,68.7605 51.5196,68.7575 51.5226,68.7545 C 51.5286,68.7475 51.5336,68.7405 51.5386,68.7335 C 51.5396,68.7315 51.5416,68.7295 51.5426,68.7275 C 51.5466,68.7195 51.5496,68.7105 51.5516,68.7025 C 51.5526,68.6965 51.5536,68.6885 51.5536,68.6815 L 51.5536,68.6055 C 51.5536,68.6225 51.5496,68.6395 51.5386,68.6565 C 51.5316,68.6675 51.5216,68.6775 51.5106,68.6875 Z" transform=""/><path fill="#f4953f" stroke="none" d="M 50.9958,71.3028 C 50.9898,71.3148 50.9818,71.3248 50.9718,71.3348 C 50.9628,71.3448 50.9508,71.3518 50.9398,71.3598 C 50.9338,71.3638 50.9298,71.3668 50.9238,71.3698 C 50.9048,71.3808 50.8828,71.3888 50.8588,71.3948 L 49.5538,71.7018 L 49.5538,71.7778 L 50.8588,71.4708 C 50.8828,71.4648 50.9048,71.4568 50.9238,71.4468 C 50.9298,71.4438 50.9348,71.4398 50.9408,71.4358 C 50.9528,71.4278 50.9638,71.4208 50.9718,71.4118 C 50.9728,71.4108 50.9758,71.4098 50.9768,71.4078 C 50.9848,71.3998 50.9898,71.3908 50.9948,71.3818 C 50.9948,71.3808 50.9958,71.3808 50.9958,71.3798 C 50.9968,71.3788 50.9968,71.3768 50.9978,71.3758 C 50.9998,71.3698 51.0028,71.3638 51.0048,71.3568 C 51.0058,71.3498 51.0068,71.3428 51.0068,71.3348 L 51.0068,71.2598 C 51.0068,71.2738 51.0028,71.2858 50.9968,71.2998 C 50.9968,71.2998 50.9968,71.3008 50.9958,71.3028 Z" transform=""/><path fill="#f4953f" stroke="none" d="M 48.3021,71.686 L 46.6221,71.239 C 46.5331,71.216 46.4801,71.162 46.4801,71.105 L 46.4801,71.182 C 46.4801,71.238 46.5341,71.293 46.6221,71.316 L 48.3021,71.763 L 48.3021,71.686 Z" transform=""/><path fill="#f4953f" stroke="none" d="M 50.6597,72.1886 C 50.6547,72.1926 50.6497,72.1976 50.6437,72.2016 C 50.6357,72.2086 50.6247,72.2126 50.6147,72.2176 C 50.6087,72.2206 50.6017,72.2246 50.5947,72.2276 C 50.5827,72.2316 50.5707,72.2356 50.5567,72.2386 C 50.5497,72.2406 50.5437,72.2426 50.5367,72.2446 C 50.5167,72.2476 50.4947,72.2506 50.4737,72.2506 C 50.4447,72.2506 50.4137,72.2466 50.3847,72.2386 L 48.9227,71.8506 L 47.0937,72.2796 C 47.0667,72.2856 47.0397,72.2886 47.0127,72.2886 C 46.9197,72.2886 46.8327,72.2526 46.7977,72.1946 C 46.7877,72.1766 46.7837,72.1606 46.7837,72.1436 L 46.7837,72.2196 C 46.7837,72.2366 46.7877,72.2546 46.7977,72.2706 C 46.8327,72.3296 46.9197,72.3646 47.0127,72.3646 C 47.0397,72.3646 47.0667,72.3626 47.0937,72.3556 L 48.9227,71.9276 L 50.3847,72.3156 C 50.4127,72.3226 50.4447,72.3266 50.4737,72.3266 C 50.4957,72.3266 50.5167,72.3256 50.5367,72.3216 C 50.5437,72.3206 50.5497,72.3176 50.5577,72.3156 C 50.5707,72.3126 50.5827,72.3096 50.5937,72.3046 C 50.6017,72.3016 50.6087,72.2986 50.6147,72.2946 C 50.6247,72.2896 50.6337,72.2846 50.6427,72.2786 C 50.6497,72.2746 50.6547,72.2696 50.6607,72.2646 C 50.6657,72.2606 50.6707,72.2566 50.6747,72.2526 C 50.6797,72.2476 50.6827,72.2426 50.6867,72.2376 C 50.6887,72.2346 50.6907,72.2316 50.6917,72.2286 C 50.6957,72.2196 50.6997,72.2116 50.7017,72.2036 C 50.7027,72.1956 50.7037,72.1886 50.7037,72.1816 L 50.7037,72.1046 C 50.7037,72.1226 50.6987,72.1416 50.6867,72.1606 C 50.6797,72.1716 50.6697,72.1796 50.6597,72.1886 Z" transform=""/><path fill="#f4953f" stroke="none" d="M 46.711,70.9593 C 46.74,70.9593 46.77,70.9633 46.798,70.9703 L 48.93,71.5383 L 50.696,71.1223 C 50.723,71.1163 50.75,71.1133 50.777,71.1133 C 50.871,71.1133 50.958,71.1493 50.992,71.2073 C 51.036,71.2833 50.976,71.3673 50.857,71.3943 L 49.552,71.7013 L 50.562,71.9703 C 50.679,72.0013 50.733,72.0873 50.686,72.1613 C 50.649,72.2163 50.564,72.2503 50.473,72.2503 C 50.444,72.2503 50.413,72.2463 50.384,72.2383 L 48.922,71.8503 L 47.093,72.2793 C 47.066,72.2853 47.039,72.2883 47.012,72.2883 C 46.919,72.2883 46.832,72.2533 46.797,72.1943 C 46.754,72.1183 46.814,72.0343 46.934,72.0063 L 48.301,71.6863 L 46.621,71.2393 C 46.503,71.2093 46.447,71.1223 46.497,71.0493 C 46.536,70.9923 46.622,70.9593 46.711,70.9593 Z" transform=""/><path fill="#f4953f" stroke="none" d="M 56.7681,53.9269 C 56.7681,54.1809 56.5621,54.3869 56.3081,54.3869 L 41.9081,54.3869 C 41.6541,54.3869 41.4481,54.1809 41.4481,53.9269 L 41.4481,53.3909 C 41.4481,53.1369 41.6541,52.9309 41.9081,52.9309 L 56.3081,52.9309 C 56.5621,52.9309 56.7681,53.1369 56.7681,53.3909 L 56.7681,53.9269 Z" transform=""/><path fill="#f89c44" stroke="none" d="M 59.9846,46.305 C 59.9846,46.432 59.6906,46.535 59.3276,46.535 L 38.7356,46.535 C 38.3726,46.535 38.0776,46.432 38.0776,46.305 L 38.0776,46.037 C 38.0776,45.91 38.3716,45.807 38.7356,45.807 L 59.3276,45.807 C 59.6906,45.807 59.9856,45.91 59.9856,46.037 L 59.9856,46.305 Z" transform=""/><path fill="#c75e72" stroke="none" d="M 57.5015,24.6934 C 57.5785,24.7064 54.0075,23.4794 50.5075,24.2604 C 46.9885,24.8124 43.5415,27.3734 43.4165,29.7034 C 43.4775,29.4374 37.6845,30.8254 36.5635,34.9704 C 35.5305,38.7594 37.5675,39.3594 37.5105,39.3934 C 37.5175,39.2554 36.1475,41.3434 35.8415,43.1734 C 35.4775,45.0474 36.1775,46.6614 38.9765,46.5754 C 38.9615,46.6584 39.0585,47.6364 41.3925,46.8944 C 42.5525,46.5204 45.1035,45.7634 47.9435,45.7434 C 50.8405,45.6844 55.8105,47.7224 57.7465,47.9414 C 57.9655,47.9664 60.7355,48.2014 61.8995,45.1944 C 63.4825,40.6584 59.1515,35.9674 59.0745,36.2674 C 59.0055,36.2744 61.8145,36.1774 58.5175,32.9644 C 53.6635,29.1944 55.9915,25.8964 57.5015,24.6934 Z" transform=""/><path fill="#9a4757" stroke="none" d="M 43.4168,29.7023 C 43.4778,29.4363 37.6838,30.8243 36.5628,34.9693 C 35.5308,38.7583 37.5678,39.3583 37.5108,39.3923 C 37.5168,39.2543 36.1478,41.3423 35.8418,43.1723 C 35.4778,45.0463 36.1778,46.6603 38.9768,46.5753 C 38.9618,46.6573 39.0588,47.6363 41.3928,46.8943 C 43.4578,46.1563 48.7118,45.4483 54.0798,46.6113 C 49.6348,44.5723 46.8608,43.7823 45.0948,42.3553 C 43.3488,41.1133 42.6118,39.2323 42.6948,39.2693 C 45.0698,39.6943 48.1408,40.1153 50.5148,41.0613 C 52.9048,41.9023 54.5988,43.2683 54.6128,43.2003 C 54.9378,43.4153 55.3978,43.5573 55.6808,43.4153 C 57.2918,42.9193 54.5388,39.3723 51.1008,38.3883 C 47.6958,37.0523 43.3688,37.6053 42.1458,35.8363 C 40.6128,33.4723 43.6448,31.2413 43.6958,31.3233 C 46.0168,33.0643 48.9368,33.7223 51.3728,34.5163 C 53.7948,35.2173 55.7338,36.0543 55.7498,36.0153 C 56.6068,35.7603 55.2768,35.0623 55.2698,35.0763 C 50.9908,33.1173 49.1258,31.3913 48.7258,29.2563 C 48.2928,27.2453 49.3238,24.8253 50.0798,24.3563 C 47.1708,24.7403 43.6718,27.2483 43.4168,29.7023 Z" transform=""/></svg>