<svg xmlns="http://www.w3.org/2000/svg" version="1.1" width="78" height="109" viewBox="0 0 78 109"><defs/><path fill="#d1d3d4" stroke="none" d="M 57.8786,54.9239 C 57.6316,55.0229 57.5126,55.3049 57.6116,55.5509 C 57.7136,55.7989 57.9946,55.9169 58.2406,55.8179 C 58.2796,55.8019 62.0686,54.2989 64.4736,55.5859 C 65.4356,56.0999 66.0576,57.0169 66.3266,58.3129 L 66.9466,61.4849 C 67.6416,65.1779 67.9606,66.8639 69.6136,67.7819 C 69.8466,67.9119 70.1396,67.8279 70.2706,67.5949 C 70.3976,67.3619 70.3146,67.0689 70.0836,66.9389 C 68.8266,66.2409 68.5546,64.7949 67.8966,61.3059 L 67.2726,58.1179 C 66.9436,56.5279 66.1556,55.3869 64.9286,54.7329 C 62.1226,53.2339 58.0516,54.8539 57.8786,54.9239 Z" transform=""/><path fill="#304454" stroke="none" d="M 69.9623,70.7072 C 69.2333,69.6132 68.6053,67.7352 70.0593,66.7762 C 71.0733,66.1092 72.5573,66.3782 73.3723,68.1112 C 74.4313,70.3592 73.2123,71.5042 74.0003,72.9812 C 74.0003,72.9812 71.1433,72.4802 69.9623,70.7072 Z" transform=""/><path fill="#304454" stroke="none" d="M 67.6032,59.8138 L 67.2722,58.1188 C 66.9422,56.5278 66.1552,55.3878 64.9272,54.7338 C 64.9072,54.7228 64.8832,54.7138 64.8652,54.7028 C 64.9782,54.9288 65.1302,55.1268 65.3312,55.2668 C 66.3152,55.9558 66.8082,57.4328 66.8082,58.4188 C 66.8082,58.9128 67.1052,59.4578 67.6032,59.8138 Z" transform=""/><path fill="#d78334" stroke="none" d="M 41.4535,101.241 L 44.5555,100.49 L 44.8375,97.5753 L 43.2395,96.1653 L 41.9255,97.3873 Z" transform=""/><path fill="#d1d3d4" stroke="none" d="M 49.7152,76.1 S 46.3412,78.683 48.1632,83.276 C 49.0942,85.62 47.4752,89.813 46.6122,90.258 C 43.8982,91.654 42.4942,94.325 42.2992,96.071 C 42.2992,96.071 48.7892,100.358 50.5722,100.77 C 53.0932,101.353 53.5802,96.635 51.2672,91.614 C 50.4322,89.801 51.3162,87.544 52.5462,86.578 C 55.2612,84.445 55.7902,79.7 54.2372,77.178" transform=""/><path fill="#304454" stroke="none" d="M 50.5562,86.1938 C 49.9502,86.6648 50.3572,88.2908 51.0552,89.0788 C 51.2892,88.0448 51.8632,87.1128 52.5452,86.5778 C 53.9402,85.4818 54.7552,83.6988 55.0092,81.8788 L 53.8042,80.5798 L 52.2302,80.7768 S 50.2602,81.7608 50.5552,83.0418 C 50.8512,84.3208 51.4432,85.5038 50.5562,86.1938 Z" transform=""/><path fill="#f3b37c" stroke="none" d="M 40.6065,100.865 S 40.3255,93.9093 45.4025,93.8143 C 49.2795,93.7423 51.5975,98.2263 51.7935,101.522 L 43.8975,101.616 L 42.5805,97.2913 L 41.4525,101.24 L 40.6065,100.865 Z" transform=""/><path fill="#d78334" stroke="none" d="M 16.8306,101.241 L 19.9326,100.49 L 20.2136,97.5753 L 18.6156,96.1653 L 17.2996,97.3873 Z" transform=""/><path fill="#d1d3d4" stroke="none" d="M 25.0914,76.1 S 21.7174,78.683 23.5404,83.276 C 24.4704,85.62 22.8504,89.813 21.9874,90.258 C 19.2734,91.654 17.8694,94.325 17.6754,96.071 C 17.6754,96.071 24.1644,100.358 25.9464,100.77 C 28.4664,101.353 28.9554,96.635 26.6424,91.614 C 25.8084,89.801 26.6914,87.544 27.9214,86.578 C 30.6364,84.445 31.1634,79.7 29.6134,77.178" transform=""/><path fill="#304454" stroke="none" d="M 20.8691,95.4069 S 22.4941,91.3419 24.1211,91.9519 C 25.7471,92.5609 24.7311,93.9839 26.3571,93.9839 S 28.3901,95.4069 28.3901,95.4069 L 24.6531,97.1269 L 20.8691,95.4069 Z" transform=""/><path fill="#f3b37c" stroke="none" d="M 15.9844,100.865 S 15.7034,93.9093 20.7774,93.8143 C 24.6554,93.7423 26.9744,98.2263 27.1694,101.522 L 19.2744,101.616 L 17.9584,97.2913 L 16.8314,101.24 L 15.9844,100.865 Z" transform=""/><path fill="#d78334" stroke="none" d="M 22.7806,102.445 L 26.0316,101.657 L 26.3266,98.6026 L 24.6526,97.1266 L 23.2736,98.4056 Z" transform=""/><path fill="#efefef" stroke="none" d="M 27.7792,53.9483 S 34.9092,56.9293 41.7902,56.8413 C 49.4722,56.7423 56.1692,49.1583 61.3112,53.1353 C 66.1382,56.8683 66.2592,82.4773 45.6622,85.4483 C 25.9502,88.2933 15.5922,72.6003 21.9932,64.0313 C 28.1342,55.8113 27.7792,53.9483 27.7792,53.9483 Z" transform=""/><path fill="#d1d3d4" stroke="none" d="M 63.5922,58.0274 C 61.4552,55.3904 59.4932,55.6074 59.4932,55.6074 L 61.1832,61.4284 S 62.8212,61.9384 63.9732,61.8094 C 63.9452,60.4474 63.8122,59.1714 63.5922,58.0274 Z" transform=""/><path fill="#d1d3d4" stroke="none" d="M 37.948,80.1851 C 36.767,77.1321 35.387,77.4271 35.387,77.4271 L 33.854,84.8401 C 35.039,85.1711 36.291,85.4201 37.607,85.5821 C 38.133,84.2131 38.677,82.0691 37.948,80.1851 Z" transform=""/><path fill="#efefef" stroke="none" d="M 31.4382,76.1 S 27.9022,78.807 29.8102,83.62 C 30.7852,86.076 29.0902,90.471 28.1852,90.934 C 25.3402,92.398 23.8692,95.199 23.6672,97.027 C 23.6672,97.027 30.4672,101.52 32.3342,101.952 C 34.9762,102.561 35.4862,97.617 33.0632,92.358 C 32.1882,90.458 33.1142,88.091 34.4012,87.08 C 37.2472,84.845 37.8012,79.872 36.1762,77.229" transform=""/><path fill="#f3b37c" stroke="none" d="M 21.8939,102.05 S 21.5979,94.7616 26.9179,94.6626 C 30.9809,94.5876 33.4119,99.2846 33.6149,102.741 L 25.3409,102.839 L 23.9619,98.3076 L 22.7809,102.444 L 21.8939,102.05 Z" transform=""/><path fill="#304454" stroke="none" d="M 32.5302,79.5934 C 31.9682,78.5294 30.4532,78.9374 29.4202,79.3744 C 29.1422,80.5144 29.1452,81.9374 29.8102,83.6194 C 30.2592,84.7464 30.1432,86.2814 29.7992,87.6574 C 31.4482,87.5714 31.8172,86.5944 31.6452,86.1934 C 31.3492,85.5024 31.0522,84.0244 31.6452,83.2364 C 32.2362,82.4504 33.4182,81.2674 32.5302,79.5934 Z" transform=""/><path fill="#d78334" stroke="none" d="M 47.4052,102.445 L 50.6542,101.657 L 50.9502,98.6026 L 49.2752,97.1266 L 47.8972,98.4056 Z" transform=""/><path fill="#efefef" stroke="none" d="M 60.3076,55.5613 S 64.6406,58.4183 65.4286,64.2293 C 66.2166,70.0393 60.7996,77.2303 60.7996,77.2303 C 62.4256,79.8733 61.8716,84.8453 59.0266,87.0803 C 57.7376,88.0913 56.8136,90.4593 57.6876,92.3583 C 60.1096,97.6173 59.5996,102.562 56.9566,101.953 C 55.0886,101.52 48.2906,97.0273 48.2906,97.0273 C 48.4926,95.1993 49.9646,92.3983 52.8086,90.9353 C 53.7126,90.4713 55.4086,86.0753 54.4336,83.6203 C 52.5246,78.8073 56.0606,76.1013 56.0606,76.1013 S 49.1766,73.0943 49.7666,66.7903 C 50.3586,60.4853 56.3666,54.1823 60.3076,55.5613 Z" transform=""/><path fill="#f3b37c" stroke="none" d="M 46.5185,102.05 S 46.2205,94.7616 51.5415,94.6626 C 55.6045,94.5876 58.0365,99.2846 58.2395,102.741 L 49.9665,102.839 L 48.5865,98.3076 L 47.4055,102.444 L 46.5185,102.05 Z" transform=""/><path fill="#304454" stroke="none" d="M 57.154,79.5934 C 56.592,78.5294 55.076,78.9374 54.044,79.3744 C 53.766,80.5144 53.768,81.9374 54.433,83.6194 C 54.881,84.7464 54.766,86.2814 54.422,87.6574 C 56.071,87.5714 56.44,86.5944 56.269,86.1934 C 55.973,85.5024 55.677,84.0244 56.269,83.2364 C 56.859,82.4504 58.041,81.2674 57.154,79.5934 Z" transform=""/><path fill="#304454" stroke="none" d="M 38.7416,59.2109 C 39.0266,58.1889 40.9096,56.2569 42.0906,57.5369 C 43.6556,59.2319 41.9936,60.0989 42.4846,60.9839 C 42.9766,61.8699 44.2566,61.1809 44.7506,62.1659 C 45.2426,63.1509 43.5686,64.8249 41.5996,63.8399 C 39.6286,62.8549 38.2496,60.9839 38.7416,59.2109 Z" transform=""/><path fill="#304454" stroke="none" d="M 65.5028,65.2187 C 65.0808,64.3197 64.4908,63.5217 63.7548,63.6387 C 61.8848,63.9347 61.6868,65.8057 62.5728,67.2817 C 63.4598,68.7597 62.4728,69.7447 61.5888,69.7447 C 60.7008,69.7447 58.5728,69.3667 58.0408,70.6317 C 57.2538,72.5027 59.9128,74.3737 61.8838,72.6997 C 62.6548,72.0437 63.3808,71.7057 64.0268,71.5777 C 64.8778,69.6087 65.5488,67.3557 65.5028,65.2187 Z" transform=""/><path fill="#304454" stroke="none" d="M 55.2149,92.5613 C 54.8099,94.1873 57.2169,93.7703 57.9089,94.9233 C 58.3459,95.6523 58.6579,97.0543 59.1929,97.6113 C 59.0379,96.0553 58.5469,94.2273 57.6869,92.3573 C 57.6079,92.1873 57.5499,92.0133 57.4979,91.8363 C 56.4649,91.7023 55.4119,91.7753 55.2149,92.5613 Z" transform=""/><path fill="#304454" stroke="none" d="M 53.8831,52.8969 C 50.2441,54.2879 46.1771,56.7859 41.7911,56.8419 C 41.2471,56.8479 40.7021,56.8349 40.1601,56.8079 C 40.1751,56.8339 40.1921,56.8609 40.2081,56.8869 C 38.4591,56.7079 35.7941,58.7309 35.6841,60.3609 C 35.4931,63.2509 37.2421,64.9119 35.2061,66.4699 C 33.1691,68.0269 36.5241,71.6199 37.7231,70.1829 C 38.0691,69.7659 38.6331,69.6339 39.2491,69.5779 C 38.9231,71.2729 41.3781,73.5199 42.3691,72.3319 C 43.1581,71.3849 45.0431,71.8799 46.2021,71.4929 C 47.9981,70.8949 47.9981,69.4569 48.7181,67.6609 C 49.4361,65.8639 51.2321,66.7029 51.9501,65.6249 C 52.6691,64.5469 51.1121,62.8699 49.5551,63.1089 C 48.1921,63.3179 48.1131,61.0499 46.2681,59.6789 C 48.9101,58.2919 50.0231,55.6799 52.3301,55.8579 C 54.2281,56.0019 54.7721,54.1999 53.8831,52.8969 Z" transform=""/><ellipse cx="26.00745109676961" cy="59.683565148581906" rx="8.016728187986097" ry="8.427311641556289" fill="#d1d3d4" stroke="none" r="NaN" transform=""/><ellipse cx="25.594280675998043" cy="68.1108755397693" rx="8.016728187986097" ry="8.427311641556289" fill="#d1d3d4" stroke="none" transform="rotate(7.9381 25.594280992747617 68.11087623288041)" r="NaN"/><path fill="#304454" stroke="none" d="M 21.0321,74.3524 C 21.8871,76.4534 23.3181,78.4854 25.2671,80.2384 C 26.6841,80.0974 27.2071,78.0124 26.4261,77.2304 C 25.5381,76.3444 24.6531,76.9354 23.9631,76.0494 C 23.2741,75.1614 24.2591,73.5864 22.8781,73.0944 C 22.1351,72.8284 21.4811,73.5904 21.0321,74.3524 Z" transform=""/><path fill="#304454" stroke="none" d="M 28.4546,50.7301 S 28.7066,43.0611 33.9936,42.8721 C 39.2826,42.6861 43.3086,47.5501 40.7926,50.3551 C 38.2746,53.1611 30.2196,52.9741 30.2196,52.9741 L 28.4546,50.7301 Z" transform=""/><path fill="#304454" stroke="none" d="M 14.6957,46.4164 S 8.13971,40.7404 5.31971,43.5414 C 2.50071,46.3444 4.54771,52.2774 8.16871,53.0014 C 11.7887,53.7274 15.6887,49.0994 15.6887,49.0994 L 14.6957,46.4164 Z" transform=""/><ellipse cx="21.012307108487573" cy="55.33448595168939" rx="12.029405133382191" ry="13.337924249067031" fill="#efefef" stroke="none" r="NaN" transform=""/><path fill="#304454" stroke="none" d="M 30.0201,46.5009 C 27.8161,43.7389 24.6001,41.9959 21.0121,41.9959 C 20.2691,41.9959 19.5471,42.0739 18.8401,42.2179 C 18.2061,43.1389 17.7881,44.2469 17.9451,45.0169 C 18.3351,46.8949 19.7671,46.8339 21.2211,46.0889 C 22.6721,45.3399 24.8101,45.4689 26.1051,47.1549 C 26.8341,48.0969 30.0361,48.4699 30.0201,46.5009 Z" transform=""/><path fill="#f4dbc5" stroke="none" d="M 25.7961,45.5874 C 25.1351,45.1454 24.7781,44.8194 24.6461,44.0254 C 24.6461,44.0254 25.9501,42.4394 25.9641,41.0574 C 25.9841,39.3704 24.9571,37.7754 25.3971,37.3114 C 25.8181,36.8634 28.1721,37.2774 28.9051,40.5114 C 29.4951,43.1234 27.7891,46.0234 27.7891,46.0234 S 26.6971,46.1874 25.7961,45.5874 Z" transform=""/><path fill="#f4dbc5" stroke="none" d="M 16.4312,45.5874 C 17.0922,45.1454 17.4502,44.8194 17.5802,44.0254 C 17.5802,44.0254 16.2782,42.4394 16.2612,41.0574 C 16.2432,39.3704 17.2702,37.7754 16.8322,37.3114 C 16.4112,36.8634 14.0542,37.2774 13.3232,40.5114 C 12.7332,43.1234 14.4382,46.0234 14.4382,46.0234 S 15.5312,46.1874 16.4312,45.5874 Z" transform=""/><ellipse cx="15.38921243139094" cy="59.790522897632044" rx="0.9333010436196424" ry="1.297305702036915" fill="#304454" stroke="none" transform="rotate(1.5587 15.389212002854835 59.79052330611972)" r="NaN"/><ellipse cx="26.527581734424686" cy="59.518814443800025" rx="0.9333010436196424" ry="1.297305702036915" fill="#304454" stroke="none" transform="rotate(1.5587 26.527582036367253 59.518813667727684)" r="NaN"/><path fill="#f4dbc5" stroke="none" d="M 30.95,68.5422 C 30.95,72.6592 26.558,75.9952 21.14,75.9952 C 15.726,75.9952 11.335,72.6592 11.335,68.5422 S 15.726,61.0872 21.14,61.0872 C 26.559,61.0882 30.95,64.4252 30.95,68.5422 Z" transform=""/><ellipse cx="12.560844032126221" cy="67.24830546481242" rx="2.302200078947158" ry="1.7492925290763721" fill="#f4dbc5" stroke="none" transform="rotate(24.8096 12.560844052735789 67.24830595227075)" r="NaN"/><ellipse cx="13.241411807488456" cy="68.157454866329" rx="1.954584255861469" ry="1.4853460232098188" fill="#c75e72" stroke="none" style="opacity: 0.7" opacity="0.7" transform="rotate(40.5186 13.241412004136802 68.15745502803333)" r="NaN"/><ellipse cx="29.727716891432593" cy="66.88688962282633" rx="2.302200078947158" ry="1.7492925290763721" fill="#f4dbc5" stroke="none" transform="rotate(-14.7325 29.72771777742906 66.88688900469532)" r="NaN"/><ellipse cx="29.145482404457198" cy="67.49499954831944" rx="1.954584255861469" ry="1.4853460232098188" fill="#c75e72" stroke="none" style="opacity: 0.7" opacity="0.7" transform="rotate(-35.0728 29.145482838017546 67.49500105252513)" r="NaN"/><path fill="#304454" stroke="none" d="M 54.1531,82.6771 C 53.5471,81.0961 52.3691,80.0011 51.6461,81.0981 C 51.2561,81.6901 50.6791,81.8461 50.0581,81.8851 C 50.5661,79.3921 48.3611,75.8761 47.2451,77.5691 C 46.3551,78.9161 44.5291,78.0441 43.3321,78.5351 C 41.4761,79.2921 41.3201,81.4271 40.4081,84.0431 C 40.0051,85.2001 39.4471,85.5751 38.8791,85.7681 C 41.0851,85.9601 43.4581,85.9051 45.9891,85.5391 C 49.1911,85.0781 51.8911,84.0671 54.1531,82.6771 Z" transform=""/></svg>