<svg xmlns="http://www.w3.org/2000/svg" version="1.1" width="104.99999999999999" height="70" viewBox="0 0 104.99999999999999 70"><defs/><path fill="#4d677a" stroke="none" d="M 80.6728,33.0776 S 82.5158,31.7466 82.8738,31.9506 C 83.2318,32.1556 82.9258,33.4866 82.9258,33.4866 L 80.6728,33.0776 Z" transform=""/><path fill="#bdcccc" stroke="none" d="M 82.6675,41.4239 S 83.5995,41.6569 84.1815,41.1899 C 84.7635,40.7249 84.2975,39.6169 84.2975,39.6169 L 82.6675,41.4239 Z" transform=""/><path fill="#4d677a" stroke="none" d="M 60.2459,47.7713 S 57.9169,49.2843 57.1589,50.8573 C 57.1589,50.8573 61.7599,48.3533 64.2069,48.2953 C 64.2069,48.2953 61.5849,47.7713 60.2459,47.7713 Z" transform=""/><path fill="#4d677a" stroke="none" d="M 66.708,30.7302 S 70.992,25.7762 74.674,26.5112 C 74.674,26.5112 71.623,29.7062 72.113,32.1272 C 72.13,32.2082 72.15,32.2892 72.175,32.3692 C 72.934,34.8122 66.708,30.7302 66.708,30.7302 Z" transform=""/><path fill="#7a3440" stroke="none" d="M 57.6063,40.5617 S 53.7443,45.7387 54.9183,46.9937 C 56.7563,46.9187 60.0773,45.6227 60.0773,45.6227 L 62.6273,43.3557 L 57.6063,40.5617 Z" transform=""/><path fill="#4d677a" stroke="none" d="M 88.4162,32.591 C 88.2372,30.438 88.9842,27.605 89.5482,25.342 L 88.4652,24.839 L 89.9282,24.036 C 90.4902,22.356 91.3372,20.703 92.5552,19.142 C 92.5552,19.142 89.0342,20.694 86.2942,23.507 C 83.7502,26.118 84.9032,32.943 84.9032,32.943 S 74.2392,33.069 65.3312,29.429 C 54.5172,25.013 44.6972,19.794 45.0072,24.287 C 45.2582,27.925 49.6492,36.832 51.6572,38.213 C 53.6632,39.592 60.1392,41.459 59.9362,42.228 C 59.3092,44.611 54.2912,46.367 54.9182,46.994 C 55.5462,47.621 74.4892,54.648 86.0312,37.71 C 86.0312,37.71 90.6472,43.474 95.0002,43.42 C 90.3752,38.849 89.5592,36.727 88.4162,32.591 Z" transform=""/><path fill="#fffdfd" stroke="none" d="M 58.9024,41.2496 S 58.8214,42.3426 58.9424,42.4646 C 59.0634,42.5876 59.6304,41.6966 59.6304,41.6966 L 58.9024,41.2496 Z" transform=""/><path fill="#fffdfd" stroke="none" d="M 57.7248,40.558 S 57.6428,41.651 57.7648,41.773 C 57.8858,41.895 58.4538,41.003 58.4538,41.003 L 57.7248,40.558 Z" transform=""/><path fill="#fffdfd" stroke="none" d="M 56.7298,45.912 S 55.9258,45.168 55.7538,45.188 C 55.5838,45.207 55.9268,46.206 55.9268,46.206 L 56.7298,45.912 Z" transform=""/><path fill="#bdcccc" stroke="none" d="M 87.4117,33.8207 S 83.5157,42.2317 72.1747,41.9137 C 60.9407,41.5997 51.1547,30.1827 48.6457,27.1707 C 46.9257,25.1087 45.7517,23.8837 45.0257,23.7907 C 45.0047,23.9417 44.9947,24.1047 45.0077,24.2867 C 45.2587,27.9257 49.6497,36.8317 51.6577,38.2127 C 53.6637,39.5917 60.1397,41.4597 59.9377,42.2277 C 59.3097,44.6107 54.2917,46.3677 54.9187,46.9937 C 55.5417,47.6177 74.6847,54.7287 86.0317,37.7097 C 86.8577,35.6937 87.4117,33.8207 87.4117,33.8207 Z" transform=""/><path fill="#688da7" stroke="none" d="M 64.2857,32.2526 S 65.1187,34.2966 63.4257,36.7306 C 63.4257,36.7306 64.3317,34.4336 64.2857,32.2526 Z" transform=""/><path fill="#688da7" stroke="none" d="M 65.1574,32.9267 S 65.9894,34.9707 64.2974,37.4047 C 64.2974,37.4047 65.2034,35.1077 65.1574,32.9267 Z" transform=""/><path fill="#688da7" stroke="none" d="M 65.8628,33.5817 S 66.6968,35.6237 65.0028,38.0597 C 65.0038,38.0597 65.9088,35.7617 65.8628,33.5817 Z" transform=""/><path fill="#304454" stroke="none" d="M 69.3189,44.7221 C 68.9839,42.5131 68.0469,42.5131 67.8459,40.7711 C 67.8459,40.7711 67.9109,40.6511 67.9799,40.5041 C 67.9799,40.5041 73.0669,44.1191 74.7419,44.5871 C 74.7419,44.5871 74.9519,48.8221 78.7589,49.9431 C 78.7249,50.0381 78.7249,50.1251 78.7249,50.2311 C 78.7249,50.2311 70.1639,50.2951 69.3189,44.7221 Z" transform=""/><path fill="#4d677a" stroke="none" d="M 69.4527,44.4533 C 69.1177,42.2443 68.1807,42.2443 67.9797,40.5043 C 67.9797,40.5043 70.0547,41.4403 71.5287,41.3083 C 71.5287,41.3083 73.2017,43.8523 74.8757,44.3213 C 74.8757,44.3213 75.2767,48.3363 78.7577,49.9443 C 78.7587,49.9443 70.2977,50.0263 69.4527,44.4533 Z" transform=""/><ellipse cx="60.296855558417555" cy="33.03506924694477" rx="0.665600885713229" ry="1.1059705060294833" fill="#304454" stroke="none" r="NaN" transform=""/></svg>