<svg xmlns="http://www.w3.org/2000/svg" version="1.1" width="78" height="109" viewBox="0 0 78 109"><defs/><path fill="#f89c44" stroke="none" d="M 42.4578,96.3883 C 43.1538,96.6343 44.1448,100.52 44.4968,101.392 C 44.7558,102.029 44.8688,102.663 43.9968,102.775 C 43.4848,102.84 42.1938,102.601 42.2648,103.506 C 42.3418,104.473 44.8168,103.837 45.3908,104.113 C 45.8048,104.311 45.8938,104.825 46.3828,104.892 C 47.1698,105.001 47.0758,104.116 47.0428,103.628 C 47.6838,103.392 50.7878,104.404 51.5008,104.582 C 52.9248,104.775 52.2478,103.633 51.8938,103.457 C 51.3298,103.178 50.7378,102.846 50.1238,102.629 C 49.2918,102.336 48.4398,102.136 47.6248,101.774 C 45.3438,101.696 44.5028,95.9613 44.6518,95.6183" transform=""/><path fill="#f89c44" stroke="none" d="M 28.1067,96.3883 C 28.1007,97.5503 27.5407,101.287 27.2597,101.892 C 26.5727,103.371 24.1627,102.667 23.0667,103.623 C 22.2117,104.366 23.3317,104.575 23.9517,104.515 C 24.6237,104.448 25.2717,104.153 25.9137,103.938 C 26.1967,103.843 26.4657,103.675 26.6057,103.968 C 26.7617,104.296 26.4137,104.648 26.8367,104.886 C 27.5927,105.31 27.9757,104.452 28.0297,103.892 C 28.0507,103.669 27.9897,103.62 28.1537,103.508 C 28.2817,103.422 28.5987,103.453 28.7497,103.468 C 29.1537,103.507 29.5907,103.638 29.9527,103.824 C 30.6467,104.18 31.0217,104.651 31.8767,104.662 C 33.1047,104.677 31.9247,103.39 31.3687,103.131 C 28.2997,102.046 29.4757,98.0423 30.0297,96.1593" transform=""/><path fill="#f4d038" stroke="none" d="M 50.8268,62.3575 C 51.7938,63.1085 53.9118,62.4665 54.9848,62.1715 C 56.8928,61.6465 57.9898,60.4795 59.2978,59.0535 C 60.5138,57.7275 61.2138,56.1105 61.7208,54.3955 C 61.9938,53.4725 62.1288,52.5225 62.1398,51.5535 C 62.1448,51.0465 62.0438,50.3445 62.1798,49.8925 C 62.4448,50.5505 62.8728,50.8195 62.9468,51.5635 C 63.0058,52.1575 62.9188,52.7915 62.7828,53.3355 C 63.0218,52.9135 63.0948,52.4145 63.2918,51.9895 C 64.0198,53.0065 63.2648,53.9645 62.9978,54.9525 C 63.6178,54.3895 64.6068,53.5605 64.5618,52.6215 C 64.8058,53.4655 65.0318,54.2525 64.8668,55.1435 C 64.7128,55.9855 64.0848,56.6585 63.8878,57.4345 C 64.4818,57.1165 64.9498,56.6395 65.2428,56.0255 C 65.3618,57.1875 64.6058,58.0635 64.0608,59.0055 C 64.4698,58.8495 64.8998,58.6845 65.3038,58.5095 C 65.3468,59.0955 64.8228,59.9615 64.5118,60.4425 C 65.2898,60.2215 66.0778,59.9585 66.6448,59.3195 C 66.7358,60.7175 65.0638,61.6555 64.5098,62.7545 C 64.8468,62.5705 65.2478,62.4805 65.5988,62.3045 C 66.1368,62.0345 66.5258,61.5505 66.9778,61.2065 C 67.1038,62.1275 65.9038,63.2865 65.3568,63.9145 C 64.6028,64.7815 63.4858,65.3235 62.4888,65.8075 C 63.1668,65.8605 63.9898,65.8515 64.6288,65.6115 C 63.8888,66.5365 62.8768,67.1125 61.6908,67.2065 C 62.0348,67.2535 62.4418,67.7805 62.4218,68.1175 C 61.7648,68.3845 60.6508,68.4585 59.9658,68.2505 C 61.0818,69.3815 58.6828,69.0025 58.0908,68.6105 C 58.3538,68.8895 58.7318,69.3005 58.3308,69.5865 C 57.8438,69.9335 57.1678,69.2265 56.7798,69.0115 C 56.8008,69.4035 56.9268,69.5775 56.5868,69.8175 C 56.1488,70.1275 55.6378,69.8195 55.3818,69.4725 C 55.2048,69.9515 54.4718,69.5755 54.1748,69.3455 C 53.2698,68.6425 53.4158,67.6555 52.8478,66.8015" transform=""/><path fill="#fee05f" stroke="none" d="M 55.1583,80.4355 C 55.1173,80.5415 55.0793,80.6445 55.0333,80.7535 C 55.0873,80.6555 55.1263,80.5475 55.1583,80.4355 Z" transform=""/><path fill="#fee05f" stroke="none" d="M 26.059,61.7668 C 25.981,61.9698 25.916,62.1808 25.944,62.3998 C 25.695,61.9598 25.791,61.4428 25.763,60.9578 C 25.462,61.1728 25.404,61.6858 25.413,62.0278 C 25.184,61.8068 25.066,61.1548 25.091,60.8338 C 24.92,60.9188 24.849,61.1238 24.751,61.2668 C 24.654,60.9228 24.663,60.5948 24.609,60.2538 C 24.546,59.8398 24.433,59.4458 24.408,59.0238 C 24.368,58.3808 24.442,57.7358 24.628,57.1178 C 24.768,56.6528 24.975,56.2168 25.193,55.7828 C 25.277,55.6138 25.55,55.2328 25.49,55.0268 C 25.488,55.0178 22.725,45.4448 31.781,40.5418 C 32.426,40.1918 32.702,38.8648 32.459,38.1178 C 32.197,37.3078 31.322,36.9798 30.628,36.8638 C 31.499,36.6218 32.163,36.4378 32.808,37.2538 C 33.352,37.9438 33.292,38.6988 33.278,39.5428 C 33.581,38.5258 34.138,37.4798 34.957,36.8058 C 36.072,35.8878 37.39,35.5228 38.726,35.1898 C 37.955,35.4518 37.177,35.9018 36.569,36.3308 C 35.637,36.9888 35.326,37.7758 34.833,38.7318 C 35.454,37.8908 36.689,37.4168 37.65,37.0658 C 38.594,36.7208 40.267,36.3178 41.228,36.7338 C 39.467,36.7188 37.126,36.9768 36.475,38.8618 C 37.208,38.6068 37.865,38.2218 38.646,38.0448 C 39.696,37.8068 40.687,37.7608 41.761,37.7708 C 43.607,37.7858 45.648,38.5148 47.053,39.6788 C 45.929,39.5258 44.843,38.9928 43.669,38.9228 C 42.505,38.8538 41.287,38.7618 40.264,39.4438 C 40.868,39.0408 42.731,39.5138 43.351,39.6418 C 45.602,40.1078 47.653,41.2858 49.106,43.0798 C 49.761,43.8868 50.285,44.7958 50.693,45.7498 C 50.886,46.1998 50.981,46.9158 51.366,47.2298 C 51.755,47.5458 52.394,47.4518 52.844,47.6248 C 53.725,47.9628 54.002,48.4458 54.569,49.1198 C 54.35,48.8198 53.997,48.5888 53.645,48.4688 C 54.16,49.1468 54.705,49.6318 55.016,50.4178 C 54.625,50.1168 54.201,49.9168 53.784,49.6768 C 54.073,50.0248 54.753,50.7458 54.683,51.1998 C 54.456,51.0008 54.197,50.8128 53.993,50.6008 C 54.212,51.1188 54.728,51.6088 54.741,52.1938 C 54.538,52.0198 54.283,51.8168 54.052,51.6408 C 54.166,52.8038 54.752,53.8828 54.392,55.0788 C 53.984,54.7738 54.107,54.1318 53.777,53.7728 C 53.72,54.2018 53.906,54.6388 53.828,55.0798 C 53.732,55.6168 53.377,56.2188 53.075,56.6538 C 52.771,57.0898 52.418,57.5778 52.018,58.0188 C 48.189,61.4498 56.191,63.4508 56.525,73.6208 C 56.822,74.3738 56.825,75.1638 56.884,75.9598 C 56.934,76.6248 57.145,77.4888 57.046,78.1398 C 56.777,77.6188 56.589,77.1698 56.188,76.7228 C 56.12,76.6478 56.033,76.5678 55.954,76.4828 C 56.191,77.1488 56.388,77.7958 56.366,78.5458 C 56.362,77.7928 55.628,77.2408 55.451,76.5538 C 55.833,77.9968 55.681,79.0918 55.156,80.4348 C 55.311,79.8898 55.215,79.2118 55.095,78.7048 C 55.145,80.4098 55.885,87.2298 46.682,91.6318 C 45.759,92.5898 46.306,94.3428 45.457,95.4978 C 44.638,96.6118 43.15,97.1498 41.935,96.1888 C 41.256,95.6518 40.184,94.2608 40.153,93.3638 C 38.964,95.1348 34.788,94.6728 33.407,93.5828 C 33.093,94.4378 32.513,95.2278 31.97,95.9578 C 31.248,96.9268 30.065,97.4568 28.896,96.9698 C 27.654,96.4528 27.563,95.4748 27.179,94.3448 C 26.781,93.1738 25.502,91.9678 24.395,91.5008 C 23.086,90.9498 21.96,89.9808 21.044,88.9218 C 21.05,89.3498 21.587,89.9628 21.909,90.1648 C 21.282,89.8658 20.424,89.3948 19.832,88.9168 C 19.064,88.2978 17.887,87.1428 17.645,86.1528 C 17.314,86.8458 17.694,87.7778 18.202,88.3058 C 16.837,87.4578 16.408,85.6768 16.302,84.2298 C 16.075,84.6358 15.951,85.1808 15.957,85.6718 C 15.75,85.2738 15.486,84.8248 15.444,84.3348 C 15.395,83.7738 15.666,83.2198 15.614,82.6718 C 14.721,83.1348 14.641,84.1808 14.513,85.0808 C 14.258,84.0098 14.339,82.9288 14.287,81.8198 C 13.639,82.5138 13.407,83.3428 13.095,84.2168 C 12.968,82.2948 13.254,81.0268 14.797,79.8498 C 14.435,80.0938 14.079,80.4468 13.737,80.7508 C 14.674,79.2288 15.665,78.3698 17.519,78.2198 C 22.491,70.7648 28.338,68.9948 28.884,66.1508 C 29.262,65.4428 29.623,64.2918 29.565,63.3598 C 29.457,63.2938 29.344,63.2338 29.243,63.1598 C 29,62.9808 28.673,62.4998 28.333,62.6008 C 27.757,62.7718 27.802,63.8138 27.792,64.2448 C 27.409,63.9348 27.353,63.2258 27.327,62.7668 C 27.097,62.9858 27.001,63.3578 26.981,63.6808 C 26.796,63.4708 26.651,63.1798 26.636,62.8818 C 26.582,62.9668 26.482,63.0278 26.429,63.1518 C 26.312,62.6898 26.25,62.2008 26.129,61.7468" transform=""/><path fill="#fee05f" stroke="none" d="M 38.7281,35.1917 C 38.9841,35.1277 39.2411,35.0647 39.4981,34.9997 C 39.2461,35.0357 38.9871,35.1037 38.7281,35.1917 Z" transform=""/><path fill="#f4d038" stroke="none" d="M 27.6681,67.1406 C 27.1681,67.4646 26.5901,67.6756 26.1901,68.1136 C 26.8651,68.6906 26.4641,68.6866 25.7931,69.1136 C 25.3041,69.4256 25.1121,69.6816 24.8121,70.1486 C 24.0141,71.3866 22.5771,72.3516 21.3041,73.0806 C 19.6321,74.0386 17.8731,74.5986 15.9711,74.8226 C 15.0381,74.9336 14.1921,74.9536 13.2591,74.8116 C 12.4611,74.6906 11.7621,74.3016 11.0131,74.1406 C 11.3181,75.2116 12.5131,75.7586 13.5421,75.8146 C 13.3941,76.0916 13.0121,76.1676 12.7881,76.3796 C 13.1711,77.1486 14.8311,77.1426 15.5481,77.1296 C 15.1401,77.3536 14.5781,77.4826 14.2551,77.8116 C 14.9141,78.1706 15.6731,78.1136 16.4041,78.1136 C 15.7951,78.1136 15.0381,78.2686 14.4881,78.4566 C 15.1301,79.1536 17.3131,79.4126 18.1481,79.0336 C 17.6551,79.0156 16.9741,79.4296 16.6111,79.7466 C 17.8031,80.4736 19.8421,80.2226 21.0461,79.5796 C 20.5501,79.9806 20.0211,80.4516 19.5521,80.8716 C 20.6911,80.9446 21.7231,80.7096 22.7811,80.3186 C 23.5171,80.0476 24.4231,79.8026 24.8661,79.1116 C 24.6221,79.5186 24.0901,79.8296 23.9411,80.2526 C 24.5151,80.5346 25.8101,79.6766 26.3171,79.3836 C 26.9921,78.9946 27.6251,78.6206 28.1611,78.0576 C 30.0401,76.0866 31.4611,72.9296 31.5961,70.2106 C 31.6591,68.9396 31.3741,67.2226 30.2991,66.3736 C 29.2621,65.5536 27.2871,65.9696 26.6971,67.1736 C 26.9481,67.2376 27.4271,67.2966 27.6681,67.1406 Z" transform=""/><path fill="#f89c44" stroke="none" d="M 41.1851,54.1277 C 39.9021,55.5207 38.0981,55.4027 36.3921,55.1657 L 34.3721,55.0507 C 34.8181,54.9917 36.2371,56.4177 36.7381,56.7807 C 37.5341,57.3577 38.3401,57.9147 39.2921,58.0957 C 40.0991,58.2497 41.2761,58.5407 42.0031,58.0077 C 42.6561,57.5297 43.0811,56.4137 43.3761,55.6847 C 43.8801,54.4397 43.8281,52.9797 44.4671,51.7727 C 43.0661,51.7907 42.0221,53.2187 41.1851,54.1277 Z" transform=""/><ellipse cx="32.88613047744997" cy="51.115916804603145" rx="0.9971648785803677" ry="1.386077613109864" fill="#304454" stroke="none" transform="rotate(-8.8934 32.886131825683606 51.115917034875125)" r="NaN"/><ellipse cx="44.53600291339759" cy="48.67092761684947" rx="0.9971648785803677" ry="1.386077613109864" fill="#304454" stroke="none" transform="rotate(-8.8934 44.5360035725731 48.670927734622154)" r="NaN"/><path fill="#d14e3f" stroke="none" d="M 35.873,55.3958 C 37.462,55.7948 39.126,58.0878 40.894,57.3568 C 42.332,56.7628 43.065,53.9848 43.478,52.6258 C 43.521,52.4818 43.592,52.3558 43.66,52.2278 C 42.28,52.7048 41.518,53.9388 40.431,54.7768 C 39.917,55.1728 39.158,55.3198 38.525,55.3828 C 37.813,55.4528 37.453,55.1898 36.797,55.0488" transform=""/><path fill="#f89c44" stroke="none" d="M 34.1266,55.0585 L 34.1266,55.0005 C 35.1056,55.3005 36.1716,55.3645 37.1856,55.5805 C 37.4066,55.6275 37.6586,55.6845 37.9256,55.7375 C 38.6386,55.8815 39.4576,56.0035 40.0706,55.8655 C 40.8916,55.6825 41.4476,54.8585 41.9016,54.1795 C 42.3366,53.5295 42.7866,53.0725 43.3636,52.6455 C 43.7396,52.3675 44.1786,52.1475 44.4656,51.7665 C 44.2096,51.3725 43.5986,51.4635 43.1876,51.5245 C 42.6106,51.6105 42.2616,51.6725 41.6876,51.4935 C 41.0426,51.2925 40.4796,51.0175 39.8506,50.9135 C 38.3276,50.6605 37.3446,51.6555 36.5386,52.8035 C 36.2716,53.1825 35.9346,53.4565 35.5896,53.7125 C 35.2396,53.9715 34.8816,54.2125 34.5766,54.5245 C 34.4096,54.6965 34.3006,54.8845 34.1266,55.0585 Z" transform=""/></svg>