<svg xmlns="http://www.w3.org/2000/svg" version="1.1" width="114.5" height="115" viewBox="0 0 114.5 115"><defs><linearGradient id="r-19aa8686d5a64918a6634ebe0f7c0ba4" x1="0" y1="0" x2="1" y2="2.4492935982947064e-16"><stop offset="0%" stop-color="#fdc075"/><stop offset="100%" stop-color="#de9354"/></linearGradient><linearGradient id="r-a0699dcf8970426188d0688cec5e2fe3" x1="0" y1="0" x2="1" y2="2.4492935982947064e-16"><stop offset="0%" stop-color="#fdc075"/><stop offset="100%" stop-color="#de9354"/></linearGradient></defs><path fill="#fcd0a1" stroke="none" d="M 103.406,66.2264 S 107.159,60.9204 103.148,54.1924 C 99.1359,47.4634 89.9489,47.4634 87.6199,47.4634 C 85.2899,47.4634 70.0219,45.6524 61.3509,42.9344 C 52.6819,40.2174 37.1539,33.7474 34.6949,32.4534 C 32.2359,31.1594 25.1199,31.0294 24.9899,44.3574 C 24.9899,44.3574 47.8939,57.8144 57.2109,59.7564 C 66.5269,61.6974 82.0549,66.4844 85.6779,66.8724 C 89.3029,67.2624 97.5839,70.2374 103.406,66.2264 Z" transform=""/><path fill="#e8b986" stroke="none" d="M 99.7834,64.5443 S 102.889,53.9343 87.8784,53.2873 C 72.8684,52.6393 59.2814,49.5353 52.4234,47.0763 C 45.5654,44.6173 34.3074,39.3113 30.9424,37.1113 C 27.5784,34.9123 25.2494,39.5703 24.9914,44.3593 C 24.9914,44.3593 60.8344,60.1453 67.3044,61.3093 C 75.1394,62.7203 96.8074,66.4853 99.7834,64.5443 Z" transform=""/><path fill="#b35138" stroke="none" d="M 18.1329,42.4174 C 20.9799,39.3114 24.0859,40.2174 25.6379,40.7354 C 27.1909,41.2524 27.0619,41.9004 44.4019,48.7584 C 61.7409,55.6164 87.8789,59.1104 87.8789,59.1104 C 90.4679,59.4984 90.9849,59.3694 98.4889,60.4044 C 105.995,61.4394 106.642,69.5914 101.336,72.3084 C 96.0299,75.0264 78.4319,72.3084 69.7619,71.4034 C 61.0939,70.4984 47.3759,66.3574 37.2829,62.7334 C 27.1909,59.1104 18.6499,50.9584 18.1319,50.4414 C 17.6159,49.9224 15.2859,45.5224 18.1329,42.4174 Z" transform=""/><path fill="#9b3924" stroke="none" d="M 69.7623,71.4024 C 61.0933,70.4974 47.3763,66.3564 37.2833,62.7324 C 27.1903,59.1094 18.6503,50.9574 18.1313,50.4404 C 17.6443,49.9524 15.5553,46.0294 17.6823,42.9794 C 19.3993,44.6234 22.1593,46.2544 24.3533,47.6394 C 27.4513,49.5964 32.0153,50.4114 52.3913,58.0724 C 72.7683,65.7344 94.4483,66.2244 96.0793,66.3874 C 97.7093,66.5494 98.9743,67.4014 97.3833,68.8324 C 96.0493,70.0304 98.7863,72.1544 100.633,71.9654 C 101.287,71.8984 102.025,71.6564 102.717,71.3654 C 102.313,71.7234 101.854,72.0424 101.336,72.3074 C 96.0313,75.0264 78.4323,72.3084 69.7623,71.4024 Z" transform=""/><path fill="url(#r-19aa8686d5a64918a6634ebe0f7c0ba4)" stroke="none" d="M 34.6959,32.4543 C 37.1549,33.7473 52.1999,39.8703 60.8689,42.5883 C 69.5389,45.3053 85.2899,47.4653 87.6199,47.4653 C 89.7539,47.4653 97.6479,47.4693 102.039,52.6493 C 95.1009,46.6633 81.8969,51.5543 60.3789,46.5003 C 47.4749,43.4693 43.2629,39.3273 31.6879,34.7643 C 29.7939,34.0163 28.6089,33.9413 27.5089,34.3453 C 29.8579,31.0473 33.1679,31.6493 34.6959,32.4543 Z" opacity="1" fill-opacity="1" style="opacity: 1;fill-opacity: 1" transform=""/><path fill="url(#r-a0699dcf8970426188d0688cec5e2fe3)" stroke="none" d="M 98.9785,73.0132 S 97.2575,74.1932 90.9845,70.3672 C 84.2635,66.2682 76.6215,65.7092 71.3155,64.6742 C 66.0105,63.6392 35.0845,53.4162 31.7195,52.1222 C 28.3555,50.8282 18.9925,45.8442 17.3565,45.2642 C 13.3445,43.8402 8.00455,44.3702 10.7575,51.8642 C 13.0865,58.2042 17.4855,64.1562 34.0485,73.6032 S 77.2495,85.2242 89.3025,81.3672 C 95.7715,79.2952 98.9785,74.9532 98.9785,73.0132 Z" opacity="1" fill-opacity="1" style="opacity: 1;fill-opacity: 1" transform=""/><path fill="#fcd0a1" stroke="none" d="M 17.3583,45.2706 C 18.9943,45.8516 28.3563,50.8346 31.7213,52.1286 S 66.0123,63.6456 71.3183,64.6806 C 76.6223,65.7156 84.2663,66.2756 90.9863,70.3736 C 97.2593,74.2006 98.9793,73.0196 98.9793,73.0196 C 98.9793,74.6556 96.6923,77.9916 92.1043,80.2406 C 91.8763,78.8626 91.5103,77.7956 91.2713,77.4776 C 90.5373,76.4996 86.1363,76.4996 83.4463,75.2766 S 68.5303,71.8526 64.3743,71.1196 C 60.2173,70.3856 54.8383,70.1416 52.8813,69.6526 C 50.9253,69.1636 47.2573,67.4516 45.5463,66.9626 C 43.8343,66.4726 44.5683,66.7176 40.9003,65.9846 C 37.2333,65.2516 20.8513,54.2486 16.4493,52.0476 C 13.4063,50.5266 12.3513,47.4856 11.7473,45.1066 C 13.2423,44.3596 15.4493,44.5936 17.3583,45.2706 Z" transform=""/><path fill="#9b3924" stroke="none" d="M 84.7739,64.4546 C 86.4509,64.0476 88.4549,63.6496 90.9439,63.6496 L 90.9439,63.6496 C 91.9509,63.6496 93.0379,63.7156 94.2139,63.8736 L 94.2139,63.8736 L 94.2129,63.8736 C 94.7529,63.9466 95.2479,63.5706 95.3199,63.0356 L 95.3199,63.0356 C 95.3939,62.5006 95.0169,62.0076 94.4779,61.9356 L 94.4779,61.9356 C 93.2139,61.7656 92.0369,61.6946 90.9439,61.6946 L 90.9439,61.6946 C 88.2429,61.6946 86.0519,62.1306 84.3059,62.5566 L 84.3059,62.5566 C 82.5689,62.9866 81.2479,63.3746 80.4559,63.3616 L 80.4559,63.3616 C 80.2199,63.3616 80.0379,63.3346 79.8879,63.2876 L 79.8879,63.2876 C 79.0769,63.0676 77.8079,61.8616 76.3089,60.4936 L 76.3089,60.4936 C 74.7909,59.1426 72.9319,57.6466 70.4679,57.0306 L 70.4679,57.0306 C 69.7069,56.8416 68.9619,56.7646 68.2379,56.7646 L 68.2379,56.7646 C 65.1769,56.7926 62.5279,58.0006 60.0159,57.9736 L 60.0159,57.9736 C 59.2309,57.9726 58.4609,57.8696 57.6609,57.5986 L 57.6609,57.5986 C 55.6359,56.9106 54.4849,55.7516 52.9109,54.3806 L 52.9109,54.3806 C 51.3539,53.0196 49.3889,51.5356 46.0269,50.6796 L 46.0269,50.6796 C 45.0559,50.4306 44.1359,50.3366 43.2689,50.3386 L 43.2689,50.3386 C 40.7519,50.3516 38.7129,51.0616 36.8759,51.0436 L 36.8759,51.0436 C 36.3869,51.0436 35.9089,50.9996 35.4269,50.8916 L 35.4269,50.8916 C 34.8419,50.7506 34.5249,50.4896 34.1159,49.9586 L 34.1159,49.9586 C 33.7179,49.4306 33.3259,48.6486 32.7789,47.7796 L 32.7789,47.7796 C 31.6989,46.0256 29.8099,44.0076 25.8249,43.2236 L 25.8249,43.2236 C 25.2949,43.1146 24.7749,43.4556 24.6649,43.9836 L 24.6649,43.9836 C 24.5559,44.5136 24.8979,45.0296 25.4309,45.1386 L 25.4309,45.1386 C 28.0669,45.6886 29.3809,46.6596 30.3039,47.7146 L 30.3039,47.7146 C 31.2329,48.7766 31.7199,50.0036 32.5339,51.1206 L 32.5339,51.1206 C 33.0719,51.8586 33.8709,52.5566 34.9949,52.7986 L 34.9949,52.7986 C 35.6389,52.9426 36.2679,52.9986 36.8759,52.9986 L 36.8759,52.9986 C 39.1739,52.9816 41.1649,52.2776 43.2689,52.2906 L 43.2689,52.2906 C 43.9959,52.2916 44.7409,52.3686 45.5339,52.5716 L 45.5339,52.5716 C 48.5599,53.3586 50.1179,54.5576 51.6169,55.8506 L 51.6169,55.8506 C 53.0999,57.1336 54.5369,58.6036 57.0269,59.4496 L 57.0269,59.4496 C 58.0509,59.7946 59.0539,59.9266 60.0159,59.9266 L 60.0159,59.9266 C 63.0999,59.8996 65.7539,58.6906 68.2379,58.7176 L 68.2379,58.7176 C 68.8259,58.7176 69.4039,58.7786 69.9899,58.9246 L 69.9899,58.9246 C 71.9299,59.4026 73.5399,60.6446 74.9959,61.9456 L 74.9959,61.9456 C 76.4699,63.2346 77.6789,64.6016 79.2949,65.1496 L 79.2949,65.1496 C 79.6779,65.2696 80.0669,65.3146 80.4559,65.3146 L 80.4559,65.3146 C 81.7619,65.3036 83.0899,64.8566 84.7739,64.4546 M 84.7739,64.4546 L 84.7739,64.4546 Z" transform=""/><path fill="#f6b21a" stroke="none" d="M 84.7902,64.0873 C 86.4572,63.6803 88.4482,63.2823 90.9242,63.2823 L 90.9242,63.2823 C 91.9252,63.2823 93.0052,63.3483 94.1752,63.5063 L 94.1752,63.5063 L 94.1742,63.5063 C 94.7112,63.5793 95.2042,63.2033 95.2752,62.6683 L 95.2752,62.6683 C 95.3472,62.1333 94.9722,61.6403 94.4372,61.5683 L 94.4372,61.5683 C 93.1802,61.3993 92.0102,61.3273 90.9242,61.3273 L 90.9242,61.3273 C 88.2402,61.3273 86.0592,61.7633 84.3252,62.1893 L 84.3252,62.1893 C 82.5972,62.6193 81.2842,63.0073 80.4972,62.9943 L 80.4972,62.9943 C 80.2632,62.9943 80.0812,62.9673 79.9332,62.9203 L 79.9332,62.9203 C 79.1262,62.7003 77.8652,61.4943 76.3752,60.1263 L 76.3752,60.1263 C 74.8662,58.7753 73.0172,57.2793 70.5672,56.6633 L 70.5672,56.6633 C 69.8112,56.4743 69.0702,56.3983 68.3502,56.3983 L 68.3502,56.3983 C 65.3082,56.4263 62.6742,57.6343 60.1762,57.6073 L 60.1762,57.6073 C 59.3962,57.6063 58.6292,57.5033 57.8352,57.2333 L 57.8352,57.2333 C 55.8202,56.5453 54.6762,55.3863 53.1122,54.0153 L 53.1122,54.0153 C 51.5652,52.6553 49.6102,51.1703 46.2682,50.3163 L 46.2682,50.3163 C 45.3032,50.0663 44.3892,49.9723 43.5262,49.9733 L 43.5262,49.9733 C 41.0252,49.9863 38.9972,50.6963 37.1702,50.6793 L 37.1702,50.6793 C 36.6842,50.6793 36.2092,50.6343 35.7302,50.5273 L 35.7302,50.5273 C 35.1472,50.3863 34.8332,50.1243 34.4262,49.5943 L 34.4262,49.5943 C 34.0312,49.0673 33.6402,48.2853 33.0972,47.4153 L 33.0972,47.4153 C 32.0232,45.6613 30.1452,43.6433 26.1842,42.8593 L 26.1842,42.8593 C 25.6552,42.7503 25.1392,43.0913 25.0302,43.6203 L 25.0302,43.6203 C 24.9212,44.1493 25.2622,44.6653 25.7902,44.7743 L 25.7902,44.7743 C 28.4112,45.3243 29.7162,46.2963 30.6362,47.3503 L 30.6362,47.3503 C 31.5592,48.4123 32.0422,49.6393 32.8532,50.7563 L 32.8532,50.7563 C 33.3872,51.4943 34.1822,52.1923 35.2992,52.4343 L 35.2992,52.4343 C 35.9382,52.5783 36.5642,52.6343 37.1692,52.6343 L 37.1692,52.6343 C 39.4542,52.6173 41.4342,51.9133 43.5242,51.9283 L 43.5242,51.9283 C 44.2482,51.9293 44.9882,52.0043 45.7772,52.2083 L 45.7772,52.2083 C 48.7852,52.9953 50.3342,54.1943 51.8242,55.4873 L 51.8242,55.4873 C 53.2992,56.7713 54.7282,58.2403 57.2032,59.0853 L 57.2032,59.0853 C 58.2212,59.4313 59.2182,59.5623 60.1752,59.5623 L 60.1752,59.5623 C 63.2412,59.5353 65.8792,58.3273 68.3492,58.3543 L 68.3492,58.3543 C 68.9342,58.3543 69.5082,58.4143 70.0902,58.5603 L 70.0902,58.5603 C 72.0182,59.0373 73.6192,60.2803 75.0672,61.5823 L 75.0672,61.5823 C 76.5332,62.8713 77.7352,64.2373 79.3422,64.7853 L 79.3422,64.7853 C 79.7222,64.9053 80.1092,64.9503 80.4962,64.9503 L 80.4962,64.9503 C 81.7952,64.9363 83.1152,64.4893 84.7902,64.0873 M 84.7902,64.0873 L 84.7902,64.0873 Z" transform=""/><path fill="#fbd702" stroke="none" d="M 80.4957,63.7653 C 82.6977,63.7513 85.8067,62.0973 90.9237,62.0993 L 90.9237,62.0993 C 91.9557,62.0993 93.0697,62.1673 94.2717,62.3303 L 94.2717,62.3303 C 94.4057,62.3483 94.5277,62.2553 94.5467,62.1213 L 94.5467,62.1213 C 94.5637,61.9863 94.4717,61.8643 94.3377,61.8453 L 94.3377,61.8453 C 93.1137,61.6803 91.9777,61.6113 90.9237,61.6113 L 90.9237,61.6113 C 85.7177,61.6133 82.4677,63.2913 80.4957,63.2773 L 80.4957,63.2773 C 80.2037,63.2773 79.9457,63.2423 79.7087,63.1683 L 79.7087,63.1683 C 77.4607,62.4973 74.8757,58.0623 70.3877,56.9233 L 70.3877,56.9233 C 69.6967,56.7503 69.0177,56.6813 68.3487,56.6813 L 68.3487,56.6813 C 65.5217,56.6883 62.8857,57.8963 60.1737,57.8903 L 60.1737,57.8903 C 59.3277,57.8903 58.4747,57.7743 57.5967,57.4763 L 57.5967,57.4763 C 53.2427,56.0213 52.5337,52.2583 46.0817,50.5743 L 46.0817,50.5743 C 45.1837,50.3423 44.3337,50.2553 43.5237,50.2553 L 43.5237,50.2553 C 41.1767,50.2583 39.1667,50.9653 37.1687,50.9613 L 37.1687,50.9613 C 36.6387,50.9613 36.1067,50.9123 35.5657,50.7913 L 35.5657,50.7913 C 34.0217,50.4553 33.5207,49.0303 32.4747,47.3543 L 32.4747,47.3543 C 31.4367,45.6953 29.8167,43.8973 26.0347,43.1263 L 26.0347,43.1263 C 25.9027,43.0993 25.7737,43.1843 25.7457,43.3163 L 25.7457,43.3163 C 25.7187,43.4483 25.8047,43.5773 25.9367,43.6043 L 25.9367,43.6043 C 29.5997,44.3663 31.0457,46.0173 32.0607,47.6153 L 32.0607,47.6153 C 33.0677,49.1963 33.6067,50.8363 35.4587,51.2673 L 35.4587,51.2673 C 36.0397,51.3973 36.6077,51.4493 37.1687,51.4493 L 37.1687,51.4493 C 39.2807,51.4453 41.2787,50.7393 43.5237,50.7423 L 43.5237,50.7423 C 44.3007,50.7423 45.1067,50.8263 45.9597,51.0463 L 45.9597,51.0463 C 52.2087,52.6473 52.8147,56.3283 57.4397,57.9393 L 57.4397,57.9393 C 58.3727,58.2553 59.2827,58.3773 60.1737,58.3773 L 60.1737,58.3773 C 63.0277,58.3713 65.6647,57.1623 68.3487,57.1683 L 68.3487,57.1683 C 68.9837,57.1693 69.6207,57.2353 70.2677,57.3953 L 70.2677,57.3953 C 74.5387,58.4463 76.9907,62.7713 79.5607,63.6323 L 79.5607,63.6323 C 79.8527,63.7243 80.1587,63.7633 80.4827,63.7633 L 80.4827,63.7633 C 80.4867,63.7653 80.4917,63.7653 80.4957,63.7653 M 80.4957,63.7653 L 80.4957,63.7653 Z" transform=""/></svg>