<svg xmlns="http://www.w3.org/2000/svg" version="1.1" width="57.99999999999999" height="104" viewBox="0 0 57.99999999999999 104"><defs/><path fill="#f89c44" stroke="none" d="M 31.4699,93.8488 C 31.9669,94.0248 32.6749,96.8008 32.9269,97.4228 C 33.1109,97.8778 33.1919,98.3308 32.5689,98.4108 C 32.2029,98.4578 31.2809,98.2868 31.3319,98.9338 C 31.3869,99.6238 33.1549,99.1698 33.5649,99.3668 C 33.8609,99.5078 33.9239,99.8758 34.2739,99.9238 C 34.8359,100.001 34.7689,99.3688 34.7449,99.0198 C 35.2029,98.8518 37.4199,99.5748 37.9289,99.7018 C 38.9459,99.8398 38.4629,99.0238 38.2099,98.8978 C 37.8069,98.6988 37.3839,98.4618 36.9459,98.3068 C 36.3509,98.0978 35.7429,97.9548 35.1609,97.6958 C 33.5319,97.6408 32.9309,93.5438 33.0369,93.2988" transform=""/><path fill="#f89c44" stroke="none" d="M 21.2191,93.8488 C 21.2141,94.6788 20.8151,97.3478 20.6141,97.7798 C 20.1241,98.8368 18.4021,98.3338 17.6191,99.0168 C 17.0091,99.5478 17.8081,99.6968 18.2511,99.6538 C 18.7311,99.6058 19.1941,99.3958 19.6521,99.2418 C 19.8541,99.1738 20.0471,99.0538 20.1471,99.2628 C 20.2591,99.4978 20.0101,99.7488 20.3121,99.9188 C 20.8521,100.222 21.1261,99.6088 21.1641,99.2088 C 21.1791,99.0488 21.1351,99.0148 21.2531,98.9348 C 21.3441,98.8728 21.5711,98.8948 21.6781,98.9058 C 21.9671,98.9338 22.2791,99.0278 22.5381,99.1608 C 23.0331,99.4148 23.3011,99.7508 23.9121,99.7588 C 24.7891,99.7698 23.9461,98.8508 23.5491,98.6658 C 21.3571,97.8898 22.1971,95.0308 22.5931,93.6848" transform=""/><path fill="#f4d038" stroke="none" d="M 37.4477,69.5411 C 38.1387,70.0771 39.6517,69.6191 40.4177,69.4081 C 41.7807,69.0331 42.5637,68.1991 43.4987,67.1811 C 44.3667,66.2341 44.8667,65.0791 45.2297,63.8541 C 45.4237,63.1951 45.5207,62.5161 45.5277,61.8241 C 45.5317,61.4621 45.4597,60.9601 45.5567,60.6381 C 45.7457,61.1071 46.0517,61.2991 46.1047,61.8311 C 46.1467,62.2551 46.0847,62.7081 45.9877,63.0961 C 46.1577,62.7961 46.2107,62.4391 46.3517,62.1351 C 46.8707,62.8611 46.3317,63.5461 46.1417,64.2521 C 46.5837,63.8491 47.2907,63.2581 47.2587,62.5871 C 47.4327,63.1891 47.5937,63.7511 47.4767,64.3881 C 47.3657,64.9901 46.9177,65.4701 46.7767,66.0241 C 47.2017,65.7971 47.5357,65.4561 47.7447,65.0181 C 47.8297,65.8481 47.2897,66.4741 46.9007,67.1471 C 47.1927,67.0361 47.4997,66.9171 47.7887,66.7931 C 47.8187,67.2111 47.4447,67.8291 47.2227,68.1731 C 47.7777,68.0151 48.3417,67.8271 48.7467,67.3711 C 48.8117,68.3691 47.6167,69.0391 47.2217,69.8251 C 47.4617,69.6931 47.7487,69.6291 47.9997,69.5031 C 48.3827,69.3111 48.6617,68.9641 48.9837,68.7191 C 49.0747,69.3761 48.2167,70.2051 47.8257,70.6531 C 47.2877,71.2721 46.4897,71.6591 45.7777,72.0061 C 46.2617,72.0431 46.8497,72.0371 47.3057,71.8651 C 46.7777,72.5261 46.0547,72.9371 45.2077,73.0041 C 45.4537,73.0381 45.7437,73.4141 45.7297,73.6551 C 45.2607,73.8461 44.4647,73.8991 43.9757,73.7501 C 44.7727,74.5581 43.0587,74.2871 42.6367,74.0071 C 42.8237,74.2071 43.0937,74.5001 42.8077,74.7051 C 42.4597,74.9531 41.9767,74.4471 41.6997,74.2941 C 41.7147,74.5741 41.8047,74.6981 41.5617,74.8701 C 41.2497,75.0911 40.8837,74.8711 40.7017,74.6231 C 40.5747,74.9651 40.0517,74.6971 39.8397,74.5321 C 39.1927,74.0301 39.2967,73.3251 38.8917,72.7151" transform=""/><path fill="#fee05f" stroke="none" d="M 40.5416,82.4539 C 40.5116,82.5299 40.4846,82.6029 40.4516,82.6809 C 40.4906,82.6109 40.5186,82.5339 40.5416,82.4539 Z" transform=""/><path fill="#fee05f" stroke="none" d="M 19.7564,69.1191 C 19.7004,69.2641 19.6544,69.4151 19.6744,69.5711 C 19.4964,69.2571 19.5644,68.8871 19.5454,68.5411 C 19.3294,68.6941 19.2884,69.0611 19.2954,69.3051 C 19.1314,69.1471 19.0474,68.6821 19.0654,68.4531 C 18.9424,68.5131 18.8924,68.6601 18.8224,68.7621 C 18.7534,68.5161 18.7594,68.2821 18.7214,68.0381 C 18.6754,67.7431 18.5954,67.4611 18.5764,67.1601 C 18.5484,66.7001 18.6014,66.2401 18.7344,65.7991 C 18.8344,65.4661 18.9824,65.1551 19.1374,64.8451 C 19.1984,64.7241 19.3934,64.4521 19.3504,64.3051 C 19.3484,64.2981 17.3744,57.4601 23.8434,53.9581 C 24.3044,53.7091 24.5014,52.7611 24.3284,52.2271 C 24.1404,51.6481 23.5154,51.4141 23.0204,51.3311 C 23.6424,51.1581 24.1164,51.0271 24.5774,51.6101 C 24.9654,52.1021 24.9224,52.6421 24.9124,53.2451 C 25.1294,52.5181 25.5264,51.7711 26.1124,51.2891 C 26.9084,50.6341 27.8504,50.3731 28.8044,50.1351 C 28.2534,50.3221 27.6984,50.6441 27.2634,50.9501 C 26.5984,51.4201 26.3754,51.9831 26.0234,52.6651 C 26.4674,52.0651 27.3494,51.7261 28.0354,51.4751 C 28.7094,51.2291 29.9054,50.9411 30.5914,51.2381 C 29.3334,51.2281 27.6614,51.4121 27.1964,52.7581 C 27.7194,52.5761 28.1894,52.3011 28.7474,52.1751 C 29.4974,52.0051 30.2044,51.9721 30.9724,51.9791 C 32.2904,51.9901 33.7484,52.5111 34.7524,53.3421 C 33.9494,53.2331 33.1734,52.8521 32.3344,52.8021 C 31.5034,52.7531 30.6334,52.6871 29.9024,53.1741 C 30.3344,52.8861 31.6644,53.2241 32.1074,53.3161 C 33.7164,53.6481 35.1804,54.4901 36.2184,55.7711 C 36.6864,56.3481 37.0604,56.9971 37.3524,57.6781 C 37.4894,58.0001 37.5574,58.5111 37.8324,58.7351 C 38.1104,58.9611 38.5664,58.8941 38.8884,59.0181 C 39.5184,59.2591 39.7154,59.6041 40.1214,60.0851 C 39.9644,59.8711 39.7124,59.7061 39.4604,59.6211 C 39.8284,60.1041 40.2174,60.4511 40.4404,61.0121 C 40.1604,60.7981 39.8574,60.6551 39.5604,60.4831 C 39.7664,60.7321 40.2524,61.2471 40.2024,61.5711 C 40.0404,61.4291 39.8554,61.2951 39.7094,61.1431 C 39.8654,61.5131 40.2344,61.8631 40.2434,62.2811 C 40.0984,62.1571 39.9164,62.0121 39.7514,61.8861 C 39.8324,62.7171 40.2514,63.4871 39.9944,64.3421 C 39.7034,64.1241 39.7904,63.6651 39.5544,63.4091 C 39.5144,63.7151 39.6474,64.0281 39.5914,64.3431 C 39.5224,64.7261 39.2694,65.1561 39.0534,65.4671 C 38.8364,65.7781 38.5844,66.1271 38.2984,66.4421 C 35.5634,68.8931 41.2794,70.3221 41.5174,77.5861 C 41.7294,78.1241 41.7314,78.6881 41.7744,79.2571 C 41.8104,79.7321 41.9604,80.3491 41.8894,80.8141 C 41.6974,80.4421 41.5634,80.1211 41.2774,79.8021 C 41.2284,79.7481 41.1664,79.6911 41.1094,79.6301 C 41.2794,80.1061 41.4194,80.5681 41.4044,81.1041 C 41.4014,80.5661 40.8774,80.1721 40.7514,79.6811 C 41.0234,80.7121 40.9144,81.4941 40.5404,82.4531 C 40.6514,82.0641 40.5814,81.5801 40.4964,81.2181 C 40.5314,82.4351 41.0604,87.3071 34.4864,90.4511 C 33.8274,91.1351 34.2184,92.3871 33.6124,93.2131 C 33.0274,94.0081 31.9644,94.3921 31.0964,93.7061 C 30.6114,93.3231 29.8454,92.3291 29.8234,91.6881 C 28.9744,92.9531 25.9914,92.6241 25.0044,91.8451 C 24.7804,92.4551 24.3664,93.0201 23.9784,93.5411 C 23.4634,94.2331 22.6184,94.6121 21.7824,94.2641 C 20.8954,93.8951 20.8304,93.1961 20.5564,92.3891 C 20.2714,91.5531 19.3584,90.6911 18.5674,90.3581 C 17.6324,89.9641 16.8284,89.2721 16.1744,88.5151 C 16.1784,88.8211 16.5614,89.2591 16.7924,89.4031 C 16.3444,89.1901 15.7314,88.8541 15.3084,88.5121 C 14.7604,88.0701 13.9194,87.2451 13.7464,86.5381 C 13.5104,87.0331 13.7814,87.6981 14.1444,88.0761 C 13.1694,87.4701 12.8624,86.1971 12.7874,85.1641 C 12.6254,85.4541 12.5364,85.8431 12.5414,86.1941 C 12.3924,85.9101 12.2044,85.5891 12.1744,85.2391 C 12.1394,84.8381 12.3334,84.4421 12.2954,84.0511 C 11.6574,84.3821 11.6014,85.1291 11.5094,85.7721 C 11.3274,85.0071 11.3854,84.2341 11.3474,83.4431 C 10.8844,83.9381 10.7194,84.5311 10.4964,85.1551 C 10.4054,83.7821 10.6104,82.8761 11.7124,82.0351 C 11.4534,82.2101 11.1994,82.4621 10.9554,82.6791 C 11.6244,81.5921 12.3324,80.9791 13.6564,80.8711 C 17.2074,75.5461 21.3844,74.2821 21.7744,72.2501 C 22.0444,71.7451 22.3024,70.9231 22.2604,70.2571 C 22.1834,70.2101 22.1024,70.1671 22.0304,70.1141 C 21.8574,69.9861 21.6234,69.6421 21.3804,69.7151 C 20.9694,69.8371 21.0014,70.5811 20.9944,70.8891 C 20.7204,70.6671 20.6804,70.1611 20.6624,69.8331 C 20.4974,69.9901 20.4294,70.2551 20.4144,70.4861 C 20.2834,70.3361 20.1794,70.1281 20.1684,69.9161 C 20.1294,69.9761 20.0584,70.0201 20.0214,70.1081 C 19.9374,69.7781 19.8924,69.4291 19.8064,69.1051" transform=""/><path fill="#fee05f" stroke="none" d="M 28.8058,50.1369 C 28.9888,50.0919 29.1728,50.0459 29.3558,49.9999 C 29.1758,50.0259 28.9908,50.0739 28.8058,50.1369 Z" transform=""/><path fill="#f4d038" stroke="none" d="M 20.9058,72.9576 C 20.5488,73.1896 20.1358,73.3396 19.8498,73.6526 C 20.3328,74.0646 20.0458,74.0616 19.5668,74.3666 C 19.2178,74.5896 19.0808,74.7726 18.8658,75.1066 C 18.2958,75.9906 17.2698,76.6796 16.3608,77.2006 C 15.1658,77.8846 13.9098,78.2846 12.5508,78.4446 C 11.8848,78.5236 11.2798,78.5386 10.6138,78.4376 C 10.0438,78.3506 9.54476,78.0726 9.00976,77.9576 C 9.22676,78.7226 10.0808,79.1136 10.8158,79.1536 C 10.7108,79.3516 10.4368,79.4056 10.2768,79.5566 C 10.5508,80.1056 11.7368,80.1016 12.2488,80.0926 C 11.9568,80.2526 11.5558,80.3446 11.3248,80.5796 C 11.7958,80.8356 12.3378,80.7956 12.8598,80.7956 C 12.4248,80.7956 11.8848,80.9066 11.4918,81.0406 C 11.9498,81.5386 13.5098,81.7236 14.1058,81.4526 C 13.7538,81.4396 13.2668,81.7356 13.0078,81.9616 C 13.8598,82.4806 15.3158,82.3016 16.1758,81.8426 C 15.8208,82.1286 15.4438,82.4656 15.1088,82.7656 C 15.9218,82.8176 16.6588,82.6496 17.4148,82.3706 C 17.9408,82.1766 18.5878,82.0016 18.9048,81.5076 C 18.7298,81.7986 18.3508,82.0216 18.2438,82.3226 C 18.6538,82.5246 19.5788,81.9116 19.9408,81.7026 C 20.4228,81.4246 20.8748,81.1576 21.2578,80.7556 C 22.5998,79.3476 23.6148,77.0926 23.7118,75.1506 C 23.7558,74.2426 23.5528,73.0166 22.7848,72.4096 C 22.0448,71.8236 20.6338,72.1206 20.2118,72.9816 C 20.3918,73.0266 20.7338,73.0686 20.9058,72.9576 Z" transform=""/><path fill="#f89c44" stroke="none" d="M 30.5608,63.6626 C 29.6448,64.6576 28.3558,64.5726 27.1368,64.4036 L 25.6938,64.3216 C 26.0128,64.2796 27.0268,65.2986 27.3848,65.5576 C 27.9528,65.9696 28.5288,66.3676 29.2088,66.4976 C 29.7858,66.6066 30.6258,66.8146 31.1458,66.4336 C 31.6118,66.0926 31.9148,65.2956 32.1258,64.7746 C 32.4858,63.8856 32.4488,62.8426 32.9048,61.9806 C 31.9048,61.9936 31.1588,63.0136 30.5608,63.6626 Z" transform=""/><ellipse cx="24.632950341035688" cy="61.51136914614511" rx="0.7122606275574054" ry="0.9900554379356171" fill="#304454" stroke="none" transform="rotate(-8.8934 24.632951304059716 61.51136931062509)" r="NaN"/><ellipse cx="32.95428779528399" cy="59.76494829774962" rx="0.7122606275574054" ry="0.9900554379356171" fill="#304454" stroke="none" transform="rotate(-8.8934 32.95428826612364 59.76494838187297)" r="NaN"/><path fill="#d14e3f" stroke="none" d="M 26.7664,64.5684 C 27.9014,64.8534 29.0904,66.4914 30.3524,65.9694 C 31.3804,65.5444 31.9034,63.5604 32.1984,62.5894 C 32.2294,62.4874 32.2804,62.3964 32.3284,62.3054 C 31.3424,62.6464 30.7984,63.5274 30.0224,64.1264 C 29.6554,64.4094 29.1124,64.5144 28.6614,64.5594 C 28.1524,64.6094 27.8944,64.4214 27.4264,64.3204" transform=""/><path fill="#f89c44" stroke="none" d="M 25.519,64.3275 L 25.519,64.2865 C 26.218,64.5005 26.98,64.5465 27.704,64.7005 C 27.862,64.7335 28.042,64.7745 28.232,64.8125 C 28.742,64.9155 29.327,65.0025 29.765,64.9045 C 30.351,64.7735 30.748,64.1845 31.073,63.6995 C 31.384,63.2355 31.705,62.9085 32.117,62.6045 C 32.386,62.4055 32.699,62.2475 32.904,61.9765 C 32.721,61.6945 32.285,61.7595 31.991,61.8025 C 31.579,61.8645 31.33,61.9085 30.92,61.7815 C 30.459,61.6375 30.057,61.4405 29.608,61.3665 C 28.519,61.1865 27.818,61.8975 27.242,62.7165 C 27.051,62.9875 26.811,63.1835 26.564,63.3665 C 26.314,63.5515 26.058,63.7235 25.84,63.9465 C 25.721,64.0685 25.643,64.2035 25.519,64.3275 Z" transform=""/></svg>