<svg xmlns="http://www.w3.org/2000/svg" version="1.1" width="96" height="72" viewBox="0 0 96 72"><defs/><path fill="#304454" stroke="none" d="M 38.9606,51.5663 C 37.6756,52.4223 36.2736,53.0423 34.7126,53.4743 C 33.9476,53.6853 33.2436,53.8283 32.4486,53.8823 C 31.7696,53.9283 31.1426,53.7913 30.4986,53.8043 C 30.8756,54.4293 31.9356,54.5893 32.7996,54.4663 C 32.7086,54.6623 32.3986,54.7683 32.2356,54.9363 C 32.6436,55.3593 40.1846,56.2823 41.0226,55.8763 C 41.6056,55.5943 42.3326,55.3023 42.6236,54.8013 C 42.4666,55.0933 42.0586,55.3693 41.9826,55.6573 C 42.4946,55.7463 43.4756,55.0103 43.8636,54.7503 C 44.3816,54.4033 44.8666,54.0723 45.2496,53.6373 C 46.5906,52.1153 47.4136,49.9203 47.2126,48.1953 C 47.1186,47.3893 46.6836,46.3573 45.6906,45.9893 C 44.7316,45.6343 39.9386,50.9143 38.9606,51.5663 Z" transform=""/><path fill="#f89c44" stroke="none" d="M 53.5802,62.9028 C 53.9912,63.0478 54.5772,65.3458 54.7852,65.8608 C 54.9382,66.2368 55.0052,66.6118 54.4902,66.6778 C 54.1872,66.7168 53.4232,66.5758 53.4662,67.1108 C 53.5112,67.6818 54.4402,67.5588 54.7802,67.7208 C 55.0242,67.8378 55.6102,67.8898 55.8992,67.9298 C 56.3642,67.9938 57.4712,68.0088 57.4522,67.7208 C 57.8312,67.5818 58.5032,67.6418 58.9242,67.7468 C 59.7662,67.8608 59.3662,67.1848 59.1572,67.0818 C 58.8232,66.9168 58.4732,66.7208 58.1102,66.5928 C 57.6182,66.4188 57.1152,66.3008 56.6332,66.0868 C 55.2852,66.0418 54.7882,62.6518 54.8762,62.4478" transform=""/><path fill="#f89c44" stroke="none" d="M 45.097,62.9028 C 45.093,63.5898 44.763,65.7988 44.597,66.1558 C 44.191,67.0308 42.766,66.6148 42.118,67.1788 C 41.613,67.6188 42.275,67.7428 42.641,67.7068 C 43.039,67.6678 44.097,67.7848 44.347,67.9258 C 44.794,68.1758 45.644,67.7188 45.741,67.6528 C 45.817,67.6008 46.822,67.7868 47.327,67.7928 C 48.052,67.8008 47.355,67.0408 47.026,66.8878 C 45.211,66.2458 45.906,63.8798 46.235,62.7668" transform=""/><path fill="#304454" stroke="none" d="M 61.5251,53.3883 C 61.5831,53.0043 61.4591,52.4923 61.4301,52.1003 C 61.3941,51.6293 61.3921,51.1633 61.2171,50.7173 C 61.0201,44.7063 55.9391,45.7883 58.2061,41.8693 C 58.5191,41.1863 59.1761,39.8963 58.6801,37.2653 C 57.4161,30.5663 51.9621,30.2763 51.6041,30.5143 C 52.2091,30.1113 52.9291,30.1653 53.6171,30.2063 C 54.3111,30.2473 54.9531,30.5633 55.6181,30.6533 C 54.7881,29.9653 53.5811,29.5343 52.4901,29.5253 C 51.8541,29.5193 51.2691,29.5473 50.6491,29.6873 C 50.1871,29.7913 49.7981,30.0193 49.3651,30.1703 C 49.7501,29.0553 51.1341,28.9033 52.1751,28.9123 C 51.6071,28.6663 50.6181,28.9043 50.0601,29.1083 C 49.4911,29.3163 48.7611,29.5963 48.3951,30.0933 C 48.6861,29.5283 48.8691,29.0633 49.4201,28.6743 C 49.7801,28.4203 50.2401,28.1543 50.6961,28.0003 C 49.9061,28.1963 49.1271,28.4123 48.4671,28.9553 C 47.9831,29.3543 47.6541,29.9723 47.4751,30.5723 C 47.4831,30.0743 47.5181,29.6273 47.1971,29.2203 C 46.8161,28.7373 46.4231,28.8463 45.9081,28.9893 C 46.3181,29.0573 46.8351,29.2513 46.9901,29.7303 C 47.1331,30.1723 46.9571,30.9333 46.5891,31.1633 C 38.4731,36.2443 44.9451,44.4263 45.0881,44.5323 C 45.1481,44.5763 45.1001,45.8823 44.8761,46.3003 C 44.5541,47.9813 33.0931,65.6833 50.6861,67.5193 C 56.4791,68.1233 61.2321,63.2783 61.2321,58.0473 C 61.2321,56.8063 60.7871,53.2273 60.5821,52.4513 C 60.6861,52.8573 61.1201,53.1833 61.1221,53.6293 C 61.1351,53.1853 61.0191,52.8033 60.8791,52.4093 C 60.9261,52.4603 60.9771,52.5073 61.0171,52.5513 C 61.2551,52.8143 61.3661,53.0803 61.5251,53.3883 Z" transform=""/><path fill="#304454" stroke="none" d="M 57.1632,49.8114 C 57.4332,50.1974 57.6422,50.6614 57.9702,50.9534 C 58.2442,50.3304 58.2942,50.6674 58.6512,51.1874 C 58.9112,51.5664 59.0982,51.7014 59.4312,51.9074 C 60.3152,52.4524 61.1112,53.5614 61.7382,54.5554 C 62.5612,55.8614 63.1452,57.2784 63.5372,58.8504 C 63.7292,59.6204 63.8542,60.3274 63.8872,61.1234 C 63.9162,61.8044 63.7632,62.4274 63.7602,63.0714 C 64.3942,62.7104 64.5812,61.6544 64.4812,60.7874 C 64.6742,60.8834 64.7722,61.1964 64.9362,61.3624 C 66.1872,57.5694 65.8812,49.6704 58.5772,46.2194 C 57.8432,45.8734 56.7262,46.7014 56.3342,47.6844 C 55.9542,48.6344 56.4762,50.2474 57.3122,50.6234 C 57.3192,50.4044 57.2932,49.9974 57.1632,49.8114 Z" transform=""/><path fill="#efefef" stroke="none" d="M 56.64,38.8185 C 56.609,38.4975 56.53,38.1905 56.414,37.8985 C 56.669,37.0865 56.694,36.1005 56.424,35.0945 C 55.845,32.9305 54.134,31.5075 52.604,31.9175 C 51.45,32.2265 50.729,33.4905 50.692,35.0205 C 50.653,35.0235 50.614,35.0235 50.575,35.0275 C 50.239,35.0605 49.915,35.1195 49.599,35.1945 C 49.097,34.0205 48.188,33.2335 47.147,33.2335 C 45.562,33.2335 44.279,35.0495 44.279,37.2905 C 44.279,38.6725 44.768,39.8925 45.515,40.6245 C 46.156,42.6445 48.628,43.9925 51.429,43.7175 C 54.543,43.4115 56.876,41.2185 56.64,38.8185 Z" transform=""/><ellipse cx="47.242976065342035" cy="37.41297019783385" rx="0.5894858434448864" ry="0.8193571173241124" fill="#304454" stroke="none" transform="rotate(-8.8934 47.24297761020942 37.412970118931746)" r="NaN"/><ellipse cx="54.129713310917474" cy="35.96746029485536" rx="0.5894858434448864" ry="0.8193571173241124" fill="#304454" stroke="none" transform="rotate(-8.8934 54.12971413849298 35.96746057459919)" r="NaN"/><ellipse cx="50.95194430896821" cy="56.57596156353736" rx="10.763052529118118" ry="7.851349726647921" fill="#efefef" stroke="none" transform="rotate(84.3875 50.95194356298466 56.57596087493717)" r="NaN"/><path fill="#f89c44" stroke="none" d="M 52.2254,39.6285 C 51.5714,40.3385 50.6504,40.2785 49.7804,40.1575 L 48.7504,40.0995 C 48.9774,40.0695 49.7014,40.7965 49.9574,40.9815 C 50.3634,41.2765 50.7744,41.5605 51.2594,41.6525 C 51.6714,41.7315 52.2724,41.8795 52.6424,41.6075 C 52.9754,41.3635 53.1924,40.7945 53.3424,40.4225 C 53.6004,39.7875 53.5734,39.0425 53.8994,38.4275 C 53.1844,38.4365 52.6524,39.1655 52.2254,39.6285 Z" transform=""/><path fill="#d14e3f" stroke="none" d="M 49.5154,40.2753 C 50.3254,40.4793 51.1744,41.6483 52.0764,41.2753 C 52.8104,40.9723 53.1844,39.5553 53.3944,38.8623 C 53.4164,38.7893 53.4524,38.7243 53.4874,38.6593 C 52.7834,38.9023 52.3944,39.5323 51.8404,39.9593 C 51.5784,40.1613 51.1904,40.2363 50.8684,40.2683 C 50.5054,40.3043 50.3214,40.1703 49.9864,40.0983" transform=""/><path fill="#f89c44" stroke="none" d="M 48.625,40.1033 L 48.625,40.0733 C 49.124,40.2273 49.668,40.2593 50.185,40.3693 C 50.298,40.3933 50.426,40.4223 50.563,40.4493 C 50.927,40.5233 51.344,40.5853 51.657,40.5153 C 52.075,40.4213 52.359,40.0013 52.591,39.6553 C 52.813,39.3233 53.042,39.0903 53.337,38.8723 C 53.528,38.7303 53.752,38.6183 53.899,38.4243 C 53.768,38.2233 53.457,38.2693 53.247,38.3003 C 52.953,38.3443 52.774,38.3763 52.482,38.2853 C 52.153,38.1823 51.865,38.0423 51.545,37.9893 C 50.768,37.8603 50.267,38.3673 49.855,38.9533 C 49.719,39.1463 49.547,39.2863 49.371,39.4173 C 49.193,39.5493 49.01,39.6713 48.854,39.8313 C 48.769,39.9183 48.713,40.0143 48.625,40.1033 Z" transform=""/></svg>