<svg xmlns="http://www.w3.org/2000/svg" version="1.1" width="106" height="80" viewBox="0 0 106 80"><defs><linearGradient id="r-f2d03199aede497d8d5b2c59d92c5100" x1="0" y1="0" x2="1" y2="2.4492935982947064e-16"><stop offset="0%" stop-color="#fdc075"/><stop offset="100%" stop-color="#de9354"/></linearGradient><linearGradient id="r-0164b25dbde8422088285174dc99bc77" x1="0" y1="0" x2="1" y2="2.4492935982947064e-16"><stop offset="0%" stop-color="#fdc075"/><stop offset="100%" stop-color="#de9354"/></linearGradient></defs><path fill="#fcd0a1" stroke="none" d="M 98.9932,45.5114 S 101.363,42.1604 98.8302,37.9104 C 96.2962,33.6614 90.4942,33.6614 89.0232,33.6614 S 77.9082,32.5174 72.4322,30.8014 C 66.9572,29.0844 57.1502,24.9984 55.5972,24.1814 C 54.0442,23.3634 49.5492,23.2814 49.4672,31.6994 C 49.4672,31.6994 63.9332,40.1984 69.8172,41.4254 C 75.7012,42.6514 85.5082,45.6744 87.7972,45.9194 C 90.0862,46.1654 95.3162,48.0454 98.9932,45.5114 Z" transform=""/><path fill="#e8b986" stroke="none" d="M 96.7053,44.449 S 98.6673,37.748 89.1863,37.339 C 79.7063,36.93 71.1253,34.969 66.7943,33.416 C 62.4623,31.863 55.3513,28.512 53.2273,27.123 C 51.1023,25.734 49.6313,28.676 49.4683,31.7 C 49.4683,31.7 72.1053,41.671 76.1923,42.406 C 81.1403,43.297 94.8253,45.675 96.7053,44.449 Z" transform=""/><path fill="#b35138" stroke="none" d="M 45.1366,30.4741 C 46.9346,28.5121 48.8966,29.0851 49.8766,29.4121 C 50.8576,29.7381 50.7756,30.1471 61.7276,34.4791 C 72.6786,38.8101 89.1866,41.0171 89.1866,41.0171 C 90.8216,41.2621 91.1486,41.1811 95.8876,41.8341 C 100.628,42.4881 101.037,47.6371 97.6856,49.3531 S 83.2206,49.3531 77.7446,48.7811 C 72.2696,48.2091 63.6056,45.5941 57.2316,43.3051 C 50.8576,41.0171 45.4636,35.8691 45.1356,35.5421 C 44.8096,35.2141 43.3386,32.4351 45.1366,30.4741 Z" transform=""/><path fill="#9b3924" stroke="none" d="M 77.7446,48.7805 C 72.2696,48.2085 63.6056,45.5935 57.2316,43.3045 C 50.8576,41.0165 45.4636,35.8685 45.1356,35.5415 C 44.8286,35.2335 43.5086,32.7555 44.8516,30.8285 C 45.9366,31.8675 47.6796,32.8975 49.0656,33.7725 C 51.0216,35.0085 53.9046,35.5225 66.7736,40.3615 C 79.6426,45.2005 93.3356,45.5105 94.3656,45.6135 C 95.3956,45.7155 96.1946,46.2535 95.1896,47.1575 C 94.3476,47.9135 96.0756,49.2555 97.2426,49.1355 C 97.6556,49.0935 98.1216,48.9405 98.5586,48.7575 C 98.3036,48.9835 98.0136,49.1845 97.6856,49.3525 C 94.3356,51.0695 83.2206,49.3525 77.7446,48.7805 Z" transform=""/><path fill="url(#r-f2d03199aede497d8d5b2c59d92c5100)" stroke="none" d="M 55.5974,24.1816 C 57.1504,24.9986 66.6524,28.8656 72.1274,30.5816 C 77.6034,32.2976 87.5514,33.6616 89.0224,33.6616 C 90.3714,33.6616 95.3564,33.6646 98.1304,36.9366 C 93.7484,33.1556 85.4084,36.2446 71.8184,33.0526 C 63.6684,31.1386 61.0084,28.5226 53.6974,25.6406 C 52.5014,25.1686 51.7534,25.1206 51.0584,25.3756 C 52.5424,23.2936 54.6324,23.6736 55.5974,24.1816 Z" opacity="1" fill-opacity="1" style="opacity: 1;fill-opacity: 1" transform=""/><path fill="url(#r-0164b25dbde8422088285174dc99bc77)" stroke="none" d="M 96.197,49.7978 S 95.11,50.5428 91.148,48.1268 C 86.904,45.5378 82.077,45.1848 78.726,44.5308 C 75.375,43.8768 55.843,37.4208 53.718,36.6038 C 51.593,35.7858 45.68,32.6388 44.646,32.2718 C 42.112,31.3728 38.74,31.7078 40.478,36.4408 C 41.949,40.4448 44.728,44.2038 55.189,50.1708 C 65.65,56.1368 82.473,57.5098 90.086,55.0738 C 94.172,53.7658 96.197,51.0228 96.197,49.7978 Z" opacity="1" fill-opacity="1" style="opacity: 1;fill-opacity: 1" transform=""/><path fill="#fcd0a1" stroke="none" d="M 44.6473,32.2762 C 45.6803,32.6432 51.5933,35.7902 53.7193,36.6072 C 55.8433,37.4252 75.3763,43.8812 78.7273,44.5352 C 82.0773,45.1882 86.9053,45.5432 91.1493,48.1312 C 95.1113,50.5482 96.1973,49.8022 96.1973,49.8022 C 96.1973,50.8352 94.7533,52.9422 91.8553,54.3622 C 91.7113,53.4922 91.4803,52.8182 91.3293,52.6172 C 90.8663,52.0002 88.0863,52.0002 86.3873,51.2272 C 84.6883,50.4552 76.9663,49.0652 74.3413,48.6022 C 71.7163,48.1382 68.3193,47.9842 67.0833,47.6752 C 65.8473,47.3662 63.5313,46.2852 62.4503,45.9762 S 61.8323,45.8222 59.5163,45.3582 C 57.2003,44.8962 46.8533,37.9462 44.0733,36.5562 C 42.1513,35.5962 41.4843,33.6752 41.1033,32.1722 C 42.0473,31.7012 43.4413,31.8482 44.6473,32.2762 Z" transform=""/><path fill="#9b3924" stroke="none" d="M 87.2257,44.3924 C 88.2847,44.1354 89.5507,43.8844 91.1227,43.8844 L 91.1227,43.8844 C 91.7587,43.8844 92.4447,43.9254 93.1877,44.0254 L 93.1877,44.0254 L 93.1877,44.0254 C 93.5287,44.0714 93.8407,43.8344 93.8867,43.4964 L 93.8867,43.4964 C 93.9327,43.1584 93.6947,42.8474 93.3547,42.8014 L 93.3547,42.8014 C 92.5557,42.6944 91.8127,42.6494 91.1227,42.6494 L 91.1227,42.6494 C 89.4167,42.6494 88.0327,42.9244 86.9307,43.1934 L 86.9307,43.1934 C 85.8327,43.4654 84.9987,43.7104 84.4987,43.7014 L 84.4987,43.7014 C 84.3497,43.7014 84.2347,43.6844 84.1397,43.6554 L 84.1397,43.6554 C 83.6277,43.5164 82.8257,42.7544 81.8797,41.8914 L 81.8797,41.8914 C 80.9207,41.0374 79.7467,40.0924 78.1907,39.7034 L 78.1907,39.7034 C 77.7097,39.5844 77.2387,39.5354 76.7817,39.5354 L 76.7817,39.5354 C 74.8487,39.5534 73.1757,40.3164 71.5897,40.2994 L 71.5897,40.2994 C 71.0937,40.2984 70.6067,40.2334 70.1017,40.0624 L 70.1017,40.0624 C 68.8227,39.6274 68.0957,38.8954 67.1017,38.0294 L 67.1017,38.0294 C 66.1187,37.1704 64.8777,36.2334 62.7537,35.6924 L 62.7537,35.6924 C 62.1407,35.5354 61.5597,35.4754 61.0117,35.4774 L 61.0117,35.4774 C 59.4227,35.4854 58.1347,35.9334 56.9747,35.9224 L 56.9747,35.9224 C 56.6657,35.9224 56.3637,35.8944 56.0597,35.8264 L 56.0597,35.8264 C 55.6897,35.7374 55.4897,35.5724 55.2307,35.2364 L 55.2307,35.2364 C 54.9797,34.9034 54.7327,34.4094 54.3867,33.8604 L 54.3867,33.8604 C 53.7047,32.7534 52.5117,31.4784 49.9947,30.9834 L 49.9947,30.9834 C 49.6597,30.9144 49.3317,31.1294 49.2617,31.4634 L 49.2617,31.4634 C 49.1927,31.7974 49.4097,32.1244 49.7457,32.1934 L 49.7457,32.1934 C 51.4107,32.5404 52.2407,33.1534 52.8237,33.8194 L 52.8237,33.8194 C 53.4107,34.4904 53.7177,35.2654 54.2317,35.9714 L 54.2317,35.9714 C 54.5717,36.4374 55.0757,36.8774 55.7867,37.0304 L 55.7867,37.0304 C 56.1927,37.1214 56.5907,37.1574 56.9747,37.1574 L 56.9747,37.1574 C 58.4257,37.1464 59.6837,36.7014 61.0117,36.7104 L 61.0117,36.7104 C 61.4707,36.7104 61.9417,36.7594 62.4427,36.8874 L 62.4427,36.8874 C 64.3537,37.3844 65.3377,38.1414 66.2837,38.9584 L 66.2837,38.9584 C 67.2207,39.7694 68.1287,40.6964 69.7017,41.2314 L 69.7017,41.2314 C 70.3477,41.4494 70.9817,41.5324 71.5897,41.5324 L 71.5897,41.5324 C 73.5367,41.5154 75.2137,40.7524 76.7817,40.7694 L 76.7817,40.7694 C 77.1527,40.7694 77.5177,40.8074 77.8887,40.8994 L 77.8887,40.8994 C 79.1137,41.2014 80.1307,41.9854 81.0497,42.8084 L 81.0497,42.8084 C 81.9817,43.6224 82.7447,44.4854 83.7657,44.8314 L 83.7657,44.8314 C 84.0067,44.9064 84.2527,44.9354 84.4987,44.9354 L 84.4987,44.9354 C 85.3237,44.9284 86.1617,44.6464 87.2257,44.3924 L 87.2257,44.3924 Z" transform=""/><path fill="#f6b21a" stroke="none" d="M 87.2359,44.1604 C 88.2889,43.9034 89.5459,43.6524 91.1099,43.6524 L 91.1099,43.6524 C 91.7419,43.6524 92.4239,43.6934 93.1629,43.7934 L 93.1629,43.7934 L 93.1629,43.7934 C 93.5019,43.8394 93.8129,43.6024 93.8579,43.2644 L 93.8579,43.2644 C 93.9039,42.9264 93.6669,42.6154 93.3289,42.5694 L 93.3289,42.5694 C 92.5349,42.4624 91.7959,42.4174 91.1099,42.4174 L 91.1099,42.4174 C 89.4149,42.4174 88.0379,42.6924 86.9429,42.9614 L 86.9429,42.9614 C 85.8509,43.2334 85.0219,43.4784 84.5239,43.4694 L 84.5239,43.4694 C 84.3769,43.4694 84.2619,43.4524 84.1679,43.4234 L 84.1679,43.4234 C 83.6589,43.2844 82.8619,42.5224 81.9209,41.6594 L 81.9209,41.6594 C 80.9679,40.8054 79.8009,39.8604 78.2529,39.4714 L 78.2529,39.4714 C 77.7749,39.3524 77.3069,39.3044 76.8529,39.3044 L 76.8529,39.3044 C 74.9309,39.3224 73.2679,40.0844 71.6899,40.0674 L 71.6899,40.0674 C 71.1979,40.0674 70.7129,40.0024 70.2119,39.8314 L 70.2119,39.8314 C 68.9389,39.3974 68.2169,38.6644 67.2289,37.7994 L 67.2289,37.7994 C 66.2519,36.9404 65.0169,36.0024 62.9059,35.4624 L 62.9059,35.4624 C 62.2969,35.3054 61.7189,35.2454 61.1739,35.2464 L 61.1739,35.2464 C 59.5949,35.2544 58.3139,35.7024 57.1599,35.6924 L 57.1599,35.6924 C 56.8529,35.6924 56.5529,35.6644 56.2509,35.5964 L 56.2509,35.5964 C 55.8829,35.5074 55.6839,35.3424 55.4269,35.0064 L 55.4269,35.0064 C 55.1779,34.6744 54.9309,34.1804 54.5879,33.6304 L 54.5879,33.6304 C 53.9089,32.5234 52.7239,31.2484 50.2209,30.7534 L 50.2209,30.7534 C 49.8879,30.6844 49.5619,30.9004 49.4929,31.2334 L 49.4929,31.2334 C 49.4239,31.5684 49.6389,31.8944 49.9729,31.9634 L 49.9729,31.9634 C 51.6279,32.3104 52.4529,32.9234 53.0329,33.5894 L 53.0329,33.5894 C 53.6169,34.2604 53.9219,35.0354 54.4329,35.7414 L 54.4329,35.7414 C 54.7709,36.2074 55.2729,36.6484 55.9779,36.8004 L 55.9779,36.8004 C 56.3819,36.8914 56.7769,36.9274 57.1589,36.9274 L 57.1589,36.9274 C 58.6029,36.9164 59.8529,36.4714 61.1739,36.4804 L 61.1739,36.4804 C 61.6309,36.4814 62.0979,36.5294 62.5959,36.6584 L 62.5959,36.6584 C 64.4959,37.1544 65.4739,37.9124 66.4149,38.7294 L 66.4149,38.7294 C 67.3469,39.5394 68.2489,40.4674 69.8129,41.0014 L 69.8129,41.0014 C 70.4549,41.2194 71.0849,41.3024 71.6899,41.3024 L 71.6899,41.3024 C 73.6259,41.2854 75.2919,40.5224 76.8519,40.5394 L 76.8519,40.5394 C 77.2209,40.5394 77.5839,40.5774 77.9509,40.6694 L 77.9509,40.6694 C 79.1689,40.9714 80.1809,41.7554 81.0949,42.5784 L 81.0949,42.5784 C 82.0209,43.3924 82.7799,44.2554 83.7949,44.6014 L 83.7949,44.6014 C 84.0349,44.6774 84.2789,44.7054 84.5239,44.7054 L 84.5239,44.7054 C 85.3449,44.6964 86.1779,44.4144 87.2359,44.1604 L 87.2359,44.1604 Z" transform=""/><path fill="#fbd702" stroke="none" d="M 84.5236,43.957 C 85.9146,43.948 87.8776,42.903 91.1096,42.905 L 91.1096,42.905 C 91.7616,42.905 92.4656,42.948 93.2236,43.051 L 93.2236,43.051 C 93.3086,43.062 93.3856,43.003 93.3976,42.918 L 93.3976,42.918 C 93.4086,42.833 93.3506,42.756 93.2656,42.744 L 93.2656,42.744 C 92.4926,42.64 91.7756,42.596 91.1096,42.596 L 91.1096,42.596 C 87.8216,42.598 85.7686,43.657 84.5236,43.649 L 84.5236,43.649 C 84.3396,43.649 84.1766,43.627 84.0266,43.58 L 84.0266,43.58 C 82.6066,43.156 80.9736,40.355 78.1396,39.636 L 78.1396,39.636 C 77.7026,39.527 77.2746,39.483 76.8526,39.483 L 76.8526,39.483 C 75.0666,39.487 73.4016,40.251 71.6886,40.246 L 71.6886,40.246 C 71.1546,40.246 70.6156,40.173 70.0606,39.985 L 70.0606,39.985 C 67.3106,39.066 66.8636,36.689 62.7886,35.626 L 62.7886,35.626 C 62.2216,35.479 61.6846,35.424 61.1726,35.424 L 61.1726,35.424 C 59.6906,35.426 58.4206,35.873 57.1596,35.87 L 57.1596,35.87 C 56.8246,35.87 56.4886,35.839 56.1466,35.763 L 56.1466,35.763 C 55.1716,35.551 54.8546,34.651 54.1946,33.592 L 54.1946,33.592 C 53.5386,32.544 52.5156,31.409 50.1276,30.922 L 50.1276,30.922 C 50.0436,30.905 49.9616,30.959 49.9446,31.042 L 49.9446,31.042 C 49.9276,31.125 49.9816,31.207 50.0646,31.224 L 50.0646,31.224 C 52.3786,31.705 53.2916,32.748 53.9336,33.757 L 53.9336,33.757 C 54.5696,34.756 54.9096,35.792 56.0796,36.064 L 56.0796,36.064 C 56.4466,36.146 56.8056,36.178 57.1596,36.178 L 57.1596,36.178 C 58.4936,36.176 59.7546,35.73 61.1726,35.732 L 61.1726,35.732 C 61.6636,35.732 62.1726,35.785 62.7116,35.924 L 62.7116,35.924 C 66.6576,36.935 67.0406,39.26 69.9616,40.277 L 69.9616,40.277 C 70.5516,40.477 71.1256,40.554 71.6886,40.554 L 71.6886,40.554 C 73.4906,40.55 75.1566,39.787 76.8526,39.791 L 76.8526,39.791 C 77.2526,39.791 77.6556,39.833 78.0636,39.934 L 78.0636,39.934 C 80.7616,40.598 82.3106,43.329 83.9336,43.873 L 83.9336,43.873 C 84.1176,43.931 84.3106,43.956 84.5156,43.956 L 84.5156,43.956 C 84.5186,43.957 84.5206,43.957 84.5236,43.957 L 84.5236,43.957 Z" transform=""/></svg>