<svg xmlns="http://www.w3.org/2000/svg" width="108" height="108" viewBox="0 0 108 108"><path fill="#d1d3d4" d="M80.97 32.463a.69.69 0 0 0-.382.896.694.694 0 0 0 .9.38c.054-.022 5.467-2.17 8.903-.331 1.374.735 2.262 2.044 2.647 3.896l.886 4.53c.993 5.278 1.447 7.686 3.81 8.998a.69.69 0 0 0 .67-1.205c-1.795-.997-2.184-3.062-3.124-8.047l-.89-4.554c-.47-2.272-1.596-3.901-3.35-4.835-4.008-2.142-9.825.172-10.07.272z"/><path fill="#304454" d="M98.232 55.01c-1.041-1.562-1.938-4.245.139-5.615 1.448-.954 3.568-.57 4.732 1.906 1.513 3.212-.228 4.848.897 6.957 0 0-4.081-.716-5.768-3.248zM94.862 39.448l-.473-2.42c-.471-2.274-1.596-3.903-3.35-4.837-.03-.016-.062-.029-.088-.044.16.323.378.605.665.805 1.406.984 2.11 3.095 2.11 4.503 0 .705.425 1.484 1.136 1.993z"/><path fill="#d78334" d="M57.505 98.63l4.431-1.072.403-4.165-2.283-2.014-1.877 1.745z"/><path fill="#d1d3d4" d="M69.307 62.714s-4.82 3.69-2.217 10.251c1.33 3.35-.983 9.34-2.215 9.975-3.878 1.994-5.883 5.81-6.162 8.304 0 0 9.271 6.124 11.818 6.713 3.601.832 4.298-5.907.993-13.08-1.193-2.59.07-5.815 1.827-7.195 3.88-3.047 4.635-9.826 2.417-13.428"/><path fill="#304454" d="M70.509 77.134c-.866.673-.285 2.996.712 4.122.335-1.478 1.155-2.808 2.13-3.574 1.992-1.565 3.157-4.113 3.52-6.712l-1.721-1.857-2.25.283s-2.814 1.406-2.392 3.235c.422 1.828 1.268 3.517 0 4.503z"/><path fill="#f3b37c" d="M56.295 98.093s-.402-9.937 6.85-10.072c5.54-.104 8.85 6.301 9.13 11.011l-11.28.134-1.881-6.178-1.61 5.641-1.21-.536z"/><path fill="#d78334" d="M22.33 98.63l4.43-1.072.402-4.165-2.283-2.014L23 93.124z"/><path fill="#d1d3d4" d="M34.13 62.714s-4.818 3.69-2.215 10.251c1.329 3.35-.985 9.34-2.218 9.975-3.877 1.994-5.884 5.81-6.16 8.304 0 0 9.269 6.124 11.815 6.713 3.6.832 4.299-5.907.995-13.08-1.192-2.59.07-5.815 1.827-7.195 3.879-3.047 4.632-9.826 2.418-13.428"/><path fill="#304454" d="M28.099 90.296s2.322-5.808 4.646-4.936c2.322.87.87 2.903 3.194 2.903 2.322 0 2.904 2.033 2.904 2.033l-5.338 2.457-5.406-2.457z"/><path fill="#f3b37c" d="M21.12 98.093s-.401-9.937 6.849-10.072c5.54-.104 8.852 6.301 9.13 11.011l-11.278.134-1.88-6.178-1.61 5.641-1.21-.536z"/><path fill="#d78334" d="M30.83 100.349l4.643-1.126.422-4.361-2.392-2.11-1.97 1.829z"/><path fill="#efefef" d="M37.97 31.069s10.186 4.259 20.015 4.133c10.975-.142 20.542-10.976 27.888-5.294 6.895 5.332 7.07 41.916-22.356 46.161-28.159 4.064-42.957-18.354-33.813-30.595 8.772-11.743 8.266-14.405 8.266-14.405z"/><path fill="#d1d3d4" d="M89.132 36.896c-3.052-3.767-5.856-3.458-5.856-3.458l2.414 8.317s2.34.728 3.987.543c-.041-1.944-.231-3.768-.545-5.402zM52.497 68.55c-1.687-4.362-3.659-3.94-3.659-3.94L46.65 75.2c1.692.472 3.481.828 5.361 1.06.751-1.955 1.528-5.019.487-7.71z"/><path fill="#efefef" d="M43.197 62.714s-5.05 3.867-2.325 10.743c1.392 3.508-1.029 9.787-2.322 10.45-4.064 2.09-6.166 6.091-6.454 8.702 0 0 9.713 6.42 12.381 7.037 3.775.87 4.503-6.194 1.042-13.707-1.25-2.713.072-6.096 1.911-7.54 4.065-3.193 4.857-10.296 2.536-14.072"/><path fill="#f3b37c" d="M29.563 99.785s-.423-10.41 7.177-10.553c5.805-.107 9.277 6.602 9.568 11.54l-11.821.141-1.97-6.473-1.687 5.908-1.267-.563z"/><path fill="#304454" d="M44.757 67.705c-.802-1.52-2.967-.938-4.442-.313-.398 1.629-.393 3.662.557 6.064.641 1.61.475 3.804-.016 5.769 2.356-.123 2.882-1.52 2.637-2.092-.423-.986-.847-3.098 0-4.223.844-1.124 2.532-2.813 1.264-5.205z"/><path fill="#d78334" d="M66.007 100.349l4.642-1.126.424-4.361-2.393-2.11-1.97 1.829z"/><path fill="#efefef" d="M84.44 33.373s6.19 4.081 7.315 12.383c1.125 8.3-6.614 18.572-6.614 18.572 2.323 3.776 1.532 10.88-2.532 14.072-1.84 1.445-3.162 4.827-1.914 7.54 3.461 7.513 2.732 14.577-1.043 13.707-2.668-.618-12.38-7.036-12.38-7.036.29-2.613 2.391-6.614 6.454-8.704 1.291-.663 3.714-6.942 2.321-10.449-2.727-6.876 2.324-10.743 2.324-10.743s-9.833-4.294-8.99-13.3c.845-9.008 9.428-18.012 15.058-16.042z"/><path fill="#f3b37c" d="M64.74 99.785s-.424-10.41 7.176-10.553c5.805-.107 9.279 6.602 9.57 11.54l-11.82.141-1.97-6.473-1.688 5.908-1.267-.563z"/><path fill="#304454" d="M79.934 67.705c-.802-1.52-2.968-.938-4.443-.313-.397 1.629-.394 3.662.557 6.064.64 1.61.475 3.804-.017 5.769 2.355-.123 2.883-1.52 2.64-2.092-.424-.986-.847-3.098 0-4.223.842-1.124 2.53-2.813 1.263-5.205zM53.63 38.587c.408-1.46 3.098-4.22 4.786-2.392 2.235 2.422-.14 3.66.562 4.925.703 1.266 2.532.281 3.237 1.689.703 1.407-1.688 3.799-4.502 2.391-2.815-1.407-4.784-4.08-4.082-6.613zM91.861 47.17c-.603-1.285-1.445-2.425-2.498-2.258-2.67.422-2.953 3.096-1.688 5.206 1.267 2.11-.143 3.517-1.406 3.517-1.268 0-4.308-.54-5.068 1.267-1.124 2.672 2.674 5.346 5.49 2.954 1.101-.937 2.14-1.42 3.062-1.602 1.215-2.813 2.173-6.032 2.108-9.084zM77.164 86.23c-.579 2.323 2.86 1.728 3.848 3.374.625 1.042 1.07 3.045 1.835 3.841-.222-2.223-.923-4.834-2.15-7.506a5.111 5.111 0 0 1-.27-.745c-1.477-.19-2.982-.087-3.263 1.036z"/><path fill="#304454" d="M75.262 29.567c-5.2 1.988-11.01 5.556-17.275 5.635-.776.01-1.555-.01-2.33-.048l.069.113c-2.498-.256-6.305 2.635-6.463 4.963-.272 4.129 2.227 6.5-.683 8.728-2.91 2.224 1.883 7.356 3.596 5.303.495-.595 1.3-.784 2.18-.864-.465 2.422 3.042 5.632 4.458 3.934 1.126-1.352 3.819-.645 5.475-1.198 2.565-.854 2.565-2.908 3.594-5.475 1.027-2.567 3.592-1.368 4.618-2.908 1.027-1.54-1.197-3.936-3.421-3.594-1.948.298-2.06-2.942-4.696-4.901 3.774-1.98 5.364-5.713 8.659-5.458 2.712.206 3.489-2.368 2.219-4.23z"/><ellipse cx="35.439" cy="39.262" rx="11.452" ry="12.039" fill="#d1d3d4"/><ellipse cx="34.849" cy="51.301" rx="11.452" ry="12.039" fill="#d1d3d4" transform="rotate(7.938 34.849 51.301)"/><path fill="#304454" d="M28.332 60.218c1.22 3.002 3.265 5.904 6.05 8.409 2.024-.202 2.772-3.181 1.655-4.298-1.268-1.266-2.532-.422-3.518-1.687-.984-1.268.423-3.518-1.55-4.221-1.061-.38-1.996.709-2.637 1.797zM38.935 26.472s.36-10.956 7.913-11.226c7.555-.266 13.307 6.683 9.713 10.69-3.598 4.008-15.105 3.74-15.105 3.74l-2.52-3.204zM19.28 20.31S9.914 12.2 5.886 16.201c-4.027 4.005-1.103 12.48 4.07 13.514 5.17 1.037 10.742-5.573 10.742-5.573L19.28 20.31z"/><ellipse cx="28.303" cy="33.049" rx="17.185" ry="19.054" fill="#efefef"/><path fill="#304454" d="M41.172 20.43c-3.148-3.946-7.743-6.436-12.868-6.436a15.45 15.45 0 0 0-3.103.318c-.906 1.315-1.503 2.898-1.28 3.997.558 2.684 2.605 2.597 4.68 1.532 2.074-1.07 5.128-.885 6.978 1.523 1.04 1.346 5.615 1.879 5.593-.934z"/><path fill="#f4dbc5" d="M35.137 19.125c-.944-.632-1.454-1.097-1.643-2.232 0 0 1.862-2.264 1.883-4.24.03-2.41-1.439-4.688-.81-5.351.601-.64 3.964-.048 5.011 4.57.843 3.732-1.595 7.875-1.595 7.875s-1.56.236-2.846-.622zM21.759 19.125c.944-.632 1.455-1.097 1.64-2.232 0 0-1.858-2.264-1.883-4.24-.026-2.41 1.442-4.688.816-5.351-.601-.64-3.97-.048-5.013 4.57-.843 3.732 1.594 7.875 1.594 7.875s1.56.236 2.846-.622z"/><ellipse cx="20.27" cy="39.415" rx="1.333" ry="1.853" fill="#304454" transform="rotate(1.559 20.27 39.415)"/><ellipse cx="36.182" cy="39.027" rx="1.333" ry="1.853" fill="#304454" transform="rotate(1.559 36.182 39.027)"/><path fill="#f4dbc5" d="M42.5 51.917c0 5.881-6.275 10.647-14.014 10.647-7.735 0-14.007-4.766-14.007-10.647s6.272-10.65 14.007-10.65c7.741.001 14.014 4.77 14.014 10.65z"/><ellipse cx="16.23" cy="50.069" rx="3.289" ry="2.499" fill="#f4dbc5" transform="rotate(24.81 16.23 50.069)"/><ellipse cx="17.202" cy="51.368" rx="2.792" ry="2.122" fill="#c75e72" opacity=".7" transform="rotate(40.519 17.202 51.368)"/><ellipse cx="40.754" cy="49.553" rx="3.289" ry="2.499" fill="#f4dbc5" transform="rotate(-14.732 40.754 49.553)"/><ellipse cx="39.922" cy="50.421" rx="2.792" ry="2.122" fill="#c75e72" opacity=".7" transform="rotate(-35.073 39.922 50.421)"/><path fill="#304454" d="M75.647 72.11c-.866-2.259-2.548-3.822-3.58-2.256-.559.846-1.382 1.07-2.269 1.125.725-3.56-2.426-8.584-4.02-6.166-1.27 1.924-3.879.68-5.589 1.38-2.652 1.082-2.875 4.131-4.178 7.87-.575 1.651-1.373 2.187-2.185 2.463 3.153.274 6.542.195 10.158-.327 4.574-.66 8.432-2.104 11.663-4.089z"/></svg>
