<svg xmlns="http://www.w3.org/2000/svg" version="1.1" width="88" height="80.00000000000001" viewBox="0 0 88 80.00000000000001"><defs/><path fill="#304454" stroke="none" d="M 30.4408,49.3494 C 28.5138,50.6344 26.4098,51.5624 24.0688,52.2104 C 22.9218,52.5284 21.8658,52.7424 20.6738,52.8224 C 19.6538,52.8924 18.7128,52.6864 17.7468,52.7064 C 18.3138,53.6434 19.9038,53.8834 21.1998,53.7004 C 21.0638,53.9944 20.5968,54.1524 20.3538,54.4044 C 20.9658,55.0384 32.2768,56.4244 33.5338,55.8144 C 34.4078,55.3914 35.4998,54.9534 35.9348,54.2014 C 35.6998,54.6404 35.0878,55.0544 34.9738,55.4864 C 35.7408,55.6194 37.2138,54.5154 37.7958,54.1254 C 38.5728,53.6044 39.2998,53.1084 39.8748,52.4564 C 41.8868,50.1724 43.1198,46.8804 42.8188,44.2934 C 42.6778,43.0844 42.0258,41.5354 40.5358,40.9844 C 39.0978,40.4514 31.9078,48.3724 30.4408,49.3494 Z" transform=""/><path fill="#f89c44" stroke="none" d="M 52.3703,66.3542 C 52.9873,66.5722 53.8653,70.0182 54.1783,70.7912 C 54.4073,71.3552 54.5073,71.9172 53.7343,72.0172 C 53.2803,72.0752 52.1353,71.8632 52.1993,72.6662 C 52.2673,73.5232 53.6603,73.3382 54.1693,73.5822 C 54.5363,73.7572 55.4153,73.8352 55.8493,73.8952 C 56.5463,73.9912 58.2073,74.0132 58.1783,73.5822 C 58.7463,73.3722 59.7553,73.4622 60.3873,73.6202 C 61.6493,73.7922 61.0493,72.7782 60.7353,72.6222 C 60.2343,72.3752 59.7093,72.0802 59.1653,71.8892 C 58.4283,71.6282 57.6733,71.4512 56.9503,71.1312 C 54.9273,71.0622 54.1813,65.9772 54.3133,65.6722" transform=""/><path fill="#f89c44" stroke="none" d="M 39.6456,66.3542 C 39.6396,67.3842 39.1446,70.6982 38.8956,71.2342 C 38.2866,72.5462 36.1496,71.9222 35.1776,72.7692 C 34.4196,73.4282 35.4126,73.6142 35.9616,73.5602 C 36.5586,73.5012 38.1446,73.6772 38.5206,73.8882 C 39.1916,74.2642 40.4666,73.5772 40.6116,73.4792 C 40.7256,73.4022 42.2326,73.6802 42.9896,73.6892 C 44.0786,73.7012 43.0326,72.5612 42.5386,72.3312 C 39.8166,71.3692 40.8596,67.8192 41.3526,66.1502" transform=""/><path fill="#304454" stroke="none" d="M 64.2876,52.0825 C 64.3746,51.5065 64.1886,50.7395 64.1446,50.1505 C 64.0916,49.4445 64.0886,48.7445 63.8256,48.0765 C 63.5306,39.0585 55.9086,40.6825 59.3086,34.8045 C 59.7786,33.7795 60.7646,31.8445 60.0206,27.8975 C 58.1246,17.8495 49.9426,17.4145 49.4066,17.7715 C 50.3136,17.1675 51.3936,17.2485 52.4256,17.3095 C 53.4666,17.3715 54.4296,17.8445 55.4266,17.9795 C 54.1816,16.9475 52.3716,16.3015 50.7346,16.2875 C 49.7816,16.2785 48.9036,16.3205 47.9726,16.5305 C 47.2796,16.6875 46.6976,17.0295 46.0476,17.2545 C 46.6256,15.5835 48.7006,15.3555 50.2616,15.3675 C 49.4106,14.9995 47.9266,15.3565 47.0896,15.6625 C 46.2366,15.9745 45.1416,16.3945 44.5916,17.1395 C 45.0286,16.2925 45.3046,15.5945 46.1306,15.0115 C 46.6696,14.6315 47.3596,14.2325 48.0436,14.0005 C 46.8586,14.2945 45.6906,14.6195 44.7016,15.4325 C 43.9746,16.0305 43.4806,16.9585 43.2116,17.8595 C 43.2246,17.1115 43.2776,16.4415 42.7956,15.8305 C 42.2236,15.1065 41.6346,15.2695 40.8626,15.4835 C 41.4776,15.5855 42.2526,15.8775 42.4856,16.5955 C 42.7006,17.2585 42.4356,18.4005 41.8846,18.7445 C 29.7086,26.3655 39.4166,38.6395 39.6326,38.7985 C 39.7226,38.8645 39.6506,40.8235 39.3146,41.4505 C 38.8316,43.9725 21.6396,70.5255 48.0286,73.2785 C 56.7186,74.1855 63.8486,66.9175 63.8486,59.0715 C 63.8486,57.2095 63.1806,51.8405 62.8726,50.6765 C 63.0296,51.2865 63.6796,51.7755 63.6836,52.4435 C 63.7026,51.7785 63.5286,51.2045 63.3176,50.6145 C 63.3886,50.6895 63.4666,50.7615 63.5256,50.8275 C 63.8826,51.2225 64.0496,51.6205 64.2876,52.0825 Z" transform=""/><path fill="#304454" stroke="none" d="M 57.7448,46.7172 C 58.1498,47.2962 58.4628,47.9932 58.9548,48.4302 C 59.3658,47.4952 59.4418,48.0012 59.9768,48.7812 C 60.3668,49.3502 60.6468,49.5522 61.1468,49.8602 C 62.4738,50.6792 63.6668,52.3422 64.6068,53.8322 C 65.8428,55.7922 66.7178,57.9182 67.3058,60.2752 C 67.5938,61.4302 67.7808,62.4912 67.8308,63.6852 C 67.8738,64.7062 67.6458,65.6412 67.6408,66.6072 C 68.5918,66.0652 68.8718,64.4812 68.7218,63.1812 C 69.0118,63.3252 69.1588,63.7942 69.4038,64.0442 C 71.2808,58.3542 70.8218,46.5052 59.8658,41.3292 C 58.7648,40.8092 57.0898,42.0522 56.5008,43.5272 C 55.9318,44.9522 56.7148,47.3712 57.9688,47.9352 C 57.9788,47.6072 57.9398,46.9962 57.7448,46.7172 Z" transform=""/><path fill="#efefef" stroke="none" d="M 56.9599,30.2278 C 56.9129,29.7468 56.7939,29.2868 56.6219,28.8478 C 57.0029,27.6298 57.0399,26.1508 56.6359,24.6428 C 55.7669,21.3958 53.2009,19.2618 50.9059,19.8768 C 49.1749,20.3398 48.0929,22.2348 48.0389,24.5308 C 47.9799,24.5358 47.9219,24.5358 47.8619,24.5418 C 47.3579,24.5908 46.8719,24.6798 46.3989,24.7918 C 45.6449,23.0308 44.2819,21.8498 42.7199,21.8498 C 40.3439,21.8498 38.4179,24.5748 38.4179,27.9358 C 38.4179,30.0088 39.1519,31.8388 40.2719,32.9368 C 41.2339,35.9668 44.9419,37.9888 49.1439,37.5758 C 53.8139,37.1178 57.3129,33.8278 56.9599,30.2278 Z" transform=""/><ellipse cx="42.86446409801306" cy="28.119455296750772" rx="0.8842287651673295" ry="1.2290356759861687" fill="#304454" stroke="none" transform="rotate(-8.8934 42.864466415314126 28.119455178397615)" r="NaN"/><ellipse cx="53.19456996637622" cy="25.95119044228303" rx="0.8842287651673295" ry="1.2290356759861687" fill="#304454" stroke="none" transform="rotate(-8.8934 53.19457120773947 25.95119086189878)" r="NaN"/><ellipse cx="48.42791646345232" cy="56.86394234530604" rx="16.144578793677177" ry="11.777024589971882" fill="#efefef" stroke="none" transform="rotate(84.3875 48.42791534447699 56.86394131240575)" r="NaN"/><path fill="#f89c44" stroke="none" d="M 50.3381,31.4427 C 49.3561,32.5077 47.9761,32.4177 46.6711,32.2367 L 45.1251,32.1487 C 45.4661,32.1037 46.5521,33.1947 46.9361,33.4727 C 47.5441,33.9137 48.1611,34.3397 48.8901,34.4787 C 49.5071,34.5967 50.4081,34.8187 50.9641,34.4117 C 51.4631,34.0457 51.7881,33.1917 52.0141,32.6347 C 52.4001,31.6817 52.3601,30.5637 52.8491,29.6407 C 51.7771,29.6557 50.9781,30.7477 50.3381,31.4427 Z" transform=""/><path fill="#d14e3f" stroke="none" d="M 46.273,32.413 C 47.489,32.718 48.762,34.473 50.115,33.914 C 51.215,33.459 51.776,31.333 52.092,30.293 C 52.125,30.183 52.179,30.087 52.231,29.989 C 51.175,30.354 50.592,31.298 49.761,31.939 C 49.367,32.242 48.786,32.355 48.302,32.403 C 47.757,32.457 47.482,32.255 46.98,32.148" transform=""/><path fill="#f89c44" stroke="none" d="M 44.9375,32.1549 L 44.9375,32.1109 C 45.6865,32.3399 46.5025,32.3889 47.2775,32.5539 C 47.4475,32.5899 47.6395,32.6339 47.8445,32.6749 C 48.3895,32.7849 49.0165,32.8779 49.4855,32.7729 C 50.1135,32.6319 50.5395,32.0019 50.8865,31.4819 C 51.2195,30.9849 51.5635,30.6349 52.0045,30.3089 C 52.2925,30.0959 52.6285,29.9279 52.8485,29.6359 C 52.6525,29.3339 52.1845,29.4039 51.8705,29.4509 C 51.4285,29.5169 51.1615,29.5639 50.7225,29.4279 C 50.2285,29.2739 49.7975,29.0629 49.3175,28.9829 C 48.1515,28.7899 47.3995,29.5519 46.7825,30.4299 C 46.5795,30.7189 46.3205,30.9289 46.0565,31.1259 C 45.7895,31.3239 45.5145,31.5079 45.2815,31.7469 C 45.1535,31.8779 45.0705,32.0219 44.9375,32.1549 Z" transform=""/></svg>