<svg xmlns="http://www.w3.org/2000/svg" version="1.1" width="109.99999999999999" height="95" viewBox="0 0 109.99999999999999 95"><defs><linearGradient id="r-56fd15393c8f456ebb13a8c71df9ffcd" x1="0" y1="0" x2="1" y2="2.4492935982947064e-16"><stop offset="0%" stop-color="#fdc075"/><stop offset="100%" stop-color="#de9354"/></linearGradient><linearGradient id="r-fc62ccedc7c249b28a6d6ef4fdd5edfa" x1="0" y1="0" x2="1" y2="2.4492935982947064e-16"><stop offset="0%" stop-color="#fdc075"/><stop offset="100%" stop-color="#de9354"/></linearGradient></defs><path fill="#fcd0a1" stroke="none" d="M 98.7415,54.3893 S 101.704,50.2003 98.5375,44.8883 C 95.3705,39.5763 88.1175,39.5763 86.2785,39.5763 S 72.3855,38.1463 65.5395,36.0013 C 58.6965,33.8563 46.4375,28.7483 44.4955,27.7263 C 42.5545,26.7043 36.9365,26.6023 36.8345,37.1243 C 36.8345,37.1243 54.9165,47.7483 62.2715,49.2813 C 69.6265,50.8143 81.8855,54.5933 84.7455,54.8993 C 87.6075,55.2073 94.1455,57.5563 98.7415,54.3893 Z" transform=""/><path fill="#e8b986" stroke="none" d="M 95.8816,53.0613 S 98.3336,44.6843 86.4836,44.1743 C 74.6326,43.6633 63.9066,41.2113 58.4926,39.2703 C 53.0776,37.3293 44.1896,33.1403 41.5336,31.4043 C 38.8776,29.6673 37.0386,33.3453 36.8346,37.1253 C 36.8346,37.1253 65.1326,49.5883 70.2406,50.5073 C 76.4256,51.6213 93.5316,54.5943 95.8816,53.0613 Z" transform=""/><path fill="#b35138" stroke="none" d="M 31.4207,35.5927 C 33.6677,33.1407 36.1207,33.8557 37.3457,34.2647 C 38.5717,34.6737 38.4697,35.1837 52.1597,40.5987 C 65.8477,46.0127 86.4837,48.7707 86.4837,48.7707 C 88.5267,49.0777 88.9357,48.9757 94.8597,49.7927 C 100.785,50.6097 101.296,57.0457 97.1077,59.1917 C 92.9187,61.3367 79.0257,59.1917 72.1807,58.4767 C 65.3367,57.7617 54.5077,54.4927 46.5397,51.6317 S 31.8297,42.3357 31.4197,41.9277 C 31.0117,41.5177 29.1737,38.0437 31.4207,35.5927 Z" transform=""/><path fill="#9b3924" stroke="none" d="M 72.1808,58.4756 C 65.3368,57.7606 54.5078,54.4916 46.5398,51.6306 C 38.5718,48.7706 31.8288,42.3346 31.4198,41.9266 C 31.0348,41.5416 29.3858,38.4436 31.0648,36.0366 C 32.4208,37.3346 34.5998,38.6226 36.3318,39.7156 C 38.7768,41.2606 42.3808,41.9036 58.4668,47.9526 C 74.5538,54.0016 91.6698,54.3876 92.9568,54.5166 C 94.2438,54.6446 95.2428,55.3176 93.9868,56.4466 C 92.9338,57.3926 95.0948,59.0696 96.5528,58.9196 C 97.0688,58.8666 97.6518,58.6756 98.1978,58.4466 C 97.8788,58.7286 97.5168,58.9806 97.1078,59.1906 C 92.9198,61.3366 79.0258,59.1916 72.1808,58.4756 Z" transform=""/><path fill="url(#r-56fd15393c8f456ebb13a8c71df9ffcd)" stroke="none" d="M 44.4968,27.7271 C 46.4378,28.7481 58.3158,33.5811 65.1598,35.7271 C 72.0038,37.8721 84.4398,39.5771 86.2788,39.5771 C 87.9638,39.5771 94.1958,39.5811 97.6628,43.6711 C 92.1848,38.9451 81.7608,42.8061 64.7728,38.8161 C 54.5848,36.4231 51.2608,33.1531 42.1218,29.5511 C 40.6268,28.9601 39.6918,28.9011 38.8228,29.2201 C 40.6778,26.6171 43.2908,27.0921 44.4968,27.7271 Z" opacity="1" fill-opacity="1" style="opacity: 1;fill-opacity: 1" transform=""/><path fill="url(#r-fc62ccedc7c249b28a6d6ef4fdd5edfa)" stroke="none" d="M 95.2462,59.7473 S 93.8872,60.6783 88.9352,57.6583 C 83.6292,54.4223 77.5962,53.9803 73.4072,53.1633 S 44.8042,44.2763 42.1472,43.2543 C 39.4912,42.2323 32.0992,38.2983 30.8072,37.8403 C 27.6402,36.7163 23.4242,37.1343 25.5982,43.0503 C 27.4372,48.0563 30.9102,52.7553 43.9862,60.2133 C 57.0622,67.6713 78.0912,69.3883 87.6072,66.3433 C 92.7152,64.7073 95.2462,61.2793 95.2462,59.7473 Z" opacity="1" fill-opacity="1" style="opacity: 1;fill-opacity: 1" transform=""/><path fill="#fcd0a1" stroke="none" d="M 30.8092,37.8452 C 32.1002,38.3042 39.4922,42.2382 42.1492,43.2592 C 44.8052,44.2812 69.2202,52.3512 73.4092,53.1692 C 77.5972,53.9862 83.6312,54.4282 88.9362,57.6632 C 93.8892,60.6842 95.2472,59.7522 95.2472,59.7522 C 95.2472,61.0442 93.4412,63.6772 89.8192,65.4532 C 89.6392,64.3652 89.3502,63.5232 89.1612,63.2712 C 88.5822,62.4992 85.1072,62.4992 82.9842,61.5342 C 80.8602,60.5682 71.2082,58.8312 67.9272,58.2522 C 64.6452,57.6732 60.3982,57.4802 58.8542,57.0942 C 57.3092,56.7082 54.4132,55.3562 53.0622,54.9702 S 52.2912,54.7772 49.3952,54.1982 C 46.5002,53.6202 33.5662,44.9332 30.0922,43.1952 C 27.6892,41.9942 26.8562,39.5932 26.3792,37.7152 C 27.5592,37.1262 29.3022,37.3102 30.8092,37.8452 Z" transform=""/><path fill="#9b3924" stroke="none" d="M 84.0321,52.9905 C 85.3561,52.6685 86.9381,52.3555 88.9031,52.3555 L 88.9031,52.3555 C 89.6981,52.3555 90.5561,52.4075 91.4851,52.5315 L 91.4851,52.5315 L 91.4841,52.5315 C 91.9101,52.5895 92.3011,52.2925 92.3581,51.8705 L 92.3581,51.8705 C 92.4161,51.4475 92.1191,51.0585 91.6931,51.0015 L 91.6931,51.0015 C 90.6951,50.8675 89.7661,50.8115 88.9031,50.8115 L 88.9031,50.8115 C 86.7711,50.8115 85.0411,51.1555 83.6631,51.4915 L 83.6631,51.4915 C 82.2911,51.8315 81.2481,52.1375 80.6231,52.1275 L 80.6231,52.1275 C 80.4371,52.1275 80.2931,52.1065 80.1741,52.0695 L 80.1741,52.0695 C 79.5351,51.8955 78.5321,50.9435 77.3491,49.8635 L 77.3491,49.8635 C 76.1511,48.7965 74.6831,47.6155 72.7381,47.1295 L 72.7381,47.1295 C 72.1371,46.9795 71.5491,46.9195 70.9771,46.9195 L 70.9771,46.9195 C 68.5611,46.9415 66.4701,47.8955 64.4871,47.8735 L 64.4871,47.8735 C 63.8661,47.8725 63.2581,47.7915 62.6271,47.5775 L 62.6271,47.5775 C 61.0281,47.0345 60.1201,46.1195 58.8771,45.0375 L 58.8771,45.0375 C 57.6481,43.9635 56.0961,42.7915 53.4421,42.1155 L 53.4421,42.1155 C 52.6751,41.9185 51.9501,41.8445 51.2651,41.8465 L 51.2651,41.8465 C 49.2781,41.8565 47.6681,42.4165 46.2181,42.4035 L 46.2181,42.4035 C 45.8321,42.4035 45.4551,42.3685 45.0741,42.2825 L 45.0741,42.2825 C 44.6121,42.1715 44.3621,41.9655 44.0391,41.5465 L 44.0391,41.5465 C 43.7251,41.1295 43.4151,40.5125 42.9841,39.8255 L 42.9841,39.8255 C 42.1311,38.4415 40.6391,36.8485 37.4931,36.2285 L 37.4931,36.2285 C 37.0751,36.1425 36.6641,36.4125 36.5771,36.8295 L 36.5771,36.8295 C 36.4911,37.2475 36.7621,37.6555 37.1821,37.7415 L 37.1821,37.7415 C 39.2631,38.1755 40.3001,38.9425 41.0301,39.7745 L 41.0301,39.7745 C 41.7631,40.6125 42.1471,41.5815 42.7901,42.4635 L 42.7901,42.4635 C 43.2151,43.0465 43.8451,43.5975 44.7331,43.7885 L 44.7331,43.7885 C 45.2411,43.9015 45.7381,43.9465 46.2181,43.9465 L 46.2181,43.9465 C 48.0321,43.9325 49.6041,43.3775 51.2651,43.3875 L 51.2651,43.3875 C 51.8391,43.3885 52.4271,43.4485 53.0531,43.6095 L 53.0531,43.6095 C 55.4421,44.2305 56.6721,45.1765 57.8551,46.1975 L 57.8551,46.1975 C 59.0261,47.2115 60.1611,48.3715 62.1271,49.0385 L 62.1271,49.0385 C 62.9351,49.3115 63.7271,49.4155 64.4871,49.4155 L 64.4871,49.4155 C 66.9211,49.3945 69.0161,48.4405 70.9771,48.4615 L 70.9771,48.4615 C 71.4411,48.4615 71.8981,48.5095 72.3611,48.6245 L 72.3611,48.6245 C 73.8921,49.0025 75.1631,49.9825 76.3121,51.0105 L 76.3121,51.0105 C 77.4761,52.0275 78.4311,53.1065 79.7071,53.5385 L 79.7071,53.5385 C 80.0091,53.6335 80.3161,53.6695 80.6231,53.6695 L 80.6231,53.6695 C 81.6541,53.6605 82.7021,53.3075 84.0321,52.9905 L 84.0321,52.9905 Z" transform=""/><path fill="#f6b21a" stroke="none" d="M 84.0449,52.7005 C 85.3609,52.3785 86.9329,52.0655 88.8879,52.0655 L 88.8879,52.0655 C 89.6779,52.0655 90.5309,52.1175 91.4539,52.2415 L 91.4539,52.2415 L 91.4529,52.2415 C 91.8769,52.2995 92.2659,52.0025 92.3229,51.5805 L 92.3229,51.5805 C 92.3799,51.1575 92.0839,50.7685 91.6609,50.7115 L 91.6609,50.7115 C 90.6689,50.5785 89.7449,50.5215 88.8879,50.5215 L 88.8879,50.5215 C 86.7679,50.5215 85.0469,50.8655 83.6779,51.2015 L 83.6779,51.2015 C 82.3139,51.5415 81.2769,51.8475 80.6559,51.8375 L 80.6559,51.8375 C 80.4709,51.8375 80.3269,51.8165 80.2099,51.7795 L 80.2099,51.7795 C 79.5729,51.6055 78.5779,50.6535 77.4019,49.5735 L 77.4019,49.5735 C 76.2099,48.5065 74.7509,47.3255 72.8159,46.8395 L 72.8159,46.8395 C 72.2189,46.6895 71.6339,46.6305 71.0659,46.6305 L 71.0659,46.6305 C 68.6639,46.6525 66.5849,47.6065 64.6129,47.5845 L 64.6129,47.5845 C 63.9969,47.5835 63.3919,47.5025 62.7649,47.2895 L 62.7649,47.2895 C 61.1739,46.7465 60.2709,45.8315 59.0359,44.7485 L 59.0359,44.7485 C 57.8139,43.6745 56.2709,42.5035 53.6329,41.8285 L 53.6329,41.8285 C 52.8709,41.6315 52.1489,41.5575 51.4679,41.5575 L 51.4679,41.5575 C 49.4929,41.5685 47.8919,42.1285 46.4499,42.1145 L 46.4499,42.1145 C 46.0659,42.1145 45.6919,42.0795 45.3129,41.9955 L 45.3129,41.9955 C 44.8529,41.8835 44.6049,41.6775 44.2839,41.2585 L 44.2839,41.2585 C 43.9719,40.8425 43.6639,40.2245 43.2349,39.5385 L 43.2349,39.5385 C 42.3869,38.1535 40.9039,36.5605 37.7769,35.9415 L 37.7769,35.9415 C 37.3599,35.8555 36.9519,36.1245 36.8659,36.5415 L 36.8659,36.5415 C 36.7799,36.9595 37.0489,37.3675 37.4659,37.4535 L 37.4659,37.4535 C 39.5359,37.8875 40.5659,38.6545 41.2919,39.4875 L 41.2919,39.4875 C 42.0209,40.3255 42.4019,41.2945 43.0419,42.1765 L 43.0419,42.1765 C 43.4639,42.7585 44.0909,43.3095 44.9729,43.5005 L 44.9729,43.5005 C 45.4779,43.6145 45.9719,43.6585 46.4489,43.6585 L 46.4489,43.6585 C 48.2529,43.6455 49.8169,43.0895 51.4669,43.1005 L 51.4669,43.1005 C 52.0379,43.1015 52.6229,43.1615 53.2449,43.3225 L 53.2449,43.3225 C 55.6199,43.9435 56.8429,44.8905 58.0189,45.9115 L 58.0189,45.9115 C 59.1829,46.9245 60.3119,48.0845 62.2659,48.7515 L 62.2659,48.7515 C 63.0689,49.0245 63.8559,49.1285 64.6119,49.1285 L 64.6119,49.1285 C 67.0329,49.1075 69.1159,48.1525 71.0649,48.1745 L 71.0649,48.1745 C 71.5269,48.1745 71.9799,48.2215 72.4389,48.3365 L 72.4389,48.3365 C 73.9619,48.7135 75.2259,49.6945 76.3689,50.7225 L 76.3689,50.7225 C 77.5259,51.7405 78.4749,52.8195 79.7439,53.2515 L 79.7439,53.2515 C 80.0439,53.3465 80.3489,53.3815 80.6549,53.3815 L 80.6549,53.3815 C 81.6809,53.3705 82.7229,53.0175 84.0449,52.7005 L 84.0449,52.7005 Z" transform=""/><path fill="#fbd702" stroke="none" d="M 80.6545,52.4463 C 82.3925,52.4353 84.8475,51.1293 88.8865,51.1313 L 88.8865,51.1313 C 89.7025,51.1313 90.5815,51.1853 91.5305,51.3133 L 91.5305,51.3133 C 91.6355,51.3273 91.7325,51.2543 91.7475,51.1483 L 91.7475,51.1483 C 91.7615,51.0413 91.6875,50.9453 91.5825,50.9303 L 91.5825,50.9303 C 90.6155,50.8003 89.7195,50.7453 88.8865,50.7453 L 88.8865,50.7453 C 84.7775,50.7473 82.2115,52.0723 80.6545,52.0603 L 80.6545,52.0603 C 80.4245,52.0603 80.2205,52.0333 80.0335,51.9743 L 80.0335,51.9743 C 78.2585,51.4453 76.2175,47.9433 72.6745,47.0443 L 72.6745,47.0443 C 72.1285,46.9083 71.5935,46.8533 71.0655,46.8533 L 71.0655,46.8533 C 68.8335,46.8593 66.7515,47.8133 64.6115,47.8083 L 64.6115,47.8083 C 63.9435,47.8083 63.2695,47.7173 62.5765,47.4813 L 62.5765,47.4813 C 59.1385,46.3323 58.5795,43.3623 53.4855,42.0323 L 53.4855,42.0323 C 52.7765,41.8493 52.1055,41.7803 51.4655,41.7803 L 51.4655,41.7803 C 49.6135,41.7833 48.0265,42.3413 46.4495,42.3373 L 46.4495,42.3373 C 46.0305,42.3373 45.6105,42.2993 45.1835,42.2033 L 45.1835,42.2033 C 43.9645,41.9383 43.5685,40.8133 42.7435,39.4903 L 42.7435,39.4903 C 41.9235,38.1803 40.6445,36.7613 37.6585,36.1523 L 37.6585,36.1523 C 37.5545,36.1313 37.4525,36.1983 37.4315,36.3023 L 37.4315,36.3023 C 37.4095,36.4063 37.4775,36.5083 37.5815,36.5303 L 37.5815,36.5303 C 40.4735,37.1313 41.6145,38.4343 42.4165,39.6963 L 42.4165,39.6963 C 43.2115,40.9443 43.6375,42.2393 45.0985,42.5793 L 45.0985,42.5793 C 45.5575,42.6823 46.0065,42.7233 46.4495,42.7233 L 46.4495,42.7233 C 48.1165,42.7193 49.6935,42.1623 51.4655,42.1653 L 51.4655,42.1653 C 52.0795,42.1653 52.7155,42.2313 53.3895,42.4053 L 53.3895,42.4053 C 58.3225,43.6693 58.8015,46.5753 62.4525,47.8463 L 62.4525,47.8463 C 63.1895,48.0963 63.9075,48.1933 64.6115,48.1933 L 64.6115,48.1933 C 66.8635,48.1873 68.9455,47.2333 71.0655,47.2383 L 71.0655,47.2383 C 71.5655,47.2393 72.0695,47.2913 72.5795,47.4173 L 72.5795,47.4173 C 75.9515,48.2473 77.8875,51.6613 79.9165,52.3413 L 79.9165,52.3413 C 80.1475,52.4143 80.3885,52.4443 80.6445,52.4443 L 80.6445,52.4443 C 80.6475,52.4463 80.6515,52.4463 80.6545,52.4463 L 80.6545,52.4463 Z" transform=""/></svg>