<svg xmlns="http://www.w3.org/2000/svg" version="1.1" width="93" height="86.8" viewBox="0 0 93 86.8"><defs/><path fill="#d78334" stroke="none" d="M 33.5953,42.8477 S 32.8983,50.2167 38.2753,52.0087 C 43.6533,53.8017 55.6023,52.4077 55.6023,52.4077 S 60.8803,49.7187 59.6853,42.9467 L 33.5953,42.8477 Z" transform=""/><path fill="#d78334" stroke="none" d="M 37.4997,52.698 S 44.1557,78.188 44.3567,78.634 C 44.5577,79.08 47.3577,79.268 47.7617,78.312 C 48.1647,77.357 56.3567,52.506 56.3567,52.506 L 37.4997,52.698 Z" transform=""/><path fill="#f4953f" stroke="none" d="M 47.3269,53.049 L 47.3889,53.052 L 55.6079,54.708 C 55.7659,54.739 55.8519,54.846 55.8019,54.945 C 55.7609,55.027 55.6459,55.078 55.5199,55.078 C 55.4899,55.078 55.4569,55.074 55.4279,55.067 L 47.3219,53.433 L 38.1639,55.169 C 38.1369,55.174 38.1079,55.176 38.0779,55.176 C 37.9489,55.176 37.8309,55.124 37.7929,55.042 C 37.7449,54.942 37.8359,54.838 37.9949,54.807 L 47.2389,53.054 L 47.3269,53.049 Z" transform=""/><path fill="#f4953f" stroke="none" d="M 38.1913,55.4652 C 38.2243,55.4652 38.2573,55.4682 38.2903,55.4752 L 46.7403,57.3612 L 55.1043,55.5072 C 55.1363,55.5002 55.1703,55.4972 55.2023,55.4972 C 55.3253,55.4972 55.4413,55.5452 55.4833,55.6232 C 55.5373,55.7222 55.4563,55.8312 55.3013,55.8652 L 47.6413,57.5622 L 54.1183,59.0082 C 54.2743,59.0422 54.3543,59.1492 54.3003,59.2502 C 54.2573,59.3262 54.1413,59.3762 54.0183,59.3762 C 53.9853,59.3762 53.9503,59.3732 53.9193,59.3642 L 46.7383,57.7632 L 39.2823,59.4152 C 39.2503,59.4222 39.2183,59.4252 39.1833,59.4252 C 39.0593,59.4252 38.9433,59.3762 38.9003,59.2992 C 38.8463,59.2012 38.9303,59.0922 39.0833,59.0572 L 45.8373,57.5612 L 38.0913,55.8332 C 37.9353,55.7972 37.8543,55.6892 37.9083,55.5912 C 37.9513,55.5142 38.0673,55.4652 38.1913,55.4652 Z" transform=""/><path fill="#f4953f" stroke="none" d="M 53.7797,60.2474 C 53.9047,60.2474 54.0217,60.2964 54.0637,60.3754 C 54.1177,60.4744 54.0367,60.5814 53.8787,60.6154 L 47.3397,62.0624 L 52.7737,63.2584 C 52.9297,63.2944 53.0137,63.4014 52.9587,63.5004 C 52.9167,63.5784 52.8007,63.6264 52.6767,63.6264 C 52.6437,63.6264 52.6117,63.6224 52.5797,63.6164 L 46.4327,62.2634 L 40.5447,63.5664 C 40.5097,63.5744 40.4777,63.5774 40.4447,63.5774 C 40.3217,63.5774 40.2057,63.5284 40.1627,63.4494 C 40.1087,63.3504 40.1897,63.2434 40.3447,63.2094 L 45.5237,62.0654 L 39.3987,60.7174 C 39.2427,60.6834 39.1627,60.5744 39.2167,60.4774 C 39.2597,60.3984 39.3747,60.3494 39.4987,60.3494 C 39.5307,60.3494 39.5637,60.3524 39.5957,60.3594 L 46.4297,61.8634 L 53.6817,60.2584 C 53.7147,60.2504 53.7477,60.2474 53.7797,60.2474 Z" transform=""/><path fill="#f4953f" stroke="none" d="M 52.0463,65.2971 C 52.1693,65.2971 52.2853,65.3461 52.3273,65.4241 C 52.3813,65.5211 52.3003,65.6301 52.1443,65.6641 L 47.3713,66.7341 L 51.3543,67.6081 C 51.5103,67.6421 51.5933,67.7501 51.5393,67.8491 C 51.4963,67.9271 51.3803,67.9771 51.2573,67.9771 C 51.2243,67.9771 51.1903,67.9731 51.1573,67.9661 L 46.4683,66.9371 L 41.6503,68.0161 C 41.6183,68.0221 41.5833,68.0261 41.5503,68.0261 C 41.4273,68.0261 41.3113,67.9781 41.2683,67.9001 C 41.2143,67.8021 41.2953,67.6941 41.4503,67.6581 L 45.5613,66.7381 L 40.8993,65.7161 C 40.7433,65.6821 40.6593,65.5751 40.7133,65.4761 C 40.7553,65.3981 40.8733,65.3491 40.9963,65.3491 C 41.0283,65.3491 41.0613,65.3521 41.0923,65.3591 L 46.4643,66.5361 L 51.9433,65.3101 C 51.9783,65.3011 52.0133,65.2971 52.0463,65.2971 Z" transform=""/><path fill="#f4953f" stroke="none" d="M 42.2605,70.0468 C 42.2955,70.0468 42.3315,70.0508 42.3665,70.0598 L 46.7625,71.1188 L 50.2065,70.3078 C 50.2395,70.2998 50.2745,70.2958 50.3085,70.2958 C 50.4295,70.2958 50.5445,70.3428 50.5905,70.4198 C 50.6475,70.5168 50.5695,70.6258 50.4135,70.6638 L 47.6095,71.3228 L 49.6265,71.8078 C 49.7825,71.8458 49.8605,71.9548 49.8015,72.0518 C 49.7555,72.1278 49.6425,72.1738 49.5215,72.1738 C 49.4865,72.1738 49.4515,72.1708 49.4165,72.1618 L 46.7605,71.5218 L 42.7595,72.4618 C 42.7275,72.4698 42.6925,72.4738 42.6575,72.4738 C 42.5365,72.4738 42.4215,72.4268 42.3755,72.3508 C 42.3185,72.2518 42.3985,72.1428 42.5525,72.1068 L 45.9105,71.3168 L 42.1545,70.4118 C 42.0015,70.3748 41.9235,70.2658 41.9825,70.1668 C 42.0275,70.0938 42.1405,70.0468 42.2605,70.0468 Z" transform=""/><path fill="#f4953f" stroke="none" d="M 55.8011,54.9447 C 55.7921,54.9627 55.7791,54.9777 55.7641,54.9927 C 55.7581,54.9977 55.7521,55.0027 55.7441,55.0087 C 55.7331,55.0167 55.7191,55.0257 55.7051,55.0337 C 55.6971,55.0377 55.6891,55.0427 55.6801,55.0457 C 55.6641,55.0527 55.6471,55.0577 55.6281,55.0627 C 55.6201,55.0647 55.6121,55.0677 55.6041,55.0687 C 55.5771,55.0737 55.5481,55.0777 55.5181,55.0777 C 55.4891,55.0777 55.4561,55.0747 55.4271,55.0677 L 47.3211,53.4337 L 38.1631,55.1687 C 38.1361,55.1737 38.1071,55.1767 38.0771,55.1767 C 37.9481,55.1767 37.8301,55.1237 37.7921,55.0417 C 37.7841,55.0237 37.7801,55.0047 37.7801,54.9867 L 37.7801,55.0867 C 37.7801,55.1047 37.7841,55.1227 37.7921,55.1417 C 37.8301,55.2237 37.9481,55.2757 38.0771,55.2757 C 38.1071,55.2757 38.1361,55.2737 38.1631,55.2687 L 47.3211,53.5327 L 55.4271,55.1667 C 55.4561,55.1737 55.4891,55.1767 55.5181,55.1767 C 55.5481,55.1767 55.5771,55.1737 55.6041,55.1687 C 55.6121,55.1677 55.6201,55.1647 55.6281,55.1617 C 55.6471,55.1567 55.6641,55.1527 55.6801,55.1457 C 55.6891,55.1417 55.6971,55.1377 55.7051,55.1337 C 55.7191,55.1257 55.7331,55.1177 55.7441,55.1077 C 55.7511,55.1027 55.7581,55.0977 55.7641,55.0917 C 55.7671,55.0887 55.7721,55.0867 55.7751,55.0827 C 55.7841,55.0717 55.7931,55.0597 55.7991,55.0477 C 55.8001,55.0467 55.8001,55.0447 55.8011,55.0437 C 55.8071,55.0337 55.8101,55.0237 55.8121,55.0127 C 55.8151,55.0047 55.8151,54.9947 55.8151,54.9857 L 55.8151,54.8867 C 55.8151,54.9057 55.8111,54.9247 55.8011,54.9447 Z" transform=""/><path fill="#f4953f" stroke="none" d="M 55.486,55.7453 C 55.478,55.7603 55.466,55.7743 55.453,55.7883 C 55.442,55.8003 55.427,55.8093 55.412,55.8193 C 55.404,55.8243 55.398,55.8303 55.389,55.8343 C 55.363,55.8483 55.334,55.8593 55.301,55.8663 L 47.64,57.5633 L 47.64,57.6623 L 55.301,55.9653 C 55.334,55.9583 55.363,55.9473 55.389,55.9343 C 55.398,55.9293 55.403,55.9243 55.411,55.9183 C 55.427,55.9083 55.441,55.8993 55.453,55.8873 C 55.456,55.8853 55.459,55.8833 55.461,55.8813 C 55.471,55.8703 55.479,55.8593 55.485,55.8473 C 55.485,55.8463 55.485,55.8453 55.486,55.8443 C 55.487,55.8443 55.487,55.8423 55.488,55.8413 C 55.492,55.8333 55.496,55.8243 55.497,55.8153 C 55.5,55.8053 55.5,55.7963 55.5,55.7863 L 55.5,55.6873 C 55.5,55.7053 55.496,55.7243 55.488,55.7413 C 55.487,55.7423 55.487,55.7443 55.486,55.7453 Z" transform=""/><path fill="#f4953f" stroke="none" d="M 45.8371,57.5622 L 38.0911,55.8332 C 37.9681,55.8052 37.8921,55.7322 37.8921,55.6542 L 37.8921,55.7542 C 37.8921,55.8322 37.9681,55.9042 38.0911,55.9332 L 45.8371,57.6612 L 45.8371,57.5622 Z" transform=""/><path fill="#f4953f" stroke="none" d="M 54.2643,59.2932 C 54.2583,59.2992 54.2503,59.3052 54.2433,59.3102 C 54.2313,59.3182 54.2193,59.3262 54.2053,59.3332 C 54.1973,59.3372 54.1883,59.3422 54.1803,59.3462 C 54.1643,59.3522 54.1463,59.3572 54.1293,59.3612 C 54.1213,59.3642 54.1123,59.3662 54.1033,59.3692 C 54.0763,59.3732 54.0483,59.3772 54.0193,59.3772 C 53.9863,59.3772 53.9513,59.3732 53.9193,59.3652 L 46.7383,57.7632 L 39.2833,59.4162 C 39.2513,59.4232 39.2183,59.4262 39.1833,59.4262 C 39.0603,59.4262 38.9443,59.3772 38.9013,59.3002 C 38.8903,59.2792 38.8853,59.2592 38.8853,59.2382 L 38.8853,59.3382 C 38.8853,59.3582 38.8903,59.3792 38.9013,59.4002 C 38.9443,59.4762 39.0593,59.5252 39.1833,59.5252 C 39.2183,59.5252 39.2503,59.5222 39.2833,59.5152 L 46.7383,57.8632 L 53.9193,59.4642 C 53.9523,59.4732 53.9873,59.4762 54.0193,59.4762 C 54.0483,59.4762 54.0763,59.4732 54.1033,59.4682 C 54.1123,59.4662 54.1203,59.4632 54.1293,59.4612 C 54.1463,59.4572 54.1643,59.4512 54.1803,59.4452 C 54.1893,59.4412 54.1973,59.4372 54.2053,59.4332 C 54.2193,59.4262 54.2323,59.4192 54.2433,59.4102 C 54.2513,59.4042 54.2583,59.3992 54.2643,59.3932 C 54.2683,59.3892 54.2743,59.3852 54.2783,59.3812 C 54.2873,59.3722 54.2943,59.3612 54.3003,59.3512 C 54.3013,59.3502 54.3013,59.3492 54.3013,59.3482 C 54.3073,59.3382 54.3103,59.3272 54.3133,59.3172 S 54.3173,59.2982 54.3173,59.2882 L 54.3173,59.1892 C 54.3173,59.2092 54.3113,59.2322 54.3003,59.2522 C 54.2923,59.2662 54.2783,59.2792 54.2643,59.2932 Z" transform=""/><path fill="#f4953f" stroke="none" d="M 54.0662,60.4949 C 54.0592,60.5099 54.0462,60.5239 54.0332,60.5369 C 54.0212,60.5489 54.0072,60.5589 53.9922,60.5689 C 53.9842,60.5739 53.9782,60.5789 53.9692,60.5839 C 53.9432,60.5979 53.9132,60.6089 53.8792,60.6159 L 47.3402,62.0619 L 47.3402,62.1619 L 53.8792,60.7149 C 53.9132,60.7079 53.9432,60.6969 53.9692,60.6839 C 53.9782,60.6789 53.9852,60.6729 53.9922,60.6679 C 54.0072,60.6579 54.0222,60.6489 54.0332,60.6369 C 54.0362,60.6339 54.0402,60.6329 54.0422,60.6299 C 54.0522,60.6189 54.0602,60.6079 54.0652,60.5969 C 54.0652,60.5959 54.0652,60.5959 54.0662,60.5949 C 54.0662,60.5939 54.0662,60.5939 54.0672,60.5939 C 54.0712,60.5849 54.0752,60.5749 54.0772,60.5659 C 54.0802,60.5569 54.0802,60.5479 54.0802,60.5379 L 54.0802,60.4379 C 54.0802,60.4579 54.0762,60.4769 54.0672,60.4939 C 54.0672,60.4939 54.0672,60.4939 54.0662,60.4949 Z" transform=""/><path fill="#f4953f" stroke="none" d="M 45.5251,62.0636 L 39.4001,60.7166 C 39.2781,60.6896 39.2011,60.6156 39.2011,60.5376 L 39.2011,60.6376 C 39.2011,60.7156 39.2781,60.7886 39.4001,60.8156 L 45.5251,62.1626 L 45.5251,62.0636 Z" transform=""/><path fill="#f4953f" stroke="none" d="M 52.9233,63.5423 C 52.9173,63.5483 52.9093,63.5543 52.9023,63.5603 C 52.8903,63.5673 52.8783,63.5753 52.8643,63.5833 C 52.8553,63.5873 52.8473,63.5913 52.8383,63.5953 C 52.8223,63.6023 52.8053,63.6063 52.7883,63.6113 C 52.7793,63.6143 52.7713,63.6163 52.7613,63.6183 C 52.7343,63.6223 52.7063,63.6263 52.6773,63.6263 C 52.6443,63.6263 52.6133,63.6223 52.5803,63.6153 L 46.4343,62.2623 L 40.5453,63.5663 C 40.5103,63.5733 40.4783,63.5763 40.4463,63.5763 C 40.3223,63.5763 40.2063,63.5273 40.1633,63.4483 C 40.1523,63.4273 40.1463,63.4073 40.1463,63.3863 L 40.1463,63.4853 C 40.1463,63.5053 40.1523,63.5273 40.1633,63.5483 C 40.2063,63.6263 40.3213,63.6763 40.4463,63.6763 C 40.4783,63.6763 40.5103,63.6723 40.5453,63.6653 L 46.4343,62.3633 L 52.5803,63.7153 C 52.6133,63.7223 52.6443,63.7263 52.6773,63.7263 C 52.7063,63.7263 52.7343,63.7233 52.7613,63.7183 C 52.7703,63.7163 52.7783,63.7143 52.7873,63.7123 C 52.8043,63.7083 52.8223,63.7033 52.8383,63.6963 C 52.8473,63.6923 52.8553,63.6883 52.8643,63.6833 C 52.8783,63.6763 52.8903,63.6693 52.9023,63.6603 C 52.9103,63.6543 52.9173,63.6493 52.9243,63.6423 C 52.9293,63.6383 52.9343,63.6353 52.9383,63.6303 C 52.9473,63.6213 52.9553,63.6103 52.9603,63.5993 C 52.9613,63.5993 52.9613,63.5983 52.9623,63.5973 C 52.9683,63.5873 52.9713,63.5763 52.9743,63.5663 C 52.9763,63.5573 52.9773,63.5483 52.9773,63.5393 L 52.9773,63.4393 C 52.9773,63.4593 52.9723,63.4813 52.9603,63.5013 C 52.9503,63.5153 52.9373,63.5283 52.9233,63.5423 Z" transform=""/><path fill="#f4953f" stroke="none" d="M 52.3296,65.5438 C 52.3216,65.5588 52.3096,65.5728 52.2966,65.5848 C 52.2846,65.5968 52.2696,65.6078 52.2536,65.6178 C 52.2466,65.6228 52.2406,65.6278 52.2316,65.6318 C 52.2066,65.6458 52.1766,65.6568 52.1436,65.6638 L 47.3706,66.7348 L 47.3706,66.8328 L 52.1436,65.7638 C 52.1766,65.7558 52.2056,65.7448 52.2316,65.7318 C 52.2406,65.7278 52.2456,65.7218 52.2536,65.7168 C 52.2696,65.7068 52.2846,65.6968 52.2966,65.6848 C 52.2986,65.6818 52.3016,65.6808 52.3046,65.6788 C 52.3146,65.6678 52.3226,65.6568 52.3286,65.6448 C 52.3286,65.6438 52.3286,65.6428 52.3296,65.6428 S 52.3306,65.6408 52.3316,65.6398 C 52.3356,65.6318 52.3386,65.6228 52.3406,65.6138 C 52.3436,65.6038 52.3436,65.5948 52.3436,65.5858 L 52.3436,65.4868 C 52.3436,65.5058 52.3396,65.5248 52.3306,65.5418 C 52.3306,65.5418 52.3306,65.5428 52.3296,65.5438 Z" transform=""/><path fill="#f4953f" stroke="none" d="M 45.5625,66.7376 L 40.9005,65.7156 C 40.7765,65.6886 40.6985,65.6156 40.6985,65.5366 L 40.6985,65.6366 C 40.6985,65.7146 40.7765,65.7886 40.9005,65.8156 L 45.5625,66.8366 L 45.5625,66.7376 Z" transform=""/><path fill="#f4953f" stroke="none" d="M 51.5027,67.8924 C 51.4967,67.8984 51.4897,67.9044 51.4817,67.9094 C 51.4707,67.9174 51.4577,67.9254 51.4437,67.9324 C 51.4347,67.9374 51.4267,67.9414 51.4187,67.9454 C 51.4027,67.9524 51.3847,67.9564 51.3677,67.9604 C 51.3597,67.9634 51.3507,67.9654 51.3417,67.9684 C 51.3147,67.9724 51.2867,67.9764 51.2577,67.9764 C 51.2247,67.9764 51.1907,67.9724 51.1577,67.9654 L 46.4687,66.9364 L 41.6507,68.0154 C 41.6187,68.0214 41.5837,68.0254 41.5517,68.0254 C 41.4277,68.0254 41.3117,67.9774 41.2687,67.8994 C 41.2577,67.8784 41.2517,67.8574 41.2517,67.8364 L 41.2517,67.9364 C 41.2517,67.9564 41.2577,67.9784 41.2687,67.9994 C 41.3117,68.0774 41.4277,68.1254 41.5517,68.1254 C 41.5837,68.1254 41.6187,68.1214 41.6507,68.1154 L 46.4687,67.0364 L 51.1577,68.0654 C 51.1897,68.0734 51.2247,68.0764 51.2577,68.0764 C 51.2867,68.0764 51.3147,68.0734 51.3417,68.0684 C 51.3507,68.0664 51.3587,68.0634 51.3677,68.0614 C 51.3857,68.0564 51.4027,68.0514 51.4187,68.0454 C 51.4277,68.0414 51.4357,68.0374 51.4437,68.0334 C 51.4577,68.0264 51.4707,68.0184 51.4817,68.0094 C 51.4897,68.0034 51.4967,67.9984 51.5027,67.9924 C 51.5077,67.9884 51.5127,67.9854 51.5167,67.9804 C 51.5257,67.9704 51.5337,67.9604 51.5397,67.9494 C 51.5397,67.9484 51.5397,67.9474 51.5407,67.9454 C 51.5467,67.9354 51.5497,67.9254 51.5527,67.9144 C 51.5557,67.9064 51.5557,67.8964 51.5557,67.8864 L 51.5557,67.7874 C 51.5557,67.8084 51.5507,67.8284 51.5397,67.8484 C 51.5317,67.8644 51.5167,67.8784 51.5027,67.8924 Z" transform=""/><path fill="#f4953f" stroke="none" d="M 50.5947,70.5434 C 50.5877,70.5584 50.5757,70.5724 50.5617,70.5854 C 50.5507,70.5964 50.5367,70.6074 50.5217,70.6164 C 50.5137,70.6214 50.5077,70.6274 50.4987,70.6314 C 50.4737,70.6444 50.4447,70.6564 50.4127,70.6644 L 47.6087,71.3234 L 47.6087,71.4224 L 50.4127,70.7634 C 50.4447,70.7554 50.4737,70.7444 50.4987,70.7314 C 50.5077,70.7264 50.5147,70.7204 50.5227,70.7154 C 50.5377,70.7054 50.5507,70.6954 50.5617,70.6844 C 50.5637,70.6814 50.5677,70.6804 50.5697,70.6784 C 50.5787,70.6674 50.5867,70.6564 50.5927,70.6444 C 50.5927,70.6434 50.5937,70.6424 50.5937,70.6424 C 50.5947,70.6404 50.5947,70.6394 50.5957,70.6384 C 50.5997,70.6294 50.6037,70.6214 50.6047,70.6124 C 50.6077,70.6034 50.6087,70.5944 50.6087,70.5844 L 50.6087,70.4864 C 50.6087,70.5044 50.6037,70.5224 50.5957,70.5394 C 50.5957,70.5414 50.5957,70.5414 50.5947,70.5434 Z" transform=""/><path fill="#f4953f" stroke="none" d="M 45.9095,71.3185 L 42.1535,70.4135 C 42.0355,70.3845 41.9625,70.3135 41.9625,70.2365 L 41.9625,70.3365 C 41.9625,70.4125 42.0355,70.4845 42.1535,70.5135 L 45.9095,71.4175 L 45.9095,71.3185 Z" transform=""/><path fill="#f4953f" stroke="none" d="M 49.7638,72.0937 C 49.7578,72.0997 49.7498,72.1057 49.7428,72.1117 C 49.7308,72.1187 49.7178,72.1267 49.7038,72.1337 C 49.6958,72.1377 49.6878,72.1427 49.6788,72.1467 C 49.6628,72.1527 49.6448,72.1577 49.6278,72.1617 C 49.6198,72.1637 49.6118,72.1657 49.6028,72.1677 C 49.5758,72.1727 49.5478,72.1757 49.5198,72.1757 C 49.4848,72.1757 49.4498,72.1727 49.4148,72.1637 L 46.7578,71.5227 L 42.7568,72.4627 C 42.7248,72.4717 42.6898,72.4747 42.6548,72.4747 C 42.5338,72.4747 42.4188,72.4287 42.3728,72.3527 C 42.3598,72.3307 42.3548,72.3097 42.3548,72.2877 L 42.3548,72.3877 C 42.3548,72.4087 42.3598,72.4307 42.3728,72.4517 C 42.4178,72.5287 42.5338,72.5747 42.6548,72.5747 C 42.6898,72.5747 42.7248,72.5717 42.7568,72.5627 L 46.7578,71.6227 L 49.4148,72.2637 C 49.4498,72.2717 49.4848,72.2747 49.5198,72.2747 C 49.5478,72.2747 49.5758,72.2717 49.6028,72.2667 C 49.6118,72.2657 49.6188,72.2637 49.6278,72.2607 C 49.6448,72.2567 49.6628,72.2517 49.6788,72.2457 C 49.6878,72.2417 49.6958,72.2377 49.7038,72.2327 C 49.7178,72.2267 49.7308,72.2197 49.7428,72.2107 C 49.7498,72.2047 49.7568,72.1987 49.7638,72.1927 C 49.7688,72.1897 49.7758,72.1857 49.7798,72.1807 C 49.7878,72.1717 49.7938,72.1627 49.8008,72.1537 C 49.8018,72.1507 49.8038,72.1477 49.8048,72.1457 C 49.8108,72.1347 49.8148,72.1237 49.8168,72.1137 C 49.8188,72.1047 49.8208,72.0957 49.8208,72.0867 L 49.8208,71.9867 C 49.8208,72.0097 49.8138,72.0317 49.8008,72.0537 C 49.7908,72.0677 49.7778,72.0807 49.7638,72.0937 Z" transform=""/><path fill="#f4953f" stroke="none" d="M 49.0945,75.4936 C 49.0875,75.5086 49.0765,75.5226 49.0625,75.5356 C 49.0515,75.5476 49.0365,75.5576 49.0215,75.5676 C 49.0145,75.5726 49.0085,75.5776 49.0015,75.5816 C 48.9755,75.5946 48.9485,75.6056 48.9165,75.6126 L 47.2195,76.0116 L 47.2195,76.1116 L 48.9165,75.7126 C 48.9485,75.7046 48.9755,75.6946 49.0015,75.6816 C 49.0095,75.6766 49.0155,75.6706 49.0225,75.6666 C 49.0375,75.6566 49.0525,75.6476 49.0635,75.6356 C 49.0655,75.6336 49.0685,75.6316 49.0695,75.6306 C 49.0805,75.6196 49.0875,75.6086 49.0935,75.5966 C 49.0935,75.5956 49.0945,75.5946 49.0945,75.5936 C 49.0955,75.5926 49.0955,75.5896 49.0965,75.5896 C 49.1005,75.5816 49.1045,75.5736 49.1055,75.5646 C 49.1085,75.5546 49.1085,75.5456 49.1085,75.5356 L 49.1085,75.4366 C 49.1085,75.4556 49.1045,75.4726 49.0965,75.4896 C 49.0965,75.4896 49.0955,75.4916 49.0945,75.4936 Z" transform=""/><path fill="#f4953f" stroke="none" d="M 45.5927,75.9918 L 43.4087,75.4108 C 43.2937,75.3818 43.2247,75.3108 43.2247,75.2368 L 43.2247,75.3358 C 43.2247,75.4098 43.2947,75.4808 43.4087,75.5108 L 45.5927,76.0908 L 45.5927,75.9918 Z" transform=""/><path fill="#f4953f" stroke="none" d="M 48.6576,76.6452 C 48.6516,76.6512 48.6446,76.6572 48.6366,76.6632 C 48.6256,76.6702 48.6126,76.6772 48.5996,76.6832 C 48.5906,76.6872 48.5826,76.6922 48.5736,76.6962 C 48.5586,76.7022 48.5416,76.7062 48.5236,76.7102 C 48.5156,76.7132 48.5076,76.7162 48.4976,76.7172 C 48.4716,76.7222 48.4436,76.7252 48.4156,76.7252 C 48.3786,76.7252 48.3376,76.7202 48.2996,76.7102 L 46.3986,76.2062 L 44.0216,76.7632 C 43.9866,76.7712 43.9516,76.7752 43.9166,76.7752 C 43.7956,76.7752 43.6826,76.7292 43.6376,76.6522 C 43.6246,76.6302 43.6186,76.6082 43.6186,76.5862 L 43.6186,76.6862 C 43.6186,76.7072 43.6246,76.7302 43.6376,76.7522 C 43.6826,76.8282 43.7956,76.8742 43.9166,76.8742 C 43.9516,76.8742 43.9866,76.8712 44.0216,76.8622 L 46.3986,76.3052 L 48.2996,76.8102 C 48.3366,76.8192 48.3776,76.8252 48.4156,76.8252 C 48.4446,76.8252 48.4716,76.8222 48.4976,76.8182 C 48.5076,76.8162 48.5156,76.8132 48.5246,76.8112 C 48.5416,76.8072 48.5576,76.8032 48.5726,76.7962 C 48.5816,76.7922 48.5906,76.7872 48.5996,76.7832 C 48.6126,76.7762 48.6246,76.7702 48.6366,76.7622 C 48.6436,76.7562 48.6516,76.7502 48.6586,76.7442 C 48.6646,76.7382 48.6716,76.7332 48.6776,76.7282 C 48.6826,76.7212 48.6876,76.7152 48.6926,76.7092 C 48.6946,76.7052 48.6976,76.7012 48.6986,76.6972 C 48.7046,76.6862 48.7096,76.6752 48.7116,76.6642 C 48.7146,76.6552 48.7146,76.6452 48.7146,76.6352 L 48.7146,76.5362 C 48.7146,76.5602 48.7076,76.5852 48.6926,76.6082 C 48.6836,76.6232 48.6706,76.6342 48.6576,76.6452 Z" transform=""/><path fill="#f4953f" stroke="none" d="M 43.5243,75.0471 C 43.5613,75.0471 43.6003,75.0521 43.6373,75.0611 L 46.4093,75.7991 L 48.7053,75.2591 C 48.7393,75.2511 48.7753,75.2481 48.8093,75.2481 C 48.9323,75.2481 49.0463,75.2951 49.0893,75.3691 C 49.1463,75.4681 49.0683,75.5771 48.9143,75.6131 L 47.2183,76.0121 L 48.5303,76.3611 C 48.6833,76.4021 48.7533,76.5131 48.6913,76.6091 C 48.6433,76.6811 48.5333,76.7251 48.4153,76.7251 C 48.3773,76.7251 48.3373,76.7201 48.2983,76.7101 L 46.3983,76.2061 L 44.0213,76.7631 C 43.9863,76.7711 43.9513,76.7751 43.9163,76.7751 C 43.7953,76.7751 43.6823,76.7291 43.6363,76.6521 C 43.5803,76.5541 43.6583,76.4451 43.8143,76.4091 L 45.5913,75.9921 L 43.4073,75.4111 C 43.2543,75.3721 43.1813,75.2591 43.2453,75.1641 C 43.2963,75.0901 43.4083,75.0471 43.5243,75.0471 Z" transform=""/><path fill="#f4953f" stroke="none" d="M 56.5986,52.9049 C 56.5986,53.2349 56.3316,53.5029 56.0006,53.5029 L 37.2796,53.5029 C 36.9496,53.5029 36.6826,53.2349 36.6826,52.9049 L 36.6826,52.2079 C 36.6826,51.8779 36.9496,51.6099 37.2796,51.6099 L 56.0006,51.6099 C 56.3316,51.6099 56.5986,51.8779 56.5986,52.2079 L 56.5986,52.9049 Z" transform=""/><path fill="#f89c44" stroke="none" d="M 60.78,42.9965 C 60.78,43.1615 60.398,43.2955 59.925,43.2955 L 33.156,43.2955 C 32.684,43.2955 32.301,43.1625 32.301,42.9965 L 32.301,42.6475 C 32.301,42.4835 32.683,42.3495 33.156,42.3495 L 59.926,42.3495 C 60.398,42.3495 60.781,42.4835 60.781,42.6475 L 60.781,42.9965 Z" transform=""/><path fill="#c75e72" stroke="none" d="M 57.552,14.9014 C 57.651,14.9194 53.009,13.3234 48.46,14.3384 C 43.886,15.0564 39.404,18.3854 39.242,21.4134 C 39.321,21.0684 31.789,22.8724 30.332,28.2614 C 28.99,33.1864 31.638,33.9664 31.564,34.0114 C 31.572,33.8314 29.792,36.5464 29.394,38.9254 C 28.921,41.3614 29.831,43.4594 33.47,43.3484 C 33.45,43.4554 33.576,44.7274 36.611,43.7634 C 38.118,43.2764 41.434,42.2924 45.127,42.2664 C 48.892,42.1894 55.353,44.8394 57.87,45.1234 C 58.155,45.1554 61.756,45.4614 63.269,41.5524 C 65.327,35.6564 59.698,29.5574 59.597,29.9474 C 59.507,29.9564 63.159,29.8304 58.872,25.6544 C 52.562,20.7534 55.589,16.4654 57.552,14.9014 Z" transform=""/><path fill="#9a4757" stroke="none" d="M 39.2418,21.413 C 39.3208,21.068 31.7898,22.872 30.3318,28.261 C 28.9898,33.186 31.6378,33.966 31.5638,34.011 C 31.5718,33.831 29.7918,36.545 29.3938,38.924 C 28.9208,41.36 29.8308,43.459 33.4698,43.347 C 33.4508,43.455 33.5758,44.727 36.6108,43.762 C 39.2948,42.803 46.1248,41.883 53.1038,43.394 C 47.3248,40.743 43.7188,39.718 41.4228,37.862 C 39.1538,36.247 38.1948,33.802 38.3038,33.85 C 41.3908,34.402 45.3828,34.95 48.4688,36.179 C 51.5768,37.274 53.7788,39.048 53.7968,38.96 C 54.2188,39.239 54.8168,39.424 55.1848,39.239 C 57.2788,38.595 53.7008,33.984 49.2308,32.705 C 44.8048,30.968 39.1798,31.687 37.5898,29.387 C 35.5958,26.314 39.5388,23.414 39.6048,23.52 C 42.6218,25.784 46.4168,26.639 49.5848,27.671 C 52.7328,28.582 55.2548,29.67 55.2748,29.62 C 56.3888,29.288 54.6598,28.381 54.6508,28.4 C 49.0878,25.853 46.6638,23.609 46.1438,20.833 C 45.5798,18.219 46.9208,15.073 47.9028,14.464 C 44.1218,14.962 39.5728,18.223 39.2418,21.413 Z" transform=""/></svg>