<svg xmlns="http://www.w3.org/2000/svg" version="1.1" width="105" height="105" viewBox="0 0 105 105"><defs/><path fill="#4d677a" stroke="none" d="M 70.6438,49.2319 S 73.7778,46.9689 74.3848,47.3169 C 74.9948,47.6639 74.4738,49.9269 74.4738,49.9269 L 70.6438,49.2319 Z" transform=""/><path fill="#bdcccc" stroke="none" d="M 74.0348,63.4206 S 75.6188,63.8166 76.6098,63.0236 C 77.5978,62.2326 76.8058,60.3496 76.8058,60.3496 L 74.0348,63.4206 Z" transform=""/><path fill="#4d677a" stroke="none" d="M 35.918,74.2111 S 31.958,76.7841 30.67,79.4581 C 30.67,79.4581 38.492,75.2001 42.651,75.1011 C 42.651,75.1021 38.195,74.2111 35.918,74.2111 Z" transform=""/><path fill="#4d677a" stroke="none" d="M 46.9036,45.2413 S 54.1866,36.8193 60.4456,38.0693 C 60.4456,38.0693 55.2596,43.5013 56.0926,47.6163 C 56.1206,47.7543 56.1546,47.8913 56.1976,48.0283 C 57.4876,52.1813 46.9036,45.2413 46.9036,45.2413 Z" transform=""/><path fill="#7a3440" stroke="none" d="M 31.4307,61.9549 S 24.8647,70.7549 26.8617,72.8889 C 29.9857,72.7629 35.6307,70.5579 35.6307,70.5579 L 39.9677,66.7049 L 31.4307,61.9549 Z" transform=""/><path fill="#4d677a" stroke="none" d="M 83.8076,48.4047 C 83.5036,44.7447 84.7726,39.9277 85.7316,36.0807 L 83.8906,35.2257 L 86.3776,33.8607 C 87.3336,31.0057 88.7726,28.1957 90.8446,25.5417 C 90.8446,25.5417 84.8586,28.1787 80.1996,32.9627 C 75.8756,37.3997 77.8346,49.0027 77.8346,49.0027 S 59.7066,49.2167 44.5626,43.0297 C 26.1786,35.5227 9.4846,26.6497 10.0126,34.2877 C 10.4386,40.4737 17.9026,55.6147 21.3166,57.9617 C 24.7286,60.3057 35.7366,63.4807 35.3926,64.7877 C 34.3256,68.8377 25.7956,71.8247 26.8616,72.8897 C 27.9286,73.9567 60.1326,85.9007 79.7536,57.1077 C 79.7536,57.1077 87.5996,66.9057 94.9996,66.8137 C 87.1376,59.0437 85.7506,55.4367 83.8076,48.4047 Z" transform=""/><path fill="#fffdfd" stroke="none" d="M 33.6341,63.1244 S 33.4971,64.9824 33.7021,65.1904 C 33.9081,65.3984 34.8721,63.8834 34.8721,63.8834 L 33.6341,63.1244 Z" transform=""/><path fill="#fffdfd" stroke="none" d="M 31.6321,61.9486 S 31.4931,63.8066 31.7011,64.0146 C 31.9071,64.2206 32.8711,62.7056 32.8711,62.7056 L 31.6321,61.9486 Z" transform=""/><path fill="#fffdfd" stroke="none" d="M 29.9407,71.0505 S 28.5737,69.7865 28.2817,69.8195 C 27.9917,69.8515 28.5757,71.5495 28.5757,71.5495 L 29.9407,71.0505 Z" transform=""/><path fill="#bdcccc" stroke="none" d="M 82.0999,50.4952 S 75.4759,64.7942 56.1979,64.2532 C 37.0989,63.7192 20.4629,44.3112 16.1979,39.1912 C 13.2739,35.6852 11.2779,33.6022 10.0439,33.4442 C 10.0089,33.7002 9.99093,33.9772 10.0129,34.2872 C 10.4389,40.4732 17.9039,55.6142 21.3179,57.9612 C 24.7289,60.3062 35.7369,63.4812 35.3929,64.7882 C 34.3259,68.8382 25.7959,71.8242 26.8609,72.8902 C 27.9209,73.9502 60.4649,86.0382 79.7539,57.1072 C 81.1579,53.6782 82.0999,50.4952 82.0999,50.4952 Z" transform=""/><path fill="#688da7" stroke="none" d="M 42.7857,47.8294 S 44.2027,51.3044 41.3237,55.4424 C 41.3237,55.4424 42.8647,51.5364 42.7857,47.8294 Z" transform=""/><path fill="#688da7" stroke="none" d="M 44.2676,48.9754 S 45.6826,52.4494 42.8056,56.5884 C 42.8056,56.5884 44.3456,52.6824 44.2676,48.9754 Z" transform=""/><path fill="#688da7" stroke="none" d="M 45.4668,50.0889 S 46.8848,53.5609 44.0048,57.7019 C 44.0058,57.7019 45.5458,53.7939 45.4668,50.0889 Z" transform=""/><path fill="#304454" stroke="none" d="M 51.3421,69.0276 C 50.7731,65.2716 49.1801,65.2716 48.8381,62.3116 C 48.8381,62.3116 48.9481,62.1066 49.0661,61.8566 C 49.0661,61.8566 57.7141,68.0026 60.5601,68.7986 C 60.5601,68.7986 60.9191,75.9986 67.3891,77.9036 C 67.3321,78.0656 67.3321,78.2136 67.3321,78.3926 C 67.3321,78.3936 52.7781,78.5026 51.3421,69.0276 Z" transform=""/><path fill="#4d677a" stroke="none" d="M 51.5696,68.5707 C 51.0006,64.8157 49.4066,64.8157 49.0666,61.8577 C 49.0666,61.8577 52.5936,63.4487 55.0986,63.2237 C 55.0986,63.2237 57.9426,67.5487 60.7876,68.3457 C 60.7876,68.3457 61.4706,75.1717 67.3886,77.9047 C 67.3896,77.9047 53.0056,78.0457 51.5696,68.5707 Z" transform=""/><ellipse cx="36.00465444930984" cy="49.15961771980612" rx="1.1315215057124892" ry="1.8801498602501217" fill="#304454" stroke="none" r="NaN" transform=""/></svg>