<svg xmlns="http://www.w3.org/2000/svg" version="1.1" width="88" height="100" viewBox="0 0 88 100"><defs/><path fill="#d78334" stroke="none" d="M 28.1173,39.5049 S 27.2593,48.5739 33.8773,50.7799 C 40.4963,52.9869 55.2023,51.2709 55.2023,51.2709 S 61.6993,47.9609 60.2273,39.6269 L 28.1173,39.5049 Z" transform=""/><path fill="#d78334" stroke="none" d="M 32.9227,51.6283 S 41.1147,83.0013 41.3617,83.5493 C 41.6097,84.0983 45.0557,84.3303 45.5527,83.1543 C 46.0487,81.9773 56.1317,51.3923 56.1317,51.3923 L 32.9227,51.6283 Z" transform=""/><path fill="#f4953f" stroke="none" d="M 45.0177,52.0603 L 45.0937,52.0643 L 55.2097,54.1023 C 55.4047,54.1403 55.5107,54.2723 55.4487,54.3933 C 55.3987,54.4943 55.2567,54.5573 55.1007,54.5573 C 55.0647,54.5573 55.0247,54.5533 54.9877,54.5443 L 45.0117,52.5333 L 33.7407,54.6693 C 33.7077,54.6753 33.6707,54.6783 33.6347,54.6783 C 33.4757,54.6783 33.3297,54.6143 33.2837,54.5133 C 33.2247,54.3893 33.3367,54.2623 33.5317,54.2243 L 44.9087,52.0663 L 45.0177,52.0603 Z" transform=""/><path fill="#f4953f" stroke="none" d="M 33.7739,55.034 C 33.8139,55.034 33.8549,55.038 33.8949,55.047 L 44.2959,57.367 L 54.5909,55.086 C 54.6299,55.077 54.6709,55.073 54.7109,55.073 C 54.8619,55.073 55.0049,55.133 55.0569,55.229 C 55.1229,55.35 55.0229,55.485 54.8319,55.527 L 45.4049,57.615 L 53.3759,59.395 C 53.5679,59.437 53.6669,59.568 53.5999,59.693 C 53.5469,59.787 53.4049,59.847 53.2539,59.847 C 53.2129,59.847 53.1699,59.843 53.1309,59.833 L 44.2929,57.862 L 35.1169,59.895 C 35.0779,59.904 35.0379,59.908 34.9939,59.908 C 34.8429,59.908 34.6999,59.847 34.6469,59.753 C 34.5799,59.632 34.6839,59.498 34.8719,59.456 L 43.1839,57.614 L 33.6509,55.487 C 33.4589,55.442 33.3599,55.31 33.4259,55.189 C 33.4779,55.094 33.6209,55.034 33.7739,55.034 Z" transform=""/><path fill="#f4953f" stroke="none" d="M 52.9596,60.9199 C 53.1136,60.9199 53.2576,60.9809 53.3096,61.0779 C 53.3756,61.1989 53.2756,61.3309 53.0806,61.3739 L 45.0336,63.1529 L 51.7216,64.6249 C 51.9136,64.6699 52.0166,64.8019 51.9496,64.9229 C 51.8966,65.0189 51.7546,65.0789 51.6016,65.0789 C 51.5616,65.0789 51.5226,65.0739 51.4826,65.0659 L 43.9176,63.4009 L 36.6706,65.0059 C 36.6276,65.0139 36.5876,65.0179 36.5476,65.0179 C 36.3956,65.0179 36.2526,64.9579 36.2006,64.8609 C 36.1336,64.7389 36.2336,64.6069 36.4246,64.5659 L 42.7986,63.1569 L 35.2596,61.4989 C 35.0676,61.4569 34.9686,61.3229 35.0356,61.2029 C 35.0886,61.1059 35.2306,61.0449 35.3836,61.0449 C 35.4226,61.0449 35.4626,61.0489 35.5016,61.0579 L 43.9136,62.9089 L 52.8396,60.9339 C 52.8796,60.9239 52.9206,60.9199 52.9596,60.9199 Z" transform=""/><path fill="#f4953f" stroke="none" d="M 50.8262,67.1349 C 50.9782,67.1349 51.1202,67.1959 51.1722,67.2919 C 51.2382,67.4109 51.1382,67.5449 50.9462,67.5869 L 45.0722,68.9039 L 49.9742,69.9789 C 50.1662,70.0219 50.2692,70.1539 50.2022,70.2749 C 50.1492,70.3719 50.0062,70.4329 49.8542,70.4329 C 49.8142,70.4329 49.7722,70.4279 49.7322,70.4199 L 43.9612,69.1539 L 38.0312,70.4809 C 37.9912,70.4889 37.9482,70.4939 37.9082,70.4939 C 37.7562,70.4939 37.6132,70.4349 37.5602,70.3389 C 37.4942,70.2179 37.5942,70.0849 37.7852,70.0409 L 42.8442,68.9089 L 37.1062,67.6509 C 36.9142,67.6089 36.8112,67.4769 36.8782,67.3549 C 36.9302,67.2589 37.0752,67.1989 37.2262,67.1989 C 37.2662,67.1989 37.3062,67.2029 37.3442,67.2109 L 43.9562,68.6599 L 50.7002,67.1509 C 50.7432,67.1399 50.7852,67.1349 50.8262,67.1349 Z" transform=""/><path fill="#f4953f" stroke="none" d="M 38.7822,72.9806 C 38.8252,72.9806 38.8692,72.9856 38.9122,72.9966 L 44.3232,74.2996 L 48.5612,73.3016 C 48.6032,73.2916 48.6462,73.2876 48.6882,73.2876 C 48.8372,73.2876 48.9782,73.3446 49.0352,73.4396 C 49.1042,73.5596 49.0082,73.6936 48.8162,73.7396 L 45.3652,74.5506 L 47.8472,75.1486 C 48.0392,75.1946 48.1352,75.3286 48.0632,75.4476 C 48.0062,75.5416 47.8682,75.5986 47.7192,75.5986 C 47.6762,75.5986 47.6332,75.5946 47.5902,75.5846 L 44.3202,74.7956 L 39.3962,75.9526 C 39.3572,75.9636 39.3142,75.9676 39.2712,75.9676 C 39.1222,75.9676 38.9802,75.9106 38.9232,75.8166 C 38.8542,75.6946 38.9522,75.5606 39.1412,75.5166 L 43.2742,74.5436 L 38.6522,73.4306 C 38.4632,73.3846 38.3672,73.2496 38.4402,73.1286 C 38.4952,73.0386 38.6342,72.9806 38.7822,72.9806 Z" transform=""/><path fill="#f4953f" stroke="none" d="M 55.4476,54.3934 C 55.4366,54.4154 55.4206,54.4344 55.4016,54.4524 C 55.3946,54.4594 55.3866,54.4654 55.3776,54.4714 C 55.3636,54.4824 55.3466,54.4934 55.3286,54.5034 C 55.3196,54.5084 55.3096,54.5134 55.2986,54.5174 C 55.2796,54.5264 55.2576,54.5324 55.2346,54.5384 C 55.2256,54.5414 55.2156,54.5444 55.2046,54.5464 C 55.1716,54.5524 55.1366,54.5574 55.0996,54.5574 C 55.0636,54.5574 55.0236,54.5534 54.9876,54.5444 L 45.0106,52.5334 L 33.7396,54.6694 C 33.7066,54.6754 33.6706,54.6784 33.6336,54.6784 C 33.4756,54.6784 33.3296,54.6134 33.2836,54.5134 C 33.2726,54.4904 33.2676,54.4674 33.2676,54.4454 L 33.2676,54.5674 C 33.2676,54.5904 33.2726,54.6124 33.2836,54.6354 C 33.3296,54.7364 33.4756,54.8004 33.6336,54.8004 C 33.6706,54.8004 33.7066,54.7994 33.7396,54.7924 L 45.0106,52.6554 L 54.9876,54.6664 C 55.0236,54.6754 55.0636,54.6794 55.0996,54.6794 C 55.1366,54.6794 55.1716,54.6754 55.2046,54.6694 C 55.2156,54.6674 55.2246,54.6634 55.2346,54.6604 C 55.2576,54.6554 55.2796,54.6494 55.2986,54.6404 C 55.3096,54.6354 55.3196,54.6314 55.3286,54.6254 C 55.3466,54.6164 55.3636,54.6064 55.3776,54.5944 C 55.3856,54.5884 55.3946,54.5814 55.4016,54.5744 C 55.4056,54.5704 55.4116,54.5674 55.4156,54.5624 C 55.4266,54.5494 55.4376,54.5344 55.4456,54.5194 C 55.4466,54.5184 55.4466,54.5164 55.4476,54.5154 C 55.4546,54.5034 55.4586,54.4904 55.4616,54.4774 C 55.4646,54.4664 55.4656,54.4554 55.4656,54.4444 L 55.4656,54.3214 C 55.4656,54.3454 55.4606,54.3694 55.4476,54.3934 Z" transform=""/><path fill="#f4953f" stroke="none" d="M 55.0597,55.3788 C 55.0497,55.3978 55.0357,55.4138 55.0197,55.4318 C 55.0057,55.4468 54.9877,55.4578 54.9687,55.4698 C 54.9587,55.4758 54.9507,55.4838 54.9397,55.4888 C 54.9087,55.5048 54.8727,55.5188 54.8317,55.5278 L 45.4037,57.6158 L 45.4037,57.7388 L 54.8317,55.6498 C 54.8727,55.6418 54.9087,55.6278 54.9397,55.6108 C 54.9507,55.6048 54.9577,55.5988 54.9677,55.5928 C 54.9877,55.5798 55.0047,55.5678 55.0197,55.5528 C 55.0227,55.5508 55.0267,55.5488 55.0297,55.5458 C 55.0407,55.5328 55.0507,55.5188 55.0587,55.5038 C 55.0587,55.5028 55.0587,55.5018 55.0597,55.5008 S 55.0607,55.4988 55.0617,55.4968 C 55.0667,55.4868 55.0717,55.4758 55.0737,55.4648 C 55.0767,55.4528 55.0777,55.4418 55.0777,55.4298 L 55.0777,55.3068 C 55.0777,55.3298 55.0717,55.3528 55.0617,55.3738 C 55.0607,55.3748 55.0607,55.3778 55.0597,55.3788 Z" transform=""/><path fill="#f4953f" stroke="none" d="M 43.1841,57.6151 L 33.6501,55.4881 C 33.4991,55.4521 33.4061,55.3631 33.4061,55.2671 L 33.4061,55.3901 C 33.4061,55.4861 33.5001,55.5751 33.6501,55.6101 L 43.1841,57.7371 L 43.1841,57.6151 Z" transform=""/><path fill="#f4953f" stroke="none" d="M 53.5561,59.7455 C 53.5481,59.7525 53.5391,59.7605 53.5311,59.7665 C 53.5161,59.7765 53.5001,59.7855 53.4841,59.7945 C 53.4741,59.7995 53.4631,59.8055 53.4521,59.8105 C 53.4331,59.8175 53.4111,59.8245 53.3891,59.8295 C 53.3801,59.8325 53.3691,59.8355 53.3581,59.8385 C 53.3251,59.8445 53.2901,59.8485 53.2541,59.8485 C 53.2141,59.8485 53.1711,59.8445 53.1321,59.8335 L 44.2941,57.8625 L 35.1181,59.8965 C 35.0791,59.9055 35.0381,59.9095 34.9951,59.9095 C 34.8431,59.9095 34.7001,59.8485 34.6481,59.7545 C 34.6341,59.7285 34.6281,59.7035 34.6281,59.6775 L 34.6281,59.8005 C 34.6281,59.8255 34.6341,59.8515 34.6481,59.8765 C 34.7001,59.9705 34.8421,60.0315 34.9951,60.0315 C 35.0381,60.0315 35.0781,60.0275 35.1181,60.0185 L 44.2941,57.9855 L 53.1321,59.9565 C 53.1721,59.9665 53.2151,59.9705 53.2541,59.9705 C 53.2901,59.9705 53.3251,59.9665 53.3581,59.9605 C 53.3691,59.9595 53.3791,59.9555 53.3891,59.9525 C 53.4111,59.9475 53.4331,59.9405 53.4521,59.9325 C 53.4641,59.9275 53.4741,59.9225 53.4841,59.9175 C 53.5001,59.9095 53.5171,59.9005 53.5311,59.8895 C 53.5401,59.8825 53.5481,59.8755 53.5561,59.8685 C 53.5611,59.8645 53.5691,59.8595 53.5741,59.8545 C 53.5841,59.8425 53.5931,59.8295 53.6001,59.8175 C 53.6011,59.8165 53.6021,59.8145 53.6021,59.8135 C 53.6091,59.8005 53.6131,59.7875 53.6171,59.7745 C 53.6201,59.7635 53.6211,59.7515 53.6211,59.7395 L 53.6211,59.6175 C 53.6211,59.6425 53.6141,59.6705 53.6001,59.6955 C 53.5901,59.7125 53.5741,59.7285 53.5561,59.7455 Z" transform=""/><path fill="#f4953f" stroke="none" d="M 53.3122,61.2246 C 53.3032,61.2436 53.2882,61.2596 53.2722,61.2766 C 53.2572,61.2916 53.2402,61.3026 53.2212,61.3156 C 53.2112,61.3216 53.2032,61.3286 53.1922,61.3346 C 53.1602,61.3506 53.1242,61.3646 53.0822,61.3736 L 45.0342,63.1536 L 45.0342,63.2756 L 53.0822,61.4956 C 53.1242,61.4876 53.1602,61.4736 53.1922,61.4566 C 53.2032,61.4506 53.2122,61.4436 53.2212,61.4386 C 53.2402,61.4256 53.2582,61.4136 53.2722,61.3986 C 53.2752,61.3956 53.2802,61.3936 53.2832,61.3916 C 53.2942,61.3776 53.3042,61.3636 53.3112,61.3496 C 53.3112,61.3486 53.3112,61.3486 53.3122,61.3476 C 53.3122,61.3466 53.3122,61.3466 53.3132,61.3456 C 53.3182,61.3356 53.3232,61.3236 53.3262,61.3116 C 53.3292,61.3006 53.3302,61.2896 53.3302,61.2776 L 53.3302,61.1546 C 53.3302,61.1786 53.3242,61.2016 53.3132,61.2236 C 53.3132,61.2236 53.3132,61.2236 53.3122,61.2246 Z" transform=""/><path fill="#f4953f" stroke="none" d="M 42.8001,63.1552 L 35.2621,61.4972 C 35.1111,61.4632 35.0171,61.3722 35.0171,61.2772 L 35.0171,61.4002 C 35.0171,61.4962 35.1111,61.5862 35.2621,61.6192 L 42.8001,63.2772 L 42.8001,63.1552 Z" transform=""/><path fill="#f4953f" stroke="none" d="M 51.9056,64.9751 C 51.8976,64.9831 51.8886,64.9901 51.8796,64.9971 C 51.8656,65.0061 51.8496,65.0151 51.8336,65.0251 C 51.8226,65.0311 51.8126,65.0361 51.8006,65.0411 C 51.7816,65.0481 51.7606,65.0541 51.7386,65.0601 C 51.7286,65.0631 51.7186,65.0661 51.7066,65.0681 C 51.6736,65.0741 51.6386,65.0781 51.6026,65.0781 C 51.5626,65.0781 51.5236,65.0731 51.4836,65.0651 L 43.9186,63.4001 L 36.6716,65.0041 C 36.6286,65.0131 36.5886,65.0171 36.5486,65.0171 C 36.3966,65.0171 36.2536,64.9561 36.2016,64.8591 C 36.1876,64.8341 36.1806,64.8081 36.1806,64.7831 L 36.1806,64.9041 C 36.1806,64.9301 36.1876,64.9561 36.2016,64.9821 C 36.2536,65.0781 36.3956,65.1401 36.5486,65.1401 C 36.5886,65.1401 36.6286,65.1351 36.6716,65.1271 L 43.9186,63.5231 L 51.4836,65.1891 C 51.5236,65.1961 51.5626,65.2011 51.6026,65.2011 C 51.6386,65.2011 51.6736,65.1971 51.7066,65.1911 C 51.7176,65.1901 51.7276,65.1871 51.7386,65.1841 C 51.7596,65.1791 51.7816,65.1731 51.8006,65.1641 C 51.8126,65.1591 51.8226,65.1541 51.8336,65.1481 C 51.8496,65.1411 51.8656,65.1311 51.8806,65.1201 C 51.8896,65.1131 51.8976,65.1061 51.9066,65.0981 C 51.9126,65.0941 51.9196,65.0901 51.9246,65.0841 C 51.9346,65.0721 51.9446,65.0591 51.9516,65.0461 C 51.9526,65.0451 51.9526,65.0441 51.9536,65.0431 C 51.9606,65.0301 51.9646,65.0171 51.9686,65.0041 C 51.9716,64.9941 51.9726,64.9821 51.9726,64.9711 L 51.9726,64.8491 C 51.9726,64.8731 51.9656,64.9001 51.9516,64.9241 C 51.9386,64.9421 51.9226,64.9581 51.9056,64.9751 Z" transform=""/><path fill="#f4953f" stroke="none" d="M 51.1749,67.4386 C 51.1649,67.4576 51.1509,67.4736 51.1349,67.4896 C 51.1199,67.5046 51.1019,67.5166 51.0819,67.5296 C 51.0729,67.5356 51.0649,67.5426 51.0549,67.5476 C 51.0229,67.5636 50.9869,67.5776 50.9459,67.5866 L 45.0719,68.9036 L 45.0719,69.0256 L 50.9459,67.7086 C 50.9869,67.7006 51.0219,67.6866 51.0549,67.6696 C 51.0649,67.6646 51.0719,67.6576 51.0819,67.6526 C 51.1019,67.6396 51.1199,67.6266 51.1349,67.6116 C 51.1369,67.6086 51.1409,67.6066 51.1439,67.6056 C 51.1559,67.5916 51.1659,67.5776 51.1739,67.5626 C 51.1739,67.5616 51.1739,67.5606 51.1749,67.5606 C 51.1759,67.5596 51.1759,67.5586 51.1769,67.5576 C 51.1819,67.5466 51.1859,67.5356 51.1889,67.5246 C 51.1919,67.5126 51.1929,67.5016 51.1929,67.4906 L 51.1929,67.3686 C 51.1929,67.3916 51.1869,67.4146 51.1759,67.4366 C 51.1759,67.4366 51.1759,67.4376 51.1749,67.4386 Z" transform=""/><path fill="#f4953f" stroke="none" d="M 42.8462,68.9078 L 37.1082,67.6498 C 36.9552,67.6168 36.8592,67.5268 36.8592,67.4298 L 36.8592,67.5518 C 36.8592,67.6488 36.9552,67.7388 37.1082,67.7728 L 42.8462,69.0298 L 42.8462,68.9078 Z" transform=""/><path fill="#f4953f" stroke="none" d="M 50.1572,70.3291 C 50.1492,70.3361 50.1412,70.3441 50.1322,70.3501 C 50.1182,70.3601 50.1012,70.3701 50.0852,70.3781 C 50.0742,70.3841 50.0642,70.3891 50.0532,70.3941 C 50.0342,70.4021 50.0122,70.4071 49.9902,70.4131 C 49.9812,70.4161 49.9702,70.4191 49.9592,70.4221 C 49.9262,70.4281 49.8912,70.4321 49.8552,70.4321 C 49.8152,70.4321 49.7732,70.4271 49.7332,70.4191 L 43.9622,69.1531 L 38.0322,70.4801 C 37.9922,70.4881 37.9492,70.4931 37.9092,70.4931 C 37.7572,70.4931 37.6142,70.4341 37.5612,70.3381 C 37.5482,70.3121 37.5412,70.2861 37.5412,70.2601 L 37.5412,70.3831 C 37.5412,70.4081 37.5482,70.4351 37.5612,70.4601 C 37.6142,70.5561 37.7562,70.6161 37.9092,70.6161 C 37.9492,70.6161 37.9922,70.6111 38.0322,70.6031 L 43.9622,69.2761 L 49.7332,70.5431 C 49.7722,70.5511 49.8152,70.5551 49.8552,70.5551 C 49.8922,70.5551 49.9262,70.5511 49.9592,70.5451 C 49.9702,70.5441 49.9802,70.5401 49.9902,70.5371 C 50.0132,70.5311 50.0342,70.5251 50.0532,70.5171 C 50.0652,70.5121 50.0752,70.5071 50.0852,70.5021 C 50.1012,70.4941 50.1182,70.4841 50.1322,70.4731 C 50.1412,70.4661 50.1492,70.4591 50.1572,70.4521 C 50.1632,70.4481 50.1702,70.4441 50.1752,70.4381 C 50.1852,70.4251 50.1952,70.4121 50.2022,70.3991 C 50.2032,70.3981 50.2032,70.3971 50.2042,70.3951 C 50.2112,70.3821 50.2152,70.3691 50.2192,70.3561 C 50.2222,70.3461 50.2232,70.3341 50.2232,70.3221 L 50.2232,70.2001 C 50.2232,70.2251 50.2162,70.2511 50.2022,70.2751 C 50.1922,70.2951 50.1752,70.3121 50.1572,70.3291 Z" transform=""/><path fill="#f4953f" stroke="none" d="M 49.0396,73.5918 C 49.0306,73.6108 49.0156,73.6268 48.9996,73.6438 C 48.9856,73.6578 48.9676,73.6698 48.9496,73.6818 C 48.9396,73.6878 48.9326,73.6958 48.9216,73.7008 C 48.8906,73.7158 48.8556,73.7308 48.8156,73.7408 L 45.3646,74.5518 L 45.3646,74.6738 L 48.8156,73.8628 C 48.8556,73.8538 48.8906,73.8398 48.9216,73.8228 C 48.9326,73.8168 48.9406,73.8098 48.9506,73.8038 C 48.9686,73.7918 48.9856,73.7788 48.9996,73.7648 C 49.0016,73.7618 49.0066,73.7598 49.0086,73.7588 C 49.0196,73.7448 49.0296,73.7308 49.0376,73.7158 C 49.0376,73.7148 49.0386,73.7138 49.0386,73.7128 C 49.0396,73.7118 49.0396,73.7108 49.0406,73.7088 C 49.0456,73.6978 49.0506,73.6878 49.0526,73.6768 C 49.0556,73.6648 49.0566,73.6548 49.0566,73.6428 L 49.0566,73.5208 C 49.0566,73.5438 49.0506,73.5658 49.0406,73.5868 C 49.0406,73.5888 49.0406,73.5898 49.0396,73.5918 Z" transform=""/><path fill="#f4953f" stroke="none" d="M 43.2732,74.5459 L 38.6512,73.4319 C 38.5052,73.3969 38.4152,73.3089 38.4152,73.2149 L 38.4152,73.3369 C 38.4152,73.4309 38.5052,73.5189 38.6512,73.5549 L 43.2732,74.6679 L 43.2732,74.5459 Z" transform=""/><path fill="#f4953f" stroke="none" d="M 48.017,75.4999 C 48.009,75.5079 48,75.5149 47.991,75.5219 C 47.976,75.5309 47.96,75.5399 47.944,75.5489 C 47.933,75.5539 47.923,75.5599 47.912,75.5649 C 47.893,75.5719 47.871,75.5779 47.85,75.5829 C 47.84,75.5859 47.83,75.5889 47.819,75.5909 C 47.786,75.5969 47.752,75.6009 47.716,75.6009 C 47.673,75.6009 47.63,75.5969 47.587,75.5859 L 44.317,74.7979 L 39.393,75.9539 C 39.354,75.9649 39.311,75.9689 39.268,75.9689 C 39.119,75.9689 38.977,75.9119 38.92,75.8179 C 38.905,75.7919 38.898,75.7649 38.898,75.7389 L 38.898,75.8609 C 38.898,75.8879 38.905,75.9139 38.92,75.9409 C 38.976,76.0349 39.119,76.0919 39.268,76.0919 C 39.311,76.0919 39.354,76.0879 39.393,76.0769 L 44.317,74.9199 L 47.587,75.7089 C 47.63,75.7189 47.673,75.7229 47.716,75.7229 C 47.752,75.7229 47.786,75.7189 47.819,75.7139 C 47.83,75.7119 47.839,75.7089 47.85,75.7059 C 47.871,75.7009 47.893,75.6949 47.912,75.6869 C 47.923,75.6819 47.933,75.6769 47.944,75.6709 C 47.96,75.6639 47.976,75.6549 47.991,75.6439 C 48,75.6369 48.008,75.6289 48.017,75.6219 C 48.023,75.6179 48.032,75.6129 48.037,75.6069 C 48.046,75.5959 48.054,75.5849 48.062,75.5729 C 48.064,75.5709 48.066,75.5669 48.068,75.5639 C 48.075,75.5509 48.08,75.5369 48.083,75.5239 C 48.085,75.5139 48.087,75.5019 48.087,75.4909 L 48.087,75.3689 C 48.087,75.3959 48.079,75.4239 48.062,75.4509 C 48.05,75.4679 48.035,75.4839 48.017,75.4999 Z" transform=""/><path fill="#f4953f" stroke="none" d="M 47.1932,79.6844 C 47.1842,79.7034 47.1702,79.7194 47.1542,79.7364 C 47.1402,79.7514 47.1212,79.7624 47.1032,79.7754 C 47.0942,79.7814 47.0872,79.7874 47.0782,79.7924 C 47.0472,79.8084 47.0132,79.8224 46.9742,79.8314 L 44.8852,80.3224 L 44.8852,80.4444 L 46.9742,79.9534 C 47.0132,79.9444 47.0472,79.9314 47.0782,79.9154 C 47.0882,79.9094 47.0962,79.9024 47.1052,79.8974 C 47.1232,79.8854 47.1412,79.8734 47.1552,79.8584 C 47.1572,79.8564 47.1612,79.8544 47.1632,79.8524 C 47.1752,79.8394 47.1842,79.8254 47.1922,79.8104 C 47.1922,79.8094 47.1932,79.8084 47.1932,79.8074 C 47.1942,79.8054 47.1942,79.8034 47.1962,79.8024 C 47.2002,79.7924 47.2052,79.7824 47.2072,79.7714 C 47.2102,79.7594 47.2112,79.7484 47.2112,79.7364 L 47.2112,79.6144 C 47.2112,79.6374 47.2052,79.6584 47.1952,79.6794 C 47.1952,79.6794 47.1942,79.6814 47.1932,79.6844 Z" transform=""/><path fill="#f4953f" stroke="none" d="M 42.8834,80.2976 L 40.1954,79.5826 C 40.0534,79.5466 39.9684,79.4596 39.9684,79.3676 L 39.9684,79.4906 C 39.9684,79.5816 40.0544,79.6686 40.1954,79.7046 L 42.8834,80.4196 L 42.8834,80.2976 Z" transform=""/><path fill="#f4953f" stroke="none" d="M 46.6555,81.1018 C 46.6475,81.1088 46.6395,81.1168 46.6305,81.1238 C 46.6165,81.1328 46.5995,81.1408 46.5835,81.1488 C 46.5735,81.1538 46.5635,81.1598 46.5515,81.1648 C 46.5335,81.1718 46.5125,81.1768 46.4905,81.1818 C 46.4805,81.1848 46.4705,81.1888 46.4585,81.1908 C 46.4265,81.1968 46.3925,81.2008 46.3575,81.2008 C 46.3115,81.2008 46.2615,81.1938 46.2145,81.1818 L 43.8755,80.5608 L 40.9495,81.2468 C 40.9065,81.2568 40.8635,81.2618 40.8205,81.2618 C 40.6715,81.2618 40.5325,81.2048 40.4765,81.1108 C 40.4615,81.0828 40.4545,81.0568 40.4545,81.0298 L 40.4545,81.1518 C 40.4545,81.1778 40.4615,81.2068 40.4765,81.2328 C 40.5325,81.3268 40.6715,81.3838 40.8205,81.3838 C 40.8635,81.3838 40.9065,81.3798 40.9495,81.3688 L 43.8755,80.6838 L 46.2145,81.3048 C 46.2605,81.3168 46.3105,81.3228 46.3575,81.3228 C 46.3925,81.3228 46.4265,81.3198 46.4585,81.3148 C 46.4705,81.3128 46.4805,81.3088 46.4915,81.3058 C 46.5125,81.3008 46.5325,81.2958 46.5505,81.2878 C 46.5625,81.2828 46.5735,81.2768 46.5835,81.2708 C 46.5995,81.2638 46.6145,81.2558 46.6295,81.2458 C 46.6385,81.2388 46.6475,81.2308 46.6565,81.2228 C 46.6645,81.2168 46.6735,81.2108 46.6795,81.2038 C 46.6865,81.1958 46.6925,81.1878 46.6985,81.1798 C 46.7015,81.1748 46.7045,81.1708 46.7065,81.1658 C 46.7135,81.1518 46.7195,81.1388 46.7225,81.1258 C 46.7255,81.1138 46.7265,81.1018 46.7265,81.0898 L 46.7265,80.9678 C 46.7265,80.9968 46.7175,81.0278 46.6985,81.0568 C 46.6875,81.0748 46.6715,81.0878 46.6555,81.1018 Z" transform=""/><path fill="#f4953f" stroke="none" d="M 40.3376,79.1349 C 40.3836,79.1349 40.4316,79.1409 40.4766,79.1529 L 43.8886,80.0609 L 46.7146,79.3959 C 46.7566,79.3859 46.8006,79.3819 46.8426,79.3819 C 46.9936,79.3819 47.1336,79.4399 47.1876,79.5319 C 47.2566,79.6529 47.1606,79.7869 46.9716,79.8309 L 44.8836,80.3219 L 46.4986,80.7519 C 46.6866,80.8019 46.7726,80.9389 46.6976,81.0579 C 46.6376,81.1459 46.5026,81.2009 46.3566,81.2009 C 46.3106,81.2009 46.2606,81.1939 46.2136,81.1819 L 43.8746,80.5609 L 40.9486,81.2469 C 40.9056,81.2569 40.8626,81.2619 40.8196,81.2619 C 40.6706,81.2619 40.5316,81.2049 40.4756,81.1109 C 40.4066,80.9889 40.5026,80.8549 40.6946,80.8109 L 42.8816,80.2979 L 40.1936,79.5829 C 40.0056,79.5349 39.9156,79.3959 39.9946,79.2789 C 40.0576,79.1879 40.1946,79.1349 40.3376,79.1349 Z" transform=""/><path fill="#f4953f" stroke="none" d="M 56.429,51.883 C 56.429,52.289 56.1,52.619 55.693,52.619 L 32.652,52.619 C 32.246,52.619 31.917,52.289 31.917,51.883 L 31.917,51.025 C 31.917,50.619 32.246,50.289 32.652,50.289 L 55.693,50.289 C 56.1,50.289 56.429,50.618 56.429,51.025 L 56.429,51.883 Z" transform=""/><path fill="#f89c44" stroke="none" d="M 61.5754,39.6881 C 61.5754,39.8911 61.1054,40.0561 60.5234,40.0561 L 27.5764,40.0561 C 26.9954,40.0561 26.5244,39.8921 26.5244,39.6881 L 26.5244,39.2591 C 26.5244,39.0561 26.9944,38.8921 27.5764,38.8921 L 60.5244,38.8921 C 61.1054,38.8921 61.5764,39.0561 61.5764,39.2591 L 61.5764,39.6881 Z" transform=""/><path fill="#c75e72" stroke="none" d="M 57.6025,5.10939 C 57.7245,5.13139 52.0115,3.16739 46.4125,4.41639 C 40.7825,5.30039 35.2665,9.39739 35.0665,13.1244 C 35.1635,12.6994 25.8945,14.9204 24.1015,21.5524 C 22.4485,27.6144 25.7085,28.5744 25.6175,28.6294 C 25.6275,28.4084 23.4365,31.7494 22.9465,34.6764 C 22.3645,37.6754 23.4845,40.2584 27.9625,40.1214 C 27.9395,40.2534 28.0935,41.8184 31.8285,40.6314 C 33.6835,40.0314 37.7655,38.8214 42.3105,38.7884 C 46.9445,38.6944 54.8965,41.9554 57.9945,42.3064 C 58.3445,42.3454 62.7765,42.7214 64.6395,37.9114 C 67.1715,30.6544 60.2435,23.1484 60.1185,23.6274 C 60.0095,23.6384 64.5035,23.4834 59.2275,18.3434 C 51.4605,12.3114 55.1865,7.03439 57.6025,5.10939 Z" transform=""/><path fill="#9a4757" stroke="none" d="M 35.0669,13.1237 C 35.1639,12.6987 25.8949,14.9187 24.1009,21.5517 C 22.4489,27.6137 25.7089,28.5737 25.6179,28.6287 C 25.6269,28.4067 23.4359,31.7477 22.9469,34.6757 C 22.3649,37.6737 23.4839,40.2567 27.9629,40.1197 C 27.9389,40.2527 28.0939,41.8177 31.8289,40.6307 C 35.1329,39.4497 43.5389,38.3177 52.1279,40.1777 C 45.0159,36.9147 40.5769,35.6527 37.7519,33.3687 C 34.9579,31.3807 33.7789,28.3717 33.9119,28.4307 C 37.7119,29.1107 42.6249,29.7847 46.4229,31.2977 C 50.2479,32.6447 52.9589,34.8287 52.9799,34.7197 C 53.4999,35.0637 54.2359,35.2907 54.6899,35.0637 C 57.2669,34.2717 52.8629,28.5957 47.3609,27.0207 C 41.9139,24.8837 34.9909,25.7687 33.0339,22.9377 C 30.5799,19.1557 35.4319,15.5857 35.5139,15.7177 C 39.2269,18.5027 43.8979,19.5557 47.7969,20.8257 C 51.6719,21.9467 54.7749,23.2857 54.7999,23.2247 C 56.1709,22.8157 54.0429,21.6997 54.0319,21.7227 C 47.1859,18.5887 44.2019,15.8257 43.5609,12.4097 C 42.8679,9.19274 44.5179,5.32074 45.7269,4.57074 C 41.0729,5.18374 35.4739,9.19774 35.0669,13.1237 Z" transform=""/></svg>