<svg xmlns="http://www.w3.org/2000/svg" version="1.1" width="88" height="108" viewBox="0 0 88 108"><defs/><path fill="#d1d3d4" stroke="none" d="M 65.5755,46.7702 C 65.2935,46.8832 65.1575,47.2062 65.2705,47.4872 C 65.3875,47.7702 65.7075,47.9052 65.9895,47.7912 C 66.0335,47.7742 70.3645,46.0552 73.1125,47.5262 C 74.2125,48.1142 74.9225,49.1622 75.2305,50.6432 L 75.9395,54.2682 C 76.7335,58.4892 77.0975,60.4152 78.9875,61.4652 C 79.2535,61.6132 79.5885,61.5172 79.7375,61.2512 C 79.8835,60.9852 79.7875,60.6502 79.5235,60.5012 C 78.0875,59.7042 77.7765,58.0512 77.0245,54.0642 L 76.3115,50.4202 C 75.9355,48.6032 75.0355,47.2992 73.6325,46.5522 C 70.4255,44.8392 65.7725,46.6902 65.5755,46.7702 Z" transform=""/><path fill="#304454" stroke="none" d="M 79.3855,64.8082 C 78.5525,63.5582 77.8345,61.4122 79.4965,60.3162 C 80.6555,59.5532 82.3505,59.8602 83.2825,61.8412 C 84.4925,64.4112 83.0995,65.7192 84.0005,67.4072 C 84.0005,67.4072 80.7355,66.8342 79.3855,64.8082 Z" transform=""/><path fill="#304454" stroke="none" d="M 76.6893,52.3586 L 76.3103,50.4216 C 75.9343,48.6036 75.0343,47.3006 73.6313,46.5536 C 73.6073,46.5406 73.5813,46.5296 73.5603,46.5176 C 73.6893,46.7756 73.8633,47.0016 74.0923,47.1616 C 75.2173,47.9496 75.7803,49.6376 75.7803,50.7646 C 75.7803,51.3286 76.1203,51.9516 76.6893,52.3586 Z" transform=""/><path fill="#d78334" stroke="none" d="M 46.804,99.7044 L 50.349,98.8454 L 50.671,95.5144 L 48.845,93.9034 L 47.343,95.2994 Z" transform=""/><path fill="#d1d3d4" stroke="none" d="M 56.2459,70.9714 S 52.3899,73.9224 54.4729,79.1724 C 55.5359,81.8514 53.6859,86.6434 52.6999,87.1524 C 49.5979,88.7474 47.9939,91.8004 47.7709,93.7954 C 47.7709,93.7954 55.1869,98.6954 57.2249,99.1664 C 60.1059,99.8314 60.6629,94.4404 58.0189,88.7024 C 57.0649,86.6294 58.0759,84.0504 59.4809,82.9454 C 62.5849,80.5084 63.1889,75.0854 61.4149,72.2034" transform=""/><path fill="#304454" stroke="none" d="M 57.2071,82.5072 C 56.5141,83.0452 56.9791,84.9032 57.7771,85.8042 C 58.0451,84.6232 58.7001,83.5582 59.4801,82.9462 C 61.0741,81.6942 62.0061,79.6552 62.2971,77.5762 L 60.9201,76.0902 L 59.1201,76.3162 S 56.8691,77.4412 57.2061,78.9052 C 57.5441,80.3672 58.2201,81.7182 57.2071,82.5072 Z" transform=""/><path fill="#f3b37c" stroke="none" d="M 45.8359,99.2746 S 45.5149,91.3256 51.3169,91.2166 C 55.7479,91.1336 58.3969,96.2576 58.6209,100.026 L 49.5969,100.134 L 48.0909,95.1906 L 46.8029,99.7036 L 45.8359,99.2746 Z" transform=""/><path fill="#d78334" stroke="none" d="M 18.6635,99.7044 L 22.2085,98.8454 L 22.5295,95.5144 L 20.7035,93.9034 L 19.1995,95.2994 Z" transform=""/><path fill="#d1d3d4" stroke="none" d="M 28.1045,70.9714 S 24.2495,73.9224 26.3325,79.1724 C 27.3945,81.8514 25.5435,86.6434 24.5575,87.1524 C 21.4555,88.7474 19.8505,91.8004 19.6295,93.7954 C 19.6295,93.7954 27.0445,98.6954 29.0815,99.1664 C 31.9615,99.8314 32.5205,94.4404 29.8765,88.7024 C 28.9235,86.6294 29.9335,84.0504 31.3385,82.9454 C 34.4425,80.5084 35.0445,75.0854 33.2735,72.2034" transform=""/><path fill="#304454" stroke="none" d="M 23.279,93.0365 S 25.136,88.3905 26.995,89.0875 S 27.692,91.4095 29.551,91.4095 C 31.409,91.4095 31.874,93.0365 31.874,93.0365 L 27.604,95.0025 L 23.279,93.0365 Z" transform=""/><path fill="#f3b37c" stroke="none" d="M 17.6964,99.2746 S 17.3754,91.3256 23.1744,91.2166 C 27.6064,91.1336 30.2564,96.2576 30.4794,100.026 L 21.4564,100.134 L 19.9524,95.1906 L 18.6644,99.7036 L 17.6964,99.2746 Z" transform=""/><path fill="#d78334" stroke="none" d="M 25.4635,101.08 L 29.1785,100.179 L 29.5165,96.6886 L 27.6025,95.0026 L 26.0265,96.4646 Z" transform=""/><path fill="#efefef" stroke="none" d="M 31.1762,45.6552 S 39.3252,49.0622 47.1882,48.9612 C 55.9682,48.8482 63.6212,40.1812 69.4992,44.7262 C 75.0142,48.9922 75.1532,78.2592 51.6132,81.6552 C 29.0862,84.9062 17.2482,66.9722 24.5632,57.1792 C 31.5812,47.7842 31.1762,45.6552 31.1762,45.6552 Z" transform=""/><path fill="#d1d3d4" stroke="none" d="M 72.1054,50.3171 C 69.6634,47.3031 67.4214,47.5511 67.4214,47.5511 L 69.3524,54.2041 S 71.2244,54.7871 72.5414,54.6391 C 72.5084,53.0831 72.3564,51.6241 72.1054,50.3171 Z" transform=""/><path fill="#d1d3d4" stroke="none" d="M 42.7977,75.6402 C 41.4477,72.1502 39.8707,72.4872 39.8707,72.4872 L 38.1187,80.9602 C 39.4727,81.3382 40.9037,81.6232 42.4087,81.8082 C 43.0087,80.2442 43.6307,77.7932 42.7977,75.6402 Z" transform=""/><path fill="#efefef" stroke="none" d="M 35.3579,70.9714 S 31.3169,74.0644 33.4979,79.5654 C 34.6119,82.3724 32.6749,87.3954 31.6409,87.9254 C 28.3889,89.5984 26.7079,92.7984 26.4769,94.8874 C 26.4769,94.8874 34.2479,100.022 36.3819,100.516 C 39.4019,101.212 39.9839,95.5624 37.2149,89.5514 C 36.2149,87.3814 37.2729,84.6754 38.7439,83.5194 C 41.9959,80.9654 42.6299,75.2824 40.7729,72.2614" transform=""/><path fill="#f3b37c" stroke="none" d="M 24.4501,100.628 S 24.1121,92.2991 30.1911,92.1861 C 34.8351,92.1001 37.6131,97.4681 37.8461,101.418 L 28.3891,101.53 L 26.8141,96.3521 L 25.4631,101.079 L 24.4501,100.628 Z" transform=""/><path fill="#304454" stroke="none" d="M 36.606,74.9639 C 35.964,73.7489 34.232,74.2139 33.052,74.7139 C 32.734,76.0169 32.738,77.6429 33.498,79.5649 C 34.01,80.8529 33.878,82.6079 33.485,84.1799 C 35.37,84.0819 35.791,82.9649 35.595,82.5059 C 35.256,81.7179 34.917,80.0279 35.595,79.1279 C 36.27,78.2289 37.62,76.8769 36.606,74.9639 Z" transform=""/><path fill="#d78334" stroke="none" d="M 53.606,101.08 L 57.319,100.179 L 57.658,96.6886 L 55.743,95.0026 L 54.168,96.4646 Z" transform=""/><path fill="#efefef" stroke="none" d="M 68.3515,47.4987 S 73.3035,50.7637 74.2045,57.4047 C 75.1045,64.0457 68.9135,72.2627 68.9135,72.2627 C 70.7715,75.2837 70.1385,80.9667 66.8875,83.5207 C 65.4145,84.6757 64.3585,87.3817 65.3565,89.5527 C 68.1245,95.5627 67.5425,101.214 64.5215,100.518 C 62.3875,100.024 54.6175,94.8887 54.6175,94.8887 C 54.8495,92.7987 56.5305,89.5977 59.7815,87.9257 C 60.8145,87.3957 62.7525,82.3717 61.6385,79.5667 C 59.4565,74.0657 63.4975,70.9727 63.4975,70.9727 S 55.6305,67.5367 56.3055,60.3317 C 56.9815,53.1257 63.8475,45.9227 68.3515,47.4987 Z" transform=""/><path fill="#f3b37c" stroke="none" d="M 52.5926,100.628 S 52.2526,92.2991 58.3326,92.1861 C 62.9766,92.1001 65.7556,97.4681 65.9886,101.418 L 56.5326,101.53 L 54.9566,96.3521 L 53.6056,101.079 L 52.5926,100.628 Z" transform=""/><path fill="#304454" stroke="none" d="M 64.7474,74.9639 C 64.1054,73.7489 62.3724,74.2139 61.1924,74.7139 C 60.8754,76.0169 60.8784,77.6429 61.6384,79.5649 C 62.1494,80.8529 62.0184,82.6079 61.6254,84.1799 C 63.5094,84.0819 63.9314,82.9649 63.7364,82.5059 C 63.3974,81.7179 63.0594,80.0279 63.7364,79.1279 C 64.4104,78.2289 65.7604,76.8769 64.7474,74.9639 Z" transform=""/><path fill="#304454" stroke="none" d="M 43.7047,51.6696 C 44.0297,50.5016 46.1817,48.2936 47.5327,49.7566 C 49.3207,51.6936 47.4207,52.6836 47.9817,53.6966 C 48.5447,54.7086 50.0077,53.9216 50.5717,55.0466 C 51.1347,56.1726 49.2217,58.0866 46.9707,56.9606 C 44.7177,55.8346 43.1427,53.6966 43.7047,51.6696 Z" transform=""/><path fill="#304454" stroke="none" d="M 74.2889,58.5356 C 73.8069,57.5086 73.1329,56.5966 72.2909,56.7296 C 70.1539,57.0676 69.9279,59.2056 70.9399,60.8936 C 71.9539,62.5826 70.8259,63.7076 69.8149,63.7076 C 68.8009,63.7076 66.3689,63.2766 65.7609,64.7216 C 64.8619,66.8596 67.8999,68.9986 70.1529,67.0856 C 71.0339,66.3356 71.8639,65.9486 72.6019,65.8026 C 73.5739,63.5526 74.3409,60.9776 74.2889,58.5356 Z" transform=""/><path fill="#304454" stroke="none" d="M 62.5314,89.7843 C 62.0684,91.6423 64.8194,91.1663 65.6104,92.4833 C 66.1094,93.3173 66.4654,94.9193 67.0774,95.5563 C 66.9004,93.7773 66.3394,91.6893 65.3564,89.5513 C 65.2664,89.3563 65.2004,89.1583 65.1404,88.9553 C 63.9594,88.8023 62.7564,88.8863 62.5314,89.7843 Z" transform=""/><path fill="#304454" stroke="none" d="M 61.0093,44.4536 C 56.8503,46.0436 52.2023,48.8986 47.1893,48.9616 C 46.5683,48.9696 45.9453,48.9536 45.3263,48.9236 C 45.3433,48.9526 45.3623,48.9846 45.3803,49.0136 C 43.3823,48.8086 40.3363,51.1216 40.2103,52.9836 C 39.9923,56.2866 41.9913,58.1846 39.6643,59.9656 C 37.3363,61.7456 41.1703,65.8516 42.5403,64.2086 C 42.9363,63.7326 43.5803,63.5816 44.2843,63.5176 C 43.9123,65.4546 46.7183,68.0226 47.8513,66.6646 C 48.7523,65.5836 50.9063,66.1486 52.2303,65.7066 C 54.2833,65.0236 54.2833,63.3796 55.1063,61.3266 C 55.9273,59.2726 57.9803,60.2326 58.8003,58.9996 C 59.6223,57.7676 57.8433,55.8516 56.0633,56.1246 C 54.5053,56.3626 54.4153,53.7716 52.3063,52.2036 C 55.3263,50.6196 56.5983,47.6336 59.2343,47.8376 C 61.4033,48.0026 62.0253,45.9436 61.0093,44.4536 Z" transform=""/><ellipse cx="29.151372682022412" cy="52.209788741236466" rx="9.16197507198411" ry="9.631213304635759" fill="#d1d3d4" stroke="none" r="NaN" transform=""/><ellipse cx="28.679177915426333" cy="61.84100061687919" rx="9.16197507198411" ry="9.631213304635759" fill="#d1d3d4" stroke="none" transform="rotate(7.9381 28.679178277425848 61.84100140900619)" r="NaN"/><path fill="#304454" stroke="none" d="M 23.4653,68.9742 C 24.4423,71.3752 26.0773,73.6972 28.3053,75.7012 C 29.9243,75.5392 30.5223,73.1572 29.6293,72.2632 C 28.6153,71.2502 27.6033,71.9252 26.8153,70.9132 C 26.0273,69.8992 27.1533,68.0992 25.5753,67.5372 C 24.7263,67.2322 23.9783,68.1042 23.4653,68.9742 Z" transform=""/><path fill="#304454" stroke="none" d="M 31.9481,41.9772 S 32.2361,33.2122 38.2791,32.9962 C 44.3231,32.7832 48.9241,38.3422 46.0491,41.5482 C 43.1701,44.7552 33.9651,44.5412 33.9651,44.5412 L 31.9481,41.9772 Z" transform=""/><path fill="#304454" stroke="none" d="M 16.2237,37.0473 S 8.73066,30.5603 5.50766,33.7613 C 2.28666,36.9653 4.62566,43.7453 8.76366,44.5733 C 12.9017,45.4033 17.3587,40.1143 17.3587,40.1143 L 16.2237,37.0473 Z" transform=""/><ellipse cx="23.442636695414368" cy="47.23941251621645" rx="13.747891581008219" ry="15.243341998933749" fill="#efefef" stroke="none" r="NaN" transform=""/><path fill="#304454" stroke="none" d="M 33.7373,37.1439 C 31.2183,33.9869 27.5423,31.9949 23.4423,31.9949 C 22.5933,31.9949 21.7673,32.0849 20.9603,32.2499 C 20.2363,33.3009 19.7573,34.5679 19.9373,35.4469 C 20.3823,37.5949 22.0203,37.5249 23.6813,36.6729 C 25.3393,35.8169 27.7833,35.9649 29.2623,37.8909 C 30.0953,38.9679 33.7553,39.3949 33.7373,37.1439 Z" transform=""/><path fill="#f4dbc5" stroke="none" d="M 28.9099,36.0999 C 28.1549,35.5939 27.7469,35.2229 27.5959,34.3149 C 27.5959,34.3149 29.0849,32.5029 29.1019,30.9229 C 29.1249,28.9939 27.9509,27.1719 28.4539,26.6409 C 28.9349,26.1299 31.6249,26.6029 32.4629,30.2989 C 33.1369,33.2839 31.1869,36.5979 31.1869,36.5979 S 29.9389,36.7859 28.9099,36.0999 Z" transform=""/><path fill="#f4dbc5" stroke="none" d="M 18.2071,36.0999 C 18.9621,35.5939 19.3711,35.2229 19.5201,34.3149 C 19.5201,34.3149 18.0331,32.5029 18.0131,30.9229 C 17.9921,28.9939 19.1661,27.1719 18.6651,26.6409 C 18.1841,26.1299 15.4901,26.6029 14.6551,30.2989 C 13.9811,33.2839 15.9301,36.5979 15.9301,36.5979 S 17.1791,36.7859 18.2071,36.0999 Z" transform=""/><ellipse cx="17.016242778732504" cy="52.332026168722344" rx="1.0666297641367342" ry="1.4826350880421884" fill="#304454" stroke="none" transform="rotate(1.5587 17.016242288976954 52.3320266355654)" r="NaN"/><ellipse cx="29.745807696485354" cy="52.02150222148575" rx="1.0666297641367342" ry="1.4826350880421884" fill="#304454" stroke="none" transform="rotate(1.5587 29.745808041562576 52.02150133454592)" r="NaN"/><path fill="#f4dbc5" stroke="none" d="M 34.8,62.3339 C 34.8,67.0389 29.78,70.8509 23.589,70.8509 C 17.401,70.8509 12.383,67.0389 12.383,62.3339 S 17.401,53.8139 23.589,53.8139 C 29.781,53.8149 34.8,57.6289 34.8,62.3339 Z" transform=""/><ellipse cx="13.783821751001396" cy="60.855206245499915" rx="2.631085804511038" ry="1.999191461801568" fill="#f4dbc5" stroke="none" transform="rotate(24.8096 13.783821774555188 60.855206802595156)" r="NaN"/><ellipse cx="14.561613494272521" cy="61.89423413294743" rx="2.233810578127393" ry="1.697538312239793" fill="#c75e72" stroke="none" style="opacity: 0.7" opacity="0.7" transform="rotate(40.5186 14.561613719013488 61.89423431775238)" r="NaN"/><ellipse cx="33.40310501878011" cy="60.442159568944376" rx="2.631085804511038" ry="1.999191461801568" fill="#f4dbc5" stroke="none" transform="rotate(-14.7325 33.40310603134749 60.44215886250893)" r="NaN"/><ellipse cx="32.73769417652251" cy="61.1371423409365" rx="2.233810578127393" ry="1.697538312239793" fill="#c75e72" stroke="none" style="opacity: 0.7" opacity="0.7" transform="rotate(-35.0728 32.737694672020055 61.13714406002871)" r="NaN"/><path fill="#304454" stroke="none" d="M 61.3179,78.4881 C 60.6249,76.6811 59.2789,75.4301 58.4529,76.6831 C 58.0069,77.3601 57.3479,77.5391 56.6379,77.5831 C 57.2189,74.7341 54.6979,70.7161 53.4229,72.6501 C 52.4059,74.1901 50.3189,73.1931 48.9509,73.7541 C 46.8299,74.6201 46.6509,77.0601 45.6089,80.0491 C 45.1489,81.3711 44.5109,81.8001 43.8619,82.0211 C 46.3829,82.2401 49.0949,82.1771 51.9869,81.7591 C 55.6469,81.2311 58.7329,80.0761 61.3179,78.4881 Z" transform=""/></svg>