<svg xmlns="http://www.w3.org/2000/svg" version="1.1" width="109.99999999999999" height="95" viewBox="0 0 109.99999999999999 95"><defs/><path fill="#4d677a" stroke="none" d="M 78.5093,44.6163 S 81.2743,42.6193 81.8103,42.9263 C 82.3483,43.2333 81.8883,45.2303 81.8883,45.2303 L 78.5093,44.6163 Z" transform=""/><path fill="#bdcccc" stroke="none" d="M 81.5013,57.1358 S 82.8993,57.4848 83.7733,56.7848 C 84.6443,56.0878 83.9463,54.4258 83.9463,54.4258 L 81.5013,57.1358 Z" transform=""/><path fill="#4d677a" stroke="none" d="M 47.8688,66.6569 S 44.3748,68.9269 43.2388,71.2859 C 43.2388,71.2859 50.1398,67.5299 53.8098,67.4429 C 53.8098,67.4429 49.8778,66.6569 47.8688,66.6569 Z" transform=""/><path fill="#4d677a" stroke="none" d="M 57.562,41.0953 S 63.988,33.6643 69.511,34.7673 C 69.511,34.7673 64.935,39.5603 65.67,43.1913 C 65.695,43.3133 65.725,43.4343 65.763,43.5543 C 66.901,47.2183 57.562,41.0953 57.562,41.0953 Z" transform=""/><path fill="#7a3440" stroke="none" d="M 43.9094,55.8426 S 38.1154,63.6076 39.8774,65.4906 C 42.6344,65.3786 47.6154,63.4336 47.6154,63.4336 L 51.4414,60.0336 L 43.9094,55.8426 Z" transform=""/><path fill="#4d677a" stroke="none" d="M 90.1244,43.8865 C 89.8554,40.6575 90.9764,36.4065 91.8224,33.0125 L 90.1974,32.2575 L 92.3924,31.0535 C 93.2364,28.5345 94.5054,26.0545 96.3334,23.7135 C 96.3334,23.7135 91.0514,26.0405 86.9414,30.2615 C 83.1254,34.1765 84.8544,44.4135 84.8544,44.4135 S 68.8584,44.6025 55.4964,39.1435 C 39.2754,32.5205 24.5454,24.6905 25.0104,31.4295 C 25.3864,36.8885 31.9734,50.2485 34.9854,52.3195 C 37.9954,54.3875 47.7084,57.1895 47.4054,58.3425 C 46.4644,61.9155 38.9374,64.5505 39.8774,65.4915 C 40.8194,66.4325 69.2344,76.9715 86.5474,51.5655 C 86.5474,51.5655 93.4704,60.2105 100,60.1295 C 93.0634,53.2735 91.8394,50.0915 90.1244,43.8865 Z" transform=""/><path fill="#fffdfd" stroke="none" d="M 45.8537,56.8745 S 45.7327,58.5145 45.9137,58.6975 C 46.0947,58.8805 46.9457,57.5445 46.9457,57.5445 L 45.8537,56.8745 Z" transform=""/><path fill="#fffdfd" stroke="none" d="M 44.0871,55.837 S 43.9641,57.477 44.1481,57.66 C 44.3291,57.842 45.1801,56.505 45.1801,56.505 L 44.0871,55.837 Z" transform=""/><path fill="#fffdfd" stroke="none" d="M 42.5947,63.868 S 41.3887,62.752 41.1307,62.782 C 40.8747,62.81 41.3907,64.309 41.3907,64.309 L 42.5947,63.868 Z" transform=""/><path fill="#bdcccc" stroke="none" d="M 88.6176,45.7311 S 82.7726,58.3481 65.7626,57.8701 C 48.9106,57.3991 34.2326,40.2741 30.4686,35.7571 C 27.8886,32.6631 26.1276,30.8251 25.0386,30.6861 C 25.0076,30.9121 24.9926,31.1571 25.0116,31.4301 C 25.3876,36.8881 31.9736,50.2481 34.9856,52.3191 C 37.9966,54.3881 47.7096,57.1891 47.4056,58.3421 C 46.4636,61.9161 38.9376,64.5511 39.8776,65.4911 C 40.8126,66.4271 69.5276,77.0931 86.5476,51.5651 C 87.7866,48.5401 88.6176,45.7311 88.6176,45.7311 Z" transform=""/><path fill="#688da7" stroke="none" d="M 53.9285,43.3789 S 55.1785,46.4449 52.6385,50.0959 C 52.6385,50.0959 53.9975,46.6499 53.9285,43.3789 Z" transform=""/><path fill="#688da7" stroke="none" d="M 55.2361,44.3901 S 56.4851,47.4551 53.9461,51.1071 C 53.9461,51.1071 55.3051,47.6611 55.2361,44.3901 Z" transform=""/><path fill="#688da7" stroke="none" d="M 56.2942,45.3725 S 57.5452,48.4365 55.0042,52.0895 C 55.0052,52.0895 56.3632,48.6415 56.2942,45.3725 Z" transform=""/><path fill="#304454" stroke="none" d="M 61.4783,62.0832 C 60.9763,58.7692 59.5703,58.7692 59.2683,56.1572 C 59.2683,56.1572 59.3663,55.9762 59.4703,55.7562 C 59.4703,55.7562 67.1003,61.1792 69.6123,61.8812 C 69.6123,61.8812 69.9283,68.2342 75.6373,69.9152 C 75.5873,70.0572 75.5873,70.1882 75.5873,70.3462 C 75.5873,70.3472 62.7453,70.4432 61.4783,62.0832 Z" transform=""/><path fill="#4d677a" stroke="none" d="M 61.6791,61.68 C 61.1771,58.367 59.7711,58.367 59.4701,55.757 C 59.4701,55.757 62.5831,57.161 64.7931,56.962 C 64.7931,56.962 67.3021,60.778 69.8131,61.482 C 69.8131,61.482 70.4151,67.505 75.6371,69.916 C 75.6371,69.916 62.9461,70.04 61.6791,61.68 Z" transform=""/><ellipse cx="47.94528333762633" cy="44.55260387041716" rx="0.9984013285698434" ry="1.6589557590442252" fill="#304454" stroke="none" r="NaN" transform=""/></svg>