<svg xmlns="http://www.w3.org/2000/svg" width="380" height="160" viewBox="0 0 380 160"><path fill="none" stroke="#000" d="M369.45 125.6c.35-2.1 4.2-5.25 5.25-5.6-1.05-.35-4.9-3.5-5.25-5.6" stroke-width="2" stroke-linejoin="round" stroke-linecap="round"/><path fill="none" stroke="#000" d="M5 120h368.95" stroke-width="2"/><path fill="none" stroke="#000" d="M12.05 114.4c-.35 2.1-4.2 5.25-5.25 5.6 1.05.35 4.9 3.5 5.25 5.6" stroke-width="2" stroke-linejoin="round" stroke-linecap="round"/><path fill="none" stroke="#000" d="M375 120H6.05M30 128v-16" stroke-width="2"/><path fill="none" stroke="#000" d="M30 128v-16M350 128v-16M239.15 128v-16M312.353 128v-16" stroke-width="3.5"/><path fill="none" stroke="#e84d39" d="M239.15 120A104.575 16 0 0 0 30 120" stroke-width="2" stroke-dasharray="0"/><path fill="none" stroke="#e84d39" d="M231.9 117.344c1.994-.747 6.647 1.012 7.475 1.747-.222-1.085.581-5.994 2.225-7.347" stroke-width="2" stroke-linejoin="round" stroke-linecap="round"/><path fill="none" stroke="#e84d39" d="M238.15 118.268l.475.823" stroke-width="2"/><path fill="none" stroke="#7854ab" d="M312.353 120a36.601 16 0 0 0-73.203 0" stroke-width="2" stroke-dasharray="0"/><path fill="none" stroke="#7854ab" d="M305.103 117.344c1.994-.747 6.647 1.013 7.475 1.747-.222-1.084.58-5.994 2.224-7.347" stroke-width="2" stroke-linejoin="round" stroke-linecap="round"/><path fill="none" stroke="#7854ab" d="M311.353 118.268l.475.823" stroke-width="2"/></svg>
