<svg xmlns="http://www.w3.org/2000/svg" width="380" height="160" viewBox="0 0 380 160"><path fill="none" stroke="#000" d="M369.45 125.6c.35-2.1 4.2-5.25 5.25-5.6-1.05-.35-4.9-3.5-5.25-5.6" stroke-width="2" stroke-linejoin="round" stroke-linecap="round"/><path fill="none" stroke="#000" d="M5 120h368.95" stroke-width="2"/><path fill="none" stroke="#000" d="M12.05 114.4c-.35 2.1-4.2 5.25-5.25 5.6 1.05.35 4.9 3.5 5.25 5.6" stroke-width="2" stroke-linejoin="round" stroke-linecap="round"/><path fill="none" stroke="#000" d="M375 120H6.05M30 128v-16" stroke-width="2"/><path fill="none" stroke="#000" d="M30 128v-16M350 128v-16M69.648 128v-16M163.099 128v-16" stroke-width="3.5"/><path fill="none" stroke="#e84d39" d="M69.648 120A19.824 16 0 0 0 30 120" stroke-width="2" stroke-dasharray="0"/><path fill="none" stroke="#e84d39" d="M62.398 117.344c1.993-.747 6.646 1.013 7.475 1.747-.222-1.084.58-5.994 2.224-7.347" stroke-width="2" stroke-linejoin="round" stroke-linecap="round"/><path fill="none" stroke="#e84d39" d="M68.648 118.268l.475.823" stroke-width="2"/><path fill="none" stroke="#7854ab" d="M163.099 120a46.725 16 0 0 0-93.451 0" stroke-width="2" stroke-dasharray="0"/><path fill="none" stroke="#7854ab" d="M155.849 117.345c1.993-.747 6.646 1.012 7.474 1.746-.221-1.084.582-5.993 2.225-7.346" stroke-width="2" stroke-linejoin="round" stroke-linecap="round"/><path fill="none" stroke="#7854ab" d="M162.099 118.268l.475.823" stroke-width="2"/></svg>
