<svg xmlns="http://www.w3.org/2000/svg" width="380" height="160" viewBox="0 0 380 160"><path fill="none" stroke="#000" d="M369.45 125.6c.35-2.1 4.2-5.25 5.25-5.6-1.05-.35-4.9-3.5-5.25-5.6" stroke-width="2" stroke-linejoin="round" stroke-linecap="round"/><path fill="none" stroke="#000" d="M5 120h368.95" stroke-width="2"/><path fill="none" stroke="#000" d="M12.05 114.4c-.35 2.1-4.2 5.25-5.25 5.6 1.05.35 4.9 3.5 5.25 5.6" stroke-width="2" stroke-linejoin="round" stroke-linecap="round"/><path fill="none" stroke="#000" d="M375 120H6.05M30 128v-16" stroke-width="2"/><path fill="none" stroke="#000" d="M30 128v-16M350 128v-16M70.252 128v-16M350 128v-16" stroke-width="3.5"/><path fill="none" stroke="#11accd" d="M30 120V80" stroke-width="2"/><path fill="none" stroke="#11accd" d="M345.15 113.7c2.1.35 5.25 4.2 5.6 5.25.35-1.05 3.5-4.9 5.6-5.25" stroke-width="2" stroke-linejoin="round" stroke-linecap="round"/><path fill="none" stroke="#11accd" d="M350 80v38.95" stroke-width="2"/><path fill="none" stroke="#11accd" d="M350 80a160 24 0 0 0-320 0" stroke-width="2" stroke-dasharray="0"/><path fill="none" stroke="#e84d39" d="M70.252 120A20.126 16 0 0 0 30 120" stroke-width="2" stroke-dasharray="0"/><path fill="none" stroke="#e84d39" d="M63.002 117.344c1.993-.747 6.646 1.013 7.474 1.747-.222-1.084.581-5.994 2.225-7.347" stroke-width="2" stroke-linejoin="round" stroke-linecap="round"/><path fill="none" stroke="#e84d39" d="M69.252 118.268l.475.823" stroke-width="2"/><path fill="none" stroke="#7854ab" d="M350 120a139.874 16 0 0 0-279.748 0" stroke-width="2" stroke-dasharray="0"/><path fill="none" stroke="#7854ab" d="M342.75 117.344c1.994-.747 6.647 1.013 7.475 1.747-.222-1.084.58-5.994 2.224-7.347" stroke-width="2" stroke-linejoin="round" stroke-linecap="round"/><path fill="none" stroke="#7854ab" d="M349 118.268l.475.823" stroke-width="2"/></svg>
