<svg xmlns="http://www.w3.org/2000/svg" width="128" height="128" viewBox="0 0 128 128"><ellipse cx="27.452" cy="95.449" rx="23.452" ry="9.566" fill="#9a4757" transform="rotate(-23.078 27.452 95.45)"/><path fill="#c75e72" d="M85.185 55.587a207.549 207.549 0 0 1-6.634-9.025C65.112 27.184 64.746 19.36 52.272 18.625c-16.858-.99-27.06 9.614-24.34 32.561.555 4.683-22.852 39.852-.404 51.045 19.217 5.272 79.822 8.085 84.278-15.383 2.412-12.704 3.537-17.022-26.62-31.26z"/><ellipse cx="104.465" cy="89.112" rx="19.535" ry="7.968" fill="#c75e72" transform="rotate(-.218 104.465 89.112)"/><path fill="#9a4757" d="M78.368 95.668c-11.587-5.789-22.894-6.65-25.255-1.924-1.51 3.026-2.049 6.629.87 11.952 10.277.333 26.551-.096 36.122-2.005-2.97-2.834-7.003-5.657-11.737-8.023z"/><ellipse cx="77.003" cy="99.872" rx="23.452" ry="9.566" fill="#c75e72" transform="rotate(26.545 77.003 99.872)"/><path fill="#9a4757" d="M59.452 44.07c-2.02-5.211-7.552-8.078-12.36-6.401-2.224.775-7.834.465-10.322-.22-4.918-1.353-10.227 1.873-11.858 7.206s1.034 10.752 5.952 12.105c4.554 1.253 18.912 1.395 23.54-.22 4.807-1.675 7.067-7.258 5.048-12.47z"/><ellipse cx="36.431" cy="59.964" rx="2.154" ry="12.74" fill="#9a4757"/><ellipse cx="53.556" cy="59.964" rx="2.154" ry="12.74" fill="#9a4757" transform="rotate(5.998 53.556 59.964)"/><ellipse cx="34.162" cy="59.964" rx="2.154" ry="12.74" fill="#fffdfd" transform="rotate(-8.43 34.162 59.964)"/><ellipse cx="51.829" cy="59.739" rx="2.154" ry="12.74" fill="#fffdfd"/><path fill="#c75e72" d="M58.028 41.97c-1.951-5.037-7.298-7.806-11.942-6.187-2.151.75-7.572.45-9.975-.21-4.753-1.309-9.883 1.808-11.458 6.96-1.576 5.154.998 10.39 5.75 11.7 4.4 1.21 9.014.656 10.943-3.823 2.115 4.685 7.333 5.17 11.805 3.611 4.643-1.62 6.827-7.016 4.877-12.05z"/><ellipse cx="48.768" cy="37.237" rx="1.471" ry="2.043" fill="#304454" transform="rotate(178.441 48.768 37.237)"/><ellipse cx="34.162" cy="37.237" rx="1.471" ry="2.043" fill="#304454" transform="rotate(178.441 34.162 37.237)"/><path fill="#9a4757" d="M35.81 46.683s2.272 3.85 4.877 3.857c1.574.003 2.62-1.575 3.575-4.016 1.097-2.814-2.587-3.838-4.29-3.778-1.546.058-5.18.42-4.161 3.937z"/><path fill="#c75e72" d="M35.707 44.426s1.782 4.099 4.367 4.426c1.562.196 2.793-1.242 4.041-3.548 1.432-2.66-2.098-4.127-3.795-4.275-1.54-.132-5.193-.216-4.613 3.397z"/><ellipse cx="50.239" cy="45.472" rx=".427" ry=".427" fill="#9a4757"/><ellipse cx="47.296" cy="50.113" rx=".427" ry=".427" fill="#9a4757"/><ellipse cx="53.983" cy="50.113" rx=".427" ry=".427" fill="#9a4757"/><ellipse cx="30.902" cy="44.619" rx=".427" ry=".427" fill="#9a4757"/><ellipse cx="27.878" cy="48.871" rx=".427" ry=".427" fill="#9a4757"/><ellipse cx="34.589" cy="50.113" rx=".427" ry=".427" fill="#9a4757"/><path fill="none" stroke="#9a4757" d="M52.035 48.815s6.227 4.526 8.3 8.412M54.62 46.267s7.404 2.03 10.733 4.945M30.587 47.962s-6.227 4.526-8.3 8.412M28 45.412s-7.404 2.03-10.734 4.945" stroke-miterlimit="10"/></svg>
