<svg xmlns="http://www.w3.org/2000/svg" width="108" height="108" viewBox="0 0 108 108"><path fill="#bdcccc" d="M94.11 61.514c-1.085.5-2.439 1.34-3.365 2.2 1.11-1.037 2.338-2.022 2.867-3.49-.925-.036-1.948.567-2.864.811 1.105-.997 3.635-3.337 3.204-5.027-.62 0-1.302.428-1.89.223 1.489-1.539 2.585-4.048 1.636-6.078-.927 1.303-1.475 2.87-2.53 4.182-1.23 1.534-2.546 2.702-4.107 3.857-3.188 2.356-6.597 4.012-10.403 4.948-2.895.713-6.35 1.308-9.195.591-1.072-.27-1.7-.383-2.854-.155-.414.082-.757.18-1.04.25-.419-.519-.71-1.043-.835-1.594-.657-1.04-1.28-2.734-1.18-4.105.188-.097.383-.184.558-.294.421-.265.988-.972 1.578-.823.996.252.92 1.784.938 2.42.662-.458.76-1.5.805-2.176.4.322.566.87.6 1.345.319-.31.57-.737.596-1.175.094.125.267.215.358.396.202-.68.31-1.399.52-2.067l.12.031c.136.298.247.608.2.931.43-.648.264-1.408.313-2.12.522.314.621 1.07.606 1.573.395-.325.6-1.283.556-1.755.297.124.42.426.59.637.166-.507.154-.99.245-1.49.11-.608.305-1.188.35-1.809a6.886 6.886 0 0 0-.382-2.803c-.245-.685-.603-1.326-.98-1.963-.148-.249-.62-.809-.516-1.113.004-.014 4.79-14.094-10.898-21.306-1.117-.514-1.594-2.466-1.175-3.566.454-1.192 1.968-1.673 3.172-1.844-1.51-.355-2.66-.626-3.777.575-.944 1.014-.84 2.125-.814 3.366-.525-1.495-1.491-3.033-2.91-4.025-1.932-1.35-4.217-1.888-6.53-2.376 1.337.384 2.684 1.046 3.737 1.678 1.615.967 2.154 2.125 3.008 3.531-1.075-1.236-3.215-1.934-4.88-2.45-1.636-.507-4.535-1.1-6.199-.489 3.05-.022 7.104.358 8.233 3.131-1.27-.375-2.407-.94-3.761-1.202-1.819-.348-3.535-.417-5.398-.403-3.198.023-6.733 1.095-9.167 2.807 1.949-.225 3.83-1.009 5.864-1.11 2.018-.103 4.128-.238 5.9.765-1.049-.593-4.276.102-5.35.291-3.9.684-7.453 2.417-9.97 5.055a16.31 16.31 0 0 0-2.75 3.928c-.332.663-.496 1.716-1.165 2.177-.674.464-1.78.327-2.56.581-1.527.498-2.006 1.207-2.99 2.2.38-.443.992-.782 1.602-.958-.893.995-1.837 1.71-2.377 2.865.68-.442 1.412-.736 2.134-1.09-.5.513-1.678 1.573-1.556 2.241.392-.293.841-.57 1.194-.88-.378.762-1.273 1.481-1.296 2.344.352-.256.793-.554 1.192-.814-.198 1.711-1.213 3.296-.59 5.056.706-.449.492-1.393 1.064-1.92.1.631-.224 1.274-.085 1.922.166.791.78 1.675 1.305 2.315.524.641 1.137 1.36 1.832 2.007 6.633 5.047-7.232 7.99-7.81 22.95-.513 1.106-.518 2.268-.622 3.44-.087.977-.452 2.25-.28 3.205.466-.766.793-1.428 1.488-2.085.116-.11.268-.229.405-.353-.41.98-.752 1.932-.713 3.034.008-1.109 1.276-1.92 1.585-2.932-.662 2.122-.399 3.734.51 5.708-.268-.802-.1-1.799.108-2.544-.087 2.508-1.37 12.54 14.575 19.013 1.599 1.41 11.257 3.868 11.312 2.547 2.06 2.605 9.292 1.927 11.688.323.544 1.255 13.696-2.377 15.614-3.064 2.269-.81 4.22-2.236 5.806-3.794-.01.63-.94 1.532-1.498 1.83 1.085-.442 2.57-1.133 3.599-1.837 1.33-.91 3.368-2.609 3.788-4.064.573 1.02-.085 2.39-.966 3.167 2.365-1.248 3.108-3.867 3.291-5.996.393.598.607 1.4.597 2.12.36-.585.816-1.246.89-1.967.085-.825-.385-1.64-.293-2.445 1.547.68 1.684 2.22 1.906 3.543.442-1.576.3-3.165.394-4.796 1.121 1.021 1.522 2.24 2.063 3.525.22-2.827-.275-4.69-2.948-6.424.626.36 1.243.878 1.835 1.326-1.62-2.239-3.34-3.502-6.55-3.722a45.247 45.247 0 0 0-1.267-1.523c.453-.249.811-.537.953-.886-.538-.288-1.28-.246-1.987-.274-.01-.01-.018-.022-.03-.032 1.317-.026 2.666-.719 3.868-1.237 2.123-.916 4-2.025 5.635-3.745-1.265.033-2.692.081-3.974.186 2.678-.745 6.108-3.256 6.962-6.03a7.334 7.334 0 0 0-2.095.426c1.67-1.27 3.578-3.797 3.623-5.353z"/><path fill="#efefef" d="M18.218 81.404c.069.147.134.291.21.442a1.797 1.797 0 0 1-.21-.442z"/><path fill="#efefef" d="M67.172 55.434c.133.282.24.576.195.881.417-.612.257-1.33.303-2.006.507.298.605 1.013.59 1.49.384-.308.581-1.215.54-1.662.288.118.409.403.572.603.162-.48.148-.936.237-1.41.109-.576.297-1.123.34-1.71a6.356 6.356 0 0 0-.37-2.652c-.237-.648-.584-1.254-.951-1.857-.144-.236-.6-.765-.502-1.053.005-.012 4.653-13.33-10.583-20.15-1.084-.487-1.547-2.333-1.14-3.372.443-1.128 1.913-1.584 3.08-1.744-1.465-.337-2.581-.593-3.666.544-.916.958-.816 2.01-.792 3.183-.51-1.414-1.447-2.869-2.825-3.807-1.878-1.276-4.094-1.785-6.342-2.248 1.299.364 2.607.99 3.63 1.587 1.57.915 2.093 2.01 2.92 3.34-1.043-1.169-3.12-1.829-4.738-2.318-1.587-.479-4.404-1.039-6.019-.462 2.962-.02 6.9.34 7.995 2.961-1.232-.354-2.337-.89-3.653-1.136-1.766-.33-3.431-.395-5.24-.38-3.106.021-6.538 1.034-8.902 2.655 1.892-.213 3.72-.954 5.694-1.05 1.96-.097 4.008-.225 5.728.723-1.017-.56-4.15.097-5.195.275-3.788.647-7.236 2.287-9.682 4.782a15.403 15.403 0 0 0-2.67 3.714c-.323.626-.482 1.623-1.13 2.06-.654.44-1.73.307-2.486.548-1.482.472-1.948 1.143-2.904 2.08.37-.419.963-.739 1.556-.906-.867.942-1.785 1.618-2.309 2.711.66-.418 1.373-.695 2.073-1.03-.486.484-1.63 1.487-1.512 2.12.38-.278.817-.54 1.159-.834-.368.721-1.236 1.403-1.258 2.218.341-.243.77-.524 1.158-.769-.194 1.617-1.178 3.117-.573 4.782.686-.424.479-1.318 1.034-1.816.096.596-.217 1.205-.084 1.818.162.748.759 1.585 1.267 2.19.509.605 1.105 1.284 1.779 1.898 6.44 4.774-7.023 7.556-7.583 21.703-.5 1.048-.505 2.146-.604 3.254-.085.924-.44 2.128-.272 3.032.452-.724.77-1.35 1.443-1.972.113-.104.26-.216.395-.334-.398.927-.73 1.828-.694 2.871.008-1.049 1.24-1.816 1.538-2.772-.642 2.007-.385 3.531.496 5.397-.26-.759-.096-1.7.105-2.406-.085 2.373-1.33 11.86 14.154 17.982 1.552 1.333 10.93 3.658 10.983 2.41 2 2.463 9.024 1.822 11.35.305.529 1.187 13.299-2.248 15.163-2.897 2.203-.767 4.097-2.115 5.638-3.589-.011.596-.913 1.448-1.456 1.73 1.055-.417 2.498-1.072 3.495-1.737 1.292-.862 3.272-2.467 3.68-3.844.556.964-.082 2.26-.94 2.995 2.297-1.179 3.019-3.658 3.198-5.67.38.566.59 1.322.58 2.006.348-.554.791-1.179.863-1.86.082-.78-.373-1.552-.285-2.314 1.502.643 1.636 2.1 1.85 3.35.43-1.49.293-2.994.382-4.536 1.092.965 1.48 2.118 2.005 3.333.215-2.674-.269-4.437-2.864-6.076.61.34 1.209.831 1.784 1.254-1.576-2.118-3.245-3.312-6.363-3.52-8.363-10.37-18.202-12.832-19.119-16.788-.637-.985-1.243-2.587-1.145-3.883.18-.092.371-.175.541-.278.41-.25.96-.919 1.532-.778.968.237.894 1.686.911 2.287.644-.432.739-1.419.782-2.056.388.304.549.821.582 1.271.31-.292.555-.697.58-1.11.092.117.26.202.347.374.195-.644.302-1.323.504-1.955"/><path fill="#efefef" d="M45.86 18.465c-.432-.089-.865-.177-1.296-.267.423.052.858.145 1.295.267z"/><path fill="#d78334" d="M35.63 47.097s3.882.599 6.494 5.469c0 0-3.12 4.708-6.544 4.028 0 0-16.325-6.727.05-9.497z"/><path fill="#eec65e" d="M33.488 43.314c1.342-1.778 2.57-1.899 4.382-1.219 1.629.61 2.042 1.15 2.217 3.103 1.75 2.415 2.578 5.996 2.037 7.37-.537 1.364-8.846-3.509-17.224.361-2.141-2.515 3.81-7.889 8.588-9.615z"/><path fill="#a75e26" d="M36.002 43.926c-.985-.15-2.005.618-2.28 1.712-.276 1.091 1.49-.188 2.476-.039.983.146.811 1.664 1.087.574.277-1.095-.299-2.1-1.283-2.247z"/><path fill="#010101" d="M48.163 29.338c-2.642 3.172-5.47 2.465-6.121 2.154 0 0 .196-3.663-.142-8.202 3.714-1.06 8.023-.905 13.208 1.075 5.135 1.963 8.607 5.03 10.995 8.758-.07-.011-.13-.017-.201-.031 0 0-11.666-11.033-17.74-3.754z" opacity=".18"/><path fill="#d14e3f" d="M45.563 28.887c-2.498 3.277-3.332 2.207-4.048 1.931 0 0-8.818-11.614 1.857-22.183 0 0 8.518-9.58 13.672-1.195 0 0 3.975 5.79-7.516 11.083 0 0 4.329 1.256 8.348-3.41 0 0 3.428-5.949 6.58.126 0 0 3.912 6.012-4.584 9.223 0 0 7.895-.76 7.766 4.029 0 0 .535 3.855-2.933 3.256 0 0-13.412-10.383-19.142-2.86z"/><ellipse cx="34.329" cy="38.467" rx="1.25" ry="1.737" fill="#304454" transform="rotate(26.258 34.329 38.467)"/><ellipse cx="48.031" cy="44.369" rx="1.25" ry="1.737" fill="#304454" transform="rotate(26.258 48.03 44.369)"/><path fill="#d14e3f" d="M38.533 67.209c-1.003 2.515-3.67 3.8-5.96 2.876-1.722-.696-2.736-2.45-2.703-4.346-1.28 1.394-3.22 1.952-4.944 1.255-2.288-.926-3.328-3.713-2.322-6.227.708-1.78 2.266-3.098 4.108-3.553 0 0 4.622-1.455 6.909-1.797 0 0 2.508 2.543 4.383 5.619 1.527 2.2 1.284 4.287.529 6.173z"/><path fill="#d7dddd" d="M58.054 68.909c1.006-.202 1.991-.636 2.99-.586-.255 1.494.266 1.012 1.607.729.977-.207 1.506-.126 2.407.078 2.39.539 5.317-.006 7.773-.64 3.228-.833 6.133-2.246 8.864-4.23 1.338-.973 2.468-1.951 3.533-3.228.91-1.092 1.4-2.386 2.203-3.469.769 1.647-.2 3.72-1.481 5.006.492.158 1.075-.205 1.599-.215.334 1.377-1.84 3.336-2.79 4.171.776-.215 1.653-.727 2.433-.714-.471 1.212-1.523 2.04-2.478 2.909.796-.721 1.953-1.432 2.877-1.86-.08 1.595-2.65 4.493-4.154 5.029.624-.606 1.965-.916 2.784-.968-.767 2.286-3.704 4.401-5.978 5.057a67.59 67.59 0 0 1 3.358-.221c-1.407 1.436-3.013 2.377-4.82 3.164-1.256.546-2.707 1.328-4.038 1.023.763.199 1.794-.057 2.45.272-.442 1.019-3.069 1.524-4.047 1.774-1.305.333-2.54.634-3.853.595-4.6-.138-9.89-2.24-13.027-5.343-1.465-1.451-2.96-3.848-2.48-6.14.462-2.213 3.495-4.053 5.578-3.309-.264.38-.826 1.019-1.31 1.116z" opacity=".6"/><path fill="#efefef" d="M58.949 62.53c1.153-.21 2.276-.69 3.427-.606-.26 1.718.328 1.175 1.864.88 1.123-.216 1.733-.11 2.775.145 2.763.679 6.117.117 8.928-.558 3.698-.886 7.007-2.451 10.103-4.68 1.516-1.093 2.794-2.197 3.988-3.648 1.022-1.24 1.556-2.723 2.454-3.954.922 1.92-.142 4.293-1.588 5.748.572.194 1.234-.211 1.837-.211.418 1.597-2.04 3.812-3.113 4.754.888-.231 1.883-.802 2.782-.768-.515 1.388-1.707 2.322-2.785 3.302.9-.814 2.215-1.608 3.267-2.08-.055 1.84-2.944 5.13-4.662 5.714.706-.686 2.24-1.013 3.181-1.052-.828 2.623-4.157 4.998-6.758 5.702 1.245-.1 2.63-.143 3.858-.175-1.586 1.626-3.41 2.676-5.47 3.54-1.434.603-3.085 1.472-4.625 1.089.881.247 2.066-.024 2.826.372-.486 1.167-3.495 1.69-4.617 1.954-1.493.354-2.905.674-4.418.598-5.297-.266-11.434-2.82-15.116-6.478-1.72-1.71-3.495-4.515-2.998-7.15.48-2.545 3.928-4.601 6.342-3.694-.296.43-.928 1.156-1.482 1.256z"/></svg>
