<svg xmlns="http://www.w3.org/2000/svg" width="78" height="78" viewBox="0 0 78 78"><path fill="#bed575" d="M28.899 47.517s.769-3.928-.607-7.093c-.96-2.207-6.294.259-12.846 3.737-7.383 3.918-13.415-1.994-10.842 4.8 2.536 6.698 8.865 10.585 15.296 7.81 3.667-1.58 8.085-4.5 8.999-9.254z"/><path fill="#d0e285" d="M55.101 43.59s-1.495-2.818-1.176-5.551c.221-1.905 4.861-1.256 10.663-.118 6.537 1.283 9.772-4.621 9.38 1.157-.387 5.695-4.317 10.123-9.863 9.493-3.163-.358-7.209-1.565-9.004-4.98zM36.136 56.562s-.77-3.928.607-7.093c.959-2.207 6.294.26 12.846 3.737 7.383 3.918 13.415-1.994 10.842 4.801-2.536 6.697-8.865 10.584-15.296 7.81-3.667-1.58-8.086-4.5-9-9.255z"/><ellipse cx="40.873" cy="36.518" rx="26.836" ry="17.769" fill="#bed575"/><path fill="#bed575" d="M18.986 32.677c0 9.391 10.24 17.005 22.868 17.005 12.63 0 22.867-7.614 22.867-17.005s-10.55-21.398-23.18-21.398-22.555 12.007-22.555 21.398z"/><path fill="#a9bc65" d="M35.205 34.758l6.544 4.133L48.6 35.29l.308-7.733-6.544-4.134-6.85 3.6zM32.127 34.902l.308-7.733-6.544-4.134-4.957 2.605c-1.25 2.575-1.947 5.235-1.947 7.713 0 .41.026.815.065 1.218l6.224 3.93 6.851-3.6zM43.75 14.327l.246 6.902 5.545 4.117 5.301-2.785-.22-6.167c-2.319-1.663-4.933-2.964-7.734-3.716l-3.138 1.649zM51.07 36.35l6.544 4.132 6.565-3.45c.139-.468.25-.943.336-1.424l.14-3.503a16.284 16.284 0 0 0-.746-3.503l-5.68-3.588-6.851 3.601-.308 7.734zM26.162 22.346l5.787 3.696 7.402-4 1.616-7.694-3.181-2.032c-4.017.766-7.65 2.704-10.627 5.278l-.997 4.752zM58.03 19.3l-.11 2.744 4.257 2.688A26.003 26.003 0 0 0 58.03 19.3zM55.115 47.203l.173-4.352-6.544-4.133-6.852 3.601-.307 7.733.48.303c4.865-.034 9.363-1.196 13.05-3.152zM39.847 48.978l.309-7.733-6.544-4.134-6.853 3.601-.209 5.275c3.088 2.07 6.94 3.518 11.2 4.093l2.097-1.102zM63.322 39.224l-5.887 3.093-.142 3.579c2.668-1.816 4.756-4.097 6.029-6.672zM24.44 44.369l.16-4.024-5.029-3.175c.833 2.703 2.531 5.159 4.868 7.199z"/><path fill="#a9bc65" d="M27.002 29.241s3.45-2.03 6.892-1.785c2.4.172 5.209.608 7.597 2.917 3.25 3.143 4.019 8.33 4.06 10.983.105 7.011-4.577 11.45-11.84 11.28-7.16-.167-12.928-4.846-12.448-11.833.272-3.983 1.559-9.12 5.739-11.562z" opacity=".7"/><path fill="#d0e285" d="M15.88 43.835s1.246-3.349 3.729-5.147c1.73-1.253 3.886-2.56 6.776-2.353 3.932.281-2.23 5.393 1.019 11.01 3.66 6.328 10.866 4.533 5.818 8.564-4.976 3.973-11.465 4.085-14.95-.938-1.987-2.864-3.912-7.09-2.392-11.136z"/><path fill="#d0e285" d="M14.843 21.63s3.45-2.03 6.892-1.784c2.4.171 5.209.607 7.597 2.916 3.25 3.143 4.019 8.33 4.06 10.983.105 7.012-4.577 11.45-11.84 11.28-7.159-.166-12.928-4.846-12.448-11.832.272-3.983 1.559-9.121 5.739-11.562z"/><ellipse cx="24.227" cy="33.117" rx=".907" ry="1.261" fill="#304454" transform="rotate(188.893 24.227 33.117)"/><ellipse cx="13.623" cy="30.892" rx=".907" ry="1.261" fill="#304454" transform="rotate(188.893 13.623 30.892)"/><ellipse cx="18.601" cy="38.602" rx="2.528" ry="2.259" fill="#c75e72"/><ellipse cx="16.557" cy="36.342" rx="3.916" ry="2.65" fill="#d0e285"/></svg>
