<svg xmlns="http://www.w3.org/2000/svg" width="58" height="58" viewBox="0 0 57.99999999999999 57.99999999999999"><path fill="#f89c44" d="M31.47 47.849c.497.176 1.205 2.952 1.457 3.574.184.455.265.908-.358.988-.366.047-1.288-.124-1.237.523.055.69 1.823.236 2.233.433.296.14.359.509.709.557.562.077.495-.555.47-.904.459-.168 2.676.555 3.185.682 1.017.138.534-.678.28-.804-.402-.2-.825-.436-1.263-.591-.595-.21-1.203-.352-1.785-.611-1.63-.055-2.23-4.152-2.124-4.397M21.22 47.849c-.006.83-.405 3.499-.606 3.93-.49 1.058-2.212.555-2.995 1.238-.61.53.19.68.632.637.48-.048.943-.258 1.401-.412.202-.068.395-.188.495.02.112.236-.137.487.165.657.54.303.814-.31.852-.71.015-.16-.029-.194.09-.274.09-.062.317-.04.424-.03.29.029.601.123.86.256.495.254.763.59 1.374.598.877.01.034-.908-.363-1.093-2.192-.776-1.352-3.635-.956-4.981"/><path fill="#f4d038" d="M37.448 23.541c.69.536 2.204.078 2.97-.133 1.363-.375 2.146-1.209 3.08-2.227.869-.947 1.369-2.102 1.732-3.327a7.428 7.428 0 0 0 .298-2.03c.004-.362-.068-.864.029-1.186.189.47.495.661.548 1.193.042.424-.02.877-.117 1.265.17-.3.223-.657.364-.96.519.725-.02 1.41-.21 2.116.442-.403 1.149-.994 1.117-1.665.174.602.335 1.164.218 1.801-.111.602-.56 1.082-.7 1.636.425-.227.759-.568.968-1.006.085.83-.455 1.456-.844 2.13.292-.112.599-.23.888-.355.03.418-.344 1.036-.566 1.38.555-.158 1.119-.346 1.524-.802.065.998-1.13 1.668-1.525 2.454.24-.132.527-.196.778-.322.383-.192.662-.539.984-.784.09.657-.767 1.486-1.158 1.934-.538.62-1.336 1.006-2.048 1.353.484.037 1.072.031 1.528-.14-.528.66-1.251 1.071-2.098 1.138.246.034.536.41.522.651-.47.191-1.265.244-1.754.095.797.808-.917.537-1.34.257.188.2.458.493.172.698-.348.248-.831-.258-1.108-.41.015.28.105.403-.138.575-.312.221-.678.001-.86-.247-.127.342-.65.074-.862-.09-.647-.503-.543-1.208-.948-1.818"/><path fill="#fee05f" d="M40.542 36.454c-.03.076-.057.149-.09.227.039-.07.067-.147.09-.227z"/><path fill="#fee05f" d="M19.756 23.12c-.056.144-.102.295-.082.451-.178-.314-.11-.684-.129-1.03-.216.153-.257.52-.25.764-.164-.158-.248-.623-.23-.852-.123.06-.173.207-.243.31-.069-.247-.063-.48-.1-.725-.047-.295-.127-.577-.146-.878a3.89 3.89 0 0 1 .158-1.36c.1-.334.248-.645.403-.955.061-.12.256-.393.213-.54-.002-.007-1.976-6.845 4.493-10.347.461-.249.658-1.197.485-1.73-.188-.58-.813-.814-1.308-.897.622-.173 1.096-.304 1.557.28.388.491.345 1.031.335 1.634.217-.727.614-1.474 1.2-1.956.796-.655 1.738-.916 2.692-1.154-.55.187-1.106.51-1.54.815-.666.47-.889 1.033-1.24 1.715.443-.6 1.325-.939 2.011-1.19.674-.246 1.87-.534 2.556-.237-1.258-.01-2.93.174-3.395 1.52.523-.182.993-.457 1.551-.583.75-.17 1.457-.203 2.225-.196 1.318.011 2.776.532 3.78 1.363-.803-.109-1.579-.49-2.418-.54-.83-.049-1.7-.115-2.432.372.432-.288 1.762.05 2.205.142 1.61.332 3.073 1.174 4.111 2.455a8.064 8.064 0 0 1 1.134 1.907c.137.322.205.833.48 1.057.278.226.734.16 1.056.283.63.241.827.586 1.233 1.067a1.387 1.387 0 0 0-.66-.464c.367.483.756.83.98 1.391-.28-.214-.584-.357-.88-.529.205.25.691.764.641 1.088-.162-.142-.347-.276-.493-.428.156.37.525.72.534 1.138a12.103 12.103 0 0 0-.492-.395c.081.831.5 1.601.243 2.456-.29-.218-.204-.677-.44-.933-.04.306.093.62.037.934-.069.383-.322.813-.538 1.124a9.73 9.73 0 0 1-.755.975c-2.735 2.451 2.981 3.88 3.22 11.144.211.538.213 1.102.256 1.671.036.475.186 1.092.115 1.557-.192-.372-.326-.693-.612-1.012-.049-.054-.11-.11-.168-.172.17.476.31.938.295 1.474-.003-.538-.527-.932-.653-1.423.272 1.031.163 1.813-.21 2.772.11-.389.04-.873-.045-1.235.035 1.217.564 6.09-6.01 9.233-.659.684-.268 1.936-.874 2.762-.585.795-1.648 1.18-2.516.493-.485-.383-1.25-1.377-1.273-2.018-.849 1.265-3.832.936-4.819.157-.224.61-.638 1.175-1.026 1.696-.515.692-1.36 1.071-2.196.723-.887-.369-.952-1.068-1.226-1.875-.285-.836-1.198-1.698-1.989-2.03-.935-.395-1.739-1.087-2.393-1.844.004.306.387.744.618.888-.448-.213-1.06-.549-1.484-.89-.548-.443-1.389-1.268-1.562-1.975-.236.495.035 1.16.398 1.538-.975-.606-1.282-1.879-1.357-2.912a2.15 2.15 0 0 0-.246 1.03c-.149-.284-.337-.605-.367-.955-.035-.4.16-.797.121-1.188-.638.331-.694 1.078-.786 1.721-.182-.765-.124-1.538-.162-2.329-.463.495-.628 1.088-.85 1.712-.092-1.373.113-2.279 1.215-3.12-.259.175-.513.427-.757.644.67-1.087 1.377-1.7 2.701-1.808 3.551-5.325 7.728-6.589 8.118-8.62.27-.506.528-1.328.486-1.994-.077-.047-.158-.09-.23-.143-.173-.128-.407-.472-.65-.399-.41.122-.379.866-.386 1.174-.274-.222-.314-.728-.332-1.056-.165.157-.233.422-.248.653a.979.979 0 0 1-.246-.57c-.039.06-.11.104-.147.192-.084-.33-.129-.679-.215-1.003"/><path fill="#fee05f" d="M28.806 4.137l.55-.137c-.18.026-.365.074-.55.137z"/><path fill="#f4d038" d="M20.906 26.958c-.357.232-.77.382-1.056.695.483.412.196.409-.283.714-.35.223-.486.406-.701.74-.57.884-1.596 1.573-2.505 2.094a9.856 9.856 0 0 1-3.81 1.244c-.666.079-1.271.094-1.937-.007-.57-.087-1.07-.365-1.604-.48.217.765 1.07 1.156 1.806 1.196-.105.198-.38.252-.54.403.275.549 1.46.545 1.973.536-.292.16-.693.252-.924.487.47.256 1.013.216 1.535.216-.435 0-.975.11-1.368.245.458.498 2.018.683 2.614.412-.352-.013-.84.283-1.098.509.852.519 2.308.34 3.168-.12-.355.287-.732.624-1.067.924.813.052 1.55-.116 2.306-.395.526-.194 1.173-.37 1.49-.863-.175.29-.554.514-.661.815.41.202 1.335-.411 1.697-.62.482-.278.934-.545 1.317-.947 1.342-1.408 2.357-3.663 2.454-5.605.044-.908-.16-2.134-.927-2.741-.74-.586-2.151-.29-2.573.572.18.045.522.087.694-.024z"/><path fill="#f89c44" d="M30.56 17.663c-.915.995-2.204.91-3.423.74l-1.443-.081c.319-.042 1.333.977 1.69 1.236.569.412 1.145.81 1.825.94.577.109 1.417.317 1.937-.064.466-.341.769-1.138.98-1.66.36-.888.323-1.931.779-2.793-1 .013-1.746 1.033-2.344 1.682z"/><ellipse cx="24.633" cy="15.511" rx=".712" ry=".99" fill="#304454" transform="rotate(-8.893 24.633 15.511)"/><ellipse cx="32.954" cy="13.765" rx=".712" ry=".99" fill="#304454" transform="rotate(-8.893 32.954 13.765)"/><path fill="#d14e3f" d="M26.766 18.568c1.135.285 2.324 1.923 3.586 1.401 1.028-.425 1.551-2.409 1.846-3.38.031-.102.082-.193.13-.284-.986.341-1.53 1.222-2.306 1.821-.367.283-.91.388-1.36.433-.51.05-.768-.138-1.236-.239"/><path fill="#f89c44" d="M25.519 18.328v-.041c.699.213 1.461.26 2.185.414.158.032.338.073.528.111.51.104 1.095.19 1.533.092.586-.13.983-.72 1.308-1.204a4.19 4.19 0 0 1 1.044-1.095c.269-.2.582-.358.787-.629-.183-.282-.619-.217-.913-.174-.412.063-.661.107-1.071-.02-.461-.145-.863-.341-1.312-.415-1.089-.18-1.79.53-2.366 1.35-.191.27-.431.466-.678.65-.25.184-.506.357-.724.58-.119.122-.197.256-.321.38z"/></svg>
