<svg xmlns="http://www.w3.org/2000/svg" width="320" height="176" viewBox="0 0 320 176"><path fill="#e07d10" stroke="#000" d="M6.154 44v36h307.692V44H6.154" stroke-width="2" fill-opacity=".3"/><path fill="#0c7f99" stroke="#000" d="M6.154 84v36h126.449V84H6.153" stroke-width="2" fill-opacity=".3"/><path fill="#ca337c" stroke="#000" d="M132.603 84v36h181.243V84H132.603" stroke-width="2" fill-opacity=".3"/><path fill="none" stroke="#000" d="M6.154 44c1-3 6-5 10-6 0 0 3-1 6-1H147c5 0 10-3 10-3l3-4 3 4s5 3 10 3h124.846c3 1 6 1 6 1 4 1 9 3 10 6M132.603 120c-1 3-6 5-10 6 0 0-3 1-6 1H82.379c-5 0-10 3-10 3l-3 4-3-4s-5-3-10-3H22.154c-3-1-6-1-6-1-4-1-9-3-10-6"/><path fill="none" stroke="#000" d="M313.846 120c-1 3-6 5-10 6 0 0-3 1-6 1h-61.622c-5 0-10 3-10 3l-3 4-3-4s-5-3-10-3h-61.621c-3-1-6-1-6-1-4-1-9-3-10-6"/></svg>
