<svg xmlns="http://www.w3.org/2000/svg" version="1.1" width="400" height="357.8947368421053" viewBox="0 0 400 357.8947368421053"><defs><linearGradient id="r-2f88b20b3e9c416792457ab5332ca0dc" x1="0" y1="0.0948800277469175" x2="1" y2="0"><stop offset="0%" stop-color="#fdd1b0"/><stop offset="24.44%" stop-color="#f3c2a0"/><stop offset="65.91%" stop-color="#dfa27e"/><stop offset="100%" stop-color="#cc8461"/></linearGradient><linearGradient id="r-28000a8ebe2746f48e7d1ee8ded9c99c" x1="0" y1="0" x2="1" y2="0.1321852083460825"><stop offset="0%" stop-color="#fdd1b0"/><stop offset="24.44%" stop-color="#f3c2a0"/><stop offset="65.91%" stop-color="#dfa27e"/><stop offset="100%" stop-color="#cc8461"/></linearGradient><radialGradient id="r-eb01aeaba19b4803bbb8a3ccc7bba5b4" fx="0.5" fy="0.5"><stop offset="0%" stop-color="#fee6d3"/><stop offset="100%" stop-color="#fdd1b0"/></radialGradient><radialGradient id="r-f047e9fe67e4450b8fa69fdc3d0ca226" fx="0.5" fy="0.5"><stop offset="0%" stop-color="#f69896"/><stop offset="43.76%" stop-color="#f9b2a2"/><stop offset="100%" stop-color="#fdd1b0"/></radialGradient><radialGradient id="r-a21e9caff540432b83ce44342b383766" fx="0.5" fy="0.5"><stop offset="0%" stop-color="#fee6d3"/><stop offset="100%" stop-color="#fdd1b0"/></radialGradient><radialGradient id="r-a21164b65d6e4d52856697d2af7c9021" fx="0.5" fy="0.5"><stop offset="0%" stop-color="#fee6d3"/><stop offset="100%" stop-color="#fdd1b0"/></radialGradient><radialGradient id="r-9d85b905cbf64bda8dcb98a8912bd2a3" fx="0.5" fy="0.5"><stop offset="0%" stop-color="#fee6d3"/><stop offset="100%" stop-color="#fdd1b0"/></radialGradient><linearGradient id="r-71f06a7f950d490a8105aa280e7d1c9c" x1="1" y1="0.1642939659035408" x2="0" y2="0"><stop offset="0%" stop-color="#fdd1b0"/><stop offset="35.75%" stop-color="#f3bf9c"/><stop offset="100%" stop-color="#e19a75"/></linearGradient><radialGradient id="r-028723d04a754cd59920ac45ae2f250e" fx="0.5" fy="0.5"><stop offset="0%" stop-color="#fee6d3"/><stop offset="100%" stop-color="#fdd1b0"/></radialGradient><radialGradient id="r-e2393c7c5c1042ad82813a4c524c1c71" fx="0.5" fy="0.5"><stop offset="0%" stop-color="#fee6d3"/><stop offset="100%" stop-color="#fdd1b0"/></radialGradient><radialGradient id="r-8d1a3b00cb874e21851d38b987bf7ef4" fx="0.5" fy="0.5"><stop offset="0%" stop-color="#fee6d3"/><stop offset="100%" stop-color="#fdd1b0"/></radialGradient><radialGradient id="r-b1b480953b1143c0856bf19c22178a21" fx="0.5" fy="0.5"><stop offset="0%" stop-color="#fee6d3"/><stop offset="100%" stop-color="#fdd1b0"/></radialGradient><radialGradient id="r-02a124fcc3e44bdc86375188de6bcf60" fx="0.5" fy="0.5"><stop offset="0%" stop-color="#fee6d3"/><stop offset="100%" stop-color="#fcc7a3"/></radialGradient></defs><path fill="#28ae7b" stroke="#000000" d="M 21.0526,336.842 L 63.1579,252.632 L 378.947,252.632 L 336.842,336.842 Z" style="stroke-width: 2px;fill-opacity: 1;stroke-opacity: 1" stroke-width="2" fill-opacity="1" stroke-opacity="1" stroke-dasharray="0"/><path fill="#a52a2a" stroke="#a52a2a" d="M 126.316,273.684 L 126.316,126.316 L 147.368,126.316 L 147.368,273.684 Z" style="stroke-width: 2px;fill-opacity: 1;stroke-opacity: 1" stroke-width="2" fill-opacity="1" stroke-opacity="1" stroke-dasharray="0"/><path fill="#a52a2a" stroke="#a52a2a" d="M 189.474,168.421 L 252.632,136.842 L 247.368,142.105 L 200,168.421 Z" style="stroke-width: 2px;fill-opacity: 1;stroke-opacity: 1" stroke-width="2" fill-opacity="1" stroke-opacity="1" stroke-dasharray="0"/><path fill="#a52a2a" stroke="#a52a2a" d="M 132.632,189.474 L 42.1053,168.421 L 44.2105,173.684 L 132.632,194.737 Z" style="stroke-width: 2px;fill-opacity: 1;stroke-opacity: 1" stroke-width="2" fill-opacity="1" stroke-opacity="1" stroke-dasharray="0"/><path fill="#a52a2a" stroke="#a52a2a" d="M 132.632,168.421 L 252.632,157.895 L 242.105,163.158 L 132.632,178.947 Z" style="stroke-width: 2px;fill-opacity: 1;stroke-opacity: 1" stroke-width="2" fill-opacity="1" stroke-opacity="1" stroke-dasharray="0"/><path fill="#808080" stroke="#808080" d="M 242.105,157.895 L 305.263,157.895" style="stroke-width: 2px;stroke-opacity: 1;fill-opacity: 0" stroke-width="2" stroke-opacity="1" stroke-dasharray="0" fill-opacity="0" transform="rotate(90 242.10526315789474 157.89473684210526)"/><ellipse cx="242.10526315789474" cy="221.0526315789474" rx="21.05263157894737" ry="21.05263157894737" fill="#000000" stroke="#000000" style="stroke-width: 2px;stroke-opacity: 1;fill-opacity: 1" stroke-width="2" stroke-opacity="1" stroke-dasharray="0" fill-opacity="1"/><ellipse cx="242.10526315789474" cy="221.0526315789474" rx="10.526315789473685" ry="10.526315789473685" fill="#ffffff" stroke="#ffffff" style="stroke-width: 2px;stroke-opacity: 1;fill-opacity: 1" stroke-width="2" stroke-opacity="1" stroke-dasharray="0" fill-opacity="1"/><ellipse cx="242.10526315789474" cy="221.0526315789474" rx="10.526315789473685" ry="10.526315789473685" fill="#808080" stroke="#808080" style="stroke-width: 2px;stroke-opacity: 1;fill-opacity: 0.2" stroke-width="2" stroke-opacity="1" stroke-dasharray="0" fill-opacity="0.2"/><ellipse cx="178.94736842105266" cy="84.21052631578948" rx="42.10526315789474" ry="42.10526315789474" fill="#28ae7b" stroke="#28ae7b" style="stroke-width: 2px;stroke-opacity: 1;fill-opacity: 1" stroke-width="2" stroke-opacity="1" stroke-dasharray="0" fill-opacity="1"/><ellipse cx="94.73684210526316" cy="84.21052631578948" rx="42.10526315789474" ry="42.10526315789474" fill="#28ae7b" stroke="#28ae7b" style="stroke-width: 2px;stroke-opacity: 1;fill-opacity: 1" stroke-width="2" stroke-opacity="1" stroke-dasharray="0" fill-opacity="1"/><ellipse cx="136.84210526315792" cy="105.26315789473685" rx="42.10526315789474" ry="42.10526315789474" fill="#28ae7b" stroke="#28ae7b" style="stroke-width: 2px;stroke-opacity: 1;fill-opacity: 1" stroke-width="2" stroke-opacity="1" stroke-dasharray="0" fill-opacity="1"/><ellipse cx="136.84210526315792" cy="63.15789473684211" rx="42.10526315789474" ry="42.10526315789474" fill="#28ae7b" stroke="#28ae7b" style="stroke-width: 2px;stroke-opacity: 1;fill-opacity: 1" stroke-width="2" stroke-opacity="1" stroke-dasharray="0" fill-opacity="1"/><path fill="url(#r-2f88b20b3e9c416792457ab5332ca0dc)" stroke="none" d="M 203.002,197.279 S 203.438,197.219 203.732,197.426 C 204.152,197.719 204.647,197.426 204.276,196.974 C 203.904,196.52 202.45,196.326 202.097,196.471 C 201.744,196.617 203.002,197.279 203.002,197.279 Z" opacity="1" fill-opacity="1" style="opacity: 1;fill-opacity: 1" transform=""/><path fill="url(#r-28000a8ebe2746f48e7d1ee8ded9c99c)" stroke="none" d="M 202.877,197.446 S 203.311,197.384 203.606,197.591 C 204.027,197.886 204.522,197.592 204.15,197.14 C 203.779,196.688 202.654,196.369 202.3,196.515 C 201.947,196.661 202.877,197.446 202.877,197.446 Z" opacity="1" fill-opacity="1" style="opacity: 1;fill-opacity: 1" transform=""/><path fill="url(#r-eb01aeaba19b4803bbb8a3ccc7bba5b4)" stroke="none" d="M 201.988,195.688 S 202.133,196.511 203.016,196.621 C 203.557,196.688 204.008,197.485 203.628,197.78 C 203.29,198.043 203.293,197.816 202.894,197.484 C 202.638,197.267 202.279,197.334 201.914,197.371 C 201.496,197.412 201.183,196.985 200.784,197.017 C 200.387,197.044 199.825,197.459 199.655,197.307 C 199.499,197.169 199.432,196.552 200.811,195.699 C 200.942,195.618 200.93,195.311 201.084,195.211 C 201.445,194.98 201.988,195.688 201.988,195.688 Z" opacity="1" fill-opacity="1" style="opacity: 1;fill-opacity: 1" transform=""/><path fill="#d14e3f" stroke="none" d="M 194.206,186.096 S 198.689,187.78 200.697,190.534 C 202.431,192.914 202.407,194.777 202.02,195.857 L 201.721,195.525 L 201.38,195.78 L 201.167,195.402 L 200.812,195.698 S 201.251,192.931 198.546,190.445 C 195.483,187.636 193.565,188.449 193.565,188.449 L 194.206,186.096 Z" transform=""/><path fill="#d14e3f" stroke="none" d="M 190.871,186.561 S 186.112,186.031 183.073,187.576 C 180.45,188.913 179.628,190.583 179.481,191.722 L 179.899,191.561 L 180.087,191.942 L 180.448,191.703 L 180.632,192.128 S 181.493,189.464 185.031,188.474 C 189.035,187.355 190.377,188.949 190.377,188.949 L 190.871,186.561 Z" transform=""/><path fill="#d14e3f" stroke="none" d="M 189.423,162.308 S 189.836,160.231 188.622,159.363 C 187.479,158.546 186.65,156.987 187.268,156.516 C 187.887,156.046 188.42,155.619 188.904,156.1 C 189.37,156.557 189.285,157.308 190.176,157.956 C 190.419,158.135 190.754,158.346 191.309,158.606 C 191.78,158.825 191.969,159.51 191.602,160.048 C 191.06,160.845 191.164,162.077 190.549,162.855 C 189.485,164.195 189.423,162.308 189.423,162.308 Z" transform=""/><path fill="#d14e3f" stroke="none" d="M 192.608,171.22 S 189.383,169.021 189.213,164.882 C 189.192,164.328 189.262,163.22 189.336,162.548 C 189.35,162.428 188.956,162.05 188.729,161.71 C 188.839,161.741 189.224,161.924 189.465,162.081 C 189.579,161.968 189.643,161.812 189.756,161.669 L 189.961,162.097 L 190.237,161.64 L 190.499,162.07 L 190.727,161.702 S 190.869,161.814 190.967,161.942 C 191.081,161.885 191.223,161.914 191.578,161.73 C 191.137,162.226 190.933,162.45 190.91,162.567 C 190.771,163.233 190.352,164.414 190.619,165.334 C 190.87,166.213 191.015,168.696 193.699,169.48 C 194.538,169.725 192.608,171.22 192.608,171.22 Z" transform=""/><path fill="#d14e3f" stroke="none" d="M 187.417,157.474 S 186.825,157.017 186.946,156.677 C 187.071,156.336 187.952,156.305 188.088,156.874" transform=""/><path fill="#d14e3f" stroke="none" d="M 187.658,157.217 S 187.064,156.761 187.187,156.42 S 188.193,156.049 188.329,156.617" transform=""/><path fill="#d14e3f" stroke="none" d="M 187.989,156.975 S 187.396,156.518 187.518,156.178 C 187.641,155.837 188.524,155.805 188.661,156.377" transform=""/><path fill="#d14e3f" stroke="none" d="M 188.293,156.832 S 187.699,156.376 187.821,156.034 C 187.945,155.694 188.829,155.663 188.964,156.232" transform=""/><path fill="#d14e3f" stroke="none" d="M 203.987,167.968 S 205.138,166.19 206.613,166.411 C 208.002,166.618 209.684,166.079 209.565,165.311 C 209.447,164.542 209.363,163.865 208.681,163.871 C 208.028,163.877 207.566,164.474 206.476,164.322 C 206.179,164.279 205.791,164.2 205.211,163.999 C 204.719,163.829 204.107,164.189 203.995,164.83 C 203.831,165.78 202.897,166.593 202.798,167.578 C 202.629,169.28 203.987,167.968 203.987,167.968 Z" transform=""/><path fill="#d14e3f" stroke="none" d="M 195.498,172.15 S 199.344,172.816 202.345,169.963 C 202.748,169.579 203.469,168.735 203.883,168.201 C 203.958,168.105 204.504,168.11 204.902,168.022 C 204.802,167.967 204.398,167.831 204.116,167.776 C 204.113,167.616 204.176,167.459 204.193,167.279 L 203.749,167.441 L 203.868,166.922 L 203.38,167.048 L 203.474,166.623 S 203.293,166.609 203.133,166.63 C 203.091,166.511 202.968,166.432 202.842,166.054 C 202.813,166.717 202.805,167.019 202.739,167.119 C 202.374,167.694 201.856,168.833 201.024,169.31 C 200.231,169.764 198.398,171.447 195.925,170.142 C 195.152,169.734 195.498,172.15 195.498,172.15 Z" transform=""/><path fill="#d14e3f" stroke="none" d="M 208.792,165.893 S 209.535,165.977 209.684,165.649 C 209.834,165.319 209.222,164.682 208.727,164.996" transform=""/><path fill="#d14e3f" stroke="none" d="M 208.799,165.542 S 209.543,165.629 209.692,165.299 C 209.841,164.968 209.227,164.333 208.735,164.647" transform=""/><path fill="#d14e3f" stroke="none" d="M 208.73,165.138 S 209.473,165.225 209.622,164.894 C 209.772,164.564 209.159,163.927 208.664,164.242" transform=""/><path fill="#d14e3f" stroke="none" d="M 208.611,164.824 S 209.354,164.909 209.503,164.58 C 209.651,164.25 209.039,163.613 208.545,163.927" transform=""/><path fill="#d14e3f" stroke="none" d="M 190.855,176.437 S 189.556,170.343 192.364,168.883 C 194.41,167.821 197.912,168.785 197.775,171.965 C 197.631,175.337 193.228,177.41 193.228,177.41 L 190.855,176.437 Z" transform=""/><path fill="url(#r-f047e9fe67e4450b8fa69fdc3d0ca226)" stroke="none" d="M 197.485,170.375 C 196.705,168.683 194.529,168.136 192.895,168.664 C 192.741,168.957 192.653,169.28 192.653,169.624 C 192.653,170.86 193.767,171.862 195.142,171.862 C 196.223,171.861 197.14,171.244 197.485,170.375 Z" opacity="1" fill-opacity="1" style="opacity: 1;fill-opacity: 1" transform=""/><path fill="url(#r-a21e9caff540432b83ce44342b383766)" stroke="none" d="M 197.124,180.78 C 197.227,179.832 196.679,178.801 196.278,178.505 C 195,177.564 195.369,175.847 196.388,174.959 C 197.529,173.968 198.946,174.15 199.608,174.35 C 201.945,175.05 202.911,178.232 202.328,180.401 C 201.752,182.554 199.927,184.747 197.94,183.504 C 196.975,182.901 196.962,182.26 197.124,180.78 Z" opacity="1" fill-opacity="1" style="opacity: 1;fill-opacity: 1" transform=""/><path fill="#e2bda1" stroke="none" d="M 196.404,178.009 C 196.134,177.506 196.224,175.622 198.184,175.152 C 200.298,174.646 202.172,176.953 202.249,178.491 C 202.351,180.542 201.275,182.76 199.698,183.357 C 199.11,183.578 200.129,181.708 198.661,181.723 C 197.49,181.739 197.501,180.539 197.918,179.727 C 198.336,178.916 196.86,178.868 196.404,178.009 Z" transform=""/><path fill="#fcc7a3" stroke="none" d="M 199.818,179.332 C 199.141,178.696 198.271,178.924 197.814,179.115 C 197.987,179.273 198.058,179.458 197.918,179.728 C 197.5,180.54 197.49,181.739 198.66,181.724 C 199.219,181.719 199.417,181.987 199.482,182.307 C 200.083,181.492 200.551,180.02 199.818,179.332 Z" transform=""/><path fill="#db9e75" stroke="none" d="M 199.561,179.642 C 199.048,179.161 198.416,179.22 197.978,179.355 C 198.007,179.461 197.994,179.582 197.918,179.727 C 197.909,179.748 197.898,179.768 197.889,179.792 C 197.883,179.855 197.864,179.925 197.823,180.005 C 197.792,180.067 197.763,180.128 197.738,180.193 C 197.535,180.932 197.701,181.737 198.66,181.723 C 199.1,181.719 199.318,181.884 199.42,182.112 C 199.88,181.344 200.16,180.207 199.561,179.642 Z" transform=""/><path fill="url(#r-a21164b65d6e4d52856697d2af7c9021)" stroke="none" d="M 183.977,184.346 C 183.409,183.582 183.359,182.414 183.557,181.957 C 184.183,180.5 182.999,179.204 181.67,178.954 C 180.182,178.675 179.054,179.549 178.583,180.056 C 176.921,181.84 177.695,185.073 179.295,186.651 C 180.882,188.218 183.564,189.187 184.65,187.11 C 185.178,186.103 184.864,185.544 183.977,184.346 Z" opacity="1" fill-opacity="1" style="opacity: 1;fill-opacity: 1" transform=""/><path fill="#e2bda1" stroke="none" d="M 183.197,181.596 C 183.175,181.022 182.145,179.442 180.217,180.027 C 178.137,180.659 177.687,183.596 178.398,184.963 C 179.347,186.785 181.397,188.153 183.06,187.873 C 183.678,187.766 181.852,186.667 183.13,185.939 C 184.145,185.36 183.53,184.33 182.759,183.843 C 181.987,183.353 183.237,182.563 183.197,181.596 Z" transform=""/><path fill="#fcc7a3" stroke="none" d="M 180.922,184.459 C 181.184,183.567 182.05,183.325 182.539,183.26 C 182.47,183.484 182.504,183.679 182.759,183.842 C 183.53,184.33 184.145,185.36 183.13,185.938 C 182.643,186.216 182.607,186.547 182.713,186.856 C 181.783,186.458 180.635,185.423 180.922,184.459 Z" transform=""/><path fill="#db9e75" stroke="none" d="M 181.299,184.598 C 181.498,183.925 182.074,183.657 182.52,183.55 C 182.547,183.657 182.621,183.753 182.758,183.842 C 182.778,183.853 182.798,183.866 182.817,183.881 C 182.854,183.935 182.905,183.985 182.981,184.033 C 183.038,184.07 183.095,184.11 183.151,184.152 C 183.697,184.687 183.962,185.465 183.129,185.939 C 182.745,186.157 182.643,186.409 182.669,186.658 C 181.884,186.228 181.068,185.389 181.299,184.598 Z" transform=""/><path fill="url(#r-9d85b905cbf64bda8dcb98a8912bd2a3)" stroke="none" d="M 198.702,180.759 C 199.887,185.125 197.308,189.628 192.941,190.812 C 188.573,191.996 184.073,189.418 182.887,185.049 C 181.703,180.682 184.282,176.183 188.649,174.997 C 193.017,173.812 197.516,176.392 198.702,180.759 Z" opacity="1" fill-opacity="1" style="opacity: 1;fill-opacity: 1" transform=""/><path fill="#d14e3f" stroke="none" d="M 189.053,176.951 C 191.063,174.657 194.335,175.518 194.335,175.518 C 192.623,174.697 190.624,174.462 188.649,174.998 C 186.675,175.534 185.068,176.746 184.006,178.32 C 184.007,178.319 186.286,175.943 189.053,176.951 Z" transform=""/><path fill="#eeb490" stroke="none" d="M 192.264,186.513 C 192.319,186.714 192.125,186.937 191.833,187.018 C 191.542,187.096 191.261,186.999 191.208,186.802 C 191.154,186.603 191.347,186.378 191.638,186.298 C 191.93,186.22 192.211,186.316 192.264,186.513 Z" transform=""/><path fill="#fee6d3" stroke="none" d="M 191.295,189.745 C 189.865,190.556 187.731,190.196 187.879,189.104 C 188.026,188.008 189.907,187.802 190.792,188.138 C 191.228,188.302 191.717,188.175 191.717,188.175 S 192.206,188.066 192.519,187.717 C 193.152,187.014 194.919,186.338 195.552,187.24 C 196.183,188.147 194.448,189.445 192.808,189.376 C 192.466,189.364 192.231,189.384 192.03,189.438 C 192.029,189.438 191.591,189.576 191.295,189.745 Z" transform=""/><path fill="#eeb490" stroke="none" d="M 191.234,189.494 C 189.806,190.306 187.669,189.946 187.817,188.852 C 187.964,187.758 189.846,187.551 190.73,187.888 C 191.168,188.054 191.654,187.925 191.654,187.925 S 192.146,187.816 192.458,187.469 C 193.09,186.764 194.857,186.088 195.49,186.992 C 196.121,187.896 194.387,189.194 192.747,189.128 C 192.405,189.114 192.169,189.135 191.969,189.189 C 191.969,189.189 191.531,189.326 191.234,189.494 Z" transform=""/><path fill="#7a3440" stroke="none" d="M 191.259,189.593 C 189.829,190.405 187.694,190.045 187.841,188.95 C 187.99,187.856 189.872,187.649 190.755,187.986 C 191.19,188.152 191.68,188.024 191.68,188.024 S 192.169,187.916 192.482,187.568 C 193.114,186.864 194.882,186.187 195.514,187.091 C 196.147,187.996 194.412,189.292 192.771,189.227 C 192.429,189.213 192.193,189.233 191.993,189.287 C 191.992,189.286 191.554,189.425 191.259,189.593 Z" transform=""/><path fill="#f16253" stroke="none" d="M 191.907,188.983 C 190.264,188.612 189.318,189.545 189.318,189.545 C 189.626,189.81 190.481,189.573 191.228,189.521 C 191.292,189.488 191.44,189.443 191.503,189.408 C 191.874,189.195 192.246,189.144 192.896,189.17 C 192.997,189.174 193.096,189.173 193.198,189.168 C 193.92,188.781 194.581,188.239 194.581,188.239 C 193.563,187.773 191.907,188.983 191.907,188.983 Z" transform=""/><path fill="#fffdfd" stroke="none" d="M 193.565,187.384 C 193.619,187.267 193.617,187.036 193.588,186.855 C 193.138,187.03 192.726,187.296 192.481,187.569 C 192.169,187.916 191.679,188.024 191.679,188.024 S 191.189,188.152 190.754,187.986 C 190.407,187.856 189.911,187.808 189.423,187.862 C 189.457,188.064 189.519,188.266 189.641,188.335 C 190.346,188.726 193.213,188.119 193.565,187.384 Z" transform=""/><path fill="#fffdfd" stroke="none" d="M 194.797,187.806 C 194.812,188.094 194.446,188.338 193.513,188.744 C 192.921,189.002 191.274,189.434 190.542,189.465 C 189.774,189.494 189.055,189.663 188.812,189.326 C 188.531,188.945 188.2,189.04 188.108,189.272 C 188.093,189.465 188.209,189.65 188.411,189.815 C 189.117,190.152 190.336,190.118 191.26,189.593 C 191.555,189.426 191.994,189.287 191.994,189.287 C 192.194,189.233 192.43,189.212 192.772,189.227 C 193.733,189.265 194.727,188.835 195.257,188.29 C 195.281,188.266 195.302,188.241 195.322,188.217 C 195.443,187.97 195.481,187.734 195.425,187.537 C 195.315,187.251 194.765,187.182 194.797,187.806 Z" transform=""/><path fill="#d14e3f" stroke="none" d="M 191.935,177.58 S 193.488,177.064 194.401,178.535 C 194.401,178.535 194.014,178.257 193.836,178.238 C 193.836,178.238 194.207,178.52 194.214,179.047 C 194.214,179.047 193.951,178.627 193.649,178.459 C 193.649,178.459 194.009,178.88 193.944,179.491 C 193.944,179.491 193.25,177.811 191.935,177.58 Z" transform=""/><path fill="#d14e3f" stroke="none" d="M 191.935,177.455 S 193.488,176.937 194.401,178.411 C 194.401,178.411 194.014,178.134 193.836,178.113 C 193.836,178.113 194.207,178.397 194.214,178.924 C 194.214,178.924 193.951,178.502 193.649,178.335 C 193.649,178.335 194.009,178.756 193.944,179.366 C 193.944,179.366 193.25,177.687 191.935,177.455 Z" transform=""/><path fill="#d14e3f" stroke="none" d="M 187.981,178.961 S 186.382,178.618 185.634,180.181 C 185.634,180.181 185.989,179.864 186.164,179.824 C 186.164,179.824 185.825,180.145 185.877,180.67 C 185.877,180.67 186.093,180.222 186.374,180.022 C 186.374,180.022 186.064,180.481 186.193,181.079 C 186.193,181.079 186.7,179.336 187.981,178.961 Z" transform=""/><path fill="#d14e3f" stroke="none" d="M 187.968,178.837 S 186.369,178.494 185.621,180.057 C 185.621,180.057 185.976,179.74 186.152,179.699 C 186.152,179.699 185.812,180.021 185.864,180.546 C 185.864,180.546 186.08,180.098 186.362,179.898 C 186.362,179.898 186.05,180.357 186.181,180.956 C 186.18,180.957 186.686,179.212 187.968,178.837 Z" transform=""/><path fill="none" stroke="#d14e3f" d="M 194.636,169.769 S 193.247,168.326 192.82,165.765 C 192.477,163.698 193.647,161.727 195.337,160.896 C 198.836,159.18 201.79,163.624 198.243,165.686" style="stroke-linecap: round;stroke-linejoin: round;stroke-width: 2.1458547534483707px" stroke-width="2.1458547534483707" stroke-linecap="round" stroke-linejoin="round" transform=""/><path fill="url(#r-71f06a7f950d490a8105aa280e7d1c9c)" stroke="none" d="M 180.962,193.939 S 181.752,192.988 181.307,192.219 C 181.06,191.793 180.54,191.918 180.307,191.547 C 180.05,191.137 179.578,190.966 179.294,191.037 C 178.705,191.184 178.183,192.133 178.183,192.133 L 180.962,193.939 Z" opacity="1" fill-opacity="1" style="opacity: 1;fill-opacity: 1" transform=""/><path fill="url(#r-028723d04a754cd59920ac45ae2f250e)" stroke="none" d="M 178.522,193.127 C 178.293,193.276 177.78,193.084 177.804,192.63 C 177.82,192.323 178.927,191.003 179.446,191.341 C 179.709,191.512 179.315,192.603 178.522,193.127 Z" opacity="1" fill-opacity="1" style="opacity: 1;fill-opacity: 1" transform=""/><path fill="url(#r-e2393c7c5c1042ad82813a4c524c1c71)" stroke="none" d="M 179.15,193.677 C 178.923,193.826 178.409,193.633 178.433,193.18 C 178.449,192.873 179.554,191.553 180.074,191.892 C 180.339,192.063 179.943,193.153 179.15,193.677 Z" opacity="1" fill-opacity="1" style="opacity: 1;fill-opacity: 1" transform=""/><path fill="url(#r-8d1a3b00cb874e21851d38b987bf7ef4)" stroke="none" d="M 179.831,194.099 C 179.604,194.25 179.089,194.058 179.113,193.603 C 179.129,193.298 180.235,191.975 180.756,192.315 C 181.018,192.487 180.624,193.577 179.831,194.099 Z" opacity="1" fill-opacity="1" style="opacity: 1;fill-opacity: 1" transform=""/><path fill="url(#r-b1b480953b1143c0856bf19c22178a21)" stroke="none" d="M 180.511,194.435 C 180.283,194.586 179.769,194.393 179.792,193.939 C 179.808,193.633 180.764,192.445 181.285,192.783 C 181.547,192.954 181.303,193.913 180.511,194.435 Z" opacity="1" fill-opacity="1" style="opacity: 1;fill-opacity: 1" transform=""/><path fill="url(#r-02a124fcc3e44bdc86375188de6bcf60)" stroke="none" d="M 178.891,191.795 C 178.694,191.604 178.771,191.061 179.219,190.984 C 179.521,190.933 180.706,191.648 180.489,192.23 C 180.379,192.523 179.573,192.454 178.891,191.795 Z" opacity="1" fill-opacity="1" style="opacity: 1;fill-opacity: 1" transform=""/><ellipse cx="187.17015481392764" cy="184.90829222771822" rx="0.5588738461143251" ry="0.9279514001804174" fill="#304454" stroke="none" transform="rotate(-12.9203 187.17015508319997 184.9082914067437)" r="NaN"/><ellipse cx="194.1631758484981" cy="183.46195013584432" rx="0.5588738461143251" ry="0.9279514001804174" fill="#304454" stroke="none" transform="rotate(-12.9203 194.16317580489954 183.4619490260659)" r="NaN"/><path fill="#deb958" stroke="none" d="M 199.32,203.473 C 196.645,204.076 194.069,204.235 191.751,202.77 C 191,202.295 190.467,201.597 190.532,200.769 C 190.56,200.406 190.878,199.895 191.942,200.094 C 194.318,200.539 196.089,200.361 198.01,199.817 C 200.041,199.242 201.602,197.717 202.18,196.325 C 202.667,195.153 203.418,193.915 204.615,194.36 C 205.264,194.602 205.427,197.175 205.093,198.408 C 204.423,200.877 201.995,202.87 199.32,203.473 L 199.32,203.473 Z" transform=""/><path fill="#ccaa4f" stroke="none" d="M 204.844,194.637 C 205.075,195.546 205.104,197.064 204.878,197.897 C 204.218,200.331 201.922,202.407 199.286,203.001 C 196.648,203.596 193.793,203.7 191.508,202.256 C 191.187,202.053 190.749,201.534 190.55,200.904 C 190.58,201.794 191.157,202.346 191.676,202.674 C 193.961,204.119 196.77,204.023 199.407,203.429 C 202.044,202.834 204.437,200.871 205.097,198.437 C 205.386,197.374 205.298,195.298 204.844,194.637 Z" transform=""/><path fill="#eec65e" stroke="none" d="M 195.775,201.616 C 200.632,201.45 204.17,198.708 204.076,194.269 C 203.185,194.308 202.589,195.34 202.18,196.326 C 201.602,197.718 200.04,199.242 198.009,199.818 C 196.088,200.362 194.317,200.539 191.942,200.095 C 190.877,199.895 190.559,200.407 190.531,200.77 C 190.53,200.789 191.139,200.528 191.138,200.547 C 192.768,201.341 193.955,201.679 195.775,201.616 Z" transform=""/><path fill="#ccaa4f" stroke="none" d="M 203.511,194.53 L 204.024,194.714 S 204.22,194.369 204.615,194.361 C 204.545,193.62 204.235,192.586 203.987,192.111 C 203.718,191.596 203.251,192.099 203.251,192.099 L 202.9,192.59 C 202.899,192.59 203.51,193.023 203.511,194.53 Z" transform=""/><path fill="#eec65e" stroke="none" d="M 203.511,194.53 S 203.803,194.802 204.024,194.714 C 204.255,192.771 203.251,192.099 203.251,192.099 L 202.899,192.59 S 203.51,193.023 203.511,194.53 Z" transform=""/><path fill="#eec65e" stroke="none" d="M 204.024,194.714 C 204.035,194.622 204.078,194.718 204.084,194.631 C 204.215,192.757 203.251,192.099 203.251,192.099 L 203.215,192.149 S 204.088,192.647 204.024,194.714 Z" transform=""/><path fill="#ccaa4f" stroke="none" d="M 191.051,200.119 S 191.468,200.705 191.179,200.912 C 190.889,201.12 190.528,200.816 190.528,200.816 S 190.576,200.297 191.051,200.119 Z" transform=""/></svg>