<svg xmlns="http://www.w3.org/2000/svg" width="320" height="176" viewBox="0 0 320 176"><path fill="#e07d10" stroke="#000" d="M6.154 44v36h307.692V44H6.154" stroke-width="2" fill-opacity=".3"/><path fill="#0c7f99" stroke="#000" d="M6.154 84v36h202.02V84H6.154" stroke-width="2" fill-opacity=".3"/><path fill="#ca337c" stroke="#000" d="M208.174 84v36h105.672V84H208.174" stroke-width="2" fill-opacity=".3"/><path fill="none" stroke="#000" d="M6.154 44c1-3 6-5 10-6 0 0 3-1 6-1H147c5 0 10-3 10-3l3-4 3 4s5 3 10 3h124.846c3 1 6 1 6 1 4 1 9 3 10 6M208.174 120c-1 3-6 5-10 6 0 0-3 1-6 1h-72.01c-5 0-10 3-10 3l-3 4-3-4s-5-3-10-3h-72.01c-3-1-6-1-6-1-4-1-9-3-10-6"/><path fill="none" stroke="#000" d="M313.846 120c-1 3-6 5-10 6 0 0-3 1-6 1H274.01c-5 0-10 3-10 3l-3 4-3-4s-5-3-10-3h-23.836c-3-1-6-1-6-1-4-1-9-3-10-6"/></svg>
