<svg xmlns="http://www.w3.org/2000/svg" width="400" height="189.474" viewBox="0 0 400 189.47368421052633"><path fill="khaki" stroke="#000" d="M0 168.421l84.21-42.105h294.737l-84.21 42.105z" stroke-width="2" stroke-dasharray="0"/><path fill="gray" stroke="gray" d="M57.895 147.368V42.105h5.263v105.263z" stroke-width="2" stroke-dasharray="0"/><path fill="gray" stroke="gray" d="M36.842 63.158V21.053L84.21 0v42.105z" stroke-width="2" stroke-dasharray="0"/><ellipse cx="67.368" cy="54.737" rx="16.842" ry="4.211" fill="none" stroke="#6495ed" stroke-width="2" stroke-dasharray="0"/><ellipse cx="67.368" cy="61.053" rx="12.632" ry="3.158" fill="none" stroke="#6495ed" stroke-width="2" stroke-dasharray="0"/><ellipse cx="67.368" cy="67.368" rx="8.421" ry="2.105" fill="none" stroke="#6495ed" stroke-width="2" stroke-dasharray="0"/><path fill="none" stroke="#6495ed" d="M48.421 50.526l10.526 18.948M86.316 50.526L75.789 69.474M67.368 43.158v26.316M56.842 44.21l6.316 25.264M77.895 44.21l-6.316 25.263" stroke-width="2" stroke-dasharray="0"/><ellipse cx="67.368" cy="48.421" rx="18.947" ry="6.316" fill="none" stroke="#df0030" stroke-width="2" stroke-dasharray="0"/><ellipse cx="42.105" cy="157.895" rx="6.316" ry="6.316" fill="#6495ed" stroke="#000" stroke-width="2" stroke-dasharray="0"/><ellipse cx="63.158" cy="155.789" rx="6.316" ry="6.316" fill="#6495ed" stroke="#000" stroke-width="2" stroke-dasharray="0"/><ellipse cx="105.263" cy="160" rx="6.316" ry="6.316" fill="#6495ed" stroke="#000" stroke-width="2" stroke-dasharray="0"/><ellipse cx="126.316" cy="157.895" rx="6.316" ry="6.316" fill="#6495ed" stroke="#000" stroke-width="2" stroke-dasharray="0"/><ellipse cx="147.368" cy="160" rx="6.316" ry="6.316" fill="#6495ed" stroke="#000" stroke-width="2" stroke-dasharray="0"/><ellipse cx="73.684" cy="149.474" rx="6.316" ry="6.316" fill="#6495ed" stroke="#000" stroke-width="2" stroke-dasharray="0"/><ellipse cx="94.737" cy="147.368" rx="6.316" ry="6.316" fill="#6495ed" stroke="#000" stroke-width="2" stroke-dasharray="0"/><ellipse cx="77.895" cy="136.842" rx="6.316" ry="6.316" fill="#6495ed" stroke="#000" stroke-width="2" stroke-dasharray="0"/><ellipse cx="103.158" cy="136.842" rx="6.316" ry="6.316" fill="#6495ed" stroke="#000" stroke-width="2" stroke-dasharray="0"/><ellipse cx="122.105" cy="134.737" rx="6.316" ry="6.316" fill="#6495ed" stroke="#000" stroke-width="2" stroke-dasharray="0"/><ellipse cx="143.158" cy="132.632" rx="6.316" ry="6.316" fill="#6495ed" stroke="#000" stroke-width="2" stroke-dasharray="0"/><ellipse cx="157.895" cy="138.947" rx="6.316" ry="6.316" fill="#6495ed" stroke="#000" stroke-width="2" stroke-dasharray="0"/><ellipse cx="147.368" cy="145.263" rx="6.316" ry="6.316" fill="#6495ed" stroke="#000" stroke-width="2" stroke-dasharray="0"/><ellipse cx="166.316" cy="153.684" rx="6.316" ry="6.316" fill="#6495ed" stroke="#000" stroke-width="2" stroke-dasharray="0"/><ellipse cx="174.737" cy="134.737" rx="6.316" ry="6.316" fill="#6495ed" stroke="#000" stroke-width="2" stroke-dasharray="0"/><ellipse cx="185.263" cy="157.895" rx="6.316" ry="6.316" fill="#6495ed" stroke="#000" stroke-width="2" stroke-dasharray="0"/></svg>
