<svg xmlns="http://www.w3.org/2000/svg" width="208.44" height="160" viewBox="0 0 208.44036697247708 160"><path fill="#ddd7ff" stroke="#543b78" d="M5.872 142.385v14.679H20.55l7.34-7.339v-14.679H13.21z" stroke-width="2"/><path fill="#ddd7ff" stroke="#543b78" d="M5.872 142.385H20.55v14.679M20.55 142.385l7.34-7.339" stroke-width="2"/><path fill="#ddd7ff" stroke="#543b78" d="M5.872 127.706v14.679H20.55l7.34-7.339v-14.679H13.21z" stroke-width="2"/><path fill="#ddd7ff" stroke="#543b78" d="M5.872 127.706H20.55v14.679M20.55 127.706l7.34-7.339" stroke-width="2"/><path fill="#ddd7ff" stroke="#543b78" d="M5.872 113.028v14.678H20.55l7.34-7.339v-14.679H13.21z" stroke-width="2"/><path fill="#ddd7ff" stroke="#543b78" d="M5.872 113.028H20.55v14.678M20.55 113.028l7.34-7.34" stroke-width="2"/><path fill="#ddd7ff" stroke="#543b78" d="M5.872 98.349v14.679H20.55l7.34-7.34V91.009H13.21z" stroke-width="2"/><path fill="#ddd7ff" stroke="#543b78" d="M5.872 98.349H20.55v14.679M20.55 98.349l7.34-7.34" stroke-width="2"/><path fill="#ddd7ff" stroke="#543b78" d="M5.872 83.67v14.679H20.55l7.34-7.34V76.33H13.21z" stroke-width="2"/><path fill="#ddd7ff" stroke="#543b78" d="M5.872 83.67H20.55v14.679M20.55 83.67l7.34-7.34M5.872 68.99v14.68H20.55l7.34-7.34V61.651H13.21z" stroke-width="2"/><path fill="#ddd7ff" stroke="#543b78" d="M5.872 68.99H20.55v14.68M20.55 68.99l7.34-7.339" stroke-width="2"/><path fill="#ddd7ff" stroke="#543b78" d="M5.872 54.312V68.99H20.55l7.34-7.34V46.972H13.21z" stroke-width="2"/><path fill="#ddd7ff" stroke="#543b78" d="M5.872 54.312H20.55V68.99M20.55 54.312l7.34-7.34" stroke-width="2"/><path fill="#ddd7ff" stroke="#543b78" d="M5.872 39.633v14.679H20.55l7.34-7.34V32.294H13.21z" stroke-width="2"/><path fill="#ddd7ff" stroke="#543b78" d="M5.872 39.633H20.55v14.679M20.55 39.633l7.34-7.34" stroke-width="2"/><path fill="#ddd7ff" stroke="#543b78" d="M5.872 24.954v14.679H20.55l7.34-7.34V17.616H13.21z" stroke-width="2"/><path fill="#ddd7ff" stroke="#543b78" d="M5.872 24.954H20.55v14.679M20.55 24.954l7.34-7.34" stroke-width="2"/><path fill="#ddd7ff" stroke="#543b78" d="M5.872 10.275v14.68H20.55l7.34-7.34V2.935H13.21z" stroke-width="2"/><path fill="#ddd7ff" stroke="#543b78" d="M5.872 10.275H20.55v14.68M20.55 10.275l7.34-7.34M35.23 142.385v14.679h14.678l7.34-7.339v-14.679h-14.68z" stroke-width="2"/><path fill="#ddd7ff" stroke="#543b78" d="M35.23 142.385h14.678v14.679M49.908 142.385l7.34-7.339" stroke-width="2"/><path fill="#ddd7ff" stroke="#543b78" d="M35.23 127.706v14.679h14.678l7.34-7.339v-14.679h-14.68z" stroke-width="2"/><path fill="#ddd7ff" stroke="#543b78" d="M35.23 127.706h14.678v14.679M49.908 127.706l7.34-7.339" stroke-width="2"/><path fill="#ffbde0" stroke="#9e034e" d="M35.23 113.028v14.678h14.678l7.34-7.339v-14.679h-14.68z" stroke-width="2"/><path fill="#ffbde0" stroke="#9e034e" d="M35.23 113.028h14.678v14.678M49.908 113.028l7.34-7.34" stroke-width="2"/><path fill="#ffbde0" stroke="#9e034e" d="M35.23 98.349v14.679h14.678l7.34-7.34V91.009h-14.68z" stroke-width="2"/><path fill="#ffbde0" stroke="#9e034e" d="M35.23 98.349h14.678v14.679M49.908 98.349l7.34-7.34" stroke-width="2"/><path fill="#ffbde0" stroke="#9e034e" d="M35.23 83.67v14.679h14.678l7.34-7.34V76.33h-14.68z" stroke-width="2"/><path fill="#ffbde0" stroke="#9e034e" d="M35.23 83.67h14.678v14.679M49.908 83.67l7.34-7.34M35.23 68.99v14.68h14.678l7.34-7.34V61.651h-14.68z" stroke-width="2"/><path fill="#ffbde0" stroke="#9e034e" d="M35.23 68.99h14.678v14.68M49.908 68.99l7.34-7.339" stroke-width="2"/><path fill="#ffbde0" stroke="#9e034e" d="M35.23 54.312V68.99h14.678l7.34-7.34V46.972h-14.68z" stroke-width="2"/><path fill="#ffbde0" stroke="#9e034e" d="M35.23 54.312h14.678V68.99M49.908 54.312l7.34-7.34" stroke-width="2"/><path fill="#ffbde0" stroke="#9e034e" d="M35.23 39.633v14.679h14.678l7.34-7.34V32.294h-14.68z" stroke-width="2"/><path fill="#ffbde0" stroke="#9e034e" d="M35.23 39.633h14.678v14.679M49.908 39.633l7.34-7.34" stroke-width="2"/><path fill="#ffbde0" stroke="#9e034e" d="M35.23 24.954v14.679h14.678l7.34-7.34V17.616h-14.68z" stroke-width="2"/><path fill="#ffbde0" stroke="#9e034e" d="M35.23 24.954h14.678v14.679M49.908 24.954l7.34-7.34" stroke-width="2"/><path fill="#ffbde0" stroke="#9e034e" d="M35.23 10.275v14.68h14.678l7.34-7.34V2.935h-14.68z" stroke-width="2"/><path fill="#ffbde0" stroke="#9e034e" d="M35.23 10.275h14.678v14.68M49.908 10.275l7.34-7.34" stroke-width="2"/><path fill="#ffbde0" stroke="#000" d="M33.761 111.56l17.615 17.614M33.761 129.174l17.615-17.614M33.761 96.88l17.615 17.615M33.761 114.495l17.615-17.614M33.761 82.202l17.615 17.615M33.761 99.817l17.615-17.615M33.761 67.523l17.615 17.615M33.761 85.138l17.615-17.615M33.761 52.844l17.615 17.615M33.761 70.459l17.615-17.615M33.761 38.165L51.376 55.78M33.761 55.78l17.615-17.615M33.761 23.486l17.615 17.615M33.761 41.1l17.615-17.614M33.761 8.807l17.615 17.615M33.761 26.422L51.376 8.807" stroke-width="2"/><path fill="#ffbde0" stroke="#9e034e" d="M64.587 142.385v14.679h14.68l7.339-7.339v-14.679h-14.68z" stroke-width="2"/><path fill="#ffbde0" stroke="#9e034e" d="M64.587 142.385h14.68v14.679M79.266 142.385l7.34-7.339" stroke-width="2"/><path fill="#ffbde0" stroke="#9e034e" d="M64.587 127.706v14.679h14.68l7.339-7.339v-14.679h-14.68z" stroke-width="2"/><path fill="#ffbde0" stroke="#9e034e" d="M64.587 127.706h14.68v14.679M79.266 127.706l7.34-7.339" stroke-width="2"/><path fill="#ffbde0" stroke="#9e034e" d="M64.587 113.028v14.678h14.68l7.339-7.339v-14.679h-14.68z" stroke-width="2"/><path fill="#ffbde0" stroke="#9e034e" d="M64.587 113.028h14.68v14.678M79.266 113.028l7.34-7.34" stroke-width="2"/><path fill="#ffbde0" stroke="#9e034e" d="M64.587 98.349v14.679h14.68l7.339-7.34V91.009h-14.68z" stroke-width="2"/><path fill="#ffbde0" stroke="#9e034e" d="M64.587 98.349h14.68v14.679M79.266 98.349l7.34-7.34" stroke-width="2"/><path fill="#ffbde0" stroke="#9e034e" d="M64.587 83.67v14.679h14.68l7.339-7.34V76.33h-14.68z" stroke-width="2"/><path fill="#ffbde0" stroke="#9e034e" d="M64.587 83.67h14.68v14.679M79.266 83.67l7.34-7.34M64.587 68.99v14.68h14.68l7.339-7.34V61.651h-14.68z" stroke-width="2"/><path fill="#ffbde0" stroke="#9e034e" d="M64.587 68.99h14.68v14.68M79.266 68.99l7.34-7.339" stroke-width="2"/><path fill="#ffbde0" stroke="#9e034e" d="M64.587 54.312V68.99h14.68l7.339-7.34V46.972h-14.68z" stroke-width="2"/><path fill="#ffbde0" stroke="#9e034e" d="M64.587 54.312h14.68V68.99M79.266 54.312l7.34-7.34" stroke-width="2"/><path fill="#ffbde0" stroke="#9e034e" d="M64.587 39.633v14.679h14.68l7.339-7.34V32.294h-14.68z" stroke-width="2"/><path fill="#ffbde0" stroke="#9e034e" d="M64.587 39.633h14.68v14.679M79.266 39.633l7.34-7.34" stroke-width="2"/><path fill="#ffbde0" stroke="#9e034e" d="M64.587 24.954v14.679h14.68l7.339-7.34V17.616h-14.68z" stroke-width="2"/><path fill="#ffbde0" stroke="#9e034e" d="M64.587 24.954h14.68v14.679M79.266 24.954l7.34-7.34" stroke-width="2"/><path fill="#ffbde0" stroke="#9e034e" d="M64.587 10.275v14.68h14.68l7.339-7.34V2.935h-14.68z" stroke-width="2"/><path fill="#ffbde0" stroke="#9e034e" d="M64.587 10.275h14.68v14.68M79.266 10.275l7.34-7.34" stroke-width="2"/><path fill="#ffbde0" stroke="#000" d="M63.12 140.917l17.614 17.615M63.12 158.532l17.614-17.615M63.12 126.239l17.614 17.614M63.12 143.853l17.614-17.614M63.12 111.56l17.614 17.614M63.12 129.174l17.614-17.614M63.12 96.88l17.614 17.615M63.12 114.495l17.614-17.614M63.12 82.202l17.614 17.615M63.12 99.817l17.614-17.615M63.12 67.523l17.614 17.615M63.12 85.138l17.614-17.615M63.12 52.844l17.614 17.615M63.12 70.459l17.614-17.615M63.12 38.165L80.733 55.78M63.12 55.78l17.614-17.615M63.12 23.486l17.614 17.615M63.12 41.1l17.614-17.614M63.12 8.807l17.614 17.615M63.12 26.422L80.733 8.807" stroke-width="2"/><path fill="#ffbde0" stroke="#9e034e" d="M93.945 142.385v14.679h14.679l7.339-7.339v-14.679h-14.679z" stroke-width="2"/><path fill="#ffbde0" stroke="#9e034e" d="M93.945 142.385h14.679v14.679M108.624 142.385l7.339-7.339" stroke-width="2"/><path fill="#ffbde0" stroke="#9e034e" d="M93.945 127.706v14.679h14.679l7.339-7.339v-14.679h-14.679z" stroke-width="2"/><path fill="#ffbde0" stroke="#9e034e" d="M93.945 127.706h14.679v14.679M108.624 127.706l7.339-7.339" stroke-width="2"/><path fill="#ffbde0" stroke="#9e034e" d="M93.945 113.028v14.678h14.679l7.339-7.339v-14.679h-14.679z" stroke-width="2"/><path fill="#ffbde0" stroke="#9e034e" d="M93.945 113.028h14.679v14.678M108.624 113.028l7.339-7.34" stroke-width="2"/><path fill="#ffbde0" stroke="#9e034e" d="M93.945 98.349v14.679h14.679l7.339-7.34V91.009h-14.679z" stroke-width="2"/><path fill="#ffbde0" stroke="#9e034e" d="M93.945 98.349h14.679v14.679M108.624 98.349l7.339-7.34" stroke-width="2"/><path fill="#ffbde0" stroke="#9e034e" d="M93.945 83.67v14.679h14.679l7.339-7.34V76.33h-14.679z" stroke-width="2"/><path fill="#ffbde0" stroke="#9e034e" d="M93.945 83.67h14.679v14.679M108.624 83.67l7.339-7.34M93.945 68.99v14.68h14.679l7.339-7.34V61.651h-14.679z" stroke-width="2"/><path fill="#ffbde0" stroke="#9e034e" d="M93.945 68.99h14.679v14.68M108.624 68.99l7.339-7.339" stroke-width="2"/><path fill="#ffbde0" stroke="#9e034e" d="M93.945 54.312V68.99h14.679l7.339-7.34V46.972h-14.679z" stroke-width="2"/><path fill="#ffbde0" stroke="#9e034e" d="M93.945 54.312h14.679V68.99M108.624 54.312l7.339-7.34" stroke-width="2"/><path fill="#ffbde0" stroke="#9e034e" d="M93.945 39.633v14.679h14.679l7.339-7.34V32.294h-14.679z" stroke-width="2"/><path fill="#ffbde0" stroke="#9e034e" d="M93.945 39.633h14.679v14.679M108.624 39.633l7.339-7.34" stroke-width="2"/><path fill="#ffbde0" stroke="#9e034e" d="M93.945 24.954v14.679h14.679l7.339-7.34V17.616h-14.679z" stroke-width="2"/><path fill="#ffbde0" stroke="#9e034e" d="M93.945 24.954h14.679v14.679M108.624 24.954l7.339-7.34" stroke-width="2"/><path fill="#ffbde0" stroke="#9e034e" d="M93.945 10.275v14.68h14.679l7.339-7.34V2.935h-14.679z" stroke-width="2"/><path fill="#ffbde0" stroke="#9e034e" d="M93.945 10.275h14.679v14.68M108.624 10.275l7.339-7.34" stroke-width="2"/><path fill="#ffbde0" stroke="#000" d="M92.477 140.917l17.615 17.615M92.477 158.532l17.615-17.615M92.477 126.239l17.615 17.614M92.477 143.853l17.615-17.614M92.477 111.56l17.615 17.614M92.477 129.174l17.615-17.614M92.477 96.88l17.615 17.615M92.477 114.495l17.615-17.614M92.477 82.202l17.615 17.615M92.477 99.817l17.615-17.615M92.477 67.523l17.615 17.615M92.477 85.138l17.615-17.615M92.477 52.844l17.615 17.615M92.477 70.459l17.615-17.615M92.477 38.165l17.615 17.615M92.477 55.78l17.615-17.615M92.477 23.486l17.615 17.615M92.477 41.1l17.615-17.614M92.477 8.807l17.615 17.615M92.477 26.422l17.615-17.615" stroke-width="2"/><path fill="#ffbde0" stroke="#9e034e" d="M123.303 142.385v14.679h14.679l7.339-7.339v-14.679h-14.679z" stroke-width="2"/><path fill="#ffbde0" stroke="#9e034e" d="M123.303 142.385h14.679v14.679M137.982 142.385l7.339-7.339" stroke-width="2"/><path fill="#ffbde0" stroke="#9e034e" d="M123.303 127.706v14.679h14.679l7.339-7.339v-14.679h-14.679z" stroke-width="2"/><path fill="#ffbde0" stroke="#9e034e" d="M123.303 127.706h14.679v14.679M137.982 127.706l7.339-7.339" stroke-width="2"/><path fill="#ffbde0" stroke="#9e034e" d="M123.303 113.028v14.678h14.679l7.339-7.339v-14.679h-14.679z" stroke-width="2"/><path fill="#ffbde0" stroke="#9e034e" d="M123.303 113.028h14.679v14.678M137.982 113.028l7.339-7.34" stroke-width="2"/><path fill="#ffbde0" stroke="#9e034e" d="M123.303 98.349v14.679h14.679l7.339-7.34V91.009h-14.679z" stroke-width="2"/><path fill="#ffbde0" stroke="#9e034e" d="M123.303 98.349h14.679v14.679M137.982 98.349l7.339-7.34" stroke-width="2"/><path fill="#ffbde0" stroke="#9e034e" d="M123.303 83.67v14.679h14.679l7.339-7.34V76.33h-14.679z" stroke-width="2"/><path fill="#ffbde0" stroke="#9e034e" d="M123.303 83.67h14.679v14.679M137.982 83.67l7.339-7.34M123.303 68.99v14.68h14.679l7.339-7.34V61.651h-14.679z" stroke-width="2"/><path fill="#ffbde0" stroke="#9e034e" d="M123.303 68.99h14.679v14.68M137.982 68.99l7.339-7.339" stroke-width="2"/><path fill="#ffbde0" stroke="#9e034e" d="M123.303 54.312V68.99h14.679l7.339-7.34V46.972h-14.679z" stroke-width="2"/><path fill="#ffbde0" stroke="#9e034e" d="M123.303 54.312h14.679V68.99M137.982 54.312l7.339-7.34" stroke-width="2"/><path fill="#ffbde0" stroke="#9e034e" d="M123.303 39.633v14.679h14.679l7.339-7.34V32.294h-14.679z" stroke-width="2"/><path fill="#ffbde0" stroke="#9e034e" d="M123.303 39.633h14.679v14.679M137.982 39.633l7.339-7.34" stroke-width="2"/><path fill="#ffbde0" stroke="#9e034e" d="M123.303 24.954v14.679h14.679l7.339-7.34V17.616h-14.679z" stroke-width="2"/><path fill="#ffbde0" stroke="#9e034e" d="M123.303 24.954h14.679v14.679M137.982 24.954l7.339-7.34" stroke-width="2"/><path fill="#ffbde0" stroke="#9e034e" d="M123.303 10.275v14.68h14.679l7.339-7.34V2.935h-14.679z" stroke-width="2"/><path fill="#ffbde0" stroke="#9e034e" d="M123.303 10.275h14.679v14.68M137.982 10.275l7.339-7.34" stroke-width="2"/><path fill="#ffbde0" stroke="#000" d="M121.835 140.917l17.615 17.615M121.835 158.532l17.615-17.615M121.835 126.239l17.615 17.614M121.835 143.853l17.615-17.614M121.835 111.56l17.615 17.614M121.835 129.174l17.615-17.614M121.835 96.88l17.615 17.615M121.835 114.495l17.615-17.614M121.835 82.202l17.615 17.615M121.835 99.817l17.615-17.615M121.835 67.523l17.615 17.615M121.835 85.138l17.615-17.615M121.835 52.844l17.615 17.615M121.835 70.459l17.615-17.615M121.835 38.165L139.45 55.78M121.835 55.78l17.615-17.615M121.835 23.486l17.615 17.615M121.835 41.1l17.615-17.614M121.835 8.807l17.615 17.615M121.835 26.422L139.45 8.807" stroke-width="2"/><path fill="#ffbde0" stroke="#9e034e" d="M152.661 142.385v14.679h14.678l7.34-7.339v-14.679H160z" stroke-width="2"/><path fill="#ffbde0" stroke="#9e034e" d="M152.661 142.385h14.678v14.679M167.339 142.385l7.34-7.339" stroke-width="2"/><path fill="#ffbde0" stroke="#9e034e" d="M152.661 127.706v14.679h14.678l7.34-7.339v-14.679H160z" stroke-width="2"/><path fill="#ffbde0" stroke="#9e034e" d="M152.661 127.706h14.678v14.679M167.339 127.706l7.34-7.339" stroke-width="2"/><path fill="#ffbde0" stroke="#9e034e" d="M152.661 113.028v14.678h14.678l7.34-7.339v-14.679H160z" stroke-width="2"/><path fill="#ffbde0" stroke="#9e034e" d="M152.661 113.028h14.678v14.678M167.339 113.028l7.34-7.34" stroke-width="2"/><path fill="#ffbde0" stroke="#9e034e" d="M152.661 98.349v14.679h14.678l7.34-7.34V91.009H160z" stroke-width="2"/><path fill="#ffbde0" stroke="#9e034e" d="M152.661 98.349h14.678v14.679M167.339 98.349l7.34-7.34" stroke-width="2"/><path fill="#ffbde0" stroke="#9e034e" d="M152.661 83.67v14.679h14.678l7.34-7.34V76.33H160z" stroke-width="2"/><path fill="#ffbde0" stroke="#9e034e" d="M152.661 83.67h14.678v14.679M167.339 83.67l7.34-7.34M152.661 68.99v14.68h14.678l7.34-7.34V61.651H160z" stroke-width="2"/><path fill="#ffbde0" stroke="#9e034e" d="M152.661 68.99h14.678v14.68M167.339 68.99l7.34-7.339" stroke-width="2"/><path fill="#ffbde0" stroke="#9e034e" d="M152.661 54.312V68.99h14.678l7.34-7.34V46.972H160z" stroke-width="2"/><path fill="#ffbde0" stroke="#9e034e" d="M152.661 54.312h14.678V68.99M167.339 54.312l7.34-7.34" stroke-width="2"/><path fill="#ffbde0" stroke="#9e034e" d="M152.661 39.633v14.679h14.678l7.34-7.34V32.294H160z" stroke-width="2"/><path fill="#ffbde0" stroke="#9e034e" d="M152.661 39.633h14.678v14.679M167.339 39.633l7.34-7.34" stroke-width="2"/><path fill="#ffbde0" stroke="#9e034e" d="M152.661 24.954v14.679h14.678l7.34-7.34V17.616H160z" stroke-width="2"/><path fill="#ffbde0" stroke="#9e034e" d="M152.661 24.954h14.678v14.679M167.339 24.954l7.34-7.34" stroke-width="2"/><path fill="#ffbde0" stroke="#9e034e" d="M152.661 10.275v14.68h14.678l7.34-7.34V2.935H160z" stroke-width="2"/><path fill="#ffbde0" stroke="#9e034e" d="M152.661 10.275h14.678v14.68M167.339 10.275l7.34-7.34" stroke-width="2"/><path fill="#ffbde0" stroke="#000" d="M151.193 140.917l17.614 17.615M151.193 158.532l17.614-17.615M151.193 126.239l17.614 17.614M151.193 143.853l17.614-17.614M151.193 111.56l17.614 17.614M151.193 129.174l17.614-17.614M151.193 96.88l17.614 17.615M151.193 114.495l17.614-17.614M151.193 82.202l17.614 17.615M151.193 99.817l17.614-17.615M151.193 67.523l17.614 17.615M151.193 85.138l17.614-17.615M151.193 52.844l17.614 17.615M151.193 70.459l17.614-17.615M151.193 38.165l17.614 17.615M151.193 55.78l17.614-17.615M151.193 23.486l17.614 17.615M151.193 41.1l17.614-17.614M151.193 8.807l17.614 17.615M151.193 26.422l17.614-17.615" stroke-width="2"/><path fill="#ffbde0" stroke="#9e034e" d="M182.018 142.385v14.679h14.679l7.34-7.339v-14.679h-14.679z" stroke-width="2"/><path fill="#ffbde0" stroke="#9e034e" d="M182.018 142.385h14.679v14.679M196.697 142.385l7.34-7.339M182.018 113.028v14.678h14.679l7.34-7.339v-14.679h-14.679z" stroke-width="2"/><path fill="#ffbde0" stroke="#9e034e" d="M182.018 113.028h14.679v14.678M196.697 113.028l7.34-7.34M182.018 83.67v14.679h14.679l7.34-7.34V76.33h-14.679z" stroke-width="2"/><path fill="#ffbde0" stroke="#9e034e" d="M182.018 83.67h14.679v14.679M196.697 83.67l7.34-7.34M182.018 54.312V68.99h14.679l7.34-7.34V46.972h-14.679z" stroke-width="2"/><path fill="#ffbde0" stroke="#9e034e" d="M182.018 54.312h14.679V68.99M196.697 54.312l7.34-7.34M182.018 24.954v14.679h14.679l7.34-7.34V17.616h-14.679z" stroke-width="2"/><path fill="#ffbde0" stroke="#9e034e" d="M182.018 24.954h14.679v14.679M196.697 24.954l7.34-7.34" stroke-width="2"/><path fill="#ffbde0" stroke="#000" d="M180.55 140.917l17.615 17.615M180.55 158.532l17.615-17.615M180.55 111.56l17.615 17.614M180.55 129.174l17.615-17.614M180.55 82.202l17.615 17.615M180.55 99.817l17.615-17.615M180.55 52.844l17.615 17.615M180.55 70.459l17.615-17.615M180.55 23.486l17.615 17.615M180.55 41.1l17.615-17.614" stroke-width="2"/></svg>
