<svg xmlns="http://www.w3.org/2000/svg" width="320" height="176" viewBox="0 0 320 176"><path fill="#7854ab" stroke="#000" d="M6.154 44v36h307.692V44H6.154" stroke-width="2" fill-opacity=".3"/><path fill="#ca337c" stroke="#000" d="M6.154 84v36h169.231V84H6.154" stroke-width="2" fill-opacity=".3"/><path fill="#11accd" stroke="#000" d="M175.385 84v36h138.461V84H175.385" stroke-width="2" fill-opacity=".3"/><path fill="none" stroke="#000" d="M6.154 44c1-3 6-5 10-6 0 0 3-1 6-1H147c5 0 10-3 10-3l3-4 3 4s5 3 10 3h124.846c3 1 6 1 6 1 4 1 9 3 10 6M175.385 120c-1 3-6 5-10 6 0 0-3 1-6 1H103.77c-5 0-10 3-10 3l-3 4-3-4s-5-3-10-3H22.152c-3-1-6-1-6-1-4-1-9-3-10-6"/><path fill="none" stroke="#000" d="M313.846 120c-1 3-6 5-10 6 0 0-3 1-6 1h-40.231c-5 0-10 3-10 3l-3 4-3-4s-5-3-10-3h-40.231c-3-1-6-1-6-1-4-1-9-3-10-6"/></svg>
