<svg xmlns="http://www.w3.org/2000/svg" width="375" height="400" viewBox="0 0 375 400"><defs><radialGradient id="a" fx=".5" fy=".5"><stop offset="0%" stop-color="#fee6d3"/><stop offset="29.16%" stop-color="#fee4d0"/><stop offset="52.23%" stop-color="#fedec6"/><stop offset="73.2%" stop-color="#fdd3b6"/><stop offset="92.83%" stop-color="#fcc4a0"/><stop offset="100%" stop-color="#fbbd97"/></radialGradient><radialGradient id="b" fx=".5" fy=".5"><stop offset="0%" stop-color="#ffe600"/><stop offset="29.16%" stop-color="#ffe400"/><stop offset="52.23%" stop-color="#fd0"/><stop offset="73.2%" stop-color="#ffd100"/><stop offset="92.83%" stop-color="#fec00f"/><stop offset="100%" stop-color="#fdb913"/></radialGradient></defs><path fill="#deb958" d="M222.618 106.824s.795.477 2.147-.239c0-1.578.16-4.992.253-6.848-1.689-.281-3.321-.6-4.969-.773.7 2.435 1.545 5.067 2.569 7.86zM236.079 100.938c.916 2.502 1.714 5.742 1.714 5.742s.706.388 1.813-.289c.562-2.26 1.138-7.09 2.104-11.482-2.121 1.837-4.113 3.778-5.631 6.029z"/><path fill="#ccaa4f" d="M223.073 101.26c.257-.514 1.054-.486 1.886-.297.021-.45.041-.866.06-1.225-1.689-.281-3.321-.6-4.969-.773.7 2.436 1.545 5.067 2.569 7.86 0 0 .795.477 2.147-.239 0-.185.002-.398.007-.629-2.425.19-2.373-3.182-1.7-4.697zM239.339 105.28c-.664-2.525.411-4.76 1.679-6.847.208-1.169.437-2.36.692-3.524-2.121 1.836-4.114 3.777-5.631 6.029.916 2.502 1.714 5.742 1.714 5.742s.705.388 1.812-.289c.055-.218.109-.461.163-.724-.248-.069-.429-.206-.429-.387z"/><path fill="#304454" d="M222.618 106.824s-.34 1.518-.025 2.607c.266.242 2.203.411 2.905-.557-.049-.556-.449-1.793-.733-2.289 0 0-1.323.609-2.147.239zM237.696 106.637s.806.483 1.978-.278c.537.622.884 2.803.884 2.803s-1.689 1.275-3.144.548c0 0-.429-2.056.282-3.073z"/><path fill="#f1d285" d="M203.97 74.1s-6.18 3.632-3.12 6.373c3.057 2.737 6.651 1.88 6.913.657 2.009 1.048 5.311-.257 5.311-.257s.348 11.435 6.46 28.108c0 0 .873.526 2.356-.262 0-2.444.349-8.902.349-8.902s7.683 2.182 11.611 1.048c.611 2.618.786 7.506.786 7.506s.611.523 1.832.087c1.222-2.531 3.23-8.73 5.587-13.268 2.356-4.54 3.144-14.317-4.365-13.968-7.507.35-13.792-.261-15.888-2.27-2.095-2.006-1.92-4.888-1.658-7.157.262-2.27-2.269-5.238-4.802-4.89-2.531.35-7.006 1.75-8.817 3.056-1.72 1.24-2.555 4.14-2.555 4.14z"/><path fill="#deb958" d="M237.302 99.066c-4.752 1.097-9.504.183-14.256-.731-.731-.183-2.011-.55-2.559-1.646 1.279 3.108 1.097 6.215.548 9.322 0 .548-1.279 1.097-1.462.548-1.645-4.386-2.714-8.933-3.421-13.647-.978-6.517-2.553-13.892-.417-19.434-2.052 5.324-8.465 5.37-8.693 5.91-.506 1.194-6.393.914-6.393.914 2.109 2.425 6.393 2.454 7.088.829.028-.067.059-.13.092-.188 1.167 1.345 5.219-.07 5.219-.07s.349 11.436 6.46 28.109c0 0 .873.524 2.357-.262 0-2.445.348-8.903.348-8.903s7.683 2.182 11.611 1.047c.611 2.619.786 7.507.786 7.507s.579.493 1.732.12c-1.59-2.744-1.213-6.891.96-9.425z" opacity=".5"/><path fill="#deb958" d="M214.482 69.64c1.227-.308 2.054-1.302 2.48-2.534a3.292 3.292 0 0 0-1.618-.2c-2.317.32-6.167 1.662-8.276 2.758 2.406.558 4.967.551 7.414-.025z"/><path fill="#f4953f" d="M240.922 83.404s-.174-3.316 4.015-3.316c4.19 0 5.412 2.792 4.103 7.245-1.309 4.451-1.135 6.198.35 5.761 0 0 .262-.523-.175-.523 0 0 .785-.175.785.698 0 .872-1.658 1.484-3.055-.087-.087.872 1.484 1.31 2.008 1.31-.786.96-3.23 1.395-4.278-1.049-1.047-2.444-.96-3.84-.96-3.84s-.437-4.453-1.048-4.627c0 0-1.396.088-1.745-1.572z"/><path fill="#2c8fc0" d="M245.386 88.624c-.01-.243-.015-.481-.015-.707-.06.236-.041.471.015.707z"/><path fill="#d78334" d="M245.386 88.624a1.471 1.471 0 0 1-.015-.707c0 .225.005.463.015.707m0 0c.118.496.41.99.533 1.486.365-2.376 1.096-5.85-2.011-6.397.549-.365 1.097-.182 1.645 0-.365-1.096-2.193-.548-2.376-1.096-.183-1.28 1.828-.915 2.925-.915-.537-.356-.9-1.064-1.429-1.608-3.917.138-3.752 3.31-3.752 3.31.349 1.66 1.746 1.572 1.746 1.572.612.174 1.047 4.627 1.047 4.627s-.087 1.396.961 3.84c.814 1.9 2.472 2.06 3.538 1.585-2.121-1.047-2.731-4.05-2.827-6.404z"/><path fill="#304454" d="M219.535 108.982s-.373 1.666-.027 2.862c.291.265 2.418.452 3.189-.611-.054-.612-.494-1.969-.805-2.513 0 .001-1.453.67-2.357.262zM234.549 108.309s.691.638 1.993.133c.398.718.292 2.923.292 2.923s-1.913.904-3.189-.106c.001.001.001-2.099.904-2.95z"/><path fill="#f4953f" d="M216.035 68.45s-3.316 1.484-6.196.873c-2.882-.611-5.762-4.365-3.144-6.372-.174.96.175 3.054 3.144 2.705-.788 0-1.747-1.658-.962-2.705.264.523.962 2.094 3.318 1.309 2.356-.786 7.071-2.095 9.34 1.396 2.269 3.493 1.658 9.692 6.983 9.515.698-.087.611-1.222-.262-1.222 1.659-.175 4.453 5.675-2.88 6.373-2.183.786-6.372-1.571-6.46-5.063-.087-3.492.611-7.333-2.881-6.808z"/><path fill="#d78334" d="M229.953 75.555c-.153.383-.429.7-.891.91-1.463.73-3.473.365-5.118-.549.183.73.365 1.28 1.28 1.28-4.752.911-5.85-4.57-5.301-8.225.184 1.096 1.096 2.376 2.376 2.56-1.115-1.536-.74-3.71-.664-5.71-.032-.054-.065-.11-.1-.165-1.494-2.299-4.051-2.517-6.293-2.172-.994 2.037-1.786 4.268-4.639 3.476.366.548.731.548 1.462.548-1.289.773-2.851 1.183-4.3.844.633.467 1.354.817 2.073.971 2.88.611 6.197-.873 6.197-.873 3.493-.525 2.794 3.317 2.882 6.808.087 3.492 4.277 5.85 6.46 5.063 4.715-.449 5.242-3.028 4.576-4.766z"/><path fill="#f1d285" d="M216.677 70.009s-.915-2.002.515-3.376l1.431-1.372s.915 2.174.4 3.776c-.344 1.2-1.488 1.887-2.346.972z"/><path fill="#f6a5bf" d="M214.857 64.705l.005.018a.085.085 0 0 0-.005-.018m0 0z"/><path fill="#ccaa4f" d="M218.258 66.542s-1.495 1.025-1.239 2.392c.257 1.367 1.154.47 1.368 0 .213-.47-.129-2.392-.129-2.392z"/><path fill="#e8c4dd" d="M225.448 80.514l-.032.053.064.015c-.012-.022-.022-.045-.032-.067z"/><ellipse cx="209.59" cy="73.647" rx=".65" ry="1.079" fill="#304454"/><path fill="#28ae7b" stroke="#28ae7b" d="M0 400h375v-12.5H0z" stroke-width="2" stroke-dasharray="0"/><path fill="gray" stroke="gray" d="M200 387.5h100v-300H200zM225 87.5h75v-50h-75zM200 37.5h100v-25H200zM200 12.5h12.5V0H200zM237.5 12.5h25V0h-25zM287.5 12.5H300V0h-12.5z" stroke-width="2" stroke-dasharray="0"/><path stroke="#000" d="M200 375h100M200 362.5h100M225 387.5V375M250 387.5V375M275 387.5V375M212.5 375v-12.5M237.5 375v-12.5M262.5 375v-12.5M287.5 375v-12.5M200 350h100M200 337.5h100M225 362.5V350M250 362.5V350M275 362.5V350M212.5 350v-12.5M237.5 350v-12.5M262.5 350v-12.5M287.5 350v-12.5M200 325h100M200 312.5h100M225 337.5V325M250 337.5V325M275 337.5V325M212.5 325v-12.5M237.5 325v-12.5M262.5 325v-12.5M287.5 325v-12.5M200 300h100M200 287.5h100M225 312.5V300M250 312.5V300M275 312.5V300M212.5 300v-12.5M237.5 300v-12.5M262.5 300v-12.5M287.5 300v-12.5M200 275h100M200 262.5h100M225 287.5V275M250 287.5V275M275 287.5V275M212.5 275v-12.5M237.5 275v-12.5M262.5 275v-12.5M287.5 275v-12.5M200 250h100M200 237.5h100M225 262.5V250M250 262.5V250M275 262.5V250M212.5 250v-12.5M237.5 250v-12.5M262.5 250v-12.5M287.5 250v-12.5M200 225h100M200 212.5h100M225 237.5V225M250 237.5V225M275 237.5V225M212.5 225v-12.5M237.5 225v-12.5M262.5 225v-12.5M287.5 225v-12.5M200 200h100M200 187.5h100M225 212.5V200M250 212.5V200M275 212.5V200M212.5 200v-12.5M237.5 200v-12.5M262.5 200v-12.5M287.5 200v-12.5M200 175h100M200 162.5h100M225 187.5V175M250 187.5V175M275 187.5V175M212.5 175v-12.5M237.5 175v-12.5M262.5 175v-12.5M287.5 175v-12.5M200 150h100M200 137.5h100M225 162.5V150M250 162.5V150M275 162.5V150M212.5 150v-12.5M237.5 150v-12.5M262.5 150v-12.5M287.5 150v-12.5M200 125h100M200 112.5h100M225 137.5V125M250 137.5V125M275 137.5V125M212.5 125v-12.5M237.5 125v-12.5M262.5 125v-12.5M287.5 125v-12.5M200 100h100M200 87.5h100M225 112.5V100M250 112.5V100M275 112.5V100M212.5 100V87.5M237.5 100V87.5M262.5 100V87.5M287.5 100V87.5M225 75h75M225 62.5h75M225 87.5V75M250 87.5V75M275 87.5V75M237.5 75V62.5M262.5 75V62.5M287.5 75V62.5M225 50h75M225 37.5h75M225 62.5V50M250 62.5V50M275 62.5V50M237.5 50V37.5M262.5 50V37.5M287.5 50V37.5M200 25h100M200 12.5h100M225 37.5V25M250 37.5V25M275 37.5V25M212.5 25V12.5M237.5 25V12.5M262.5 25V12.5M287.5 25V12.5" stroke-width="2" stroke-dasharray="0" fill="none"/><path fill="#d14e3f" d="M220.18 207.459l-.002-.026-.003-.062-.001-.017c-.007-.097-.017-.19-.027-.284-.006-.057-.011-.115-.019-.17-.013-.093-.031-.182-.049-.272-.008-.036-.012-.074-.021-.11h-.003v-.001a4.295 4.295 0 0 0-1.477-2.419h.002l-.01-.008h-.003a4.596 4.596 0 0 0-1.776-.881 5.118 5.118 0 0 0-.593-.094c-.039-.007-.079-.009-.119-.013-.008-.001-.016-.003-.025-.003l.008.001-.012-.001-.005-.001-.011-.001c-.05-.004-.098-.012-.148-.012-.016 0-.031.003-.047.003a5.522 5.522 0 0 0-.364-.002c.031.003.063.005.094.009l-.262.006-.043-.003a5.33 5.33 0 0 0-.878.14l.002.001-.003-.001a4.737 4.737 0 0 0-.382.11.99.99 0 0 0-.002 0 6.08 6.08 0 0 0-.7.285l.004.001c-.095.047-.19.096-.284.149a.95.95 0 0 1-.891-.006l-.076-.043a5.734 5.734 0 0 0-.988-.436l.001-.001-.016-.005-.017-.006v.001a7.234 7.234 0 0 0-.24-.07c-.047.02-.107.037-.135.044l-.002.001-.006.002h-.001l.009-.003a.904.904 0 0 0 .133-.044 6.988 6.988 0 0 0-.196-.048h-.01l-.027.001a8.604 8.604 0 0 0-.503-.032l-.234.001c-.13.002-.259.013-.388.03l-.096.001c-.017.002-.033.007-.049.01h-.176l.015-.005h-.005l.019-.003a2.11 2.11 0 0 1 .294-.027l.036-.002c.04-.001.082-.003.127-.003h-.147l-.038.001c-.061.003-.125.008-.521.039l-.099-.001a4.814 4.814 0 0 0-1.653.523 2.435 2.435 0 0 0-.642.419c-.059.046-.119.091-.175.14l-.005.003a4.306 4.306 0 0 0-1.404 2.454l-.001.006c-.198 1.009-.099 2.212.417 3.583l.021.056h-.001l.001.002h.001c.399 1.052.881 2.11 1.458 3.034l.003.005c.577.923 1.248 1.712 2.025 2.224l.085.001-.085-.001.005.003c.446.294.928.497 1.446.581a5.416 5.416 0 0 0 .538.038l.06-.003.011.001c.044-.001.087-.001.131-.004h-.004.004c.045-.003.09-.009.135-.013-.086-.013-.171-.026-.258-.031.088.005.175.018.263.03.052-.005.105-.01.158-.017a1.404 1.404 0 0 1 .002-.001c.214-.03.434-.078.66-.147a.824.824 0 0 1 .092-.023l-.006-.006.007.005c.092-.019.194-.031.299-.036l.006-.001h.004l.009.001c.123-.004.249.001.365.018l.011-.004c.047.033.169.04.21.053.15.048.296.083.441.114.036-.008.072-.016.109-.018l.013-.001h-.001l-.011.001h-.001a.68.68 0 0 0-.108.019c.041.008.083.018.124.025l.005-.002-.005.002.063.013c.429-.01.813-.25 1.155-.659h-.002c.026-.03.051-.062.076-.093-.023.03-.046.061-.07.09l.293-.006c-.094.002-.193.004-.295.009-.344.408-.728.649-1.157.659l.008.001.105-.002c.265-.005.35-.008.602-.022h.007-.006c.072-.004.169-.012.241-.017.078-.011.156-.025.233-.036.026-.004.042-.007.052-.007a.05.05 0 0 1 .012-.002l.004.001c-.015.005-.029.011-.106.025.061-.007.142-.018.202-.027a3.735 3.735 0 0 0 1.383-.61h.001l.011-.007h-.002c.761-.532 1.41-1.334 1.961-2.268l-.009.001.012-.003.005-.009.003-.001.101-.178.095-.167c.035-.064.069-.129.102-.193l.085-.162c.015-.031.019-.04.031-.059l.034-.068.053-.101.015-.027.023-.043.011-.022c.152-.321.401-.917.472-1.088l.03-.081c.117-.293.226-.589.329-.884l.02-.057c.129-.37.227-.727.299-1.071l.018-.081c.001-.002.144-.745.127-1.501M211.436 203.743c-.006.007-.013.013-.018.022a.196.196 0 0 1 .018-.022m-1.036-.572h.001-.001m0 .001l.004-.001h.009c.012-.003.037-.002.065-.001l-.064.001H210.404l-.004.001m-5.329 4.34l-.001.028a1.09 1.09 0 0 0-.012.127c.001-.053.006-.106.013-.155m1.246 4.288c-.128-.039-.25-.23-.336-.42.087.192.211.384.341.42h-.005m1.357 1.601h.003l.377-.002-.38.002m1.729 2.229c-.181-.14-.355-.3-.522-.478l-.031-.03.023.021.008.009c.168.178.341.338.524.478l.004.003-.006-.003m.586.367l-.009-.005.019.01-.01-.005m.907.204h.001-.008.007m.117.042c-.079-.01-.13-.025-.138-.037a.358.358 0 0 0 .138.037m.22-.253l.002.002-.002-.002m.225.119l-.011-.004a.4.4 0 0 0 .043.012l-.032-.008m.178.015l-.002.001.007-.003-.005.002m.025-.101l.002.004.004.008a.067.067 0 0 1-.006-.012m.376-.028l-.003-.006-.01-.012-.009-.024c.006.012.014.024.019.036.009.011.018.023.027.032a.615.615 0 0 1-.024-.026m5.53-2.719l-.026.001.003-.006-.001.003.024.002m-.52-9.926l.01.007-.001.001.012.011-.015.004h-.004a1.892 1.892 0 0 1-.239-.04c-.015-.007-.028-.017-.042-.024.114.031.221.056.277.06l.011-.011a.073.073 0 0 0-.009-.008m-.712-.202l.013.002-.012-.002h-.001m-.565-.058l.021.002h-.006l-.015-.001-.196.004h-.003l.199-.005m-1.252.299c-.002.002-.003.004-.006.005h-.001l.007-.005c.02-.013.031-.03.026-.05.005.017 0 .035-.026.05m-.004-.092l.013.013a.127.127 0 0 0-.024-.02l.011.007m-.143.124l-.007.001h-.001l.008-.001m-.009 0h-.006.006m-.78.332l.002.007c-.008-.012-.016-.019-.025-.028.007.007.016.012.023.021m-.02 12.413h-.002l-.009-.001.011.001m.035.026c.005-.003.009-.007.01-.012a.023.023 0 0 0-.011-.008.062.062 0 0 1 .012.008.054.054 0 0 1-.011.012m1.375-.164l-.004.001H214.954c.045-.011.091-.02.135-.035a.644.644 0 0 1-.117.034m.319 0a.594.594 0 0 1-.172.04c.01-.007.026-.017.549-.256l-.549.256a.748.748 0 0 0 .172-.04m.775-.499c-.002.033-.061.084-.137.135.068-.046.125-.094.137-.135a33.316 33.316 0 0 1 0-.002l-.001.001.001.001m.199-.004l.005-.002h.001l-.006.002m.006-.002l.003-.002h.008l-.011.002m.09-.477a4.67 4.67 0 0 1-.517.493 3.437 3.437 0 0 1-.554.365l-.026.014a2.245 2.245 0 0 1 .026-.014c.192-.1.376-.223.553-.365.18-.145.352-.31.518-.493l.004-.004.039-.049a6.17 6.17 0 0 1-.043.053m-.022-.18l.025-.016.002-.002a.211.211 0 0 1-.027.018m.142-.009a.068.068 0 0 0 .001-.028l-.011-.011a.063.063 0 0 0-.016-.002.06.06 0 0 1 .012-.002l.004.004.01.005.003.008a.138.138 0 0 1-.003.026M216.695 214.185c.003.001.008 0 .011.002.005.004.005.008.009.012a.052.052 0 0 0-.02-.014m.034.135a.116.116 0 0 1-.003-.016.172.172 0 0 0-.003-.094c.017.034.001.074.006.11m.329-.201c-.15.2-.232.252-.277.251.045-.001.128-.052.279-.255l.036-.061-.038.065m.039-1.12a.756.756 0 0 1 .043-.091c-.016.033-.032.064-.043.091m.519.796l-.021.023a4.019 4.019 0 0 0-.225.296c.071-.11.156-.221.225-.296l.009-.01c.002-.002.092-.105.168-.223-.071.112-.155.208-.156.21m.222-.062h.001a.976.976 0 0 1 .023-.045l-.024.045m.084-.155l.001-.001a1.42 1.42 0 0 1-.001.001zM220.054 208.966l.002-.013-.002.005v.008z"/><path fill="#7a3440" d="M210.972 198.842c1.081 1.597 1.865 3.496 1.445 5.258-.143-1.697-1.205-3.257-2.418-4.173l.973-1.085z"/><path fill="#a9bc65" d="M216.986 198.75s-1.955-.006-3.191 1.195c-.953.927-1.2 2.301-1.263 2.881.767-1.257 1.893-2.249 3.142-2.942-1.205.813-2.228 1.925-2.839 3.2.608-.055 1.94-.276 2.867-1.178 1.235-1.202 1.284-3.156 1.284-3.156z"/><path fill="#7a3440" d="M215.8 215.098l-.002-.002zM215.547 215.383a.402.402 0 0 1-.157-.042c.009.014.067.03.157.042zM216.263 215.246l-.008.003h.002l.006-.003zM215.406 215.336h.009-.002zM216.292 215.148l-.004-.01-.002-.004.006.014zM216.701 215.081l.011.014c-.006-.014-.014-.027-.022-.041l.011.027zM216.715 215.102a.37.37 0 0 0 .027.029c-.01-.01-.02-.023-.03-.036l.003.007zM210.189 210.315h.005c-.148-.041-.29-.26-.389-.479.099.217.238.435.384.479z" opacity=".3"/><path fill="#7a3440" d="M216.396 215.479c.144-.1.282-.213.418-.332l-.044.007-.008-.006a.043.043 0 0 1 .007.006 1.64 1.64 0 0 0-.106.027 5.03 5.03 0 0 1-.582.137c-.068.062-.135.124-.205.18a3.344 3.344 0 0 1-.555.366l-.025.014a2.998 2.998 0 0 1 .025-.014 3.296 3.296 0 0 0 .759-.546c-.056.01-.114.023-.17.031a1.574 1.574 0 0 1-.512-.261h-.003c.165.122.336.212.513.261-.061.009-.121.014-.181.02-.099-.013-.198-.028-.299-.034.099.006.196.021.294.035-.051.005-.103.012-.154.015h-.005.005c-.05.003-.099.003-.149.005l-.012-.002-.07.005-.227-.01a6.255 6.255 0 0 1-.386-.034 4.21 4.21 0 0 1-1.65-.663l-.006-.004.098.002-.098-.002c-.886-.584-1.652-1.483-2.31-2.537l-.004-.006c-.658-1.054-1.209-2.262-1.664-3.461l-.001-.002h.001l-.025-.064c-.588-1.565-.701-2.937-.475-4.089l.001-.007c.101-.509.27-.971.491-1.391a8.826 8.826 0 0 0-.156.012l-.099-.001a4.822 4.822 0 0 0-1.653.523c-.227.1-.443.241-.643.419-.059.046-.118.091-.175.14l-.005.004.001-.001a4.31 4.31 0 0 0-1.405 2.454l-.001.006c-.198 1.01-.099 2.213.417 3.584l.022.056h-.001v.001l.001.001c.399 1.051.881 2.109 1.458 3.033l.004.006c.576.923 1.248 1.711 2.024 2.223l.085.001-.085-.001.005.003c.447.294.928.497 1.447.582a5.264 5.264 0 0 0 .537.038l.061-.004.011.002c.043-.002.086-.002.131-.005h-.005.005c.044-.002.09-.008.134-.013-.085-.012-.171-.025-.257-.031.088.006.175.019.262.03.053-.005.105-.009.159-.017a1.385 1.385 0 0 1-.451-.229h.003c.144.107.294.186.449.229.215-.031.434-.079.66-.148a1.15 1.15 0 0 1 .093-.023l-.006-.005.006.005c.092-.02.194-.032.299-.037l.006-.001h.004l.009.001c.123-.004.249.002.366.019l.01-.005c.047.034.169.04.21.053.15.048.296.084.441.115a.672.672 0 0 1 .109-.019l.013-.001-.012.001h-.001a.68.68 0 0 0-.108.019c.041.009.083.018.124.025l.005-.001-.005.002.063.012c.429-.009.813-.25 1.155-.659h-.002c.026-.03.051-.062.076-.093-.023.03-.046.062-.069.09l.293-.005a7.724 7.724 0 0 0-.296.008c-.344.408-.728.65-1.157.659l.008.001.105-.002c.265-.005.35-.008.602-.021l.007-.001-.006.001.241-.018c.078-.01.156-.025.233-.036l.052-.007.012-.002.004.002a.677.677 0 0 1-.106.025l.202-.027a3.735 3.735 0 0 0 1.383-.61h.001l.011-.008-.001.001v-.001m-11.295-7.982a1.108 1.108 0 0 0-.012.128c.001-.054.006-.107.013-.156l-.001.028m1.248 4.26c-.129-.039-.251-.23-.337-.42.087.192.211.384.341.42h-.004m1.357 1.601h.003l.377-.002-.38.002m1.729 2.229c-.181-.14-.355-.3-.522-.478l-.031-.03.023.021.008.009c.167.178.341.338.524.478l.004.003-.006-.003m.586.367l-.009-.005.019.01-.01-.005m.907.204h.001-.008.007m.117.042c-.079-.01-.13-.025-.138-.037a.358.358 0 0 0 .138.037m.22-.253l.002.002-.002-.002m.225.119l-.011-.004a.4.4 0 0 0 .043.012l-.032-.008m.178.015l-.002.001.007-.003-.005.002m.025-.1l.002.003.004.009-.006-.012m.376-.028l-.003-.006-.01-.012-.009-.024c.006.012.014.024.019.036.009.011.018.023.027.032l-.024-.026m1.515.172h.01-.01m.045.026c.005-.003.01-.007.011-.012-.003-.004-.007-.006-.011-.008l.011.008c-.001.003-.004.007-.011.012m1.376-.164l-.005.001h-.014c.045-.011.091-.02.135-.035a.642.642 0 0 1-.116.034m1.094-.5l-.001.001.001.001c-.002.033-.06.083-.136.135.067-.046.124-.094.136-.135a33.316 33.316 0 0 1 0-.002m-.775.501a.612.612 0 0 1-.172.039c.01-.006.026-.017.549-.256l-.549.256a.785.785 0 0 0 .172-.039m.974-.502l.005-.003a.022.022 0 0 1-.005.003m.006-.003l.003-.001h.008l-.011.001z" opacity=".3"/><path fill="#7a3440" d="M216.091 215.241l-.049-.014.012.005.037.009zM210.866 211.341zM208.767 205.422a1.423 1.423 0 0 0-.015.177c.001-.048.007-.096.014-.145l.001-.032zM214.391 215.109a.502.502 0 0 0-.023-.011l.011.005.012.006zM211.741 212.141h-.003l.433-.002-.43.002zM213.717 214.688l-.004-.003a4.987 4.987 0 0 1-.003 0c.003 0 .007.003.007.003zM213.105 214.128l-.026-.023.035.033-.009-.01z" opacity=".3"/><path fill="#d78334" d="M200.601 208.636c.516.467 3.35 1.141 5.118-1.149 1.152-1.491-1.532-.72-2.145-.806-.631-.089-1.128-1.19-2.292-.914-1.26.299-1.799 1.857-.681 2.869zM203.297 210.417s.789-1.022 1.081-.789c.179.143-.116 2.017-.409 2.601-.292.585-1.402-.117-1.402-.117l.73-1.695z"/><path fill="#f89c44" d="M197.173 209.984s-3.812-1.258-4.41-4.969c-.739-4.582-6.238-3.52-7.672-2.402 0 0 3.017 1.446 3.232 5.633.178 3.481 5.43 5.322 8.356 2.451l.494-.713z"/><path fill="#f4953f" d="M198.678 205.856s-4.058 4.241-3.076 6.765c.882 2.265 6.655 2.572 8.22 2.293.778-.139 1.901-4.263 1.285-4.473-.552-.188-1.23.838-1.23.838s-1.101-5.638-3.338-5.806c-2.236-.168-1.861.383-1.861.383z"/><path fill="url(#a)" d="M203.877 211.279s-1.083-5.536-3.28-5.798l.238 2.285s1.423 3.142 3.042 3.513z"/><path fill="#d14e3f" d="M200.874 205.544c-.655-.054-1.486-.13-2.073.396-.963.864-.692 2.491.774 2.846.411.099 2.049-.218 3.185-1.023-.475-1.036-1.103-1.96-1.886-2.219z"/><path fill="#fedcbd" d="M200.862 205.543a16.416 16.416 0 0 0-.26-.02l.233 2.243s.141.311.384.749a5.875 5.875 0 0 0 1.54-.752c-.477-1.039-1.109-1.967-1.897-2.22z"/><path fill="url(#b)" d="M195.162 190.565s2.77-2.064 6.084-1.684c0 0 1.262-3.174 3.327-3.881 0 0 1.386 2.45 1.433 4.714 0 0 4.204 5.577 4.529 8.348 0 0 2.717-.054 3.314-.38 0 0 1.037-.443.26.515-1.296 1.596-5.122 5.1-8.789 6.493-4.448 1.688-8.474 2.389-11.408 0-2.781-2.267-2.498-9.996-2.498-9.996s-1.576-3.205-1.63-5.595c1.757-.447 5.378 1.466 5.378 1.466z"/><path fill="#f89c44" d="M195.162 190.565s2.902-2.221 6.216-1.841c0 0 1.13-3.017 3.195-3.724 0 0 1.386 2.45 1.432 4.714 0 0 4.204 5.577 4.53 8.348 0 0 2.716-.054 3.313-.38 0 0 1.037-.443.26.515-1.295 1.596-5.121 5.1-8.788 6.493-4.449 1.688-8.474 2.389-11.408 0-2.782-2.267-2.499-9.996-2.499-9.996s-1.575-3.205-1.629-5.595c1.757-.447 5.378 1.466 5.378 1.466z"/><path fill="#f4dbc5" d="M190.983 202.226l-.077 1.002-.839-.168v.895l-.951-.056v.895l-1.006-.112-.365.96c-.936-2.204-2.654-3.029-2.654-3.029.992-.774 3.931-1.519 5.892-.387z"/><path fill="#f4953f" d="M198.577 208.636c.516.467 3.35 1.141 5.118-1.149 1.152-1.491-1.532-.72-2.145-.806-.631-.089-1.128-1.19-2.292-.914-1.26.299-1.799 1.857-.681 2.869z"/><path fill="#f4dbc5" d="M202.717 188.813s1.941.123 3.289.9c-.047-2.264-1.433-4.713-1.433-4.713s-1.945 1.578-1.856 3.813z"/><ellipse cx="202.237" cy="198.72" rx=".527" ry=".876" fill="#304454"/><ellipse cx="207.183" cy="196.948" rx=".395" ry=".876" fill="#304454" transform="rotate(-10.532 207.183 196.948)"/><path fill="#d78334" d="M203.345 186.065s.073-.194.215-.494a4.824 4.824 0 0 0-.516.474c.101.006.2.008.301.02zM214.041 197.615c-1.79 1.616-4.304 3.486-6.753 4.415-4.448 1.689-8.474 2.39-11.408 0-2.781-2.266-2.499-9.996-2.499-9.996s-.579-1.182-1.047-2.644c-.918-.284-1.872-.464-2.55-.292.055 2.39 1.63 5.595 1.63 5.595s-.283 7.73 2.499 9.996c2.934 2.39 6.959 1.689 11.408 0 3.667-1.392 7.493-4.896 8.788-6.493.552-.68.189-.653-.068-.581z" opacity=".5"/><path fill="none" stroke="#414042" d="M197.228 205.351s-.943.514-1.372 1.157M196.413 205.094s-1.071.3-1.457.643" stroke-width=".19" stroke-linecap="round" stroke-linejoin="round"/><path fill="#f4dbc5" d="M189.83 189.206c-.014.032-.025.064-.038.096.134 2.365 1.621 5.391 1.621 5.391.751-1.629 2.53-2.899 2.53-2.899-1.109-1.433-4.113-2.588-4.113-2.588z"/><ellipse cx="213.85" cy="197.844" rx="1.059" ry=".897" fill="#304454"/><path fill="none" stroke="#000" d="M189.5 200.5c-3-1-5-6-6-10 0 0-1-3-1-6v-27.25c0-5-3-10-3-10l-4-3 4-3s3-5 3-10V104c1-3 1-6 1-6 1-4 3-9 6-10M189.5 385.5c-3-1-5-6-6-10 0 0-1-3-1-6v-62.25c0-5-3-10-3-10l-4-3 4-3s3-5 3-10V219c1-3 1-6 1-6 1-4 3-9 6-10M139.5 385.5c-3-1-5-6-6-10 0 0-1-3-1-6V249.75c0-5-3-10-3-10l-4-3 4-3s3-5 3-10V104c1-3 1-6 1-6 1-4 3-9 6-10"/></svg>
