<svg xmlns="http://www.w3.org/2000/svg" width="436.944" height="130" viewBox="0 0 436.94444444444446 130"><path fill="#ccfaff" stroke="#0c7f99" d="M6.019 116.759v12.037h12.037l6.018-6.018v-12.037H12.037z" stroke-width="2"/><path fill="#ccfaff" stroke="#0c7f99" d="M6.019 116.759h12.037v12.037M18.056 116.759l6.018-6.018" stroke-width="2"/><path fill="#ccfaff" stroke="#0c7f99" d="M6.019 104.722v12.037h12.037l6.018-6.018V98.704H12.037z" stroke-width="2"/><path fill="#ccfaff" stroke="#0c7f99" d="M6.019 104.722h12.037v12.037M18.056 104.722l6.018-6.018" stroke-width="2"/><path fill="#ccfaff" stroke="#0c7f99" d="M6.019 92.685v12.037h12.037l6.018-6.018V86.667H12.037z" stroke-width="2"/><path fill="#ccfaff" stroke="#0c7f99" d="M6.019 92.685h12.037v12.037M18.056 92.685l6.018-6.018" stroke-width="2"/><path fill="#ccfaff" stroke="#0c7f99" d="M6.019 80.648v12.037h12.037l6.018-6.018V74.63H12.037z" stroke-width="2"/><path fill="#ccfaff" stroke="#0c7f99" d="M6.019 80.648h12.037v12.037M18.056 80.648l6.018-6.018" stroke-width="2"/><path fill="#ccfaff" stroke="#0c7f99" d="M6.019 68.611v12.037h12.037l6.018-6.018V62.593H12.037z" stroke-width="2"/><path fill="#ccfaff" stroke="#0c7f99" d="M6.019 68.611h12.037v12.037M18.056 68.611l6.018-6.018" stroke-width="2"/><path fill="#ccfaff" stroke="#0c7f99" d="M6.019 56.574v12.037h12.037l6.018-6.018V50.556H12.037z" stroke-width="2"/><path fill="#ccfaff" stroke="#0c7f99" d="M6.019 56.574h12.037v12.037M18.056 56.574l6.018-6.018" stroke-width="2"/><path fill="#ccfaff" stroke="#0c7f99" d="M6.019 44.537v12.037h12.037l6.018-6.018V38.519H12.037z" stroke-width="2"/><path fill="#ccfaff" stroke="#0c7f99" d="M6.019 44.537h12.037v12.037M18.056 44.537l6.018-6.018" stroke-width="2"/><path fill="#ccfaff" stroke="#0c7f99" d="M6.019 32.5v12.037h12.037l6.018-6.018V26.482H12.037z" stroke-width="2"/><path fill="#ccfaff" stroke="#0c7f99" d="M6.019 32.5h12.037v12.037M18.056 32.5l6.018-6.018" stroke-width="2"/><path fill="#ccfaff" stroke="#0c7f99" d="M6.019 20.463V32.5h12.037l6.018-6.018V14.444H12.037z" stroke-width="2"/><path fill="#ccfaff" stroke="#0c7f99" d="M6.019 20.463h12.037V32.5M18.056 20.463l6.018-6.019" stroke-width="2"/><path fill="#ccfaff" stroke="#0c7f99" d="M6.019 8.426v12.037h12.037l6.018-6.019V2.407H12.037z" stroke-width="2"/><path fill="#ccfaff" stroke="#0c7f99" d="M6.019 8.426h12.037v12.037M18.056 8.426l6.018-6.019M30.093 116.759v12.037H42.13l6.018-6.018v-12.037H36.111z" stroke-width="2"/><path fill="#ccfaff" stroke="#0c7f99" d="M30.093 116.759H42.13v12.037M42.13 116.759l6.018-6.018" stroke-width="2"/><path fill="#ccfaff" stroke="#0c7f99" d="M30.093 104.722v12.037H42.13l6.018-6.018V98.704H36.111z" stroke-width="2"/><path fill="#ccfaff" stroke="#0c7f99" d="M30.093 104.722H42.13v12.037M42.13 104.722l6.018-6.018" stroke-width="2"/><path fill="#ccfaff" stroke="#0c7f99" d="M30.093 92.685v12.037H42.13l6.018-6.018V86.667H36.111z" stroke-width="2"/><path fill="#ccfaff" stroke="#0c7f99" d="M30.093 92.685H42.13v12.037M42.13 92.685l6.018-6.018" stroke-width="2"/><path fill="#ccfaff" stroke="#0c7f99" d="M30.093 80.648v12.037H42.13l6.018-6.018V74.63H36.111z" stroke-width="2"/><path fill="#ccfaff" stroke="#0c7f99" d="M30.093 80.648H42.13v12.037M42.13 80.648l6.018-6.018" stroke-width="2"/><path fill="#ccfaff" stroke="#0c7f99" d="M30.093 68.611v12.037H42.13l6.018-6.018V62.593H36.111z" stroke-width="2"/><path fill="#ccfaff" stroke="#0c7f99" d="M30.093 68.611H42.13v12.037M42.13 68.611l6.018-6.018" stroke-width="2"/><path fill="#ccfaff" stroke="#0c7f99" d="M30.093 56.574v12.037H42.13l6.018-6.018V50.556H36.111z" stroke-width="2"/><path fill="#ccfaff" stroke="#0c7f99" d="M30.093 56.574H42.13v12.037M42.13 56.574l6.018-6.018" stroke-width="2"/><path fill="#ccfaff" stroke="#0c7f99" d="M30.093 44.537v12.037H42.13l6.018-6.018V38.519H36.111z" stroke-width="2"/><path fill="#ccfaff" stroke="#0c7f99" d="M30.093 44.537H42.13v12.037M42.13 44.537l6.018-6.018" stroke-width="2"/><path fill="#ccfaff" stroke="#0c7f99" d="M30.093 32.5v12.037H42.13l6.018-6.018V26.482H36.111z" stroke-width="2"/><path fill="#ccfaff" stroke="#0c7f99" d="M30.093 32.5H42.13v12.037M42.13 32.5l6.018-6.018" stroke-width="2"/><path fill="#ccfaff" stroke="#0c7f99" d="M30.093 20.463V32.5H42.13l6.018-6.018V14.444H36.111z" stroke-width="2"/><path fill="#ccfaff" stroke="#0c7f99" d="M30.093 20.463H42.13V32.5M42.13 20.463l6.018-6.019" stroke-width="2"/><path fill="#ccfaff" stroke="#0c7f99" d="M30.093 8.426v12.037H42.13l6.018-6.019V2.407H36.111z" stroke-width="2"/><path fill="#ccfaff" stroke="#0c7f99" d="M30.093 8.426H42.13v12.037M42.13 8.426l6.018-6.019M54.167 116.759v12.037h12.037l6.018-6.018v-12.037H60.185z" stroke-width="2"/><path fill="#ccfaff" stroke="#0c7f99" d="M54.167 116.759h12.037v12.037M66.204 116.759l6.018-6.018" stroke-width="2"/><path fill="#ccfaff" stroke="#0c7f99" d="M54.167 104.722v12.037h12.037l6.018-6.018V98.704H60.185z" stroke-width="2"/><path fill="#ccfaff" stroke="#0c7f99" d="M54.167 104.722h12.037v12.037M66.204 104.722l6.018-6.018" stroke-width="2"/><path fill="#ccfaff" stroke="#0c7f99" d="M54.167 92.685v12.037h12.037l6.018-6.018V86.667H60.185z" stroke-width="2"/><path fill="#ccfaff" stroke="#0c7f99" d="M54.167 92.685h12.037v12.037M66.204 92.685l6.018-6.018" stroke-width="2"/><path fill="#ccfaff" stroke="#0c7f99" d="M54.167 80.648v12.037h12.037l6.018-6.018V74.63H60.185z" stroke-width="2"/><path fill="#ccfaff" stroke="#0c7f99" d="M54.167 80.648h12.037v12.037M66.204 80.648l6.018-6.018" stroke-width="2"/><path fill="#ccfaff" stroke="#0c7f99" d="M54.167 68.611v12.037h12.037l6.018-6.018V62.593H60.185z" stroke-width="2"/><path fill="#ccfaff" stroke="#0c7f99" d="M54.167 68.611h12.037v12.037M66.204 68.611l6.018-6.018" stroke-width="2"/><path fill="#ccfaff" stroke="#0c7f99" d="M54.167 56.574v12.037h12.037l6.018-6.018V50.556H60.185z" stroke-width="2"/><path fill="#ccfaff" stroke="#0c7f99" d="M54.167 56.574h12.037v12.037M66.204 56.574l6.018-6.018" stroke-width="2"/><path fill="#ccfaff" stroke="#0c7f99" d="M54.167 44.537v12.037h12.037l6.018-6.018V38.519H60.185z" stroke-width="2"/><path fill="#ccfaff" stroke="#0c7f99" d="M54.167 44.537h12.037v12.037M66.204 44.537l6.018-6.018" stroke-width="2"/><path fill="#ccfaff" stroke="#0c7f99" d="M54.167 32.5v12.037h12.037l6.018-6.018V26.482H60.185z" stroke-width="2"/><path fill="#ccfaff" stroke="#0c7f99" d="M54.167 32.5h12.037v12.037M66.204 32.5l6.018-6.018" stroke-width="2"/><path fill="#ccfaff" stroke="#0c7f99" d="M54.167 20.463V32.5h12.037l6.018-6.018V14.444H60.185z" stroke-width="2"/><path fill="#ccfaff" stroke="#0c7f99" d="M54.167 20.463h12.037V32.5M66.204 20.463l6.018-6.019" stroke-width="2"/><path fill="#ccfaff" stroke="#0c7f99" d="M54.167 8.426v12.037h12.037l6.018-6.019V2.407H60.185z" stroke-width="2"/><path fill="#ccfaff" stroke="#0c7f99" d="M54.167 8.426h12.037v12.037M66.204 8.426l6.018-6.019M78.24 116.759v12.037h12.038l6.018-6.018v-12.037H84.26z" stroke-width="2"/><path fill="#ccfaff" stroke="#0c7f99" d="M78.24 116.759h12.038v12.037M90.278 116.759l6.018-6.018M78.24 92.685v12.037h12.038l6.018-6.018V86.667H84.26z" stroke-width="2"/><path fill="#ccfaff" stroke="#0c7f99" d="M78.24 92.685h12.038v12.037M90.278 92.685l6.018-6.018M78.24 68.611v12.037h12.038l6.018-6.018V62.593H84.26z" stroke-width="2"/><path fill="#ccfaff" stroke="#0c7f99" d="M78.24 68.611h12.038v12.037M90.278 68.611l6.018-6.018M78.24 44.537v12.037h12.038l6.018-6.018V38.519H84.26z" stroke-width="2"/><path fill="#ccfaff" stroke="#0c7f99" d="M78.24 44.537h12.038v12.037M90.278 44.537l6.018-6.018" stroke-width="2"/><path fill="#ffbde0" stroke="#9e034e" d="M126.389 116.759v12.037h12.037l6.018-6.018v-12.037h-12.037z" stroke-width="2"/><path fill="#ffbde0" stroke="#9e034e" d="M126.389 116.759h12.037v12.037M138.426 116.759l6.018-6.018" stroke-width="2"/><path fill="#ffbde0" stroke="#9e034e" d="M126.389 104.722v12.037h12.037l6.018-6.018V98.704h-12.037z" stroke-width="2"/><path fill="#ffbde0" stroke="#9e034e" d="M126.389 104.722h12.037v12.037M138.426 104.722l6.018-6.018" stroke-width="2"/><path fill="#ffbde0" stroke="#9e034e" d="M126.389 92.685v12.037h12.037l6.018-6.018V86.667h-12.037z" stroke-width="2"/><path fill="#ffbde0" stroke="#9e034e" d="M126.389 92.685h12.037v12.037M138.426 92.685l6.018-6.018" stroke-width="2"/><path fill="#ffbde0" stroke="#9e034e" d="M126.389 80.648v12.037h12.037l6.018-6.018V74.63h-12.037z" stroke-width="2"/><path fill="#ffbde0" stroke="#9e034e" d="M126.389 80.648h12.037v12.037M138.426 80.648l6.018-6.018" stroke-width="2"/><path fill="#ffbde0" stroke="#9e034e" d="M126.389 68.611v12.037h12.037l6.018-6.018V62.593h-12.037z" stroke-width="2"/><path fill="#ffbde0" stroke="#9e034e" d="M126.389 68.611h12.037v12.037M138.426 68.611l6.018-6.018" stroke-width="2"/><path fill="#ffbde0" stroke="#9e034e" d="M126.389 56.574v12.037h12.037l6.018-6.018V50.556h-12.037z" stroke-width="2"/><path fill="#ffbde0" stroke="#9e034e" d="M126.389 56.574h12.037v12.037M138.426 56.574l6.018-6.018" stroke-width="2"/><path fill="#ffbde0" stroke="#9e034e" d="M126.389 44.537v12.037h12.037l6.018-6.018V38.519h-12.037z" stroke-width="2"/><path fill="#ffbde0" stroke="#9e034e" d="M126.389 44.537h12.037v12.037M138.426 44.537l6.018-6.018" stroke-width="2"/><path fill="#ffbde0" stroke="#9e034e" d="M126.389 32.5v12.037h12.037l6.018-6.018V26.482h-12.037z" stroke-width="2"/><path fill="#ffbde0" stroke="#9e034e" d="M126.389 32.5h12.037v12.037M138.426 32.5l6.018-6.018" stroke-width="2"/><path fill="#ffbde0" stroke="#9e034e" d="M126.389 20.463V32.5h12.037l6.018-6.018V14.444h-12.037z" stroke-width="2"/><path fill="#ffbde0" stroke="#9e034e" d="M126.389 20.463h12.037V32.5M138.426 20.463l6.018-6.019" stroke-width="2"/><path fill="#ffbde0" stroke="#9e034e" d="M126.389 8.426v12.037h12.037l6.018-6.019V2.407h-12.037z" stroke-width="2"/><path fill="#ffbde0" stroke="#9e034e" d="M126.389 8.426h12.037v12.037M138.426 8.426l6.018-6.019M150.463 116.759v12.037H162.5l6.019-6.018v-12.037h-12.038z" stroke-width="2"/><path fill="#ffbde0" stroke="#9e034e" d="M150.463 116.759H162.5v12.037M162.5 116.759l6.019-6.018" stroke-width="2"/><path fill="#ffbde0" stroke="#9e034e" d="M150.463 104.722v12.037H162.5l6.019-6.018V98.704h-12.038z" stroke-width="2"/><path fill="#ffbde0" stroke="#9e034e" d="M150.463 104.722H162.5v12.037M162.5 104.722l6.019-6.018" stroke-width="2"/><path fill="#ffbde0" stroke="#9e034e" d="M150.463 92.685v12.037H162.5l6.019-6.018V86.667h-12.038z" stroke-width="2"/><path fill="#ffbde0" stroke="#9e034e" d="M150.463 92.685H162.5v12.037M162.5 92.685l6.019-6.018" stroke-width="2"/><path fill="#ffbde0" stroke="#9e034e" d="M150.463 80.648v12.037H162.5l6.019-6.018V74.63h-12.038z" stroke-width="2"/><path fill="#ffbde0" stroke="#9e034e" d="M150.463 80.648H162.5v12.037M162.5 80.648l6.019-6.018" stroke-width="2"/><path fill="#ffbde0" stroke="#9e034e" d="M150.463 68.611v12.037H162.5l6.019-6.018V62.593h-12.038z" stroke-width="2"/><path fill="#ffbde0" stroke="#9e034e" d="M150.463 68.611H162.5v12.037M162.5 68.611l6.019-6.018" stroke-width="2"/><path fill="#ffbde0" stroke="#9e034e" d="M150.463 56.574v12.037H162.5l6.019-6.018V50.556h-12.038z" stroke-width="2"/><path fill="#ffbde0" stroke="#9e034e" d="M150.463 56.574H162.5v12.037M162.5 56.574l6.019-6.018" stroke-width="2"/><path fill="#ffbde0" stroke="#9e034e" d="M150.463 44.537v12.037H162.5l6.019-6.018V38.519h-12.038z" stroke-width="2"/><path fill="#ffbde0" stroke="#9e034e" d="M150.463 44.537H162.5v12.037M162.5 44.537l6.019-6.018" stroke-width="2"/><path fill="#ffbde0" stroke="#9e034e" d="M150.463 32.5v12.037H162.5l6.019-6.018V26.482h-12.038z" stroke-width="2"/><path fill="#ffbde0" stroke="#9e034e" d="M150.463 32.5H162.5v12.037M162.5 32.5l6.019-6.018" stroke-width="2"/><path fill="#ffbde0" stroke="#9e034e" d="M150.463 20.463V32.5H162.5l6.019-6.018V14.444h-12.038z" stroke-width="2"/><path fill="#ffbde0" stroke="#9e034e" d="M150.463 20.463H162.5V32.5M162.5 20.463l6.019-6.019" stroke-width="2"/><path fill="#ffbde0" stroke="#9e034e" d="M150.463 8.426v12.037H162.5l6.019-6.019V2.407h-12.038z" stroke-width="2"/><path fill="#ffbde0" stroke="#9e034e" d="M150.463 8.426H162.5v12.037M162.5 8.426l6.019-6.019M174.537 116.759v12.037h12.037l6.019-6.018v-12.037h-12.037z" stroke-width="2"/><path fill="#ffbde0" stroke="#9e034e" d="M174.537 116.759h12.037v12.037M186.574 116.759l6.019-6.018" stroke-width="2"/><path fill="#ffbde0" stroke="#9e034e" d="M174.537 104.722v12.037h12.037l6.019-6.018V98.704h-12.037z" stroke-width="2"/><path fill="#ffbde0" stroke="#9e034e" d="M174.537 104.722h12.037v12.037M186.574 104.722l6.019-6.018" stroke-width="2"/><path fill="#ffbde0" stroke="#9e034e" d="M174.537 92.685v12.037h12.037l6.019-6.018V86.667h-12.037z" stroke-width="2"/><path fill="#ffbde0" stroke="#9e034e" d="M174.537 92.685h12.037v12.037M186.574 92.685l6.019-6.018" stroke-width="2"/><path fill="#ffbde0" stroke="#9e034e" d="M174.537 80.648v12.037h12.037l6.019-6.018V74.63h-12.037z" stroke-width="2"/><path fill="#ffbde0" stroke="#9e034e" d="M174.537 80.648h12.037v12.037M186.574 80.648l6.019-6.018" stroke-width="2"/><path fill="#ffbde0" stroke="#9e034e" d="M174.537 68.611v12.037h12.037l6.019-6.018V62.593h-12.037z" stroke-width="2"/><path fill="#ffbde0" stroke="#9e034e" d="M174.537 68.611h12.037v12.037M186.574 68.611l6.019-6.018" stroke-width="2"/><path fill="#ffbde0" stroke="#9e034e" d="M174.537 56.574v12.037h12.037l6.019-6.018V50.556h-12.037z" stroke-width="2"/><path fill="#ffbde0" stroke="#9e034e" d="M174.537 56.574h12.037v12.037M186.574 56.574l6.019-6.018" stroke-width="2"/><path fill="#ffbde0" stroke="#9e034e" d="M174.537 44.537v12.037h12.037l6.019-6.018V38.519h-12.037z" stroke-width="2"/><path fill="#ffbde0" stroke="#9e034e" d="M174.537 44.537h12.037v12.037M186.574 44.537l6.019-6.018" stroke-width="2"/><path fill="#ffbde0" stroke="#9e034e" d="M174.537 32.5v12.037h12.037l6.019-6.018V26.482h-12.037z" stroke-width="2"/><path fill="#ffbde0" stroke="#9e034e" d="M174.537 32.5h12.037v12.037M186.574 32.5l6.019-6.018" stroke-width="2"/><path fill="#ffbde0" stroke="#9e034e" d="M174.537 20.463V32.5h12.037l6.019-6.018V14.444h-12.037z" stroke-width="2"/><path fill="#ffbde0" stroke="#9e034e" d="M174.537 20.463h12.037V32.5M186.574 20.463l6.019-6.019" stroke-width="2"/><path fill="#ffbde0" stroke="#9e034e" d="M174.537 8.426v12.037h12.037l6.019-6.019V2.407h-12.037z" stroke-width="2"/><path fill="#ffbde0" stroke="#9e034e" d="M174.537 8.426h12.037v12.037M186.574 8.426l6.019-6.019M198.611 116.759v12.037h12.037l6.019-6.018v-12.037H204.63z" stroke-width="2"/><path fill="#ffbde0" stroke="#9e034e" d="M198.611 116.759h12.037v12.037M210.648 116.759l6.019-6.018" stroke-width="2"/><path fill="#ffbde0" stroke="#9e034e" d="M198.611 104.722v12.037h12.037l6.019-6.018V98.704H204.63z" stroke-width="2"/><path fill="#ffbde0" stroke="#9e034e" d="M198.611 104.722h12.037v12.037M210.648 104.722l6.019-6.018" stroke-width="2"/><path fill="#ffbde0" stroke="#9e034e" d="M198.611 92.685v12.037h12.037l6.019-6.018V86.667H204.63z" stroke-width="2"/><path fill="#ffbde0" stroke="#9e034e" d="M198.611 92.685h12.037v12.037M210.648 92.685l6.019-6.018" stroke-width="2"/><path fill="#ffbde0" stroke="#9e034e" d="M198.611 80.648v12.037h12.037l6.019-6.018V74.63H204.63z" stroke-width="2"/><path fill="#ffbde0" stroke="#9e034e" d="M198.611 80.648h12.037v12.037M210.648 80.648l6.019-6.018" stroke-width="2"/><path fill="#ffbde0" stroke="#9e034e" d="M198.611 68.611v12.037h12.037l6.019-6.018V62.593H204.63z" stroke-width="2"/><path fill="#ffbde0" stroke="#9e034e" d="M198.611 68.611h12.037v12.037M210.648 68.611l6.019-6.018" stroke-width="2"/><path fill="#ffbde0" stroke="#9e034e" d="M198.611 56.574v12.037h12.037l6.019-6.018V50.556H204.63z" stroke-width="2"/><path fill="#ffbde0" stroke="#9e034e" d="M198.611 56.574h12.037v12.037M210.648 56.574l6.019-6.018" stroke-width="2"/><path fill="#ffbde0" stroke="#9e034e" d="M198.611 44.537v12.037h12.037l6.019-6.018V38.519H204.63z" stroke-width="2"/><path fill="#ffbde0" stroke="#9e034e" d="M198.611 44.537h12.037v12.037M210.648 44.537l6.019-6.018" stroke-width="2"/><path fill="#ffbde0" stroke="#9e034e" d="M198.611 32.5v12.037h12.037l6.019-6.018V26.482H204.63z" stroke-width="2"/><path fill="#ffbde0" stroke="#9e034e" d="M198.611 32.5h12.037v12.037M210.648 32.5l6.019-6.018" stroke-width="2"/><path fill="#ffbde0" stroke="#9e034e" d="M198.611 20.463V32.5h12.037l6.019-6.018V14.444H204.63z" stroke-width="2"/><path fill="#ffbde0" stroke="#9e034e" d="M198.611 20.463h12.037V32.5M210.648 20.463l6.019-6.019" stroke-width="2"/><path fill="#ffbde0" stroke="#9e034e" d="M198.611 8.426v12.037h12.037l6.019-6.019V2.407H204.63z" stroke-width="2"/><path fill="#ffbde0" stroke="#9e034e" d="M198.611 8.426h12.037v12.037M210.648 8.426l6.019-6.019" stroke-width="2"/><path fill="#ccfaff" stroke="#0c7f99" d="M246.759 116.759v12.037h12.037l6.019-6.018v-12.037h-12.037z" stroke-width="2"/><path fill="#ccfaff" stroke="#0c7f99" d="M246.759 116.759h12.037v12.037M258.796 116.759l6.019-6.018" stroke-width="2"/><path fill="#ccfaff" stroke="#0c7f99" d="M246.759 104.722v12.037h12.037l6.019-6.018V98.704h-12.037z" stroke-width="2"/><path fill="#ccfaff" stroke="#0c7f99" d="M246.759 104.722h12.037v12.037M258.796 104.722l6.019-6.018" stroke-width="2"/><path fill="#ccfaff" stroke="#0c7f99" d="M246.759 92.685v12.037h12.037l6.019-6.018V86.667h-12.037z" stroke-width="2"/><path fill="#ccfaff" stroke="#0c7f99" d="M246.759 92.685h12.037v12.037M258.796 92.685l6.019-6.018" stroke-width="2"/><path fill="#ccfaff" stroke="#0c7f99" d="M246.759 80.648v12.037h12.037l6.019-6.018V74.63h-12.037z" stroke-width="2"/><path fill="#ccfaff" stroke="#0c7f99" d="M246.759 80.648h12.037v12.037M258.796 80.648l6.019-6.018" stroke-width="2"/><path fill="#ccfaff" stroke="#0c7f99" d="M246.759 68.611v12.037h12.037l6.019-6.018V62.593h-12.037z" stroke-width="2"/><path fill="#ccfaff" stroke="#0c7f99" d="M246.759 68.611h12.037v12.037M258.796 68.611l6.019-6.018" stroke-width="2"/><path fill="#ccfaff" stroke="#0c7f99" d="M246.759 56.574v12.037h12.037l6.019-6.018V50.556h-12.037z" stroke-width="2"/><path fill="#ccfaff" stroke="#0c7f99" d="M246.759 56.574h12.037v12.037M258.796 56.574l6.019-6.018" stroke-width="2"/><path fill="#ccfaff" stroke="#0c7f99" d="M246.759 44.537v12.037h12.037l6.019-6.018V38.519h-12.037z" stroke-width="2"/><path fill="#ccfaff" stroke="#0c7f99" d="M246.759 44.537h12.037v12.037M258.796 44.537l6.019-6.018" stroke-width="2"/><path fill="#ccfaff" stroke="#0c7f99" d="M246.759 32.5v12.037h12.037l6.019-6.018V26.482h-12.037z" stroke-width="2"/><path fill="#ccfaff" stroke="#0c7f99" d="M246.759 32.5h12.037v12.037M258.796 32.5l6.019-6.018" stroke-width="2"/><path fill="#ccfaff" stroke="#0c7f99" d="M246.759 20.463V32.5h12.037l6.019-6.018V14.444h-12.037z" stroke-width="2"/><path fill="#ccfaff" stroke="#0c7f99" d="M246.759 20.463h12.037V32.5M258.796 20.463l6.019-6.019" stroke-width="2"/><path fill="#ccfaff" stroke="#0c7f99" d="M246.759 8.426v12.037h12.037l6.019-6.019V2.407h-12.037z" stroke-width="2"/><path fill="#ccfaff" stroke="#0c7f99" d="M246.759 8.426h12.037v12.037M258.796 8.426l6.019-6.019M270.833 116.759v12.037h12.037l6.019-6.018v-12.037h-12.037z" stroke-width="2"/><path fill="#ccfaff" stroke="#0c7f99" d="M270.833 116.759h12.037v12.037M282.87 116.759l6.019-6.018" stroke-width="2"/><path fill="#ccfaff" stroke="#0c7f99" d="M270.833 104.722v12.037h12.037l6.019-6.018V98.704h-12.037z" stroke-width="2"/><path fill="#ccfaff" stroke="#0c7f99" d="M270.833 104.722h12.037v12.037M282.87 104.722l6.019-6.018" stroke-width="2"/><path fill="#ccfaff" stroke="#0c7f99" d="M270.833 92.685v12.037h12.037l6.019-6.018V86.667h-12.037z" stroke-width="2"/><path fill="#ccfaff" stroke="#0c7f99" d="M270.833 92.685h12.037v12.037M282.87 92.685l6.019-6.018" stroke-width="2"/><path fill="#ccfaff" stroke="#0c7f99" d="M270.833 80.648v12.037h12.037l6.019-6.018V74.63h-12.037z" stroke-width="2"/><path fill="#ccfaff" stroke="#0c7f99" d="M270.833 80.648h12.037v12.037M282.87 80.648l6.019-6.018" stroke-width="2"/><path fill="#ccfaff" stroke="#0c7f99" d="M270.833 68.611v12.037h12.037l6.019-6.018V62.593h-12.037z" stroke-width="2"/><path fill="#ccfaff" stroke="#0c7f99" d="M270.833 68.611h12.037v12.037M282.87 68.611l6.019-6.018" stroke-width="2"/><path fill="#ccfaff" stroke="#0c7f99" d="M270.833 56.574v12.037h12.037l6.019-6.018V50.556h-12.037z" stroke-width="2"/><path fill="#ccfaff" stroke="#0c7f99" d="M270.833 56.574h12.037v12.037M282.87 56.574l6.019-6.018" stroke-width="2"/><path fill="#ccfaff" stroke="#0c7f99" d="M270.833 44.537v12.037h12.037l6.019-6.018V38.519h-12.037z" stroke-width="2"/><path fill="#ccfaff" stroke="#0c7f99" d="M270.833 44.537h12.037v12.037M282.87 44.537l6.019-6.018" stroke-width="2"/><path fill="#ccfaff" stroke="#0c7f99" d="M270.833 32.5v12.037h12.037l6.019-6.018V26.482h-12.037z" stroke-width="2"/><path fill="#ccfaff" stroke="#0c7f99" d="M270.833 32.5h12.037v12.037M282.87 32.5l6.019-6.018" stroke-width="2"/><path fill="#ccfaff" stroke="#0c7f99" d="M270.833 20.463V32.5h12.037l6.019-6.018V14.444h-12.037z" stroke-width="2"/><path fill="#ccfaff" stroke="#0c7f99" d="M270.833 20.463h12.037V32.5M282.87 20.463l6.019-6.019" stroke-width="2"/><path fill="#ccfaff" stroke="#0c7f99" d="M270.833 8.426v12.037h12.037l6.019-6.019V2.407h-12.037z" stroke-width="2"/><path fill="#ccfaff" stroke="#0c7f99" d="M270.833 8.426h12.037v12.037M282.87 8.426l6.019-6.019M294.907 116.759v12.037h12.037l6.019-6.018v-12.037h-12.037z" stroke-width="2"/><path fill="#ccfaff" stroke="#0c7f99" d="M294.907 116.759h12.037v12.037M306.944 116.759l6.019-6.018" stroke-width="2"/><path fill="#ccfaff" stroke="#0c7f99" d="M294.907 104.722v12.037h12.037l6.019-6.018V98.704h-12.037z" stroke-width="2"/><path fill="#ccfaff" stroke="#0c7f99" d="M294.907 104.722h12.037v12.037M306.944 104.722l6.019-6.018" stroke-width="2"/><path fill="#ccfaff" stroke="#0c7f99" d="M294.907 92.685v12.037h12.037l6.019-6.018V86.667h-12.037z" stroke-width="2"/><path fill="#ccfaff" stroke="#0c7f99" d="M294.907 92.685h12.037v12.037M306.944 92.685l6.019-6.018" stroke-width="2"/><path fill="#ccfaff" stroke="#0c7f99" d="M294.907 80.648v12.037h12.037l6.019-6.018V74.63h-12.037z" stroke-width="2"/><path fill="#ccfaff" stroke="#0c7f99" d="M294.907 80.648h12.037v12.037M306.944 80.648l6.019-6.018" stroke-width="2"/><path fill="#ccfaff" stroke="#0c7f99" d="M294.907 68.611v12.037h12.037l6.019-6.018V62.593h-12.037z" stroke-width="2"/><path fill="#ccfaff" stroke="#0c7f99" d="M294.907 68.611h12.037v12.037M306.944 68.611l6.019-6.018" stroke-width="2"/><path fill="#ccfaff" stroke="#0c7f99" d="M294.907 56.574v12.037h12.037l6.019-6.018V50.556h-12.037z" stroke-width="2"/><path fill="#ccfaff" stroke="#0c7f99" d="M294.907 56.574h12.037v12.037M306.944 56.574l6.019-6.018" stroke-width="2"/><path fill="#ccfaff" stroke="#0c7f99" d="M294.907 44.537v12.037h12.037l6.019-6.018V38.519h-12.037z" stroke-width="2"/><path fill="#ccfaff" stroke="#0c7f99" d="M294.907 44.537h12.037v12.037M306.944 44.537l6.019-6.018" stroke-width="2"/><path fill="#ccfaff" stroke="#0c7f99" d="M294.907 32.5v12.037h12.037l6.019-6.018V26.482h-12.037z" stroke-width="2"/><path fill="#ccfaff" stroke="#0c7f99" d="M294.907 32.5h12.037v12.037M306.944 32.5l6.019-6.018" stroke-width="2"/><path fill="#ccfaff" stroke="#0c7f99" d="M294.907 20.463V32.5h12.037l6.019-6.018V14.444h-12.037z" stroke-width="2"/><path fill="#ccfaff" stroke="#0c7f99" d="M294.907 20.463h12.037V32.5M306.944 20.463l6.019-6.019" stroke-width="2"/><path fill="#ccfaff" stroke="#0c7f99" d="M294.907 8.426v12.037h12.037l6.019-6.019V2.407h-12.037z" stroke-width="2"/><path fill="#ccfaff" stroke="#0c7f99" d="M294.907 8.426h12.037v12.037M306.944 8.426l6.019-6.019" stroke-width="2"/><path fill="#ffbde0" stroke="#9e034e" d="M318.981 116.759v12.037h12.038l6.018-6.018v-12.037H325z" stroke-width="2"/><path fill="#ffbde0" stroke="#9e034e" d="M318.981 116.759h12.038v12.037M331.019 116.759l6.018-6.018" stroke-width="2"/><path fill="#ffbde0" stroke="#9e034e" d="M318.981 104.722v12.037h12.038l6.018-6.018V98.704H325z" stroke-width="2"/><path fill="#ffbde0" stroke="#9e034e" d="M318.981 104.722h12.038v12.037M331.019 104.722l6.018-6.018" stroke-width="2"/><path fill="#ffbde0" stroke="#9e034e" d="M318.981 92.685v12.037h12.038l6.018-6.018V86.667H325z" stroke-width="2"/><path fill="#ffbde0" stroke="#9e034e" d="M318.981 92.685h12.038v12.037M331.019 92.685l6.018-6.018" stroke-width="2"/><path fill="#ffbde0" stroke="#9e034e" d="M318.981 80.648v12.037h12.038l6.018-6.018V74.63H325z" stroke-width="2"/><path fill="#ffbde0" stroke="#9e034e" d="M318.981 80.648h12.038v12.037M331.019 80.648l6.018-6.018" stroke-width="2"/><path fill="#ffbde0" stroke="#9e034e" d="M318.981 68.611v12.037h12.038l6.018-6.018V62.593H325z" stroke-width="2"/><path fill="#ffbde0" stroke="#9e034e" d="M318.981 68.611h12.038v12.037M331.019 68.611l6.018-6.018" stroke-width="2"/><path fill="#ffbde0" stroke="#9e034e" d="M318.981 56.574v12.037h12.038l6.018-6.018V50.556H325z" stroke-width="2"/><path fill="#ffbde0" stroke="#9e034e" d="M318.981 56.574h12.038v12.037M331.019 56.574l6.018-6.018" stroke-width="2"/><path fill="#ffbde0" stroke="#9e034e" d="M318.981 44.537v12.037h12.038l6.018-6.018V38.519H325z" stroke-width="2"/><path fill="#ffbde0" stroke="#9e034e" d="M318.981 44.537h12.038v12.037M331.019 44.537l6.018-6.018" stroke-width="2"/><path fill="#ffbde0" stroke="#9e034e" d="M318.981 32.5v12.037h12.038l6.018-6.018V26.482H325z" stroke-width="2"/><path fill="#ffbde0" stroke="#9e034e" d="M318.981 32.5h12.038v12.037M331.019 32.5l6.018-6.018" stroke-width="2"/><path fill="#ffbde0" stroke="#9e034e" d="M318.981 20.463V32.5h12.038l6.018-6.018V14.444H325z" stroke-width="2"/><path fill="#ffbde0" stroke="#9e034e" d="M318.981 20.463h12.038V32.5M331.019 20.463l6.018-6.019" stroke-width="2"/><path fill="#ffbde0" stroke="#9e034e" d="M318.981 8.426v12.037h12.038l6.018-6.019V2.407H325z" stroke-width="2"/><path fill="#ffbde0" stroke="#9e034e" d="M318.981 8.426h12.038v12.037M331.019 8.426l6.018-6.019M343.056 116.759v12.037h12.037l6.018-6.018v-12.037h-12.037z" stroke-width="2"/><path fill="#ffbde0" stroke="#9e034e" d="M343.056 116.759h12.037v12.037M355.093 116.759l6.018-6.018" stroke-width="2"/><path fill="#ffbde0" stroke="#9e034e" d="M343.056 104.722v12.037h12.037l6.018-6.018V98.704h-12.037z" stroke-width="2"/><path fill="#ffbde0" stroke="#9e034e" d="M343.056 104.722h12.037v12.037M355.093 104.722l6.018-6.018" stroke-width="2"/><path fill="#ffbde0" stroke="#9e034e" d="M343.056 92.685v12.037h12.037l6.018-6.018V86.667h-12.037z" stroke-width="2"/><path fill="#ffbde0" stroke="#9e034e" d="M343.056 92.685h12.037v12.037M355.093 92.685l6.018-6.018" stroke-width="2"/><path fill="#ffbde0" stroke="#9e034e" d="M343.056 80.648v12.037h12.037l6.018-6.018V74.63h-12.037z" stroke-width="2"/><path fill="#ffbde0" stroke="#9e034e" d="M343.056 80.648h12.037v12.037M355.093 80.648l6.018-6.018" stroke-width="2"/><path fill="#ffbde0" stroke="#9e034e" d="M343.056 68.611v12.037h12.037l6.018-6.018V62.593h-12.037z" stroke-width="2"/><path fill="#ffbde0" stroke="#9e034e" d="M343.056 68.611h12.037v12.037M355.093 68.611l6.018-6.018" stroke-width="2"/><path fill="#ffbde0" stroke="#9e034e" d="M343.056 56.574v12.037h12.037l6.018-6.018V50.556h-12.037z" stroke-width="2"/><path fill="#ffbde0" stroke="#9e034e" d="M343.056 56.574h12.037v12.037M355.093 56.574l6.018-6.018" stroke-width="2"/><path fill="#ffbde0" stroke="#9e034e" d="M343.056 44.537v12.037h12.037l6.018-6.018V38.519h-12.037z" stroke-width="2"/><path fill="#ffbde0" stroke="#9e034e" d="M343.056 44.537h12.037v12.037M355.093 44.537l6.018-6.018" stroke-width="2"/><path fill="#ffbde0" stroke="#9e034e" d="M343.056 32.5v12.037h12.037l6.018-6.018V26.482h-12.037z" stroke-width="2"/><path fill="#ffbde0" stroke="#9e034e" d="M343.056 32.5h12.037v12.037M355.093 32.5l6.018-6.018" stroke-width="2"/><path fill="#ffbde0" stroke="#9e034e" d="M343.056 20.463V32.5h12.037l6.018-6.018V14.444h-12.037z" stroke-width="2"/><path fill="#ffbde0" stroke="#9e034e" d="M343.056 20.463h12.037V32.5M355.093 20.463l6.018-6.019" stroke-width="2"/><path fill="#ffbde0" stroke="#9e034e" d="M343.056 8.426v12.037h12.037l6.018-6.019V2.407h-12.037z" stroke-width="2"/><path fill="#ffbde0" stroke="#9e034e" d="M343.056 8.426h12.037v12.037M355.093 8.426l6.018-6.019M367.13 116.759v12.037h12.037l6.018-6.018v-12.037h-12.037z" stroke-width="2"/><path fill="#ffbde0" stroke="#9e034e" d="M367.13 116.759h12.037v12.037M379.167 116.759l6.018-6.018" stroke-width="2"/><path fill="#ffbde0" stroke="#9e034e" d="M367.13 104.722v12.037h12.037l6.018-6.018V98.704h-12.037z" stroke-width="2"/><path fill="#ffbde0" stroke="#9e034e" d="M367.13 104.722h12.037v12.037M379.167 104.722l6.018-6.018" stroke-width="2"/><path fill="#ffbde0" stroke="#9e034e" d="M367.13 92.685v12.037h12.037l6.018-6.018V86.667h-12.037z" stroke-width="2"/><path fill="#ffbde0" stroke="#9e034e" d="M367.13 92.685h12.037v12.037M379.167 92.685l6.018-6.018" stroke-width="2"/><path fill="#ffbde0" stroke="#9e034e" d="M367.13 80.648v12.037h12.037l6.018-6.018V74.63h-12.037z" stroke-width="2"/><path fill="#ffbde0" stroke="#9e034e" d="M367.13 80.648h12.037v12.037M379.167 80.648l6.018-6.018" stroke-width="2"/><path fill="#ffbde0" stroke="#9e034e" d="M367.13 68.611v12.037h12.037l6.018-6.018V62.593h-12.037z" stroke-width="2"/><path fill="#ffbde0" stroke="#9e034e" d="M367.13 68.611h12.037v12.037M379.167 68.611l6.018-6.018" stroke-width="2"/><path fill="#ffbde0" stroke="#9e034e" d="M367.13 56.574v12.037h12.037l6.018-6.018V50.556h-12.037z" stroke-width="2"/><path fill="#ffbde0" stroke="#9e034e" d="M367.13 56.574h12.037v12.037M379.167 56.574l6.018-6.018" stroke-width="2"/><path fill="#ffbde0" stroke="#9e034e" d="M367.13 44.537v12.037h12.037l6.018-6.018V38.519h-12.037z" stroke-width="2"/><path fill="#ffbde0" stroke="#9e034e" d="M367.13 44.537h12.037v12.037M379.167 44.537l6.018-6.018" stroke-width="2"/><path fill="#ffbde0" stroke="#9e034e" d="M367.13 32.5v12.037h12.037l6.018-6.018V26.482h-12.037z" stroke-width="2"/><path fill="#ffbde0" stroke="#9e034e" d="M367.13 32.5h12.037v12.037M379.167 32.5l6.018-6.018" stroke-width="2"/><path fill="#ffbde0" stroke="#9e034e" d="M367.13 20.463V32.5h12.037l6.018-6.018V14.444h-12.037z" stroke-width="2"/><path fill="#ffbde0" stroke="#9e034e" d="M367.13 20.463h12.037V32.5M379.167 20.463l6.018-6.019" stroke-width="2"/><path fill="#ffbde0" stroke="#9e034e" d="M367.13 8.426v12.037h12.037l6.018-6.019V2.407h-12.037z" stroke-width="2"/><path fill="#ffbde0" stroke="#9e034e" d="M367.13 8.426h12.037v12.037M379.167 8.426l6.018-6.019M391.204 116.759v12.037h12.037l6.018-6.018v-12.037h-12.037z" stroke-width="2"/><path fill="#ffbde0" stroke="#9e034e" d="M391.204 116.759h12.037v12.037M403.241 116.759l6.018-6.018" stroke-width="2"/><path fill="#ffbde0" stroke="#9e034e" d="M391.204 104.722v12.037h12.037l6.018-6.018V98.704h-12.037z" stroke-width="2"/><path fill="#ffbde0" stroke="#9e034e" d="M391.204 104.722h12.037v12.037M403.241 104.722l6.018-6.018" stroke-width="2"/><path fill="#ffbde0" stroke="#9e034e" d="M391.204 92.685v12.037h12.037l6.018-6.018V86.667h-12.037z" stroke-width="2"/><path fill="#ffbde0" stroke="#9e034e" d="M391.204 92.685h12.037v12.037M403.241 92.685l6.018-6.018" stroke-width="2"/><path fill="#ffbde0" stroke="#9e034e" d="M391.204 80.648v12.037h12.037l6.018-6.018V74.63h-12.037z" stroke-width="2"/><path fill="#ffbde0" stroke="#9e034e" d="M391.204 80.648h12.037v12.037M403.241 80.648l6.018-6.018" stroke-width="2"/><path fill="#ffbde0" stroke="#9e034e" d="M391.204 68.611v12.037h12.037l6.018-6.018V62.593h-12.037z" stroke-width="2"/><path fill="#ffbde0" stroke="#9e034e" d="M391.204 68.611h12.037v12.037M403.241 68.611l6.018-6.018" stroke-width="2"/><path fill="#ffbde0" stroke="#9e034e" d="M391.204 56.574v12.037h12.037l6.018-6.018V50.556h-12.037z" stroke-width="2"/><path fill="#ffbde0" stroke="#9e034e" d="M391.204 56.574h12.037v12.037M403.241 56.574l6.018-6.018" stroke-width="2"/><path fill="#ffbde0" stroke="#9e034e" d="M391.204 44.537v12.037h12.037l6.018-6.018V38.519h-12.037z" stroke-width="2"/><path fill="#ffbde0" stroke="#9e034e" d="M391.204 44.537h12.037v12.037M403.241 44.537l6.018-6.018" stroke-width="2"/><path fill="#ffbde0" stroke="#9e034e" d="M391.204 32.5v12.037h12.037l6.018-6.018V26.482h-12.037z" stroke-width="2"/><path fill="#ffbde0" stroke="#9e034e" d="M391.204 32.5h12.037v12.037M403.241 32.5l6.018-6.018" stroke-width="2"/><path fill="#ffbde0" stroke="#9e034e" d="M391.204 20.463V32.5h12.037l6.018-6.018V14.444h-12.037z" stroke-width="2"/><path fill="#ffbde0" stroke="#9e034e" d="M391.204 20.463h12.037V32.5M403.241 20.463l6.018-6.019" stroke-width="2"/><path fill="#ffbde0" stroke="#9e034e" d="M391.204 8.426v12.037h12.037l6.018-6.019V2.407h-12.037z" stroke-width="2"/><path fill="#ffbde0" stroke="#9e034e" d="M391.204 8.426h12.037v12.037M403.241 8.426l6.018-6.019" stroke-width="2"/><path fill="#ccfaff" stroke="#0c7f99" d="M415.278 116.759v12.037h12.037l6.018-6.018v-12.037h-12.037z" stroke-width="2"/><path fill="#ccfaff" stroke="#0c7f99" d="M415.278 116.759h12.037v12.037M427.315 116.759l6.018-6.018M415.278 92.685v12.037h12.037l6.018-6.018V86.667h-12.037z" stroke-width="2"/><path fill="#ccfaff" stroke="#0c7f99" d="M415.278 92.685h12.037v12.037M427.315 92.685l6.018-6.018M415.278 68.611v12.037h12.037l6.018-6.018V62.593h-12.037z" stroke-width="2"/><path fill="#ccfaff" stroke="#0c7f99" d="M415.278 68.611h12.037v12.037M427.315 68.611l6.018-6.018M415.278 44.537v12.037h12.037l6.018-6.018V38.519h-12.037z" stroke-width="2"/><path fill="#ccfaff" stroke="#0c7f99" d="M415.278 44.537h12.037v12.037M427.315 44.537l6.018-6.018" stroke-width="2"/></svg>
