<svg xmlns="http://www.w3.org/2000/svg" width="320" height="176" viewBox="0 0 320 176"><path fill="#7854ab" stroke="#000" d="M6.154 44v36h307.692V44H6.154" stroke-width="2" fill-opacity=".3"/><path fill="#11accd" stroke="#000" d="M6.154 84v36H269.09V84H6.154" stroke-width="2" fill-opacity=".3"/><path fill="#ca337c" stroke="#000" d="M269.091 84v36h44.755V84h-44.755" stroke-width="2" fill-opacity=".3"/><path fill="none" stroke="#000" d="M6.154 44c1-3 6-5 10-6 0 0 3-1 6-1H147c5 0 10-3 10-3l3-4 3 4s5 3 10 3h124.846c3 1 6 1 6 1 4 1 9 3 10 6M269.09 120c-1 3-5.999 5-9.999 6 0 0-3 1-6 1h-102.47c-5 0-10 3-10 3l-3 4-3-4s-5-3-10-3H22.155c-3-1-6-1-6-1-4-1-9-3-10-6M313.846 120c-.772 3-4.63 5-7.716 6 0 0-2.315 1-4.63 1-3.858 0-7.717 3-7.717 3l-2.315 4-2.315-4s-3.858-3-7.716-3c-2.315-1-4.63-1-4.63-1-3.086-1-6.945-3-7.716-6"/></svg>
