<svg xmlns="http://www.w3.org/2000/svg" width="73.945" height="130" viewBox="0 0 73.94495412844039 130"><path fill="#ffbde0" stroke="#9e034e" d="M4.77 115.688v11.927h11.927l5.964-5.964v-11.926H10.734z" stroke-width="2"/><path fill="#ffbde0" stroke="#9e034e" d="M4.77 115.688h11.927v11.927M16.697 115.688l5.964-5.963M4.77 103.761v11.927h11.927l5.964-5.963V97.798H10.734z" stroke-width="2"/><path fill="#ffbde0" stroke="#9e034e" d="M4.77 103.761h11.927v11.927M16.697 103.761l5.964-5.963" stroke-width="2"/><path fill="#ffbde0" stroke="#9e034e" d="M4.77 91.835v11.926h11.927l5.964-5.963V85.872H10.734z" stroke-width="2"/><path fill="#ffbde0" stroke="#9e034e" d="M4.77 91.835h11.927v11.926M16.697 91.835l5.964-5.963" stroke-width="2"/><path fill="#ffbde0" stroke="#9e034e" d="M4.77 79.908v11.927h11.927l5.964-5.963V73.945H10.734z" stroke-width="2"/><path fill="#ffbde0" stroke="#9e034e" d="M4.77 79.908h11.927v11.927M16.697 79.908l5.964-5.963" stroke-width="2"/><path fill="#ffbde0" stroke="#9e034e" d="M4.77 67.982v11.926h11.927l5.964-5.963V62.018H10.734z" stroke-width="2"/><path fill="#ffbde0" stroke="#9e034e" d="M4.77 67.982h11.927v11.926M16.697 67.982l5.964-5.964" stroke-width="2"/><path fill="#ffbde0" stroke="#9e034e" d="M4.77 56.055v11.927h11.927l5.964-5.964V50.092H10.734z" stroke-width="2"/><path fill="#ffbde0" stroke="#9e034e" d="M4.77 56.055h11.927v11.927M16.697 56.055l5.964-5.963" stroke-width="2"/><path fill="#ffbde0" stroke="#9e034e" d="M4.77 44.128v11.927h11.927l5.964-5.963V38.165H10.734z" stroke-width="2"/><path fill="#ffbde0" stroke="#9e034e" d="M4.77 44.128h11.927v11.927M16.697 44.128l5.964-5.963" stroke-width="2"/><path fill="#ffbde0" stroke="#9e034e" d="M4.77 32.202v11.926h11.927l5.964-5.963V26.238H10.734z" stroke-width="2"/><path fill="#ffbde0" stroke="#9e034e" d="M4.77 32.202h11.927v11.926M16.697 32.202l5.964-5.963" stroke-width="2"/><path fill="#ffbde0" stroke="#9e034e" d="M4.77 20.275v11.927h11.927l5.964-5.963V14.311H10.734z" stroke-width="2"/><path fill="#ffbde0" stroke="#9e034e" d="M4.77 20.275h11.927v11.927M16.697 20.275l5.964-5.963" stroke-width="2"/><path fill="#ffbde0" stroke="#9e034e" d="M4.77 8.349v11.926h11.927l5.964-5.963V2.385H10.734z" stroke-width="2"/><path fill="#ffbde0" stroke="#9e034e" d="M4.77 8.349h11.927v11.926M16.697 8.349l5.964-5.964M28.624 115.688v11.927H40.55l5.963-5.964v-11.926H34.587z" stroke-width="2"/><path fill="#ffbde0" stroke="#9e034e" d="M28.624 115.688H40.55v11.927M40.55 115.688l5.964-5.963M28.624 91.835v11.926H40.55l5.963-5.963V85.872H34.587z" stroke-width="2"/><path fill="#ffbde0" stroke="#9e034e" d="M28.624 91.835H40.55v11.926M40.55 91.835l5.964-5.963M28.624 67.982v11.926H40.55l5.963-5.963V62.018H34.587z" stroke-width="2"/><path fill="#ffbde0" stroke="#9e034e" d="M28.624 67.982H40.55v11.926M40.55 67.982l5.964-5.964M28.624 44.128v11.927H40.55l5.963-5.963V38.165H34.587z" stroke-width="2"/><path fill="#ffbde0" stroke="#9e034e" d="M28.624 44.128H40.55v11.927M40.55 44.128l5.964-5.963M28.624 20.275v11.927H40.55l5.963-5.963V14.311H34.587z" stroke-width="2"/><path fill="#ffbde0" stroke="#9e034e" d="M28.624 20.275H40.55v11.927M40.55 20.275l5.964-5.963M52.477 115.688v11.927h11.927l5.963-5.964v-11.926H58.44z" stroke-width="2"/><path fill="#ffbde0" stroke="#9e034e" d="M52.477 115.688h11.927v11.927M64.404 115.688l5.963-5.963M52.477 91.835v11.926h11.927l5.963-5.963V85.872H58.44z" stroke-width="2"/><path fill="#ffbde0" stroke="#9e034e" d="M52.477 91.835h11.927v11.926M64.404 91.835l5.963-5.963M52.477 67.982v11.926h11.927l5.963-5.963V62.018H58.44z" stroke-width="2"/><path fill="#ffbde0" stroke="#9e034e" d="M52.477 67.982h11.927v11.926M64.404 67.982l5.963-5.964" stroke-width="2"/></svg>
