<svg xmlns="http://www.w3.org/2000/svg" width="407.89" height="130" viewBox="0 0 407.8899082568807 130"><path fill="#ccfaff" stroke="#0c7f99" d="M4.77 115.688v11.927h11.927l5.964-5.964v-11.926H10.734z" stroke-width="2"/><path fill="#ccfaff" stroke="#0c7f99" d="M4.77 115.688h11.927v11.927M16.697 115.688l5.964-5.963M4.77 103.761v11.927h11.927l5.964-5.963V97.798H10.734z" stroke-width="2"/><path fill="#ccfaff" stroke="#0c7f99" d="M4.77 103.761h11.927v11.927M16.697 103.761l5.964-5.963" stroke-width="2"/><path fill="#ccfaff" stroke="#0c7f99" d="M4.77 91.835v11.926h11.927l5.964-5.963V85.872H10.734z" stroke-width="2"/><path fill="#ccfaff" stroke="#0c7f99" d="M4.77 91.835h11.927v11.926M16.697 91.835l5.964-5.963" stroke-width="2"/><path fill="#ccfaff" stroke="#0c7f99" d="M4.77 79.908v11.927h11.927l5.964-5.963V73.945H10.734z" stroke-width="2"/><path fill="#ccfaff" stroke="#0c7f99" d="M4.77 79.908h11.927v11.927M16.697 79.908l5.964-5.963" stroke-width="2"/><path fill="#ccfaff" stroke="#0c7f99" d="M4.77 67.982v11.926h11.927l5.964-5.963V62.018H10.734z" stroke-width="2"/><path fill="#ccfaff" stroke="#0c7f99" d="M4.77 67.982h11.927v11.926M16.697 67.982l5.964-5.964" stroke-width="2"/><path fill="#ccfaff" stroke="#0c7f99" d="M4.77 56.055v11.927h11.927l5.964-5.964V50.092H10.734z" stroke-width="2"/><path fill="#ccfaff" stroke="#0c7f99" d="M4.77 56.055h11.927v11.927M16.697 56.055l5.964-5.963" stroke-width="2"/><path fill="#ccfaff" stroke="#0c7f99" d="M4.77 44.128v11.927h11.927l5.964-5.963V38.165H10.734z" stroke-width="2"/><path fill="#ccfaff" stroke="#0c7f99" d="M4.77 44.128h11.927v11.927M16.697 44.128l5.964-5.963" stroke-width="2"/><path fill="#ccfaff" stroke="#0c7f99" d="M4.77 32.202v11.926h11.927l5.964-5.963V26.238H10.734z" stroke-width="2"/><path fill="#ccfaff" stroke="#0c7f99" d="M4.77 32.202h11.927v11.926M16.697 32.202l5.964-5.963" stroke-width="2"/><path fill="#ccfaff" stroke="#0c7f99" d="M4.77 20.275v11.927h11.927l5.964-5.963V14.311H10.734z" stroke-width="2"/><path fill="#ccfaff" stroke="#0c7f99" d="M4.77 20.275h11.927v11.927M16.697 20.275l5.964-5.963" stroke-width="2"/><path fill="#ccfaff" stroke="#0c7f99" d="M4.77 8.349v11.926h11.927l5.964-5.963V2.385H10.734z" stroke-width="2"/><path fill="#ccfaff" stroke="#0c7f99" d="M4.77 8.349h11.927v11.926M16.697 8.349l5.964-5.964M28.624 115.688v11.927H40.55l5.963-5.964v-11.926H34.587z" stroke-width="2"/><path fill="#ccfaff" stroke="#0c7f99" d="M28.624 115.688H40.55v11.927M40.55 115.688l5.964-5.963M28.624 103.761v11.927H40.55l5.963-5.963V97.798H34.587z" stroke-width="2"/><path fill="#ccfaff" stroke="#0c7f99" d="M28.624 103.761H40.55v11.927M40.55 103.761l5.964-5.963" stroke-width="2"/><path fill="#ccfaff" stroke="#0c7f99" d="M28.624 91.835v11.926H40.55l5.963-5.963V85.872H34.587z" stroke-width="2"/><path fill="#ccfaff" stroke="#0c7f99" d="M28.624 91.835H40.55v11.926M40.55 91.835l5.964-5.963" stroke-width="2"/><path fill="#ccfaff" stroke="#0c7f99" d="M28.624 79.908v11.927H40.55l5.963-5.963V73.945H34.587z" stroke-width="2"/><path fill="#ccfaff" stroke="#0c7f99" d="M28.624 79.908H40.55v11.927M40.55 79.908l5.964-5.963" stroke-width="2"/><path fill="#ccfaff" stroke="#0c7f99" d="M28.624 67.982v11.926H40.55l5.963-5.963V62.018H34.587z" stroke-width="2"/><path fill="#ccfaff" stroke="#0c7f99" d="M28.624 67.982H40.55v11.926M40.55 67.982l5.964-5.964" stroke-width="2"/><path fill="#ccfaff" stroke="#0c7f99" d="M28.624 56.055v11.927H40.55l5.963-5.964V50.092H34.587z" stroke-width="2"/><path fill="#ccfaff" stroke="#0c7f99" d="M28.624 56.055H40.55v11.927M40.55 56.055l5.964-5.963" stroke-width="2"/><path fill="#ccfaff" stroke="#0c7f99" d="M28.624 44.128v11.927H40.55l5.963-5.963V38.165H34.587z" stroke-width="2"/><path fill="#ccfaff" stroke="#0c7f99" d="M28.624 44.128H40.55v11.927M40.55 44.128l5.964-5.963" stroke-width="2"/><path fill="#ccfaff" stroke="#0c7f99" d="M28.624 32.202v11.926H40.55l5.963-5.963V26.238H34.587z" stroke-width="2"/><path fill="#ccfaff" stroke="#0c7f99" d="M28.624 32.202H40.55v11.926M40.55 32.202l5.964-5.963" stroke-width="2"/><path fill="#ccfaff" stroke="#0c7f99" d="M28.624 20.275v11.927H40.55l5.963-5.963V14.311H34.587z" stroke-width="2"/><path fill="#ccfaff" stroke="#0c7f99" d="M28.624 20.275H40.55v11.927M40.55 20.275l5.964-5.963" stroke-width="2"/><path fill="#ccfaff" stroke="#0c7f99" d="M28.624 8.349v11.926H40.55l5.963-5.963V2.385H34.587z" stroke-width="2"/><path fill="#ccfaff" stroke="#0c7f99" d="M28.624 8.349H40.55v11.926M40.55 8.349l5.964-5.964M52.477 115.688v11.927h11.927l5.963-5.964v-11.926H58.44z" stroke-width="2"/><path fill="#ccfaff" stroke="#0c7f99" d="M52.477 115.688h11.927v11.927M64.404 115.688l5.963-5.963M52.477 103.761v11.927h11.927l5.963-5.963V97.798H58.44z" stroke-width="2"/><path fill="#ccfaff" stroke="#0c7f99" d="M52.477 103.761h11.927v11.927M64.404 103.761l5.963-5.963" stroke-width="2"/><path fill="#ccfaff" stroke="#0c7f99" d="M52.477 91.835v11.926h11.927l5.963-5.963V85.872H58.44z" stroke-width="2"/><path fill="#ccfaff" stroke="#0c7f99" d="M52.477 91.835h11.927v11.926M64.404 91.835l5.963-5.963" stroke-width="2"/><path fill="#ccfaff" stroke="#0c7f99" d="M52.477 79.908v11.927h11.927l5.963-5.963V73.945H58.44z" stroke-width="2"/><path fill="#ccfaff" stroke="#0c7f99" d="M52.477 79.908h11.927v11.927M64.404 79.908l5.963-5.963" stroke-width="2"/><path fill="#ccfaff" stroke="#0c7f99" d="M52.477 67.982v11.926h11.927l5.963-5.963V62.018H58.44z" stroke-width="2"/><path fill="#ccfaff" stroke="#0c7f99" d="M52.477 67.982h11.927v11.926M64.404 67.982l5.963-5.964" stroke-width="2"/><path fill="#ccfaff" stroke="#0c7f99" d="M52.477 56.055v11.927h11.927l5.963-5.964V50.092H58.44z" stroke-width="2"/><path fill="#ccfaff" stroke="#0c7f99" d="M52.477 56.055h11.927v11.927M64.404 56.055l5.963-5.963" stroke-width="2"/><path fill="#ccfaff" stroke="#0c7f99" d="M52.477 44.128v11.927h11.927l5.963-5.963V38.165H58.44z" stroke-width="2"/><path fill="#ccfaff" stroke="#0c7f99" d="M52.477 44.128h11.927v11.927M64.404 44.128l5.963-5.963" stroke-width="2"/><path fill="#ccfaff" stroke="#0c7f99" d="M52.477 32.202v11.926h11.927l5.963-5.963V26.238H58.44z" stroke-width="2"/><path fill="#ccfaff" stroke="#0c7f99" d="M52.477 32.202h11.927v11.926M64.404 32.202l5.963-5.963" stroke-width="2"/><path fill="#ccfaff" stroke="#0c7f99" d="M52.477 20.275v11.927h11.927l5.963-5.963V14.311H58.44z" stroke-width="2"/><path fill="#ccfaff" stroke="#0c7f99" d="M52.477 20.275h11.927v11.927M64.404 20.275l5.963-5.963" stroke-width="2"/><path fill="#ccfaff" stroke="#0c7f99" d="M52.477 8.349v11.926h11.927l5.963-5.963V2.385H58.44z" stroke-width="2"/><path fill="#ccfaff" stroke="#0c7f99" d="M52.477 8.349h11.927v11.926M64.404 8.349l5.963-5.964M76.33 115.688v11.927h11.927l5.963-5.964v-11.926H82.294z" stroke-width="2"/><path fill="#ccfaff" stroke="#0c7f99" d="M76.33 115.688h11.927v11.927M88.257 115.688l5.963-5.963M76.33 103.761v11.927h11.927l5.963-5.963V97.798H82.294z" stroke-width="2"/><path fill="#ccfaff" stroke="#0c7f99" d="M76.33 103.761h11.927v11.927M88.257 103.761l5.963-5.963" stroke-width="2"/><path fill="#ccfaff" stroke="#0c7f99" d="M76.33 91.835v11.926h11.927l5.963-5.963V85.872H82.294z" stroke-width="2"/><path fill="#ccfaff" stroke="#0c7f99" d="M76.33 91.835h11.927v11.926M88.257 91.835l5.963-5.963" stroke-width="2"/><path fill="#ccfaff" stroke="#0c7f99" d="M76.33 79.908v11.927h11.927l5.963-5.963V73.945H82.294z" stroke-width="2"/><path fill="#ccfaff" stroke="#0c7f99" d="M76.33 79.908h11.927v11.927M88.257 79.908l5.963-5.963" stroke-width="2"/><path fill="#ccfaff" stroke="#0c7f99" d="M76.33 67.982v11.926h11.927l5.963-5.963V62.018H82.294z" stroke-width="2"/><path fill="#ccfaff" stroke="#0c7f99" d="M76.33 67.982h11.927v11.926M88.257 67.982l5.963-5.964" stroke-width="2"/><path fill="#ccfaff" stroke="#0c7f99" d="M76.33 56.055v11.927h11.927l5.963-5.964V50.092H82.294z" stroke-width="2"/><path fill="#ccfaff" stroke="#0c7f99" d="M76.33 56.055h11.927v11.927M88.257 56.055l5.963-5.963" stroke-width="2"/><path fill="#ccfaff" stroke="#0c7f99" d="M76.33 44.128v11.927h11.927l5.963-5.963V38.165H82.294z" stroke-width="2"/><path fill="#ccfaff" stroke="#0c7f99" d="M76.33 44.128h11.927v11.927M88.257 44.128l5.963-5.963" stroke-width="2"/><path fill="#ccfaff" stroke="#0c7f99" d="M76.33 32.202v11.926h11.927l5.963-5.963V26.238H82.294z" stroke-width="2"/><path fill="#ccfaff" stroke="#0c7f99" d="M76.33 32.202h11.927v11.926M88.257 32.202l5.963-5.963" stroke-width="2"/><path fill="#ccfaff" stroke="#0c7f99" d="M76.33 20.275v11.927h11.927l5.963-5.963V14.311H82.294z" stroke-width="2"/><path fill="#ccfaff" stroke="#0c7f99" d="M76.33 20.275h11.927v11.927M88.257 20.275l5.963-5.963" stroke-width="2"/><path fill="#ccfaff" stroke="#0c7f99" d="M76.33 8.349v11.926h11.927l5.963-5.963V2.385H82.294z" stroke-width="2"/><path fill="#ccfaff" stroke="#0c7f99" d="M76.33 8.349h11.927v11.926M88.257 8.349l5.963-5.964M100.183 115.688v11.927h11.927l5.963-5.964v-11.926h-11.926z" stroke-width="2"/><path fill="#ccfaff" stroke="#0c7f99" d="M100.183 115.688h11.927v11.927M112.11 115.688l5.963-5.963M100.183 103.761v11.927h11.927l5.963-5.963V97.798h-11.926z" stroke-width="2"/><path fill="#ccfaff" stroke="#0c7f99" d="M100.183 103.761h11.927v11.927M112.11 103.761l5.963-5.963" stroke-width="2"/><path fill="#ccfaff" stroke="#0c7f99" d="M100.183 91.835v11.926h11.927l5.963-5.963V85.872h-11.926z" stroke-width="2"/><path fill="#ccfaff" stroke="#0c7f99" d="M100.183 91.835h11.927v11.926M112.11 91.835l5.963-5.963" stroke-width="2"/><path fill="#ccfaff" stroke="#0c7f99" d="M100.183 79.908v11.927h11.927l5.963-5.963V73.945h-11.926z" stroke-width="2"/><path fill="#ccfaff" stroke="#0c7f99" d="M100.183 79.908h11.927v11.927M112.11 79.908l5.963-5.963" stroke-width="2"/><path fill="#ccfaff" stroke="#0c7f99" d="M100.183 67.982v11.926h11.927l5.963-5.963V62.018h-11.926z" stroke-width="2"/><path fill="#ccfaff" stroke="#0c7f99" d="M100.183 67.982h11.927v11.926M112.11 67.982l5.963-5.964" stroke-width="2"/><path fill="#ccfaff" stroke="#0c7f99" d="M100.183 56.055v11.927h11.927l5.963-5.964V50.092h-11.926z" stroke-width="2"/><path fill="#ccfaff" stroke="#0c7f99" d="M100.183 56.055h11.927v11.927M112.11 56.055l5.963-5.963" stroke-width="2"/><path fill="#ccfaff" stroke="#0c7f99" d="M100.183 44.128v11.927h11.927l5.963-5.963V38.165h-11.926z" stroke-width="2"/><path fill="#ccfaff" stroke="#0c7f99" d="M100.183 44.128h11.927v11.927M112.11 44.128l5.963-5.963" stroke-width="2"/><path fill="#ccfaff" stroke="#0c7f99" d="M100.183 32.202v11.926h11.927l5.963-5.963V26.238h-11.926z" stroke-width="2"/><path fill="#ccfaff" stroke="#0c7f99" d="M100.183 32.202h11.927v11.926M112.11 32.202l5.963-5.963" stroke-width="2"/><path fill="#ccfaff" stroke="#0c7f99" d="M100.183 20.275v11.927h11.927l5.963-5.963V14.311h-11.926z" stroke-width="2"/><path fill="#ccfaff" stroke="#0c7f99" d="M100.183 20.275h11.927v11.927M112.11 20.275l5.963-5.963" stroke-width="2"/><path fill="#ccfaff" stroke="#0c7f99" d="M100.183 8.349v11.926h11.927l5.963-5.963V2.385h-11.926z" stroke-width="2"/><path fill="#ccfaff" stroke="#0c7f99" d="M100.183 8.349h11.927v11.926M112.11 8.349l5.963-5.964M124.037 115.688v11.927h11.926l5.964-5.964v-11.926H130z" stroke-width="2"/><path fill="#ccfaff" stroke="#0c7f99" d="M124.037 115.688h11.926v11.927M135.963 115.688l5.964-5.963M124.037 103.761v11.927h11.926l5.964-5.963V97.798H130z" stroke-width="2"/><path fill="#ccfaff" stroke="#0c7f99" d="M124.037 103.761h11.926v11.927M135.963 103.761l5.964-5.963" stroke-width="2"/><path fill="#ccfaff" stroke="#0c7f99" d="M124.037 91.835v11.926h11.926l5.964-5.963V85.872H130z" stroke-width="2"/><path fill="#ccfaff" stroke="#0c7f99" d="M124.037 91.835h11.926v11.926M135.963 91.835l5.964-5.963" stroke-width="2"/><path fill="#ccfaff" stroke="#0c7f99" d="M124.037 79.908v11.927h11.926l5.964-5.963V73.945H130z" stroke-width="2"/><path fill="#ccfaff" stroke="#0c7f99" d="M124.037 79.908h11.926v11.927M135.963 79.908l5.964-5.963" stroke-width="2"/><path fill="#ccfaff" stroke="#0c7f99" d="M124.037 67.982v11.926h11.926l5.964-5.963V62.018H130z" stroke-width="2"/><path fill="#ccfaff" stroke="#0c7f99" d="M124.037 67.982h11.926v11.926M135.963 67.982l5.964-5.964" stroke-width="2"/><path fill="#ccfaff" stroke="#0c7f99" d="M124.037 56.055v11.927h11.926l5.964-5.964V50.092H130z" stroke-width="2"/><path fill="#ccfaff" stroke="#0c7f99" d="M124.037 56.055h11.926v11.927M135.963 56.055l5.964-5.963" stroke-width="2"/><path fill="#ccfaff" stroke="#0c7f99" d="M124.037 44.128v11.927h11.926l5.964-5.963V38.165H130z" stroke-width="2"/><path fill="#ccfaff" stroke="#0c7f99" d="M124.037 44.128h11.926v11.927M135.963 44.128l5.964-5.963" stroke-width="2"/><path fill="#ccfaff" stroke="#0c7f99" d="M124.037 32.202v11.926h11.926l5.964-5.963V26.238H130z" stroke-width="2"/><path fill="#ccfaff" stroke="#0c7f99" d="M124.037 32.202h11.926v11.926M135.963 32.202l5.964-5.963" stroke-width="2"/><path fill="#ccfaff" stroke="#0c7f99" d="M124.037 20.275v11.927h11.926l5.964-5.963V14.311H130z" stroke-width="2"/><path fill="#ccfaff" stroke="#0c7f99" d="M124.037 20.275h11.926v11.927M135.963 20.275l5.964-5.963" stroke-width="2"/><path fill="#ccfaff" stroke="#0c7f99" d="M124.037 8.349v11.926h11.926l5.964-5.963V2.385H130z" stroke-width="2"/><path fill="#ccfaff" stroke="#0c7f99" d="M124.037 8.349h11.926v11.926M135.963 8.349l5.964-5.964M147.89 115.688v11.927h11.927l5.963-5.964v-11.926h-11.927z" stroke-width="2"/><path fill="#ccfaff" stroke="#0c7f99" d="M147.89 115.688h11.927v11.927M159.817 115.688l5.963-5.963M147.89 91.835v11.926h11.927l5.963-5.963V85.872h-11.927z" stroke-width="2"/><path fill="#ccfaff" stroke="#0c7f99" d="M147.89 91.835h11.927v11.926M159.817 91.835l5.963-5.963M147.89 67.982v11.926h11.927l5.963-5.963V62.018h-11.927z" stroke-width="2"/><path fill="#ccfaff" stroke="#0c7f99" d="M147.89 67.982h11.927v11.926M159.817 67.982l5.963-5.964" stroke-width="2"/><path fill="#ffbde0" stroke="#9e034e" d="M195.596 115.688v11.927h11.927l5.963-5.964v-11.926H201.56z" stroke-width="2"/><path fill="#ffbde0" stroke="#9e034e" d="M195.596 115.688h11.927v11.927M207.523 115.688l5.963-5.963M195.596 103.761v11.927h11.927l5.963-5.963V97.798H201.56z" stroke-width="2"/><path fill="#ffbde0" stroke="#9e034e" d="M195.596 103.761h11.927v11.927M207.523 103.761l5.963-5.963" stroke-width="2"/><path fill="#ffbde0" stroke="#9e034e" d="M195.596 91.835v11.926h11.927l5.963-5.963V85.872H201.56z" stroke-width="2"/><path fill="#ffbde0" stroke="#9e034e" d="M195.596 91.835h11.927v11.926M207.523 91.835l5.963-5.963" stroke-width="2"/><path fill="#ffbde0" stroke="#9e034e" d="M195.596 79.908v11.927h11.927l5.963-5.963V73.945H201.56z" stroke-width="2"/><path fill="#ffbde0" stroke="#9e034e" d="M195.596 79.908h11.927v11.927M207.523 79.908l5.963-5.963" stroke-width="2"/><path fill="#ffbde0" stroke="#9e034e" d="M195.596 67.982v11.926h11.927l5.963-5.963V62.018H201.56z" stroke-width="2"/><path fill="#ffbde0" stroke="#9e034e" d="M195.596 67.982h11.927v11.926M207.523 67.982l5.963-5.964" stroke-width="2"/><path fill="#ffbde0" stroke="#9e034e" d="M195.596 56.055v11.927h11.927l5.963-5.964V50.092H201.56z" stroke-width="2"/><path fill="#ffbde0" stroke="#9e034e" d="M195.596 56.055h11.927v11.927M207.523 56.055l5.963-5.963" stroke-width="2"/><path fill="#ffbde0" stroke="#9e034e" d="M195.596 44.128v11.927h11.927l5.963-5.963V38.165H201.56z" stroke-width="2"/><path fill="#ffbde0" stroke="#9e034e" d="M195.596 44.128h11.927v11.927M207.523 44.128l5.963-5.963" stroke-width="2"/><path fill="#ffbde0" stroke="#9e034e" d="M195.596 32.202v11.926h11.927l5.963-5.963V26.238H201.56z" stroke-width="2"/><path fill="#ffbde0" stroke="#9e034e" d="M195.596 32.202h11.927v11.926M207.523 32.202l5.963-5.963" stroke-width="2"/><path fill="#ffbde0" stroke="#9e034e" d="M195.596 20.275v11.927h11.927l5.963-5.963V14.311H201.56z" stroke-width="2"/><path fill="#ffbde0" stroke="#9e034e" d="M195.596 20.275h11.927v11.927M207.523 20.275l5.963-5.963" stroke-width="2"/><path fill="#ffbde0" stroke="#9e034e" d="M195.596 8.349v11.926h11.927l5.963-5.963V2.385H201.56z" stroke-width="2"/><path fill="#ffbde0" stroke="#9e034e" d="M195.596 8.349h11.927v11.926M207.523 8.349l5.963-5.964M219.45 115.688v11.927h11.926l5.963-5.964v-11.926h-11.926z" stroke-width="2"/><path fill="#ffbde0" stroke="#9e034e" d="M219.45 115.688h11.926v11.927M231.376 115.688l5.963-5.963M219.45 91.835v11.926h11.926l5.963-5.963V85.872h-11.926z" stroke-width="2"/><path fill="#ffbde0" stroke="#9e034e" d="M219.45 91.835h11.926v11.926M231.376 91.835l5.963-5.963M219.45 67.982v11.926h11.926l5.963-5.963V62.018h-11.926z" stroke-width="2"/><path fill="#ffbde0" stroke="#9e034e" d="M219.45 67.982h11.926v11.926M231.376 67.982l5.963-5.964M219.45 44.128v11.927h11.926l5.963-5.963V38.165h-11.926z" stroke-width="2"/><path fill="#ffbde0" stroke="#9e034e" d="M219.45 44.128h11.926v11.927M231.376 44.128l5.963-5.963M219.45 20.275v11.927h11.926l5.963-5.963V14.311h-11.926z" stroke-width="2"/><path fill="#ffbde0" stroke="#9e034e" d="M219.45 20.275h11.926v11.927M231.376 20.275l5.963-5.963M243.303 115.688v11.927h11.926l5.964-5.964v-11.926h-11.927z" stroke-width="2"/><path fill="#ffbde0" stroke="#9e034e" d="M243.303 115.688h11.926v11.927M255.229 115.688l5.964-5.963M243.303 91.835v11.926h11.926l5.964-5.963V85.872h-11.927z" stroke-width="2"/><path fill="#ffbde0" stroke="#9e034e" d="M243.303 91.835h11.926v11.926M255.229 91.835l5.964-5.963M243.303 67.982v11.926h11.926l5.964-5.963V62.018h-11.927z" stroke-width="2"/><path fill="#ffbde0" stroke="#9e034e" d="M243.303 67.982h11.926v11.926M255.229 67.982l5.964-5.964" stroke-width="2"/><path fill="#ccfaff" stroke="#0c7f99" d="M291.009 115.688v11.927h11.927l5.963-5.964v-11.926h-11.927z" stroke-width="2"/><path fill="#ccfaff" stroke="#0c7f99" d="M291.009 115.688h11.927v11.927M302.936 115.688l5.963-5.963M291.009 103.761v11.927h11.927l5.963-5.963V97.798h-11.927z" stroke-width="2"/><path fill="#ccfaff" stroke="#0c7f99" d="M291.009 103.761h11.927v11.927M302.936 103.761l5.963-5.963" stroke-width="2"/><path fill="#ccfaff" stroke="#0c7f99" d="M291.009 91.835v11.926h11.927l5.963-5.963V85.872h-11.927z" stroke-width="2"/><path fill="#ccfaff" stroke="#0c7f99" d="M291.009 91.835h11.927v11.926M302.936 91.835l5.963-5.963" stroke-width="2"/><path fill="#ccfaff" stroke="#0c7f99" d="M291.009 79.908v11.927h11.927l5.963-5.963V73.945h-11.927z" stroke-width="2"/><path fill="#ccfaff" stroke="#0c7f99" d="M291.009 79.908h11.927v11.927M302.936 79.908l5.963-5.963" stroke-width="2"/><path fill="#ccfaff" stroke="#0c7f99" d="M291.009 67.982v11.926h11.927l5.963-5.963V62.018h-11.927z" stroke-width="2"/><path fill="#ccfaff" stroke="#0c7f99" d="M291.009 67.982h11.927v11.926M302.936 67.982l5.963-5.964" stroke-width="2"/><path fill="#ccfaff" stroke="#0c7f99" d="M291.009 56.055v11.927h11.927l5.963-5.964V50.092h-11.927z" stroke-width="2"/><path fill="#ccfaff" stroke="#0c7f99" d="M291.009 56.055h11.927v11.927M302.936 56.055l5.963-5.963" stroke-width="2"/><path fill="#ccfaff" stroke="#0c7f99" d="M291.009 44.128v11.927h11.927l5.963-5.963V38.165h-11.927z" stroke-width="2"/><path fill="#ccfaff" stroke="#0c7f99" d="M291.009 44.128h11.927v11.927M302.936 44.128l5.963-5.963" stroke-width="2"/><path fill="#ccfaff" stroke="#0c7f99" d="M291.009 32.202v11.926h11.927l5.963-5.963V26.238h-11.927z" stroke-width="2"/><path fill="#ccfaff" stroke="#0c7f99" d="M291.009 32.202h11.927v11.926M302.936 32.202l5.963-5.963" stroke-width="2"/><path fill="#ccfaff" stroke="#0c7f99" d="M291.009 20.275v11.927h11.927l5.963-5.963V14.311h-11.927z" stroke-width="2"/><path fill="#ccfaff" stroke="#0c7f99" d="M291.009 20.275h11.927v11.927M302.936 20.275l5.963-5.963" stroke-width="2"/><path fill="#ccfaff" stroke="#0c7f99" d="M291.009 8.349v11.926h11.927l5.963-5.963V2.385h-11.927z" stroke-width="2"/><path fill="#ccfaff" stroke="#0c7f99" d="M291.009 8.349h11.927v11.926M302.936 8.349l5.963-5.964M314.862 115.688v11.927h11.927l5.963-5.964v-11.926h-11.926z" stroke-width="2"/><path fill="#ccfaff" stroke="#0c7f99" d="M314.862 115.688h11.927v11.927M326.789 115.688l5.963-5.963M314.862 103.761v11.927h11.927l5.963-5.963V97.798h-11.926z" stroke-width="2"/><path fill="#ccfaff" stroke="#0c7f99" d="M314.862 103.761h11.927v11.927M326.789 103.761l5.963-5.963" stroke-width="2"/><path fill="#ccfaff" stroke="#0c7f99" d="M314.862 91.835v11.926h11.927l5.963-5.963V85.872h-11.926z" stroke-width="2"/><path fill="#ccfaff" stroke="#0c7f99" d="M314.862 91.835h11.927v11.926M326.789 91.835l5.963-5.963" stroke-width="2"/><path fill="#ccfaff" stroke="#0c7f99" d="M314.862 79.908v11.927h11.927l5.963-5.963V73.945h-11.926z" stroke-width="2"/><path fill="#ccfaff" stroke="#0c7f99" d="M314.862 79.908h11.927v11.927M326.789 79.908l5.963-5.963" stroke-width="2"/><path fill="#ccfaff" stroke="#0c7f99" d="M314.862 67.982v11.926h11.927l5.963-5.963V62.018h-11.926z" stroke-width="2"/><path fill="#ccfaff" stroke="#0c7f99" d="M314.862 67.982h11.927v11.926M326.789 67.982l5.963-5.964" stroke-width="2"/><path fill="#ccfaff" stroke="#0c7f99" d="M314.862 56.055v11.927h11.927l5.963-5.964V50.092h-11.926z" stroke-width="2"/><path fill="#ccfaff" stroke="#0c7f99" d="M314.862 56.055h11.927v11.927M326.789 56.055l5.963-5.963" stroke-width="2"/><path fill="#ccfaff" stroke="#0c7f99" d="M314.862 44.128v11.927h11.927l5.963-5.963V38.165h-11.926z" stroke-width="2"/><path fill="#ccfaff" stroke="#0c7f99" d="M314.862 44.128h11.927v11.927M326.789 44.128l5.963-5.963" stroke-width="2"/><path fill="#ccfaff" stroke="#0c7f99" d="M314.862 32.202v11.926h11.927l5.963-5.963V26.238h-11.926z" stroke-width="2"/><path fill="#ccfaff" stroke="#0c7f99" d="M314.862 32.202h11.927v11.926M326.789 32.202l5.963-5.963" stroke-width="2"/><path fill="#ccfaff" stroke="#0c7f99" d="M314.862 20.275v11.927h11.927l5.963-5.963V14.311h-11.926z" stroke-width="2"/><path fill="#ccfaff" stroke="#0c7f99" d="M314.862 20.275h11.927v11.927M326.789 20.275l5.963-5.963" stroke-width="2"/><path fill="#ccfaff" stroke="#0c7f99" d="M314.862 8.349v11.926h11.927l5.963-5.963V2.385h-11.926z" stroke-width="2"/><path fill="#ccfaff" stroke="#0c7f99" d="M314.862 8.349h11.927v11.926M326.789 8.349l5.963-5.964M338.716 115.688v11.927h11.926l5.964-5.964v-11.926h-11.927z" stroke-width="2"/><path fill="#ccfaff" stroke="#0c7f99" d="M338.716 115.688h11.926v11.927M350.642 115.688l5.964-5.963M338.716 103.761v11.927h11.926l5.964-5.963V97.798h-11.927z" stroke-width="2"/><path fill="#ccfaff" stroke="#0c7f99" d="M338.716 103.761h11.926v11.927M350.642 103.761l5.964-5.963" stroke-width="2"/><path fill="#ccfaff" stroke="#0c7f99" d="M338.716 91.835v11.926h11.926l5.964-5.963V85.872h-11.927z" stroke-width="2"/><path fill="#ccfaff" stroke="#0c7f99" d="M338.716 91.835h11.926v11.926M350.642 91.835l5.964-5.963" stroke-width="2"/><path fill="#ccfaff" stroke="#0c7f99" d="M338.716 79.908v11.927h11.926l5.964-5.963V73.945h-11.927z" stroke-width="2"/><path fill="#ccfaff" stroke="#0c7f99" d="M338.716 79.908h11.926v11.927M350.642 79.908l5.964-5.963" stroke-width="2"/><path fill="#ccfaff" stroke="#0c7f99" d="M338.716 67.982v11.926h11.926l5.964-5.963V62.018h-11.927z" stroke-width="2"/><path fill="#ccfaff" stroke="#0c7f99" d="M338.716 67.982h11.926v11.926M350.642 67.982l5.964-5.964" stroke-width="2"/><path fill="#ccfaff" stroke="#0c7f99" d="M338.716 56.055v11.927h11.926l5.964-5.964V50.092h-11.927z" stroke-width="2"/><path fill="#ccfaff" stroke="#0c7f99" d="M338.716 56.055h11.926v11.927M350.642 56.055l5.964-5.963" stroke-width="2"/><path fill="#ccfaff" stroke="#0c7f99" d="M338.716 44.128v11.927h11.926l5.964-5.963V38.165h-11.927z" stroke-width="2"/><path fill="#ccfaff" stroke="#0c7f99" d="M338.716 44.128h11.926v11.927M350.642 44.128l5.964-5.963" stroke-width="2"/><path fill="#ccfaff" stroke="#0c7f99" d="M338.716 32.202v11.926h11.926l5.964-5.963V26.238h-11.927z" stroke-width="2"/><path fill="#ccfaff" stroke="#0c7f99" d="M338.716 32.202h11.926v11.926M350.642 32.202l5.964-5.963" stroke-width="2"/><path fill="#ccfaff" stroke="#0c7f99" d="M338.716 20.275v11.927h11.926l5.964-5.963V14.311h-11.927z" stroke-width="2"/><path fill="#ccfaff" stroke="#0c7f99" d="M338.716 20.275h11.926v11.927M350.642 20.275l5.964-5.963" stroke-width="2"/><path fill="#ccfaff" stroke="#0c7f99" d="M338.716 8.349v11.926h11.926l5.964-5.963V2.385h-11.927z" stroke-width="2"/><path fill="#ccfaff" stroke="#0c7f99" d="M338.716 8.349h11.926v11.926M350.642 8.349l5.964-5.964M362.569 115.688v11.927h11.926l5.964-5.964v-11.926h-11.927z" stroke-width="2"/><path fill="#ccfaff" stroke="#0c7f99" d="M362.569 115.688h11.926v11.927M374.495 115.688l5.964-5.963M362.569 103.761v11.927h11.926l5.964-5.963V97.798h-11.927z" stroke-width="2"/><path fill="#ccfaff" stroke="#0c7f99" d="M362.569 103.761h11.926v11.927M374.495 103.761l5.964-5.963" stroke-width="2"/><path fill="#ccfaff" stroke="#0c7f99" d="M362.569 91.835v11.926h11.926l5.964-5.963V85.872h-11.927z" stroke-width="2"/><path fill="#ccfaff" stroke="#0c7f99" d="M362.569 91.835h11.926v11.926M374.495 91.835l5.964-5.963" stroke-width="2"/><path fill="#ccfaff" stroke="#0c7f99" d="M362.569 79.908v11.927h11.926l5.964-5.963V73.945h-11.927z" stroke-width="2"/><path fill="#ccfaff" stroke="#0c7f99" d="M362.569 79.908h11.926v11.927M374.495 79.908l5.964-5.963" stroke-width="2"/><path fill="#ccfaff" stroke="#0c7f99" d="M362.569 67.982v11.926h11.926l5.964-5.963V62.018h-11.927z" stroke-width="2"/><path fill="#ccfaff" stroke="#0c7f99" d="M362.569 67.982h11.926v11.926M374.495 67.982l5.964-5.964" stroke-width="2"/><path fill="#ccfaff" stroke="#0c7f99" d="M362.569 56.055v11.927h11.926l5.964-5.964V50.092h-11.927z" stroke-width="2"/><path fill="#ccfaff" stroke="#0c7f99" d="M362.569 56.055h11.926v11.927M374.495 56.055l5.964-5.963" stroke-width="2"/><path fill="#ccfaff" stroke="#0c7f99" d="M362.569 44.128v11.927h11.926l5.964-5.963V38.165h-11.927z" stroke-width="2"/><path fill="#ccfaff" stroke="#0c7f99" d="M362.569 44.128h11.926v11.927M374.495 44.128l5.964-5.963" stroke-width="2"/><path fill="#ccfaff" stroke="#0c7f99" d="M362.569 32.202v11.926h11.926l5.964-5.963V26.238h-11.927z" stroke-width="2"/><path fill="#ccfaff" stroke="#0c7f99" d="M362.569 32.202h11.926v11.926M374.495 32.202l5.964-5.963" stroke-width="2"/><path fill="#ccfaff" stroke="#0c7f99" d="M362.569 20.275v11.927h11.926l5.964-5.963V14.311h-11.927z" stroke-width="2"/><path fill="#ccfaff" stroke="#0c7f99" d="M362.569 20.275h11.926v11.927M374.495 20.275l5.964-5.963" stroke-width="2"/><path fill="#ccfaff" stroke="#0c7f99" d="M362.569 8.349v11.926h11.926l5.964-5.963V2.385h-11.927z" stroke-width="2"/><path fill="#ccfaff" stroke="#0c7f99" d="M362.569 8.349h11.926v11.926M374.495 8.349l5.964-5.964M386.422 115.688v11.927h11.927l5.963-5.964v-11.926h-11.927z" stroke-width="2"/><path fill="#ccfaff" stroke="#0c7f99" d="M386.422 115.688h11.927v11.927M398.349 115.688l5.963-5.963M386.422 91.835v11.926h11.927l5.963-5.963V85.872h-11.927z" stroke-width="2"/><path fill="#ccfaff" stroke="#0c7f99" d="M386.422 91.835h11.927v11.926M398.349 91.835l5.963-5.963M386.422 67.982v11.926h11.927l5.963-5.963V62.018h-11.927z" stroke-width="2"/><path fill="#ccfaff" stroke="#0c7f99" d="M386.422 67.982h11.927v11.926M398.349 67.982l5.963-5.964M386.422 44.128v11.927h11.927l5.963-5.963V38.165h-11.927z" stroke-width="2"/><path fill="#ccfaff" stroke="#0c7f99" d="M386.422 44.128h11.927v11.927M398.349 44.128l5.963-5.963M386.422 20.275v11.927h11.927l5.963-5.963V14.311h-11.927z" stroke-width="2"/><path fill="#ccfaff" stroke="#0c7f99" d="M386.422 20.275h11.927v11.927M398.349 20.275l5.963-5.963" stroke-width="2"/></svg>
