<svg xmlns="http://www.w3.org/2000/svg" width="400" height="240" viewBox="0 0 400 240"><path fill="none" stroke="#000" d="M133.333 0v240M266.667 0v240M0 37.333h400" stroke-width="2"/><path fill="#ffbde0" stroke="#ca337c" d="M5.333 224v5.333h5.334l2.666-2.666v-5.334H8z" stroke-width="2"/><path fill="#ffbde0" stroke="#ca337c" d="M5.333 224h5.334v5.333M10.667 224l2.666-2.667" stroke-width="2"/><path fill="#ffbde0" stroke="#ca337c" d="M5.333 218.667V224h5.334l2.666-2.667V216H8z" stroke-width="2"/><path fill="#ffbde0" stroke="#ca337c" d="M5.333 218.667h5.334V224M10.667 218.667L13.333 216" stroke-width="2"/><path fill="#ffbde0" stroke="#ca337c" d="M5.333 213.333v5.334h5.334L13.333 216v-5.333H8z" stroke-width="2"/><path fill="#ffbde0" stroke="#ca337c" d="M5.333 213.333h5.334v5.334M10.667 213.333l2.666-2.666" stroke-width="2"/><path fill="#ffbde0" stroke="#ca337c" d="M5.333 208v5.333h5.334l2.666-2.666v-5.334H8z" stroke-width="2"/><path fill="#ffbde0" stroke="#ca337c" d="M5.333 208h5.334v5.333M10.667 208l2.666-2.667" stroke-width="2"/><path fill="#ffbde0" stroke="#ca337c" d="M5.333 202.667V208h5.334l2.666-2.667V200H8z" stroke-width="2"/><path fill="#ffbde0" stroke="#ca337c" d="M5.333 202.667h5.334V208M10.667 202.667L13.333 200" stroke-width="2"/><path fill="#ffbde0" stroke="#ca337c" d="M5.333 197.333v5.334h5.334L13.333 200v-5.333H8z" stroke-width="2"/><path fill="#ffbde0" stroke="#ca337c" d="M5.333 197.333h5.334v5.334M10.667 197.333l2.666-2.666" stroke-width="2"/><path fill="#ffbde0" stroke="#ca337c" d="M5.333 192v5.333h5.334l2.666-2.666v-5.334H8z" stroke-width="2"/><path fill="#ffbde0" stroke="#ca337c" d="M5.333 192h5.334v5.333M10.667 192l2.666-2.667" stroke-width="2"/><path fill="#ffbde0" stroke="#ca337c" d="M5.333 186.667V192h5.334l2.666-2.667V184H8z" stroke-width="2"/><path fill="#ffbde0" stroke="#ca337c" d="M5.333 186.667h5.334V192M10.667 186.667L13.333 184" stroke-width="2"/><path fill="#ffbde0" stroke="#ca337c" d="M5.333 181.333v5.334h5.334L13.333 184v-5.333H8z" stroke-width="2"/><path fill="#ffbde0" stroke="#ca337c" d="M5.333 181.333h5.334v5.334M10.667 181.333l2.666-2.666" stroke-width="2"/><path fill="#ffbde0" stroke="#ca337c" d="M5.333 176v5.333h5.334l2.666-2.666v-5.334H8z" stroke-width="2"/><path fill="#ffbde0" stroke="#ca337c" d="M5.333 176h5.334v5.333M10.667 176l2.666-2.667M10.667 224v5.333H16l2.667-2.666v-5.334h-5.334z" stroke-width="2"/><path fill="#ffbde0" stroke="#ca337c" d="M10.667 224H16v5.333M16 224l2.667-2.667" stroke-width="2"/><path fill="#ffbde0" stroke="#ca337c" d="M10.667 218.667V224H16l2.667-2.667V216h-5.334z" stroke-width="2"/><path fill="#ffbde0" stroke="#ca337c" d="M10.667 218.667H16V224M16 218.667L18.667 216" stroke-width="2"/><path fill="#ffbde0" stroke="#ca337c" d="M10.667 213.333v5.334H16L18.667 216v-5.333h-5.334z" stroke-width="2"/><path fill="#ffbde0" stroke="#ca337c" d="M10.667 213.333H16v5.334M16 213.333l2.667-2.666" stroke-width="2"/><path fill="#ffbde0" stroke="#ca337c" d="M10.667 208v5.333H16l2.667-2.666v-5.334h-5.334z" stroke-width="2"/><path fill="#ffbde0" stroke="#ca337c" d="M10.667 208H16v5.333M16 208l2.667-2.667" stroke-width="2"/><path fill="#ffbde0" stroke="#ca337c" d="M10.667 202.667V208H16l2.667-2.667V200h-5.334z" stroke-width="2"/><path fill="#ffbde0" stroke="#ca337c" d="M10.667 202.667H16V208M16 202.667L18.667 200" stroke-width="2"/><path fill="#ffbde0" stroke="#ca337c" d="M10.667 197.333v5.334H16L18.667 200v-5.333h-5.334z" stroke-width="2"/><path fill="#ffbde0" stroke="#ca337c" d="M10.667 197.333H16v5.334M16 197.333l2.667-2.666" stroke-width="2"/><path fill="#ffbde0" stroke="#ca337c" d="M10.667 192v5.333H16l2.667-2.666v-5.334h-5.334z" stroke-width="2"/><path fill="#ffbde0" stroke="#ca337c" d="M10.667 192H16v5.333M16 192l2.667-2.667" stroke-width="2"/><path fill="#ffbde0" stroke="#ca337c" d="M10.667 186.667V192H16l2.667-2.667V184h-5.334z" stroke-width="2"/><path fill="#ffbde0" stroke="#ca337c" d="M10.667 186.667H16V192M16 186.667L18.667 184" stroke-width="2"/><path fill="#ffbde0" stroke="#ca337c" d="M10.667 181.333v5.334H16L18.667 184v-5.333h-5.334z" stroke-width="2"/><path fill="#ffbde0" stroke="#ca337c" d="M10.667 181.333H16v5.334M16 181.333l2.667-2.666" stroke-width="2"/><path fill="#ffbde0" stroke="#ca337c" d="M10.667 176v5.333H16l2.667-2.666v-5.334h-5.334z" stroke-width="2"/><path fill="#ffbde0" stroke="#ca337c" d="M10.667 176H16v5.333M16 176l2.667-2.667M16 224v5.333h5.333L24 226.667v-5.334h-5.333z" stroke-width="2"/><path fill="#ffbde0" stroke="#ca337c" d="M16 224h5.333v5.333M21.333 224L24 221.333" stroke-width="2"/><path fill="#ffbde0" stroke="#ca337c" d="M16 218.667V224h5.333L24 221.333V216h-5.333z" stroke-width="2"/><path fill="#ffbde0" stroke="#ca337c" d="M16 218.667h5.333V224M21.333 218.667L24 216" stroke-width="2"/><path fill="#ffbde0" stroke="#ca337c" d="M16 213.333v5.334h5.333L24 216v-5.333h-5.333z" stroke-width="2"/><path fill="#ffbde0" stroke="#ca337c" d="M16 213.333h5.333v5.334M21.333 213.333L24 210.667" stroke-width="2"/><path fill="#ffbde0" stroke="#ca337c" d="M16 208v5.333h5.333L24 210.667v-5.334h-5.333z" stroke-width="2"/><path fill="#ffbde0" stroke="#ca337c" d="M16 208h5.333v5.333M21.333 208L24 205.333" stroke-width="2"/><path fill="#ffbde0" stroke="#ca337c" d="M16 202.667V208h5.333L24 205.333V200h-5.333z" stroke-width="2"/><path fill="#ffbde0" stroke="#ca337c" d="M16 202.667h5.333V208M21.333 202.667L24 200" stroke-width="2"/><path fill="#ffbde0" stroke="#ca337c" d="M16 197.333v5.334h5.333L24 200v-5.333h-5.333z" stroke-width="2"/><path fill="#ffbde0" stroke="#ca337c" d="M16 197.333h5.333v5.334M21.333 197.333L24 194.667" stroke-width="2"/><path fill="#ffbde0" stroke="#ca337c" d="M16 192v5.333h5.333L24 194.667v-5.334h-5.333z" stroke-width="2"/><path fill="#ffbde0" stroke="#ca337c" d="M16 192h5.333v5.333M21.333 192L24 189.333" stroke-width="2"/><path fill="#ffbde0" stroke="#ca337c" d="M16 186.667V192h5.333L24 189.333V184h-5.333z" stroke-width="2"/><path fill="#ffbde0" stroke="#ca337c" d="M16 186.667h5.333V192M21.333 186.667L24 184" stroke-width="2"/><path fill="#ffbde0" stroke="#ca337c" d="M16 181.333v5.334h5.333L24 184v-5.333h-5.333z" stroke-width="2"/><path fill="#ffbde0" stroke="#ca337c" d="M16 181.333h5.333v5.334M21.333 181.333L24 178.667" stroke-width="2"/><path fill="#ffbde0" stroke="#ca337c" d="M16 176v5.333h5.333L24 178.667v-5.334h-5.333z" stroke-width="2"/><path fill="#ffbde0" stroke="#ca337c" d="M16 176h5.333v5.333M21.333 176L24 173.333M21.333 224v5.333h5.334l2.666-2.666v-5.334H24z" stroke-width="2"/><path fill="#ffbde0" stroke="#ca337c" d="M21.333 224h5.334v5.333M26.667 224l2.666-2.667" stroke-width="2"/><path fill="#ffbde0" stroke="#ca337c" d="M21.333 218.667V224h5.334l2.666-2.667V216H24z" stroke-width="2"/><path fill="#ffbde0" stroke="#ca337c" d="M21.333 218.667h5.334V224M26.667 218.667L29.333 216" stroke-width="2"/><path fill="#ffbde0" stroke="#ca337c" d="M21.333 213.333v5.334h5.334L29.333 216v-5.333H24z" stroke-width="2"/><path fill="#ffbde0" stroke="#ca337c" d="M21.333 213.333h5.334v5.334M26.667 213.333l2.666-2.666" stroke-width="2"/><path fill="#ffbde0" stroke="#ca337c" d="M21.333 208v5.333h5.334l2.666-2.666v-5.334H24z" stroke-width="2"/><path fill="#ffbde0" stroke="#ca337c" d="M21.333 208h5.334v5.333M26.667 208l2.666-2.667" stroke-width="2"/><path fill="#ffbde0" stroke="#ca337c" d="M21.333 202.667V208h5.334l2.666-2.667V200H24z" stroke-width="2"/><path fill="#ffbde0" stroke="#ca337c" d="M21.333 202.667h5.334V208M26.667 202.667L29.333 200" stroke-width="2"/><path fill="#ffbde0" stroke="#ca337c" d="M21.333 197.333v5.334h5.334L29.333 200v-5.333H24z" stroke-width="2"/><path fill="#ffbde0" stroke="#ca337c" d="M21.333 197.333h5.334v5.334M26.667 197.333l2.666-2.666" stroke-width="2"/><path fill="#ffbde0" stroke="#ca337c" d="M21.333 192v5.333h5.334l2.666-2.666v-5.334H24z" stroke-width="2"/><path fill="#ffbde0" stroke="#ca337c" d="M21.333 192h5.334v5.333M26.667 192l2.666-2.667" stroke-width="2"/><path fill="#ffbde0" stroke="#ca337c" d="M21.333 186.667V192h5.334l2.666-2.667V184H24z" stroke-width="2"/><path fill="#ffbde0" stroke="#ca337c" d="M21.333 186.667h5.334V192M26.667 186.667L29.333 184" stroke-width="2"/><path fill="#ffbde0" stroke="#ca337c" d="M21.333 181.333v5.334h5.334L29.333 184v-5.333H24z" stroke-width="2"/><path fill="#ffbde0" stroke="#ca337c" d="M21.333 181.333h5.334v5.334M26.667 181.333l2.666-2.666" stroke-width="2"/><path fill="#ffbde0" stroke="#ca337c" d="M21.333 176v5.333h5.334l2.666-2.666v-5.334H24z" stroke-width="2"/><path fill="#ffbde0" stroke="#ca337c" d="M21.333 176h5.334v5.333M26.667 176l2.666-2.667M26.667 224v5.333H32l2.667-2.666v-5.334h-5.334z" stroke-width="2"/><path fill="#ffbde0" stroke="#ca337c" d="M26.667 224H32v5.333M32 224l2.667-2.667" stroke-width="2"/><path fill="#ffbde0" stroke="#ca337c" d="M26.667 218.667V224H32l2.667-2.667V216h-5.334z" stroke-width="2"/><path fill="#ffbde0" stroke="#ca337c" d="M26.667 218.667H32V224M32 218.667L34.667 216" stroke-width="2"/><path fill="#ffbde0" stroke="#ca337c" d="M26.667 213.333v5.334H32L34.667 216v-5.333h-5.334z" stroke-width="2"/><path fill="#ffbde0" stroke="#ca337c" d="M26.667 213.333H32v5.334M32 213.333l2.667-2.666" stroke-width="2"/><path fill="#ffbde0" stroke="#ca337c" d="M26.667 208v5.333H32l2.667-2.666v-5.334h-5.334z" stroke-width="2"/><path fill="#ffbde0" stroke="#ca337c" d="M26.667 208H32v5.333M32 208l2.667-2.667" stroke-width="2"/><path fill="#ffbde0" stroke="#ca337c" d="M26.667 202.667V208H32l2.667-2.667V200h-5.334z" stroke-width="2"/><path fill="#ffbde0" stroke="#ca337c" d="M26.667 202.667H32V208M32 202.667L34.667 200" stroke-width="2"/><path fill="#ffbde0" stroke="#ca337c" d="M26.667 197.333v5.334H32L34.667 200v-5.333h-5.334z" stroke-width="2"/><path fill="#ffbde0" stroke="#ca337c" d="M26.667 197.333H32v5.334M32 197.333l2.667-2.666" stroke-width="2"/><path fill="#ffbde0" stroke="#ca337c" d="M26.667 192v5.333H32l2.667-2.666v-5.334h-5.334z" stroke-width="2"/><path fill="#ffbde0" stroke="#ca337c" d="M26.667 192H32v5.333M32 192l2.667-2.667" stroke-width="2"/><path fill="#ffbde0" stroke="#ca337c" d="M26.667 186.667V192H32l2.667-2.667V184h-5.334z" stroke-width="2"/><path fill="#ffbde0" stroke="#ca337c" d="M26.667 186.667H32V192M32 186.667L34.667 184" stroke-width="2"/><path fill="#ffbde0" stroke="#ca337c" d="M26.667 181.333v5.334H32L34.667 184v-5.333h-5.334z" stroke-width="2"/><path fill="#ffbde0" stroke="#ca337c" d="M26.667 181.333H32v5.334M32 181.333l2.667-2.666" stroke-width="2"/><path fill="#ffbde0" stroke="#ca337c" d="M26.667 176v5.333H32l2.667-2.666v-5.334h-5.334z" stroke-width="2"/><path fill="#ffbde0" stroke="#ca337c" d="M26.667 176H32v5.333M32 176l2.667-2.667M32 224v5.333h5.333L40 226.667v-5.334h-5.333z" stroke-width="2"/><path fill="#ffbde0" stroke="#ca337c" d="M32 224h5.333v5.333M37.333 224L40 221.333" stroke-width="2"/><path fill="#ffbde0" stroke="#ca337c" d="M32 218.667V224h5.333L40 221.333V216h-5.333z" stroke-width="2"/><path fill="#ffbde0" stroke="#ca337c" d="M32 218.667h5.333V224M37.333 218.667L40 216" stroke-width="2"/><path fill="#ffbde0" stroke="#ca337c" d="M32 213.333v5.334h5.333L40 216v-5.333h-5.333z" stroke-width="2"/><path fill="#ffbde0" stroke="#ca337c" d="M32 213.333h5.333v5.334M37.333 213.333L40 210.667" stroke-width="2"/><path fill="#ffbde0" stroke="#ca337c" d="M32 208v5.333h5.333L40 210.667v-5.334h-5.333z" stroke-width="2"/><path fill="#ffbde0" stroke="#ca337c" d="M32 208h5.333v5.333M37.333 208L40 205.333" stroke-width="2"/><path fill="#ffbde0" stroke="#ca337c" d="M32 202.667V208h5.333L40 205.333V200h-5.333z" stroke-width="2"/><path fill="#ffbde0" stroke="#ca337c" d="M32 202.667h5.333V208M37.333 202.667L40 200" stroke-width="2"/><path fill="#ffbde0" stroke="#ca337c" d="M32 197.333v5.334h5.333L40 200v-5.333h-5.333z" stroke-width="2"/><path fill="#ffbde0" stroke="#ca337c" d="M32 197.333h5.333v5.334M37.333 197.333L40 194.667" stroke-width="2"/><path fill="#ffbde0" stroke="#ca337c" d="M32 192v5.333h5.333L40 194.667v-5.334h-5.333z" stroke-width="2"/><path fill="#ffbde0" stroke="#ca337c" d="M32 192h5.333v5.333M37.333 192L40 189.333" stroke-width="2"/><path fill="#ffbde0" stroke="#ca337c" d="M32 186.667V192h5.333L40 189.333V184h-5.333z" stroke-width="2"/><path fill="#ffbde0" stroke="#ca337c" d="M32 186.667h5.333V192M37.333 186.667L40 184" stroke-width="2"/><path fill="#ffbde0" stroke="#ca337c" d="M32 181.333v5.334h5.333L40 184v-5.333h-5.333z" stroke-width="2"/><path fill="#ffbde0" stroke="#ca337c" d="M32 181.333h5.333v5.334M37.333 181.333L40 178.667" stroke-width="2"/><path fill="#ffbde0" stroke="#ca337c" d="M32 176v5.333h5.333L40 178.667v-5.334h-5.333z" stroke-width="2"/><path fill="#ffbde0" stroke="#ca337c" d="M32 176h5.333v5.333M37.333 176L40 173.333M37.333 224v5.333h5.334l2.666-2.666v-5.334H40z" stroke-width="2"/><path fill="#ffbde0" stroke="#ca337c" d="M37.333 224h5.334v5.333M42.667 224l2.666-2.667" stroke-width="2"/><path fill="#ffbde0" stroke="#ca337c" d="M37.333 218.667V224h5.334l2.666-2.667V216H40z" stroke-width="2"/><path fill="#ffbde0" stroke="#ca337c" d="M37.333 218.667h5.334V224M42.667 218.667L45.333 216" stroke-width="2"/><path fill="#ffbde0" stroke="#ca337c" d="M37.333 213.333v5.334h5.334L45.333 216v-5.333H40z" stroke-width="2"/><path fill="#ffbde0" stroke="#ca337c" d="M37.333 213.333h5.334v5.334M42.667 213.333l2.666-2.666" stroke-width="2"/><path fill="#ffbde0" stroke="#ca337c" d="M37.333 208v5.333h5.334l2.666-2.666v-5.334H40z" stroke-width="2"/><path fill="#ffbde0" stroke="#ca337c" d="M37.333 208h5.334v5.333M42.667 208l2.666-2.667" stroke-width="2"/><path fill="#ffbde0" stroke="#ca337c" d="M37.333 202.667V208h5.334l2.666-2.667V200H40z" stroke-width="2"/><path fill="#ffbde0" stroke="#ca337c" d="M37.333 202.667h5.334V208M42.667 202.667L45.333 200" stroke-width="2"/><path fill="#ffbde0" stroke="#ca337c" d="M37.333 197.333v5.334h5.334L45.333 200v-5.333H40z" stroke-width="2"/><path fill="#ffbde0" stroke="#ca337c" d="M37.333 197.333h5.334v5.334M42.667 197.333l2.666-2.666" stroke-width="2"/><path fill="#ffbde0" stroke="#ca337c" d="M37.333 192v5.333h5.334l2.666-2.666v-5.334H40z" stroke-width="2"/><path fill="#ffbde0" stroke="#ca337c" d="M37.333 192h5.334v5.333M42.667 192l2.666-2.667" stroke-width="2"/><path fill="#ffbde0" stroke="#ca337c" d="M37.333 186.667V192h5.334l2.666-2.667V184H40z" stroke-width="2"/><path fill="#ffbde0" stroke="#ca337c" d="M37.333 186.667h5.334V192M42.667 186.667L45.333 184" stroke-width="2"/><path fill="#ffbde0" stroke="#ca337c" d="M37.333 181.333v5.334h5.334L45.333 184v-5.333H40z" stroke-width="2"/><path fill="#ffbde0" stroke="#ca337c" d="M37.333 181.333h5.334v5.334M42.667 181.333l2.666-2.666" stroke-width="2"/><path fill="#ffbde0" stroke="#ca337c" d="M37.333 176v5.333h5.334l2.666-2.666v-5.334H40z" stroke-width="2"/><path fill="#ffbde0" stroke="#ca337c" d="M37.333 176h5.334v5.333M42.667 176l2.666-2.667M42.667 224v5.333H48l2.667-2.666v-5.334h-5.334z" stroke-width="2"/><path fill="#ffbde0" stroke="#ca337c" d="M42.667 224H48v5.333M48 224l2.667-2.667" stroke-width="2"/><path fill="#ffbde0" stroke="#ca337c" d="M42.667 218.667V224H48l2.667-2.667V216h-5.334z" stroke-width="2"/><path fill="#ffbde0" stroke="#ca337c" d="M42.667 218.667H48V224M48 218.667L50.667 216" stroke-width="2"/><path fill="#ffbde0" stroke="#ca337c" d="M42.667 213.333v5.334H48L50.667 216v-5.333h-5.334z" stroke-width="2"/><path fill="#ffbde0" stroke="#ca337c" d="M42.667 213.333H48v5.334M48 213.333l2.667-2.666" stroke-width="2"/><path fill="#ffbde0" stroke="#ca337c" d="M42.667 208v5.333H48l2.667-2.666v-5.334h-5.334z" stroke-width="2"/><path fill="#ffbde0" stroke="#ca337c" d="M42.667 208H48v5.333M48 208l2.667-2.667" stroke-width="2"/><path fill="#ffbde0" stroke="#ca337c" d="M42.667 202.667V208H48l2.667-2.667V200h-5.334z" stroke-width="2"/><path fill="#ffbde0" stroke="#ca337c" d="M42.667 202.667H48V208M48 202.667L50.667 200" stroke-width="2"/><path fill="#ffbde0" stroke="#ca337c" d="M42.667 197.333v5.334H48L50.667 200v-5.333h-5.334z" stroke-width="2"/><path fill="#ffbde0" stroke="#ca337c" d="M42.667 197.333H48v5.334M48 197.333l2.667-2.666" stroke-width="2"/><path fill="#ffbde0" stroke="#ca337c" d="M42.667 192v5.333H48l2.667-2.666v-5.334h-5.334z" stroke-width="2"/><path fill="#ffbde0" stroke="#ca337c" d="M42.667 192H48v5.333M48 192l2.667-2.667" stroke-width="2"/><path fill="#ffbde0" stroke="#ca337c" d="M42.667 186.667V192H48l2.667-2.667V184h-5.334z" stroke-width="2"/><path fill="#ffbde0" stroke="#ca337c" d="M42.667 186.667H48V192M48 186.667L50.667 184" stroke-width="2"/><path fill="#ffbde0" stroke="#ca337c" d="M42.667 181.333v5.334H48L50.667 184v-5.333h-5.334z" stroke-width="2"/><path fill="#ffbde0" stroke="#ca337c" d="M42.667 181.333H48v5.334M48 181.333l2.667-2.666" stroke-width="2"/><path fill="#ffbde0" stroke="#ca337c" d="M42.667 176v5.333H48l2.667-2.666v-5.334h-5.334z" stroke-width="2"/><path fill="#ffbde0" stroke="#ca337c" d="M42.667 176H48v5.333M48 176l2.667-2.667M48 224v5.333h5.333L56 226.667v-5.334h-5.333z" stroke-width="2"/><path fill="#ffbde0" stroke="#ca337c" d="M48 224h5.333v5.333M53.333 224L56 221.333" stroke-width="2"/><path fill="#ffbde0" stroke="#ca337c" d="M48 218.667V224h5.333L56 221.333V216h-5.333z" stroke-width="2"/><path fill="#ffbde0" stroke="#ca337c" d="M48 218.667h5.333V224M53.333 218.667L56 216" stroke-width="2"/><path fill="#ffbde0" stroke="#ca337c" d="M48 213.333v5.334h5.333L56 216v-5.333h-5.333z" stroke-width="2"/><path fill="#ffbde0" stroke="#ca337c" d="M48 213.333h5.333v5.334M53.333 213.333L56 210.667" stroke-width="2"/><path fill="#ffbde0" stroke="#ca337c" d="M48 208v5.333h5.333L56 210.667v-5.334h-5.333z" stroke-width="2"/><path fill="#ffbde0" stroke="#ca337c" d="M48 208h5.333v5.333M53.333 208L56 205.333" stroke-width="2"/><path fill="#ffbde0" stroke="#ca337c" d="M48 202.667V208h5.333L56 205.333V200h-5.333z" stroke-width="2"/><path fill="#ffbde0" stroke="#ca337c" d="M48 202.667h5.333V208M53.333 202.667L56 200" stroke-width="2"/><path fill="#ffbde0" stroke="#ca337c" d="M48 197.333v5.334h5.333L56 200v-5.333h-5.333z" stroke-width="2"/><path fill="#ffbde0" stroke="#ca337c" d="M48 197.333h5.333v5.334M53.333 197.333L56 194.667" stroke-width="2"/><path fill="#ffbde0" stroke="#ca337c" d="M48 192v5.333h5.333L56 194.667v-5.334h-5.333z" stroke-width="2"/><path fill="#ffbde0" stroke="#ca337c" d="M48 192h5.333v5.333M53.333 192L56 189.333" stroke-width="2"/><path fill="#ffbde0" stroke="#ca337c" d="M48 186.667V192h5.333L56 189.333V184h-5.333z" stroke-width="2"/><path fill="#ffbde0" stroke="#ca337c" d="M48 186.667h5.333V192M53.333 186.667L56 184" stroke-width="2"/><path fill="#ffbde0" stroke="#ca337c" d="M48 181.333v5.334h5.333L56 184v-5.333h-5.333z" stroke-width="2"/><path fill="#ffbde0" stroke="#ca337c" d="M48 181.333h5.333v5.334M53.333 181.333L56 178.667" stroke-width="2"/><path fill="#ffbde0" stroke="#ca337c" d="M48 176v5.333h5.333L56 178.667v-5.334h-5.333z" stroke-width="2"/><path fill="#ffbde0" stroke="#ca337c" d="M48 176h5.333v5.333M53.333 176L56 173.333M53.333 224v5.333h5.334l2.666-2.666v-5.334H56z" stroke-width="2"/><path fill="#ffbde0" stroke="#ca337c" d="M53.333 224h5.334v5.333M58.667 224l2.666-2.667" stroke-width="2"/><path fill="#ffbde0" stroke="#ca337c" d="M53.333 218.667V224h5.334l2.666-2.667V216H56z" stroke-width="2"/><path fill="#ffbde0" stroke="#ca337c" d="M53.333 218.667h5.334V224M58.667 218.667L61.333 216" stroke-width="2"/><path fill="#ffbde0" stroke="#ca337c" d="M53.333 213.333v5.334h5.334L61.333 216v-5.333H56z" stroke-width="2"/><path fill="#ffbde0" stroke="#ca337c" d="M53.333 213.333h5.334v5.334M58.667 213.333l2.666-2.666" stroke-width="2"/><path fill="#ffbde0" stroke="#ca337c" d="M53.333 208v5.333h5.334l2.666-2.666v-5.334H56z" stroke-width="2"/><path fill="#ffbde0" stroke="#ca337c" d="M53.333 208h5.334v5.333M58.667 208l2.666-2.667" stroke-width="2"/><path fill="#ffbde0" stroke="#ca337c" d="M53.333 202.667V208h5.334l2.666-2.667V200H56z" stroke-width="2"/><path fill="#ffbde0" stroke="#ca337c" d="M53.333 202.667h5.334V208M58.667 202.667L61.333 200" stroke-width="2"/><path fill="#ffbde0" stroke="#ca337c" d="M53.333 197.333v5.334h5.334L61.333 200v-5.333H56z" stroke-width="2"/><path fill="#ffbde0" stroke="#ca337c" d="M53.333 197.333h5.334v5.334M58.667 197.333l2.666-2.666" stroke-width="2"/><path fill="#ffbde0" stroke="#ca337c" d="M53.333 192v5.333h5.334l2.666-2.666v-5.334H56z" stroke-width="2"/><path fill="#ffbde0" stroke="#ca337c" d="M53.333 192h5.334v5.333M58.667 192l2.666-2.667" stroke-width="2"/><path fill="#ffbde0" stroke="#ca337c" d="M53.333 186.667V192h5.334l2.666-2.667V184H56z" stroke-width="2"/><path fill="#ffbde0" stroke="#ca337c" d="M53.333 186.667h5.334V192M58.667 186.667L61.333 184" stroke-width="2"/><path fill="#ffbde0" stroke="#ca337c" d="M53.333 181.333v5.334h5.334L61.333 184v-5.333H56z" stroke-width="2"/><path fill="#ffbde0" stroke="#ca337c" d="M53.333 181.333h5.334v5.334M58.667 181.333l2.666-2.666" stroke-width="2"/><path fill="#ffbde0" stroke="#ca337c" d="M53.333 176v5.333h5.334l2.666-2.666v-5.334H56z" stroke-width="2"/><path fill="#ffbde0" stroke="#ca337c" d="M53.333 176h5.334v5.333M58.667 176l2.666-2.667M69.333 224v5.333h5.334l2.666-2.666v-5.334H72z" stroke-width="2"/><path fill="#ffbde0" stroke="#ca337c" d="M69.333 224h5.334v5.333M74.667 224l2.666-2.667" stroke-width="2"/><path fill="#ffbde0" stroke="#ca337c" d="M69.333 218.667V224h5.334l2.666-2.667V216H72z" stroke-width="2"/><path fill="#ffbde0" stroke="#ca337c" d="M69.333 218.667h5.334V224M74.667 218.667L77.333 216" stroke-width="2"/><path fill="#ffbde0" stroke="#ca337c" d="M69.333 213.333v5.334h5.334L77.333 216v-5.333H72z" stroke-width="2"/><path fill="#ffbde0" stroke="#ca337c" d="M69.333 213.333h5.334v5.334M74.667 213.333l2.666-2.666" stroke-width="2"/><path fill="#ffbde0" stroke="#ca337c" d="M69.333 208v5.333h5.334l2.666-2.666v-5.334H72z" stroke-width="2"/><path fill="#ffbde0" stroke="#ca337c" d="M69.333 208h5.334v5.333M74.667 208l2.666-2.667" stroke-width="2"/><path fill="#ffbde0" stroke="#ca337c" d="M69.333 202.667V208h5.334l2.666-2.667V200H72z" stroke-width="2"/><path fill="#ffbde0" stroke="#ca337c" d="M69.333 202.667h5.334V208M74.667 202.667L77.333 200" stroke-width="2"/><path fill="#ffbde0" stroke="#ca337c" d="M69.333 197.333v5.334h5.334L77.333 200v-5.333H72z" stroke-width="2"/><path fill="#ffbde0" stroke="#ca337c" d="M69.333 197.333h5.334v5.334M74.667 197.333l2.666-2.666" stroke-width="2"/><path fill="#ffbde0" stroke="#ca337c" d="M69.333 192v5.333h5.334l2.666-2.666v-5.334H72z" stroke-width="2"/><path fill="#ffbde0" stroke="#ca337c" d="M69.333 192h5.334v5.333M74.667 192l2.666-2.667" stroke-width="2"/><path fill="#ffbde0" stroke="#ca337c" d="M69.333 186.667V192h5.334l2.666-2.667V184H72z" stroke-width="2"/><path fill="#ffbde0" stroke="#ca337c" d="M69.333 186.667h5.334V192M74.667 186.667L77.333 184" stroke-width="2"/><path fill="#ffbde0" stroke="#ca337c" d="M69.333 181.333v5.334h5.334L77.333 184v-5.333H72z" stroke-width="2"/><path fill="#ffbde0" stroke="#ca337c" d="M69.333 181.333h5.334v5.334M74.667 181.333l2.666-2.666" stroke-width="2"/><path fill="#ffbde0" stroke="#ca337c" d="M69.333 176v5.333h5.334l2.666-2.666v-5.334H72z" stroke-width="2"/><path fill="#ffbde0" stroke="#ca337c" d="M69.333 176h5.334v5.333M74.667 176l2.666-2.667M74.667 224v5.333H80l2.667-2.666v-5.334h-5.334z" stroke-width="2"/><path fill="#ffbde0" stroke="#ca337c" d="M74.667 224H80v5.333M80 224l2.667-2.667" stroke-width="2"/><path fill="#ffbde0" stroke="#ca337c" d="M74.667 218.667V224H80l2.667-2.667V216h-5.334z" stroke-width="2"/><path fill="#ffbde0" stroke="#ca337c" d="M74.667 218.667H80V224M80 218.667L82.667 216" stroke-width="2"/><path fill="#ffbde0" stroke="#ca337c" d="M74.667 213.333v5.334H80L82.667 216v-5.333h-5.334z" stroke-width="2"/><path fill="#ffbde0" stroke="#ca337c" d="M74.667 213.333H80v5.334M80 213.333l2.667-2.666" stroke-width="2"/><path fill="#ffbde0" stroke="#ca337c" d="M74.667 208v5.333H80l2.667-2.666v-5.334h-5.334z" stroke-width="2"/><path fill="#ffbde0" stroke="#ca337c" d="M74.667 208H80v5.333M80 208l2.667-2.667" stroke-width="2"/><path fill="#ffbde0" stroke="#ca337c" d="M74.667 202.667V208H80l2.667-2.667V200h-5.334z" stroke-width="2"/><path fill="#ffbde0" stroke="#ca337c" d="M74.667 202.667H80V208M80 202.667L82.667 200" stroke-width="2"/><path fill="#ffbde0" stroke="#ca337c" d="M74.667 197.333v5.334H80L82.667 200v-5.333h-5.334z" stroke-width="2"/><path fill="#ffbde0" stroke="#ca337c" d="M74.667 197.333H80v5.334M80 197.333l2.667-2.666" stroke-width="2"/><path fill="#ffbde0" stroke="#ca337c" d="M74.667 192v5.333H80l2.667-2.666v-5.334h-5.334z" stroke-width="2"/><path fill="#ffbde0" stroke="#ca337c" d="M74.667 192H80v5.333M80 192l2.667-2.667" stroke-width="2"/><path fill="#ffbde0" stroke="#ca337c" d="M74.667 186.667V192H80l2.667-2.667V184h-5.334z" stroke-width="2"/><path fill="#ffbde0" stroke="#ca337c" d="M74.667 186.667H80V192M80 186.667L82.667 184" stroke-width="2"/><path fill="#ffbde0" stroke="#ca337c" d="M74.667 181.333v5.334H80L82.667 184v-5.333h-5.334z" stroke-width="2"/><path fill="#ffbde0" stroke="#ca337c" d="M74.667 181.333H80v5.334M80 181.333l2.667-2.666" stroke-width="2"/><path fill="#ffbde0" stroke="#ca337c" d="M74.667 176v5.333H80l2.667-2.666v-5.334h-5.334z" stroke-width="2"/><path fill="#ffbde0" stroke="#ca337c" d="M74.667 176H80v5.333M80 176l2.667-2.667M80 224v5.333h5.333L88 226.667v-5.334h-5.333z" stroke-width="2"/><path fill="#ffbde0" stroke="#ca337c" d="M80 224h5.333v5.333M85.333 224L88 221.333" stroke-width="2"/><path fill="#ffbde0" stroke="#ca337c" d="M80 218.667V224h5.333L88 221.333V216h-5.333z" stroke-width="2"/><path fill="#ffbde0" stroke="#ca337c" d="M80 218.667h5.333V224M85.333 218.667L88 216" stroke-width="2"/><path fill="#ffbde0" stroke="#ca337c" d="M80 213.333v5.334h5.333L88 216v-5.333h-5.333z" stroke-width="2"/><path fill="#ffbde0" stroke="#ca337c" d="M80 213.333h5.333v5.334M85.333 213.333L88 210.667" stroke-width="2"/><path fill="#ffbde0" stroke="#ca337c" d="M80 208v5.333h5.333L88 210.667v-5.334h-5.333z" stroke-width="2"/><path fill="#ffbde0" stroke="#ca337c" d="M80 208h5.333v5.333M85.333 208L88 205.333" stroke-width="2"/><path fill="#ffbde0" stroke="#ca337c" d="M80 202.667V208h5.333L88 205.333V200h-5.333z" stroke-width="2"/><path fill="#ffbde0" stroke="#ca337c" d="M80 202.667h5.333V208M85.333 202.667L88 200" stroke-width="2"/><path fill="#ffbde0" stroke="#ca337c" d="M80 197.333v5.334h5.333L88 200v-5.333h-5.333z" stroke-width="2"/><path fill="#ffbde0" stroke="#ca337c" d="M80 197.333h5.333v5.334M85.333 197.333L88 194.667" stroke-width="2"/><path fill="#ffbde0" stroke="#ca337c" d="M80 192v5.333h5.333L88 194.667v-5.334h-5.333z" stroke-width="2"/><path fill="#ffbde0" stroke="#ca337c" d="M80 192h5.333v5.333M85.333 192L88 189.333" stroke-width="2"/><path fill="#ffbde0" stroke="#ca337c" d="M80 186.667V192h5.333L88 189.333V184h-5.333z" stroke-width="2"/><path fill="#ffbde0" stroke="#ca337c" d="M80 186.667h5.333V192M85.333 186.667L88 184" stroke-width="2"/><path fill="#ffbde0" stroke="#ca337c" d="M80 181.333v5.334h5.333L88 184v-5.333h-5.333z" stroke-width="2"/><path fill="#ffbde0" stroke="#ca337c" d="M80 181.333h5.333v5.334M85.333 181.333L88 178.667" stroke-width="2"/><path fill="#ffbde0" stroke="#ca337c" d="M80 176v5.333h5.333L88 178.667v-5.334h-5.333z" stroke-width="2"/><path fill="#ffbde0" stroke="#ca337c" d="M80 176h5.333v5.333M85.333 176L88 173.333M85.333 224v5.333h5.334l2.666-2.666v-5.334H88z" stroke-width="2"/><path fill="#ffbde0" stroke="#ca337c" d="M85.333 224h5.334v5.333M90.667 224l2.666-2.667" stroke-width="2"/><path fill="#ffbde0" stroke="#ca337c" d="M85.333 218.667V224h5.334l2.666-2.667V216H88z" stroke-width="2"/><path fill="#ffbde0" stroke="#ca337c" d="M85.333 218.667h5.334V224M90.667 218.667L93.333 216" stroke-width="2"/><path fill="#ffbde0" stroke="#ca337c" d="M85.333 213.333v5.334h5.334L93.333 216v-5.333H88z" stroke-width="2"/><path fill="#ffbde0" stroke="#ca337c" d="M85.333 213.333h5.334v5.334M90.667 213.333l2.666-2.666" stroke-width="2"/><path fill="#ffbde0" stroke="#ca337c" d="M85.333 208v5.333h5.334l2.666-2.666v-5.334H88z" stroke-width="2"/><path fill="#ffbde0" stroke="#ca337c" d="M85.333 208h5.334v5.333M90.667 208l2.666-2.667" stroke-width="2"/><path fill="#ffbde0" stroke="#ca337c" d="M85.333 202.667V208h5.334l2.666-2.667V200H88z" stroke-width="2"/><path fill="#ffbde0" stroke="#ca337c" d="M85.333 202.667h5.334V208M90.667 202.667L93.333 200" stroke-width="2"/><path fill="#ffbde0" stroke="#ca337c" d="M85.333 197.333v5.334h5.334L93.333 200v-5.333H88z" stroke-width="2"/><path fill="#ffbde0" stroke="#ca337c" d="M85.333 197.333h5.334v5.334M90.667 197.333l2.666-2.666" stroke-width="2"/><path fill="#ffbde0" stroke="#ca337c" d="M85.333 192v5.333h5.334l2.666-2.666v-5.334H88z" stroke-width="2"/><path fill="#ffbde0" stroke="#ca337c" d="M85.333 192h5.334v5.333M90.667 192l2.666-2.667" stroke-width="2"/><path fill="#ffbde0" stroke="#ca337c" d="M85.333 186.667V192h5.334l2.666-2.667V184H88z" stroke-width="2"/><path fill="#ffbde0" stroke="#ca337c" d="M85.333 186.667h5.334V192M90.667 186.667L93.333 184" stroke-width="2"/><path fill="#ffbde0" stroke="#ca337c" d="M85.333 181.333v5.334h5.334L93.333 184v-5.333H88z" stroke-width="2"/><path fill="#ffbde0" stroke="#ca337c" d="M85.333 181.333h5.334v5.334M90.667 181.333l2.666-2.666" stroke-width="2"/><path fill="#ffbde0" stroke="#ca337c" d="M85.333 176v5.333h5.334l2.666-2.666v-5.334H88z" stroke-width="2"/><path fill="#ffbde0" stroke="#ca337c" d="M85.333 176h5.334v5.333M90.667 176l2.666-2.667M90.667 224v5.333H96l2.667-2.666v-5.334h-5.334z" stroke-width="2"/><path fill="#ffbde0" stroke="#ca337c" d="M90.667 224H96v5.333M96 224l2.667-2.667" stroke-width="2"/><path fill="#ffbde0" stroke="#ca337c" d="M90.667 218.667V224H96l2.667-2.667V216h-5.334z" stroke-width="2"/><path fill="#ffbde0" stroke="#ca337c" d="M90.667 218.667H96V224M96 218.667L98.667 216" stroke-width="2"/><path fill="#ffbde0" stroke="#ca337c" d="M90.667 213.333v5.334H96L98.667 216v-5.333h-5.334z" stroke-width="2"/><path fill="#ffbde0" stroke="#ca337c" d="M90.667 213.333H96v5.334M96 213.333l2.667-2.666" stroke-width="2"/><path fill="#ffbde0" stroke="#ca337c" d="M90.667 208v5.333H96l2.667-2.666v-5.334h-5.334z" stroke-width="2"/><path fill="#ffbde0" stroke="#ca337c" d="M90.667 208H96v5.333M96 208l2.667-2.667" stroke-width="2"/><path fill="#ffbde0" stroke="#ca337c" d="M90.667 202.667V208H96l2.667-2.667V200h-5.334z" stroke-width="2"/><path fill="#ffbde0" stroke="#ca337c" d="M90.667 202.667H96V208M96 202.667L98.667 200" stroke-width="2"/><path fill="#ffbde0" stroke="#ca337c" d="M90.667 197.333v5.334H96L98.667 200v-5.333h-5.334z" stroke-width="2"/><path fill="#ffbde0" stroke="#ca337c" d="M90.667 197.333H96v5.334M96 197.333l2.667-2.666" stroke-width="2"/><path fill="#ffbde0" stroke="#ca337c" d="M90.667 192v5.333H96l2.667-2.666v-5.334h-5.334z" stroke-width="2"/><path fill="#ffbde0" stroke="#ca337c" d="M90.667 192H96v5.333M96 192l2.667-2.667" stroke-width="2"/><path fill="#ffbde0" stroke="#ca337c" d="M90.667 186.667V192H96l2.667-2.667V184h-5.334z" stroke-width="2"/><path fill="#ffbde0" stroke="#ca337c" d="M90.667 186.667H96V192M96 186.667L98.667 184" stroke-width="2"/><path fill="#ffbde0" stroke="#ca337c" d="M90.667 181.333v5.334H96L98.667 184v-5.333h-5.334z" stroke-width="2"/><path fill="#ffbde0" stroke="#ca337c" d="M90.667 181.333H96v5.334M96 181.333l2.667-2.666" stroke-width="2"/><path fill="#ffbde0" stroke="#ca337c" d="M90.667 176v5.333H96l2.667-2.666v-5.334h-5.334z" stroke-width="2"/><path fill="#ffbde0" stroke="#ca337c" d="M90.667 176H96v5.333M96 176l2.667-2.667M96 224v5.333h5.333l2.667-2.666v-5.334h-5.333z" stroke-width="2"/><path fill="#ffbde0" stroke="#ca337c" d="M96 224h5.333v5.333M101.333 224l2.667-2.667" stroke-width="2"/><path fill="#ffbde0" stroke="#ca337c" d="M96 218.667V224h5.333l2.667-2.667V216h-5.333z" stroke-width="2"/><path fill="#ffbde0" stroke="#ca337c" d="M96 218.667h5.333V224M101.333 218.667L104 216" stroke-width="2"/><path fill="#ffbde0" stroke="#ca337c" d="M96 213.333v5.334h5.333L104 216v-5.333h-5.333z" stroke-width="2"/><path fill="#ffbde0" stroke="#ca337c" d="M96 213.333h5.333v5.334M101.333 213.333l2.667-2.666" stroke-width="2"/><path fill="#ffbde0" stroke="#ca337c" d="M96 208v5.333h5.333l2.667-2.666v-5.334h-5.333z" stroke-width="2"/><path fill="#ffbde0" stroke="#ca337c" d="M96 208h5.333v5.333M101.333 208l2.667-2.667" stroke-width="2"/><path fill="#ffbde0" stroke="#ca337c" d="M96 202.667V208h5.333l2.667-2.667V200h-5.333z" stroke-width="2"/><path fill="#ffbde0" stroke="#ca337c" d="M96 202.667h5.333V208M101.333 202.667L104 200" stroke-width="2"/><path fill="#ffbde0" stroke="#ca337c" d="M96 197.333v5.334h5.333L104 200v-5.333h-5.333z" stroke-width="2"/><path fill="#ffbde0" stroke="#ca337c" d="M96 197.333h5.333v5.334M101.333 197.333l2.667-2.666" stroke-width="2"/><path fill="#ffbde0" stroke="#ca337c" d="M96 192v5.333h5.333l2.667-2.666v-5.334h-5.333z" stroke-width="2"/><path fill="#ffbde0" stroke="#ca337c" d="M96 192h5.333v5.333M101.333 192l2.667-2.667" stroke-width="2"/><path fill="#ffbde0" stroke="#ca337c" d="M96 186.667V192h5.333l2.667-2.667V184h-5.333z" stroke-width="2"/><path fill="#ffbde0" stroke="#ca337c" d="M96 186.667h5.333V192M101.333 186.667L104 184" stroke-width="2"/><path fill="#ffbde0" stroke="#ca337c" d="M96 181.333v5.334h5.333L104 184v-5.333h-5.333z" stroke-width="2"/><path fill="#ffbde0" stroke="#ca337c" d="M96 181.333h5.333v5.334M101.333 181.333l2.667-2.666" stroke-width="2"/><path fill="#ffbde0" stroke="#ca337c" d="M96 176v5.333h5.333l2.667-2.666v-5.334h-5.333z" stroke-width="2"/><path fill="#ffbde0" stroke="#ca337c" d="M96 176h5.333v5.333M101.333 176l2.667-2.667M101.333 224v5.333h5.334l2.666-2.666v-5.334H104z" stroke-width="2"/><path fill="#ffbde0" stroke="#ca337c" d="M101.333 224h5.334v5.333M106.667 224l2.666-2.667" stroke-width="2"/><path fill="#ffbde0" stroke="#ca337c" d="M101.333 218.667V224h5.334l2.666-2.667V216H104z" stroke-width="2"/><path fill="#ffbde0" stroke="#ca337c" d="M101.333 218.667h5.334V224M106.667 218.667l2.666-2.667" stroke-width="2"/><path fill="#ffbde0" stroke="#ca337c" d="M101.333 213.333v5.334h5.334l2.666-2.667v-5.333H104z" stroke-width="2"/><path fill="#ffbde0" stroke="#ca337c" d="M101.333 213.333h5.334v5.334M106.667 213.333l2.666-2.666" stroke-width="2"/><path fill="#ffbde0" stroke="#ca337c" d="M101.333 208v5.333h5.334l2.666-2.666v-5.334H104z" stroke-width="2"/><path fill="#ffbde0" stroke="#ca337c" d="M101.333 208h5.334v5.333M106.667 208l2.666-2.667" stroke-width="2"/><path fill="#ffbde0" stroke="#ca337c" d="M101.333 202.667V208h5.334l2.666-2.667V200H104z" stroke-width="2"/><path fill="#ffbde0" stroke="#ca337c" d="M101.333 202.667h5.334V208M106.667 202.667l2.666-2.667" stroke-width="2"/><path fill="#ffbde0" stroke="#ca337c" d="M101.333 197.333v5.334h5.334l2.666-2.667v-5.333H104z" stroke-width="2"/><path fill="#ffbde0" stroke="#ca337c" d="M101.333 197.333h5.334v5.334M106.667 197.333l2.666-2.666" stroke-width="2"/><path fill="#ffbde0" stroke="#ca337c" d="M101.333 192v5.333h5.334l2.666-2.666v-5.334H104z" stroke-width="2"/><path fill="#ffbde0" stroke="#ca337c" d="M101.333 192h5.334v5.333M106.667 192l2.666-2.667" stroke-width="2"/><path fill="#ffbde0" stroke="#ca337c" d="M101.333 186.667V192h5.334l2.666-2.667V184H104z" stroke-width="2"/><path fill="#ffbde0" stroke="#ca337c" d="M101.333 186.667h5.334V192M106.667 186.667l2.666-2.667" stroke-width="2"/><path fill="#ffbde0" stroke="#ca337c" d="M101.333 181.333v5.334h5.334l2.666-2.667v-5.333H104z" stroke-width="2"/><path fill="#ffbde0" stroke="#ca337c" d="M101.333 181.333h5.334v5.334M106.667 181.333l2.666-2.666" stroke-width="2"/><path fill="#ffbde0" stroke="#ca337c" d="M101.333 176v5.333h5.334l2.666-2.666v-5.334H104z" stroke-width="2"/><path fill="#ffbde0" stroke="#ca337c" d="M101.333 176h5.334v5.333M106.667 176l2.666-2.667M106.667 224v5.333H112l2.667-2.666v-5.334h-5.334z" stroke-width="2"/><path fill="#ffbde0" stroke="#ca337c" d="M106.667 224H112v5.333M112 224l2.667-2.667" stroke-width="2"/><path fill="#ffbde0" stroke="#ca337c" d="M106.667 218.667V224H112l2.667-2.667V216h-5.334z" stroke-width="2"/><path fill="#ffbde0" stroke="#ca337c" d="M106.667 218.667H112V224M112 218.667l2.667-2.667" stroke-width="2"/><path fill="#ffbde0" stroke="#ca337c" d="M106.667 213.333v5.334H112l2.667-2.667v-5.333h-5.334z" stroke-width="2"/><path fill="#ffbde0" stroke="#ca337c" d="M106.667 213.333H112v5.334M112 213.333l2.667-2.666" stroke-width="2"/><path fill="#ffbde0" stroke="#ca337c" d="M106.667 208v5.333H112l2.667-2.666v-5.334h-5.334z" stroke-width="2"/><path fill="#ffbde0" stroke="#ca337c" d="M106.667 208H112v5.333M112 208l2.667-2.667" stroke-width="2"/><path fill="#ffbde0" stroke="#ca337c" d="M106.667 202.667V208H112l2.667-2.667V200h-5.334z" stroke-width="2"/><path fill="#ffbde0" stroke="#ca337c" d="M106.667 202.667H112V208M112 202.667l2.667-2.667" stroke-width="2"/><path fill="#ffbde0" stroke="#ca337c" d="M106.667 197.333v5.334H112l2.667-2.667v-5.333h-5.334z" stroke-width="2"/><path fill="#ffbde0" stroke="#ca337c" d="M106.667 197.333H112v5.334M112 197.333l2.667-2.666" stroke-width="2"/><path fill="#ffbde0" stroke="#ca337c" d="M106.667 192v5.333H112l2.667-2.666v-5.334h-5.334z" stroke-width="2"/><path fill="#ffbde0" stroke="#ca337c" d="M106.667 192H112v5.333M112 192l2.667-2.667" stroke-width="2"/><path fill="#ffbde0" stroke="#ca337c" d="M106.667 186.667V192H112l2.667-2.667V184h-5.334z" stroke-width="2"/><path fill="#ffbde0" stroke="#ca337c" d="M106.667 186.667H112V192M112 186.667l2.667-2.667" stroke-width="2"/><path fill="#ffbde0" stroke="#ca337c" d="M106.667 181.333v5.334H112l2.667-2.667v-5.333h-5.334z" stroke-width="2"/><path fill="#ffbde0" stroke="#ca337c" d="M106.667 181.333H112v5.334M112 181.333l2.667-2.666" stroke-width="2"/><path fill="#ffbde0" stroke="#ca337c" d="M106.667 176v5.333H112l2.667-2.666v-5.334h-5.334z" stroke-width="2"/><path fill="#ffbde0" stroke="#ca337c" d="M106.667 176H112v5.333M112 176l2.667-2.667M112 224v5.333h5.333l2.667-2.666v-5.334h-5.333z" stroke-width="2"/><path fill="#ffbde0" stroke="#ca337c" d="M112 224h5.333v5.333M117.333 224l2.667-2.667" stroke-width="2"/><path fill="#ffbde0" stroke="#ca337c" d="M112 218.667V224h5.333l2.667-2.667V216h-5.333z" stroke-width="2"/><path fill="#ffbde0" stroke="#ca337c" d="M112 218.667h5.333V224M117.333 218.667L120 216" stroke-width="2"/><path fill="#ffbde0" stroke="#ca337c" d="M112 213.333v5.334h5.333L120 216v-5.333h-5.333z" stroke-width="2"/><path fill="#ffbde0" stroke="#ca337c" d="M112 213.333h5.333v5.334M117.333 213.333l2.667-2.666" stroke-width="2"/><path fill="#ffbde0" stroke="#ca337c" d="M112 208v5.333h5.333l2.667-2.666v-5.334h-5.333z" stroke-width="2"/><path fill="#ffbde0" stroke="#ca337c" d="M112 208h5.333v5.333M117.333 208l2.667-2.667" stroke-width="2"/><path fill="#ffbde0" stroke="#ca337c" d="M112 202.667V208h5.333l2.667-2.667V200h-5.333z" stroke-width="2"/><path fill="#ffbde0" stroke="#ca337c" d="M112 202.667h5.333V208M117.333 202.667L120 200" stroke-width="2"/><path fill="#ffbde0" stroke="#ca337c" d="M112 197.333v5.334h5.333L120 200v-5.333h-5.333z" stroke-width="2"/><path fill="#ffbde0" stroke="#ca337c" d="M112 197.333h5.333v5.334M117.333 197.333l2.667-2.666" stroke-width="2"/><path fill="#ffbde0" stroke="#ca337c" d="M112 192v5.333h5.333l2.667-2.666v-5.334h-5.333z" stroke-width="2"/><path fill="#ffbde0" stroke="#ca337c" d="M112 192h5.333v5.333M117.333 192l2.667-2.667" stroke-width="2"/><path fill="#ffbde0" stroke="#ca337c" d="M112 186.667V192h5.333l2.667-2.667V184h-5.333z" stroke-width="2"/><path fill="#ffbde0" stroke="#ca337c" d="M112 186.667h5.333V192M117.333 186.667L120 184" stroke-width="2"/><path fill="#ffbde0" stroke="#ca337c" d="M112 181.333v5.334h5.333L120 184v-5.333h-5.333z" stroke-width="2"/><path fill="#ffbde0" stroke="#ca337c" d="M112 181.333h5.333v5.334M117.333 181.333l2.667-2.666" stroke-width="2"/><path fill="#ffbde0" stroke="#ca337c" d="M112 176v5.333h5.333l2.667-2.666v-5.334h-5.333z" stroke-width="2"/><path fill="#ffbde0" stroke="#ca337c" d="M112 176h5.333v5.333M117.333 176l2.667-2.667M117.333 224v5.333h5.334l2.666-2.666v-5.334H120z" stroke-width="2"/><path fill="#ffbde0" stroke="#ca337c" d="M117.333 224h5.334v5.333M122.667 224l2.666-2.667" stroke-width="2"/><path fill="#ffbde0" stroke="#ca337c" d="M117.333 218.667V224h5.334l2.666-2.667V216H120z" stroke-width="2"/><path fill="#ffbde0" stroke="#ca337c" d="M117.333 218.667h5.334V224M122.667 218.667l2.666-2.667" stroke-width="2"/><path fill="#ffbde0" stroke="#ca337c" d="M117.333 213.333v5.334h5.334l2.666-2.667v-5.333H120z" stroke-width="2"/><path fill="#ffbde0" stroke="#ca337c" d="M117.333 213.333h5.334v5.334M122.667 213.333l2.666-2.666" stroke-width="2"/><path fill="#ffbde0" stroke="#ca337c" d="M117.333 208v5.333h5.334l2.666-2.666v-5.334H120z" stroke-width="2"/><path fill="#ffbde0" stroke="#ca337c" d="M117.333 208h5.334v5.333M122.667 208l2.666-2.667" stroke-width="2"/><path fill="#ffbde0" stroke="#ca337c" d="M117.333 202.667V208h5.334l2.666-2.667V200H120z" stroke-width="2"/><path fill="#ffbde0" stroke="#ca337c" d="M117.333 202.667h5.334V208M122.667 202.667l2.666-2.667" stroke-width="2"/><path fill="#ffbde0" stroke="#ca337c" d="M117.333 197.333v5.334h5.334l2.666-2.667v-5.333H120z" stroke-width="2"/><path fill="#ffbde0" stroke="#ca337c" d="M117.333 197.333h5.334v5.334M122.667 197.333l2.666-2.666" stroke-width="2"/><path fill="#ffbde0" stroke="#ca337c" d="M117.333 192v5.333h5.334l2.666-2.666v-5.334H120z" stroke-width="2"/><path fill="#ffbde0" stroke="#ca337c" d="M117.333 192h5.334v5.333M122.667 192l2.666-2.667" stroke-width="2"/><path fill="#ffbde0" stroke="#ca337c" d="M117.333 186.667V192h5.334l2.666-2.667V184H120z" stroke-width="2"/><path fill="#ffbde0" stroke="#ca337c" d="M117.333 186.667h5.334V192M122.667 186.667l2.666-2.667" stroke-width="2"/><path fill="#ffbde0" stroke="#ca337c" d="M117.333 181.333v5.334h5.334l2.666-2.667v-5.333H120z" stroke-width="2"/><path fill="#ffbde0" stroke="#ca337c" d="M117.333 181.333h5.334v5.334M122.667 181.333l2.666-2.666" stroke-width="2"/><path fill="#ffbde0" stroke="#ca337c" d="M117.333 176v5.333h5.334l2.666-2.666v-5.334H120z" stroke-width="2"/><path fill="#ffbde0" stroke="#ca337c" d="M117.333 176h5.334v5.333M122.667 176l2.666-2.667" stroke-width="2"/><path fill="#ddd7ff" stroke="#7854ab" d="M177.067 96v5.333h5.333l2.667-2.666v-5.334h-5.334z" stroke-width="2"/><path fill="#ddd7ff" stroke="#7854ab" d="M177.067 96h5.333v5.333M182.4 96l2.667-2.667" stroke-width="2"/><path fill="#ddd7ff" stroke="#7854ab" d="M177.067 90.667V96h5.333l2.667-2.667V88h-5.334z" stroke-width="2"/><path fill="#ddd7ff" stroke="#7854ab" d="M177.067 90.667h5.333V96M182.4 90.667L185.067 88" stroke-width="2"/><path fill="#ddd7ff" stroke="#7854ab" d="M177.067 85.333v5.334h5.333L185.067 88v-5.333h-5.334z" stroke-width="2"/><path fill="#ddd7ff" stroke="#7854ab" d="M177.067 85.333h5.333v5.334M182.4 85.333l2.667-2.666" stroke-width="2"/><path fill="#ddd7ff" stroke="#7854ab" d="M177.067 80v5.333h5.333l2.667-2.666v-5.334h-5.334z" stroke-width="2"/><path fill="#ddd7ff" stroke="#7854ab" d="M177.067 80h5.333v5.333M182.4 80l2.667-2.667" stroke-width="2"/><path fill="#ddd7ff" stroke="#7854ab" d="M177.067 74.667V80h5.333l2.667-2.667V72h-5.334z" stroke-width="2"/><path fill="#ddd7ff" stroke="#7854ab" d="M177.067 74.667h5.333V80M182.4 74.667L185.067 72" stroke-width="2"/><path fill="#ddd7ff" stroke="#7854ab" d="M177.067 69.333v5.334h5.333L185.067 72v-5.333h-5.334z" stroke-width="2"/><path fill="#ddd7ff" stroke="#7854ab" d="M177.067 69.333h5.333v5.334M182.4 69.333l2.667-2.666" stroke-width="2"/><path fill="#ddd7ff" stroke="#7854ab" d="M177.067 64v5.333h5.333l2.667-2.666v-5.334h-5.334z" stroke-width="2"/><path fill="#ddd7ff" stroke="#7854ab" d="M177.067 64h5.333v5.333M182.4 64l2.667-2.667" stroke-width="2"/><path fill="#ddd7ff" stroke="#7854ab" d="M177.067 58.667V64h5.333l2.667-2.667V56h-5.334z" stroke-width="2"/><path fill="#ddd7ff" stroke="#7854ab" d="M177.067 58.667h5.333V64M182.4 58.667L185.067 56" stroke-width="2"/><path fill="#ddd7ff" stroke="#7854ab" d="M177.067 53.333v5.334h5.333L185.067 56v-5.333h-5.334z" stroke-width="2"/><path fill="#ddd7ff" stroke="#7854ab" d="M177.067 53.333h5.333v5.334M182.4 53.333l2.667-2.666" stroke-width="2"/><path fill="#ddd7ff" stroke="#7854ab" d="M177.067 48v5.333h5.333l2.667-2.666v-5.334h-5.334z" stroke-width="2"/><path fill="#ddd7ff" stroke="#7854ab" d="M177.067 48h5.333v5.333M182.4 48l2.667-2.667M189.867 96v5.333h5.333l2.667-2.666v-5.334h-5.334z" stroke-width="2"/><path fill="#ddd7ff" stroke="#7854ab" d="M189.867 96h5.333v5.333M195.2 96l2.667-2.667" stroke-width="2"/><path fill="#ddd7ff" stroke="#7854ab" d="M189.867 90.667V96h5.333l2.667-2.667V88h-5.334z" stroke-width="2"/><path fill="#ddd7ff" stroke="#7854ab" d="M189.867 90.667h5.333V96M195.2 90.667L197.867 88" stroke-width="2"/><path fill="#ddd7ff" stroke="#7854ab" d="M189.867 85.333v5.334h5.333L197.867 88v-5.333h-5.334z" stroke-width="2"/><path fill="#ddd7ff" stroke="#7854ab" d="M189.867 85.333h5.333v5.334M195.2 85.333l2.667-2.666" stroke-width="2"/><path fill="#ddd7ff" stroke="#7854ab" d="M189.867 80v5.333h5.333l2.667-2.666v-5.334h-5.334z" stroke-width="2"/><path fill="#ddd7ff" stroke="#7854ab" d="M189.867 80h5.333v5.333M195.2 80l2.667-2.667" stroke-width="2"/><path fill="#ddd7ff" stroke="#7854ab" d="M189.867 74.667V80h5.333l2.667-2.667V72h-5.334z" stroke-width="2"/><path fill="#ddd7ff" stroke="#7854ab" d="M189.867 74.667h5.333V80M195.2 74.667L197.867 72" stroke-width="2"/><path fill="#ddd7ff" stroke="#7854ab" d="M189.867 69.333v5.334h5.333L197.867 72v-5.333h-5.334z" stroke-width="2"/><path fill="#ddd7ff" stroke="#7854ab" d="M189.867 69.333h5.333v5.334M195.2 69.333l2.667-2.666" stroke-width="2"/><path fill="#ddd7ff" stroke="#7854ab" d="M189.867 64v5.333h5.333l2.667-2.666v-5.334h-5.334z" stroke-width="2"/><path fill="#ddd7ff" stroke="#7854ab" d="M189.867 64h5.333v5.333M195.2 64l2.667-2.667" stroke-width="2"/><path fill="#ddd7ff" stroke="#7854ab" d="M189.867 58.667V64h5.333l2.667-2.667V56h-5.334z" stroke-width="2"/><path fill="#ddd7ff" stroke="#7854ab" d="M189.867 58.667h5.333V64M195.2 58.667L197.867 56" stroke-width="2"/><path fill="#ddd7ff" stroke="#7854ab" d="M189.867 53.333v5.334h5.333L197.867 56v-5.333h-5.334z" stroke-width="2"/><path fill="#ddd7ff" stroke="#7854ab" d="M189.867 53.333h5.333v5.334M195.2 53.333l2.667-2.666" stroke-width="2"/><path fill="#ddd7ff" stroke="#7854ab" d="M189.867 48v5.333h5.333l2.667-2.666v-5.334h-5.334z" stroke-width="2"/><path fill="#ddd7ff" stroke="#7854ab" d="M189.867 48h5.333v5.333M195.2 48l2.667-2.667M202.667 96v5.333H208l2.667-2.666v-5.334h-5.334z" stroke-width="2"/><path fill="#ddd7ff" stroke="#7854ab" d="M202.667 96H208v5.333M208 96l2.667-2.667" stroke-width="2"/><path fill="#ddd7ff" stroke="#7854ab" d="M202.667 90.667V96H208l2.667-2.667V88h-5.334z" stroke-width="2"/><path fill="#ddd7ff" stroke="#7854ab" d="M202.667 90.667H208V96M208 90.667L210.667 88" stroke-width="2"/><path fill="#ddd7ff" stroke="#7854ab" d="M202.667 85.333v5.334H208L210.667 88v-5.333h-5.334z" stroke-width="2"/><path fill="#ddd7ff" stroke="#7854ab" d="M202.667 85.333H208v5.334M208 85.333l2.667-2.666" stroke-width="2"/><path fill="#ddd7ff" stroke="#7854ab" d="M202.667 80v5.333H208l2.667-2.666v-5.334h-5.334z" stroke-width="2"/><path fill="#ddd7ff" stroke="#7854ab" d="M202.667 80H208v5.333M208 80l2.667-2.667" stroke-width="2"/><path fill="#ddd7ff" stroke="#7854ab" d="M202.667 74.667V80H208l2.667-2.667V72h-5.334z" stroke-width="2"/><path fill="#ddd7ff" stroke="#7854ab" d="M202.667 74.667H208V80M208 74.667L210.667 72" stroke-width="2"/><path fill="#ddd7ff" stroke="#7854ab" d="M202.667 69.333v5.334H208L210.667 72v-5.333h-5.334z" stroke-width="2"/><path fill="#ddd7ff" stroke="#7854ab" d="M202.667 69.333H208v5.334M208 69.333l2.667-2.666" stroke-width="2"/><path fill="#ddd7ff" stroke="#7854ab" d="M202.667 64v5.333H208l2.667-2.666v-5.334h-5.334z" stroke-width="2"/><path fill="#ddd7ff" stroke="#7854ab" d="M202.667 64H208v5.333M208 64l2.667-2.667" stroke-width="2"/><path fill="#ddd7ff" stroke="#7854ab" d="M202.667 58.667V64H208l2.667-2.667V56h-5.334z" stroke-width="2"/><path fill="#ddd7ff" stroke="#7854ab" d="M202.667 58.667H208V64M208 58.667L210.667 56" stroke-width="2"/><path fill="#ddd7ff" stroke="#7854ab" d="M202.667 53.333v5.334H208L210.667 56v-5.333h-5.334z" stroke-width="2"/><path fill="#ddd7ff" stroke="#7854ab" d="M202.667 53.333H208v5.334M208 53.333l2.667-2.666" stroke-width="2"/><path fill="#ddd7ff" stroke="#7854ab" d="M202.667 48v5.333H208l2.667-2.666v-5.334h-5.334z" stroke-width="2"/><path fill="#ddd7ff" stroke="#7854ab" d="M202.667 48H208v5.333M208 48l2.667-2.667M215.467 96v5.333h5.333l2.667-2.666v-5.334h-5.334z" stroke-width="2"/><path fill="#ddd7ff" stroke="#7854ab" d="M215.467 96h5.333v5.333M220.8 96l2.667-2.667" stroke-width="2"/><path fill="#ddd7ff" stroke="#7854ab" d="M215.467 90.667V96h5.333l2.667-2.667V88h-5.334z" stroke-width="2"/><path fill="#ddd7ff" stroke="#7854ab" d="M215.467 90.667h5.333V96M220.8 90.667L223.467 88" stroke-width="2"/><path fill="#ddd7ff" stroke="#7854ab" d="M215.467 85.333v5.334h5.333L223.467 88v-5.333h-5.334z" stroke-width="2"/><path fill="#ddd7ff" stroke="#7854ab" d="M215.467 85.333h5.333v5.334M220.8 85.333l2.667-2.666" stroke-width="2"/><path fill="#ddd7ff" stroke="#7854ab" d="M215.467 80v5.333h5.333l2.667-2.666v-5.334h-5.334z" stroke-width="2"/><path fill="#ddd7ff" stroke="#7854ab" d="M215.467 80h5.333v5.333M220.8 80l2.667-2.667" stroke-width="2"/><path fill="#ddd7ff" stroke="#7854ab" d="M215.467 74.667V80h5.333l2.667-2.667V72h-5.334z" stroke-width="2"/><path fill="#ddd7ff" stroke="#7854ab" d="M215.467 74.667h5.333V80M220.8 74.667L223.467 72" stroke-width="2"/><path fill="#ddd7ff" stroke="#7854ab" d="M215.467 69.333v5.334h5.333L223.467 72v-5.333h-5.334z" stroke-width="2"/><path fill="#ddd7ff" stroke="#7854ab" d="M215.467 69.333h5.333v5.334M220.8 69.333l2.667-2.666" stroke-width="2"/><path fill="#ddd7ff" stroke="#7854ab" d="M215.467 64v5.333h5.333l2.667-2.666v-5.334h-5.334z" stroke-width="2"/><path fill="#ddd7ff" stroke="#7854ab" d="M215.467 64h5.333v5.333M220.8 64l2.667-2.667" stroke-width="2"/><path fill="#ddd7ff" stroke="#7854ab" d="M215.467 58.667V64h5.333l2.667-2.667V56h-5.334z" stroke-width="2"/><path fill="#ddd7ff" stroke="#7854ab" d="M215.467 58.667h5.333V64M220.8 58.667L223.467 56" stroke-width="2"/><path fill="#ddd7ff" stroke="#7854ab" d="M215.467 53.333v5.334h5.333L223.467 56v-5.333h-5.334z" stroke-width="2"/><path fill="#ddd7ff" stroke="#7854ab" d="M215.467 53.333h5.333v5.334M220.8 53.333l2.667-2.666" stroke-width="2"/><path fill="#ddd7ff" stroke="#7854ab" d="M215.467 48v5.333h5.333l2.667-2.666v-5.334h-5.334z" stroke-width="2"/><path fill="#ddd7ff" stroke="#7854ab" d="M215.467 48h5.333v5.333M220.8 48l2.667-2.667M228.267 96v5.333h5.333l2.667-2.666v-5.334h-5.334z" stroke-width="2"/><path fill="#ddd7ff" stroke="#7854ab" d="M228.267 96h5.333v5.333M233.6 96l2.667-2.667" stroke-width="2"/><path fill="#ddd7ff" stroke="#7854ab" d="M228.267 90.667V96h5.333l2.667-2.667V88h-5.334z" stroke-width="2"/><path fill="#ddd7ff" stroke="#7854ab" d="M228.267 90.667h5.333V96M233.6 90.667L236.267 88" stroke-width="2"/><path fill="#ddd7ff" stroke="#7854ab" d="M228.267 85.333v5.334h5.333L236.267 88v-5.333h-5.334z" stroke-width="2"/><path fill="#ddd7ff" stroke="#7854ab" d="M228.267 85.333h5.333v5.334M233.6 85.333l2.667-2.666" stroke-width="2"/><path fill="#ddd7ff" stroke="#7854ab" d="M228.267 80v5.333h5.333l2.667-2.666v-5.334h-5.334z" stroke-width="2"/><path fill="#ddd7ff" stroke="#7854ab" d="M228.267 80h5.333v5.333M233.6 80l2.667-2.667" stroke-width="2"/><path fill="#ddd7ff" stroke="#7854ab" d="M228.267 74.667V80h5.333l2.667-2.667V72h-5.334z" stroke-width="2"/><path fill="#ddd7ff" stroke="#7854ab" d="M228.267 74.667h5.333V80M233.6 74.667L236.267 72" stroke-width="2"/><path fill="#ddd7ff" stroke="#7854ab" d="M228.267 69.333v5.334h5.333L236.267 72v-5.333h-5.334z" stroke-width="2"/><path fill="#ddd7ff" stroke="#7854ab" d="M228.267 69.333h5.333v5.334M233.6 69.333l2.667-2.666" stroke-width="2"/><path fill="#ddd7ff" stroke="#7854ab" d="M228.267 64v5.333h5.333l2.667-2.666v-5.334h-5.334z" stroke-width="2"/><path fill="#ddd7ff" stroke="#7854ab" d="M228.267 64h5.333v5.333M233.6 64l2.667-2.667" stroke-width="2"/><path fill="#ddd7ff" stroke="#7854ab" d="M228.267 58.667V64h5.333l2.667-2.667V56h-5.334z" stroke-width="2"/><path fill="#ddd7ff" stroke="#7854ab" d="M228.267 58.667h5.333V64M233.6 58.667L236.267 56" stroke-width="2"/><path fill="#ddd7ff" stroke="#7854ab" d="M228.267 53.333v5.334h5.333L236.267 56v-5.333h-5.334z" stroke-width="2"/><path fill="#ddd7ff" stroke="#7854ab" d="M228.267 53.333h5.333v5.334M233.6 53.333l2.667-2.666" stroke-width="2"/><path fill="#ddd7ff" stroke="#7854ab" d="M228.267 48v5.333h5.333l2.667-2.666v-5.334h-5.334z" stroke-width="2"/><path fill="#ddd7ff" stroke="#7854ab" d="M228.267 48h5.333v5.333M233.6 48l2.667-2.667M241.067 96v5.333h5.333l2.667-2.666v-5.334h-5.334z" stroke-width="2"/><path fill="#ddd7ff" stroke="#7854ab" d="M241.067 96h5.333v5.333M246.4 96l2.667-2.667" stroke-width="2"/><path fill="#ddd7ff" stroke="#7854ab" d="M241.067 90.667V96h5.333l2.667-2.667V88h-5.334z" stroke-width="2"/><path fill="#ddd7ff" stroke="#7854ab" d="M241.067 90.667h5.333V96M246.4 90.667L249.067 88" stroke-width="2"/><path fill="#ddd7ff" stroke="#7854ab" d="M241.067 85.333v5.334h5.333L249.067 88v-5.333h-5.334z" stroke-width="2"/><path fill="#ddd7ff" stroke="#7854ab" d="M241.067 85.333h5.333v5.334M246.4 85.333l2.667-2.666" stroke-width="2"/><path fill="#ddd7ff" stroke="#7854ab" d="M241.067 80v5.333h5.333l2.667-2.666v-5.334h-5.334z" stroke-width="2"/><path fill="#ddd7ff" stroke="#7854ab" d="M241.067 80h5.333v5.333M246.4 80l2.667-2.667" stroke-width="2"/><path fill="#ddd7ff" stroke="#7854ab" d="M241.067 74.667V80h5.333l2.667-2.667V72h-5.334z" stroke-width="2"/><path fill="#ddd7ff" stroke="#7854ab" d="M241.067 74.667h5.333V80M246.4 74.667L249.067 72" stroke-width="2"/><path fill="#ddd7ff" stroke="#7854ab" d="M241.067 69.333v5.334h5.333L249.067 72v-5.333h-5.334z" stroke-width="2"/><path fill="#ddd7ff" stroke="#7854ab" d="M241.067 69.333h5.333v5.334M246.4 69.333l2.667-2.666" stroke-width="2"/><path fill="#ddd7ff" stroke="#7854ab" d="M241.067 64v5.333h5.333l2.667-2.666v-5.334h-5.334z" stroke-width="2"/><path fill="#ddd7ff" stroke="#7854ab" d="M241.067 64h5.333v5.333M246.4 64l2.667-2.667" stroke-width="2"/><path fill="#ddd7ff" stroke="#7854ab" d="M241.067 58.667V64h5.333l2.667-2.667V56h-5.334z" stroke-width="2"/><path fill="#ddd7ff" stroke="#7854ab" d="M241.067 58.667h5.333V64M246.4 58.667L249.067 56" stroke-width="2"/><path fill="#ddd7ff" stroke="#7854ab" d="M241.067 53.333v5.334h5.333L249.067 56v-5.333h-5.334z" stroke-width="2"/><path fill="#ddd7ff" stroke="#7854ab" d="M241.067 53.333h5.333v5.334M246.4 53.333l2.667-2.666" stroke-width="2"/><path fill="#ddd7ff" stroke="#7854ab" d="M241.067 48v5.333h5.333l2.667-2.666v-5.334h-5.334z" stroke-width="2"/><path fill="#ddd7ff" stroke="#7854ab" d="M241.067 48h5.333v5.333M246.4 48l2.667-2.667M253.867 96v5.333h5.333l2.667-2.666v-5.334h-5.334z" stroke-width="2"/><path fill="#ddd7ff" stroke="#7854ab" d="M253.867 96h5.333v5.333M259.2 96l2.667-2.667" stroke-width="2"/><path fill="#ddd7ff" stroke="#7854ab" d="M253.867 90.667V96h5.333l2.667-2.667V88h-5.334z" stroke-width="2"/><path fill="#ddd7ff" stroke="#7854ab" d="M253.867 90.667h5.333V96M259.2 90.667L261.867 88" stroke-width="2"/><path fill="#ddd7ff" stroke="#7854ab" d="M253.867 85.333v5.334h5.333L261.867 88v-5.333h-5.334z" stroke-width="2"/><path fill="#ddd7ff" stroke="#7854ab" d="M253.867 85.333h5.333v5.334M259.2 85.333l2.667-2.666" stroke-width="2"/><path fill="#ddd7ff" stroke="#7854ab" d="M253.867 80v5.333h5.333l2.667-2.666v-5.334h-5.334z" stroke-width="2"/><path fill="#ddd7ff" stroke="#7854ab" d="M253.867 80h5.333v5.333M259.2 80l2.667-2.667" stroke-width="2"/><path fill="#ddd7ff" stroke="#7854ab" d="M253.867 74.667V80h5.333l2.667-2.667V72h-5.334z" stroke-width="2"/><path fill="#ddd7ff" stroke="#7854ab" d="M253.867 74.667h5.333V80M259.2 74.667L261.867 72" stroke-width="2"/><path fill="#ddd7ff" stroke="#7854ab" d="M253.867 69.333v5.334h5.333L261.867 72v-5.333h-5.334z" stroke-width="2"/><path fill="#ddd7ff" stroke="#7854ab" d="M253.867 69.333h5.333v5.334M259.2 69.333l2.667-2.666" stroke-width="2"/><path fill="#ddd7ff" stroke="#7854ab" d="M253.867 64v5.333h5.333l2.667-2.666v-5.334h-5.334z" stroke-width="2"/><path fill="#ddd7ff" stroke="#7854ab" d="M253.867 64h5.333v5.333M259.2 64l2.667-2.667" stroke-width="2"/><path fill="#ddd7ff" stroke="#7854ab" d="M253.867 58.667V64h5.333l2.667-2.667V56h-5.334z" stroke-width="2"/><path fill="#ddd7ff" stroke="#7854ab" d="M253.867 58.667h5.333V64M259.2 58.667L261.867 56" stroke-width="2"/><path fill="#ddd7ff" stroke="#7854ab" d="M253.867 53.333v5.334h5.333L261.867 56v-5.333h-5.334z" stroke-width="2"/><path fill="#ddd7ff" stroke="#7854ab" d="M253.867 53.333h5.333v5.334M259.2 53.333l2.667-2.666" stroke-width="2"/><path fill="#ddd7ff" stroke="#7854ab" d="M253.867 48v5.333h5.333l2.667-2.666v-5.334h-5.334z" stroke-width="2"/><path fill="#ddd7ff" stroke="#7854ab" d="M253.867 48h5.333v5.333M259.2 48l2.667-2.667M348.8 48v5.333h5.333l2.667-2.666v-5.334h-5.333z" stroke-width="2"/><path fill="#ddd7ff" stroke="#7854ab" d="M348.8 48h5.333v5.333M354.133 48l2.667-2.667M361.6 48v5.333h5.333l2.667-2.666v-5.334h-5.333z" stroke-width="2"/><path fill="#ddd7ff" stroke="#7854ab" d="M361.6 48h5.333v5.333M366.933 48l2.667-2.667M374.4 48v5.333h5.333l2.667-2.666v-5.334h-5.333z" stroke-width="2"/><path fill="#ddd7ff" stroke="#7854ab" d="M374.4 48h5.333v5.333M379.733 48l2.667-2.667M387.2 48v5.333h5.333l2.667-2.666v-5.334h-5.333z" stroke-width="2"/><path fill="#ddd7ff" stroke="#7854ab" d="M387.2 48h5.333v5.333M392.533 48l2.667-2.667" stroke-width="2"/><path fill="#ffbde0" stroke="#ca337c" d="M336 185.867v5.333h5.333l2.667-2.667V183.2h-5.333z" stroke-width="2"/><path fill="#ffbde0" stroke="#ca337c" d="M336 185.867h5.333v5.333M341.333 185.867L344 183.2M348.8 185.867v5.333h5.333l2.667-2.667V183.2h-5.333z" stroke-width="2"/><path fill="#ffbde0" stroke="#ca337c" d="M348.8 185.867h5.333v5.333M354.133 185.867l2.667-2.667M361.6 185.867v5.333h5.333l2.667-2.667V183.2h-5.333z" stroke-width="2"/><path fill="#ffbde0" stroke="#ca337c" d="M361.6 185.867h5.333v5.333M366.933 185.867l2.667-2.667M374.4 185.867v5.333h5.333l2.667-2.667V183.2h-5.333z" stroke-width="2"/><path fill="#ffbde0" stroke="#ca337c" d="M374.4 185.867h5.333v5.333M379.733 185.867l2.667-2.667M387.2 185.867v5.333h5.333l2.667-2.667V183.2h-5.333z" stroke-width="2"/><path fill="#ffbde0" stroke="#ca337c" d="M387.2 185.867h5.333v5.333M392.533 185.867l2.667-2.667" stroke-width="2"/></svg>
