<svg xmlns="http://www.w3.org/2000/svg" width="400" height="296.774" viewBox="0 0 400 296.7741935483871"><path fill="#28ae7b" stroke="#000" d="M116.129 206.452v-77.42h58.273v77.42z" stroke-width="2" stroke-dasharray="0"/><path fill="#ff00af" stroke="#000" d="M174.402 206.452v-77.42h199.792v77.42z" stroke-width="2" stroke-dasharray="0"/><path fill="#28ae7b" stroke="#000" d="M116.129 116.129v-77.42h58.273v77.42z" stroke-width="2" stroke-dasharray="0"/><path fill="none" stroke="#000" d="M374.193 207.936c-1 3-6 5-10 6 0 0-3 1-6 1h-70.896c-5 0-10 3-10 3l-3 4-3-4s-5-3-10-3h-70.896c-3-1-6-1-6-1-4-1-9-3-10-6"/><path fill="none" stroke="#000" d="M174.402 207.936c-1 3-6 5-10 6 0 0-3 1-6 1h-.136c-5 0-10 3-10 3l-3 4-3-4s-5-3-10-3h-.137c-3-1-6-1-6-1-4-1-9-3-10-6M374.194 249.226c-1 3-6 5-10 6 0 0-3 1-6 1H258.162c-5 0-10 3-10 3l-3 4-3-4s-5-3-10-3H132.13c-3-1-6-1-6-1-4-1-9-3-10-6M116.129 36.129c1-3 6-5 10-6 0 0 3-1 6-1h.136c5 0 10-3 10-3l3-4 3 4s5 3 10 3h.137c3 1 6 1 6 1 4 1 9 3 10 6"/></svg>
