<svg xmlns="http://www.w3.org/2000/svg" width="320" height="168" viewBox="0 0 320 168"><path fill="#a75a05" stroke="#a75a05" d="M6.154 44v36h307.692V44H6.154" stroke-width="2" fill-opacity=".1"/><path fill="#208170" stroke="#208170" d="M6.154 84v36H63.59V84H6.154" stroke-width="2" fill-opacity=".1"/><path fill="#ca337c" stroke="#ca337c" d="M63.59 84v36h250.256V84H63.59" stroke-width="2" fill-opacity=".1"/><path fill="none" stroke="#000" d="M6.154 44c1-3 6-5 10-6 0 0 3-1 6-1H147c5 0 10-3 10-3l3-4 3 4s5 3 10 3h124.846c3 1 6 1 6 1 4 1 9 3 10 6M63.59 124c-.99 3-5.942 5-9.903 6 0 0-2.971 1-5.941 1-4.952 0-9.903 3-9.903 3l-2.971 4-2.971-4s-4.951-3-9.903-3c-2.97-1-5.941-1-5.941-1-3.961-1-8.913-3-9.903-6M313.846 124c-1 3-6 5-10 6 0 0-3 1-6 1h-96.128c-5 0-10 3-10 3l-3 4-3-4s-5-3-10-3H79.59c-3-1-6-1-6-1-4-1-9-3-10-6"/></svg>
