<svg xmlns="http://www.w3.org/2000/svg" width="320" height="168" viewBox="0 0 320 168"><path fill="#ca337c" stroke="#ca337c" d="M6.154 44v36h307.692V44H6.154" stroke-width="2" fill-opacity=".1"/><path fill="#208170" stroke="#208170" d="M6.154 84v36h149.038V84H6.154" stroke-width="2" fill-opacity=".1"/><path fill="#a75a05" stroke="#a75a05" d="M155.192 84v36h158.654V84H155.192" stroke-width="2" fill-opacity=".1"/><path fill="none" stroke="#000" d="M6.154 44c1-3 6-5 10-6 0 0 3-1 6-1H147c5 0 10-3 10-3l3-4 3 4s5 3 10 3h124.846c3 1 6 1 6 1 4 1 9 3 10 6M155.192 124c-1 3-6 5-10 6 0 0-3 1-6 1H93.673c-5 0-10 3-10 3l-3 4-3-4s-5-3-10-3H22.154c-3-1-6-1-6-1-4-1-9-3-10-6M313.846 124c-1 3-6 5-10 6 0 0-3 1-6 1H247.52c-5 0-10 3-10 3l-3 4-3-4s-5-3-10-3h-50.327c-3-1-6-1-6-1-4-1-9-3-10-6"/></svg>
