<svg xmlns="http://www.w3.org/2000/svg" width="400" height="209.524" viewBox="0 0 400 209.52380952380952"><defs><radialGradient id="a" fx=".5" fy=".5"><stop offset="0%" stop-color="#fee6d3"/><stop offset="29.16%" stop-color="#fee4d0"/><stop offset="52.23%" stop-color="#fedec6"/><stop offset="73.2%" stop-color="#fdd3b6"/><stop offset="92.83%" stop-color="#fcc4a0"/><stop offset="100%" stop-color="#fbbd97"/></radialGradient><radialGradient id="b" fx=".5" fy=".5"><stop offset="0%" stop-color="#ffe600"/><stop offset="29.16%" stop-color="#ffe400"/><stop offset="52.23%" stop-color="#fd0"/><stop offset="73.2%" stop-color="#ffd100"/><stop offset="92.83%" stop-color="#fec00f"/><stop offset="100%" stop-color="#fdb913"/></radialGradient><radialGradient id="c" fx=".5" fy=".5"><stop offset="0%" stop-color="#b77049"/><stop offset="16.82%" stop-color="#af6743"/><stop offset="44.79%" stop-color="#9b5231"/><stop offset="80.23%" stop-color="#7c3216"/><stop offset="100%" stop-color="#681d00"/></radialGradient></defs><path stroke="#000" d="M19.047 190.476V38.095M57.143 190.476V38.095M19.048 176.19h38.095M19.048 161.905h38.095M19.048 147.619h38.095M19.048 133.333h38.095M19.048 119.048h38.095M19.048 104.762h38.095M19.048 90.476h38.095M19.048 76.19h38.095M19.048 61.905h38.095M19.048 47.619h38.095" stroke-width="2" stroke-dasharray="0" fill="none"/><path fill="#6495ed" stroke="#000" d="M19.048 38.095h38.095l114.286 152.381h-38.096z" stroke-width="2" stroke-dasharray="0"/><path fill="#ff00af" stroke="#000" d="M19.048 38.095v-9.524l114.285 152.381v9.524zM57.143 28.571v9.524l114.286 152.381v-9.524z" stroke-width="2" stroke-dasharray="0"/><path fill="none" stroke="#000" d="M61.067 25.772c3-1 7.6 1.8 10.8 4.4 0 0 2.6 1.8 4.4 4.2l39.742 52.99c3 4 8.4 6.2 8.4 6.2h5l-1.4 4.8s.6 5.8 3.6 9.8l39.743 52.99c1 3 2.8 5.4 2.8 5.4 1.6 3.8 3 9 1.2 11.6"/><path fill="#d78334" d="M46.286 32.987c.492.445 3.19 1.087 4.874-1.094 1.098-1.421-1.457-.686-2.042-.768-.6-.085-1.075-1.133-2.184-.87-1.198.284-1.712 1.768-.648 2.732zM48.855 34.682s.75-.974 1.03-.752c.17.137-.111 1.921-.39 2.478-.278.557-1.337-.112-1.337-.112l.697-1.614z"/><path fill="#f89c44" d="M43.022 34.27s-3.63-1.198-4.2-4.732c-.704-4.364-5.94-3.352-7.307-2.288 0 0 2.873 1.378 3.078 5.364.17 3.317 5.172 5.07 7.958 2.336l.471-.68z"/><path fill="#f4953f" d="M44.455 30.339s-3.864 4.039-2.93 6.443c.84 2.157 6.338 2.45 7.829 2.184.74-.133 1.81-4.061 1.224-4.261-.526-.18-1.171.799-1.171.799s-1.05-5.37-3.18-5.53c-2.13-.16-1.772.365-1.772.365z"/><path fill="url(#a)" d="M49.407 35.504s-1.032-5.272-3.123-5.522l.225 2.176s1.357 2.992 2.898 3.346z"/><path fill="#d14e3f" d="M46.547 30.042c-.624-.05-1.415-.124-1.974.378-.918.822-.659 2.372.737 2.71.391.094 1.951-.208 3.034-.975-.453-.986-1.052-1.866-1.797-2.113z"/><path fill="#fedcbd" d="M46.535 30.041a14.95 14.95 0 0 0-.248-.019l.222 2.136s.134.297.366.713a5.584 5.584 0 0 0 1.467-.716c-.455-.99-1.057-1.873-1.807-2.114z"/><path fill="url(#b)" d="M41.106 15.776s2.638-1.966 5.794-1.604c0 0 1.203-3.023 3.17-3.696 0 0 1.32 2.333 1.363 4.49 0 0 4.004 5.31 4.314 7.95 0 0 2.587-.052 3.156-.362 0 0 .987-.422.247.49-1.233 1.52-4.877 4.858-8.369 6.184-4.237 1.608-8.07 2.276-10.865 0-2.649-2.158-2.38-9.52-2.38-9.52s-1.5-3.052-1.552-5.33c1.673-.424 5.122 1.398 5.122 1.398z"/><path fill="#f89c44" d="M41.106 15.776s2.764-2.115 5.92-1.753c0 0 1.077-2.874 3.043-3.547 0 0 1.32 2.333 1.364 4.49 0 0 4.004 5.31 4.314 7.95 0 0 2.587-.052 3.155-.362 0 0 .988-.422.248.49-1.234 1.52-4.877 4.858-8.37 6.184-4.237 1.608-8.07 2.276-10.865 0-2.649-2.158-2.379-9.52-2.379-9.52s-1.5-3.052-1.552-5.33c1.673-.424 5.122 1.398 5.122 1.398z"/><path fill="#f4dbc5" d="M37.127 26.882l-.074.954-.798-.16v.853l-.906-.054v.853l-.958-.107-.348.914c-.891-2.1-2.527-2.884-2.527-2.884.945-.737 3.743-1.447 5.611-.37z"/><path fill="#f4953f" d="M44.36 32.987c.491.445 3.19 1.087 4.873-1.094 1.097-1.421-1.458-.686-2.043-.768-.6-.085-1.074-1.133-2.183-.87-1.199.284-1.713 1.768-.648 2.732z"/><path fill="#f4dbc5" d="M48.302 14.108s1.848.117 3.132.857c-.044-2.156-1.364-4.489-1.364-4.489s-1.853 1.503-1.768 3.632z"/><ellipse cx="47.845" cy="23.542" rx=".502" ry=".834" fill="#304454"/><ellipse cx="52.555" cy="21.855" rx=".376" ry=".834" fill="#304454" transform="rotate(-10.532 52.555 21.855)"/><path fill="#d78334" d="M48.9 11.49s.069-.184.205-.47a4.889 4.889 0 0 0-.492.45c.096.007.191.01.287.02zM59.086 22.49c-1.704 1.54-4.099 3.32-6.43 4.205-4.238 1.608-8.072 2.276-10.866 0-2.649-2.159-2.38-9.52-2.38-9.52s-.552-1.126-.997-2.518c-.875-.27-1.783-.442-2.429-.278.052 2.276 1.552 5.328 1.552 5.328s-.269 7.362 2.38 9.52c2.794 2.276 6.628 1.61 10.865 0 3.492-1.326 7.136-4.663 8.37-6.183.525-.649.18-.623-.065-.554z" opacity=".5"/><path fill="none" stroke="#414042" d="M43.074 29.858s-.898.49-1.306 1.102M42.298 29.614s-1.02.286-1.388.612" stroke-width=".181" stroke-linecap="round" stroke-linejoin="round"/><path fill="#f4dbc5" d="M36.029 14.482c-.013.03-.024.061-.036.092.127 2.252 1.543 5.134 1.543 5.134.716-1.552 2.41-2.761 2.41-2.761-1.056-1.365-3.917-2.465-3.917-2.465z"/><ellipse cx="58.904" cy="22.709" rx="1.009" ry=".854" fill="#304454"/><path stroke="#000" d="M209.524 190.476V76.19M247.619 190.476V76.19M209.524 176.19h38.095M209.524 161.905h38.095M209.524 147.619h38.095M209.524 133.333h38.095M209.524 119.048h38.095M209.524 104.762h38.095M209.524 90.476h38.095" stroke-width="2" stroke-dasharray="0" fill="none"/><path fill="#9d38bd" stroke="#000" d="M209.524 76.19h38.095l114.286 114.286H323.81z" stroke-width="2" stroke-dasharray="0"/><path fill="#28ae7b" stroke="#000" d="M209.524 76.19v-9.523L323.81 180.952v9.524zM247.619 66.667v9.523l114.286 114.286v-9.524z" stroke-width="2" stroke-dasharray="0"/><path fill="none" stroke="#000" d="M252.193 64.617c2.828-1.414 7.778.707 11.314 2.829 0 0 2.828 1.414 4.95 3.535l36.636 36.637c3.536 3.535 9.193 4.95 9.193 4.95l4.95-.708-.708 4.95s1.414 5.657 4.95 9.193l36.637 36.636c1.414 2.829 3.535 4.95 3.535 4.95 2.121 3.535 4.243 8.485 2.828 11.314"/><path fill="#688da7" d="M222.6 56.613c5.185 1.471 4.998 5.317 5.025 8.847.042 5.754 2.594 6.032 2.594 6.032l2.265.11s1.003.744-3.099 2.32c-3.692 1.415-5.351-3.073-5.712-5.5-.172-1.159-.381-3.544-3.087-3.844-2.268-.252-3.472-1.382-3.827-2.984-.587-2.646 1.18-6.303 5.841-4.98z"/><path fill="#304454" d="M232.46 71.96a23.04 23.04 0 0 1-.851-.401l-1.39-.066s-2.552-.28-2.595-6.033c-.026-3.53.161-7.376-5.024-8.847-1.35-.382-2.455-.347-3.332-.04.385.289.909.294 1.614.384 4.767.6 6.08 3.373 5.927 6.828-.172 3.865.592 9.072 3.393 9.406.319.038.861-.322 1.118-.301.719-.41 1.022-.718 1.14-.93z"/><path fill="#304454" d="M230.828 73.035a29.289 29.289 0 0 1-.85-.402l-1.193-.259s-2.736-.087-2.791-5.84c-.043-4.468.504-7.248-4.682-8.719-1.349-.383-2.706-.386-2.878-.215-.17.301.071.663.773.774 5.713.9 6.185 3.22 5.799 7.301-.365 3.851.979 8.127 3.779 8.46.32.037.646-.192.904-.172.719-.41 1.022-.717 1.139-.928zM240.585 71.288s-.711 1.063-2.554.679c-1.842-.381-1.703-1.633-1.703-1.633l2.677-.626 1.58 1.58z"/><path fill="#304454" d="M235.954 72.1c.934-.786 3.102-.77 3.379 1.532.184 1.527-1.241 3.899-1.241 3.899l.298.224-2.145-.046s-2.457-3.785-.291-5.61z"/><path fill="#304454" d="M237.971 77.419s.697.328.392.658c-.273.296-1.005-.211-.914-.523l.152-.21.37.075z"/><path fill="#304454" d="M237.649 77.425s.762.4.364.757c-.299.268-1.004-.212-.913-.523l.151-.21.398-.024z"/><path fill="#304454" d="M237.248 77.419s.785.318.364.756c-.28.29-1.004-.211-.914-.523l.153-.211.397-.022z"/><path fill="#304454" d="M236.75 77.41s.734.36.364.755c-.313.336-1.254-.25-.976-.687l.213-.046.399-.023z"/><path fill="#688da7" d="M235.812 53.925s-3.995-4.463-5.707-3.234c-2 1.434.207 7.402.207 7.402l5.5-4.169z"/><path fill="#4d677a" d="M235.282 54.036s-3.694-4.044-5.054-2.973c-1.127.889-.047 5.218-.047 5.218l5.101-2.245z"/><path fill="#688da7" d="M237.563 53.925s3.994-4.463 5.707-3.234c2 1.434-.208 7.402-.208 7.402l-5.499-4.169z"/><path fill="#4d677a" d="M238.094 54.036s3.694-4.044 5.054-2.973c1.127.889.047 5.218.047 5.218l-5.101-2.245z"/><path fill="#688da7" d="M232.847 61.113s.898 5.331-3.216 8.396c-3.347 2.493-3.443 5.92-.188 7.611 3.816 1.981 8.438 1.286 9.109-3.256.573-3.893-2.791-9.52-2.791-9.52l-2.914-3.23z"/><path fill="#304454" d="M234.06 78.14c-.738-.115-1.366-.37-1.345-.91.037-.962.608-2.238.487-3.197-.315-2.524-2.647-2.428-3.668-1.559-1.364 1.16-1.041 3.024-.522 4.397.138.087.28.17.431.248 1.512.785 3.147 1.147 4.617 1.021z"/><path fill="#4d677a" d="M237.348 67.587c-.307.134-.53.45-.426.782-.267.094-.609.202-.636.698-.027.497.512.892 1.025.701.276.635.532 1.505 1.227 2.001-.185-1.432-.673-2.918-1.19-4.182z"/><path fill="#4d677a" d="M234.76 68.48a1.479 1.479 0 0 0 2.955 0 1.477 1.477 0 1 0-2.955 0z"/><path fill="#4d677a" d="M233.299 70.74c.613-.145 1.1-.631 1.779-1.141.437.676 1.457-.004.925-.705.603-.352.328-1.33-.293-1.33-.009-.282-.012-.641-.477-.813-.467-.173-.398.235-.367.78-.92.1-2.839.02-3.478 1.282-.46.909.284 2.317 1.911 1.928z"/><path fill="#4d677a" d="M229.632 69.51c-1.388 1.033-2.215 2.226-2.477 3.39.654-1.385 1.931-2.325 3.052-3.038 2.183-1.384 6.451-2.798 6.451-2.798l-4.051-2.08c-.395 1.531-1.236 3.231-2.975 4.525z"/><path fill="#688da7" d="M229.364 56.917A7.684 7.684 0 1 0 243.868 62a7.685 7.685 0 0 0-14.504-5.082z"/><path fill="#304454" d="M236.608 59.497s-.628-3.978-.721-7.688a7.784 7.784 0 0 1 1.503.005c-.02 2.327-.288 4.153-.782 7.683zM234.813 51.99c.083 2.224.121 3.883.118 7.344 0 0-1.026-3.644-1.38-6.92a7.636 7.636 0 0 1 1.262-.424zM239.155 52.206c.139.05.277.103.412.16-.039 1.786-.463 3.906-1.453 6.898 0 0 .209-4.23.151-7.31.299.068.595.15.89.252z"/><ellipse cx="237.426" cy="65.476" rx=".871" ry=".871" fill="#4d677a"/><path fill="none" stroke="#000" d="M240.809 65.338s1.222.055 1.838.399M240.928 64.755s1.159-.393 1.857-.296M232.353 65.338s-1.222.055-1.838.399M232.234 64.755s-1.159-.393-1.856-.296" stroke-width=".154" stroke-linecap="round" stroke-linejoin="round"/><ellipse cx="237.24" cy="68.496" rx=".12" ry=".12" fill="url(#c)"/><path fill="#4d677a" d="M229.31 72.287c1.021-.867 3.399-.86 3.716 1.663.21 1.676-1.341 4.284-1.341 4.284l.327.246-2.354-.04c0 .001-2.715-4.139-.348-6.153z"/><path fill="#4d677a" d="M231.552 78.113s.765.357.433.72c-.298.327-1.103-.227-1.005-.568l.165-.232.407.08z"/><path fill="#4d677a" d="M231.198 78.123s.838.433.403.828c-.326.297-1.103-.227-1.005-.569l.166-.232.436-.027z"/><path fill="#4d677a" d="M230.758 78.117s.863.345.402.828c-.304.32-1.102-.226-1.004-.569l.164-.231.438-.028z"/><path fill="#4d677a" d="M230.211 78.11s.808.39.403.828c-.342.368-1.377-.27-1.075-.752l.235-.05.437-.026z"/><path fill="#688da7" d="M240.748 69.334c-.5-.616-1.528-.991-1.97-1.41.393-.693-.549-1.112-.759-.393-.457-.587-1.099.106-.785.51-.288-.038-.597.015-.576.512.014.3.589.366.668.274.368.849.756 2.668 2.149 2.903 1.004.17 2.184-1.28 1.273-2.396zM233.121 70.597c.706-.361 1.288-1.288 1.789-1.633.597.528 1.201-.306.541-.662.673-.326.127-1.096-.335-.874.098-.273.11-.587-.38-.67-.296-.05-.481.5-.407.597-.907.183-2.767.182-3.286 1.498-.376.947.796 2.401 2.078 1.744z"/><ellipse cx="233.771" cy="63.086" rx=".471" ry=".783" fill="#304454"/><ellipse cx="240.039" cy="63.086" rx=".471" ry=".783" fill="#304454"/></svg>
