<svg xmlns="http://www.w3.org/2000/svg" width="320" height="176" viewBox="0 0 320 176"><path fill="#e07d10" stroke="#000" d="M6.154 44v36h307.692V44H6.154" stroke-width="2" fill-opacity=".3"/><path fill="#0c7f99" stroke="#000" d="M6.154 84v36H128.17V84H6.154" stroke-width="2" fill-opacity=".3"/><path fill="#ca337c" stroke="#000" d="M128.17 84v36h185.676V84H128.17" stroke-width="2" fill-opacity=".3"/><path fill="none" stroke="#000" d="M6.154 44c1-3 6-5 10-6 0 0 3-1 6-1H147c5 0 10-3 10-3l3-4 3 4s5 3 10 3h124.846c3 1 6 1 6 1 4 1 9 3 10 6M128.17 120c-1 3-6 5-10 6 0 0-3 1-6 1H80.162c-5 0-10 3-10 3l-3 4-3-4s-5-3-10-3H22.154c-3-1-6-1-6-1-4-1-9-3-10-6M313.846 120c-1 3-6 5-10 6 0 0-3 1-6 1h-63.838c-5 0-10 3-10 3l-3 4-3-4s-5-3-10-3H144.17c-3-1-6-1-6-1-4-1-9-3-10-6"/></svg>
