<svg xmlns="http://www.w3.org/2000/svg" width="400" height="340.741" viewBox="0 0 400 340.74074074074076"><path fill="#28ae7b" stroke="#000" d="M74.074 237.037v-88.889h94.815v88.889z" stroke-width="2" stroke-dasharray="0"/><path fill="#ff00af" stroke="#000" d="M168.889 237.037v-88.889H370.37v88.889z" stroke-width="2" stroke-dasharray="0"/><path fill="#28ae7b" stroke="#000" d="M74.074 133.333V44.444h94.815v88.889z" stroke-width="2" stroke-dasharray="0"/><path fill="none" stroke="#000" d="M370.37 240.815c-1 3-6 5-10 6 0 0-3 1-6 1h-71.741c-5 0-10 3-10 3l-3 4-3-4s-5-3-10-3h-71.74c-3-1-6-1-6-1-4-1-9-3-10-6M168.889 240.815c-1 3-6 5-10 6 0 0-3 1-6 1h-18.407c-5 0-10 3-10 3l-3 4-3-4s-5-3-10-3H90.074c-3-1-6-1-6-1-4-1-9-3-10-6M370.37 288.222c-1 3-6 5-10 6 0 0-3 1-6 1H235.222c-5 0-10 3-10 3l-3 4-3-4s-5-3-10-3H90.074c-3-1-6-1-6-1-4-1-9-3-10-6M74.074 41.481c1-3 6-5 10-6 0 0 3-1 6-1h18.407c5 0 10-3 10-3l3-4 3 4s5 3 10 3h18.408c3 1 6 1 6 1 4 1 9 3 10 6"/></svg>
