<svg xmlns="http://www.w3.org/2000/svg" width="400" height="371.429" viewBox="0 0 400 371.42857142857144"><defs><radialGradient id="a" fx=".5" fy=".5"><stop offset="0%" stop-color="#b77049"/><stop offset="16.82%" stop-color="#af6743"/><stop offset="44.79%" stop-color="#9b5231"/><stop offset="80.23%" stop-color="#7c3216"/><stop offset="100%" stop-color="#681d00"/></radialGradient><radialGradient id="b" fx=".5" fy=".5"><stop offset="0%" stop-color="#b77049"/><stop offset="16.82%" stop-color="#af6743"/><stop offset="44.79%" stop-color="#9b5231"/><stop offset="80.23%" stop-color="#7c3216"/><stop offset="100%" stop-color="#681d00"/></radialGradient></defs><path fill="#28ae7b" stroke="#000" d="M85.714 257.143v-85.714h162.699v85.714z" stroke-width="2" stroke-dasharray="0"/><path fill="#ff00af" stroke="#000" d="M248.413 257.143v-85.714h123.016v85.714z" stroke-width="2" stroke-dasharray="0"/><path fill="#28ae7b" stroke="#000" d="M85.714 157.143V71.429h162.699v85.714z" stroke-width="2" stroke-dasharray="0"/><path fill="#688da7" d="M30.256 215.534c8.296 2.353 7.997 8.507 8.039 14.155.069 9.206 4.152 9.652 4.152 9.652l3.624.174s1.604 1.192-4.959 3.711c-5.908 2.267-8.562-4.914-9.139-8.798-.275-1.854-.611-5.67-4.939-6.15-3.63-.402-5.555-2.212-6.123-4.775-.939-4.233 1.887-10.085 9.345-7.969z"/><path fill="#304454" d="M46.032 240.09c-.405-.18-.862-.395-1.362-.644l-2.224-.105s-4.083-.446-4.151-9.652c-.042-5.648.257-11.802-8.04-14.155-2.158-.612-3.928-.555-5.331-.063.617.461 1.455.469 2.583.612 7.628.962 9.728 5.397 9.483 10.925-.275 6.184.948 14.516 5.429 15.05.511.06 1.378-.515 1.789-.481 1.151-.657 1.636-1.149 1.824-1.487z"/><path fill="#304454" d="M43.42 241.809a43.783 43.783 0 0 1-1.36-.644l-1.909-.414s-4.377-.139-4.466-9.345c-.069-7.147.806-11.596-7.49-13.949-2.159-.612-4.33-.618-4.605-.344-.273.481.113 1.06 1.237 1.239 9.14 1.44 9.895 5.151 9.277 11.68-.584 6.163 1.567 13.004 6.047 13.536.513.061 1.034-.306 1.447-.275 1.15-.656 1.634-1.146 1.822-1.484zM59.032 239.013s-1.137 1.701-4.086 1.087c-2.947-.61-2.725-2.614-2.725-2.614l4.282-1.001 2.529 2.528z"/><path fill="#304454" d="M51.621 240.312c1.494-1.258 4.963-1.232 5.406 2.451.295 2.443-1.985 6.238-1.985 6.238l.476.36-3.432-.075s-3.93-6.056-.465-8.974z"/><path fill="#304454" d="M54.85 248.823s1.114.524.627 1.052c-.438.475-1.608-.337-1.463-.836l.243-.336.593.12z"/><path fill="#304454" d="M54.334 248.833s1.219.638.582 1.211c-.478.429-1.605-.34-1.461-.837l.242-.337.637-.037z"/><path fill="#304454" d="M53.691 248.823s1.258.508.582 1.209c-.447.465-1.605-.338-1.462-.836l.245-.338.636-.035z"/><path fill="#304454" d="M52.895 248.807s1.175.575.583 1.209c-.502.538-2.007-.4-1.562-1.099l.34-.073.639-.037z"/><path fill="#688da7" d="M51.395 211.232s-6.393-7.141-9.132-5.175c-3.2 2.296.331 11.845.331 11.845l8.8-6.67z"/><path fill="#4d677a" d="M50.547 211.411s-5.911-6.47-8.086-4.757c-1.803 1.421-.075 8.347-.075 8.347l8.16-3.59z"/><path fill="#688da7" d="M54.197 211.232s6.39-7.141 9.13-5.175c3.2 2.296-.331 11.845-.331 11.845l-8.8-6.67z"/><path fill="#4d677a" d="M55.045 211.411s5.91-6.47 8.087-4.757c1.803 1.421.074 8.347.074 8.347l-8.161-3.59z"/><path fill="#688da7" d="M46.651 222.734s1.437 8.529-5.145 13.433c-5.356 3.99-5.51 9.473-.302 12.177 6.106 3.17 13.502 2.059 14.574-5.208.918-6.228-4.464-15.233-4.464-15.233l-4.663-5.169z"/><path fill="#304454" d="M48.591 249.977c-1.18-.185-2.186-.593-2.152-1.456.06-1.539.973-3.581.78-5.114-.504-4.039-4.236-3.886-5.87-2.495-2.182 1.855-1.665 4.837-.834 7.034.22.139.447.273.69.398 2.418 1.256 5.035 1.835 7.386 1.633z"/><path fill="#4d677a" d="M53.853 233.092c-.491.214-.85.72-.682 1.252-.427.149-.975.322-1.017 1.117-.043.795.819 1.426 1.64 1.12.442 1.017.85 2.409 1.963 3.203-.297-2.292-1.077-4.669-1.904-6.692z"/><path fill="#4d677a" d="M49.712 234.521a2.365 2.365 0 0 0 4.728 0 2.362 2.362 0 0 0-2.364-2.363 2.363 2.363 0 0 0-2.364 2.363z"/><path fill="#4d677a" d="M47.373 238.137c.981-.233 1.76-1.01 2.846-1.827.7 1.081 2.331-.006 1.48-1.128.966-.564.525-2.127-.468-2.126-.015-.453-.02-1.028-.764-1.303-.746-.277-.637.375-.587 1.248-1.47.162-4.54.034-5.564 2.051-.737 1.454.454 3.707 3.057 3.085z"/><path fill="#4d677a" d="M41.506 236.167c-2.221 1.654-3.544 3.564-3.963 5.426 1.046-2.216 3.089-3.721 4.882-4.861 3.494-2.215 10.322-4.476 10.322-4.476l-6.481-3.329c-.632 2.449-1.978 5.169-4.76 7.24z"/><path fill="#688da7" d="M41.077 216.02c-2.246 6.408 1.129 13.424 7.537 15.669 6.409 2.245 13.422-1.129 15.67-7.538 2.242-6.408-1.131-13.424-7.54-15.669-6.407-2.244-13.422 1.131-15.667 7.538z"/><path fill="#304454" d="M52.668 220.147s-1.005-6.364-1.154-12.301a12.403 12.403 0 0 1 2.406.008c-.032 3.723-.462 6.645-1.252 12.293zM49.796 208.137c.133 3.558.194 6.213.189 11.751 0 0-1.642-5.831-2.208-11.074.652-.284 1.327-.51 2.019-.677zM56.744 208.483c.222.079.443.165.659.255-.062 2.859-.74 6.25-2.325 11.037 0 0 .335-6.768.242-11.695.478.108.952.238 1.424.403z"/><ellipse cx="53.977" cy="229.713" rx="1.394" ry="1.394" fill="#4d677a"/><path fill="none" stroke="#000" d="M59.39 229.492s1.955.088 2.94.638M59.58 228.561s1.855-.628 2.97-.473M45.86 229.492s-1.956.088-2.94.638M45.67 228.561s-1.855-.628-2.97-.473" stroke-width=".246" stroke-linecap="round" stroke-linejoin="round"/><ellipse cx="53.68" cy="234.546" rx=".192" ry=".192" fill="url(#a)"/><path fill="#4d677a" d="M40.991 240.612c1.633-1.388 5.438-1.378 5.945 2.661.337 2.681-2.145 6.855-2.145 6.855l.523.392-3.767-.063c.001.001-4.343-6.623-.556-9.845z"/><path fill="#4d677a" d="M44.578 249.934s1.225.571.693 1.152c-.477.524-1.765-.363-1.608-.908l.263-.372.652.128z"/><path fill="#4d677a" d="M44.013 249.949s1.34.692.645 1.325c-.522.474-1.766-.363-1.608-.911l.265-.371.698-.043z"/><path fill="#4d677a" d="M43.308 249.94s1.382.551.644 1.325c-.488.512-1.765-.361-1.608-.911l.264-.369.7-.045z"/><path fill="#4d677a" d="M42.433 249.928s1.292.624.645 1.325c-.547.591-2.204-.43-1.719-1.201l.375-.081.7-.043z"/><path fill="#688da7" d="M59.292 235.887c-.8-.985-2.445-1.586-3.152-2.255.63-1.111-.878-1.78-1.214-.63-.732-.94-1.759.169-1.256.819-.46-.063-.955.021-.922.816.022.481.942.586 1.07.439.587 1.358 1.208 4.269 3.437 4.645 1.607.271 3.494-2.048 2.037-3.834zM47.089 237.907c1.13-.577 2.062-2.061 2.861-2.612.956.843 1.923-.491.867-1.058 1.075-.522.202-1.754-.536-1.399.157-.438.177-.94-.608-1.072-.474-.081-.77.799-.653.954-1.45.294-4.426.292-5.257 2.396-.6 1.515 1.275 3.844 3.326 2.791z"/><ellipse cx="48.128" cy="225.89" rx=".754" ry="1.252" fill="#304454"/><ellipse cx="58.158" cy="225.89" rx=".754" ry="1.252" fill="#304454"/><path fill="#688da7" d="M30.256 115.534c8.296 2.353 7.997 8.507 8.039 14.155.069 9.206 4.152 9.652 4.152 9.652l3.624.174s1.604 1.192-4.959 3.711c-5.908 2.267-8.562-4.914-9.139-8.798-.275-1.854-.611-5.67-4.939-6.15-3.63-.402-5.555-2.212-6.123-4.775-.939-4.233 1.887-10.085 9.345-7.969z"/><path fill="#304454" d="M46.032 140.09c-.405-.18-.862-.395-1.362-.644l-2.224-.105s-4.083-.446-4.151-9.652c-.042-5.648.257-11.802-8.04-14.155-2.158-.612-3.928-.555-5.331-.063.617.461 1.455.469 2.583.612 7.628.962 9.728 5.397 9.483 10.925-.275 6.184.948 14.516 5.429 15.05.511.06 1.378-.515 1.789-.481 1.151-.657 1.636-1.149 1.824-1.487z"/><path fill="#304454" d="M43.42 141.809a43.783 43.783 0 0 1-1.36-.644l-1.909-.414s-4.377-.139-4.466-9.345c-.069-7.147.806-11.596-7.49-13.949-2.159-.612-4.33-.618-4.605-.344-.273.481.113 1.06 1.237 1.239 9.14 1.44 9.895 5.151 9.277 11.68-.584 6.163 1.567 13.004 6.047 13.536.513.061 1.034-.306 1.447-.275 1.15-.656 1.634-1.146 1.822-1.484zM59.032 139.013s-1.137 1.701-4.086 1.087c-2.947-.61-2.725-2.614-2.725-2.614l4.282-1.001 2.529 2.528z"/><path fill="#304454" d="M51.621 140.312c1.494-1.258 4.963-1.232 5.406 2.451.295 2.443-1.985 6.238-1.985 6.238l.476.36-3.432-.075s-3.93-6.056-.465-8.974z"/><path fill="#304454" d="M54.85 148.823s1.114.524.627 1.052c-.438.475-1.608-.337-1.463-.836l.243-.336.593.12z"/><path fill="#304454" d="M54.334 148.833s1.219.638.582 1.211c-.478.429-1.605-.34-1.461-.837l.242-.337.637-.037z"/><path fill="#304454" d="M53.691 148.823s1.258.508.582 1.209c-.447.465-1.605-.338-1.462-.836l.245-.338.636-.035z"/><path fill="#304454" d="M52.895 148.807s1.175.575.583 1.209c-.502.538-2.007-.4-1.562-1.099l.34-.073.639-.037z"/><path fill="#688da7" d="M51.395 111.232s-6.393-7.141-9.132-5.175c-3.2 2.296.331 11.845.331 11.845l8.8-6.67z"/><path fill="#4d677a" d="M50.547 111.411s-5.911-6.47-8.086-4.757c-1.803 1.421-.075 8.347-.075 8.347l8.16-3.59z"/><path fill="#688da7" d="M54.197 111.232s6.39-7.141 9.13-5.175c3.2 2.296-.331 11.845-.331 11.845l-8.8-6.67z"/><path fill="#4d677a" d="M55.045 111.411s5.91-6.47 8.087-4.757c1.803 1.421.074 8.347.074 8.347l-8.161-3.59z"/><path fill="#688da7" d="M46.651 122.734s1.437 8.529-5.145 13.433c-5.356 3.99-5.51 9.473-.302 12.177 6.106 3.17 13.502 2.059 14.574-5.208.918-6.228-4.464-15.233-4.464-15.233l-4.663-5.169z"/><path fill="#304454" d="M48.591 149.977c-1.18-.185-2.186-.593-2.152-1.456.06-1.539.973-3.581.78-5.114-.504-4.039-4.236-3.886-5.87-2.495-2.182 1.855-1.665 4.837-.834 7.034.22.139.447.273.69.398 2.418 1.256 5.035 1.835 7.386 1.633z"/><path fill="#4d677a" d="M53.853 133.092c-.491.214-.85.72-.682 1.252-.427.149-.975.322-1.017 1.117-.043.795.819 1.426 1.64 1.12.442 1.017.85 2.409 1.963 3.203-.297-2.292-1.077-4.669-1.904-6.692z"/><path fill="#4d677a" d="M49.712 134.521a2.365 2.365 0 0 0 4.728 0 2.362 2.362 0 0 0-2.364-2.363 2.363 2.363 0 0 0-2.364 2.363z"/><path fill="#4d677a" d="M47.373 138.137c.981-.233 1.76-1.01 2.846-1.827.7 1.081 2.331-.006 1.48-1.128.966-.564.525-2.127-.468-2.126-.015-.453-.02-1.028-.764-1.303-.746-.277-.637.375-.587 1.248-1.47.162-4.54.034-5.564 2.051-.737 1.454.454 3.707 3.057 3.085z"/><path fill="#4d677a" d="M41.506 136.167c-2.221 1.654-3.544 3.564-3.963 5.426 1.046-2.216 3.089-3.721 4.882-4.861 3.494-2.215 10.322-4.476 10.322-4.476l-6.481-3.329c-.632 2.449-1.978 5.169-4.76 7.24z"/><path fill="#688da7" d="M41.077 116.02c-2.246 6.408 1.129 13.424 7.537 15.669 6.409 2.245 13.422-1.129 15.67-7.538 2.242-6.408-1.131-13.424-7.54-15.669-6.407-2.244-13.422 1.131-15.667 7.538z"/><path fill="#304454" d="M52.668 120.147s-1.005-6.364-1.154-12.301a12.403 12.403 0 0 1 2.406.008c-.032 3.723-.462 6.645-1.252 12.293zM49.796 108.137c.133 3.558.194 6.213.189 11.751 0 0-1.642-5.831-2.208-11.074.652-.284 1.327-.51 2.019-.677zM56.744 108.483c.222.079.443.165.659.255-.062 2.859-.74 6.25-2.325 11.037 0 0 .335-6.768.242-11.695.478.108.952.238 1.424.403z"/><ellipse cx="53.977" cy="129.713" rx="1.394" ry="1.394" fill="#4d677a"/><path fill="none" stroke="#000" d="M59.39 129.492s1.955.088 2.94.638M59.58 128.561s1.855-.628 2.97-.473M45.86 129.492s-1.956.088-2.94.638M45.67 128.561s-1.855-.628-2.97-.473" stroke-width=".246" stroke-linecap="round" stroke-linejoin="round"/><ellipse cx="53.68" cy="134.546" rx=".192" ry=".192" fill="url(#b)"/><path fill="#4d677a" d="M40.991 140.612c1.633-1.388 5.438-1.378 5.945 2.661.337 2.681-2.145 6.855-2.145 6.855l.523.392-3.767-.063c.001.001-4.343-6.623-.556-9.845z"/><path fill="#4d677a" d="M44.578 149.934s1.225.571.693 1.152c-.477.524-1.765-.363-1.608-.908l.263-.372.652.128z"/><path fill="#4d677a" d="M44.013 149.949s1.34.692.645 1.325c-.522.474-1.766-.363-1.608-.911l.265-.371.698-.043z"/><path fill="#4d677a" d="M43.308 149.94s1.382.551.644 1.325c-.488.512-1.765-.361-1.608-.911l.264-.369.7-.045z"/><path fill="#4d677a" d="M42.433 149.928s1.292.624.645 1.325c-.547.591-2.204-.43-1.719-1.201l.375-.081.7-.043z"/><path fill="#688da7" d="M59.292 135.887c-.8-.985-2.445-1.586-3.152-2.255.63-1.111-.878-1.78-1.214-.63-.732-.94-1.759.169-1.256.819-.46-.063-.955.021-.922.816.022.481.942.586 1.07.439.587 1.358 1.208 4.269 3.437 4.645 1.607.271 3.494-2.048 2.037-3.834zM47.089 137.907c1.13-.577 2.062-2.061 2.861-2.612.956.843 1.923-.491.867-1.058 1.075-.522.202-1.754-.536-1.399.157-.438.177-.94-.608-1.072-.474-.081-.77.799-.653.954-1.45.294-4.426.292-5.257 2.396-.6 1.515 1.275 3.844 3.326 2.791z"/><ellipse cx="48.128" cy="125.89" rx=".754" ry="1.252" fill="#304454"/><ellipse cx="58.158" cy="125.89" rx=".754" ry="1.252" fill="#304454"/><path fill="none" stroke="#000" d="M371.428 260.285c-1 3-6 5-10 6 0 0-3 1-6 1H322.92c-5 0-10 3-10 3l-3 4-3-4s-5-3-10-3h-32.508c-3-1-6-1-6-1-4-1-9-3-10-6M371.428 306c-1 3-6 5-10 6 0 0-3 1-6 1H241.573c-5 0-10 3-10 3l-3 4-3-4s-5-3-10-3H101.715c-3-1-6-1-6-1-4-1-9-3-10-6M85.714 68.571c1-3 6-5 10-6 0 0 3-1 6-1h52.349c5 0 10-3 10-3l3-4 3 4s5 3 10 3h52.349c3 1 6 1 6 1 4 1 9 3 10 6"/></svg>
