<svg xmlns="http://www.w3.org/2000/svg" width="320" height="168" viewBox="0 0 320 168"><path fill="#7854ab" stroke="#7854ab" d="M6.154 44v36h307.692V44H6.154" stroke-width="2" fill-opacity=".1"/><path fill="#ca337c" stroke="#ca337c" d="M6.154 84v36H184.29V84H6.154" stroke-width="2" fill-opacity=".1"/><path fill="#0c7f99" stroke="#0c7f99" d="M184.291 84v36h129.555V84H184.291" stroke-width="2" fill-opacity=".1"/><path fill="none" stroke="#000" d="M6.154 44c1-3 6-5 10-6 0 0 3-1 6-1H147c5 0 10-3 10-3l3-4 3 4s5 3 10 3h124.846c3 1 6 1 6 1 4 1 9 3 10 6M184.291 124c-1 3-6 5-10 6 0 0-3 1-6 1h-60.068c-5 0-10 3-10 3l-3 4-3-4s-5-3-10-3h-60.07c-3-1-6-1-6-1-4-1-9-3-10-6M313.847 124c-1 3-6 5-10 6 0 0-3 1-6 1H262.07c-5 0-10 3-10 3l-3 4-3-4s-5-3-10-3h-35.778c-3-1-6-1-6-1-4-1-9-3-10-6"/></svg>
