<svg xmlns="http://www.w3.org/2000/svg" width="320" height="176" viewBox="0 0 320 176"><path fill="#7854ab" stroke="#000" d="M6.154 44v36h307.692V44H6.154" stroke-width="2" fill-opacity=".3"/><path fill="#ca337c" stroke="#000" d="M6.154 84v36h176.47V84H6.154" stroke-width="2" fill-opacity=".3"/><path fill="#11accd" stroke="#000" d="M182.624 84v36h131.222V84H182.624" stroke-width="2" fill-opacity=".3"/><path fill="none" stroke="#000" d="M6.154 44c1-3 6-5 10-6 0 0 3-1 6-1H147c5 0 10-3 10-3l3-4 3 4s5 3 10 3h124.846c3 1 6 1 6 1 4 1 9 3 10 6M182.624 120c-1 3-6 5-10 6 0 0-3 1-6 1H107.39c-5 0-10 3-10 3l-3 4-3-4s-5-3-10-3H22.153c-3-1-6-1-6-1-4-1-9-3-10-6M313.847 120c-1 3-6 5-10 6 0 0-3 1-6 1h-36.611c-5 0-10 3-10 3l-3 4-3-4s-5-3-10-3h-36.611c-3-1-6-1-6-1-4-1-9-3-10-6"/></svg>
