<svg xmlns="http://www.w3.org/2000/svg" width="400" height="176" viewBox="0 0 400 176"><path fill="khaki" stroke="#000" d="M0 160l64-32h320l-64 32z" stroke-width="2" stroke-dasharray="0"/><path fill="gray" stroke="gray" d="M44 144V64h4v80z" stroke-width="2" stroke-dasharray="0"/><path fill="gray" stroke="#000" d="M28 80V48l36-16v32z" stroke-width="2" stroke-dasharray="0"/><ellipse cx="51.2" cy="73.6" rx="12.8" ry="3.2" fill="none" stroke="#6495ed" stroke-width="2" stroke-dasharray="0"/><ellipse cx="51.2" cy="78.4" rx="9.6" ry="2.4" fill="none" stroke="#6495ed" stroke-width="2" stroke-dasharray="0"/><ellipse cx="51.2" cy="83.2" rx="6.4" ry="1.6" fill="none" stroke="#6495ed" stroke-width="2" stroke-dasharray="0"/><path fill="none" stroke="#6495ed" d="M36.8 70.4l8 14.4M43.2 65.6L48 84.8M51.2 64.8v20M59.2 65.6l-4.8 19.2M65.6 70.4l-8 14.4" stroke-width="2" stroke-dasharray="0"/><ellipse cx="51.2" cy="68.8" rx="14.4" ry="4.8" fill="none" stroke="#df0030" stroke-width="2" stroke-dasharray="0"/><ellipse cx="323.2" cy="73.6" rx="12.8" ry="3.2" fill="none" stroke="#6495ed" stroke-width="2" stroke-dasharray="0"/><ellipse cx="323.2" cy="78.4" rx="9.6" ry="2.4" fill="none" stroke="#6495ed" stroke-width="2" stroke-dasharray="0"/><ellipse cx="323.2" cy="83.2" rx="6.4" ry="1.6" fill="none" stroke="#6495ed" stroke-width="2" stroke-dasharray="0"/><path fill="none" stroke="#6495ed" d="M308.8 70.4l8 14.4M315.2 65.6l4.8 19.2M323.2 64.8v20M331.2 65.6l-4.8 19.2M337.6 70.4l-8 14.4" stroke-width="2" stroke-dasharray="0"/><ellipse cx="323.2" cy="68.8" rx="14.4" ry="4.8" fill="none" stroke="#df0030" stroke-width="2" stroke-dasharray="0"/><path fill="gray" stroke="gray" d="M332 144V64h4v80z" stroke-width="2" stroke-dasharray="0"/><path fill="gray" stroke="#000" d="M316 80V48l36-16v32z" stroke-width="2" stroke-dasharray="0"/><ellipse cx="124.8" cy="144" rx="8" ry="8" fill="orange" stroke="#000" stroke-width="2" stroke-dasharray="0" fill-opacity=".7"/><path stroke="#000" d="M124.8 136v16" stroke-width="2" stroke-dasharray="0" fill="none"/><path d="M119.098 149.591a6.667 6.667 0 0 0-.099-11.245L115.467 144z" fill="none"/><path stroke="#000" d="M119.098 149.591a6.667 6.667 0 0 0-.099-11.245" stroke-width="2" stroke-dasharray="0" fill="none"/><path d="M130.601 138.346a6.667 6.667 0 0 0 0 11.308l3.532-5.654z" fill="none"/><path stroke="#000" d="M130.601 138.346a6.667 6.667 0 0 0 0 11.308" stroke-width="2" stroke-dasharray="0" fill="none"/><path stroke="#df0030" d="M157.375 64V50.625M144 50.625h13.375M272 50.625h-13.375M258.625 64V50.625M258.625 16v13.375M272 29.375h-13.375M144 29.375h13.375M157.375 16v13.375M144 64h128V16H144z" stroke-width="3" stroke-dasharray="0"/><path fill="none" stroke="#df0030" d="M208 64V16" stroke-width="2" stroke-dasharray="0"/></svg>
