<svg xmlns="http://www.w3.org/2000/svg" width="375" height="400" viewBox="0 0 375 400"><defs><radialGradient id="a" fx=".5" fy=".5"><stop offset="0%" stop-color="#fee6d3"/><stop offset="29.16%" stop-color="#fee4d0"/><stop offset="52.23%" stop-color="#fedec6"/><stop offset="73.2%" stop-color="#fdd3b6"/><stop offset="92.83%" stop-color="#fcc4a0"/><stop offset="100%" stop-color="#fbbd97"/></radialGradient><radialGradient id="b" fx=".5" fy=".5"><stop offset="0%" stop-color="#ffe600"/><stop offset="29.16%" stop-color="#ffe400"/><stop offset="52.23%" stop-color="#fd0"/><stop offset="73.2%" stop-color="#ffd100"/><stop offset="92.83%" stop-color="#fec00f"/><stop offset="100%" stop-color="#fdb913"/></radialGradient></defs><path fill="#deb958" d="M222.618 106.824s.795.477 2.147-.239c0-1.578.16-4.992.253-6.848-1.689-.281-3.321-.6-4.969-.773.7 2.435 1.545 5.067 2.569 7.86zM236.079 100.938c.916 2.502 1.714 5.742 1.714 5.742s.706.388 1.813-.289c.562-2.26 1.138-7.09 2.104-11.482-2.121 1.837-4.113 3.778-5.631 6.029z"/><path fill="#ccaa4f" d="M223.073 101.26c.257-.514 1.054-.486 1.886-.297.021-.45.041-.866.06-1.225-1.689-.281-3.321-.6-4.969-.773.7 2.436 1.545 5.067 2.569 7.86 0 0 .795.477 2.147-.239 0-.185.002-.398.007-.629-2.425.19-2.373-3.182-1.7-4.697zM239.339 105.28c-.664-2.525.411-4.76 1.679-6.847.208-1.169.437-2.36.692-3.524-2.121 1.836-4.114 3.777-5.631 6.029.916 2.502 1.714 5.742 1.714 5.742s.705.388 1.812-.289c.055-.218.109-.461.163-.724-.248-.069-.429-.206-.429-.387z"/><path fill="#304454" d="M222.618 106.824s-.34 1.518-.025 2.607c.266.242 2.203.411 2.905-.557-.049-.556-.449-1.793-.733-2.289 0 0-1.323.609-2.147.239zM237.696 106.637s.806.483 1.978-.278c.537.622.884 2.803.884 2.803s-1.689 1.275-3.144.548c0 0-.429-2.056.282-3.073z"/><path fill="#f1d285" d="M203.97 74.1s-6.18 3.632-3.12 6.373c3.057 2.737 6.651 1.88 6.913.657 2.009 1.048 5.311-.257 5.311-.257s.348 11.435 6.46 28.108c0 0 .873.526 2.356-.262 0-2.444.349-8.902.349-8.902s7.683 2.182 11.611 1.048c.611 2.618.786 7.506.786 7.506s.611.523 1.832.087c1.222-2.531 3.23-8.73 5.587-13.268 2.356-4.54 3.144-14.317-4.365-13.968-7.507.35-13.792-.261-15.888-2.27-2.095-2.006-1.92-4.888-1.658-7.157.262-2.27-2.269-5.238-4.802-4.89-2.531.35-7.006 1.75-8.817 3.056-1.72 1.24-2.555 4.14-2.555 4.14z"/><path fill="#deb958" d="M237.302 99.066c-4.752 1.097-9.504.183-14.256-.731-.731-.183-2.011-.55-2.559-1.646 1.279 3.108 1.097 6.215.548 9.322 0 .548-1.279 1.097-1.462.548-1.645-4.386-2.714-8.933-3.421-13.647-.978-6.517-2.553-13.892-.417-19.434-2.052 5.324-8.465 5.37-8.693 5.91-.506 1.194-6.393.914-6.393.914 2.109 2.425 6.393 2.454 7.088.829.028-.067.059-.13.092-.188 1.167 1.345 5.219-.07 5.219-.07s.349 11.436 6.46 28.109c0 0 .873.524 2.357-.262 0-2.445.348-8.903.348-8.903s7.683 2.182 11.611 1.047c.611 2.619.786 7.507.786 7.507s.579.493 1.732.12c-1.59-2.744-1.213-6.891.96-9.425z" opacity=".5"/><path fill="#deb958" d="M214.482 69.64c1.227-.308 2.054-1.302 2.48-2.534a3.292 3.292 0 0 0-1.618-.2c-2.317.32-6.167 1.662-8.276 2.758 2.406.558 4.967.551 7.414-.025z"/><path fill="#f4953f" d="M240.922 83.404s-.174-3.316 4.015-3.316c4.19 0 5.412 2.792 4.103 7.245-1.309 4.451-1.135 6.198.35 5.761 0 0 .262-.523-.175-.523 0 0 .785-.175.785.698 0 .872-1.658 1.484-3.055-.087-.087.872 1.484 1.31 2.008 1.31-.786.96-3.23 1.395-4.278-1.049-1.047-2.444-.96-3.84-.96-3.84s-.437-4.453-1.048-4.627c0 0-1.396.088-1.745-1.572z"/><path fill="#2c8fc0" d="M245.386 88.624c-.01-.243-.015-.481-.015-.707-.06.236-.041.471.015.707z"/><path fill="#d78334" d="M245.386 88.624a1.471 1.471 0 0 1-.015-.707c0 .225.005.463.015.707m0 0c.118.496.41.99.533 1.486.365-2.376 1.096-5.85-2.011-6.397.549-.365 1.097-.182 1.645 0-.365-1.096-2.193-.548-2.376-1.096-.183-1.28 1.828-.915 2.925-.915-.537-.356-.9-1.064-1.429-1.608-3.917.138-3.752 3.31-3.752 3.31.349 1.66 1.746 1.572 1.746 1.572.612.174 1.047 4.627 1.047 4.627s-.087 1.396.961 3.84c.814 1.9 2.472 2.06 3.538 1.585-2.121-1.047-2.731-4.05-2.827-6.404z"/><path fill="#304454" d="M219.535 108.982s-.373 1.666-.027 2.862c.291.265 2.418.452 3.189-.611-.054-.612-.494-1.969-.805-2.513 0 .001-1.453.67-2.357.262zM234.549 108.309s.691.638 1.993.133c.398.718.292 2.923.292 2.923s-1.913.904-3.189-.106c.001.001.001-2.099.904-2.95z"/><path fill="#f4953f" d="M216.035 68.45s-3.316 1.484-6.196.873c-2.882-.611-5.762-4.365-3.144-6.372-.174.96.175 3.054 3.144 2.705-.788 0-1.747-1.658-.962-2.705.264.523.962 2.094 3.318 1.309 2.356-.786 7.071-2.095 9.34 1.396 2.269 3.493 1.658 9.692 6.983 9.515.698-.087.611-1.222-.262-1.222 1.659-.175 4.453 5.675-2.88 6.373-2.183.786-6.372-1.571-6.46-5.063-.087-3.492.611-7.333-2.881-6.808z"/><path fill="#d78334" d="M229.953 75.555c-.153.383-.429.7-.891.91-1.463.73-3.473.365-5.118-.549.183.73.365 1.28 1.28 1.28-4.752.911-5.85-4.57-5.301-8.225.184 1.096 1.096 2.376 2.376 2.56-1.115-1.536-.74-3.71-.664-5.71-.032-.054-.065-.11-.1-.165-1.494-2.299-4.051-2.517-6.293-2.172-.994 2.037-1.786 4.268-4.639 3.476.366.548.731.548 1.462.548-1.289.773-2.851 1.183-4.3.844.633.467 1.354.817 2.073.971 2.88.611 6.197-.873 6.197-.873 3.493-.525 2.794 3.317 2.882 6.808.087 3.492 4.277 5.85 6.46 5.063 4.715-.449 5.242-3.028 4.576-4.766z"/><path fill="#f1d285" d="M216.677 70.009s-.915-2.002.515-3.376l1.431-1.372s.915 2.174.4 3.776c-.344 1.2-1.488 1.887-2.346.972z"/><path fill="#f6a5bf" d="M214.857 64.705l.005.018a.085.085 0 0 0-.005-.018m0 0z"/><path fill="#ccaa4f" d="M218.258 66.542s-1.495 1.025-1.239 2.392c.257 1.367 1.154.47 1.368 0 .213-.47-.129-2.392-.129-2.392z"/><path fill="#e8c4dd" d="M225.448 80.514l-.032.053.064.015c-.012-.022-.022-.045-.032-.067z"/><ellipse cx="209.59" cy="73.647" rx=".65" ry="1.079" fill="#304454"/><path fill="#d78334" d="M125.601 381.136c.516.467 3.35 1.141 5.118-1.149 1.152-1.491-1.532-.72-2.145-.806-.631-.089-1.128-1.19-2.292-.914-1.26.299-1.799 1.857-.681 2.869zM128.297 382.917s.789-1.022 1.081-.789c.179.143-.116 2.017-.409 2.601-.292.585-1.402-.117-1.402-.117l.73-1.695z"/><path fill="#f89c44" d="M122.173 382.484s-3.812-1.258-4.41-4.969c-.739-4.582-6.238-3.52-7.672-2.402 0 0 3.017 1.446 3.232 5.633.178 3.481 5.43 5.322 8.356 2.451l.494-.713z"/><path fill="#f4953f" d="M123.678 378.356s-4.058 4.241-3.076 6.765c.882 2.265 6.655 2.572 8.22 2.293.778-.139 1.901-4.263 1.285-4.473-.552-.188-1.23.838-1.23.838s-1.101-5.638-3.338-5.806c-2.236-.168-1.861.383-1.861.383z"/><path fill="url(#a)" d="M128.877 383.779s-1.083-5.536-3.28-5.798l.238 2.285s1.423 3.142 3.042 3.513z"/><path fill="#d14e3f" d="M125.874 378.044c-.655-.054-1.486-.13-2.073.396-.963.864-.692 2.491.774 2.846.411.099 2.049-.218 3.185-1.023-.475-1.036-1.103-1.96-1.886-2.219z"/><path fill="#fedcbd" d="M125.862 378.043a16.416 16.416 0 0 0-.26-.02l.233 2.243s.141.311.384.749a5.875 5.875 0 0 0 1.54-.752c-.477-1.039-1.109-1.967-1.897-2.22z"/><path fill="url(#b)" d="M120.162 363.065s2.77-2.064 6.084-1.684c0 0 1.262-3.174 3.327-3.881 0 0 1.386 2.45 1.433 4.714 0 0 4.204 5.577 4.529 8.348 0 0 2.717-.054 3.314-.38 0 0 1.037-.443.26.515-1.296 1.596-5.122 5.1-8.789 6.493-4.448 1.688-8.474 2.389-11.408 0-2.781-2.267-2.498-9.996-2.498-9.996s-1.576-3.205-1.63-5.595c1.757-.447 5.378 1.466 5.378 1.466z"/><path fill="#f89c44" d="M120.162 363.065s2.902-2.221 6.216-1.841c0 0 1.13-3.017 3.195-3.724 0 0 1.386 2.45 1.432 4.714 0 0 4.204 5.577 4.53 8.348 0 0 2.716-.054 3.313-.38 0 0 1.037-.443.26.515-1.295 1.596-5.121 5.1-8.788 6.493-4.449 1.688-8.474 2.389-11.408 0-2.782-2.267-2.499-9.996-2.499-9.996s-1.575-3.205-1.629-5.595c1.757-.447 5.378 1.466 5.378 1.466z"/><path fill="#f4dbc5" d="M115.983 374.726l-.077 1.002-.839-.168v.895l-.951-.056v.895l-1.006-.112-.365.96c-.936-2.204-2.654-3.029-2.654-3.029.992-.774 3.931-1.519 5.892-.387z"/><path fill="#f4953f" d="M123.577 381.136c.516.467 3.35 1.141 5.118-1.149 1.152-1.491-1.532-.72-2.145-.806-.631-.089-1.128-1.19-2.292-.914-1.26.299-1.799 1.857-.681 2.869z"/><path fill="#f4dbc5" d="M127.717 361.313s1.941.123 3.289.9c-.047-2.264-1.433-4.713-1.433-4.713s-1.945 1.578-1.856 3.813z"/><ellipse cx="127.237" cy="371.22" rx=".527" ry=".876" fill="#304454"/><ellipse cx="132.183" cy="369.448" rx=".395" ry=".876" fill="#304454" transform="rotate(-10.532 132.183 369.448)"/><path fill="#d78334" d="M128.345 358.565s.073-.194.215-.494a4.824 4.824 0 0 0-.516.474c.101.006.2.008.301.02zM139.041 370.115c-1.79 1.616-4.304 3.486-6.753 4.415-4.448 1.689-8.474 2.39-11.408 0-2.781-2.266-2.499-9.996-2.499-9.996s-.579-1.182-1.047-2.644c-.918-.284-1.872-.464-2.55-.292.055 2.39 1.63 5.595 1.63 5.595s-.283 7.73 2.499 9.996c2.934 2.39 6.959 1.689 11.408 0 3.667-1.392 7.493-4.896 8.788-6.493.552-.68.189-.653-.068-.581z" opacity=".5"/><path fill="none" stroke="#414042" d="M122.228 377.851s-.943.514-1.372 1.157M121.413 377.594s-1.071.3-1.457.643" stroke-width=".19" stroke-linecap="round" stroke-linejoin="round"/><path fill="#f4dbc5" d="M114.83 361.706c-.014.032-.025.064-.038.096.134 2.365 1.621 5.391 1.621 5.391.751-1.629 2.53-2.899 2.53-2.899-1.109-1.433-4.113-2.588-4.113-2.588z"/><ellipse cx="138.85" cy="370.344" rx="1.059" ry=".897" fill="#304454"/><path fill="#28ae7b" stroke="#28ae7b" d="M0 400h375v-12.5H0z" stroke-width="2" stroke-dasharray="0"/><path fill="gray" stroke="gray" d="M200 387.5h100v-300H200zM225 87.5h75v-50h-75zM200 37.5h100v-25H200zM200 12.5h12.5V0H200zM237.5 12.5h25V0h-25zM287.5 12.5H300V0h-12.5z" stroke-width="2" stroke-dasharray="0"/><path stroke="#000" d="M200 375h100M200 362.5h100M225 387.5V375M250 387.5V375M275 387.5V375M212.5 375v-12.5M237.5 375v-12.5M262.5 375v-12.5M287.5 375v-12.5M200 350h100M200 337.5h100M225 362.5V350M250 362.5V350M275 362.5V350M212.5 350v-12.5M237.5 350v-12.5M262.5 350v-12.5M287.5 350v-12.5M200 325h100M200 312.5h100M225 337.5V325M250 337.5V325M275 337.5V325M212.5 325v-12.5M237.5 325v-12.5M262.5 325v-12.5M287.5 325v-12.5M200 300h100M200 287.5h100M225 312.5V300M250 312.5V300M275 312.5V300M212.5 300v-12.5M237.5 300v-12.5M262.5 300v-12.5M287.5 300v-12.5M200 275h100M200 262.5h100M225 287.5V275M250 287.5V275M275 287.5V275M212.5 275v-12.5M237.5 275v-12.5M262.5 275v-12.5M287.5 275v-12.5M200 250h100M200 237.5h100M225 262.5V250M250 262.5V250M275 262.5V250M212.5 250v-12.5M237.5 250v-12.5M262.5 250v-12.5M287.5 250v-12.5M200 225h100M200 212.5h100M225 237.5V225M250 237.5V225M275 237.5V225M212.5 225v-12.5M237.5 225v-12.5M262.5 225v-12.5M287.5 225v-12.5M200 200h100M200 187.5h100M225 212.5V200M250 212.5V200M275 212.5V200M212.5 200v-12.5M237.5 200v-12.5M262.5 200v-12.5M287.5 200v-12.5M200 175h100M200 162.5h100M225 187.5V175M250 187.5V175M275 187.5V175M212.5 175v-12.5M237.5 175v-12.5M262.5 175v-12.5M287.5 175v-12.5M200 150h100M200 137.5h100M225 162.5V150M250 162.5V150M275 162.5V150M212.5 150v-12.5M237.5 150v-12.5M262.5 150v-12.5M287.5 150v-12.5M200 125h100M200 112.5h100M225 137.5V125M250 137.5V125M275 137.5V125M212.5 125v-12.5M237.5 125v-12.5M262.5 125v-12.5M287.5 125v-12.5M200 100h100M200 87.5h100M225 112.5V100M250 112.5V100M275 112.5V100M212.5 100V87.5M237.5 100V87.5M262.5 100V87.5M287.5 100V87.5M225 75h75M225 62.5h75M225 87.5V75M250 87.5V75M275 87.5V75M237.5 75V62.5M262.5 75V62.5M287.5 75V62.5M225 50h75M225 37.5h75M225 62.5V50M250 62.5V50M275 62.5V50M237.5 50V37.5M262.5 50V37.5M287.5 50V37.5M200 25h100M200 12.5h100M225 37.5V25M250 37.5V25M275 37.5V25M212.5 25V12.5M237.5 25V12.5M262.5 25V12.5M287.5 25V12.5" stroke-width="2" stroke-dasharray="0" fill="none"/><path fill="orange" stroke="orange" d="M195 387.5h5V203.75h-5z" stroke-width="2" fill-opacity=".7" stroke-dasharray="0"/><path fill="none" stroke="#000" d="M194.5 200.5c-3-1-5-6-6-10 0 0-1-3-1-6v-27.25c0-5-3-10-3-10l-4-3 4-3s3-5 3-10V104c1-3 1-6 1-6 1-4 3-9 6-10M192 385.5c-3-1-5-6-6-10 0 0-1-3-1-6v-62.25c0-5-3-10-3-10l-4-3 4-3s3-5 3-10V219c1-3 1-6 1-6 1-4 3-9 6-10"/></svg>
