<svg xmlns="http://www.w3.org/2000/svg" width="320" height="176" viewBox="0 0 320 176"><path fill="#7854ab" stroke="#000" d="M6.154 44v36h307.692V44H6.154" stroke-width="2" fill-opacity=".3"/><path fill="#ca337c" stroke="#000" d="M6.154 84v36h39.16V84H6.155" stroke-width="2" fill-opacity=".3"/><path fill="#11accd" stroke="#000" d="M45.315 84v36h268.531V84H45.315" stroke-width="2" fill-opacity=".3"/><path fill="none" stroke="#000" d="M6.154 44c1-3 6-5 10-6 0 0 3-1 6-1H147c5 0 10-3 10-3l3-4 3 4s5 3 10 3h124.846c3 1 6 1 6 1 4 1 9 3 10 6M45.315 120c-.675 3-4.051 5-6.752 6 0 0-2.025 1-4.051 1-3.376 0-6.752 3-6.752 3l-2.025 4-2.026-4s-3.376-3-6.752-3c-2.025-1-4.051-1-4.051-1-2.701-1-6.077-3-6.752-6M313.846 120c-1 3-6 5-10 6 0 0-3 1-6 1H192.58c-5 0-10 3-10 3l-3 4-3-4s-5-3-10-3H61.315c-3-1-6-1-6-1-4-1-9-3-10-6"/></svg>
