<svg xmlns="http://www.w3.org/2000/svg" width="316.574" height="130" viewBox="0 0 316.57407407407413 130"><path fill="#ccfaff" stroke="#0c7f99" d="M6.019 116.759v12.037h12.037l6.018-6.018v-12.037H12.037z" stroke-width="2"/><path fill="#ccfaff" stroke="#0c7f99" d="M6.019 116.759h12.037v12.037M18.056 116.759l6.018-6.018" stroke-width="2"/><path fill="#ccfaff" stroke="#0c7f99" d="M6.019 104.722v12.037h12.037l6.018-6.018V98.704H12.037z" stroke-width="2"/><path fill="#ccfaff" stroke="#0c7f99" d="M6.019 104.722h12.037v12.037M18.056 104.722l6.018-6.018" stroke-width="2"/><path fill="#ccfaff" stroke="#0c7f99" d="M6.019 92.685v12.037h12.037l6.018-6.018V86.667H12.037z" stroke-width="2"/><path fill="#ccfaff" stroke="#0c7f99" d="M6.019 92.685h12.037v12.037M18.056 92.685l6.018-6.018" stroke-width="2"/><path fill="#ccfaff" stroke="#0c7f99" d="M6.019 80.648v12.037h12.037l6.018-6.018V74.63H12.037z" stroke-width="2"/><path fill="#ccfaff" stroke="#0c7f99" d="M6.019 80.648h12.037v12.037M18.056 80.648l6.018-6.018" stroke-width="2"/><path fill="#ccfaff" stroke="#0c7f99" d="M6.019 68.611v12.037h12.037l6.018-6.018V62.593H12.037z" stroke-width="2"/><path fill="#ccfaff" stroke="#0c7f99" d="M6.019 68.611h12.037v12.037M18.056 68.611l6.018-6.018" stroke-width="2"/><path fill="#ccfaff" stroke="#0c7f99" d="M6.019 56.574v12.037h12.037l6.018-6.018V50.556H12.037z" stroke-width="2"/><path fill="#ccfaff" stroke="#0c7f99" d="M6.019 56.574h12.037v12.037M18.056 56.574l6.018-6.018" stroke-width="2"/><path fill="#ccfaff" stroke="#0c7f99" d="M6.019 44.537v12.037h12.037l6.018-6.018V38.519H12.037z" stroke-width="2"/><path fill="#ccfaff" stroke="#0c7f99" d="M6.019 44.537h12.037v12.037M18.056 44.537l6.018-6.018" stroke-width="2"/><path fill="#ccfaff" stroke="#0c7f99" d="M6.019 32.5v12.037h12.037l6.018-6.018V26.482H12.037z" stroke-width="2"/><path fill="#ccfaff" stroke="#0c7f99" d="M6.019 32.5h12.037v12.037M18.056 32.5l6.018-6.018" stroke-width="2"/><path fill="#ccfaff" stroke="#0c7f99" d="M6.019 20.463V32.5h12.037l6.018-6.018V14.444H12.037z" stroke-width="2"/><path fill="#ccfaff" stroke="#0c7f99" d="M6.019 20.463h12.037V32.5M18.056 20.463l6.018-6.019" stroke-width="2"/><path fill="#ccfaff" stroke="#0c7f99" d="M6.019 8.426v12.037h12.037l6.018-6.019V2.407H12.037z" stroke-width="2"/><path fill="#ccfaff" stroke="#0c7f99" d="M6.019 8.426h12.037v12.037M18.056 8.426l6.018-6.019M30.093 116.759v12.037H42.13l6.018-6.018v-12.037H36.111z" stroke-width="2"/><path fill="#ccfaff" stroke="#0c7f99" d="M30.093 116.759H42.13v12.037M42.13 116.759l6.018-6.018M30.093 92.685v12.037H42.13l6.018-6.018V86.667H36.111z" stroke-width="2"/><path fill="#ccfaff" stroke="#0c7f99" d="M30.093 92.685H42.13v12.037M42.13 92.685l6.018-6.018M30.093 68.611v12.037H42.13l6.018-6.018V62.593H36.111z" stroke-width="2"/><path fill="#ccfaff" stroke="#0c7f99" d="M30.093 68.611H42.13v12.037M42.13 68.611l6.018-6.018M30.093 44.537v12.037H42.13l6.018-6.018V38.519H36.111z" stroke-width="2"/><path fill="#ccfaff" stroke="#0c7f99" d="M30.093 44.537H42.13v12.037M42.13 44.537l6.018-6.018M30.093 20.463V32.5H42.13l6.018-6.018V14.444H36.111z" stroke-width="2"/><path fill="#ccfaff" stroke="#0c7f99" d="M30.093 20.463H42.13V32.5M42.13 20.463l6.018-6.019M54.167 116.759v12.037h12.037l6.018-6.018v-12.037H60.185z" stroke-width="2"/><path fill="#ccfaff" stroke="#0c7f99" d="M54.167 116.759h12.037v12.037M66.204 116.759l6.018-6.018" stroke-width="2"/><path fill="#ffbde0" stroke="#9e034e" d="M102.315 116.759v12.037h12.037l6.018-6.018v-12.037h-12.037z" stroke-width="2"/><path fill="#ffbde0" stroke="#9e034e" d="M102.315 116.759h12.037v12.037M114.352 116.759l6.018-6.018" stroke-width="2"/><path fill="#ffbde0" stroke="#9e034e" d="M102.315 104.722v12.037h12.037l6.018-6.018V98.704h-12.037z" stroke-width="2"/><path fill="#ffbde0" stroke="#9e034e" d="M102.315 104.722h12.037v12.037M114.352 104.722l6.018-6.018" stroke-width="2"/><path fill="#ffbde0" stroke="#9e034e" d="M102.315 92.685v12.037h12.037l6.018-6.018V86.667h-12.037z" stroke-width="2"/><path fill="#ffbde0" stroke="#9e034e" d="M102.315 92.685h12.037v12.037M114.352 92.685l6.018-6.018" stroke-width="2"/><path fill="#ffbde0" stroke="#9e034e" d="M102.315 80.648v12.037h12.037l6.018-6.018V74.63h-12.037z" stroke-width="2"/><path fill="#ffbde0" stroke="#9e034e" d="M102.315 80.648h12.037v12.037M114.352 80.648l6.018-6.018" stroke-width="2"/><path fill="#ffbde0" stroke="#9e034e" d="M102.315 68.611v12.037h12.037l6.018-6.018V62.593h-12.037z" stroke-width="2"/><path fill="#ffbde0" stroke="#9e034e" d="M102.315 68.611h12.037v12.037M114.352 68.611l6.018-6.018" stroke-width="2"/><path fill="#ffbde0" stroke="#9e034e" d="M102.315 56.574v12.037h12.037l6.018-6.018V50.556h-12.037z" stroke-width="2"/><path fill="#ffbde0" stroke="#9e034e" d="M102.315 56.574h12.037v12.037M114.352 56.574l6.018-6.018" stroke-width="2"/><path fill="#ffbde0" stroke="#9e034e" d="M102.315 44.537v12.037h12.037l6.018-6.018V38.519h-12.037z" stroke-width="2"/><path fill="#ffbde0" stroke="#9e034e" d="M102.315 44.537h12.037v12.037M114.352 44.537l6.018-6.018" stroke-width="2"/><path fill="#ffbde0" stroke="#9e034e" d="M102.315 32.5v12.037h12.037l6.018-6.018V26.482h-12.037z" stroke-width="2"/><path fill="#ffbde0" stroke="#9e034e" d="M102.315 32.5h12.037v12.037M114.352 32.5l6.018-6.018" stroke-width="2"/><path fill="#ffbde0" stroke="#9e034e" d="M102.315 20.463V32.5h12.037l6.018-6.018V14.444h-12.037z" stroke-width="2"/><path fill="#ffbde0" stroke="#9e034e" d="M102.315 20.463h12.037V32.5M114.352 20.463l6.018-6.019" stroke-width="2"/><path fill="#ffbde0" stroke="#9e034e" d="M102.315 8.426v12.037h12.037l6.018-6.019V2.407h-12.037z" stroke-width="2"/><path fill="#ffbde0" stroke="#9e034e" d="M102.315 8.426h12.037v12.037M114.352 8.426l6.018-6.019M126.389 116.759v12.037h12.037l6.018-6.018v-12.037h-12.037z" stroke-width="2"/><path fill="#ffbde0" stroke="#9e034e" d="M126.389 116.759h12.037v12.037M138.426 116.759l6.018-6.018" stroke-width="2"/><path fill="#ffbde0" stroke="#9e034e" d="M126.389 104.722v12.037h12.037l6.018-6.018V98.704h-12.037z" stroke-width="2"/><path fill="#ffbde0" stroke="#9e034e" d="M126.389 104.722h12.037v12.037M138.426 104.722l6.018-6.018" stroke-width="2"/><path fill="#ffbde0" stroke="#9e034e" d="M126.389 92.685v12.037h12.037l6.018-6.018V86.667h-12.037z" stroke-width="2"/><path fill="#ffbde0" stroke="#9e034e" d="M126.389 92.685h12.037v12.037M138.426 92.685l6.018-6.018" stroke-width="2"/><path fill="#ffbde0" stroke="#9e034e" d="M126.389 80.648v12.037h12.037l6.018-6.018V74.63h-12.037z" stroke-width="2"/><path fill="#ffbde0" stroke="#9e034e" d="M126.389 80.648h12.037v12.037M138.426 80.648l6.018-6.018" stroke-width="2"/><path fill="#ffbde0" stroke="#9e034e" d="M126.389 68.611v12.037h12.037l6.018-6.018V62.593h-12.037z" stroke-width="2"/><path fill="#ffbde0" stroke="#9e034e" d="M126.389 68.611h12.037v12.037M138.426 68.611l6.018-6.018" stroke-width="2"/><path fill="#ffbde0" stroke="#9e034e" d="M126.389 56.574v12.037h12.037l6.018-6.018V50.556h-12.037z" stroke-width="2"/><path fill="#ffbde0" stroke="#9e034e" d="M126.389 56.574h12.037v12.037M138.426 56.574l6.018-6.018" stroke-width="2"/><path fill="#ffbde0" stroke="#9e034e" d="M126.389 44.537v12.037h12.037l6.018-6.018V38.519h-12.037z" stroke-width="2"/><path fill="#ffbde0" stroke="#9e034e" d="M126.389 44.537h12.037v12.037M138.426 44.537l6.018-6.018" stroke-width="2"/><path fill="#ffbde0" stroke="#9e034e" d="M126.389 32.5v12.037h12.037l6.018-6.018V26.482h-12.037z" stroke-width="2"/><path fill="#ffbde0" stroke="#9e034e" d="M126.389 32.5h12.037v12.037M138.426 32.5l6.018-6.018" stroke-width="2"/><path fill="#ffbde0" stroke="#9e034e" d="M126.389 20.463V32.5h12.037l6.018-6.018V14.444h-12.037z" stroke-width="2"/><path fill="#ffbde0" stroke="#9e034e" d="M126.389 20.463h12.037V32.5M138.426 20.463l6.018-6.019" stroke-width="2"/><path fill="#ffbde0" stroke="#9e034e" d="M126.389 8.426v12.037h12.037l6.018-6.019V2.407h-12.037z" stroke-width="2"/><path fill="#ffbde0" stroke="#9e034e" d="M126.389 8.426h12.037v12.037M138.426 8.426l6.018-6.019M150.463 116.759v12.037H162.5l6.019-6.018v-12.037h-12.038z" stroke-width="2"/><path fill="#ffbde0" stroke="#9e034e" d="M150.463 116.759H162.5v12.037M162.5 116.759l6.019-6.018" stroke-width="2"/><path fill="#ccfaff" stroke="#0c7f99" d="M198.611 116.759v12.037h12.037l6.019-6.018v-12.037H204.63z" stroke-width="2"/><path fill="#ccfaff" stroke="#0c7f99" d="M198.611 116.759h12.037v12.037M210.648 116.759l6.019-6.018" stroke-width="2"/><path fill="#ccfaff" stroke="#0c7f99" d="M198.611 104.722v12.037h12.037l6.019-6.018V98.704H204.63z" stroke-width="2"/><path fill="#ccfaff" stroke="#0c7f99" d="M198.611 104.722h12.037v12.037M210.648 104.722l6.019-6.018" stroke-width="2"/><path fill="#ccfaff" stroke="#0c7f99" d="M198.611 92.685v12.037h12.037l6.019-6.018V86.667H204.63z" stroke-width="2"/><path fill="#ccfaff" stroke="#0c7f99" d="M198.611 92.685h12.037v12.037M210.648 92.685l6.019-6.018" stroke-width="2"/><path fill="#ccfaff" stroke="#0c7f99" d="M198.611 80.648v12.037h12.037l6.019-6.018V74.63H204.63z" stroke-width="2"/><path fill="#ccfaff" stroke="#0c7f99" d="M198.611 80.648h12.037v12.037M210.648 80.648l6.019-6.018" stroke-width="2"/><path fill="#ccfaff" stroke="#0c7f99" d="M198.611 68.611v12.037h12.037l6.019-6.018V62.593H204.63z" stroke-width="2"/><path fill="#ccfaff" stroke="#0c7f99" d="M198.611 68.611h12.037v12.037M210.648 68.611l6.019-6.018" stroke-width="2"/><path fill="#ccfaff" stroke="#0c7f99" d="M198.611 56.574v12.037h12.037l6.019-6.018V50.556H204.63z" stroke-width="2"/><path fill="#ccfaff" stroke="#0c7f99" d="M198.611 56.574h12.037v12.037M210.648 56.574l6.019-6.018" stroke-width="2"/><path fill="#ccfaff" stroke="#0c7f99" d="M198.611 44.537v12.037h12.037l6.019-6.018V38.519H204.63z" stroke-width="2"/><path fill="#ccfaff" stroke="#0c7f99" d="M198.611 44.537h12.037v12.037M210.648 44.537l6.019-6.018" stroke-width="2"/><path fill="#ccfaff" stroke="#0c7f99" d="M198.611 32.5v12.037h12.037l6.019-6.018V26.482H204.63z" stroke-width="2"/><path fill="#ccfaff" stroke="#0c7f99" d="M198.611 32.5h12.037v12.037M210.648 32.5l6.019-6.018" stroke-width="2"/><path fill="#ccfaff" stroke="#0c7f99" d="M198.611 20.463V32.5h12.037l6.019-6.018V14.444H204.63z" stroke-width="2"/><path fill="#ccfaff" stroke="#0c7f99" d="M198.611 20.463h12.037V32.5M210.648 20.463l6.019-6.019" stroke-width="2"/><path fill="#ccfaff" stroke="#0c7f99" d="M198.611 8.426v12.037h12.037l6.019-6.019V2.407H204.63z" stroke-width="2"/><path fill="#ccfaff" stroke="#0c7f99" d="M198.611 8.426h12.037v12.037M210.648 8.426l6.019-6.019" stroke-width="2"/><path fill="#ffbde0" stroke="#9e034e" d="M222.685 116.759v12.037h12.037l6.019-6.018v-12.037h-12.037z" stroke-width="2"/><path fill="#ffbde0" stroke="#9e034e" d="M222.685 116.759h12.037v12.037M234.722 116.759l6.019-6.018" stroke-width="2"/><path fill="#ffbde0" stroke="#9e034e" d="M222.685 104.722v12.037h12.037l6.019-6.018V98.704h-12.037z" stroke-width="2"/><path fill="#ffbde0" stroke="#9e034e" d="M222.685 104.722h12.037v12.037M234.722 104.722l6.019-6.018" stroke-width="2"/><path fill="#ffbde0" stroke="#9e034e" d="M222.685 92.685v12.037h12.037l6.019-6.018V86.667h-12.037z" stroke-width="2"/><path fill="#ffbde0" stroke="#9e034e" d="M222.685 92.685h12.037v12.037M234.722 92.685l6.019-6.018" stroke-width="2"/><path fill="#ffbde0" stroke="#9e034e" d="M222.685 80.648v12.037h12.037l6.019-6.018V74.63h-12.037z" stroke-width="2"/><path fill="#ffbde0" stroke="#9e034e" d="M222.685 80.648h12.037v12.037M234.722 80.648l6.019-6.018" stroke-width="2"/><path fill="#ffbde0" stroke="#9e034e" d="M222.685 68.611v12.037h12.037l6.019-6.018V62.593h-12.037z" stroke-width="2"/><path fill="#ffbde0" stroke="#9e034e" d="M222.685 68.611h12.037v12.037M234.722 68.611l6.019-6.018" stroke-width="2"/><path fill="#ffbde0" stroke="#9e034e" d="M222.685 56.574v12.037h12.037l6.019-6.018V50.556h-12.037z" stroke-width="2"/><path fill="#ffbde0" stroke="#9e034e" d="M222.685 56.574h12.037v12.037M234.722 56.574l6.019-6.018" stroke-width="2"/><path fill="#ffbde0" stroke="#9e034e" d="M222.685 44.537v12.037h12.037l6.019-6.018V38.519h-12.037z" stroke-width="2"/><path fill="#ffbde0" stroke="#9e034e" d="M222.685 44.537h12.037v12.037M234.722 44.537l6.019-6.018" stroke-width="2"/><path fill="#ffbde0" stroke="#9e034e" d="M222.685 32.5v12.037h12.037l6.019-6.018V26.482h-12.037z" stroke-width="2"/><path fill="#ffbde0" stroke="#9e034e" d="M222.685 32.5h12.037v12.037M234.722 32.5l6.019-6.018" stroke-width="2"/><path fill="#ffbde0" stroke="#9e034e" d="M222.685 20.463V32.5h12.037l6.019-6.018V14.444h-12.037z" stroke-width="2"/><path fill="#ffbde0" stroke="#9e034e" d="M222.685 20.463h12.037V32.5M234.722 20.463l6.019-6.019" stroke-width="2"/><path fill="#ffbde0" stroke="#9e034e" d="M222.685 8.426v12.037h12.037l6.019-6.019V2.407h-12.037z" stroke-width="2"/><path fill="#ffbde0" stroke="#9e034e" d="M222.685 8.426h12.037v12.037M234.722 8.426l6.019-6.019M246.759 116.759v12.037h12.037l6.019-6.018v-12.037h-12.037z" stroke-width="2"/><path fill="#ffbde0" stroke="#9e034e" d="M246.759 116.759h12.037v12.037M258.796 116.759l6.019-6.018" stroke-width="2"/><path fill="#ffbde0" stroke="#9e034e" d="M246.759 104.722v12.037h12.037l6.019-6.018V98.704h-12.037z" stroke-width="2"/><path fill="#ffbde0" stroke="#9e034e" d="M246.759 104.722h12.037v12.037M258.796 104.722l6.019-6.018" stroke-width="2"/><path fill="#ffbde0" stroke="#9e034e" d="M246.759 92.685v12.037h12.037l6.019-6.018V86.667h-12.037z" stroke-width="2"/><path fill="#ffbde0" stroke="#9e034e" d="M246.759 92.685h12.037v12.037M258.796 92.685l6.019-6.018" stroke-width="2"/><path fill="#ffbde0" stroke="#9e034e" d="M246.759 80.648v12.037h12.037l6.019-6.018V74.63h-12.037z" stroke-width="2"/><path fill="#ffbde0" stroke="#9e034e" d="M246.759 80.648h12.037v12.037M258.796 80.648l6.019-6.018" stroke-width="2"/><path fill="#ffbde0" stroke="#9e034e" d="M246.759 68.611v12.037h12.037l6.019-6.018V62.593h-12.037z" stroke-width="2"/><path fill="#ffbde0" stroke="#9e034e" d="M246.759 68.611h12.037v12.037M258.796 68.611l6.019-6.018" stroke-width="2"/><path fill="#ffbde0" stroke="#9e034e" d="M246.759 56.574v12.037h12.037l6.019-6.018V50.556h-12.037z" stroke-width="2"/><path fill="#ffbde0" stroke="#9e034e" d="M246.759 56.574h12.037v12.037M258.796 56.574l6.019-6.018" stroke-width="2"/><path fill="#ffbde0" stroke="#9e034e" d="M246.759 44.537v12.037h12.037l6.019-6.018V38.519h-12.037z" stroke-width="2"/><path fill="#ffbde0" stroke="#9e034e" d="M246.759 44.537h12.037v12.037M258.796 44.537l6.019-6.018" stroke-width="2"/><path fill="#ffbde0" stroke="#9e034e" d="M246.759 32.5v12.037h12.037l6.019-6.018V26.482h-12.037z" stroke-width="2"/><path fill="#ffbde0" stroke="#9e034e" d="M246.759 32.5h12.037v12.037M258.796 32.5l6.019-6.018" stroke-width="2"/><path fill="#ffbde0" stroke="#9e034e" d="M246.759 20.463V32.5h12.037l6.019-6.018V14.444h-12.037z" stroke-width="2"/><path fill="#ffbde0" stroke="#9e034e" d="M246.759 20.463h12.037V32.5M258.796 20.463l6.019-6.019" stroke-width="2"/><path fill="#ffbde0" stroke="#9e034e" d="M246.759 8.426v12.037h12.037l6.019-6.019V2.407h-12.037z" stroke-width="2"/><path fill="#ffbde0" stroke="#9e034e" d="M246.759 8.426h12.037v12.037M258.796 8.426l6.019-6.019" stroke-width="2"/><path fill="#ccfaff" stroke="#0c7f99" d="M270.833 116.759v12.037h12.037l6.019-6.018v-12.037h-12.037z" stroke-width="2"/><path fill="#ccfaff" stroke="#0c7f99" d="M270.833 116.759h12.037v12.037M282.87 116.759l6.019-6.018M270.833 92.685v12.037h12.037l6.019-6.018V86.667h-12.037z" stroke-width="2"/><path fill="#ccfaff" stroke="#0c7f99" d="M270.833 92.685h12.037v12.037M282.87 92.685l6.019-6.018M270.833 68.611v12.037h12.037l6.019-6.018V62.593h-12.037z" stroke-width="2"/><path fill="#ccfaff" stroke="#0c7f99" d="M270.833 68.611h12.037v12.037M282.87 68.611l6.019-6.018M270.833 44.537v12.037h12.037l6.019-6.018V38.519h-12.037z" stroke-width="2"/><path fill="#ccfaff" stroke="#0c7f99" d="M270.833 44.537h12.037v12.037M282.87 44.537l6.019-6.018M270.833 20.463V32.5h12.037l6.019-6.018V14.444h-12.037z" stroke-width="2"/><path fill="#ccfaff" stroke="#0c7f99" d="M270.833 20.463h12.037V32.5M282.87 20.463l6.019-6.019M294.907 116.759v12.037h12.037l6.019-6.018v-12.037h-12.037z" stroke-width="2"/><path fill="#ccfaff" stroke="#0c7f99" d="M294.907 116.759h12.037v12.037M306.944 116.759l6.019-6.018" stroke-width="2"/><path fill="#ffbde0" stroke="#9e034e" d="M294.907 92.685v12.037h12.037l6.019-6.018V86.667h-12.037z" stroke-width="2"/><path fill="#ffbde0" stroke="#9e034e" d="M294.907 92.685h12.037v12.037M306.944 92.685l6.019-6.018" stroke-width="2"/></svg>
