<svg xmlns="http://www.w3.org/2000/svg" width="320" height="176" viewBox="0 0 320 176"><path fill="#e07d10" stroke="#000" d="M6.154 44v36h307.692V44H6.154" stroke-width="2" fill-opacity=".3"/><path fill="#0c7f99" stroke="#000" d="M6.154 84v36h253.102V84H6.154" stroke-width="2" fill-opacity=".3"/><path fill="#ca337c" stroke="#000" d="M259.256 84v36h54.59V84h-54.59" stroke-width="2" fill-opacity=".3"/><path fill="none" stroke="#000" d="M6.154 44c1-3 6-5 10-6 0 0 3-1 6-1H147c5 0 10-3 10-3l3-4 3 4s5 3 10 3h124.846c3 1 6 1 6 1 4 1 9 3 10 6M259.256 120c-1 3-6 5-10 6 0 0-3 1-6 1h-97.552c-5 0-10 3-10 3l-3 4-3-4s-5-3-10-3h-97.55c-3-1-6-1-6-1-4-1-9-3-10-6"/><path fill="none" stroke="#000" d="M313.846 120c-.941 3-5.647 5-9.412 6 0 0-2.824 1-5.647 1-4.707 0-9.413 3-9.413 3l-2.823 4-2.824-4s-4.706-3-9.412-3c-2.824-1-5.647-1-5.647-1-3.765-1-8.471-3-9.413-6"/></svg>
