<svg xmlns="http://www.w3.org/2000/svg" width="220.278" height="130" viewBox="0 0 220.2777777777778 130"><path fill="#ccfaff" stroke="#0c7f99" d="M6.019 116.759v12.037h12.037l6.018-6.018v-12.037H12.037z" stroke-width="2"/><path fill="#ccfaff" stroke="#0c7f99" d="M6.019 116.759h12.037v12.037M18.056 116.759l6.018-6.018" stroke-width="2"/><path fill="#ccfaff" stroke="#0c7f99" d="M6.019 104.722v12.037h12.037l6.018-6.018V98.704H12.037z" stroke-width="2"/><path fill="#ccfaff" stroke="#0c7f99" d="M6.019 104.722h12.037v12.037M18.056 104.722l6.018-6.018" stroke-width="2"/><path fill="#ccfaff" stroke="#0c7f99" d="M6.019 92.685v12.037h12.037l6.018-6.018V86.667H12.037z" stroke-width="2"/><path fill="#ccfaff" stroke="#0c7f99" d="M6.019 92.685h12.037v12.037M18.056 92.685l6.018-6.018" stroke-width="2"/><path fill="#ccfaff" stroke="#0c7f99" d="M6.019 80.648v12.037h12.037l6.018-6.018V74.63H12.037z" stroke-width="2"/><path fill="#ccfaff" stroke="#0c7f99" d="M6.019 80.648h12.037v12.037M18.056 80.648l6.018-6.018" stroke-width="2"/><path fill="#ccfaff" stroke="#0c7f99" d="M6.019 68.611v12.037h12.037l6.018-6.018V62.593H12.037z" stroke-width="2"/><path fill="#ccfaff" stroke="#0c7f99" d="M6.019 68.611h12.037v12.037M18.056 68.611l6.018-6.018" stroke-width="2"/><path fill="#ccfaff" stroke="#0c7f99" d="M6.019 56.574v12.037h12.037l6.018-6.018V50.556H12.037z" stroke-width="2"/><path fill="#ccfaff" stroke="#0c7f99" d="M6.019 56.574h12.037v12.037M18.056 56.574l6.018-6.018" stroke-width="2"/><path fill="#ccfaff" stroke="#0c7f99" d="M6.019 44.537v12.037h12.037l6.018-6.018V38.519H12.037z" stroke-width="2"/><path fill="#ccfaff" stroke="#0c7f99" d="M6.019 44.537h12.037v12.037M18.056 44.537l6.018-6.018" stroke-width="2"/><path fill="#ccfaff" stroke="#0c7f99" d="M6.019 32.5v12.037h12.037l6.018-6.018V26.482H12.037z" stroke-width="2"/><path fill="#ccfaff" stroke="#0c7f99" d="M6.019 32.5h12.037v12.037M18.056 32.5l6.018-6.018" stroke-width="2"/><path fill="#ccfaff" stroke="#0c7f99" d="M6.019 20.463V32.5h12.037l6.018-6.018V14.444H12.037z" stroke-width="2"/><path fill="#ccfaff" stroke="#0c7f99" d="M6.019 20.463h12.037V32.5M18.056 20.463l6.018-6.019" stroke-width="2"/><path fill="#ccfaff" stroke="#0c7f99" d="M6.019 8.426v12.037h12.037l6.018-6.019V2.407H12.037z" stroke-width="2"/><path fill="#ccfaff" stroke="#0c7f99" d="M6.019 8.426h12.037v12.037M18.056 8.426l6.018-6.019M30.093 116.759v12.037H42.13l6.018-6.018v-12.037H36.111z" stroke-width="2"/><path fill="#ccfaff" stroke="#0c7f99" d="M30.093 116.759H42.13v12.037M42.13 116.759l6.018-6.018" stroke-width="2"/><path fill="#ffbde0" stroke="#9e034e" d="M78.24 116.759v12.037h12.038l6.018-6.018v-12.037H84.26z" stroke-width="2"/><path fill="#ffbde0" stroke="#9e034e" d="M78.24 116.759h12.038v12.037M90.278 116.759l6.018-6.018" stroke-width="2"/><path fill="#ffbde0" stroke="#9e034e" d="M78.24 104.722v12.037h12.038l6.018-6.018V98.704H84.26z" stroke-width="2"/><path fill="#ffbde0" stroke="#9e034e" d="M78.24 104.722h12.038v12.037M90.278 104.722l6.018-6.018" stroke-width="2"/><path fill="#ffbde0" stroke="#9e034e" d="M78.24 92.685v12.037h12.038l6.018-6.018V86.667H84.26z" stroke-width="2"/><path fill="#ffbde0" stroke="#9e034e" d="M78.24 92.685h12.038v12.037M90.278 92.685l6.018-6.018" stroke-width="2"/><path fill="#ffbde0" stroke="#9e034e" d="M78.24 80.648v12.037h12.038l6.018-6.018V74.63H84.26z" stroke-width="2"/><path fill="#ffbde0" stroke="#9e034e" d="M78.24 80.648h12.038v12.037M90.278 80.648l6.018-6.018" stroke-width="2"/><path fill="#ffbde0" stroke="#9e034e" d="M78.24 68.611v12.037h12.038l6.018-6.018V62.593H84.26z" stroke-width="2"/><path fill="#ffbde0" stroke="#9e034e" d="M78.24 68.611h12.038v12.037M90.278 68.611l6.018-6.018" stroke-width="2"/><path fill="#ffbde0" stroke="#9e034e" d="M78.24 56.574v12.037h12.038l6.018-6.018V50.556H84.26z" stroke-width="2"/><path fill="#ffbde0" stroke="#9e034e" d="M78.24 56.574h12.038v12.037M90.278 56.574l6.018-6.018" stroke-width="2"/><path fill="#ffbde0" stroke="#9e034e" d="M78.24 44.537v12.037h12.038l6.018-6.018V38.519H84.26z" stroke-width="2"/><path fill="#ffbde0" stroke="#9e034e" d="M78.24 44.537h12.038v12.037M90.278 44.537l6.018-6.018" stroke-width="2"/><path fill="#ffbde0" stroke="#9e034e" d="M78.24 32.5v12.037h12.038l6.018-6.018V26.482H84.26z" stroke-width="2"/><path fill="#ffbde0" stroke="#9e034e" d="M78.24 32.5h12.038v12.037M90.278 32.5l6.018-6.018" stroke-width="2"/><path fill="#ffbde0" stroke="#9e034e" d="M78.24 20.463V32.5h12.038l6.018-6.018V14.444H84.26z" stroke-width="2"/><path fill="#ffbde0" stroke="#9e034e" d="M78.24 20.463h12.038V32.5M90.278 20.463l6.018-6.019" stroke-width="2"/><path fill="#ffbde0" stroke="#9e034e" d="M78.24 8.426v12.037h12.038l6.018-6.019V2.407H84.26z" stroke-width="2"/><path fill="#ffbde0" stroke="#9e034e" d="M78.24 8.426h12.038v12.037M90.278 8.426l6.018-6.019M102.315 116.759v12.037h12.037l6.018-6.018v-12.037h-12.037z" stroke-width="2"/><path fill="#ffbde0" stroke="#9e034e" d="M102.315 116.759h12.037v12.037M114.352 116.759l6.018-6.018M102.315 92.685v12.037h12.037l6.018-6.018V86.667h-12.037z" stroke-width="2"/><path fill="#ffbde0" stroke="#9e034e" d="M102.315 92.685h12.037v12.037M114.352 92.685l6.018-6.018M102.315 68.611v12.037h12.037l6.018-6.018V62.593h-12.037z" stroke-width="2"/><path fill="#ffbde0" stroke="#9e034e" d="M102.315 68.611h12.037v12.037M114.352 68.611l6.018-6.018" stroke-width="2"/><path fill="#ccfaff" stroke="#0c7f99" d="M150.463 116.759v12.037H162.5l6.019-6.018v-12.037h-12.038z" stroke-width="2"/><path fill="#ccfaff" stroke="#0c7f99" d="M150.463 116.759H162.5v12.037M162.5 116.759l6.019-6.018" stroke-width="2"/><path fill="#ccfaff" stroke="#0c7f99" d="M150.463 104.722v12.037H162.5l6.019-6.018V98.704h-12.038z" stroke-width="2"/><path fill="#ccfaff" stroke="#0c7f99" d="M150.463 104.722H162.5v12.037M162.5 104.722l6.019-6.018" stroke-width="2"/><path fill="#ccfaff" stroke="#0c7f99" d="M150.463 92.685v12.037H162.5l6.019-6.018V86.667h-12.038z" stroke-width="2"/><path fill="#ccfaff" stroke="#0c7f99" d="M150.463 92.685H162.5v12.037M162.5 92.685l6.019-6.018" stroke-width="2"/><path fill="#ccfaff" stroke="#0c7f99" d="M150.463 80.648v12.037H162.5l6.019-6.018V74.63h-12.038z" stroke-width="2"/><path fill="#ccfaff" stroke="#0c7f99" d="M150.463 80.648H162.5v12.037M162.5 80.648l6.019-6.018" stroke-width="2"/><path fill="#ccfaff" stroke="#0c7f99" d="M150.463 68.611v12.037H162.5l6.019-6.018V62.593h-12.038z" stroke-width="2"/><path fill="#ccfaff" stroke="#0c7f99" d="M150.463 68.611H162.5v12.037M162.5 68.611l6.019-6.018" stroke-width="2"/><path fill="#ccfaff" stroke="#0c7f99" d="M150.463 56.574v12.037H162.5l6.019-6.018V50.556h-12.038z" stroke-width="2"/><path fill="#ccfaff" stroke="#0c7f99" d="M150.463 56.574H162.5v12.037M162.5 56.574l6.019-6.018" stroke-width="2"/><path fill="#ccfaff" stroke="#0c7f99" d="M150.463 44.537v12.037H162.5l6.019-6.018V38.519h-12.038z" stroke-width="2"/><path fill="#ccfaff" stroke="#0c7f99" d="M150.463 44.537H162.5v12.037M162.5 44.537l6.019-6.018" stroke-width="2"/><path fill="#ccfaff" stroke="#0c7f99" d="M150.463 32.5v12.037H162.5l6.019-6.018V26.482h-12.038z" stroke-width="2"/><path fill="#ccfaff" stroke="#0c7f99" d="M150.463 32.5H162.5v12.037M162.5 32.5l6.019-6.018" stroke-width="2"/><path fill="#ccfaff" stroke="#0c7f99" d="M150.463 20.463V32.5H162.5l6.019-6.018V14.444h-12.038z" stroke-width="2"/><path fill="#ccfaff" stroke="#0c7f99" d="M150.463 20.463H162.5V32.5M162.5 20.463l6.019-6.019" stroke-width="2"/><path fill="#ccfaff" stroke="#0c7f99" d="M150.463 8.426v12.037H162.5l6.019-6.019V2.407h-12.038z" stroke-width="2"/><path fill="#ccfaff" stroke="#0c7f99" d="M150.463 8.426H162.5v12.037M162.5 8.426l6.019-6.019" stroke-width="2"/><path fill="#ffbde0" stroke="#9e034e" d="M174.537 116.759v12.037h12.037l6.019-6.018v-12.037h-12.037z" stroke-width="2"/><path fill="#ffbde0" stroke="#9e034e" d="M174.537 116.759h12.037v12.037M186.574 116.759l6.019-6.018" stroke-width="2"/><path fill="#ffbde0" stroke="#9e034e" d="M174.537 104.722v12.037h12.037l6.019-6.018V98.704h-12.037z" stroke-width="2"/><path fill="#ffbde0" stroke="#9e034e" d="M174.537 104.722h12.037v12.037M186.574 104.722l6.019-6.018" stroke-width="2"/><path fill="#ffbde0" stroke="#9e034e" d="M174.537 92.685v12.037h12.037l6.019-6.018V86.667h-12.037z" stroke-width="2"/><path fill="#ffbde0" stroke="#9e034e" d="M174.537 92.685h12.037v12.037M186.574 92.685l6.019-6.018" stroke-width="2"/><path fill="#ffbde0" stroke="#9e034e" d="M174.537 80.648v12.037h12.037l6.019-6.018V74.63h-12.037z" stroke-width="2"/><path fill="#ffbde0" stroke="#9e034e" d="M174.537 80.648h12.037v12.037M186.574 80.648l6.019-6.018" stroke-width="2"/><path fill="#ffbde0" stroke="#9e034e" d="M174.537 68.611v12.037h12.037l6.019-6.018V62.593h-12.037z" stroke-width="2"/><path fill="#ffbde0" stroke="#9e034e" d="M174.537 68.611h12.037v12.037M186.574 68.611l6.019-6.018" stroke-width="2"/><path fill="#ffbde0" stroke="#9e034e" d="M174.537 56.574v12.037h12.037l6.019-6.018V50.556h-12.037z" stroke-width="2"/><path fill="#ffbde0" stroke="#9e034e" d="M174.537 56.574h12.037v12.037M186.574 56.574l6.019-6.018" stroke-width="2"/><path fill="#ffbde0" stroke="#9e034e" d="M174.537 44.537v12.037h12.037l6.019-6.018V38.519h-12.037z" stroke-width="2"/><path fill="#ffbde0" stroke="#9e034e" d="M174.537 44.537h12.037v12.037M186.574 44.537l6.019-6.018" stroke-width="2"/><path fill="#ffbde0" stroke="#9e034e" d="M174.537 32.5v12.037h12.037l6.019-6.018V26.482h-12.037z" stroke-width="2"/><path fill="#ffbde0" stroke="#9e034e" d="M174.537 32.5h12.037v12.037M186.574 32.5l6.019-6.018" stroke-width="2"/><path fill="#ffbde0" stroke="#9e034e" d="M174.537 20.463V32.5h12.037l6.019-6.018V14.444h-12.037z" stroke-width="2"/><path fill="#ffbde0" stroke="#9e034e" d="M174.537 20.463h12.037V32.5M186.574 20.463l6.019-6.019" stroke-width="2"/><path fill="#ffbde0" stroke="#9e034e" d="M174.537 8.426v12.037h12.037l6.019-6.019V2.407h-12.037z" stroke-width="2"/><path fill="#ffbde0" stroke="#9e034e" d="M174.537 8.426h12.037v12.037M186.574 8.426l6.019-6.019" stroke-width="2"/><path fill="#ccfaff" stroke="#0c7f99" d="M198.611 116.759v12.037h12.037l6.019-6.018v-12.037H204.63z" stroke-width="2"/><path fill="#ccfaff" stroke="#0c7f99" d="M198.611 116.759h12.037v12.037M210.648 116.759l6.019-6.018" stroke-width="2"/><path fill="#ffbde0" stroke="#9e034e" d="M198.611 92.685v12.037h12.037l6.019-6.018V86.667H204.63z" stroke-width="2"/><path fill="#ffbde0" stroke="#9e034e" d="M198.611 92.685h12.037v12.037M210.648 92.685l6.019-6.018M198.611 68.611v12.037h12.037l6.019-6.018V62.593H204.63z" stroke-width="2"/><path fill="#ffbde0" stroke="#9e034e" d="M198.611 68.611h12.037v12.037M210.648 68.611l6.019-6.018M198.611 44.537v12.037h12.037l6.019-6.018V38.519H204.63z" stroke-width="2"/><path fill="#ffbde0" stroke="#9e034e" d="M198.611 44.537h12.037v12.037M210.648 44.537l6.019-6.018" stroke-width="2"/></svg>
