<svg xmlns="http://www.w3.org/2000/svg" version="1.1" width="369.2307692307692" height="400" viewBox="0 0 369.2307692307692 400"><defs/><path fill="#28ae7b" stroke="#000000" d="M 30.7692,276.923 L 30.7692,184.615 L 241.595,184.615 L 241.595,276.923 Z" style="stroke-width: 2px;fill-opacity: 1;stroke-opacity: 1" stroke-width="2" fill-opacity="1" stroke-opacity="1" stroke-dasharray="0"/><path fill="#ff00af" stroke="#000000" d="M 241.595,276.923 L 241.595,184.615 L 338.462,184.615 L 338.462,276.923 Z" style="stroke-width: 2px;fill-opacity: 1;stroke-opacity: 1" stroke-width="2" fill-opacity="1" stroke-opacity="1" stroke-dasharray="0"/><path fill="#28ae7b" stroke="#000000" d="M 30.7692,169.231 L 30.7692,76.9231 L 241.595,76.9231 L 241.595,169.231 Z" style="stroke-width: 2px;fill-opacity: 1;stroke-opacity: 1" stroke-width="2" fill-opacity="1" stroke-opacity="1" stroke-dasharray="0"/><path fill="none" stroke="#000000" d="M 241.595,295.385 C 242.595,292.385 247.595,290.385 251.595,289.385 C 251.595,289.385 254.595,288.385 257.595,288.385 L 277.028,288.385 C 282.028,288.385 287.028,285.385 287.028,285.385 L 290.028,281.385 L 293.028,285.385 S 298.028,288.385 303.028,288.385 L 322.461,288.385 C 325.461,289.385 328.461,289.385 328.461,289.385 C 332.461,290.385 337.461,292.385 338.461,295.385" transform="rotate(180 290.02844159544156 288.38461538461536)"/><path fill="none" stroke="#000000" d="M 30.7692,344.615 C 31.7692,341.615 36.7692,339.615 40.7692,338.615 C 40.7692,338.615 43.7692,337.615 46.7692,337.615 L 171.615,337.615 C 176.615,337.615 181.615,334.615 181.615,334.615 L 184.615,330.615 L 187.615,334.615 S 192.615,337.615 197.615,337.615 L 322.461,337.615 C 325.461,338.615 328.461,338.615 328.461,338.615 C 332.461,339.615 337.461,341.615 338.461,344.615" transform="rotate(180 184.61523076923078 337.6153846153846)"/><path fill="none" stroke="#000000" d="M 30.7692,73.8462 C 31.7692,70.8462 36.7692,68.8462 40.7692,67.8462 C 40.7692,67.8462 43.7692,66.8462 46.7692,66.8462 L 123.182,66.8462 C 128.182,66.8462 133.182,63.8462 133.182,63.8462 L 136.182,59.8462 L 139.182,63.8462 S 144.182,66.8462 149.182,66.8462 L 225.595,66.8462 C 228.595,67.8462 231.595,67.8462 231.595,67.8462 C 235.595,68.8462 240.595,70.8462 241.595,73.8462" transform=""/></svg>