<svg xmlns="http://www.w3.org/2000/svg" version="1.1" width="387.09677419354836" height="400" viewBox="0 0 387.09677419354836 400"><defs/><path fill="#304454" stroke="#304454" d="M 252.349,58.9012 L 253.283,59.1632 L 254.089,59.5982 L 254.779,60.1812 L 255.476,60.7652 L 256.059,61.4992 L 256.551,62.3522 L 256.873,62.1662 L 256.358,61.2772 L 255.749,60.5112 L 255.02,59.8972 L 254.286,59.2802 L 253.44,58.8222 L 252.448,58.5442 L 252.349,58.9012 Z" style="stroke-miterlimit: 10" stroke-miterlimit="10" transform=""/><path fill="#304454" stroke="#304454" d="M 250.848,66.408 L 251.367,67.228 L 251.674,68.09 L 251.796,68.986 L 251.922,69.887 L 251.863,70.822 L 251.658,71.786 L 252.021,71.862 L 252.235,70.857 L 252.295,69.881 L 252.165,68.937 L 252.033,67.986 L 251.712,67.08 L 251.161,66.209 L 250.848,66.408 Z" style="stroke-miterlimit: 10" stroke-miterlimit="10" transform=""/><path fill="#304454" stroke="#304454" d="M 246.084,70.6745 L 246.603,71.4955 L 246.91,72.3575 L 247.031,73.2525 L 247.158,74.1535 L 247.099,75.0885 L 246.894,76.0525 L 247.257,76.1295 L 247.47,75.1235 L 247.531,74.1475 L 247.401,73.2035 L 247.269,72.2535 L 246.947,71.3475 L 246.397,70.4765 L 246.084,70.6745 Z" style="stroke-miterlimit: 10" stroke-miterlimit="10" transform=""/><path fill="#2d353a" stroke="none" d="M 246.074,43.5206 C 246.395,43.3586 246.714,43.2156 247.035,43.0916 C 247.366,42.9646 247.701,42.8576 248.034,42.7726 C 249.746,42.3356 251.373,42.5066 252.646,43.3976 L 252.646,43.3976 L 252.646,43.3976 L 252.646,43.3976 C 253.358,43.8916 253.893,44.5686 254.263,45.3736 C 254.352,45.5696 254.433,45.7726 254.502,45.9836 C 254.854,47.0446 254.949,48.2856 254.793,49.6086 C 254.959,49.9926 255.101,50.3906 255.222,50.7996 C 255.356,51.2376 255.464,51.6856 255.544,52.1416 C 255.963,54.4826 255.738,57.0576 254.846,59.5676 C 254.818,59.9176 254.775,60.2706 254.717,60.6236 C 254.66,60.9846 254.588,61.3446 254.505,61.6996 C 254.067,63.5416 253.273,65.3566 252.104,67.0296 L 252.104,67.0296 L 252.104,67.0296 C 249.831,70.2856 246.575,72.3976 243.145,73.1806 C 239.709,73.9636 236.104,73.4116 233.136,71.3426 L 233.136,71.3426 L 233.136,71.3426 L 233.136,71.3426 L 233.136,71.3426 C 230.173,69.2726 228.412,66.0776 227.964,62.5816 C 227.517,59.0936 228.375,55.3076 230.65,52.0506 L 230.65,52.0506 L 230.65,52.0506 L 230.65,52.0506 L 230.65,52.0506 C 231.462,50.8856 232.398,49.8726 233.425,49.0086 C 233.589,48.8696 233.759,48.7346 233.931,48.6016 C 234.806,47.9256 235.739,47.3596 236.711,46.9026 C 237.104,46.5746 237.507,46.2706 237.92,45.9906 C 238.337,45.7056 238.763,45.4426 239.2,45.2046 C 241.408,43.9926 243.797,43.4046 246.074,43.5206 L 246.074,43.5206 Z" transform=""/><path fill="#d14e3f" stroke="none" d="M 229.212,52.4064 C 233.981,45.5754 242.874,43.5474 249.079,47.8754 C 255.281,52.2084 256.443,61.2574 251.674,68.0904 C 246.905,74.9214 238.007,76.9524 231.806,72.6214 C 225.602,68.2904 224.44,59.2414 229.212,52.4064 Z" transform=""/><path fill="#ffffff" stroke="none" d="M 245.173,45.2478 C 245.794,44.3558 247.019,44.1378 247.909,44.7598 C 248.727,45.3318 248.978,46.4128 248.53,47.2748 C 247.373,46.6238 246.135,46.1888 244.865,45.9538 C 244.919,45.7058 245.021,45.4648 245.173,45.2478 M 245.173,45.2478 L 245.173,45.2478 Z" transform=""/><path fill="#ffffff" stroke="none" d="M 250.425,48.5969 C 251.08,47.8779 252.181,47.7409 252.999,48.3139 C 253.888,48.9339 254.108,50.1589 253.486,51.0479 C 253.332,51.2689 253.141,51.4479 252.929,51.5809 C 252.271,50.4709 251.434,49.4609 250.425,48.5969 L 250.425,48.5969 Z" transform=""/><path fill="#e6e7e8" stroke="none" d="M 245.594,44.8084 C 246.257,44.3034 247.191,44.2594 247.909,44.7594 C 248.172,44.9414 248.375,45.1744 248.514,45.4394 C 247.58,45.0754 246.596,44.8674 245.594,44.8084 M 245.594,44.8084 L 245.594,44.8084 Z" transform=""/><path fill="#e6e7e8" stroke="none" d="M 252.152,47.9791 C 252.448,48.0201 252.739,48.1301 252.998,48.3141 C 253.716,48.8141 253.997,49.7071 253.751,50.5011 C 253.35,49.5841 252.815,48.7321 252.152,47.9791 M 252.152,47.9791 L 252.152,47.9791 Z" transform=""/><path fill="#304454" stroke="none" d="M 250.967,42.9962 L 251.276,42.0762 L 251.366,41.1672 L 251.275,40.2692 L 251.182,39.3652 L 250.906,38.4702 L 250.474,37.5822 L 250.81,37.4192 L 251.256,38.3472 L 251.547,39.2822 L 251.644,40.2302 L 251.742,41.1812 L 251.644,42.1432 L 251.316,43.1172 L 250.967,42.9962 Z" transform=""/><path fill="#304454" stroke="none" d="M 253.6,44.8378 L 254.357,44.2308 L 255.179,43.8288 L 256.055,43.6068 L 256.936,43.3798 L 257.872,43.3328 L 258.852,43.4288 L 258.888,43.0598 L 257.865,42.9608 L 256.888,43.0098 L 255.965,43.2458 L 255.036,43.4828 L 254.171,43.9048 L 253.368,44.5498 L 253.6,44.8378 Z" transform=""/><path fill="#7a3440" stroke="none" d="M 235.199,60.8345 C 238.229,54.5765 243.72,49.8445 249.358,48.0115 C 249.265,47.9425 249.175,47.8715 249.079,47.8045 C 242.875,43.4765 233.981,45.5045 229.212,52.3355 C 224.44,59.1705 225.602,68.2195 231.806,72.5505 C 232.343,72.9245 232.9,73.2485 233.472,73.5295 C 232.506,69.8745 233.001,65.3745 235.199,60.8345 Z" transform=""/><path fill="#2d353a" stroke="none" d="M 231.998,53.9042 C 232.657,53.1202 233.814,52.8312 234.584,53.2572 C 235.354,53.6852 235.446,54.6652 234.787,55.4492 C 234.128,56.2342 232.969,56.5242 232.199,56.0982 C 231.428,55.6712 231.34,54.6882 231.998,53.9042 Z" transform=""/><path fill="#2d353a" stroke="none" d="M 244.258,60.8328 C 244.488,59.8348 243.961,58.9998 243.08,58.9698 C 242.201,58.9418 241.301,59.7268 241.071,60.7248 C 240.841,61.7238 241.369,62.5538 242.25,62.5838 S 244.028,61.8318 244.258,60.8328 Z" transform=""/><path fill="#2d353a" stroke="none" d="M 241.599,69.4383 C 241.852,68.3423 241.273,67.4273 240.306,67.3943 C 239.341,67.3623 238.353,68.2243 238.1,69.3203 C 237.848,70.4163 238.428,71.3273 239.394,71.3603 C 240.362,71.3923 241.347,70.5343 241.599,69.4383 Z" transform=""/><path fill="#2d353a" stroke="none" d="M 251.932,56.8795 C 251.588,55.8095 250.622,55.3185 249.774,55.7855 C 248.929,56.2525 248.522,57.4995 248.867,58.5695 C 249.211,59.6405 250.176,60.1255 251.023,59.6585 S 252.276,57.9495 251.932,56.8795 Z" transform=""/><path fill="#2d353a" stroke="none" d="M 239.787,46.6992 C 240.784,46.4652 241.884,46.9262 242.246,47.7282 C 242.608,48.5322 242.095,49.3722 241.097,49.6062 C 240.1,49.8412 238.998,49.3802 238.636,48.5782 C 238.274,47.7742 238.791,46.9332 239.787,46.6992 Z" transform=""/><path fill="#2d353a" stroke="none" d="M 227.558,63.717 C 227.342,62.715 227.822,61.625 228.631,61.277 C 229.441,60.93 230.272,61.457 230.489,62.459 C 230.705,63.461 230.225,64.555 229.416,64.902 C 228.606,65.249 227.774,64.717 227.558,63.717 Z" transform=""/><path fill="#28ae7b" stroke="#28ae7b" d="M 0,400 L 387.097,400 L 387.097,387.097 L 0,387.097 Z" style="stroke-width: 2px;fill-opacity: 1;stroke-opacity: 1" stroke-width="2" fill-opacity="1" stroke-opacity="1" stroke-dasharray="0"/><path fill="#df0030" stroke="#df0030" d="M 206.452,387.097 L 309.677,387.097 L 309.677,180.645 L 206.452,180.645 Z" style="stroke-width: 2px;fill-opacity: 1;stroke-opacity: 1" stroke-width="2" fill-opacity="1" stroke-opacity="1" stroke-dasharray="0"/><path fill="#df0030" stroke="#df0030" d="M 258.065,180.645 L 309.677,180.645 L 309.677,129.032 L 258.065,129.032 Z" style="stroke-width: 2px;fill-opacity: 1;stroke-opacity: 1" stroke-width="2" fill-opacity="1" stroke-opacity="1" stroke-dasharray="0"/><path fill="#df0030" stroke="#df0030" d="M 206.452,129.032 L 309.677,129.032 L 309.677,77.4194 L 206.452,77.4194 Z" style="stroke-width: 2px;fill-opacity: 1;stroke-opacity: 1" stroke-width="2" fill-opacity="1" stroke-opacity="1" stroke-dasharray="0"/><path fill="#df0030" stroke="#df0030" d="M 258.065,77.4194 L 309.677,77.4194 L 309.677,25.8065 L 258.065,25.8065 Z" style="stroke-width: 2px;fill-opacity: 1;stroke-opacity: 1" stroke-width="2" fill-opacity="1" stroke-opacity="1" stroke-dasharray="0"/><path fill="#df0030" stroke="#df0030" d="M 206.452,25.8065 L 309.677,25.8065 L 309.677,0 L 206.452,0 Z" style="stroke-width: 2px;fill-opacity: 1;stroke-opacity: 1" stroke-width="2" fill-opacity="1" stroke-opacity="1" stroke-dasharray="0"/><path fill="#000000" stroke="#000000" d="M 206.452,374.194 L 309.677,374.194" style="stroke-width: 2px;stroke-opacity: 1;fill-opacity: 0" stroke-width="2" stroke-opacity="1" stroke-dasharray="0" fill-opacity="0" transform=""/><path fill="#000000" stroke="#000000" d="M 206.452,361.29 L 309.677,361.29" style="stroke-width: 2px;stroke-opacity: 1;fill-opacity: 0" stroke-width="2" stroke-opacity="1" stroke-dasharray="0" fill-opacity="0" transform=""/><path fill="#000000" stroke="#000000" d="M 232.258,387.097 L 245.161,387.097" style="stroke-width: 2px;stroke-opacity: 1;fill-opacity: 0" stroke-width="2" stroke-opacity="1" stroke-dasharray="0" fill-opacity="0" transform="rotate(270 232.25806451612902 387.09677419354836)"/><path fill="#000000" stroke="#000000" d="M 258.065,387.097 L 270.968,387.097" style="stroke-width: 2px;stroke-opacity: 1;fill-opacity: 0" stroke-width="2" stroke-opacity="1" stroke-dasharray="0" fill-opacity="0" transform="rotate(270 258.06451612903226 387.09677419354836)"/><path fill="#000000" stroke="#000000" d="M 283.871,387.097 L 296.774,387.097" style="stroke-width: 2px;stroke-opacity: 1;fill-opacity: 0" stroke-width="2" stroke-opacity="1" stroke-dasharray="0" fill-opacity="0" transform="rotate(270 283.8709677419355 387.09677419354836)"/><path fill="#000000" stroke="#000000" d="M 219.355,374.194 L 232.258,374.194" style="stroke-width: 2px;stroke-opacity: 1;fill-opacity: 0" stroke-width="2" stroke-opacity="1" stroke-dasharray="0" fill-opacity="0" transform="rotate(270 219.3548387096774 374.19354838709677)"/><path fill="#000000" stroke="#000000" d="M 245.161,374.194 L 258.065,374.194" style="stroke-width: 2px;stroke-opacity: 1;fill-opacity: 0" stroke-width="2" stroke-opacity="1" stroke-dasharray="0" fill-opacity="0" transform="rotate(270 245.16129032258064 374.19354838709677)"/><path fill="#000000" stroke="#000000" d="M 270.968,374.194 L 283.871,374.194" style="stroke-width: 2px;stroke-opacity: 1;fill-opacity: 0" stroke-width="2" stroke-opacity="1" stroke-dasharray="0" fill-opacity="0" transform="rotate(270 270.96774193548384 374.19354838709677)"/><path fill="#000000" stroke="#000000" d="M 296.774,374.194 L 309.677,374.194" style="stroke-width: 2px;stroke-opacity: 1;fill-opacity: 0" stroke-width="2" stroke-opacity="1" stroke-dasharray="0" fill-opacity="0" transform="rotate(270 296.7741935483871 374.19354838709677)"/><path fill="#000000" stroke="#000000" d="M 206.452,348.387 L 309.677,348.387" style="stroke-width: 2px;stroke-opacity: 1;fill-opacity: 0" stroke-width="2" stroke-opacity="1" stroke-dasharray="0" fill-opacity="0" transform=""/><path fill="#000000" stroke="#000000" d="M 206.452,335.484 L 309.677,335.484" style="stroke-width: 2px;stroke-opacity: 1;fill-opacity: 0" stroke-width="2" stroke-opacity="1" stroke-dasharray="0" fill-opacity="0" transform=""/><path fill="#000000" stroke="#000000" d="M 232.258,361.29 L 245.161,361.29" style="stroke-width: 2px;stroke-opacity: 1;fill-opacity: 0" stroke-width="2" stroke-opacity="1" stroke-dasharray="0" fill-opacity="0" transform="rotate(270 232.25806451612902 361.2903225806451)"/><path fill="#000000" stroke="#000000" d="M 258.065,361.29 L 270.968,361.29" style="stroke-width: 2px;stroke-opacity: 1;fill-opacity: 0" stroke-width="2" stroke-opacity="1" stroke-dasharray="0" fill-opacity="0" transform="rotate(270 258.06451612903226 361.2903225806451)"/><path fill="#000000" stroke="#000000" d="M 283.871,361.29 L 296.774,361.29" style="stroke-width: 2px;stroke-opacity: 1;fill-opacity: 0" stroke-width="2" stroke-opacity="1" stroke-dasharray="0" fill-opacity="0" transform="rotate(270 283.8709677419355 361.2903225806451)"/><path fill="#000000" stroke="#000000" d="M 219.355,348.387 L 232.258,348.387" style="stroke-width: 2px;stroke-opacity: 1;fill-opacity: 0" stroke-width="2" stroke-opacity="1" stroke-dasharray="0" fill-opacity="0" transform="rotate(270 219.3548387096774 348.38709677419354)"/><path fill="#000000" stroke="#000000" d="M 245.161,348.387 L 258.065,348.387" style="stroke-width: 2px;stroke-opacity: 1;fill-opacity: 0" stroke-width="2" stroke-opacity="1" stroke-dasharray="0" fill-opacity="0" transform="rotate(270 245.16129032258064 348.38709677419354)"/><path fill="#000000" stroke="#000000" d="M 270.968,348.387 L 283.871,348.387" style="stroke-width: 2px;stroke-opacity: 1;fill-opacity: 0" stroke-width="2" stroke-opacity="1" stroke-dasharray="0" fill-opacity="0" transform="rotate(270 270.96774193548384 348.38709677419354)"/><path fill="#000000" stroke="#000000" d="M 296.774,348.387 L 309.677,348.387" style="stroke-width: 2px;stroke-opacity: 1;fill-opacity: 0" stroke-width="2" stroke-opacity="1" stroke-dasharray="0" fill-opacity="0" transform="rotate(270 296.7741935483871 348.38709677419354)"/><path fill="#000000" stroke="#000000" d="M 206.452,322.581 L 309.677,322.581" style="stroke-width: 2px;stroke-opacity: 1;fill-opacity: 0" stroke-width="2" stroke-opacity="1" stroke-dasharray="0" fill-opacity="0" transform=""/><path fill="#000000" stroke="#000000" d="M 206.452,309.677 L 309.677,309.677" style="stroke-width: 2px;stroke-opacity: 1;fill-opacity: 0" stroke-width="2" stroke-opacity="1" stroke-dasharray="0" fill-opacity="0" transform=""/><path fill="#000000" stroke="#000000" d="M 232.258,335.484 L 245.161,335.484" style="stroke-width: 2px;stroke-opacity: 1;fill-opacity: 0" stroke-width="2" stroke-opacity="1" stroke-dasharray="0" fill-opacity="0" transform="rotate(270 232.25806451612902 335.4838709677419)"/><path fill="#000000" stroke="#000000" d="M 258.065,335.484 L 270.968,335.484" style="stroke-width: 2px;stroke-opacity: 1;fill-opacity: 0" stroke-width="2" stroke-opacity="1" stroke-dasharray="0" fill-opacity="0" transform="rotate(270 258.06451612903226 335.4838709677419)"/><path fill="#000000" stroke="#000000" d="M 283.871,335.484 L 296.774,335.484" style="stroke-width: 2px;stroke-opacity: 1;fill-opacity: 0" stroke-width="2" stroke-opacity="1" stroke-dasharray="0" fill-opacity="0" transform="rotate(270 283.8709677419355 335.4838709677419)"/><path fill="#000000" stroke="#000000" d="M 219.355,322.581 L 232.258,322.581" style="stroke-width: 2px;stroke-opacity: 1;fill-opacity: 0" stroke-width="2" stroke-opacity="1" stroke-dasharray="0" fill-opacity="0" transform="rotate(270 219.3548387096774 322.5806451612903)"/><path fill="#000000" stroke="#000000" d="M 245.161,322.581 L 258.065,322.581" style="stroke-width: 2px;stroke-opacity: 1;fill-opacity: 0" stroke-width="2" stroke-opacity="1" stroke-dasharray="0" fill-opacity="0" transform="rotate(270 245.16129032258064 322.5806451612903)"/><path fill="#000000" stroke="#000000" d="M 270.968,322.581 L 283.871,322.581" style="stroke-width: 2px;stroke-opacity: 1;fill-opacity: 0" stroke-width="2" stroke-opacity="1" stroke-dasharray="0" fill-opacity="0" transform="rotate(270 270.96774193548384 322.5806451612903)"/><path fill="#000000" stroke="#000000" d="M 296.774,322.581 L 309.677,322.581" style="stroke-width: 2px;stroke-opacity: 1;fill-opacity: 0" stroke-width="2" stroke-opacity="1" stroke-dasharray="0" fill-opacity="0" transform="rotate(270 296.7741935483871 322.5806451612903)"/><path fill="#000000" stroke="#000000" d="M 206.452,296.774 L 309.677,296.774" style="stroke-width: 2px;stroke-opacity: 1;fill-opacity: 0" stroke-width="2" stroke-opacity="1" stroke-dasharray="0" fill-opacity="0" transform=""/><path fill="#000000" stroke="#000000" d="M 206.452,283.871 L 309.677,283.871" style="stroke-width: 2px;stroke-opacity: 1;fill-opacity: 0" stroke-width="2" stroke-opacity="1" stroke-dasharray="0" fill-opacity="0" transform=""/><path fill="#000000" stroke="#000000" d="M 232.258,309.677 L 245.161,309.677" style="stroke-width: 2px;stroke-opacity: 1;fill-opacity: 0" stroke-width="2" stroke-opacity="1" stroke-dasharray="0" fill-opacity="0" transform="rotate(270 232.25806451612902 309.67741935483866)"/><path fill="#000000" stroke="#000000" d="M 258.065,309.677 L 270.968,309.677" style="stroke-width: 2px;stroke-opacity: 1;fill-opacity: 0" stroke-width="2" stroke-opacity="1" stroke-dasharray="0" fill-opacity="0" transform="rotate(270 258.06451612903226 309.67741935483866)"/><path fill="#000000" stroke="#000000" d="M 283.871,309.677 L 296.774,309.677" style="stroke-width: 2px;stroke-opacity: 1;fill-opacity: 0" stroke-width="2" stroke-opacity="1" stroke-dasharray="0" fill-opacity="0" transform="rotate(270 283.8709677419355 309.67741935483866)"/><path fill="#000000" stroke="#000000" d="M 219.355,296.774 L 232.258,296.774" style="stroke-width: 2px;stroke-opacity: 1;fill-opacity: 0" stroke-width="2" stroke-opacity="1" stroke-dasharray="0" fill-opacity="0" transform="rotate(270 219.3548387096774 296.7741935483871)"/><path fill="#000000" stroke="#000000" d="M 245.161,296.774 L 258.065,296.774" style="stroke-width: 2px;stroke-opacity: 1;fill-opacity: 0" stroke-width="2" stroke-opacity="1" stroke-dasharray="0" fill-opacity="0" transform="rotate(270 245.16129032258064 296.7741935483871)"/><path fill="#000000" stroke="#000000" d="M 270.968,296.774 L 283.871,296.774" style="stroke-width: 2px;stroke-opacity: 1;fill-opacity: 0" stroke-width="2" stroke-opacity="1" stroke-dasharray="0" fill-opacity="0" transform="rotate(270 270.96774193548384 296.7741935483871)"/><path fill="#000000" stroke="#000000" d="M 296.774,296.774 L 309.677,296.774" style="stroke-width: 2px;stroke-opacity: 1;fill-opacity: 0" stroke-width="2" stroke-opacity="1" stroke-dasharray="0" fill-opacity="0" transform="rotate(270 296.7741935483871 296.7741935483871)"/><path fill="#000000" stroke="#000000" d="M 206.452,270.968 L 309.677,270.968" style="stroke-width: 2px;stroke-opacity: 1;fill-opacity: 0" stroke-width="2" stroke-opacity="1" stroke-dasharray="0" fill-opacity="0" transform=""/><path fill="#000000" stroke="#000000" d="M 206.452,258.065 L 309.677,258.065" style="stroke-width: 2px;stroke-opacity: 1;fill-opacity: 0" stroke-width="2" stroke-opacity="1" stroke-dasharray="0" fill-opacity="0" transform=""/><path fill="#000000" stroke="#000000" d="M 232.258,283.871 L 245.161,283.871" style="stroke-width: 2px;stroke-opacity: 1;fill-opacity: 0" stroke-width="2" stroke-opacity="1" stroke-dasharray="0" fill-opacity="0" transform="rotate(270 232.25806451612902 283.8709677419355)"/><path fill="#000000" stroke="#000000" d="M 258.065,283.871 L 270.968,283.871" style="stroke-width: 2px;stroke-opacity: 1;fill-opacity: 0" stroke-width="2" stroke-opacity="1" stroke-dasharray="0" fill-opacity="0" transform="rotate(270 258.06451612903226 283.8709677419355)"/><path fill="#000000" stroke="#000000" d="M 283.871,283.871 L 296.774,283.871" style="stroke-width: 2px;stroke-opacity: 1;fill-opacity: 0" stroke-width="2" stroke-opacity="1" stroke-dasharray="0" fill-opacity="0" transform="rotate(270 283.8709677419355 283.8709677419355)"/><path fill="#000000" stroke="#000000" d="M 219.355,270.968 L 232.258,270.968" style="stroke-width: 2px;stroke-opacity: 1;fill-opacity: 0" stroke-width="2" stroke-opacity="1" stroke-dasharray="0" fill-opacity="0" transform="rotate(270 219.3548387096774 270.96774193548384)"/><path fill="#000000" stroke="#000000" d="M 245.161,270.968 L 258.065,270.968" style="stroke-width: 2px;stroke-opacity: 1;fill-opacity: 0" stroke-width="2" stroke-opacity="1" stroke-dasharray="0" fill-opacity="0" transform="rotate(270 245.16129032258064 270.96774193548384)"/><path fill="#000000" stroke="#000000" d="M 270.968,270.968 L 283.871,270.968" style="stroke-width: 2px;stroke-opacity: 1;fill-opacity: 0" stroke-width="2" stroke-opacity="1" stroke-dasharray="0" fill-opacity="0" transform="rotate(270 270.96774193548384 270.96774193548384)"/><path fill="#000000" stroke="#000000" d="M 296.774,270.968 L 309.677,270.968" style="stroke-width: 2px;stroke-opacity: 1;fill-opacity: 0" stroke-width="2" stroke-opacity="1" stroke-dasharray="0" fill-opacity="0" transform="rotate(270 296.7741935483871 270.96774193548384)"/><path fill="#000000" stroke="#000000" d="M 206.452,245.161 L 309.677,245.161" style="stroke-width: 2px;stroke-opacity: 1;fill-opacity: 0" stroke-width="2" stroke-opacity="1" stroke-dasharray="0" fill-opacity="0" transform=""/><path fill="#000000" stroke="#000000" d="M 206.452,232.258 L 309.677,232.258" style="stroke-width: 2px;stroke-opacity: 1;fill-opacity: 0" stroke-width="2" stroke-opacity="1" stroke-dasharray="0" fill-opacity="0" transform=""/><path fill="#000000" stroke="#000000" d="M 232.258,258.065 L 245.161,258.065" style="stroke-width: 2px;stroke-opacity: 1;fill-opacity: 0" stroke-width="2" stroke-opacity="1" stroke-dasharray="0" fill-opacity="0" transform="rotate(270 232.25806451612902 258.06451612903226)"/><path fill="#000000" stroke="#000000" d="M 258.065,258.065 L 270.968,258.065" style="stroke-width: 2px;stroke-opacity: 1;fill-opacity: 0" stroke-width="2" stroke-opacity="1" stroke-dasharray="0" fill-opacity="0" transform="rotate(270 258.06451612903226 258.06451612903226)"/><path fill="#000000" stroke="#000000" d="M 283.871,258.065 L 296.774,258.065" style="stroke-width: 2px;stroke-opacity: 1;fill-opacity: 0" stroke-width="2" stroke-opacity="1" stroke-dasharray="0" fill-opacity="0" transform="rotate(270 283.8709677419355 258.06451612903226)"/><path fill="#000000" stroke="#000000" d="M 219.355,245.161 L 232.258,245.161" style="stroke-width: 2px;stroke-opacity: 1;fill-opacity: 0" stroke-width="2" stroke-opacity="1" stroke-dasharray="0" fill-opacity="0" transform="rotate(270 219.3548387096774 245.16129032258064)"/><path fill="#000000" stroke="#000000" d="M 245.161,245.161 L 258.065,245.161" style="stroke-width: 2px;stroke-opacity: 1;fill-opacity: 0" stroke-width="2" stroke-opacity="1" stroke-dasharray="0" fill-opacity="0" transform="rotate(270 245.16129032258064 245.16129032258064)"/><path fill="#000000" stroke="#000000" d="M 270.968,245.161 L 283.871,245.161" style="stroke-width: 2px;stroke-opacity: 1;fill-opacity: 0" stroke-width="2" stroke-opacity="1" stroke-dasharray="0" fill-opacity="0" transform="rotate(270 270.96774193548384 245.16129032258064)"/><path fill="#000000" stroke="#000000" d="M 296.774,245.161 L 309.677,245.161" style="stroke-width: 2px;stroke-opacity: 1;fill-opacity: 0" stroke-width="2" stroke-opacity="1" stroke-dasharray="0" fill-opacity="0" transform="rotate(270 296.7741935483871 245.16129032258064)"/><path fill="#000000" stroke="#000000" d="M 206.452,219.355 L 309.677,219.355" style="stroke-width: 2px;stroke-opacity: 1;fill-opacity: 0" stroke-width="2" stroke-opacity="1" stroke-dasharray="0" fill-opacity="0" transform=""/><path fill="#000000" stroke="#000000" d="M 206.452,206.452 L 309.677,206.452" style="stroke-width: 2px;stroke-opacity: 1;fill-opacity: 0" stroke-width="2" stroke-opacity="1" stroke-dasharray="0" fill-opacity="0" transform=""/><path fill="#000000" stroke="#000000" d="M 232.258,232.258 L 245.161,232.258" style="stroke-width: 2px;stroke-opacity: 1;fill-opacity: 0" stroke-width="2" stroke-opacity="1" stroke-dasharray="0" fill-opacity="0" transform="rotate(270 232.25806451612902 232.25806451612902)"/><path fill="#000000" stroke="#000000" d="M 258.065,232.258 L 270.968,232.258" style="stroke-width: 2px;stroke-opacity: 1;fill-opacity: 0" stroke-width="2" stroke-opacity="1" stroke-dasharray="0" fill-opacity="0" transform="rotate(270 258.06451612903226 232.25806451612902)"/><path fill="#000000" stroke="#000000" d="M 283.871,232.258 L 296.774,232.258" style="stroke-width: 2px;stroke-opacity: 1;fill-opacity: 0" stroke-width="2" stroke-opacity="1" stroke-dasharray="0" fill-opacity="0" transform="rotate(270 283.8709677419355 232.25806451612902)"/><path fill="#000000" stroke="#000000" d="M 219.355,219.355 L 232.258,219.355" style="stroke-width: 2px;stroke-opacity: 1;fill-opacity: 0" stroke-width="2" stroke-opacity="1" stroke-dasharray="0" fill-opacity="0" transform="rotate(270 219.3548387096774 219.3548387096774)"/><path fill="#000000" stroke="#000000" d="M 245.161,219.355 L 258.065,219.355" style="stroke-width: 2px;stroke-opacity: 1;fill-opacity: 0" stroke-width="2" stroke-opacity="1" stroke-dasharray="0" fill-opacity="0" transform="rotate(270 245.16129032258064 219.3548387096774)"/><path fill="#000000" stroke="#000000" d="M 270.968,219.355 L 283.871,219.355" style="stroke-width: 2px;stroke-opacity: 1;fill-opacity: 0" stroke-width="2" stroke-opacity="1" stroke-dasharray="0" fill-opacity="0" transform="rotate(270 270.96774193548384 219.3548387096774)"/><path fill="#000000" stroke="#000000" d="M 296.774,219.355 L 309.677,219.355" style="stroke-width: 2px;stroke-opacity: 1;fill-opacity: 0" stroke-width="2" stroke-opacity="1" stroke-dasharray="0" fill-opacity="0" transform="rotate(270 296.7741935483871 219.3548387096774)"/><path fill="#000000" stroke="#000000" d="M 206.452,193.548 L 309.677,193.548" style="stroke-width: 2px;stroke-opacity: 1;fill-opacity: 0" stroke-width="2" stroke-opacity="1" stroke-dasharray="0" fill-opacity="0" transform=""/><path fill="#000000" stroke="#000000" d="M 206.452,180.645 L 309.677,180.645" style="stroke-width: 2px;stroke-opacity: 1;fill-opacity: 0" stroke-width="2" stroke-opacity="1" stroke-dasharray="0" fill-opacity="0" transform=""/><path fill="#000000" stroke="#000000" d="M 232.258,206.452 L 245.161,206.452" style="stroke-width: 2px;stroke-opacity: 1;fill-opacity: 0" stroke-width="2" stroke-opacity="1" stroke-dasharray="0" fill-opacity="0" transform="rotate(270 232.25806451612902 206.4516129032258)"/><path fill="#000000" stroke="#000000" d="M 258.065,206.452 L 270.968,206.452" style="stroke-width: 2px;stroke-opacity: 1;fill-opacity: 0" stroke-width="2" stroke-opacity="1" stroke-dasharray="0" fill-opacity="0" transform="rotate(270 258.06451612903226 206.4516129032258)"/><path fill="#000000" stroke="#000000" d="M 283.871,206.452 L 296.774,206.452" style="stroke-width: 2px;stroke-opacity: 1;fill-opacity: 0" stroke-width="2" stroke-opacity="1" stroke-dasharray="0" fill-opacity="0" transform="rotate(270 283.8709677419355 206.4516129032258)"/><path fill="#000000" stroke="#000000" d="M 219.355,193.548 L 232.258,193.548" style="stroke-width: 2px;stroke-opacity: 1;fill-opacity: 0" stroke-width="2" stroke-opacity="1" stroke-dasharray="0" fill-opacity="0" transform="rotate(270 219.3548387096774 193.54838709677418)"/><path fill="#000000" stroke="#000000" d="M 245.161,193.548 L 258.065,193.548" style="stroke-width: 2px;stroke-opacity: 1;fill-opacity: 0" stroke-width="2" stroke-opacity="1" stroke-dasharray="0" fill-opacity="0" transform="rotate(270 245.16129032258064 193.54838709677418)"/><path fill="#000000" stroke="#000000" d="M 270.968,193.548 L 283.871,193.548" style="stroke-width: 2px;stroke-opacity: 1;fill-opacity: 0" stroke-width="2" stroke-opacity="1" stroke-dasharray="0" fill-opacity="0" transform="rotate(270 270.96774193548384 193.54838709677418)"/><path fill="#000000" stroke="#000000" d="M 296.774,193.548 L 309.677,193.548" style="stroke-width: 2px;stroke-opacity: 1;fill-opacity: 0" stroke-width="2" stroke-opacity="1" stroke-dasharray="0" fill-opacity="0" transform="rotate(270 296.7741935483871 193.54838709677418)"/><path fill="#000000" stroke="#000000" d="M 258.065,167.742 L 309.677,167.742" style="stroke-width: 2px;stroke-opacity: 1;fill-opacity: 0" stroke-width="2" stroke-opacity="1" stroke-dasharray="0" fill-opacity="0" transform=""/><path fill="#000000" stroke="#000000" d="M 258.065,154.839 L 309.677,154.839" style="stroke-width: 2px;stroke-opacity: 1;fill-opacity: 0" stroke-width="2" stroke-opacity="1" stroke-dasharray="0" fill-opacity="0" transform=""/><path fill="#000000" stroke="#000000" d="M 258.065,180.645 L 270.968,180.645" style="stroke-width: 2px;stroke-opacity: 1;fill-opacity: 0" stroke-width="2" stroke-opacity="1" stroke-dasharray="0" fill-opacity="0" transform="rotate(270 258.06451612903226 180.64516129032256)"/><path fill="#000000" stroke="#000000" d="M 283.871,180.645 L 296.774,180.645" style="stroke-width: 2px;stroke-opacity: 1;fill-opacity: 0" stroke-width="2" stroke-opacity="1" stroke-dasharray="0" fill-opacity="0" transform="rotate(270 283.8709677419355 180.64516129032256)"/><path fill="#000000" stroke="#000000" d="M 270.968,167.742 L 283.871,167.742" style="stroke-width: 2px;stroke-opacity: 1;fill-opacity: 0" stroke-width="2" stroke-opacity="1" stroke-dasharray="0" fill-opacity="0" transform="rotate(270 270.96774193548384 167.74193548387095)"/><path fill="#000000" stroke="#000000" d="M 296.774,167.742 L 309.677,167.742" style="stroke-width: 2px;stroke-opacity: 1;fill-opacity: 0" stroke-width="2" stroke-opacity="1" stroke-dasharray="0" fill-opacity="0" transform="rotate(270 296.7741935483871 167.74193548387095)"/><path fill="#000000" stroke="#000000" d="M 258.065,141.935 L 309.677,141.935" style="stroke-width: 2px;stroke-opacity: 1;fill-opacity: 0" stroke-width="2" stroke-opacity="1" stroke-dasharray="0" fill-opacity="0" transform=""/><path fill="#000000" stroke="#000000" d="M 258.065,129.032 L 309.677,129.032" style="stroke-width: 2px;stroke-opacity: 1;fill-opacity: 0" stroke-width="2" stroke-opacity="1" stroke-dasharray="0" fill-opacity="0" transform=""/><path fill="#000000" stroke="#000000" d="M 258.065,154.839 L 270.968,154.839" style="stroke-width: 2px;stroke-opacity: 1;fill-opacity: 0" stroke-width="2" stroke-opacity="1" stroke-dasharray="0" fill-opacity="0" transform="rotate(270 258.06451612903226 154.83870967741933)"/><path fill="#000000" stroke="#000000" d="M 283.871,154.839 L 296.774,154.839" style="stroke-width: 2px;stroke-opacity: 1;fill-opacity: 0" stroke-width="2" stroke-opacity="1" stroke-dasharray="0" fill-opacity="0" transform="rotate(270 283.8709677419355 154.83870967741933)"/><path fill="#000000" stroke="#000000" d="M 270.968,141.935 L 283.871,141.935" style="stroke-width: 2px;stroke-opacity: 1;fill-opacity: 0" stroke-width="2" stroke-opacity="1" stroke-dasharray="0" fill-opacity="0" transform="rotate(270 270.96774193548384 141.93548387096774)"/><path fill="#000000" stroke="#000000" d="M 296.774,141.935 L 309.677,141.935" style="stroke-width: 2px;stroke-opacity: 1;fill-opacity: 0" stroke-width="2" stroke-opacity="1" stroke-dasharray="0" fill-opacity="0" transform="rotate(270 296.7741935483871 141.93548387096774)"/><path fill="#000000" stroke="#000000" d="M 206.452,116.129 L 309.677,116.129" style="stroke-width: 2px;stroke-opacity: 1;fill-opacity: 0" stroke-width="2" stroke-opacity="1" stroke-dasharray="0" fill-opacity="0" transform=""/><path fill="#000000" stroke="#000000" d="M 206.452,103.226 L 309.677,103.226" style="stroke-width: 2px;stroke-opacity: 1;fill-opacity: 0" stroke-width="2" stroke-opacity="1" stroke-dasharray="0" fill-opacity="0" transform=""/><path fill="#000000" stroke="#000000" d="M 232.258,129.032 L 245.161,129.032" style="stroke-width: 2px;stroke-opacity: 1;fill-opacity: 0" stroke-width="2" stroke-opacity="1" stroke-dasharray="0" fill-opacity="0" transform="rotate(270 232.25806451612902 129.03225806451613)"/><path fill="#000000" stroke="#000000" d="M 258.065,129.032 L 270.968,129.032" style="stroke-width: 2px;stroke-opacity: 1;fill-opacity: 0" stroke-width="2" stroke-opacity="1" stroke-dasharray="0" fill-opacity="0" transform="rotate(270 258.06451612903226 129.03225806451613)"/><path fill="#000000" stroke="#000000" d="M 283.871,129.032 L 296.774,129.032" style="stroke-width: 2px;stroke-opacity: 1;fill-opacity: 0" stroke-width="2" stroke-opacity="1" stroke-dasharray="0" fill-opacity="0" transform="rotate(270 283.8709677419355 129.03225806451613)"/><path fill="#000000" stroke="#000000" d="M 219.355,116.129 L 232.258,116.129" style="stroke-width: 2px;stroke-opacity: 1;fill-opacity: 0" stroke-width="2" stroke-opacity="1" stroke-dasharray="0" fill-opacity="0" transform="rotate(270 219.3548387096774 116.12903225806451)"/><path fill="#000000" stroke="#000000" d="M 245.161,116.129 L 258.065,116.129" style="stroke-width: 2px;stroke-opacity: 1;fill-opacity: 0" stroke-width="2" stroke-opacity="1" stroke-dasharray="0" fill-opacity="0" transform="rotate(270 245.16129032258064 116.12903225806451)"/><path fill="#000000" stroke="#000000" d="M 270.968,116.129 L 283.871,116.129" style="stroke-width: 2px;stroke-opacity: 1;fill-opacity: 0" stroke-width="2" stroke-opacity="1" stroke-dasharray="0" fill-opacity="0" transform="rotate(270 270.96774193548384 116.12903225806451)"/><path fill="#000000" stroke="#000000" d="M 296.774,116.129 L 309.677,116.129" style="stroke-width: 2px;stroke-opacity: 1;fill-opacity: 0" stroke-width="2" stroke-opacity="1" stroke-dasharray="0" fill-opacity="0" transform="rotate(270 296.7741935483871 116.12903225806451)"/><path fill="#000000" stroke="#000000" d="M 206.452,90.3226 L 309.677,90.3226" style="stroke-width: 2px;stroke-opacity: 1;fill-opacity: 0" stroke-width="2" stroke-opacity="1" stroke-dasharray="0" fill-opacity="0" transform=""/><path fill="#000000" stroke="#000000" d="M 206.452,77.4194 L 309.677,77.4194" style="stroke-width: 2px;stroke-opacity: 1;fill-opacity: 0" stroke-width="2" stroke-opacity="1" stroke-dasharray="0" fill-opacity="0" transform=""/><path fill="#000000" stroke="#000000" d="M 232.258,103.226 L 245.161,103.226" style="stroke-width: 2px;stroke-opacity: 1;fill-opacity: 0" stroke-width="2" stroke-opacity="1" stroke-dasharray="0" fill-opacity="0" transform="rotate(270 232.25806451612902 103.2258064516129)"/><path fill="#000000" stroke="#000000" d="M 258.065,103.226 L 270.968,103.226" style="stroke-width: 2px;stroke-opacity: 1;fill-opacity: 0" stroke-width="2" stroke-opacity="1" stroke-dasharray="0" fill-opacity="0" transform="rotate(270 258.06451612903226 103.2258064516129)"/><path fill="#000000" stroke="#000000" d="M 283.871,103.226 L 296.774,103.226" style="stroke-width: 2px;stroke-opacity: 1;fill-opacity: 0" stroke-width="2" stroke-opacity="1" stroke-dasharray="0" fill-opacity="0" transform="rotate(270 283.8709677419355 103.2258064516129)"/><path fill="#000000" stroke="#000000" d="M 219.355,90.3226 L 232.258,90.3226" style="stroke-width: 2px;stroke-opacity: 1;fill-opacity: 0" stroke-width="2" stroke-opacity="1" stroke-dasharray="0" fill-opacity="0" transform="rotate(270 219.3548387096774 90.32258064516128)"/><path fill="#000000" stroke="#000000" d="M 245.161,90.3226 L 258.065,90.3226" style="stroke-width: 2px;stroke-opacity: 1;fill-opacity: 0" stroke-width="2" stroke-opacity="1" stroke-dasharray="0" fill-opacity="0" transform="rotate(270 245.16129032258064 90.32258064516128)"/><path fill="#000000" stroke="#000000" d="M 270.968,90.3226 L 283.871,90.3226" style="stroke-width: 2px;stroke-opacity: 1;fill-opacity: 0" stroke-width="2" stroke-opacity="1" stroke-dasharray="0" fill-opacity="0" transform="rotate(270 270.96774193548384 90.32258064516128)"/><path fill="#000000" stroke="#000000" d="M 296.774,90.3226 L 309.677,90.3226" style="stroke-width: 2px;stroke-opacity: 1;fill-opacity: 0" stroke-width="2" stroke-opacity="1" stroke-dasharray="0" fill-opacity="0" transform="rotate(270 296.7741935483871 90.32258064516128)"/><path fill="#000000" stroke="#000000" d="M 258.065,64.5161 L 309.677,64.5161" style="stroke-width: 2px;stroke-opacity: 1;fill-opacity: 0" stroke-width="2" stroke-opacity="1" stroke-dasharray="0" fill-opacity="0" transform=""/><path fill="#000000" stroke="#000000" d="M 258.065,51.6129 L 309.677,51.6129" style="stroke-width: 2px;stroke-opacity: 1;fill-opacity: 0" stroke-width="2" stroke-opacity="1" stroke-dasharray="0" fill-opacity="0" transform=""/><path fill="#000000" stroke="#000000" d="M 258.065,77.4194 L 270.968,77.4194" style="stroke-width: 2px;stroke-opacity: 1;fill-opacity: 0" stroke-width="2" stroke-opacity="1" stroke-dasharray="0" fill-opacity="0" transform="rotate(270 258.06451612903226 77.41935483870967)"/><path fill="#000000" stroke="#000000" d="M 283.871,77.4194 L 296.774,77.4194" style="stroke-width: 2px;stroke-opacity: 1;fill-opacity: 0" stroke-width="2" stroke-opacity="1" stroke-dasharray="0" fill-opacity="0" transform="rotate(270 283.8709677419355 77.41935483870967)"/><path fill="#000000" stroke="#000000" d="M 270.968,64.5161 L 283.871,64.5161" style="stroke-width: 2px;stroke-opacity: 1;fill-opacity: 0" stroke-width="2" stroke-opacity="1" stroke-dasharray="0" fill-opacity="0" transform="rotate(270 270.96774193548384 64.51612903225806)"/><path fill="#000000" stroke="#000000" d="M 296.774,64.5161 L 309.677,64.5161" style="stroke-width: 2px;stroke-opacity: 1;fill-opacity: 0" stroke-width="2" stroke-opacity="1" stroke-dasharray="0" fill-opacity="0" transform="rotate(270 296.7741935483871 64.51612903225806)"/><path fill="#000000" stroke="#000000" d="M 258.065,38.7097 L 309.677,38.7097" style="stroke-width: 2px;stroke-opacity: 1;fill-opacity: 0" stroke-width="2" stroke-opacity="1" stroke-dasharray="0" fill-opacity="0" transform=""/><path fill="#000000" stroke="#000000" d="M 258.065,25.8065 L 309.677,25.8065" style="stroke-width: 2px;stroke-opacity: 1;fill-opacity: 0" stroke-width="2" stroke-opacity="1" stroke-dasharray="0" fill-opacity="0" transform=""/><path fill="#000000" stroke="#000000" d="M 258.065,51.6129 L 270.968,51.6129" style="stroke-width: 2px;stroke-opacity: 1;fill-opacity: 0" stroke-width="2" stroke-opacity="1" stroke-dasharray="0" fill-opacity="0" transform="rotate(270 258.06451612903226 51.61290322580645)"/><path fill="#000000" stroke="#000000" d="M 283.871,51.6129 L 296.774,51.6129" style="stroke-width: 2px;stroke-opacity: 1;fill-opacity: 0" stroke-width="2" stroke-opacity="1" stroke-dasharray="0" fill-opacity="0" transform="rotate(270 283.8709677419355 51.61290322580645)"/><path fill="#000000" stroke="#000000" d="M 270.968,38.7097 L 283.871,38.7097" style="stroke-width: 2px;stroke-opacity: 1;fill-opacity: 0" stroke-width="2" stroke-opacity="1" stroke-dasharray="0" fill-opacity="0" transform="rotate(270 270.96774193548384 38.70967741935483)"/><path fill="#000000" stroke="#000000" d="M 296.774,38.7097 L 309.677,38.7097" style="stroke-width: 2px;stroke-opacity: 1;fill-opacity: 0" stroke-width="2" stroke-opacity="1" stroke-dasharray="0" fill-opacity="0" transform="rotate(270 296.7741935483871 38.70967741935483)"/><path fill="#000000" stroke="#000000" d="M 206.452,12.9032 L 309.677,12.9032" style="stroke-width: 2px;stroke-opacity: 1;fill-opacity: 0" stroke-width="2" stroke-opacity="1" stroke-dasharray="0" fill-opacity="0" transform=""/><path fill="#000000" stroke="#000000" d="M 206.452,0 L 309.677,0" style="stroke-width: 2px;stroke-opacity: 1;fill-opacity: 0" stroke-width="2" stroke-opacity="1" stroke-dasharray="0" fill-opacity="0" transform=""/><path fill="#000000" stroke="#000000" d="M 232.258,25.8065 L 245.161,25.8065" style="stroke-width: 2px;stroke-opacity: 1;fill-opacity: 0" stroke-width="2" stroke-opacity="1" stroke-dasharray="0" fill-opacity="0" transform="rotate(270 232.25806451612902 25.806451612903224)"/><path fill="#000000" stroke="#000000" d="M 258.065,25.8065 L 270.968,25.8065" style="stroke-width: 2px;stroke-opacity: 1;fill-opacity: 0" stroke-width="2" stroke-opacity="1" stroke-dasharray="0" fill-opacity="0" transform="rotate(270 258.06451612903226 25.806451612903224)"/><path fill="#000000" stroke="#000000" d="M 283.871,25.8065 L 296.774,25.8065" style="stroke-width: 2px;stroke-opacity: 1;fill-opacity: 0" stroke-width="2" stroke-opacity="1" stroke-dasharray="0" fill-opacity="0" transform="rotate(270 283.8709677419355 25.806451612903224)"/><path fill="#000000" stroke="#000000" d="M 219.355,12.9032 L 232.258,12.9032" style="stroke-width: 2px;stroke-opacity: 1;fill-opacity: 0" stroke-width="2" stroke-opacity="1" stroke-dasharray="0" fill-opacity="0" transform="rotate(270 219.3548387096774 12.903225806451612)"/><path fill="#000000" stroke="#000000" d="M 245.161,12.9032 L 258.065,12.9032" style="stroke-width: 2px;stroke-opacity: 1;fill-opacity: 0" stroke-width="2" stroke-opacity="1" stroke-dasharray="0" fill-opacity="0" transform="rotate(270 245.16129032258064 12.903225806451612)"/><path fill="#000000" stroke="#000000" d="M 270.968,12.9032 L 283.871,12.9032" style="stroke-width: 2px;stroke-opacity: 1;fill-opacity: 0" stroke-width="2" stroke-opacity="1" stroke-dasharray="0" fill-opacity="0" transform="rotate(270 270.96774193548384 12.903225806451612)"/><path fill="#000000" stroke="#000000" d="M 296.774,12.9032 L 309.677,12.9032" style="stroke-width: 2px;stroke-opacity: 1;fill-opacity: 0" stroke-width="2" stroke-opacity="1" stroke-dasharray="0" fill-opacity="0" transform="rotate(270 296.7741935483871 12.903225806451612)"/><path fill="#808080" stroke="#808080" d="M 250.323,175.484 A 18.0645,18.0645 0 0,0 214.194,175.484 L 232.258,175.484 Z" style="stroke-width: 2px;stroke-opacity: 0;fill-opacity: 0.5" stroke-width="2" stroke-opacity="0" stroke-dasharray="0" fill-opacity="0.5"/><path fill="#808080" stroke="#808080" d="M 250.323,175.484 A 18.0645,18.0645 0 0,0 214.194,175.484" style="stroke-width: 2px;stroke-opacity: 1;fill-opacity: 0" stroke-width="2" stroke-opacity="1" stroke-dasharray="0" fill-opacity="0"/><ellipse cx="216.58683928796233" cy="173.42071502619922" rx="2.5806451612903225" ry="2.5806451612903225" fill="#808080" stroke="#808080" style="stroke-width: 2px;stroke-opacity: 1;fill-opacity: 1" stroke-width="2" stroke-opacity="1" stroke-dasharray="0" fill-opacity="1"/><path fill="#808080" stroke="#808080" d="M 250.323,175.484 L 268.387,175.484" style="stroke-width: 2px;stroke-opacity: 1;fill-opacity: 0" stroke-width="2" stroke-opacity="1" stroke-dasharray="0" fill-opacity="0" transform="rotate(180 250.32258064516125 175.48387096774195)"/><path fill="#808080" stroke="#808080" d="M 249.707,170.808 L 267.772,170.808" style="stroke-width: 2px;stroke-opacity: 1;fill-opacity: 0" stroke-width="2" stroke-opacity="1" stroke-dasharray="0" fill-opacity="0" transform="rotate(164.9999999999999 249.70704718457668 170.80843015298672)"/><path fill="#808080" stroke="#808080" d="M 247.902,166.452 L 265.967,166.452" style="stroke-width: 2px;stroke-opacity: 1;fill-opacity: 0" stroke-width="2" stroke-opacity="1" stroke-dasharray="0" fill-opacity="0" transform="rotate(150 247.9023943909447 166.45161290322582)"/><path fill="#808080" stroke="#808080" d="M 245.032,162.71 L 263.096,162.71" style="stroke-width: 2px;stroke-opacity: 1;fill-opacity: 0" stroke-width="2" stroke-opacity="1" stroke-dasharray="0" fill-opacity="0" transform="rotate(135.00000000000006 245.0316063698215 162.7103291140495)"/><path fill="#808080" stroke="#808080" d="M 241.29,159.84 L 259.355,159.84" style="stroke-width: 2px;stroke-opacity: 1;fill-opacity: 0" stroke-width="2" stroke-opacity="1" stroke-dasharray="0" fill-opacity="0" transform="rotate(119.99999999999989 241.29032258064512 159.83954109292628)"/><path fill="#808080" stroke="#808080" d="M 236.934,158.035 L 254.998,158.035" style="stroke-width: 2px;stroke-opacity: 1;fill-opacity: 0" stroke-width="2" stroke-opacity="1" stroke-dasharray="0" fill-opacity="0" transform="rotate(105 236.93350533088423 158.03488829929427)"/><path fill="#808080" stroke="#808080" d="M 232.258,157.419 L 250.323,157.419" style="stroke-width: 2px;stroke-opacity: 1;fill-opacity: 0" stroke-width="2" stroke-opacity="1" stroke-dasharray="0" fill-opacity="0" transform="rotate(90 232.25806451612902 157.4193548387097)"/><path fill="#808080" stroke="#808080" d="M 227.583,158.035 L 245.647,158.035" style="stroke-width: 2px;stroke-opacity: 1;fill-opacity: 0" stroke-width="2" stroke-opacity="1" stroke-dasharray="0" fill-opacity="0" transform="rotate(74.99999999999994 227.5826237013738 158.03488829929427)"/><path fill="#808080" stroke="#808080" d="M 223.226,159.84 L 241.29,159.84" style="stroke-width: 2px;stroke-opacity: 1;fill-opacity: 0" stroke-width="2" stroke-opacity="1" stroke-dasharray="0" fill-opacity="0" transform="rotate(60 223.2258064516129 159.83954109292628)"/><path fill="#808080" stroke="#808080" d="M 219.485,162.71 L 237.549,162.71" style="stroke-width: 2px;stroke-opacity: 1;fill-opacity: 0" stroke-width="2" stroke-opacity="1" stroke-dasharray="0" fill-opacity="0" transform="rotate(45.000000000000114 219.48452266243658 162.71032911404944)"/><path fill="#808080" stroke="#808080" d="M 216.614,166.452 L 234.678,166.452" style="stroke-width: 2px;stroke-opacity: 1;fill-opacity: 0" stroke-width="2" stroke-opacity="1" stroke-dasharray="0" fill-opacity="0" transform="rotate(30 216.61373464131336 166.45161290322582)"/><path fill="#808080" stroke="#808080" d="M 214.809,170.808 L 232.874,170.808" style="stroke-width: 2px;stroke-opacity: 1;fill-opacity: 0" stroke-width="2" stroke-opacity="1" stroke-dasharray="0" fill-opacity="0" transform="rotate(15.000000000000057 214.80908184768134 170.80843015298672)"/><path fill="#808080" stroke="#808080" d="M 214.194,175.484 L 232.258,175.484" style="stroke-width: 2px;stroke-opacity: 1;fill-opacity: 0" stroke-width="2" stroke-opacity="1" stroke-dasharray="0" fill-opacity="0" transform=""/><path fill="#808080" stroke="#808080" d="M 220.215,175.484 L 224.254,175.484" style="stroke-width: 2px;stroke-opacity: 1;fill-opacity: 0" stroke-width="2" stroke-opacity="1" stroke-dasharray="0" fill-opacity="0" transform="rotate(116.56505117707798 220.21505376344084 175.48387096774195)"/><path fill="#808080" stroke="#808080" d="M 223.226,175.484 L 227.265,175.484" style="stroke-width: 2px;stroke-opacity: 1;fill-opacity: 0" stroke-width="2" stroke-opacity="1" stroke-dasharray="0" fill-opacity="0" transform="rotate(116.56505117707798 223.2258064516129 175.48387096774195)"/><path fill="#808080" stroke="#808080" d="M 226.237,175.484 L 230.276,175.484" style="stroke-width: 2px;stroke-opacity: 1;fill-opacity: 0" stroke-width="2" stroke-opacity="1" stroke-dasharray="0" fill-opacity="0" transform="rotate(116.56505117707798 226.23655913978496 175.48387096774195)"/><path fill="#808080" stroke="#808080" d="M 238.28,175.484 L 242.319,175.484" style="stroke-width: 2px;stroke-opacity: 1;fill-opacity: 0" stroke-width="2" stroke-opacity="1" stroke-dasharray="0" fill-opacity="0" transform="rotate(63.434948822922024 238.2795698924731 175.48387096774195)"/><path fill="#808080" stroke="#808080" d="M 241.29,175.484 L 245.33,175.484" style="stroke-width: 2px;stroke-opacity: 1;fill-opacity: 0" stroke-width="2" stroke-opacity="1" stroke-dasharray="0" fill-opacity="0" transform="rotate(63.434948822921626 241.29032258064512 175.48387096774195)"/><path fill="#808080" stroke="#808080" d="M 244.301,175.484 L 248.34,175.484" style="stroke-width: 2px;stroke-opacity: 1;fill-opacity: 0" stroke-width="2" stroke-opacity="1" stroke-dasharray="0" fill-opacity="0" transform="rotate(63.434948822922024 244.3010752688172 175.48387096774195)"/><path fill="#808080" stroke="#808080" d="M 247.312,175.484 L 251.351,175.484" style="stroke-width: 2px;stroke-opacity: 1;fill-opacity: 0" stroke-width="2" stroke-opacity="1" stroke-dasharray="0" fill-opacity="0" transform="rotate(63.434948822922706 247.31182795698925 175.48387096774195)"/><path fill="#808080" stroke="#808080" d="M 216,170.065 L 222.513,170.065" style="stroke-width: 2px;stroke-opacity: 1;fill-opacity: 0" stroke-width="2" stroke-opacity="1" stroke-dasharray="0" fill-opacity="0" transform="rotate(213.69006752597966 215.99999999999997 170.06451612903226)"/><path fill="#808080" stroke="#808080" d="M 216,168.258 L 223.054,168.258" style="stroke-width: 2px;stroke-opacity: 1;fill-opacity: 0" stroke-width="2" stroke-opacity="1" stroke-dasharray="0" fill-opacity="0" transform="rotate(219.80557109226538 215.99999999999997 168.25806451612905)"/><path fill="none" stroke="#000000" d="M 143.226,135.484 C 144.226,132.484 149.226,130.484 153.226,129.484 C 153.226,129.484 156.226,128.484 159.226,128.484 L 180.549,128.484 C 185.549,128.484 190.549,125.484 190.549,125.484 L 193.549,121.484 L 196.549,125.484 S 201.549,128.484 206.549,128.484 L 227.871,128.484 C 230.871,129.484 233.871,129.484 233.871,129.484 C 237.871,130.484 242.871,132.484 243.871,135.484" transform="rotate(270 193.54830645161292 128.48387096774195)"/><path fill="none" stroke="#000000" d="M 91.6129,290.323 C 92.6129,287.323 97.6129,285.323 101.613,284.323 C 101.613,284.323 104.613,283.323 107.613,283.323 L 180.548,283.323 C 185.548,283.323 190.548,280.323 190.548,280.323 L 193.548,276.323 L 196.548,280.323 S 201.548,283.323 206.548,283.323 L 279.484,283.323 C 282.484,284.323 285.484,284.323 285.484,284.323 C 289.484,285.323 294.484,287.323 295.484,290.323" transform="rotate(270 193.54840322580645 283.3225806451612)"/></svg>