<svg xmlns="http://www.w3.org/2000/svg" version="1.1" width="400" height="176" viewBox="0 0 400 176"><defs/><path fill="#f0e68c" stroke="#000000" d="M 0,160 L 64,128 L 384,128 L 320,160 Z" style="stroke-width: 2px;fill-opacity: 1;stroke-opacity: 1" stroke-width="2" fill-opacity="1" stroke-opacity="1" stroke-dasharray="0"/><path fill="#808080" stroke="#808080" d="M 44,144 L 44,64 L 48,64 L 48,144 Z" style="stroke-width: 2px;fill-opacity: 1;stroke-opacity: 1" stroke-width="2" fill-opacity="1" stroke-opacity="1" stroke-dasharray="0"/><path fill="#808080" stroke="#000000" d="M 28,80 L 28,48 L 64,32 L 64,64 Z" style="stroke-width: 2px;fill-opacity: 1;stroke-opacity: 1" stroke-width="2" fill-opacity="1" stroke-opacity="1" stroke-dasharray="0"/><ellipse cx="51.2" cy="73.6" rx="12.8" ry="3.2" fill="#6495ed" stroke="#6495ed" style="stroke-width: 2px;stroke-opacity: 1;fill-opacity: 0" stroke-width="2" stroke-opacity="1" stroke-dasharray="0" fill-opacity="0"/><ellipse cx="51.2" cy="78.4" rx="9.6" ry="2.4" fill="#6495ed" stroke="#6495ed" style="stroke-width: 2px;stroke-opacity: 1;fill-opacity: 0" stroke-width="2" stroke-opacity="1" stroke-dasharray="0" fill-opacity="0"/><ellipse cx="51.2" cy="83.2" rx="6.4" ry="1.6" fill="#6495ed" stroke="#6495ed" style="stroke-width: 2px;stroke-opacity: 1;fill-opacity: 0" stroke-width="2" stroke-opacity="1" stroke-dasharray="0" fill-opacity="0"/><path fill="#6495ed" stroke="#6495ed" d="M 36.8,70.4 L 53.273,70.4" style="stroke-width: 2px;stroke-opacity: 1;fill-opacity: 0" stroke-width="2" stroke-opacity="1" stroke-dasharray="0" fill-opacity="0" transform="rotate(60.94539590092285 36.8 70.4)"/><path fill="#6495ed" stroke="#6495ed" d="M 43.2,65.6 L 62.9909,65.6" style="stroke-width: 2px;stroke-opacity: 1;fill-opacity: 0" stroke-width="2" stroke-opacity="1" stroke-dasharray="0" fill-opacity="0" transform="rotate(75.96375653207355 43.2 65.6)"/><path fill="#6495ed" stroke="#6495ed" d="M 51.2,64.8 L 71.2,64.8" style="stroke-width: 2px;stroke-opacity: 1;fill-opacity: 0" stroke-width="2" stroke-opacity="1" stroke-dasharray="0" fill-opacity="0" transform="rotate(90 51.2 64.8)"/><path fill="#6495ed" stroke="#6495ed" d="M 59.2,65.6 L 78.9909,65.6" style="stroke-width: 2px;stroke-opacity: 1;fill-opacity: 0" stroke-width="2" stroke-opacity="1" stroke-dasharray="0" fill-opacity="0" transform="rotate(104.03624346792651 59.2 65.6)"/><path fill="#6495ed" stroke="#6495ed" d="M 65.6,70.4 L 82.073,70.4" style="stroke-width: 2px;stroke-opacity: 1;fill-opacity: 0" stroke-width="2" stroke-opacity="1" stroke-dasharray="0" fill-opacity="0" transform="rotate(119.05460409907715 65.6 70.4)"/><ellipse cx="51.2" cy="68.8" rx="14.4" ry="4.8" fill="#df0030" stroke="#df0030" style="stroke-width: 2px;stroke-opacity: 1;fill-opacity: 0" stroke-width="2" stroke-opacity="1" stroke-dasharray="0" fill-opacity="0"/><ellipse cx="323.2" cy="73.6" rx="12.8" ry="3.2" fill="#6495ed" stroke="#6495ed" style="stroke-width: 2px;stroke-opacity: 1;fill-opacity: 0" stroke-width="2" stroke-opacity="1" stroke-dasharray="0" fill-opacity="0"/><ellipse cx="323.2" cy="78.4" rx="9.6" ry="2.4" fill="#6495ed" stroke="#6495ed" style="stroke-width: 2px;stroke-opacity: 1;fill-opacity: 0" stroke-width="2" stroke-opacity="1" stroke-dasharray="0" fill-opacity="0"/><ellipse cx="323.2" cy="83.2" rx="6.4" ry="1.6" fill="#6495ed" stroke="#6495ed" style="stroke-width: 2px;stroke-opacity: 1;fill-opacity: 0" stroke-width="2" stroke-opacity="1" stroke-dasharray="0" fill-opacity="0"/><path fill="#6495ed" stroke="#6495ed" d="M 308.8,70.4 L 325.273,70.4" style="stroke-width: 2px;stroke-opacity: 1;fill-opacity: 0" stroke-width="2" stroke-opacity="1" stroke-dasharray="0" fill-opacity="0" transform="rotate(60.94539590092285 308.8 70.4)"/><path fill="#6495ed" stroke="#6495ed" d="M 315.2,65.6 L 334.991,65.6" style="stroke-width: 2px;stroke-opacity: 1;fill-opacity: 0" stroke-width="2" stroke-opacity="1" stroke-dasharray="0" fill-opacity="0" transform="rotate(75.96375653207349 315.2 65.6)"/><path fill="#6495ed" stroke="#6495ed" d="M 323.2,64.8 L 343.2,64.8" style="stroke-width: 2px;stroke-opacity: 1;fill-opacity: 0" stroke-width="2" stroke-opacity="1" stroke-dasharray="0" fill-opacity="0" transform="rotate(90 323.2 64.8)"/><path fill="#6495ed" stroke="#6495ed" d="M 331.2,65.6 L 350.991,65.6" style="stroke-width: 2px;stroke-opacity: 1;fill-opacity: 0" stroke-width="2" stroke-opacity="1" stroke-dasharray="0" fill-opacity="0" transform="rotate(104.03624346792651 331.2 65.6)"/><path fill="#6495ed" stroke="#6495ed" d="M 337.6,70.4 L 354.073,70.4" style="stroke-width: 2px;stroke-opacity: 1;fill-opacity: 0" stroke-width="2" stroke-opacity="1" stroke-dasharray="0" fill-opacity="0" transform="rotate(119.05460409907715 337.6 70.4)"/><ellipse cx="323.2" cy="68.8" rx="14.4" ry="4.8" fill="#df0030" stroke="#df0030" style="stroke-width: 2px;stroke-opacity: 1;fill-opacity: 0" stroke-width="2" stroke-opacity="1" stroke-dasharray="0" fill-opacity="0"/><path fill="#808080" stroke="#808080" d="M 332,144 L 332,64 L 336,64 L 336,144 Z" style="stroke-width: 2px;fill-opacity: 1;stroke-opacity: 1" stroke-width="2" fill-opacity="1" stroke-opacity="1" stroke-dasharray="0"/><path fill="#808080" stroke="#000000" d="M 316,80 L 316,48 L 352,32 L 352,64 Z" style="stroke-width: 2px;fill-opacity: 1;stroke-opacity: 1" stroke-width="2" fill-opacity="1" stroke-opacity="1" stroke-dasharray="0"/><path fill="#304454" stroke="none" d="M 134.961,129.966 C 133.676,130.822 132.274,131.442 130.713,131.874 C 129.948,132.085 129.244,132.228 128.449,132.282 C 127.77,132.328 127.143,132.191 126.499,132.204 C 126.876,132.829 127.936,132.989 128.8,132.866 C 128.709,133.062 128.399,133.168 128.236,133.336 C 128.644,133.759 136.185,134.682 137.023,134.276 C 137.606,133.994 138.333,133.702 138.624,133.201 C 138.467,133.493 138.059,133.769 137.983,134.057 C 138.495,134.146 139.476,133.41 139.864,133.15 C 140.382,132.803 140.867,132.472 141.25,132.037 C 142.591,130.515 143.414,128.32 143.213,126.595 C 143.119,125.789 142.684,124.757 141.691,124.389 C 140.732,124.034 135.939,129.314 134.961,129.966 Z" transform=""/><path fill="#f89c44" stroke="none" d="M 149.58,141.303 C 149.991,141.448 150.577,143.746 150.785,144.261 C 150.938,144.637 151.005,145.012 150.49,145.078 C 150.187,145.117 149.423,144.976 149.466,145.511 C 149.511,146.082 150.44,145.959 150.78,146.121 C 151.024,146.238 151.61,146.29 151.899,146.33 C 152.364,146.394 153.471,146.409 153.452,146.121 C 153.831,145.982 154.503,146.042 154.924,146.147 C 155.766,146.261 155.366,145.585 155.157,145.482 C 154.823,145.317 154.473,145.121 154.11,144.993 C 153.618,144.819 153.115,144.701 152.633,144.487 C 151.285,144.442 150.788,141.052 150.876,140.848" transform=""/><path fill="#f89c44" stroke="none" d="M 141.097,141.303 C 141.093,141.99 140.763,144.199 140.597,144.556 C 140.191,145.431 138.766,145.015 138.118,145.579 C 137.613,146.019 138.275,146.143 138.641,146.107 C 139.039,146.068 140.097,146.185 140.347,146.326 C 140.794,146.576 141.644,146.119 141.741,146.053 C 141.817,146.001 142.822,146.187 143.327,146.193 C 144.052,146.201 143.355,145.441 143.026,145.288 C 141.211,144.646 141.906,142.28 142.235,141.167" transform=""/><path fill="#304454" stroke="none" d="M 157.525,131.788 C 157.583,131.404 157.459,130.892 157.43,130.5 C 157.394,130.029 157.392,129.563 157.217,129.117 C 157.02,123.106 151.939,124.188 154.206,120.269 C 154.519,119.586 155.176,118.296 154.68,115.665 C 153.416,108.966 147.962,108.676 147.604,108.914 C 148.209,108.511 148.929,108.565 149.617,108.606 C 150.311,108.647 150.953,108.963 151.618,109.053 C 150.788,108.365 149.581,107.934 148.49,107.925 C 147.854,107.919 147.269,107.947 146.649,108.087 C 146.187,108.191 145.798,108.419 145.365,108.57 C 145.75,107.455 147.134,107.303 148.175,107.312 C 147.607,107.066 146.618,107.304 146.06,107.508 C 145.491,107.716 144.761,107.996 144.395,108.493 C 144.686,107.928 144.869,107.463 145.42,107.074 C 145.78,106.82 146.24,106.554 146.696,106.4 C 145.906,106.596 145.127,106.812 144.467,107.355 C 143.983,107.754 143.654,108.372 143.475,108.972 C 143.483,108.474 143.518,108.027 143.197,107.62 C 142.816,107.137 142.423,107.246 141.908,107.389 C 142.318,107.457 142.835,107.651 142.99,108.13 C 143.133,108.572 142.957,109.333 142.589,109.563 C 134.473,114.644 140.945,122.826 141.088,122.932 C 141.148,122.976 141.1,124.282 140.876,124.7 C 140.554,126.381 129.093,144.083 146.686,145.919 C 152.479,146.523 157.232,141.678 157.232,136.447 C 157.232,135.206 156.787,131.627 156.582,130.851 C 156.686,131.257 157.12,131.583 157.122,132.029 C 157.135,131.585 157.019,131.203 156.879,130.809 C 156.926,130.86 156.977,130.907 157.017,130.951 C 157.255,131.214 157.366,131.48 157.525,131.788 Z" transform=""/><path fill="#304454" stroke="none" d="M 153.163,128.211 C 153.433,128.597 153.642,129.061 153.97,129.353 C 154.244,128.73 154.294,129.067 154.651,129.587 C 154.911,129.966 155.098,130.101 155.431,130.307 C 156.315,130.852 157.111,131.961 157.738,132.955 C 158.561,134.261 159.145,135.678 159.537,137.25 C 159.729,138.02 159.854,138.727 159.887,139.523 C 159.916,140.204 159.763,140.827 159.76,141.471 C 160.394,141.11 160.581,140.054 160.481,139.187 C 160.674,139.283 160.772,139.596 160.936,139.762 C 162.187,135.969 161.881,128.07 154.577,124.619 C 153.843,124.273 152.726,125.101 152.334,126.084 C 151.954,127.034 152.476,128.647 153.312,129.023 C 153.319,128.804 153.293,128.397 153.163,128.211 Z" transform=""/><path fill="#efefef" stroke="none" d="M 152.64,117.219 C 152.609,116.898 152.53,116.591 152.414,116.299 C 152.669,115.487 152.694,114.501 152.424,113.495 C 151.845,111.331 150.134,109.908 148.604,110.318 C 147.45,110.627 146.729,111.891 146.692,113.421 C 146.653,113.424 146.614,113.424 146.575,113.428 C 146.239,113.461 145.915,113.52 145.599,113.595 C 145.097,112.421 144.188,111.634 143.147,111.634 C 141.562,111.634 140.279,113.45 140.279,115.691 C 140.279,117.073 140.768,118.293 141.515,119.025 C 142.156,121.045 144.628,122.393 147.429,122.118 C 150.543,121.812 152.876,119.619 152.64,117.219 Z" transform=""/><ellipse cx="143.24297606534205" cy="115.81297019783385" rx="0.5894858434448864" ry="0.8193571173241124" fill="#304454" stroke="none" transform="rotate(-8.8934 143.2429776102094 115.81297011893174)" r="NaN"/><ellipse cx="150.12971331091748" cy="114.36746029485536" rx="0.5894858434448864" ry="0.8193571173241124" fill="#304454" stroke="none" transform="rotate(-8.8934 150.12971413849297 114.36746057459919)" r="NaN"/><ellipse cx="146.95194430896822" cy="134.97596156353737" rx="10.763052529118118" ry="7.851349726647921" fill="#efefef" stroke="none" transform="rotate(84.3875 146.95194356298467 134.9759608749372)" r="NaN"/><path fill="#f89c44" stroke="none" d="M 148.225,118.028 C 147.571,118.738 146.65,118.678 145.78,118.557 L 144.75,118.499 C 144.977,118.469 145.701,119.196 145.957,119.381 C 146.363,119.676 146.774,119.96 147.259,120.052 C 147.671,120.131 148.272,120.279 148.642,120.007 C 148.975,119.763 149.192,119.194 149.342,118.822 C 149.6,118.187 149.573,117.442 149.899,116.827 C 149.184,116.836 148.652,117.565 148.225,118.028 Z" transform=""/><path fill="#d14e3f" stroke="none" d="M 145.515,118.675 C 146.325,118.879 147.174,120.048 148.076,119.675 C 148.81,119.372 149.184,117.955 149.394,117.262 C 149.416,117.189 149.452,117.124 149.487,117.059 C 148.783,117.302 148.394,117.932 147.84,118.359 C 147.578,118.561 147.19,118.636 146.868,118.668 C 146.505,118.704 146.321,118.57 145.986,118.498" transform=""/><path fill="#f89c44" stroke="none" d="M 144.625,118.503 L 144.625,118.473 C 145.124,118.627 145.668,118.659 146.185,118.769 C 146.298,118.793 146.426,118.822 146.563,118.849 C 146.927,118.923 147.344,118.985 147.657,118.915 C 148.075,118.821 148.359,118.401 148.591,118.055 C 148.813,117.723 149.042,117.49 149.337,117.272 C 149.528,117.13 149.752,117.018 149.899,116.824 C 149.768,116.623 149.457,116.669 149.247,116.7 C 148.953,116.744 148.774,116.776 148.482,116.685 C 148.153,116.582 147.865,116.442 147.545,116.389 C 146.768,116.26 146.267,116.767 145.855,117.353 C 145.719,117.546 145.547,117.686 145.371,117.817 C 145.193,117.949 145.01,118.071 144.854,118.231 C 144.769,118.318 144.713,118.414 144.625,118.503 Z" transform=""/><ellipse cx="124.8" cy="112" rx="8" ry="8" fill="#ffa500" stroke="#000000" style="stroke-width: 2px;stroke-opacity: 1;fill-opacity: 0.7" stroke-width="2" stroke-opacity="1" stroke-dasharray="0" fill-opacity="0.7"/><path fill="#000000" stroke="#000000" d="M 124.8,104 L 140.8,104" style="stroke-width: 2px;stroke-opacity: 1;fill-opacity: 0" stroke-width="2" stroke-opacity="1" stroke-dasharray="0" fill-opacity="0" transform="rotate(90 124.8 104)"/><path fill="#000000" stroke="#000000" d="M 119.098,117.591 A 6.66667,6.66667 0 0,0 118.999,106.346 L 115.467,112 Z" style="stroke-width: 2px;stroke-opacity: 0;fill-opacity: 0" stroke-width="2" stroke-opacity="0" stroke-dasharray="0" fill-opacity="0"/><path fill="#000000" stroke="#000000" d="M 119.098,117.591 A 6.66667,6.66667 0 0,0 118.999,106.346" style="stroke-width: 2px;stroke-opacity: 1;fill-opacity: 0" stroke-width="2" stroke-opacity="1" stroke-dasharray="0" fill-opacity="0"/><path fill="#000000" stroke="#000000" d="M 130.601,106.346 A 6.66667,6.66667 0 0,0 130.601,117.654 L 134.133,112 Z" style="stroke-width: 2px;stroke-opacity: 0;fill-opacity: 0" stroke-width="2" stroke-opacity="0" stroke-dasharray="0" fill-opacity="0"/><path fill="#000000" stroke="#000000" d="M 130.601,106.346 A 6.66667,6.66667 0 0,0 130.601,117.654" style="stroke-width: 2px;stroke-opacity: 1;fill-opacity: 0" stroke-width="2" stroke-opacity="1" stroke-dasharray="0" fill-opacity="0"/><path fill="#000000" stroke="#df0030" d="M 157.375,64 L 157.375,50.6251" style="stroke-width: 3px;stroke-opacity: 1;fill-opacity: 1" stroke-width="3" stroke-opacity="1" stroke-dasharray="0" fill-opacity="1"/><path fill="#000000" stroke="#df0030" d="M 144,50.6251 L 157.375,50.6251" style="stroke-width: 3px;stroke-opacity: 1;fill-opacity: 1" stroke-width="3" stroke-opacity="1" stroke-dasharray="0" fill-opacity="1"/><path fill="#000000" stroke="#df0030" d="M 272,50.6251 L 258.625,50.6251" style="stroke-width: 3px;stroke-opacity: 1;fill-opacity: 1" stroke-width="3" stroke-opacity="1" stroke-dasharray="0" fill-opacity="1"/><path fill="#000000" stroke="#df0030" d="M 258.625,64 L 258.625,50.6251" style="stroke-width: 3px;stroke-opacity: 1;fill-opacity: 1" stroke-width="3" stroke-opacity="1" stroke-dasharray="0" fill-opacity="1"/><path fill="#000000" stroke="#df0030" d="M 258.625,16 L 258.625,29.3749" style="stroke-width: 3px;stroke-opacity: 1;fill-opacity: 1" stroke-width="3" stroke-opacity="1" stroke-dasharray="0" fill-opacity="1"/><path fill="#000000" stroke="#df0030" d="M 272,29.3749 L 258.625,29.3749" style="stroke-width: 3px;stroke-opacity: 1;fill-opacity: 1" stroke-width="3" stroke-opacity="1" stroke-dasharray="0" fill-opacity="1"/><path fill="#000000" stroke="#df0030" d="M 144,29.3749 L 157.375,29.3749" style="stroke-width: 3px;stroke-opacity: 1;fill-opacity: 1" stroke-width="3" stroke-opacity="1" stroke-dasharray="0" fill-opacity="1"/><path fill="#000000" stroke="#df0030" d="M 157.375,16 L 157.375,29.3749" style="stroke-width: 3px;stroke-opacity: 1;fill-opacity: 1" stroke-width="3" stroke-opacity="1" stroke-dasharray="0" fill-opacity="1"/><path fill="#000000" stroke="#df0030" d="M 144,64 L 272,64 L 272,16 L 144,16 Z" style="stroke-width: 3px;fill-opacity: 1;stroke-opacity: 1" stroke-width="3" fill-opacity="1" stroke-opacity="1" stroke-dasharray="0"/><path fill="#df0030" stroke="#df0030" d="M 208,64 L 256,64" style="stroke-width: 2px;stroke-opacity: 1;fill-opacity: 0" stroke-width="2" stroke-opacity="1" stroke-dasharray="0" fill-opacity="0" transform="rotate(270 208 64)"/></svg>