<svg xmlns="http://www.w3.org/2000/svg" width="400" height="371.429" viewBox="0 0 400 371.42857142857144"><path fill="#28ae7b" stroke="#000" d="M85.714 257.143v-85.714h205.514v85.714z" stroke-width="2" stroke-dasharray="0"/><path fill="#ff00af" stroke="#000" d="M291.228 257.143v-85.714h80.201v85.714z" stroke-width="2" stroke-dasharray="0"/><path fill="#28ae7b" stroke="#000" d="M85.714 157.143V71.429h205.514v85.714z" stroke-width="2" stroke-dasharray="0"/><path fill="none" stroke="#000" d="M371.43 260.285c-1 3-6 5-10 6 0 0-3 1-6 1h-11.1c-5 0-10 3-10 3l-3 4-3-4s-5-3-10-3h-11.102c-3-1-6-1-6-1-4-1-9-3-10-6M371.428 306c-1 3-6 5-10 6 0 0-3 1-6 1H241.573c-5 0-10 3-10 3l-3 4-3-4s-5-3-10-3H101.715c-3-1-6-1-6-1-4-1-9-3-10-6M85.714 68.571c1-3 6-5 10-6 0 0 3-1 6-1h73.757c5 0 10-3 10-3l3-4 3 4s5 3 10 3h73.757c3 1 6 1 6 1 4 1 9 3 10 6"/></svg>
