<svg xmlns="http://www.w3.org/2000/svg" version="1.1" width="400" height="314.2857142857143" viewBox="0 0 400 314.2857142857143"><defs/><path fill="#28ae7b" stroke="#000000" d="M 85.7143,228.571 L 85.7143,142.857 L 262.185,142.857 L 262.185,228.571 Z" style="stroke-width: 2px;fill-opacity: 1;stroke-opacity: 1" stroke-width="2" fill-opacity="1" stroke-opacity="1" stroke-dasharray="0"/><path fill="#ff00af" stroke="#000000" d="M 262.185,228.571 L 262.185,142.857 L 371.429,142.857 L 371.429,228.571 Z" style="stroke-width: 2px;fill-opacity: 1;stroke-opacity: 1" stroke-width="2" fill-opacity="1" stroke-opacity="1" stroke-dasharray="0"/><path fill="#28ae7b" stroke="#000000" d="M 85.7143,128.571 L 85.7143,42.8571 L 262.185,42.8571 L 262.185,128.571 Z" style="stroke-width: 2px;fill-opacity: 1;stroke-opacity: 1" stroke-width="2" fill-opacity="1" stroke-opacity="1" stroke-dasharray="0"/><path fill="none" stroke="#000000" d="M 262.185,245.714 C 263.185,242.714 268.185,240.714 272.185,239.714 C 272.185,239.714 275.185,238.714 278.185,238.714 L 303.807,238.714 C 308.807,238.714 313.807,235.714 313.807,235.714 L 316.807,231.714 L 319.807,235.714 S 324.807,238.714 329.807,238.714 L 355.429,238.714 C 358.429,239.714 361.429,239.714 361.429,239.714 C 365.429,240.714 370.429,242.714 371.429,245.714" transform="rotate(180 316.8068739495798 238.71428571428572)"/><path fill="none" stroke="#000000" d="M 85.7143,291.429 C 86.7143,288.429 91.7143,286.429 95.7143,285.429 C 95.7143,285.429 98.7143,284.429 101.714,284.429 L 215.571,284.429 C 220.571,284.429 225.571,281.429 225.571,281.429 L 228.571,277.429 L 231.571,281.429 S 236.571,284.429 241.571,284.429 L 355.428,284.429 C 358.428,285.429 361.428,285.429 361.428,285.429 C 365.428,286.429 370.428,288.429 371.428,291.429" transform="rotate(180 228.57128571428572 284.42857142857144)"/><path fill="none" stroke="#000000" d="M 85.7143,40 C 86.7143,37 91.7143,35 95.7143,34 C 95.7143,34 98.7143,33 101.714,33 L 160.949,33 C 165.949,33 170.949,30 170.949,30 L 173.949,26 L 176.949,30 S 181.949,33 186.949,33 L 246.185,33 C 249.185,34 252.185,34 252.185,34 C 256.185,35 261.185,37 262.185,40" transform=""/></svg>