<svg xmlns="http://www.w3.org/2000/svg" width="398.532" height="120" viewBox="0 0 398.5321100917431 120"><path fill="#ccfaff" stroke="#0c7f99" d="M92.477 106.789v11.009h11.009l5.505-5.504v-11.01h-11.01z" stroke-width="2"/><path fill="#ccfaff" stroke="#0c7f99" d="M92.477 106.789h11.009v11.009M103.486 106.789l5.505-5.505" stroke-width="2"/><path fill="#ccfaff" stroke="#0c7f99" d="M92.477 95.78v11.009h11.009l5.505-5.505V90.275h-11.01z" stroke-width="2"/><path fill="#ccfaff" stroke="#0c7f99" d="M92.477 95.78h11.009v11.009M103.486 95.78l5.505-5.505" stroke-width="2"/><path fill="#ccfaff" stroke="#0c7f99" d="M92.477 84.77v11.01h11.009l5.505-5.505V79.266h-11.01z" stroke-width="2"/><path fill="#ccfaff" stroke="#0c7f99" d="M92.477 84.77h11.009v11.01M103.486 84.77l5.505-5.504" stroke-width="2"/><path fill="#ccfaff" stroke="#0c7f99" d="M92.477 73.761v11.01h11.009l5.505-5.505v-11.01h-11.01z" stroke-width="2"/><path fill="#ccfaff" stroke="#0c7f99" d="M92.477 73.761h11.009v11.01M103.486 73.761l5.505-5.504" stroke-width="2"/><path fill="#ccfaff" stroke="#0c7f99" d="M92.477 62.752v11.01h11.009l5.505-5.505v-11.01h-11.01z" stroke-width="2"/><path fill="#ccfaff" stroke="#0c7f99" d="M92.477 62.752h11.009v11.01M103.486 62.752l5.505-5.504" stroke-width="2"/><path fill="#ccfaff" stroke="#0c7f99" d="M92.477 51.743v11.01h11.009l5.505-5.505v-11.01h-11.01z" stroke-width="2"/><path fill="#ccfaff" stroke="#0c7f99" d="M92.477 51.743h11.009v11.01M103.486 51.743l5.505-5.505" stroke-width="2"/><path fill="#ccfaff" stroke="#0c7f99" d="M92.477 40.734v11.01h11.009l5.505-5.505v-11.01h-11.01z" stroke-width="2"/><path fill="#ccfaff" stroke="#0c7f99" d="M92.477 40.734h11.009v11.01M103.486 40.734l5.505-5.505" stroke-width="2"/><path fill="#ccfaff" stroke="#0c7f99" d="M92.477 29.725v11.009h11.009l5.505-5.505V24.22h-11.01z" stroke-width="2"/><path fill="#ccfaff" stroke="#0c7f99" d="M92.477 29.725h11.009v11.009M103.486 29.725l5.505-5.505" stroke-width="2"/><path fill="#ccfaff" stroke="#0c7f99" d="M92.477 18.716v11.009h11.009l5.505-5.505V13.211h-11.01z" stroke-width="2"/><path fill="#ccfaff" stroke="#0c7f99" d="M92.477 18.716h11.009v11.009M103.486 18.716l5.505-5.505" stroke-width="2"/><path fill="#ccfaff" stroke="#0c7f99" d="M92.477 7.706v11.01h11.009l5.505-5.505V2.201h-11.01z" stroke-width="2"/><path fill="#ccfaff" stroke="#0c7f99" d="M92.477 7.706h11.009v11.01M103.486 7.706l5.505-5.504M114.495 106.789v11.009h11.01l5.504-5.504v-11.01H120z" stroke-width="2"/><path fill="#ccfaff" stroke="#0c7f99" d="M114.495 106.789h11.01v11.009M125.505 106.789l5.504-5.505M114.495 84.77v11.01h11.01l5.504-5.505V79.266H120z" stroke-width="2"/><path fill="#ccfaff" stroke="#0c7f99" d="M114.495 84.77h11.01v11.01M125.505 84.77l5.504-5.504M114.495 62.752v11.01h11.01l5.504-5.505v-11.01H120z" stroke-width="2"/><path fill="#ccfaff" stroke="#0c7f99" d="M114.495 62.752h11.01v11.01M125.505 62.752l5.504-5.504M114.495 40.734v11.01h11.01l5.504-5.505v-11.01H120z" stroke-width="2"/><path fill="#ccfaff" stroke="#0c7f99" d="M114.495 40.734h11.01v11.01M125.505 40.734l5.504-5.505M114.495 18.716v11.009h11.01l5.504-5.505V13.211H120z" stroke-width="2"/><path fill="#ccfaff" stroke="#0c7f99" d="M114.495 18.716h11.01v11.009M125.505 18.716l5.504-5.505M136.514 106.789v11.009h11.009l5.505-5.504v-11.01h-11.01z" stroke-width="2"/><path fill="#ccfaff" stroke="#0c7f99" d="M136.514 106.789h11.009v11.009M147.523 106.789l5.505-5.505M136.514 84.77v11.01h11.009l5.505-5.505V79.266h-11.01z" stroke-width="2"/><path fill="#ccfaff" stroke="#0c7f99" d="M136.514 84.77h11.009v11.01M147.523 84.77l5.505-5.504M136.514 62.752v11.01h11.009l5.505-5.505v-11.01h-11.01z" stroke-width="2"/><path fill="#ccfaff" stroke="#0c7f99" d="M136.514 62.752h11.009v11.01M147.523 62.752l5.505-5.504" stroke-width="2"/><path fill="#ffd0a9" stroke="#a75a05" d="M224.587 106.789v11.009h11.009l5.505-5.504v-11.01h-11.009z" stroke-width="2"/><path fill="#ffd0a9" stroke="#a75a05" d="M224.587 106.789h11.009v11.009M235.596 106.789l5.505-5.505" stroke-width="2"/><path fill="#ffd0a9" stroke="#a75a05" d="M224.587 95.78v11.009h11.009l5.505-5.505V90.275h-11.009z" stroke-width="2"/><path fill="#ffd0a9" stroke="#a75a05" d="M224.587 95.78h11.009v11.009M235.596 95.78l5.505-5.505" stroke-width="2"/><path fill="#ffd0a9" stroke="#a75a05" d="M224.587 84.77v11.01h11.009l5.505-5.505V79.266h-11.009z" stroke-width="2"/><path fill="#ffd0a9" stroke="#a75a05" d="M224.587 84.77h11.009v11.01M235.596 84.77l5.505-5.504" stroke-width="2"/><path fill="#ffd0a9" stroke="#a75a05" d="M224.587 73.761v11.01h11.009l5.505-5.505v-11.01h-11.009z" stroke-width="2"/><path fill="#ffd0a9" stroke="#a75a05" d="M224.587 73.761h11.009v11.01M235.596 73.761l5.505-5.504" stroke-width="2"/><path fill="#ffd0a9" stroke="#a75a05" d="M224.587 62.752v11.01h11.009l5.505-5.505v-11.01h-11.009z" stroke-width="2"/><path fill="#ffd0a9" stroke="#a75a05" d="M224.587 62.752h11.009v11.01M235.596 62.752l5.505-5.504" stroke-width="2"/><path fill="#ffd0a9" stroke="#a75a05" d="M224.587 51.743v11.01h11.009l5.505-5.505v-11.01h-11.009z" stroke-width="2"/><path fill="#ffd0a9" stroke="#a75a05" d="M224.587 51.743h11.009v11.01M235.596 51.743l5.505-5.505" stroke-width="2"/><path fill="#ffd0a9" stroke="#a75a05" d="M224.587 40.734v11.01h11.009l5.505-5.505v-11.01h-11.009z" stroke-width="2"/><path fill="#ffd0a9" stroke="#a75a05" d="M224.587 40.734h11.009v11.01M235.596 40.734l5.505-5.505" stroke-width="2"/><path fill="#ffd0a9" stroke="#a75a05" d="M224.587 29.725v11.009h11.009l5.505-5.505V24.22h-11.009z" stroke-width="2"/><path fill="#ffd0a9" stroke="#a75a05" d="M224.587 29.725h11.009v11.009M235.596 29.725l5.505-5.505" stroke-width="2"/><path fill="#ffd0a9" stroke="#a75a05" d="M224.587 18.716v11.009h11.009l5.505-5.505V13.211h-11.009z" stroke-width="2"/><path fill="#ffd0a9" stroke="#a75a05" d="M224.587 18.716h11.009v11.009M235.596 18.716l5.505-5.505" stroke-width="2"/><path fill="#ffd0a9" stroke="#a75a05" d="M224.587 7.706v11.01h11.009l5.505-5.505V2.201h-11.009z" stroke-width="2"/><path fill="#ffd0a9" stroke="#a75a05" d="M224.587 7.706h11.009v11.01M235.596 7.706l5.505-5.504M246.606 106.789v11.009h11.009l5.504-5.504v-11.01H252.11z" stroke-width="2"/><path fill="#ffd0a9" stroke="#a75a05" d="M246.606 106.789h11.009v11.009M257.615 106.789l5.504-5.505" stroke-width="2"/><path fill="#ffd0a9" stroke="#a75a05" d="M246.606 95.78v11.009h11.009l5.504-5.505V90.275H252.11z" stroke-width="2"/><path fill="#ffd0a9" stroke="#a75a05" d="M246.606 95.78h11.009v11.009M257.615 95.78l5.504-5.505" stroke-width="2"/><path fill="#ffd0a9" stroke="#a75a05" d="M246.606 84.77v11.01h11.009l5.504-5.505V79.266H252.11z" stroke-width="2"/><path fill="#ffd0a9" stroke="#a75a05" d="M246.606 84.77h11.009v11.01M257.615 84.77l5.504-5.504" stroke-width="2"/><path fill="#ffd0a9" stroke="#a75a05" d="M246.606 73.761v11.01h11.009l5.504-5.505v-11.01H252.11z" stroke-width="2"/><path fill="#ffd0a9" stroke="#a75a05" d="M246.606 73.761h11.009v11.01M257.615 73.761l5.504-5.504" stroke-width="2"/><path fill="#ffd0a9" stroke="#a75a05" d="M246.606 62.752v11.01h11.009l5.504-5.505v-11.01H252.11z" stroke-width="2"/><path fill="#ffd0a9" stroke="#a75a05" d="M246.606 62.752h11.009v11.01M257.615 62.752l5.504-5.504" stroke-width="2"/><path fill="#ffd0a9" stroke="#a75a05" d="M246.606 51.743v11.01h11.009l5.504-5.505v-11.01H252.11z" stroke-width="2"/><path fill="#ffd0a9" stroke="#a75a05" d="M246.606 51.743h11.009v11.01M257.615 51.743l5.504-5.505" stroke-width="2"/><path fill="#ffd0a9" stroke="#a75a05" d="M246.606 40.734v11.01h11.009l5.504-5.505v-11.01H252.11z" stroke-width="2"/><path fill="#ffd0a9" stroke="#a75a05" d="M246.606 40.734h11.009v11.01M257.615 40.734l5.504-5.505" stroke-width="2"/><path fill="#ffd0a9" stroke="#a75a05" d="M246.606 29.725v11.009h11.009l5.504-5.505V24.22H252.11z" stroke-width="2"/><path fill="#ffd0a9" stroke="#a75a05" d="M246.606 29.725h11.009v11.009M257.615 29.725l5.504-5.505" stroke-width="2"/><path fill="#ffd0a9" stroke="#a75a05" d="M246.606 18.716v11.009h11.009l5.504-5.505V13.211H252.11z" stroke-width="2"/><path fill="#ffd0a9" stroke="#a75a05" d="M246.606 18.716h11.009v11.009M257.615 18.716l5.504-5.505" stroke-width="2"/><path fill="#ffd0a9" stroke="#a75a05" d="M246.606 7.706v11.01h11.009l5.504-5.505V2.201H252.11z" stroke-width="2"/><path fill="#ffd0a9" stroke="#a75a05" d="M246.606 7.706h11.009v11.01M257.615 7.706l5.504-5.504M268.624 106.789v11.009h11.009l5.505-5.504v-11.01h-11.01z" stroke-width="2"/><path fill="#ffd0a9" stroke="#a75a05" d="M268.624 106.789h11.009v11.009M279.633 106.789l5.505-5.505" stroke-width="2"/><path fill="#ffd0a9" stroke="#a75a05" d="M268.624 95.78v11.009h11.009l5.505-5.505V90.275h-11.01z" stroke-width="2"/><path fill="#ffd0a9" stroke="#a75a05" d="M268.624 95.78h11.009v11.009M279.633 95.78l5.505-5.505" stroke-width="2"/><path fill="#ffd0a9" stroke="#a75a05" d="M268.624 84.77v11.01h11.009l5.505-5.505V79.266h-11.01z" stroke-width="2"/><path fill="#ffd0a9" stroke="#a75a05" d="M268.624 84.77h11.009v11.01M279.633 84.77l5.505-5.504" stroke-width="2"/><path fill="#ffd0a9" stroke="#a75a05" d="M268.624 73.761v11.01h11.009l5.505-5.505v-11.01h-11.01z" stroke-width="2"/><path fill="#ffd0a9" stroke="#a75a05" d="M268.624 73.761h11.009v11.01M279.633 73.761l5.505-5.504" stroke-width="2"/><path fill="#ffd0a9" stroke="#a75a05" d="M268.624 62.752v11.01h11.009l5.505-5.505v-11.01h-11.01z" stroke-width="2"/><path fill="#ffd0a9" stroke="#a75a05" d="M268.624 62.752h11.009v11.01M279.633 62.752l5.505-5.504" stroke-width="2"/><path fill="#ffd0a9" stroke="#a75a05" d="M268.624 51.743v11.01h11.009l5.505-5.505v-11.01h-11.01z" stroke-width="2"/><path fill="#ffd0a9" stroke="#a75a05" d="M268.624 51.743h11.009v11.01M279.633 51.743l5.505-5.505" stroke-width="2"/><path fill="#ffd0a9" stroke="#a75a05" d="M268.624 40.734v11.01h11.009l5.505-5.505v-11.01h-11.01z" stroke-width="2"/><path fill="#ffd0a9" stroke="#a75a05" d="M268.624 40.734h11.009v11.01M279.633 40.734l5.505-5.505" stroke-width="2"/><path fill="#ffd0a9" stroke="#a75a05" d="M268.624 29.725v11.009h11.009l5.505-5.505V24.22h-11.01z" stroke-width="2"/><path fill="#ffd0a9" stroke="#a75a05" d="M268.624 29.725h11.009v11.009M279.633 29.725l5.505-5.505" stroke-width="2"/><path fill="#ffd0a9" stroke="#a75a05" d="M268.624 18.716v11.009h11.009l5.505-5.505V13.211h-11.01z" stroke-width="2"/><path fill="#ffd0a9" stroke="#a75a05" d="M268.624 18.716h11.009v11.009M279.633 18.716l5.505-5.505" stroke-width="2"/><path fill="#ffd0a9" stroke="#a75a05" d="M268.624 7.706v11.01h11.009l5.505-5.505V2.201h-11.01z" stroke-width="2"/><path fill="#ffd0a9" stroke="#a75a05" d="M268.624 7.706h11.009v11.01M279.633 7.706l5.505-5.504M290.642 106.789v11.009h11.009l5.505-5.504v-11.01h-11.009z" stroke-width="2"/><path fill="#ffd0a9" stroke="#a75a05" d="M290.642 106.789h11.009v11.009M301.651 106.789l5.505-5.505" stroke-width="2"/><path fill="#ffd0a9" stroke="#a75a05" d="M290.642 95.78v11.009h11.009l5.505-5.505V90.275h-11.009z" stroke-width="2"/><path fill="#ffd0a9" stroke="#a75a05" d="M290.642 95.78h11.009v11.009M301.651 95.78l5.505-5.505" stroke-width="2"/><path fill="#ffd0a9" stroke="#a75a05" d="M290.642 84.77v11.01h11.009l5.505-5.505V79.266h-11.009z" stroke-width="2"/><path fill="#ffd0a9" stroke="#a75a05" d="M290.642 84.77h11.009v11.01M301.651 84.77l5.505-5.504" stroke-width="2"/><path fill="#ffd0a9" stroke="#a75a05" d="M290.642 73.761v11.01h11.009l5.505-5.505v-11.01h-11.009z" stroke-width="2"/><path fill="#ffd0a9" stroke="#a75a05" d="M290.642 73.761h11.009v11.01M301.651 73.761l5.505-5.504" stroke-width="2"/><path fill="#ffd0a9" stroke="#a75a05" d="M290.642 62.752v11.01h11.009l5.505-5.505v-11.01h-11.009z" stroke-width="2"/><path fill="#ffd0a9" stroke="#a75a05" d="M290.642 62.752h11.009v11.01M301.651 62.752l5.505-5.504" stroke-width="2"/><path fill="#ffd0a9" stroke="#a75a05" d="M290.642 51.743v11.01h11.009l5.505-5.505v-11.01h-11.009z" stroke-width="2"/><path fill="#ffd0a9" stroke="#a75a05" d="M290.642 51.743h11.009v11.01M301.651 51.743l5.505-5.505" stroke-width="2"/><path fill="#ffd0a9" stroke="#a75a05" d="M290.642 40.734v11.01h11.009l5.505-5.505v-11.01h-11.009z" stroke-width="2"/><path fill="#ffd0a9" stroke="#a75a05" d="M290.642 40.734h11.009v11.01M301.651 40.734l5.505-5.505" stroke-width="2"/><path fill="#ffd0a9" stroke="#a75a05" d="M290.642 29.725v11.009h11.009l5.505-5.505V24.22h-11.009z" stroke-width="2"/><path fill="#ffd0a9" stroke="#a75a05" d="M290.642 29.725h11.009v11.009M301.651 29.725l5.505-5.505" stroke-width="2"/><path fill="#ffd0a9" stroke="#a75a05" d="M290.642 18.716v11.009h11.009l5.505-5.505V13.211h-11.009z" stroke-width="2"/><path fill="#ffd0a9" stroke="#a75a05" d="M290.642 18.716h11.009v11.009M301.651 18.716l5.505-5.505" stroke-width="2"/><path fill="#ffd0a9" stroke="#a75a05" d="M290.642 7.706v11.01h11.009l5.505-5.505V2.201h-11.009z" stroke-width="2"/><path fill="#ffd0a9" stroke="#a75a05" d="M290.642 7.706h11.009v11.01M301.651 7.706l5.505-5.504M312.661 106.789v11.009h11.009l5.504-5.504v-11.01h-11.009z" stroke-width="2"/><path fill="#ffd0a9" stroke="#a75a05" d="M312.661 106.789h11.009v11.009M323.67 106.789l5.504-5.505" stroke-width="2"/><path fill="#ffd0a9" stroke="#a75a05" d="M312.661 95.78v11.009h11.009l5.504-5.505V90.275h-11.009z" stroke-width="2"/><path fill="#ffd0a9" stroke="#a75a05" d="M312.661 95.78h11.009v11.009M323.67 95.78l5.504-5.505" stroke-width="2"/><path fill="#ffd0a9" stroke="#a75a05" d="M312.661 84.77v11.01h11.009l5.504-5.505V79.266h-11.009z" stroke-width="2"/><path fill="#ffd0a9" stroke="#a75a05" d="M312.661 84.77h11.009v11.01M323.67 84.77l5.504-5.504" stroke-width="2"/><path fill="#ffd0a9" stroke="#a75a05" d="M312.661 73.761v11.01h11.009l5.504-5.505v-11.01h-11.009z" stroke-width="2"/><path fill="#ffd0a9" stroke="#a75a05" d="M312.661 73.761h11.009v11.01M323.67 73.761l5.504-5.504" stroke-width="2"/><path fill="#ffd0a9" stroke="#a75a05" d="M312.661 62.752v11.01h11.009l5.504-5.505v-11.01h-11.009z" stroke-width="2"/><path fill="#ffd0a9" stroke="#a75a05" d="M312.661 62.752h11.009v11.01M323.67 62.752l5.504-5.504" stroke-width="2"/><path fill="#ffd0a9" stroke="#a75a05" d="M312.661 51.743v11.01h11.009l5.504-5.505v-11.01h-11.009z" stroke-width="2"/><path fill="#ffd0a9" stroke="#a75a05" d="M312.661 51.743h11.009v11.01M323.67 51.743l5.504-5.505" stroke-width="2"/><path fill="#ffd0a9" stroke="#a75a05" d="M312.661 40.734v11.01h11.009l5.504-5.505v-11.01h-11.009z" stroke-width="2"/><path fill="#ffd0a9" stroke="#a75a05" d="M312.661 40.734h11.009v11.01M323.67 40.734l5.504-5.505" stroke-width="2"/><path fill="#ffd0a9" stroke="#a75a05" d="M312.661 29.725v11.009h11.009l5.504-5.505V24.22h-11.009z" stroke-width="2"/><path fill="#ffd0a9" stroke="#a75a05" d="M312.661 29.725h11.009v11.009M323.67 29.725l5.504-5.505" stroke-width="2"/><path fill="#ffd0a9" stroke="#a75a05" d="M312.661 18.716v11.009h11.009l5.504-5.505V13.211h-11.009z" stroke-width="2"/><path fill="#ffd0a9" stroke="#a75a05" d="M312.661 18.716h11.009v11.009M323.67 18.716l5.504-5.505" stroke-width="2"/><path fill="#ffd0a9" stroke="#a75a05" d="M312.661 7.706v11.01h11.009l5.504-5.505V2.201h-11.009z" stroke-width="2"/><path fill="#ffd0a9" stroke="#a75a05" d="M312.661 7.706h11.009v11.01M323.67 7.706l5.504-5.504M334.679 106.789v11.009h11.009l5.505-5.504v-11.01h-11.01z" stroke-width="2"/><path fill="#ffd0a9" stroke="#a75a05" d="M334.679 106.789h11.009v11.009M345.688 106.789l5.505-5.505" stroke-width="2"/><path fill="#ffd0a9" stroke="#a75a05" d="M334.679 95.78v11.009h11.009l5.505-5.505V90.275h-11.01z" stroke-width="2"/><path fill="#ffd0a9" stroke="#a75a05" d="M334.679 95.78h11.009v11.009M345.688 95.78l5.505-5.505" stroke-width="2"/><path fill="#ffd0a9" stroke="#a75a05" d="M334.679 84.77v11.01h11.009l5.505-5.505V79.266h-11.01z" stroke-width="2"/><path fill="#ffd0a9" stroke="#a75a05" d="M334.679 84.77h11.009v11.01M345.688 84.77l5.505-5.504" stroke-width="2"/><path fill="#ffd0a9" stroke="#a75a05" d="M334.679 73.761v11.01h11.009l5.505-5.505v-11.01h-11.01z" stroke-width="2"/><path fill="#ffd0a9" stroke="#a75a05" d="M334.679 73.761h11.009v11.01M345.688 73.761l5.505-5.504" stroke-width="2"/><path fill="#ffd0a9" stroke="#a75a05" d="M334.679 62.752v11.01h11.009l5.505-5.505v-11.01h-11.01z" stroke-width="2"/><path fill="#ffd0a9" stroke="#a75a05" d="M334.679 62.752h11.009v11.01M345.688 62.752l5.505-5.504" stroke-width="2"/><path fill="#ffd0a9" stroke="#a75a05" d="M334.679 51.743v11.01h11.009l5.505-5.505v-11.01h-11.01z" stroke-width="2"/><path fill="#ffd0a9" stroke="#a75a05" d="M334.679 51.743h11.009v11.01M345.688 51.743l5.505-5.505" stroke-width="2"/><path fill="#ffd0a9" stroke="#a75a05" d="M334.679 40.734v11.01h11.009l5.505-5.505v-11.01h-11.01z" stroke-width="2"/><path fill="#ffd0a9" stroke="#a75a05" d="M334.679 40.734h11.009v11.01M345.688 40.734l5.505-5.505" stroke-width="2"/><path fill="#ffd0a9" stroke="#a75a05" d="M334.679 29.725v11.009h11.009l5.505-5.505V24.22h-11.01z" stroke-width="2"/><path fill="#ffd0a9" stroke="#a75a05" d="M334.679 29.725h11.009v11.009M345.688 29.725l5.505-5.505" stroke-width="2"/><path fill="#ffd0a9" stroke="#a75a05" d="M334.679 18.716v11.009h11.009l5.505-5.505V13.211h-11.01z" stroke-width="2"/><path fill="#ffd0a9" stroke="#a75a05" d="M334.679 18.716h11.009v11.009M345.688 18.716l5.505-5.505" stroke-width="2"/><path fill="#ffd0a9" stroke="#a75a05" d="M334.679 7.706v11.01h11.009l5.505-5.505V2.201h-11.01z" stroke-width="2"/><path fill="#ffd0a9" stroke="#a75a05" d="M334.679 7.706h11.009v11.01M345.688 7.706l5.505-5.504M356.697 106.789v11.009h11.009l5.505-5.504v-11.01h-11.009z" stroke-width="2"/><path fill="#ffd0a9" stroke="#a75a05" d="M356.697 106.789h11.009v11.009M367.706 106.789l5.505-5.505M356.697 84.77v11.01h11.009l5.505-5.505V79.266h-11.009z" stroke-width="2"/><path fill="#ffd0a9" stroke="#a75a05" d="M356.697 84.77h11.009v11.01M367.706 84.77l5.505-5.504M356.697 62.752v11.01h11.009l5.505-5.505v-11.01h-11.009z" stroke-width="2"/><path fill="#ffd0a9" stroke="#a75a05" d="M356.697 62.752h11.009v11.01M367.706 62.752l5.505-5.504M356.697 40.734v11.01h11.009l5.505-5.505v-11.01h-11.009z" stroke-width="2"/><path fill="#ffd0a9" stroke="#a75a05" d="M356.697 40.734h11.009v11.01M367.706 40.734l5.505-5.505M356.697 18.716v11.009h11.009l5.505-5.505V13.211h-11.009z" stroke-width="2"/><path fill="#ffd0a9" stroke="#a75a05" d="M356.697 18.716h11.009v11.009M367.706 18.716l5.505-5.505M378.716 106.789v11.009h11.009l5.504-5.504v-11.01H384.22z" stroke-width="2"/><path fill="#ffd0a9" stroke="#a75a05" d="M378.716 106.789h11.009v11.009M389.725 106.789l5.504-5.505M378.716 84.77v11.01h11.009l5.504-5.505V79.266H384.22z" stroke-width="2"/><path fill="#ffd0a9" stroke="#a75a05" d="M378.716 84.77h11.009v11.01M389.725 84.77l5.504-5.504" stroke-width="2"/></svg>
