<svg xmlns="http://www.w3.org/2000/svg" width="574.679" height="120" viewBox="0 0 574.6788990825688 120"><path fill="#ffbde0" stroke="#9e034e" d="M4.404 106.789v11.009h11.009l5.504-5.504v-11.01H9.908z" stroke-width="2"/><path fill="#ffbde0" stroke="#9e034e" d="M4.404 106.789h11.009v11.009M15.413 106.789l5.504-5.505" stroke-width="2"/><path fill="#ffbde0" stroke="#9e034e" d="M4.404 95.78v11.009h11.009l5.504-5.505V90.275H9.908z" stroke-width="2"/><path fill="#ffbde0" stroke="#9e034e" d="M4.404 95.78h11.009v11.009M15.413 95.78l5.504-5.505" stroke-width="2"/><path fill="#ffbde0" stroke="#9e034e" d="M4.404 84.77v11.01h11.009l5.504-5.505V79.266H9.908z" stroke-width="2"/><path fill="#ffbde0" stroke="#9e034e" d="M4.404 84.77h11.009v11.01M15.413 84.77l5.504-5.504" stroke-width="2"/><path fill="#ffbde0" stroke="#9e034e" d="M4.404 73.761v11.01h11.009l5.504-5.505v-11.01H9.908z" stroke-width="2"/><path fill="#ffbde0" stroke="#9e034e" d="M4.404 73.761h11.009v11.01M15.413 73.761l5.504-5.504" stroke-width="2"/><path fill="#ffbde0" stroke="#9e034e" d="M4.404 62.752v11.01h11.009l5.504-5.505v-11.01H9.908z" stroke-width="2"/><path fill="#ffbde0" stroke="#9e034e" d="M4.404 62.752h11.009v11.01M15.413 62.752l5.504-5.504" stroke-width="2"/><path fill="#ffbde0" stroke="#9e034e" d="M4.404 51.743v11.01h11.009l5.504-5.505v-11.01H9.908z" stroke-width="2"/><path fill="#ffbde0" stroke="#9e034e" d="M4.404 51.743h11.009v11.01M15.413 51.743l5.504-5.505" stroke-width="2"/><path fill="#ffbde0" stroke="#9e034e" d="M4.404 40.734v11.01h11.009l5.504-5.505v-11.01H9.908z" stroke-width="2"/><path fill="#ffbde0" stroke="#9e034e" d="M4.404 40.734h11.009v11.01M15.413 40.734l5.504-5.505" stroke-width="2"/><path fill="#ffbde0" stroke="#9e034e" d="M4.404 29.725v11.009h11.009l5.504-5.505V24.22H9.908z" stroke-width="2"/><path fill="#ffbde0" stroke="#9e034e" d="M4.404 29.725h11.009v11.009M15.413 29.725l5.504-5.505" stroke-width="2"/><path fill="#ffbde0" stroke="#9e034e" d="M4.404 18.716v11.009h11.009l5.504-5.505V13.211H9.908z" stroke-width="2"/><path fill="#ffbde0" stroke="#9e034e" d="M4.404 18.716h11.009v11.009M15.413 18.716l5.504-5.505" stroke-width="2"/><path fill="#ffbde0" stroke="#9e034e" d="M4.404 7.706v11.01h11.009l5.504-5.505V2.201H9.908z" stroke-width="2"/><path fill="#ffbde0" stroke="#9e034e" d="M4.404 7.706h11.009v11.01M15.413 7.706l5.504-5.504M26.422 106.789v11.009h11.01l5.504-5.504v-11.01h-11.01z" stroke-width="2"/><path fill="#ffbde0" stroke="#9e034e" d="M26.422 106.789h11.01v11.009M37.431 106.789l5.505-5.505" stroke-width="2"/><path fill="#ffbde0" stroke="#9e034e" d="M26.422 95.78v11.009h11.01l5.504-5.505V90.275h-11.01z" stroke-width="2"/><path fill="#ffbde0" stroke="#9e034e" d="M26.422 95.78h11.01v11.009M37.431 95.78l5.505-5.505" stroke-width="2"/><path fill="#ffbde0" stroke="#9e034e" d="M26.422 84.77v11.01h11.01l5.504-5.505V79.266h-11.01z" stroke-width="2"/><path fill="#ffbde0" stroke="#9e034e" d="M26.422 84.77h11.01v11.01M37.431 84.77l5.505-5.504" stroke-width="2"/><path fill="#ffbde0" stroke="#9e034e" d="M26.422 73.761v11.01h11.01l5.504-5.505v-11.01h-11.01z" stroke-width="2"/><path fill="#ffbde0" stroke="#9e034e" d="M26.422 73.761h11.01v11.01M37.431 73.761l5.505-5.504" stroke-width="2"/><path fill="#ffbde0" stroke="#9e034e" d="M26.422 62.752v11.01h11.01l5.504-5.505v-11.01h-11.01z" stroke-width="2"/><path fill="#ffbde0" stroke="#9e034e" d="M26.422 62.752h11.01v11.01M37.431 62.752l5.505-5.504" stroke-width="2"/><path fill="#ffbde0" stroke="#9e034e" d="M26.422 51.743v11.01h11.01l5.504-5.505v-11.01h-11.01z" stroke-width="2"/><path fill="#ffbde0" stroke="#9e034e" d="M26.422 51.743h11.01v11.01M37.431 51.743l5.505-5.505" stroke-width="2"/><path fill="#ffbde0" stroke="#9e034e" d="M26.422 40.734v11.01h11.01l5.504-5.505v-11.01h-11.01z" stroke-width="2"/><path fill="#ffbde0" stroke="#9e034e" d="M26.422 40.734h11.01v11.01M37.431 40.734l5.505-5.505" stroke-width="2"/><path fill="#ffbde0" stroke="#9e034e" d="M26.422 29.725v11.009h11.01l5.504-5.505V24.22h-11.01z" stroke-width="2"/><path fill="#ffbde0" stroke="#9e034e" d="M26.422 29.725h11.01v11.009M37.431 29.725l5.505-5.505" stroke-width="2"/><path fill="#ffbde0" stroke="#9e034e" d="M26.422 18.716v11.009h11.01l5.504-5.505V13.211h-11.01z" stroke-width="2"/><path fill="#ffbde0" stroke="#9e034e" d="M26.422 18.716h11.01v11.009M37.431 18.716l5.505-5.505" stroke-width="2"/><path fill="#ffbde0" stroke="#9e034e" d="M26.422 7.706v11.01h11.01l5.504-5.505V2.201h-11.01z" stroke-width="2"/><path fill="#ffbde0" stroke="#9e034e" d="M26.422 7.706h11.01v11.01M37.431 7.706l5.505-5.504M48.44 106.789v11.009h11.01l5.504-5.504v-11.01H53.945z" stroke-width="2"/><path fill="#ffbde0" stroke="#9e034e" d="M48.44 106.789h11.01v11.009M59.45 106.789l5.504-5.505" stroke-width="2"/><path fill="#ffbde0" stroke="#9e034e" d="M48.44 95.78v11.009h11.01l5.504-5.505V90.275H53.945z" stroke-width="2"/><path fill="#ffbde0" stroke="#9e034e" d="M48.44 95.78h11.01v11.009M59.45 95.78l5.504-5.505" stroke-width="2"/><path fill="#ffbde0" stroke="#9e034e" d="M48.44 84.77v11.01h11.01l5.504-5.505V79.266H53.945z" stroke-width="2"/><path fill="#ffbde0" stroke="#9e034e" d="M48.44 84.77h11.01v11.01M59.45 84.77l5.504-5.504" stroke-width="2"/><path fill="#ffbde0" stroke="#9e034e" d="M48.44 73.761v11.01h11.01l5.504-5.505v-11.01H53.945z" stroke-width="2"/><path fill="#ffbde0" stroke="#9e034e" d="M48.44 73.761h11.01v11.01M59.45 73.761l5.504-5.504" stroke-width="2"/><path fill="#ffbde0" stroke="#9e034e" d="M48.44 62.752v11.01h11.01l5.504-5.505v-11.01H53.945z" stroke-width="2"/><path fill="#ffbde0" stroke="#9e034e" d="M48.44 62.752h11.01v11.01M59.45 62.752l5.504-5.504" stroke-width="2"/><path fill="#ffbde0" stroke="#9e034e" d="M48.44 51.743v11.01h11.01l5.504-5.505v-11.01H53.945z" stroke-width="2"/><path fill="#ffbde0" stroke="#9e034e" d="M48.44 51.743h11.01v11.01M59.45 51.743l5.504-5.505" stroke-width="2"/><path fill="#ffbde0" stroke="#9e034e" d="M48.44 40.734v11.01h11.01l5.504-5.505v-11.01H53.945z" stroke-width="2"/><path fill="#ffbde0" stroke="#9e034e" d="M48.44 40.734h11.01v11.01M59.45 40.734l5.504-5.505" stroke-width="2"/><path fill="#ffbde0" stroke="#9e034e" d="M48.44 29.725v11.009h11.01l5.504-5.505V24.22H53.945z" stroke-width="2"/><path fill="#ffbde0" stroke="#9e034e" d="M48.44 29.725h11.01v11.009M59.45 29.725l5.504-5.505" stroke-width="2"/><path fill="#ffbde0" stroke="#9e034e" d="M48.44 18.716v11.009h11.01l5.504-5.505V13.211H53.945z" stroke-width="2"/><path fill="#ffbde0" stroke="#9e034e" d="M48.44 18.716h11.01v11.009M59.45 18.716l5.504-5.505" stroke-width="2"/><path fill="#ffbde0" stroke="#9e034e" d="M48.44 7.706v11.01h11.01l5.504-5.505V2.201H53.945z" stroke-width="2"/><path fill="#ffbde0" stroke="#9e034e" d="M48.44 7.706h11.01v11.01M59.45 7.706l5.504-5.504M70.459 106.789v11.009h11.009l5.504-5.504v-11.01H75.963z" stroke-width="2"/><path fill="#ffbde0" stroke="#9e034e" d="M70.459 106.789h11.009v11.009M81.468 106.789l5.504-5.505" stroke-width="2"/><path fill="#ffbde0" stroke="#9e034e" d="M70.459 95.78v11.009h11.009l5.504-5.505V90.275H75.963z" stroke-width="2"/><path fill="#ffbde0" stroke="#9e034e" d="M70.459 95.78h11.009v11.009M81.468 95.78l5.504-5.505" stroke-width="2"/><path fill="#ffbde0" stroke="#9e034e" d="M70.459 84.77v11.01h11.009l5.504-5.505V79.266H75.963z" stroke-width="2"/><path fill="#ffbde0" stroke="#9e034e" d="M70.459 84.77h11.009v11.01M81.468 84.77l5.504-5.504" stroke-width="2"/><path fill="#ffbde0" stroke="#9e034e" d="M70.459 73.761v11.01h11.009l5.504-5.505v-11.01H75.963z" stroke-width="2"/><path fill="#ffbde0" stroke="#9e034e" d="M70.459 73.761h11.009v11.01M81.468 73.761l5.504-5.504" stroke-width="2"/><path fill="#ffbde0" stroke="#9e034e" d="M70.459 62.752v11.01h11.009l5.504-5.505v-11.01H75.963z" stroke-width="2"/><path fill="#ffbde0" stroke="#9e034e" d="M70.459 62.752h11.009v11.01M81.468 62.752l5.504-5.504" stroke-width="2"/><path fill="#ffbde0" stroke="#9e034e" d="M70.459 51.743v11.01h11.009l5.504-5.505v-11.01H75.963z" stroke-width="2"/><path fill="#ffbde0" stroke="#9e034e" d="M70.459 51.743h11.009v11.01M81.468 51.743l5.504-5.505" stroke-width="2"/><path fill="#ffbde0" stroke="#9e034e" d="M70.459 40.734v11.01h11.009l5.504-5.505v-11.01H75.963z" stroke-width="2"/><path fill="#ffbde0" stroke="#9e034e" d="M70.459 40.734h11.009v11.01M81.468 40.734l5.504-5.505" stroke-width="2"/><path fill="#ffbde0" stroke="#9e034e" d="M70.459 29.725v11.009h11.009l5.504-5.505V24.22H75.963z" stroke-width="2"/><path fill="#ffbde0" stroke="#9e034e" d="M70.459 29.725h11.009v11.009M81.468 29.725l5.504-5.505" stroke-width="2"/><path fill="#ffbde0" stroke="#9e034e" d="M70.459 18.716v11.009h11.009l5.504-5.505V13.211H75.963z" stroke-width="2"/><path fill="#ffbde0" stroke="#9e034e" d="M70.459 18.716h11.009v11.009M81.468 18.716l5.504-5.505" stroke-width="2"/><path fill="#ffbde0" stroke="#9e034e" d="M70.459 7.706v11.01h11.009l5.504-5.505V2.201H75.963z" stroke-width="2"/><path fill="#ffbde0" stroke="#9e034e" d="M70.459 7.706h11.009v11.01M81.468 7.706l5.504-5.504M92.477 106.789v11.009h11.009l5.505-5.504v-11.01h-11.01z" stroke-width="2"/><path fill="#ffbde0" stroke="#9e034e" d="M92.477 106.789h11.009v11.009M103.486 106.789l5.505-5.505" stroke-width="2"/><path fill="#ffbde0" stroke="#9e034e" d="M92.477 95.78v11.009h11.009l5.505-5.505V90.275h-11.01z" stroke-width="2"/><path fill="#ffbde0" stroke="#9e034e" d="M92.477 95.78h11.009v11.009M103.486 95.78l5.505-5.505" stroke-width="2"/><path fill="#ffbde0" stroke="#9e034e" d="M92.477 84.77v11.01h11.009l5.505-5.505V79.266h-11.01z" stroke-width="2"/><path fill="#ffbde0" stroke="#9e034e" d="M92.477 84.77h11.009v11.01M103.486 84.77l5.505-5.504" stroke-width="2"/><path fill="#ffbde0" stroke="#9e034e" d="M92.477 73.761v11.01h11.009l5.505-5.505v-11.01h-11.01z" stroke-width="2"/><path fill="#ffbde0" stroke="#9e034e" d="M92.477 73.761h11.009v11.01M103.486 73.761l5.505-5.504" stroke-width="2"/><path fill="#ffbde0" stroke="#9e034e" d="M92.477 62.752v11.01h11.009l5.505-5.505v-11.01h-11.01z" stroke-width="2"/><path fill="#ffbde0" stroke="#9e034e" d="M92.477 62.752h11.009v11.01M103.486 62.752l5.505-5.504" stroke-width="2"/><path fill="#ffbde0" stroke="#9e034e" d="M92.477 51.743v11.01h11.009l5.505-5.505v-11.01h-11.01z" stroke-width="2"/><path fill="#ffbde0" stroke="#9e034e" d="M92.477 51.743h11.009v11.01M103.486 51.743l5.505-5.505" stroke-width="2"/><path fill="#ffbde0" stroke="#9e034e" d="M92.477 40.734v11.01h11.009l5.505-5.505v-11.01h-11.01z" stroke-width="2"/><path fill="#ffbde0" stroke="#9e034e" d="M92.477 40.734h11.009v11.01M103.486 40.734l5.505-5.505" stroke-width="2"/><path fill="#ffbde0" stroke="#9e034e" d="M92.477 29.725v11.009h11.009l5.505-5.505V24.22h-11.01z" stroke-width="2"/><path fill="#ffbde0" stroke="#9e034e" d="M92.477 29.725h11.009v11.009M103.486 29.725l5.505-5.505" stroke-width="2"/><path fill="#ffbde0" stroke="#9e034e" d="M92.477 18.716v11.009h11.009l5.505-5.505V13.211h-11.01z" stroke-width="2"/><path fill="#ffbde0" stroke="#9e034e" d="M92.477 18.716h11.009v11.009M103.486 18.716l5.505-5.505" stroke-width="2"/><path fill="#ffbde0" stroke="#9e034e" d="M92.477 7.706v11.01h11.009l5.505-5.505V2.201h-11.01z" stroke-width="2"/><path fill="#ffbde0" stroke="#9e034e" d="M92.477 7.706h11.009v11.01M103.486 7.706l5.505-5.504M114.495 106.789v11.009h11.01l5.504-5.504v-11.01H120z" stroke-width="2"/><path fill="#ffbde0" stroke="#9e034e" d="M114.495 106.789h11.01v11.009M125.505 106.789l5.504-5.505" stroke-width="2"/><path fill="#ffbde0" stroke="#9e034e" d="M114.495 95.78v11.009h11.01l5.504-5.505V90.275H120z" stroke-width="2"/><path fill="#ffbde0" stroke="#9e034e" d="M114.495 95.78h11.01v11.009M125.505 95.78l5.504-5.505" stroke-width="2"/><path fill="#ffbde0" stroke="#9e034e" d="M114.495 84.77v11.01h11.01l5.504-5.505V79.266H120z" stroke-width="2"/><path fill="#ffbde0" stroke="#9e034e" d="M114.495 84.77h11.01v11.01M125.505 84.77l5.504-5.504" stroke-width="2"/><path fill="#ffbde0" stroke="#9e034e" d="M114.495 73.761v11.01h11.01l5.504-5.505v-11.01H120z" stroke-width="2"/><path fill="#ffbde0" stroke="#9e034e" d="M114.495 73.761h11.01v11.01M125.505 73.761l5.504-5.504" stroke-width="2"/><path fill="#ffbde0" stroke="#9e034e" d="M114.495 62.752v11.01h11.01l5.504-5.505v-11.01H120z" stroke-width="2"/><path fill="#ffbde0" stroke="#9e034e" d="M114.495 62.752h11.01v11.01M125.505 62.752l5.504-5.504" stroke-width="2"/><path fill="#ffbde0" stroke="#9e034e" d="M114.495 51.743v11.01h11.01l5.504-5.505v-11.01H120z" stroke-width="2"/><path fill="#ffbde0" stroke="#9e034e" d="M114.495 51.743h11.01v11.01M125.505 51.743l5.504-5.505" stroke-width="2"/><path fill="#ffbde0" stroke="#9e034e" d="M114.495 40.734v11.01h11.01l5.504-5.505v-11.01H120z" stroke-width="2"/><path fill="#ffbde0" stroke="#9e034e" d="M114.495 40.734h11.01v11.01M125.505 40.734l5.504-5.505" stroke-width="2"/><path fill="#ffbde0" stroke="#9e034e" d="M114.495 29.725v11.009h11.01l5.504-5.505V24.22H120z" stroke-width="2"/><path fill="#ffbde0" stroke="#9e034e" d="M114.495 29.725h11.01v11.009M125.505 29.725l5.504-5.505" stroke-width="2"/><path fill="#ffbde0" stroke="#9e034e" d="M114.495 18.716v11.009h11.01l5.504-5.505V13.211H120z" stroke-width="2"/><path fill="#ffbde0" stroke="#9e034e" d="M114.495 18.716h11.01v11.009M125.505 18.716l5.504-5.505" stroke-width="2"/><path fill="#ffbde0" stroke="#9e034e" d="M114.495 7.706v11.01h11.01l5.504-5.505V2.201H120z" stroke-width="2"/><path fill="#ffbde0" stroke="#9e034e" d="M114.495 7.706h11.01v11.01M125.505 7.706l5.504-5.504M136.514 106.789v11.009h11.009l5.505-5.504v-11.01h-11.01z" stroke-width="2"/><path fill="#ffbde0" stroke="#9e034e" d="M136.514 106.789h11.009v11.009M147.523 106.789l5.505-5.505" stroke-width="2"/><path fill="#ffbde0" stroke="#9e034e" d="M136.514 95.78v11.009h11.009l5.505-5.505V90.275h-11.01z" stroke-width="2"/><path fill="#ffbde0" stroke="#9e034e" d="M136.514 95.78h11.009v11.009M147.523 95.78l5.505-5.505" stroke-width="2"/><path fill="#ffbde0" stroke="#9e034e" d="M136.514 84.77v11.01h11.009l5.505-5.505V79.266h-11.01z" stroke-width="2"/><path fill="#ffbde0" stroke="#9e034e" d="M136.514 84.77h11.009v11.01M147.523 84.77l5.505-5.504" stroke-width="2"/><path fill="#ffbde0" stroke="#9e034e" d="M136.514 73.761v11.01h11.009l5.505-5.505v-11.01h-11.01z" stroke-width="2"/><path fill="#ffbde0" stroke="#9e034e" d="M136.514 73.761h11.009v11.01M147.523 73.761l5.505-5.504" stroke-width="2"/><path fill="#ffbde0" stroke="#9e034e" d="M136.514 62.752v11.01h11.009l5.505-5.505v-11.01h-11.01z" stroke-width="2"/><path fill="#ffbde0" stroke="#9e034e" d="M136.514 62.752h11.009v11.01M147.523 62.752l5.505-5.504" stroke-width="2"/><path fill="#ffbde0" stroke="#9e034e" d="M136.514 51.743v11.01h11.009l5.505-5.505v-11.01h-11.01z" stroke-width="2"/><path fill="#ffbde0" stroke="#9e034e" d="M136.514 51.743h11.009v11.01M147.523 51.743l5.505-5.505" stroke-width="2"/><path fill="#ffbde0" stroke="#9e034e" d="M136.514 40.734v11.01h11.009l5.505-5.505v-11.01h-11.01z" stroke-width="2"/><path fill="#ffbde0" stroke="#9e034e" d="M136.514 40.734h11.009v11.01M147.523 40.734l5.505-5.505" stroke-width="2"/><path fill="#ffbde0" stroke="#9e034e" d="M136.514 29.725v11.009h11.009l5.505-5.505V24.22h-11.01z" stroke-width="2"/><path fill="#ffbde0" stroke="#9e034e" d="M136.514 29.725h11.009v11.009M147.523 29.725l5.505-5.505" stroke-width="2"/><path fill="#ffbde0" stroke="#9e034e" d="M136.514 18.716v11.009h11.009l5.505-5.505V13.211h-11.01z" stroke-width="2"/><path fill="#ffbde0" stroke="#9e034e" d="M136.514 18.716h11.009v11.009M147.523 18.716l5.505-5.505" stroke-width="2"/><path fill="#ffbde0" stroke="#9e034e" d="M136.514 7.706v11.01h11.009l5.505-5.505V2.201h-11.01z" stroke-width="2"/><path fill="#ffbde0" stroke="#9e034e" d="M136.514 7.706h11.009v11.01M147.523 7.706l5.505-5.504M158.532 106.789v11.009h11.009l5.505-5.504v-11.01h-11.009z" stroke-width="2"/><path fill="#ffbde0" stroke="#9e034e" d="M158.532 106.789h11.009v11.009M169.541 106.789l5.505-5.505" stroke-width="2"/><path fill="#ffbde0" stroke="#9e034e" d="M158.532 95.78v11.009h11.009l5.505-5.505V90.275h-11.009z" stroke-width="2"/><path fill="#ffbde0" stroke="#9e034e" d="M158.532 95.78h11.009v11.009M169.541 95.78l5.505-5.505" stroke-width="2"/><path fill="#ffbde0" stroke="#9e034e" d="M158.532 84.77v11.01h11.009l5.505-5.505V79.266h-11.009z" stroke-width="2"/><path fill="#ffbde0" stroke="#9e034e" d="M158.532 84.77h11.009v11.01M169.541 84.77l5.505-5.504" stroke-width="2"/><path fill="#ffbde0" stroke="#9e034e" d="M158.532 73.761v11.01h11.009l5.505-5.505v-11.01h-11.009z" stroke-width="2"/><path fill="#ffbde0" stroke="#9e034e" d="M158.532 73.761h11.009v11.01M169.541 73.761l5.505-5.504" stroke-width="2"/><path fill="#ffbde0" stroke="#9e034e" d="M158.532 62.752v11.01h11.009l5.505-5.505v-11.01h-11.009z" stroke-width="2"/><path fill="#ffbde0" stroke="#9e034e" d="M158.532 62.752h11.009v11.01M169.541 62.752l5.505-5.504" stroke-width="2"/><path fill="#ffbde0" stroke="#9e034e" d="M158.532 51.743v11.01h11.009l5.505-5.505v-11.01h-11.009z" stroke-width="2"/><path fill="#ffbde0" stroke="#9e034e" d="M158.532 51.743h11.009v11.01M169.541 51.743l5.505-5.505" stroke-width="2"/><path fill="#ffbde0" stroke="#9e034e" d="M158.532 40.734v11.01h11.009l5.505-5.505v-11.01h-11.009z" stroke-width="2"/><path fill="#ffbde0" stroke="#9e034e" d="M158.532 40.734h11.009v11.01M169.541 40.734l5.505-5.505" stroke-width="2"/><path fill="#ffbde0" stroke="#9e034e" d="M158.532 29.725v11.009h11.009l5.505-5.505V24.22h-11.009z" stroke-width="2"/><path fill="#ffbde0" stroke="#9e034e" d="M158.532 29.725h11.009v11.009M169.541 29.725l5.505-5.505" stroke-width="2"/><path fill="#ffbde0" stroke="#9e034e" d="M158.532 18.716v11.009h11.009l5.505-5.505V13.211h-11.009z" stroke-width="2"/><path fill="#ffbde0" stroke="#9e034e" d="M158.532 18.716h11.009v11.009M169.541 18.716l5.505-5.505" stroke-width="2"/><path fill="#ffbde0" stroke="#9e034e" d="M158.532 7.706v11.01h11.009l5.505-5.505V2.201h-11.009z" stroke-width="2"/><path fill="#ffbde0" stroke="#9e034e" d="M158.532 7.706h11.009v11.01M169.541 7.706l5.505-5.504M180.55 106.789v11.009h11.01l5.504-5.504v-11.01h-11.009z" stroke-width="2"/><path fill="#ffbde0" stroke="#9e034e" d="M180.55 106.789h11.01v11.009M191.56 106.789l5.504-5.505" stroke-width="2"/><path fill="#ffbde0" stroke="#9e034e" d="M180.55 95.78v11.009h11.01l5.504-5.505V90.275h-11.009z" stroke-width="2"/><path fill="#ffbde0" stroke="#9e034e" d="M180.55 95.78h11.01v11.009M191.56 95.78l5.504-5.505" stroke-width="2"/><path fill="#ffbde0" stroke="#9e034e" d="M180.55 84.77v11.01h11.01l5.504-5.505V79.266h-11.009z" stroke-width="2"/><path fill="#ffbde0" stroke="#9e034e" d="M180.55 84.77h11.01v11.01M191.56 84.77l5.504-5.504" stroke-width="2"/><path fill="#ffbde0" stroke="#9e034e" d="M180.55 73.761v11.01h11.01l5.504-5.505v-11.01h-11.009z" stroke-width="2"/><path fill="#ffbde0" stroke="#9e034e" d="M180.55 73.761h11.01v11.01M191.56 73.761l5.504-5.504" stroke-width="2"/><path fill="#ffbde0" stroke="#9e034e" d="M180.55 62.752v11.01h11.01l5.504-5.505v-11.01h-11.009z" stroke-width="2"/><path fill="#ffbde0" stroke="#9e034e" d="M180.55 62.752h11.01v11.01M191.56 62.752l5.504-5.504" stroke-width="2"/><path fill="#ffbde0" stroke="#9e034e" d="M180.55 51.743v11.01h11.01l5.504-5.505v-11.01h-11.009z" stroke-width="2"/><path fill="#ffbde0" stroke="#9e034e" d="M180.55 51.743h11.01v11.01M191.56 51.743l5.504-5.505" stroke-width="2"/><path fill="#ffbde0" stroke="#9e034e" d="M180.55 40.734v11.01h11.01l5.504-5.505v-11.01h-11.009z" stroke-width="2"/><path fill="#ffbde0" stroke="#9e034e" d="M180.55 40.734h11.01v11.01M191.56 40.734l5.504-5.505" stroke-width="2"/><path fill="#ffbde0" stroke="#9e034e" d="M180.55 29.725v11.009h11.01l5.504-5.505V24.22h-11.009z" stroke-width="2"/><path fill="#ffbde0" stroke="#9e034e" d="M180.55 29.725h11.01v11.009M191.56 29.725l5.504-5.505" stroke-width="2"/><path fill="#ffbde0" stroke="#9e034e" d="M180.55 18.716v11.009h11.01l5.504-5.505V13.211h-11.009z" stroke-width="2"/><path fill="#ffbde0" stroke="#9e034e" d="M180.55 18.716h11.01v11.009M191.56 18.716l5.504-5.505" stroke-width="2"/><path fill="#ffbde0" stroke="#9e034e" d="M180.55 7.706v11.01h11.01l5.504-5.505V2.201h-11.009z" stroke-width="2"/><path fill="#ffbde0" stroke="#9e034e" d="M180.55 7.706h11.01v11.01M191.56 7.706l5.504-5.504M202.569 106.789v11.009h11.009l5.505-5.504v-11.01h-11.01z" stroke-width="2"/><path fill="#ffbde0" stroke="#9e034e" d="M202.569 106.789h11.009v11.009M213.578 106.789l5.505-5.505" stroke-width="2"/><path fill="#ffd0a9" stroke="#a75a05" d="M378.716 106.789v11.009h11.009l5.504-5.504v-11.01H384.22z" stroke-width="2"/><path fill="#ffd0a9" stroke="#a75a05" d="M378.716 106.789h11.009v11.009M389.725 106.789l5.504-5.505" stroke-width="2"/><path fill="#ffd0a9" stroke="#a75a05" d="M378.716 95.78v11.009h11.009l5.504-5.505V90.275H384.22z" stroke-width="2"/><path fill="#ffd0a9" stroke="#a75a05" d="M378.716 95.78h11.009v11.009M389.725 95.78l5.504-5.505" stroke-width="2"/><path fill="#ffd0a9" stroke="#a75a05" d="M378.716 84.77v11.01h11.009l5.504-5.505V79.266H384.22z" stroke-width="2"/><path fill="#ffd0a9" stroke="#a75a05" d="M378.716 84.77h11.009v11.01M389.725 84.77l5.504-5.504" stroke-width="2"/><path fill="#ffd0a9" stroke="#a75a05" d="M378.716 73.761v11.01h11.009l5.504-5.505v-11.01H384.22z" stroke-width="2"/><path fill="#ffd0a9" stroke="#a75a05" d="M378.716 73.761h11.009v11.01M389.725 73.761l5.504-5.504" stroke-width="2"/><path fill="#ffd0a9" stroke="#a75a05" d="M378.716 62.752v11.01h11.009l5.504-5.505v-11.01H384.22z" stroke-width="2"/><path fill="#ffd0a9" stroke="#a75a05" d="M378.716 62.752h11.009v11.01M389.725 62.752l5.504-5.504" stroke-width="2"/><path fill="#ffd0a9" stroke="#a75a05" d="M378.716 51.743v11.01h11.009l5.504-5.505v-11.01H384.22z" stroke-width="2"/><path fill="#ffd0a9" stroke="#a75a05" d="M378.716 51.743h11.009v11.01M389.725 51.743l5.504-5.505" stroke-width="2"/><path fill="#ffd0a9" stroke="#a75a05" d="M378.716 40.734v11.01h11.009l5.504-5.505v-11.01H384.22z" stroke-width="2"/><path fill="#ffd0a9" stroke="#a75a05" d="M378.716 40.734h11.009v11.01M389.725 40.734l5.504-5.505" stroke-width="2"/><path fill="#ffd0a9" stroke="#a75a05" d="M378.716 29.725v11.009h11.009l5.504-5.505V24.22H384.22z" stroke-width="2"/><path fill="#ffd0a9" stroke="#a75a05" d="M378.716 29.725h11.009v11.009M389.725 29.725l5.504-5.505" stroke-width="2"/><path fill="#ffd0a9" stroke="#a75a05" d="M378.716 18.716v11.009h11.009l5.504-5.505V13.211H384.22z" stroke-width="2"/><path fill="#ffd0a9" stroke="#a75a05" d="M378.716 18.716h11.009v11.009M389.725 18.716l5.504-5.505" stroke-width="2"/><path fill="#ffd0a9" stroke="#a75a05" d="M378.716 7.706v11.01h11.009l5.504-5.505V2.201H384.22z" stroke-width="2"/><path fill="#ffd0a9" stroke="#a75a05" d="M378.716 7.706h11.009v11.01M389.725 7.706l5.504-5.504M400.734 106.789v11.009h11.009l5.505-5.504v-11.01h-11.009z" stroke-width="2"/><path fill="#ffd0a9" stroke="#a75a05" d="M400.734 106.789h11.009v11.009M411.743 106.789l5.505-5.505" stroke-width="2"/><path fill="#ffd0a9" stroke="#a75a05" d="M400.734 95.78v11.009h11.009l5.505-5.505V90.275h-11.009z" stroke-width="2"/><path fill="#ffd0a9" stroke="#a75a05" d="M400.734 95.78h11.009v11.009M411.743 95.78l5.505-5.505" stroke-width="2"/><path fill="#ffd0a9" stroke="#a75a05" d="M400.734 84.77v11.01h11.009l5.505-5.505V79.266h-11.009z" stroke-width="2"/><path fill="#ffd0a9" stroke="#a75a05" d="M400.734 84.77h11.009v11.01M411.743 84.77l5.505-5.504" stroke-width="2"/><path fill="#ffd0a9" stroke="#a75a05" d="M400.734 73.761v11.01h11.009l5.505-5.505v-11.01h-11.009z" stroke-width="2"/><path fill="#ffd0a9" stroke="#a75a05" d="M400.734 73.761h11.009v11.01M411.743 73.761l5.505-5.504" stroke-width="2"/><path fill="#ffd0a9" stroke="#a75a05" d="M400.734 62.752v11.01h11.009l5.505-5.505v-11.01h-11.009z" stroke-width="2"/><path fill="#ffd0a9" stroke="#a75a05" d="M400.734 62.752h11.009v11.01M411.743 62.752l5.505-5.504" stroke-width="2"/><path fill="#ffd0a9" stroke="#a75a05" d="M400.734 51.743v11.01h11.009l5.505-5.505v-11.01h-11.009z" stroke-width="2"/><path fill="#ffd0a9" stroke="#a75a05" d="M400.734 51.743h11.009v11.01M411.743 51.743l5.505-5.505" stroke-width="2"/><path fill="#ffd0a9" stroke="#a75a05" d="M400.734 40.734v11.01h11.009l5.505-5.505v-11.01h-11.009z" stroke-width="2"/><path fill="#ffd0a9" stroke="#a75a05" d="M400.734 40.734h11.009v11.01M411.743 40.734l5.505-5.505" stroke-width="2"/><path fill="#ffd0a9" stroke="#a75a05" d="M400.734 29.725v11.009h11.009l5.505-5.505V24.22h-11.009z" stroke-width="2"/><path fill="#ffd0a9" stroke="#a75a05" d="M400.734 29.725h11.009v11.009M411.743 29.725l5.505-5.505" stroke-width="2"/><path fill="#ffd0a9" stroke="#a75a05" d="M400.734 18.716v11.009h11.009l5.505-5.505V13.211h-11.009z" stroke-width="2"/><path fill="#ffd0a9" stroke="#a75a05" d="M400.734 18.716h11.009v11.009M411.743 18.716l5.505-5.505" stroke-width="2"/><path fill="#ffd0a9" stroke="#a75a05" d="M400.734 7.706v11.01h11.009l5.505-5.505V2.201h-11.009z" stroke-width="2"/><path fill="#ffd0a9" stroke="#a75a05" d="M400.734 7.706h11.009v11.01M411.743 7.706l5.505-5.504M422.752 106.789v11.009h11.009l5.505-5.504v-11.01h-11.009z" stroke-width="2"/><path fill="#ffd0a9" stroke="#a75a05" d="M422.752 106.789h11.009v11.009M433.761 106.789l5.505-5.505" stroke-width="2"/><path fill="#ffd0a9" stroke="#a75a05" d="M422.752 95.78v11.009h11.009l5.505-5.505V90.275h-11.009z" stroke-width="2"/><path fill="#ffd0a9" stroke="#a75a05" d="M422.752 95.78h11.009v11.009M433.761 95.78l5.505-5.505" stroke-width="2"/><path fill="#ffd0a9" stroke="#a75a05" d="M422.752 84.77v11.01h11.009l5.505-5.505V79.266h-11.009z" stroke-width="2"/><path fill="#ffd0a9" stroke="#a75a05" d="M422.752 84.77h11.009v11.01M433.761 84.77l5.505-5.504" stroke-width="2"/><path fill="#ffd0a9" stroke="#a75a05" d="M422.752 73.761v11.01h11.009l5.505-5.505v-11.01h-11.009z" stroke-width="2"/><path fill="#ffd0a9" stroke="#a75a05" d="M422.752 73.761h11.009v11.01M433.761 73.761l5.505-5.504" stroke-width="2"/><path fill="#ffd0a9" stroke="#a75a05" d="M422.752 62.752v11.01h11.009l5.505-5.505v-11.01h-11.009z" stroke-width="2"/><path fill="#ffd0a9" stroke="#a75a05" d="M422.752 62.752h11.009v11.01M433.761 62.752l5.505-5.504" stroke-width="2"/><path fill="#ffd0a9" stroke="#a75a05" d="M422.752 51.743v11.01h11.009l5.505-5.505v-11.01h-11.009z" stroke-width="2"/><path fill="#ffd0a9" stroke="#a75a05" d="M422.752 51.743h11.009v11.01M433.761 51.743l5.505-5.505" stroke-width="2"/><path fill="#ffd0a9" stroke="#a75a05" d="M422.752 40.734v11.01h11.009l5.505-5.505v-11.01h-11.009z" stroke-width="2"/><path fill="#ffd0a9" stroke="#a75a05" d="M422.752 40.734h11.009v11.01M433.761 40.734l5.505-5.505" stroke-width="2"/><path fill="#ffd0a9" stroke="#a75a05" d="M422.752 29.725v11.009h11.009l5.505-5.505V24.22h-11.009z" stroke-width="2"/><path fill="#ffd0a9" stroke="#a75a05" d="M422.752 29.725h11.009v11.009M433.761 29.725l5.505-5.505" stroke-width="2"/><path fill="#ffd0a9" stroke="#a75a05" d="M422.752 18.716v11.009h11.009l5.505-5.505V13.211h-11.009z" stroke-width="2"/><path fill="#ffd0a9" stroke="#a75a05" d="M422.752 18.716h11.009v11.009M433.761 18.716l5.505-5.505" stroke-width="2"/><path fill="#ffd0a9" stroke="#a75a05" d="M422.752 7.706v11.01h11.009l5.505-5.505V2.201h-11.009z" stroke-width="2"/><path fill="#ffd0a9" stroke="#a75a05" d="M422.752 7.706h11.009v11.01M433.761 7.706l5.505-5.504M444.771 106.789v11.009h11.009l5.504-5.504v-11.01h-11.009z" stroke-width="2"/><path fill="#ffd0a9" stroke="#a75a05" d="M444.771 106.789h11.009v11.009M455.78 106.789l5.504-5.505" stroke-width="2"/><path fill="#ffd0a9" stroke="#a75a05" d="M444.771 95.78v11.009h11.009l5.504-5.505V90.275h-11.009z" stroke-width="2"/><path fill="#ffd0a9" stroke="#a75a05" d="M444.771 95.78h11.009v11.009M455.78 95.78l5.504-5.505" stroke-width="2"/><path fill="#ffd0a9" stroke="#a75a05" d="M444.771 84.77v11.01h11.009l5.504-5.505V79.266h-11.009z" stroke-width="2"/><path fill="#ffd0a9" stroke="#a75a05" d="M444.771 84.77h11.009v11.01M455.78 84.77l5.504-5.504" stroke-width="2"/><path fill="#ffd0a9" stroke="#a75a05" d="M444.771 73.761v11.01h11.009l5.504-5.505v-11.01h-11.009z" stroke-width="2"/><path fill="#ffd0a9" stroke="#a75a05" d="M444.771 73.761h11.009v11.01M455.78 73.761l5.504-5.504" stroke-width="2"/><path fill="#ffd0a9" stroke="#a75a05" d="M444.771 62.752v11.01h11.009l5.504-5.505v-11.01h-11.009z" stroke-width="2"/><path fill="#ffd0a9" stroke="#a75a05" d="M444.771 62.752h11.009v11.01M455.78 62.752l5.504-5.504" stroke-width="2"/><path fill="#ffd0a9" stroke="#a75a05" d="M444.771 51.743v11.01h11.009l5.504-5.505v-11.01h-11.009z" stroke-width="2"/><path fill="#ffd0a9" stroke="#a75a05" d="M444.771 51.743h11.009v11.01M455.78 51.743l5.504-5.505" stroke-width="2"/><path fill="#ffd0a9" stroke="#a75a05" d="M444.771 40.734v11.01h11.009l5.504-5.505v-11.01h-11.009z" stroke-width="2"/><path fill="#ffd0a9" stroke="#a75a05" d="M444.771 40.734h11.009v11.01M455.78 40.734l5.504-5.505" stroke-width="2"/><path fill="#ffd0a9" stroke="#a75a05" d="M444.771 29.725v11.009h11.009l5.504-5.505V24.22h-11.009z" stroke-width="2"/><path fill="#ffd0a9" stroke="#a75a05" d="M444.771 29.725h11.009v11.009M455.78 29.725l5.504-5.505" stroke-width="2"/><path fill="#ffd0a9" stroke="#a75a05" d="M444.771 18.716v11.009h11.009l5.504-5.505V13.211h-11.009z" stroke-width="2"/><path fill="#ffd0a9" stroke="#a75a05" d="M444.771 18.716h11.009v11.009M455.78 18.716l5.504-5.505" stroke-width="2"/><path fill="#ffd0a9" stroke="#a75a05" d="M444.771 7.706v11.01h11.009l5.504-5.505V2.201h-11.009z" stroke-width="2"/><path fill="#ffd0a9" stroke="#a75a05" d="M444.771 7.706h11.009v11.01M455.78 7.706l5.504-5.504M466.789 106.789v11.009h11.009l5.505-5.504v-11.01h-11.009z" stroke-width="2"/><path fill="#ffd0a9" stroke="#a75a05" d="M466.789 106.789h11.009v11.009M477.798 106.789l5.505-5.505" stroke-width="2"/><path fill="#ffd0a9" stroke="#a75a05" d="M466.789 95.78v11.009h11.009l5.505-5.505V90.275h-11.009z" stroke-width="2"/><path fill="#ffd0a9" stroke="#a75a05" d="M466.789 95.78h11.009v11.009M477.798 95.78l5.505-5.505" stroke-width="2"/><path fill="#ffd0a9" stroke="#a75a05" d="M466.789 84.77v11.01h11.009l5.505-5.505V79.266h-11.009z" stroke-width="2"/><path fill="#ffd0a9" stroke="#a75a05" d="M466.789 84.77h11.009v11.01M477.798 84.77l5.505-5.504" stroke-width="2"/><path fill="#ffd0a9" stroke="#a75a05" d="M466.789 73.761v11.01h11.009l5.505-5.505v-11.01h-11.009z" stroke-width="2"/><path fill="#ffd0a9" stroke="#a75a05" d="M466.789 73.761h11.009v11.01M477.798 73.761l5.505-5.504" stroke-width="2"/><path fill="#ffd0a9" stroke="#a75a05" d="M466.789 62.752v11.01h11.009l5.505-5.505v-11.01h-11.009z" stroke-width="2"/><path fill="#ffd0a9" stroke="#a75a05" d="M466.789 62.752h11.009v11.01M477.798 62.752l5.505-5.504" stroke-width="2"/><path fill="#ffd0a9" stroke="#a75a05" d="M466.789 51.743v11.01h11.009l5.505-5.505v-11.01h-11.009z" stroke-width="2"/><path fill="#ffd0a9" stroke="#a75a05" d="M466.789 51.743h11.009v11.01M477.798 51.743l5.505-5.505" stroke-width="2"/><path fill="#ffd0a9" stroke="#a75a05" d="M466.789 40.734v11.01h11.009l5.505-5.505v-11.01h-11.009z" stroke-width="2"/><path fill="#ffd0a9" stroke="#a75a05" d="M466.789 40.734h11.009v11.01M477.798 40.734l5.505-5.505" stroke-width="2"/><path fill="#ffd0a9" stroke="#a75a05" d="M466.789 29.725v11.009h11.009l5.505-5.505V24.22h-11.009z" stroke-width="2"/><path fill="#ffd0a9" stroke="#a75a05" d="M466.789 29.725h11.009v11.009M477.798 29.725l5.505-5.505" stroke-width="2"/><path fill="#ffd0a9" stroke="#a75a05" d="M466.789 18.716v11.009h11.009l5.505-5.505V13.211h-11.009z" stroke-width="2"/><path fill="#ffd0a9" stroke="#a75a05" d="M466.789 18.716h11.009v11.009M477.798 18.716l5.505-5.505" stroke-width="2"/><path fill="#ffd0a9" stroke="#a75a05" d="M466.789 7.706v11.01h11.009l5.505-5.505V2.201h-11.009z" stroke-width="2"/><path fill="#ffd0a9" stroke="#a75a05" d="M466.789 7.706h11.009v11.01M477.798 7.706l5.505-5.504M488.807 106.789v11.009h11.01l5.504-5.504v-11.01h-11.009z" stroke-width="2"/><path fill="#ffd0a9" stroke="#a75a05" d="M488.807 106.789h11.01v11.009M499.817 106.789l5.504-5.505" stroke-width="2"/><path fill="#ffd0a9" stroke="#a75a05" d="M488.807 95.78v11.009h11.01l5.504-5.505V90.275h-11.009z" stroke-width="2"/><path fill="#ffd0a9" stroke="#a75a05" d="M488.807 95.78h11.01v11.009M499.817 95.78l5.504-5.505" stroke-width="2"/><path fill="#ffd0a9" stroke="#a75a05" d="M488.807 84.77v11.01h11.01l5.504-5.505V79.266h-11.009z" stroke-width="2"/><path fill="#ffd0a9" stroke="#a75a05" d="M488.807 84.77h11.01v11.01M499.817 84.77l5.504-5.504" stroke-width="2"/><path fill="#ffd0a9" stroke="#a75a05" d="M488.807 73.761v11.01h11.01l5.504-5.505v-11.01h-11.009z" stroke-width="2"/><path fill="#ffd0a9" stroke="#a75a05" d="M488.807 73.761h11.01v11.01M499.817 73.761l5.504-5.504" stroke-width="2"/><path fill="#ffd0a9" stroke="#a75a05" d="M488.807 62.752v11.01h11.01l5.504-5.505v-11.01h-11.009z" stroke-width="2"/><path fill="#ffd0a9" stroke="#a75a05" d="M488.807 62.752h11.01v11.01M499.817 62.752l5.504-5.504" stroke-width="2"/><path fill="#ffd0a9" stroke="#a75a05" d="M488.807 51.743v11.01h11.01l5.504-5.505v-11.01h-11.009z" stroke-width="2"/><path fill="#ffd0a9" stroke="#a75a05" d="M488.807 51.743h11.01v11.01M499.817 51.743l5.504-5.505" stroke-width="2"/><path fill="#ffd0a9" stroke="#a75a05" d="M488.807 40.734v11.01h11.01l5.504-5.505v-11.01h-11.009z" stroke-width="2"/><path fill="#ffd0a9" stroke="#a75a05" d="M488.807 40.734h11.01v11.01M499.817 40.734l5.504-5.505" stroke-width="2"/><path fill="#ffd0a9" stroke="#a75a05" d="M488.807 29.725v11.009h11.01l5.504-5.505V24.22h-11.009z" stroke-width="2"/><path fill="#ffd0a9" stroke="#a75a05" d="M488.807 29.725h11.01v11.009M499.817 29.725l5.504-5.505" stroke-width="2"/><path fill="#ffd0a9" stroke="#a75a05" d="M488.807 18.716v11.009h11.01l5.504-5.505V13.211h-11.009z" stroke-width="2"/><path fill="#ffd0a9" stroke="#a75a05" d="M488.807 18.716h11.01v11.009M499.817 18.716l5.504-5.505" stroke-width="2"/><path fill="#ffd0a9" stroke="#a75a05" d="M488.807 7.706v11.01h11.01l5.504-5.505V2.201h-11.009z" stroke-width="2"/><path fill="#ffd0a9" stroke="#a75a05" d="M488.807 7.706h11.01v11.01M499.817 7.706l5.504-5.504M510.826 106.789v11.009h11.009l5.504-5.504v-11.01H516.33z" stroke-width="2"/><path fill="#ffd0a9" stroke="#a75a05" d="M510.826 106.789h11.009v11.009M521.835 106.789l5.504-5.505" stroke-width="2"/><path fill="#ffd0a9" stroke="#a75a05" d="M510.826 95.78v11.009h11.009l5.504-5.505V90.275H516.33z" stroke-width="2"/><path fill="#ffd0a9" stroke="#a75a05" d="M510.826 95.78h11.009v11.009M521.835 95.78l5.504-5.505" stroke-width="2"/><path fill="#ffd0a9" stroke="#a75a05" d="M510.826 84.77v11.01h11.009l5.504-5.505V79.266H516.33z" stroke-width="2"/><path fill="#ffd0a9" stroke="#a75a05" d="M510.826 84.77h11.009v11.01M521.835 84.77l5.504-5.504" stroke-width="2"/><path fill="#ffd0a9" stroke="#a75a05" d="M510.826 73.761v11.01h11.009l5.504-5.505v-11.01H516.33z" stroke-width="2"/><path fill="#ffd0a9" stroke="#a75a05" d="M510.826 73.761h11.009v11.01M521.835 73.761l5.504-5.504" stroke-width="2"/><path fill="#ffd0a9" stroke="#a75a05" d="M510.826 62.752v11.01h11.009l5.504-5.505v-11.01H516.33z" stroke-width="2"/><path fill="#ffd0a9" stroke="#a75a05" d="M510.826 62.752h11.009v11.01M521.835 62.752l5.504-5.504" stroke-width="2"/><path fill="#ffd0a9" stroke="#a75a05" d="M510.826 51.743v11.01h11.009l5.504-5.505v-11.01H516.33z" stroke-width="2"/><path fill="#ffd0a9" stroke="#a75a05" d="M510.826 51.743h11.009v11.01M521.835 51.743l5.504-5.505" stroke-width="2"/><path fill="#ffd0a9" stroke="#a75a05" d="M510.826 40.734v11.01h11.009l5.504-5.505v-11.01H516.33z" stroke-width="2"/><path fill="#ffd0a9" stroke="#a75a05" d="M510.826 40.734h11.009v11.01M521.835 40.734l5.504-5.505" stroke-width="2"/><path fill="#ffd0a9" stroke="#a75a05" d="M510.826 29.725v11.009h11.009l5.504-5.505V24.22H516.33z" stroke-width="2"/><path fill="#ffd0a9" stroke="#a75a05" d="M510.826 29.725h11.009v11.009M521.835 29.725l5.504-5.505" stroke-width="2"/><path fill="#ffd0a9" stroke="#a75a05" d="M510.826 18.716v11.009h11.009l5.504-5.505V13.211H516.33z" stroke-width="2"/><path fill="#ffd0a9" stroke="#a75a05" d="M510.826 18.716h11.009v11.009M521.835 18.716l5.504-5.505" stroke-width="2"/><path fill="#ffd0a9" stroke="#a75a05" d="M510.826 7.706v11.01h11.009l5.504-5.505V2.201H516.33z" stroke-width="2"/><path fill="#ffd0a9" stroke="#a75a05" d="M510.826 7.706h11.009v11.01M521.835 7.706l5.504-5.504M532.844 106.789v11.009h11.009l5.505-5.504v-11.01h-11.009z" stroke-width="2"/><path fill="#ffd0a9" stroke="#a75a05" d="M532.844 106.789h11.009v11.009M543.853 106.789l5.505-5.505" stroke-width="2"/><path fill="#ffd0a9" stroke="#a75a05" d="M532.844 95.78v11.009h11.009l5.505-5.505V90.275h-11.009z" stroke-width="2"/><path fill="#ffd0a9" stroke="#a75a05" d="M532.844 95.78h11.009v11.009M543.853 95.78l5.505-5.505" stroke-width="2"/><path fill="#ffd0a9" stroke="#a75a05" d="M532.844 84.77v11.01h11.009l5.505-5.505V79.266h-11.009z" stroke-width="2"/><path fill="#ffd0a9" stroke="#a75a05" d="M532.844 84.77h11.009v11.01M543.853 84.77l5.505-5.504" stroke-width="2"/><path fill="#ffd0a9" stroke="#a75a05" d="M532.844 73.761v11.01h11.009l5.505-5.505v-11.01h-11.009z" stroke-width="2"/><path fill="#ffd0a9" stroke="#a75a05" d="M532.844 73.761h11.009v11.01M543.853 73.761l5.505-5.504" stroke-width="2"/><path fill="#ffd0a9" stroke="#a75a05" d="M532.844 62.752v11.01h11.009l5.505-5.505v-11.01h-11.009z" stroke-width="2"/><path fill="#ffd0a9" stroke="#a75a05" d="M532.844 62.752h11.009v11.01M543.853 62.752l5.505-5.504" stroke-width="2"/><path fill="#ffd0a9" stroke="#a75a05" d="M532.844 51.743v11.01h11.009l5.505-5.505v-11.01h-11.009z" stroke-width="2"/><path fill="#ffd0a9" stroke="#a75a05" d="M532.844 51.743h11.009v11.01M543.853 51.743l5.505-5.505" stroke-width="2"/><path fill="#ffd0a9" stroke="#a75a05" d="M532.844 40.734v11.01h11.009l5.505-5.505v-11.01h-11.009z" stroke-width="2"/><path fill="#ffd0a9" stroke="#a75a05" d="M532.844 40.734h11.009v11.01M543.853 40.734l5.505-5.505" stroke-width="2"/><path fill="#ffd0a9" stroke="#a75a05" d="M532.844 29.725v11.009h11.009l5.505-5.505V24.22h-11.009z" stroke-width="2"/><path fill="#ffd0a9" stroke="#a75a05" d="M532.844 29.725h11.009v11.009M543.853 29.725l5.505-5.505" stroke-width="2"/><path fill="#ffd0a9" stroke="#a75a05" d="M532.844 18.716v11.009h11.009l5.505-5.505V13.211h-11.009z" stroke-width="2"/><path fill="#ffd0a9" stroke="#a75a05" d="M532.844 18.716h11.009v11.009M543.853 18.716l5.505-5.505" stroke-width="2"/><path fill="#ffd0a9" stroke="#a75a05" d="M532.844 7.706v11.01h11.009l5.505-5.505V2.201h-11.009z" stroke-width="2"/><path fill="#ffd0a9" stroke="#a75a05" d="M532.844 7.706h11.009v11.01M543.853 7.706l5.505-5.504M554.862 106.789v11.009h11.01l5.504-5.504v-11.01h-11.009z" stroke-width="2"/><path fill="#ffd0a9" stroke="#a75a05" d="M554.862 106.789h11.01v11.009M565.872 106.789l5.504-5.505M554.862 84.77v11.01h11.01l5.504-5.505V79.266h-11.009z" stroke-width="2"/><path fill="#ffd0a9" stroke="#a75a05" d="M554.862 84.77h11.01v11.01M565.872 84.77l5.504-5.504M554.862 62.752v11.01h11.01l5.504-5.505v-11.01h-11.009z" stroke-width="2"/><path fill="#ffd0a9" stroke="#a75a05" d="M554.862 62.752h11.01v11.01M565.872 62.752l5.504-5.504" stroke-width="2"/></svg>
