<svg xmlns="http://www.w3.org/2000/svg" width="354.495" height="120" viewBox="0 0 354.49541284403676 120"><path fill="#ccfaff" stroke="#0c7f99" d="M4.404 106.789v11.009h11.009l5.504-5.504v-11.01H9.908z" stroke-width="2"/><path fill="#ccfaff" stroke="#0c7f99" d="M4.404 106.789h11.009v11.009M15.413 106.789l5.504-5.505" stroke-width="2"/><path fill="#ccfaff" stroke="#0c7f99" d="M4.404 95.78v11.009h11.009l5.504-5.505V90.275H9.908z" stroke-width="2"/><path fill="#ccfaff" stroke="#0c7f99" d="M4.404 95.78h11.009v11.009M15.413 95.78l5.504-5.505" stroke-width="2"/><path fill="#ccfaff" stroke="#0c7f99" d="M4.404 84.77v11.01h11.009l5.504-5.505V79.266H9.908z" stroke-width="2"/><path fill="#ccfaff" stroke="#0c7f99" d="M4.404 84.77h11.009v11.01M15.413 84.77l5.504-5.504" stroke-width="2"/><path fill="#ccfaff" stroke="#0c7f99" d="M4.404 73.761v11.01h11.009l5.504-5.505v-11.01H9.908z" stroke-width="2"/><path fill="#ccfaff" stroke="#0c7f99" d="M4.404 73.761h11.009v11.01M15.413 73.761l5.504-5.504" stroke-width="2"/><path fill="#ccfaff" stroke="#0c7f99" d="M4.404 62.752v11.01h11.009l5.504-5.505v-11.01H9.908z" stroke-width="2"/><path fill="#ccfaff" stroke="#0c7f99" d="M4.404 62.752h11.009v11.01M15.413 62.752l5.504-5.504" stroke-width="2"/><path fill="#ccfaff" stroke="#0c7f99" d="M4.404 51.743v11.01h11.009l5.504-5.505v-11.01H9.908z" stroke-width="2"/><path fill="#ccfaff" stroke="#0c7f99" d="M4.404 51.743h11.009v11.01M15.413 51.743l5.504-5.505" stroke-width="2"/><path fill="#ccfaff" stroke="#0c7f99" d="M4.404 40.734v11.01h11.009l5.504-5.505v-11.01H9.908z" stroke-width="2"/><path fill="#ccfaff" stroke="#0c7f99" d="M4.404 40.734h11.009v11.01M15.413 40.734l5.504-5.505" stroke-width="2"/><path fill="#ccfaff" stroke="#0c7f99" d="M4.404 29.725v11.009h11.009l5.504-5.505V24.22H9.908z" stroke-width="2"/><path fill="#ccfaff" stroke="#0c7f99" d="M4.404 29.725h11.009v11.009M15.413 29.725l5.504-5.505" stroke-width="2"/><path fill="#ccfaff" stroke="#0c7f99" d="M4.404 18.716v11.009h11.009l5.504-5.505V13.211H9.908z" stroke-width="2"/><path fill="#ccfaff" stroke="#0c7f99" d="M4.404 18.716h11.009v11.009M15.413 18.716l5.504-5.505" stroke-width="2"/><path fill="#ccfaff" stroke="#0c7f99" d="M4.404 7.706v11.01h11.009l5.504-5.505V2.201H9.908z" stroke-width="2"/><path fill="#ccfaff" stroke="#0c7f99" d="M4.404 7.706h11.009v11.01M15.413 7.706l5.504-5.504M26.422 106.789v11.009h11.01l5.504-5.504v-11.01h-11.01z" stroke-width="2"/><path fill="#ccfaff" stroke="#0c7f99" d="M26.422 106.789h11.01v11.009M37.431 106.789l5.505-5.505M26.422 84.77v11.01h11.01l5.504-5.505V79.266h-11.01z" stroke-width="2"/><path fill="#ccfaff" stroke="#0c7f99" d="M26.422 84.77h11.01v11.01M37.431 84.77l5.505-5.504M26.422 62.752v11.01h11.01l5.504-5.505v-11.01h-11.01z" stroke-width="2"/><path fill="#ccfaff" stroke="#0c7f99" d="M26.422 62.752h11.01v11.01M37.431 62.752l5.505-5.504M26.422 40.734v11.01h11.01l5.504-5.505v-11.01h-11.01z" stroke-width="2"/><path fill="#ccfaff" stroke="#0c7f99" d="M26.422 40.734h11.01v11.01M37.431 40.734l5.505-5.505" stroke-width="2"/><path fill="#ffd0a9" stroke="#a75a05" d="M202.569 106.789v11.009h11.009l5.505-5.504v-11.01h-11.01z" stroke-width="2"/><path fill="#ffd0a9" stroke="#a75a05" d="M202.569 106.789h11.009v11.009M213.578 106.789l5.505-5.505" stroke-width="2"/><path fill="#ffd0a9" stroke="#a75a05" d="M202.569 95.78v11.009h11.009l5.505-5.505V90.275h-11.01z" stroke-width="2"/><path fill="#ffd0a9" stroke="#a75a05" d="M202.569 95.78h11.009v11.009M213.578 95.78l5.505-5.505" stroke-width="2"/><path fill="#ffd0a9" stroke="#a75a05" d="M202.569 84.77v11.01h11.009l5.505-5.505V79.266h-11.01z" stroke-width="2"/><path fill="#ffd0a9" stroke="#a75a05" d="M202.569 84.77h11.009v11.01M213.578 84.77l5.505-5.504" stroke-width="2"/><path fill="#ffd0a9" stroke="#a75a05" d="M202.569 73.761v11.01h11.009l5.505-5.505v-11.01h-11.01z" stroke-width="2"/><path fill="#ffd0a9" stroke="#a75a05" d="M202.569 73.761h11.009v11.01M213.578 73.761l5.505-5.504" stroke-width="2"/><path fill="#ffd0a9" stroke="#a75a05" d="M202.569 62.752v11.01h11.009l5.505-5.505v-11.01h-11.01z" stroke-width="2"/><path fill="#ffd0a9" stroke="#a75a05" d="M202.569 62.752h11.009v11.01M213.578 62.752l5.505-5.504" stroke-width="2"/><path fill="#ffd0a9" stroke="#a75a05" d="M202.569 51.743v11.01h11.009l5.505-5.505v-11.01h-11.01z" stroke-width="2"/><path fill="#ffd0a9" stroke="#a75a05" d="M202.569 51.743h11.009v11.01M213.578 51.743l5.505-5.505" stroke-width="2"/><path fill="#ffd0a9" stroke="#a75a05" d="M202.569 40.734v11.01h11.009l5.505-5.505v-11.01h-11.01z" stroke-width="2"/><path fill="#ffd0a9" stroke="#a75a05" d="M202.569 40.734h11.009v11.01M213.578 40.734l5.505-5.505" stroke-width="2"/><path fill="#ffd0a9" stroke="#a75a05" d="M202.569 29.725v11.009h11.009l5.505-5.505V24.22h-11.01z" stroke-width="2"/><path fill="#ffd0a9" stroke="#a75a05" d="M202.569 29.725h11.009v11.009M213.578 29.725l5.505-5.505" stroke-width="2"/><path fill="#ffd0a9" stroke="#a75a05" d="M202.569 18.716v11.009h11.009l5.505-5.505V13.211h-11.01z" stroke-width="2"/><path fill="#ffd0a9" stroke="#a75a05" d="M202.569 18.716h11.009v11.009M213.578 18.716l5.505-5.505" stroke-width="2"/><path fill="#ffd0a9" stroke="#a75a05" d="M202.569 7.706v11.01h11.009l5.505-5.505V2.201h-11.01z" stroke-width="2"/><path fill="#ffd0a9" stroke="#a75a05" d="M202.569 7.706h11.009v11.01M213.578 7.706l5.505-5.504M224.587 106.789v11.009h11.009l5.505-5.504v-11.01h-11.009z" stroke-width="2"/><path fill="#ffd0a9" stroke="#a75a05" d="M224.587 106.789h11.009v11.009M235.596 106.789l5.505-5.505" stroke-width="2"/><path fill="#ffd0a9" stroke="#a75a05" d="M224.587 95.78v11.009h11.009l5.505-5.505V90.275h-11.009z" stroke-width="2"/><path fill="#ffd0a9" stroke="#a75a05" d="M224.587 95.78h11.009v11.009M235.596 95.78l5.505-5.505" stroke-width="2"/><path fill="#ffd0a9" stroke="#a75a05" d="M224.587 84.77v11.01h11.009l5.505-5.505V79.266h-11.009z" stroke-width="2"/><path fill="#ffd0a9" stroke="#a75a05" d="M224.587 84.77h11.009v11.01M235.596 84.77l5.505-5.504" stroke-width="2"/><path fill="#ffd0a9" stroke="#a75a05" d="M224.587 73.761v11.01h11.009l5.505-5.505v-11.01h-11.009z" stroke-width="2"/><path fill="#ffd0a9" stroke="#a75a05" d="M224.587 73.761h11.009v11.01M235.596 73.761l5.505-5.504" stroke-width="2"/><path fill="#ffd0a9" stroke="#a75a05" d="M224.587 62.752v11.01h11.009l5.505-5.505v-11.01h-11.009z" stroke-width="2"/><path fill="#ffd0a9" stroke="#a75a05" d="M224.587 62.752h11.009v11.01M235.596 62.752l5.505-5.504" stroke-width="2"/><path fill="#ffd0a9" stroke="#a75a05" d="M224.587 51.743v11.01h11.009l5.505-5.505v-11.01h-11.009z" stroke-width="2"/><path fill="#ffd0a9" stroke="#a75a05" d="M224.587 51.743h11.009v11.01M235.596 51.743l5.505-5.505" stroke-width="2"/><path fill="#ffd0a9" stroke="#a75a05" d="M224.587 40.734v11.01h11.009l5.505-5.505v-11.01h-11.009z" stroke-width="2"/><path fill="#ffd0a9" stroke="#a75a05" d="M224.587 40.734h11.009v11.01M235.596 40.734l5.505-5.505" stroke-width="2"/><path fill="#ffd0a9" stroke="#a75a05" d="M224.587 29.725v11.009h11.009l5.505-5.505V24.22h-11.009z" stroke-width="2"/><path fill="#ffd0a9" stroke="#a75a05" d="M224.587 29.725h11.009v11.009M235.596 29.725l5.505-5.505" stroke-width="2"/><path fill="#ffd0a9" stroke="#a75a05" d="M224.587 18.716v11.009h11.009l5.505-5.505V13.211h-11.009z" stroke-width="2"/><path fill="#ffd0a9" stroke="#a75a05" d="M224.587 18.716h11.009v11.009M235.596 18.716l5.505-5.505" stroke-width="2"/><path fill="#ffd0a9" stroke="#a75a05" d="M224.587 7.706v11.01h11.009l5.505-5.505V2.201h-11.009z" stroke-width="2"/><path fill="#ffd0a9" stroke="#a75a05" d="M224.587 7.706h11.009v11.01M235.596 7.706l5.505-5.504M246.606 106.789v11.009h11.009l5.504-5.504v-11.01H252.11z" stroke-width="2"/><path fill="#ffd0a9" stroke="#a75a05" d="M246.606 106.789h11.009v11.009M257.615 106.789l5.504-5.505" stroke-width="2"/><path fill="#ffd0a9" stroke="#a75a05" d="M246.606 95.78v11.009h11.009l5.504-5.505V90.275H252.11z" stroke-width="2"/><path fill="#ffd0a9" stroke="#a75a05" d="M246.606 95.78h11.009v11.009M257.615 95.78l5.504-5.505" stroke-width="2"/><path fill="#ffd0a9" stroke="#a75a05" d="M246.606 84.77v11.01h11.009l5.504-5.505V79.266H252.11z" stroke-width="2"/><path fill="#ffd0a9" stroke="#a75a05" d="M246.606 84.77h11.009v11.01M257.615 84.77l5.504-5.504" stroke-width="2"/><path fill="#ffd0a9" stroke="#a75a05" d="M246.606 73.761v11.01h11.009l5.504-5.505v-11.01H252.11z" stroke-width="2"/><path fill="#ffd0a9" stroke="#a75a05" d="M246.606 73.761h11.009v11.01M257.615 73.761l5.504-5.504" stroke-width="2"/><path fill="#ffd0a9" stroke="#a75a05" d="M246.606 62.752v11.01h11.009l5.504-5.505v-11.01H252.11z" stroke-width="2"/><path fill="#ffd0a9" stroke="#a75a05" d="M246.606 62.752h11.009v11.01M257.615 62.752l5.504-5.504" stroke-width="2"/><path fill="#ffd0a9" stroke="#a75a05" d="M246.606 51.743v11.01h11.009l5.504-5.505v-11.01H252.11z" stroke-width="2"/><path fill="#ffd0a9" stroke="#a75a05" d="M246.606 51.743h11.009v11.01M257.615 51.743l5.504-5.505" stroke-width="2"/><path fill="#ffd0a9" stroke="#a75a05" d="M246.606 40.734v11.01h11.009l5.504-5.505v-11.01H252.11z" stroke-width="2"/><path fill="#ffd0a9" stroke="#a75a05" d="M246.606 40.734h11.009v11.01M257.615 40.734l5.504-5.505" stroke-width="2"/><path fill="#ffd0a9" stroke="#a75a05" d="M246.606 29.725v11.009h11.009l5.504-5.505V24.22H252.11z" stroke-width="2"/><path fill="#ffd0a9" stroke="#a75a05" d="M246.606 29.725h11.009v11.009M257.615 29.725l5.504-5.505" stroke-width="2"/><path fill="#ffd0a9" stroke="#a75a05" d="M246.606 18.716v11.009h11.009l5.504-5.505V13.211H252.11z" stroke-width="2"/><path fill="#ffd0a9" stroke="#a75a05" d="M246.606 18.716h11.009v11.009M257.615 18.716l5.504-5.505" stroke-width="2"/><path fill="#ffd0a9" stroke="#a75a05" d="M246.606 7.706v11.01h11.009l5.504-5.505V2.201H252.11z" stroke-width="2"/><path fill="#ffd0a9" stroke="#a75a05" d="M246.606 7.706h11.009v11.01M257.615 7.706l5.504-5.504M268.624 106.789v11.009h11.009l5.505-5.504v-11.01h-11.01z" stroke-width="2"/><path fill="#ffd0a9" stroke="#a75a05" d="M268.624 106.789h11.009v11.009M279.633 106.789l5.505-5.505" stroke-width="2"/><path fill="#ffd0a9" stroke="#a75a05" d="M268.624 95.78v11.009h11.009l5.505-5.505V90.275h-11.01z" stroke-width="2"/><path fill="#ffd0a9" stroke="#a75a05" d="M268.624 95.78h11.009v11.009M279.633 95.78l5.505-5.505" stroke-width="2"/><path fill="#ffd0a9" stroke="#a75a05" d="M268.624 84.77v11.01h11.009l5.505-5.505V79.266h-11.01z" stroke-width="2"/><path fill="#ffd0a9" stroke="#a75a05" d="M268.624 84.77h11.009v11.01M279.633 84.77l5.505-5.504" stroke-width="2"/><path fill="#ffd0a9" stroke="#a75a05" d="M268.624 73.761v11.01h11.009l5.505-5.505v-11.01h-11.01z" stroke-width="2"/><path fill="#ffd0a9" stroke="#a75a05" d="M268.624 73.761h11.009v11.01M279.633 73.761l5.505-5.504" stroke-width="2"/><path fill="#ffd0a9" stroke="#a75a05" d="M268.624 62.752v11.01h11.009l5.505-5.505v-11.01h-11.01z" stroke-width="2"/><path fill="#ffd0a9" stroke="#a75a05" d="M268.624 62.752h11.009v11.01M279.633 62.752l5.505-5.504" stroke-width="2"/><path fill="#ffd0a9" stroke="#a75a05" d="M268.624 51.743v11.01h11.009l5.505-5.505v-11.01h-11.01z" stroke-width="2"/><path fill="#ffd0a9" stroke="#a75a05" d="M268.624 51.743h11.009v11.01M279.633 51.743l5.505-5.505" stroke-width="2"/><path fill="#ffd0a9" stroke="#a75a05" d="M268.624 40.734v11.01h11.009l5.505-5.505v-11.01h-11.01z" stroke-width="2"/><path fill="#ffd0a9" stroke="#a75a05" d="M268.624 40.734h11.009v11.01M279.633 40.734l5.505-5.505" stroke-width="2"/><path fill="#ffd0a9" stroke="#a75a05" d="M268.624 29.725v11.009h11.009l5.505-5.505V24.22h-11.01z" stroke-width="2"/><path fill="#ffd0a9" stroke="#a75a05" d="M268.624 29.725h11.009v11.009M279.633 29.725l5.505-5.505" stroke-width="2"/><path fill="#ffd0a9" stroke="#a75a05" d="M268.624 18.716v11.009h11.009l5.505-5.505V13.211h-11.01z" stroke-width="2"/><path fill="#ffd0a9" stroke="#a75a05" d="M268.624 18.716h11.009v11.009M279.633 18.716l5.505-5.505" stroke-width="2"/><path fill="#ffd0a9" stroke="#a75a05" d="M268.624 7.706v11.01h11.009l5.505-5.505V2.201h-11.01z" stroke-width="2"/><path fill="#ffd0a9" stroke="#a75a05" d="M268.624 7.706h11.009v11.01M279.633 7.706l5.505-5.504M290.642 106.789v11.009h11.009l5.505-5.504v-11.01h-11.009z" stroke-width="2"/><path fill="#ffd0a9" stroke="#a75a05" d="M290.642 106.789h11.009v11.009M301.651 106.789l5.505-5.505" stroke-width="2"/><path fill="#ffd0a9" stroke="#a75a05" d="M290.642 95.78v11.009h11.009l5.505-5.505V90.275h-11.009z" stroke-width="2"/><path fill="#ffd0a9" stroke="#a75a05" d="M290.642 95.78h11.009v11.009M301.651 95.78l5.505-5.505" stroke-width="2"/><path fill="#ffd0a9" stroke="#a75a05" d="M290.642 84.77v11.01h11.009l5.505-5.505V79.266h-11.009z" stroke-width="2"/><path fill="#ffd0a9" stroke="#a75a05" d="M290.642 84.77h11.009v11.01M301.651 84.77l5.505-5.504" stroke-width="2"/><path fill="#ffd0a9" stroke="#a75a05" d="M290.642 73.761v11.01h11.009l5.505-5.505v-11.01h-11.009z" stroke-width="2"/><path fill="#ffd0a9" stroke="#a75a05" d="M290.642 73.761h11.009v11.01M301.651 73.761l5.505-5.504" stroke-width="2"/><path fill="#ffd0a9" stroke="#a75a05" d="M290.642 62.752v11.01h11.009l5.505-5.505v-11.01h-11.009z" stroke-width="2"/><path fill="#ffd0a9" stroke="#a75a05" d="M290.642 62.752h11.009v11.01M301.651 62.752l5.505-5.504" stroke-width="2"/><path fill="#ffd0a9" stroke="#a75a05" d="M290.642 51.743v11.01h11.009l5.505-5.505v-11.01h-11.009z" stroke-width="2"/><path fill="#ffd0a9" stroke="#a75a05" d="M290.642 51.743h11.009v11.01M301.651 51.743l5.505-5.505" stroke-width="2"/><path fill="#ffd0a9" stroke="#a75a05" d="M290.642 40.734v11.01h11.009l5.505-5.505v-11.01h-11.009z" stroke-width="2"/><path fill="#ffd0a9" stroke="#a75a05" d="M290.642 40.734h11.009v11.01M301.651 40.734l5.505-5.505" stroke-width="2"/><path fill="#ffd0a9" stroke="#a75a05" d="M290.642 29.725v11.009h11.009l5.505-5.505V24.22h-11.009z" stroke-width="2"/><path fill="#ffd0a9" stroke="#a75a05" d="M290.642 29.725h11.009v11.009M301.651 29.725l5.505-5.505" stroke-width="2"/><path fill="#ffd0a9" stroke="#a75a05" d="M290.642 18.716v11.009h11.009l5.505-5.505V13.211h-11.009z" stroke-width="2"/><path fill="#ffd0a9" stroke="#a75a05" d="M290.642 18.716h11.009v11.009M301.651 18.716l5.505-5.505" stroke-width="2"/><path fill="#ffd0a9" stroke="#a75a05" d="M290.642 7.706v11.01h11.009l5.505-5.505V2.201h-11.009z" stroke-width="2"/><path fill="#ffd0a9" stroke="#a75a05" d="M290.642 7.706h11.009v11.01M301.651 7.706l5.505-5.504M312.661 106.789v11.009h11.009l5.504-5.504v-11.01h-11.009z" stroke-width="2"/><path fill="#ffd0a9" stroke="#a75a05" d="M312.661 106.789h11.009v11.009M323.67 106.789l5.504-5.505" stroke-width="2"/><path fill="#ffd0a9" stroke="#a75a05" d="M312.661 95.78v11.009h11.009l5.504-5.505V90.275h-11.009z" stroke-width="2"/><path fill="#ffd0a9" stroke="#a75a05" d="M312.661 95.78h11.009v11.009M323.67 95.78l5.504-5.505" stroke-width="2"/><path fill="#ffd0a9" stroke="#a75a05" d="M312.661 84.77v11.01h11.009l5.504-5.505V79.266h-11.009z" stroke-width="2"/><path fill="#ffd0a9" stroke="#a75a05" d="M312.661 84.77h11.009v11.01M323.67 84.77l5.504-5.504" stroke-width="2"/><path fill="#ffd0a9" stroke="#a75a05" d="M312.661 73.761v11.01h11.009l5.504-5.505v-11.01h-11.009z" stroke-width="2"/><path fill="#ffd0a9" stroke="#a75a05" d="M312.661 73.761h11.009v11.01M323.67 73.761l5.504-5.504" stroke-width="2"/><path fill="#ffd0a9" stroke="#a75a05" d="M312.661 62.752v11.01h11.009l5.504-5.505v-11.01h-11.009z" stroke-width="2"/><path fill="#ffd0a9" stroke="#a75a05" d="M312.661 62.752h11.009v11.01M323.67 62.752l5.504-5.504" stroke-width="2"/><path fill="#ffd0a9" stroke="#a75a05" d="M312.661 51.743v11.01h11.009l5.504-5.505v-11.01h-11.009z" stroke-width="2"/><path fill="#ffd0a9" stroke="#a75a05" d="M312.661 51.743h11.009v11.01M323.67 51.743l5.504-5.505" stroke-width="2"/><path fill="#ffd0a9" stroke="#a75a05" d="M312.661 40.734v11.01h11.009l5.504-5.505v-11.01h-11.009z" stroke-width="2"/><path fill="#ffd0a9" stroke="#a75a05" d="M312.661 40.734h11.009v11.01M323.67 40.734l5.504-5.505" stroke-width="2"/><path fill="#ffd0a9" stroke="#a75a05" d="M312.661 29.725v11.009h11.009l5.504-5.505V24.22h-11.009z" stroke-width="2"/><path fill="#ffd0a9" stroke="#a75a05" d="M312.661 29.725h11.009v11.009M323.67 29.725l5.504-5.505" stroke-width="2"/><path fill="#ffd0a9" stroke="#a75a05" d="M312.661 18.716v11.009h11.009l5.504-5.505V13.211h-11.009z" stroke-width="2"/><path fill="#ffd0a9" stroke="#a75a05" d="M312.661 18.716h11.009v11.009M323.67 18.716l5.504-5.505" stroke-width="2"/><path fill="#ffd0a9" stroke="#a75a05" d="M312.661 7.706v11.01h11.009l5.504-5.505V2.201h-11.009z" stroke-width="2"/><path fill="#ffd0a9" stroke="#a75a05" d="M312.661 7.706h11.009v11.01M323.67 7.706l5.504-5.504M334.679 106.789v11.009h11.009l5.505-5.504v-11.01h-11.01z" stroke-width="2"/><path fill="#ffd0a9" stroke="#a75a05" d="M334.679 106.789h11.009v11.009M345.688 106.789l5.505-5.505M334.679 84.77v11.01h11.009l5.505-5.505V79.266h-11.01z" stroke-width="2"/><path fill="#ffd0a9" stroke="#a75a05" d="M334.679 84.77h11.009v11.01M345.688 84.77l5.505-5.504M334.679 62.752v11.01h11.009l5.505-5.505v-11.01h-11.01z" stroke-width="2"/><path fill="#ffd0a9" stroke="#a75a05" d="M334.679 62.752h11.009v11.01M345.688 62.752l5.505-5.504M334.679 40.734v11.01h11.009l5.505-5.505v-11.01h-11.01z" stroke-width="2"/><path fill="#ffd0a9" stroke="#a75a05" d="M334.679 40.734h11.009v11.01M345.688 40.734l5.505-5.505M334.679 18.716v11.009h11.009l5.505-5.505V13.211h-11.01z" stroke-width="2"/><path fill="#ffd0a9" stroke="#a75a05" d="M334.679 18.716h11.009v11.009M345.688 18.716l5.505-5.505" stroke-width="2"/></svg>
