<svg xmlns="http://www.w3.org/2000/svg" width="460" height="160" viewBox="0 0 460.00000000000006 160"><path fill="none" stroke="#000" d="M449.45 125.6c.35-2.1 4.2-5.25 5.25-5.6-1.05-.35-4.9-3.5-5.25-5.6" stroke-width="2" stroke-linejoin="round" stroke-linecap="round"/><path fill="none" stroke="#000" d="M5 120h448.95" stroke-width="2"/><path fill="none" stroke="#000" d="M12.05 114.4c-.35 2.1-4.2 5.25-5.25 5.6 1.05.35 4.9 3.5 5.25 5.6" stroke-width="2" stroke-linejoin="round" stroke-linecap="round"/><path fill="none" stroke="#000" d="M455 120H6.05M30 128v-16" stroke-width="2"/><path fill="none" stroke="#000" d="M30 128v-16M105.676 128v-16M430 128v-16" stroke-width="3.5"/><ellipse cx="-586.216" cy="120" rx="5" ry="5"/><path fill="none" stroke="#7854ab" d="M430 120a162.162 24 0 0 0-324.324 0M105.676 120l3.745-8M105.675 120l-4.063-5.473" stroke-width="2" stroke-dasharray="0"/></svg>
